<?xml version="1.0" encoding="UTF-8" standalone="no"?>
<!DOCTYPE svg PUBLIC "-//W3C//DTD SVG 1.1//EN"
 "http://www.w3.org/Graphics/SVG/1.1/DTD/svg11.dtd">
<!-- Generated by graphviz version 2.40.1 (20161225.0304)
 -->
<!-- Title: gocallvis Pages: 1 -->
<svg width="675pt" height="695pt"
 viewBox="0.00 0.00 674.70 695.00" xmlns="http://www.w3.org/2000/svg" xmlns:xlink="http://www.w3.org/1999/xlink">
<g id="graph0" class="graph" transform="scale(1 1) rotate(0) translate(0 695)">
<title>gocallvis</title>
<polygon fill="#d3d3d3" stroke="transparent" points="0,0 0,-695 674.6972,-695 674.6972,0 0,0"/>
<g id="clust1" class="cluster">
<title>cluster_focus</title>
<polygon fill="#e6ecfa" stroke="#000000" stroke-width=".5" points="8,-8 8,-687 667.6972,-687 667.6972,-8 8,-8"/>
<text text-anchor="middle" x="337.8486" y="-666.8" font-family="Arial" font-size="18.00" fill="#000000">lease</text>
</g>
<g id="clust6" class="cluster">
<title>cluster_github.com/go&#45;i2p/go&#45;i2p/lib/common/lease.Lease</title>
<g id="a_clust6"><a xlink:title="type: github.com/go&#45;i2p/go&#45;i2p/lib/common/lease.Lease">
<path fill="#b0c4de" stroke="#000000" stroke-width=".5" d="M436.3753,-510C436.3753,-510 506.8003,-510 506.8003,-510 512.8003,-510 518.8003,-516 518.8003,-522 518.8003,-522 518.8003,-637 518.8003,-637 518.8003,-643 512.8003,-649 506.8003,-649 506.8003,-649 436.3753,-649 436.3753,-649 430.3753,-649 424.3753,-643 424.3753,-637 424.3753,-637 424.3753,-522 424.3753,-522 424.3753,-516 430.3753,-510 436.3753,-510"/>
<text text-anchor="middle" x="471.5878" y="-518.5" font-family="Arial" font-size="15.00" fill="#222222">(Lease)</text>
</a>
</g>
</g>
<g id="clust5" class="cluster">
<title>cluster_github.com/go&#45;i2p/go&#45;i2p/lib/common/data.Integer</title>
<g id="a_clust5"><a xlink:title="type: github.com/go&#45;i2p/go&#45;i2p/lib/common/data.Integer">
<path fill="#eed8ae" stroke="#000000" stroke-width=".5" d="M599.6972,-510C599.6972,-510 647.6972,-510 647.6972,-510 653.6972,-510 659.6972,-516 659.6972,-522 659.6972,-522 659.6972,-576 659.6972,-576 659.6972,-582 653.6972,-588 647.6972,-588 647.6972,-588 599.6972,-588 599.6972,-588 593.6972,-588 587.6972,-582 587.6972,-576 587.6972,-576 587.6972,-522 587.6972,-522 587.6972,-516 593.6972,-510 599.6972,-510"/>
<text text-anchor="middle" x="623.6972" y="-518.5" font-family="Arial" font-size="15.00" fill="#222222">(Integer)</text>
</a>
</g>
</g>
<g id="clust4" class="cluster">
<title>cluster_github.com/go&#45;i2p/go&#45;i2p/lib/common/data.Date</title>
<g id="a_clust4"><a xlink:title="type: github.com/go&#45;i2p/go&#45;i2p/lib/common/data.Date">
<path fill="#eed8ae" stroke="#000000" stroke-width=".5" d="M448.5878,-424C448.5878,-424 494.5878,-424 494.5878,-424 500.5878,-424 506.5878,-430 506.5878,-436 506.5878,-436 506.5878,-490 506.5878,-490 506.5878,-496 500.5878,-502 494.5878,-502 494.5878,-502 448.5878,-502 448.5878,-502 442.5878,-502 436.5878,-496 436.5878,-490 436.5878,-490 436.5878,-436 436.5878,-436 436.5878,-430 442.5878,-424 448.5878,-424"/>
<text text-anchor="middle" x="471.5878" y="-432.5" font-family="Arial" font-size="15.00" fill="#222222">(Date)</text>
</a>
</g>
</g>
<g id="clust3" class="cluster">
<title>cluster_*github.com/sirupsen/logrus.Logger</title>
<g id="a_clust3"><a xlink:title="type: *github.com/sirupsen/logrus.Logger">
<path fill="#eed8ae" stroke="#000000" stroke-width=".5" d="M444.9272,-338C444.9272,-338 499.2484,-338 499.2484,-338 505.2484,-338 511.2484,-344 511.2484,-350 511.2484,-350 511.2484,-404 511.2484,-404 511.2484,-410 505.2484,-416 499.2484,-416 499.2484,-416 444.9272,-416 444.9272,-416 438.9272,-416 432.9272,-410 432.9272,-404 432.9272,-404 432.9272,-350 432.9272,-350 432.9272,-344 438.9272,-338 444.9272,-338"/>
<text text-anchor="middle" x="472.0878" y="-346.5" font-family="Arial" font-size="15.00" fill="#222222">(*Logger)</text>
</a>
</g>
</g>
<g id="clust2" class="cluster">
<title>cluster_*github.com/go&#45;i2p/logger.Logger</title>
<g id="a_clust2"><a xlink:title="type: *github.com/go&#45;i2p/logger.Logger">
<path fill="#eed8ae" stroke="#000000" stroke-width=".5" d="M432.4784,-16C432.4784,-16 510.6972,-16 510.6972,-16 516.6972,-16 522.6972,-22 522.6972,-28 522.6972,-28 522.6972,-265 522.6972,-265 522.6972,-271 516.6972,-277 510.6972,-277 510.6972,-277 432.4784,-277 432.4784,-277 426.4784,-277 420.4784,-271 420.4784,-265 420.4784,-265 420.4784,-28 420.4784,-28 420.4784,-22 426.4784,-16 432.4784,-16"/>
<text text-anchor="middle" x="471.5878" y="-24.5" font-family="Arial" font-size="15.00" fill="#222222">(*Logger)</text>
</a>
</g>
</g>
<!-- github.com/go&#45;i2p/go&#45;i2p/lib/common/lease.ReadLease -->
<g id="node1" class="node">
<title>github.com/go&#45;i2p/go&#45;i2p/lib/common/lease.ReadLease</title>
<g id="a_node1"><a xlink:title="github.com/go&#45;i2p/go&#45;i2p/lib/common/lease.ReadLease | defined in lease.go:86&#10;at lease.go:90: calling [github.com/samber/oops.Errorf]&#10;at lease.go:94: calling [(*github.com/go&#45;i2p/logger.Logger).Error]&#10;at lease.go:87: calling [(*github.com/sirupsen/logrus.Logger).Debug]&#10;at lease.go:105: calling [(*github.com/sirupsen/logrus.Logger).Debug]&#10;at lease.go:103: calling [(github.com/go&#45;i2p/go&#45;i2p/lib/common/data.Date).Time]&#10;at lease.go:87: calling [(*github.com/go&#45;i2p/logger.Logger).WithField]&#10;at lease.go:91: calling [(*github.com/go&#45;i2p/logger.Logger).WithFields]&#10;at lease.go:101: calling [(*github.com/go&#45;i2p/logger.Logger).WithFields]&#10;at lease.go:102: calling [(github.com/go&#45;i2p/go&#45;i2p/lib/common/lease.Lease).TunnelID]&#10;at lease.go:103: calling [(github.com/go&#45;i2p/go&#45;i2p/lib/common/lease.Lease).Date]">
<path fill="#add8e6" stroke="#000000" stroke-width="1.5" d="M325.7915,-369C325.7915,-369 263.9759,-369 263.9759,-369 257.9759,-369 251.9759,-363 251.9759,-357 251.9759,-357 251.9759,-345 251.9759,-345 251.9759,-339 257.9759,-333 263.9759,-333 263.9759,-333 325.7915,-333 325.7915,-333 331.7915,-333 337.7915,-339 337.7915,-345 337.7915,-345 337.7915,-357 337.7915,-357 337.7915,-363 331.7915,-369 325.7915,-369"/>
<text text-anchor="middle" x="294.8837" y="-346.8" font-family="Verdana" font-size="14.00" fill="#000000">ReadLease</text>
</a>
</g>
</g>
<!-- github.com/samber/oops.Errorf -->
<g id="node2" class="node">
<title>github.com/samber/oops.Errorf</title>
<g id="a_node2"><a xlink:title="github.com/samber/oops.Errorf | defined in oops.go:34">
<path fill="#ffe4b5" stroke="#000000" stroke-width="1.5" d="M488.7831,-330C488.7831,-330 454.3925,-330 454.3925,-330 448.3925,-330 442.3925,-324 442.3925,-318 442.3925,-318 442.3925,-306 442.3925,-306 442.3925,-300 448.3925,-294 454.3925,-294 454.3925,-294 488.7831,-294 488.7831,-294 494.7831,-294 500.7831,-300 500.7831,-306 500.7831,-306 500.7831,-318 500.7831,-318 500.7831,-324 494.7831,-330 488.7831,-330"/>
<text text-anchor="middle" x="471.5878" y="-316.2" font-family="Verdana" font-size="14.00" fill="#000000">oops</text>
<text text-anchor="middle" x="471.5878" y="-299.4" font-family="Verdana" font-size="14.00" fill="#000000">Errorf</text>
</a>
</g>
</g>
<!-- github.com/go&#45;i2p/go&#45;i2p/lib/common/lease.ReadLease&#45;&gt;github.com/samber/oops.Errorf -->
<g id="edge1" class="edge">
<title>github.com/go&#45;i2p/go&#45;i2p/lib/common/lease.ReadLease&#45;&gt;github.com/samber/oops.Errorf</title>
<g id="a_edge1"><a xlink:title="at lease.go:90: calling [github.com/samber/oops.Errorf]">
<path fill="none" stroke="#8b4513" d="M337.6588,-341.5592C366.587,-335.1745 404.4919,-326.8086 432.5907,-320.607"/>
<polygon fill="#8b4513" stroke="#8b4513" points="433.4538,-324.0008 442.4644,-318.4278 431.9451,-317.1653 433.4538,-324.0008"/>
</a>
</g>
</g>
<!-- (*github.com/go&#45;i2p/logger.Logger).WithField -->
<g id="node7" class="node">
<title>(*github.com/go&#45;i2p/logger.Logger).WithField</title>
<g id="a_node7"><a xlink:title="(*github.com/go&#45;i2p/logger.Logger).WithField | defined in log.go:54">
<path fill="#ffe4b5" stroke="#000000" stroke-width="1.5" d="M499.8623,-208C499.8623,-208 443.3133,-208 443.3133,-208 437.3133,-208 431.3133,-202 431.3133,-196 431.3133,-196 431.3133,-184 431.3133,-184 431.3133,-178 437.3133,-172 443.3133,-172 443.3133,-172 499.8623,-172 499.8623,-172 505.8623,-172 511.8623,-178 511.8623,-184 511.8623,-184 511.8623,-196 511.8623,-196 511.8623,-202 505.8623,-208 499.8623,-208"/>
<text text-anchor="middle" x="471.5878" y="-194.2" font-family="Verdana" font-size="14.00" fill="#000000">logger</text>
<text text-anchor="middle" x="471.5878" y="-177.4" font-family="Verdana" font-size="14.00" fill="#000000">WithField</text>
</a>
</g>
</g>
<!-- github.com/go&#45;i2p/go&#45;i2p/lib/common/lease.ReadLease&#45;&gt;(*github.com/go&#45;i2p/logger.Logger).WithField -->
<g id="edge9" class="edge">
<title>github.com/go&#45;i2p/go&#45;i2p/lib/common/lease.ReadLease&#45;&gt;(*github.com/go&#45;i2p/logger.Logger).WithField</title>
<g id="a_edge9"><a xlink:title="at lease.go:87: calling [(*github.com/go&#45;i2p/logger.Logger).WithField]">
<path fill="none" stroke="#8b4513" d="M309.8488,-332.7509C332.1793,-306.2005 376.3404,-256.2513 420.4784,-221 423.5826,-218.5208 426.9013,-216.0898 430.3009,-213.7482"/>
<polygon fill="#8b4513" stroke="#8b4513" points="432.4077,-216.5518 438.8421,-208.1346 428.563,-210.7021 432.4077,-216.5518"/>
</a>
</g>
</g>
<!-- (*github.com/go&#45;i2p/logger.Logger).WithFields -->
<g id="node8" class="node">
<title>(*github.com/go&#45;i2p/logger.Logger).WithFields</title>
<g id="a_node8"><a xlink:title="(*github.com/go&#45;i2p/logger.Logger).WithFields | defined in log.go:60">
<path fill="#ffe4b5" stroke="#000000" stroke-width="1.5" d="M502.8069,-147C502.8069,-147 440.3687,-147 440.3687,-147 434.3687,-147 428.3687,-141 428.3687,-135 428.3687,-135 428.3687,-123 428.3687,-123 428.3687,-117 434.3687,-111 440.3687,-111 440.3687,-111 502.8069,-111 502.8069,-111 508.8069,-111 514.8069,-117 514.8069,-123 514.8069,-123 514.8069,-135 514.8069,-135 514.8069,-141 508.8069,-147 502.8069,-147"/>
<text text-anchor="middle" x="471.5878" y="-133.2" font-family="Verdana" font-size="14.00" fill="#000000">logger</text>
<text text-anchor="middle" x="471.5878" y="-116.4" font-family="Verdana" font-size="14.00" fill="#000000">WithFields</text>
</a>
</g>
</g>
<!-- github.com/go&#45;i2p/go&#45;i2p/lib/common/lease.ReadLease&#45;&gt;(*github.com/go&#45;i2p/logger.Logger).WithFields -->
<g id="edge10" class="edge">
<title>github.com/go&#45;i2p/go&#45;i2p/lib/common/lease.ReadLease&#45;&gt;(*github.com/go&#45;i2p/logger.Logger).WithFields</title>
<g id="a_edge10"><a xlink:title="at lease.go:91: calling [(*github.com/go&#45;i2p/logger.Logger).WithFields]&#10;at lease.go:101: calling [(*github.com/go&#45;i2p/logger.Logger).WithFields]">
<path fill="none" stroke="#8b4513" d="M308.497,-332.686C321.0309,-315.6433 339.9741,-289.424 355.4784,-266 385.9807,-219.9171 381.3066,-198.982 420.4784,-160 422.9438,-157.5465 425.6397,-155.2041 428.4635,-152.9858"/>
<polygon fill="#8b4513" stroke="#8b4513" points="430.6048,-155.7569 436.6748,-147.0732 426.5145,-150.0763 430.6048,-155.7569"/>
</a>
</g>
</g>
<!-- (*github.com/go&#45;i2p/logger.Logger).Error -->
<g id="node9" class="node">
<title>(*github.com/go&#45;i2p/logger.Logger).Error</title>
<g id="a_node9"><a xlink:title="(*github.com/go&#45;i2p/logger.Logger).Error | defined in log.go:42">
<path fill="#ffe4b5" stroke="#000000" stroke-width="1.5" d="M489.3541,-269C489.3541,-269 453.8215,-269 453.8215,-269 447.8215,-269 441.8215,-263 441.8215,-257 441.8215,-257 441.8215,-245 441.8215,-245 441.8215,-239 447.8215,-233 453.8215,-233 453.8215,-233 489.3541,-233 489.3541,-233 495.3541,-233 501.3541,-239 501.3541,-245 501.3541,-245 501.3541,-257 501.3541,-257 501.3541,-263 495.3541,-269 489.3541,-269"/>
<text text-anchor="middle" x="471.5878" y="-255.2" font-family="Verdana" font-size="14.00" fill="#000000">logger</text>
<text text-anchor="middle" x="471.5878" y="-238.4" font-family="Verdana" font-size="14.00" fill="#000000">Error</text>
</a>
</g>
</g>
<!-- github.com/go&#45;i2p/go&#45;i2p/lib/common/lease.ReadLease&#45;&gt;(*github.com/go&#45;i2p/logger.Logger).Error -->
<g id="edge2" class="edge">
<title>github.com/go&#45;i2p/go&#45;i2p/lib/common/lease.ReadLease&#45;&gt;(*github.com/go&#45;i2p/logger.Logger).Error</title>
<g id="a_edge2"><a xlink:title="at lease.go:94: calling [(*github.com/go&#45;i2p/logger.Logger).Error]">
<path fill="none" stroke="#8b4513" d="M321.6373,-332.7541C346.6075,-316.1216 385.2102,-291.411 420.4784,-273 424.2839,-271.0134 428.3082,-269.0537 432.3608,-267.1712"/>
<polygon fill="#8b4513" stroke="#8b4513" points="434.0891,-270.2319 441.7782,-262.943 431.2219,-263.846 434.0891,-270.2319"/>
</a>
</g>
</g>
<!-- (*github.com/sirupsen/logrus.Logger).Debug -->
<g id="node11" class="node">
<title>(*github.com/sirupsen/logrus.Logger).Debug</title>
<g id="a_node11"><a xlink:title="(*github.com/sirupsen/logrus.Logger).Debug | defined in logger.go:221">
<path fill="#ffe4b5" stroke="#000000" stroke-width="1.5" d="M490.4098,-408C490.4098,-408 452.7658,-408 452.7658,-408 446.7658,-408 440.7658,-402 440.7658,-396 440.7658,-396 440.7658,-384 440.7658,-384 440.7658,-378 446.7658,-372 452.7658,-372 452.7658,-372 490.4098,-372 490.4098,-372 496.4098,-372 502.4098,-378 502.4098,-384 502.4098,-384 502.4098,-396 502.4098,-396 502.4098,-402 496.4098,-408 490.4098,-408"/>
<text text-anchor="middle" x="471.5878" y="-394.2" font-family="Verdana" font-size="14.00" fill="#000000">logrus</text>
<text text-anchor="middle" x="471.5878" y="-377.4" font-family="Verdana" font-size="14.00" fill="#000000">Debug</text>
</a>
</g>
</g>
<!-- github.com/go&#45;i2p/go&#45;i2p/lib/common/lease.ReadLease&#45;&gt;(*github.com/sirupsen/logrus.Logger).Debug -->
<g id="edge5" class="edge">
<title>github.com/go&#45;i2p/go&#45;i2p/lib/common/lease.ReadLease&#45;&gt;(*github.com/sirupsen/logrus.Logger).Debug</title>
<g id="a_edge5"><a xlink:title="at lease.go:87: calling [(*github.com/sirupsen/logrus.Logger).Debug]&#10;at lease.go:105: calling [(*github.com/sirupsen/logrus.Logger).Debug]">
<path fill="none" stroke="#8b4513" d="M337.6588,-360.4408C366.0412,-366.705 403.0647,-374.8764 430.9898,-381.0397"/>
<polygon fill="#8b4513" stroke="#8b4513" points="430.3142,-384.4747 440.8335,-383.2123 431.8229,-377.6393 430.3142,-384.4747"/>
</a>
</g>
</g>
<!-- (github.com/go&#45;i2p/go&#45;i2p/lib/common/data.Date).Time -->
<g id="node12" class="node">
<title>(github.com/go&#45;i2p/go&#45;i2p/lib/common/data.Date).Time</title>
<g id="a_node12"><a xlink:title="(github.com/go&#45;i2p/go&#45;i2p/lib/common/data.Date).Time | defined in date.go:47">
<path fill="#ffe4b5" stroke="#000000" stroke-width="1.5" d="M486.5878,-494C486.5878,-494 456.5878,-494 456.5878,-494 450.5878,-494 444.5878,-488 444.5878,-482 444.5878,-482 444.5878,-470 444.5878,-470 444.5878,-464 450.5878,-458 456.5878,-458 456.5878,-458 486.5878,-458 486.5878,-458 492.5878,-458 498.5878,-464 498.5878,-470 498.5878,-470 498.5878,-482 498.5878,-482 498.5878,-488 492.5878,-494 486.5878,-494"/>
<text text-anchor="middle" x="471.5878" y="-480.2" font-family="Verdana" font-size="14.00" fill="#000000">data</text>
<text text-anchor="middle" x="471.5878" y="-463.4" font-family="Verdana" font-size="14.00" fill="#000000">Time</text>
</a>
</g>
</g>
<!-- github.com/go&#45;i2p/go&#45;i2p/lib/common/lease.ReadLease&#45;&gt;(github.com/go&#45;i2p/go&#45;i2p/lib/common/data.Date).Time -->
<g id="edge6" class="edge">
<title>github.com/go&#45;i2p/go&#45;i2p/lib/common/lease.ReadLease&#45;&gt;(github.com/go&#45;i2p/go&#45;i2p/lib/common/data.Date).Time</title>
<g id="a_edge6"><a xlink:title="at lease.go:103: calling [(github.com/go&#45;i2p/go&#45;i2p/lib/common/data.Date).Time]">
<path fill="none" stroke="#8b4513" d="M320.578,-369.1761C351.4625,-391.0237 403.3925,-427.7588 437.5774,-451.9411"/>
<polygon fill="#8b4513" stroke="#8b4513" points="435.6773,-454.8842 445.8625,-457.802 439.7199,-449.1695 435.6773,-454.8842"/>
</a>
</g>
</g>
<!-- (github.com/go&#45;i2p/go&#45;i2p/lib/common/lease.Lease).TunnelID -->
<g id="node14" class="node">
<title>(github.com/go&#45;i2p/go&#45;i2p/lib/common/lease.Lease).TunnelID</title>
<g id="a_node14"><a xlink:title="(github.com/go&#45;i2p/go&#45;i2p/lib/common/lease.Lease).TunnelID | defined in lease.go:70&#10;at lease.go:73: calling [(github.com/go&#45;i2p/go&#45;i2p/lib/common/data.Integer).Int]">
<path fill="#add8e6" stroke="#000000" stroke-width="1.5" d="M499.014,-580C499.014,-580 444.1616,-580 444.1616,-580 438.1616,-580 432.1616,-574 432.1616,-568 432.1616,-568 432.1616,-556 432.1616,-556 432.1616,-550 438.1616,-544 444.1616,-544 444.1616,-544 499.014,-544 499.014,-544 505.014,-544 511.014,-550 511.014,-556 511.014,-556 511.014,-568 511.014,-568 511.014,-574 505.014,-580 499.014,-580"/>
<text text-anchor="middle" x="471.5878" y="-557.8" font-family="Verdana" font-size="14.00" fill="#000000">TunnelID</text>
</a>
</g>
</g>
<!-- github.com/go&#45;i2p/go&#45;i2p/lib/common/lease.ReadLease&#45;&gt;(github.com/go&#45;i2p/go&#45;i2p/lib/common/lease.Lease).TunnelID -->
<g id="edge17" class="edge">
<title>github.com/go&#45;i2p/go&#45;i2p/lib/common/lease.ReadLease&#45;&gt;(github.com/go&#45;i2p/go&#45;i2p/lib/common/lease.Lease).TunnelID</title>
<g id="a_edge17"><a xlink:title="at lease.go:102: calling [(github.com/go&#45;i2p/go&#45;i2p/lib/common/lease.Lease).TunnelID]">
<path fill="none" stroke="#000000" d="M308.7228,-369.2915C331.3699,-398.9938 378.078,-459.2955 420.4784,-508 428.7382,-517.4879 438.1159,-527.5775 446.5634,-536.4358"/>
<polygon fill="#000000" stroke="#000000" points="444.2431,-539.0726 453.696,-543.8574 449.2901,-534.222 444.2431,-539.0726"/>
</a>
</g>
</g>
<!-- (github.com/go&#45;i2p/go&#45;i2p/lib/common/lease.Lease).Date -->
<g id="node15" class="node">
<title>(github.com/go&#45;i2p/go&#45;i2p/lib/common/lease.Lease).Date</title>
<g id="a_node15"><a xlink:title="(github.com/go&#45;i2p/go&#45;i2p/lib/common/lease.Lease).Date | defined in lease.go:78">
<path fill="#add8e6" stroke="#000000" stroke-width="1.5" d="M486.5878,-641C486.5878,-641 456.5878,-641 456.5878,-641 450.5878,-641 444.5878,-635 444.5878,-629 444.5878,-629 444.5878,-617 444.5878,-617 444.5878,-611 450.5878,-605 456.5878,-605 456.5878,-605 486.5878,-605 486.5878,-605 492.5878,-605 498.5878,-611 498.5878,-617 498.5878,-617 498.5878,-629 498.5878,-629 498.5878,-635 492.5878,-641 486.5878,-641"/>
<text text-anchor="middle" x="471.5878" y="-618.8" font-family="Verdana" font-size="14.00" fill="#000000">Date</text>
</a>
</g>
</g>
<!-- github.com/go&#45;i2p/go&#45;i2p/lib/common/lease.ReadLease&#45;&gt;(github.com/go&#45;i2p/go&#45;i2p/lib/common/lease.Lease).Date -->
<g id="edge18" class="edge">
<title>github.com/go&#45;i2p/go&#45;i2p/lib/common/lease.ReadLease&#45;&gt;(github.com/go&#45;i2p/go&#45;i2p/lib/common/lease.Lease).Date</title>
<g id="a_edge18"><a xlink:title="at lease.go:103: calling [(github.com/go&#45;i2p/go&#45;i2p/lib/common/lease.Lease).Date]">
<path fill="none" stroke="#000000" d="M300.4005,-369.1813C314.3107,-412.522 354.487,-523.48 420.4784,-593 424.8945,-597.6522 430.1908,-601.8177 435.6768,-605.4577"/>
<polygon fill="#000000" stroke="#000000" points="433.9924,-608.5298 444.3543,-610.7394 437.632,-602.5504 433.9924,-608.5298"/>
</a>
</g>
</g>
<!-- github.com/go&#45;i2p/go&#45;i2p/lib/common/lease.NewLeaseFromBytes -->
<g id="node3" class="node">
<title>github.com/go&#45;i2p/go&#45;i2p/lib/common/lease.NewLeaseFromBytes</title>
<g id="a_node3"><a xlink:title="github.com/go&#45;i2p/go&#45;i2p/lib/common/lease.NewLeaseFromBytes | defined in lease.go:140&#10;at lease.go:146: calling [(*github.com/go&#45;i2p/logger.Logger).WithError]&#10;at lease.go:154: calling [(github.com/go&#45;i2p/go&#45;i2p/lib/common/data.Date).Time]&#10;at lease.go:152: calling [(*github.com/go&#45;i2p/logger.Logger).WithFields]&#10;at lease.go:141: calling [(*github.com/go&#45;i2p/logger.Logger).WithField]&#10;at lease.go:144: calling [github.com/go&#45;i2p/go&#45;i2p/lib/common/lease.ReadLease]&#10;at lease.go:153: calling [(github.com/go&#45;i2p/go&#45;i2p/lib/common/lease.Lease).TunnelID]&#10;at lease.go:154: calling [(github.com/go&#45;i2p/go&#45;i2p/lib/common/lease.Lease).Date]&#10;at lease.go:141: calling [(*github.com/sirupsen/logrus.Logger).Debug]&#10;at lease.go:156: calling [(*github.com/sirupsen/logrus.Logger).Debug]&#10;at lease.go:146: calling [(*github.com/go&#45;i2p/logger.Logger).Error]">
<path fill="#add8e6" stroke="#000000" stroke-width="1.5" d="M149.4338,-369C149.4338,-369 27.8552,-369 27.8552,-369 21.8552,-369 15.8552,-363 15.8552,-357 15.8552,-357 15.8552,-345 15.8552,-345 15.8552,-339 21.8552,-333 27.8552,-333 27.8552,-333 149.4338,-333 149.4338,-333 155.4338,-333 161.4338,-339 161.4338,-345 161.4338,-345 161.4338,-357 161.4338,-357 161.4338,-363 155.4338,-369 149.4338,-369"/>
<text text-anchor="middle" x="88.6445" y="-346.8" font-family="Verdana" font-size="14.00" fill="#000000">NewLeaseFromBytes</text>
</a>
</g>
</g>
<!-- github.com/go&#45;i2p/go&#45;i2p/lib/common/lease.NewLeaseFromBytes&#45;&gt;github.com/go&#45;i2p/go&#45;i2p/lib/common/lease.ReadLease -->
<g id="edge12" class="edge">
<title>github.com/go&#45;i2p/go&#45;i2p/lib/common/lease.NewLeaseFromBytes&#45;&gt;github.com/go&#45;i2p/go&#45;i2p/lib/common/lease.ReadLease</title>
<g id="a_edge12"><a xlink:title="at lease.go:144: calling [github.com/go&#45;i2p/go&#45;i2p/lib/common/lease.ReadLease]">
<path fill="none" stroke="#000000" d="M161.3567,-351C187.8418,-351 217.2658,-351 241.7376,-351"/>
<polygon fill="#000000" stroke="#000000" points="241.8993,-354.5001 251.8993,-351 241.8992,-347.5001 241.8993,-354.5001"/>
</a>
</g>
</g>
<!-- github.com/go&#45;i2p/go&#45;i2p/lib/common/lease.NewLeaseFromBytes&#45;&gt;(*github.com/go&#45;i2p/logger.Logger).WithField -->
<g id="edge11" class="edge">
<title>github.com/go&#45;i2p/go&#45;i2p/lib/common/lease.NewLeaseFromBytes&#45;&gt;(*github.com/go&#45;i2p/logger.Logger).WithField</title>
<g id="a_edge11"><a xlink:title="at lease.go:141: calling [(*github.com/go&#45;i2p/logger.Logger).WithField]">
<path fill="none" stroke="#8b4513" d="M99.995,-332.9943C121.5767,-300.5859 171.9856,-233.1879 234.289,-205 293.9799,-177.9941 370.8655,-178.7083 420.6831,-183.1515"/>
<polygon fill="#8b4513" stroke="#8b4513" points="420.5941,-186.6593 430.8869,-184.1476 421.2742,-179.6924 420.5941,-186.6593"/>
</a>
</g>
</g>
<!-- github.com/go&#45;i2p/go&#45;i2p/lib/common/lease.NewLeaseFromBytes&#45;&gt;(*github.com/go&#45;i2p/logger.Logger).WithFields -->
<g id="edge8" class="edge">
<title>github.com/go&#45;i2p/go&#45;i2p/lib/common/lease.NewLeaseFromBytes&#45;&gt;(*github.com/go&#45;i2p/logger.Logger).WithFields</title>
<g id="a_edge8"><a xlink:title="at lease.go:152: calling [(*github.com/go&#45;i2p/logger.Logger).WithFields]">
<path fill="none" stroke="#8b4513" d="M98.0298,-332.7859C117.8314,-296.3425 167.6052,-214.564 234.289,-175 291.0131,-141.3451 367.5323,-131.6761 418.1586,-129.2264"/>
<polygon fill="#8b4513" stroke="#8b4513" points="418.3886,-132.72 428.2384,-128.8174 418.1047,-125.7258 418.3886,-132.72"/>
</a>
</g>
</g>
<!-- github.com/go&#45;i2p/go&#45;i2p/lib/common/lease.NewLeaseFromBytes&#45;&gt;(*github.com/go&#45;i2p/logger.Logger).Error -->
<g id="edge20" class="edge">
<title>github.com/go&#45;i2p/go&#45;i2p/lib/common/lease.NewLeaseFromBytes&#45;&gt;(*github.com/go&#45;i2p/logger.Logger).Error</title>
<g id="a_edge20"><a xlink:title="at lease.go:146: calling [(*github.com/go&#45;i2p/logger.Logger).Error]">
<path fill="none" stroke="#8b4513" d="M157.9926,-332.8908C237.9871,-312.0014 366.7911,-278.3661 431.6069,-261.4404"/>
<polygon fill="#8b4513" stroke="#8b4513" points="432.6516,-264.7851 441.4428,-258.8719 430.8829,-258.0122 432.6516,-264.7851"/>
</a>
</g>
</g>
<!-- (*github.com/go&#45;i2p/logger.Logger).WithError -->
<g id="node10" class="node">
<title>(*github.com/go&#45;i2p/logger.Logger).WithError</title>
<g id="a_node10"><a xlink:title="(*github.com/go&#45;i2p/logger.Logger).WithError | defined in log.go:66">
<path fill="#ffe4b5" stroke="#000000" stroke-width="1.5" d="M500.1193,-86C500.1193,-86 443.0563,-86 443.0563,-86 437.0563,-86 431.0563,-80 431.0563,-74 431.0563,-74 431.0563,-62 431.0563,-62 431.0563,-56 437.0563,-50 443.0563,-50 443.0563,-50 500.1193,-50 500.1193,-50 506.1193,-50 512.1193,-56 512.1193,-62 512.1193,-62 512.1193,-74 512.1193,-74 512.1193,-80 506.1193,-86 500.1193,-86"/>
<text text-anchor="middle" x="471.5878" y="-72.2" font-family="Verdana" font-size="14.00" fill="#000000">logger</text>
<text text-anchor="middle" x="471.5878" y="-55.4" font-family="Verdana" font-size="14.00" fill="#000000">WithError</text>
</a>
</g>
</g>
<!-- github.com/go&#45;i2p/go&#45;i2p/lib/common/lease.NewLeaseFromBytes&#45;&gt;(*github.com/go&#45;i2p/logger.Logger).WithError -->
<g id="edge3" class="edge">
<title>github.com/go&#45;i2p/go&#45;i2p/lib/common/lease.NewLeaseFromBytes&#45;&gt;(*github.com/go&#45;i2p/logger.Logger).WithError</title>
<g id="a_edge3"><a xlink:title="at lease.go:146: calling [(*github.com/go&#45;i2p/logger.Logger).WithError]">
<path fill="none" stroke="#8b4513" d="M95.2424,-332.7646C111.6573,-290.0745 158.5544,-183.1699 234.289,-129 289.9619,-89.1794 369.4031,-75.3178 420.7361,-70.5142"/>
<polygon fill="#8b4513" stroke="#8b4513" points="421.2621,-73.9821 430.9284,-69.6448 420.6671,-67.0074 421.2621,-73.9821"/>
</a>
</g>
</g>
<!-- github.com/go&#45;i2p/go&#45;i2p/lib/common/lease.NewLeaseFromBytes&#45;&gt;(*github.com/sirupsen/logrus.Logger).Debug -->
<g id="edge19" class="edge">
<title>github.com/go&#45;i2p/go&#45;i2p/lib/common/lease.NewLeaseFromBytes&#45;&gt;(*github.com/sirupsen/logrus.Logger).Debug</title>
<g id="a_edge19"><a xlink:title="at lease.go:141: calling [(*github.com/sirupsen/logrus.Logger).Debug]&#10;at lease.go:156: calling [(*github.com/sirupsen/logrus.Logger).Debug]">
<path fill="none" stroke="#8b4513" d="M161.1936,-369.0675C184.401,-374.1391 210.2963,-379.0654 234.289,-382 302.7597,-390.3749 383.1129,-391.2191 430.5557,-390.7994"/>
<polygon fill="#8b4513" stroke="#8b4513" points="430.7759,-394.2973 440.736,-390.6852 430.6973,-387.2977 430.7759,-394.2973"/>
</a>
</g>
</g>
<!-- github.com/go&#45;i2p/go&#45;i2p/lib/common/lease.NewLeaseFromBytes&#45;&gt;(github.com/go&#45;i2p/go&#45;i2p/lib/common/data.Date).Time -->
<g id="edge7" class="edge">
<title>github.com/go&#45;i2p/go&#45;i2p/lib/common/lease.NewLeaseFromBytes&#45;&gt;(github.com/go&#45;i2p/go&#45;i2p/lib/common/data.Date).Time</title>
<g id="a_edge7"><a xlink:title="at lease.go:154: calling [(github.com/go&#45;i2p/go&#45;i2p/lib/common/data.Date).Time]">
<path fill="none" stroke="#8b4513" d="M143.9188,-369.0426C223.118,-394.8947 366.7757,-441.7873 434.442,-463.8749"/>
<polygon fill="#8b4513" stroke="#8b4513" points="433.6506,-467.2983 444.2431,-467.0742 435.8228,-460.6438 433.6506,-467.2983"/>
</a>
</g>
</g>
<!-- github.com/go&#45;i2p/go&#45;i2p/lib/common/lease.NewLeaseFromBytes&#45;&gt;(github.com/go&#45;i2p/go&#45;i2p/lib/common/lease.Lease).TunnelID -->
<g id="edge13" class="edge">
<title>github.com/go&#45;i2p/go&#45;i2p/lib/common/lease.NewLeaseFromBytes&#45;&gt;(github.com/go&#45;i2p/go&#45;i2p/lib/common/lease.Lease).TunnelID</title>
<g id="a_edge13"><a xlink:title="at lease.go:153: calling [(github.com/go&#45;i2p/go&#45;i2p/lib/common/lease.Lease).TunnelID]">
<path fill="none" stroke="#000000" d="M121.6255,-369.1724C191.2724,-407.5475 353.2233,-496.7817 429.9054,-539.0332"/>
<polygon fill="#000000" stroke="#000000" points="428.3747,-542.1859 438.8222,-543.9463 431.7528,-536.0549 428.3747,-542.1859"/>
</a>
</g>
</g>
<!-- github.com/go&#45;i2p/go&#45;i2p/lib/common/lease.NewLeaseFromBytes&#45;&gt;(github.com/go&#45;i2p/go&#45;i2p/lib/common/lease.Lease).Date -->
<g id="edge14" class="edge">
<title>github.com/go&#45;i2p/go&#45;i2p/lib/common/lease.NewLeaseFromBytes&#45;&gt;(github.com/go&#45;i2p/go&#45;i2p/lib/common/lease.Lease).Date</title>
<g id="a_edge14"><a xlink:title="at lease.go:154: calling [(github.com/go&#45;i2p/go&#45;i2p/lib/common/lease.Lease).Date]">
<path fill="none" stroke="#000000" d="M109.2931,-369.2294C137.0112,-393.4138 188.1173,-437.0086 234.289,-471 313.9603,-529.6536 336.4171,-540.8325 420.4784,-593 425.2866,-595.9839 430.3879,-599.0704 435.4344,-602.0777"/>
<polygon fill="#000000" stroke="#000000" points="433.9939,-605.2919 444.3837,-607.366 437.555,-599.2654 433.9939,-605.2919"/>
</a>
</g>
</g>
<!-- github.com/go&#45;i2p/go&#45;i2p/lib/common/lease.NewLease -->
<g id="node4" class="node">
<title>github.com/go&#45;i2p/go&#45;i2p/lib/common/lease.NewLease</title>
<g id="a_node4"><a xlink:title="github.com/go&#45;i2p/go&#45;i2p/lib/common/lease.NewLease | defined in lease.go:111&#10;at lease.go:130: calling [(*github.com/go&#45;i2p/logger.Logger).WithFields]&#10;at lease.go:112: calling [(*github.com/sirupsen/logrus.Logger).Debug]&#10;at lease.go:133: calling [(*github.com/sirupsen/logrus.Logger).Debug]">
<path fill="#add8e6" stroke="#000000" stroke-width="1.5" d="M324.4525,-253C324.4525,-253 265.3149,-253 265.3149,-253 259.3149,-253 253.3149,-247 253.3149,-241 253.3149,-241 253.3149,-229 253.3149,-229 253.3149,-223 259.3149,-217 265.3149,-217 265.3149,-217 324.4525,-217 324.4525,-217 330.4525,-217 336.4525,-223 336.4525,-229 336.4525,-229 336.4525,-241 336.4525,-241 336.4525,-247 330.4525,-253 324.4525,-253"/>
<text text-anchor="middle" x="294.8837" y="-230.8" font-family="Verdana" font-size="14.00" fill="#000000">NewLease</text>
</a>
</g>
</g>
<!-- github.com/go&#45;i2p/go&#45;i2p/lib/common/lease.NewLease&#45;&gt;(*github.com/go&#45;i2p/logger.Logger).WithFields -->
<g id="edge4" class="edge">
<title>github.com/go&#45;i2p/go&#45;i2p/lib/common/lease.NewLease&#45;&gt;(*github.com/go&#45;i2p/logger.Logger).WithFields</title>
<g id="a_edge4"><a xlink:title="at lease.go:130: calling [(*github.com/go&#45;i2p/logger.Logger).WithFields]">
<path fill="none" stroke="#8b4513" d="M313.429,-216.74C331.8988,-199.39 361.7188,-173.5594 391.4784,-157 399.9823,-152.2681 409.4313,-148.1139 418.7714,-144.5544"/>
<polygon fill="#8b4513" stroke="#8b4513" points="420.2098,-147.756 428.4212,-141.0609 417.827,-141.1741 420.2098,-147.756"/>
</a>
</g>
</g>
<!-- github.com/go&#45;i2p/go&#45;i2p/lib/common/lease.NewLease&#45;&gt;(*github.com/sirupsen/logrus.Logger).Debug -->
<g id="edge21" class="edge">
<title>github.com/go&#45;i2p/go&#45;i2p/lib/common/lease.NewLease&#45;&gt;(*github.com/sirupsen/logrus.Logger).Debug</title>
<g id="a_edge21"><a xlink:title="at lease.go:112: calling [(*github.com/sirupsen/logrus.Logger).Debug]&#10;at lease.go:133: calling [(*github.com/sirupsen/logrus.Logger).Debug]">
<path fill="none" stroke="#8b4513" d="M308.0787,-253.1518C329.1365,-281.042 372.8504,-334.694 420.4784,-368 423.9518,-370.4289 427.7359,-372.6715 431.6221,-374.7203"/>
<polygon fill="#8b4513" stroke="#8b4513" points="430.2507,-377.9448 440.7773,-379.1454 433.297,-371.6424 430.2507,-377.9448"/>
</a>
</g>
</g>
<!-- github.com/go&#45;i2p/go&#45;i2p/lib/common/lease.init -->
<g id="node5" class="node">
<title>github.com/go&#45;i2p/go&#45;i2p/lib/common/lease.init</title>
<g id="a_node5"><a xlink:title="github.com/go&#45;i2p/go&#45;i2p/lib/common/lease.init | defined in .:0&#10;at lease.go:59: calling [github.com/go&#45;i2p/logger.GetGoI2PLogger]">
<path fill="#add8e6" stroke="#000000" stroke-width=".5" d="M103.6445,-54C103.6445,-54 73.6445,-54 73.6445,-54 67.6445,-54 61.6445,-48 61.6445,-42 61.6445,-42 61.6445,-30 61.6445,-30 61.6445,-24 67.6445,-18 73.6445,-18 73.6445,-18 103.6445,-18 103.6445,-18 109.6445,-18 115.6445,-24 115.6445,-30 115.6445,-30 115.6445,-42 115.6445,-42 115.6445,-48 109.6445,-54 103.6445,-54"/>
<text text-anchor="middle" x="88.6445" y="-31.8" font-family="Verdana" font-size="14.00" fill="#000000">init</text>
</a>
</g>
</g>
<!-- github.com/go&#45;i2p/logger.GetGoI2PLogger -->
<g id="node6" class="node">
<title>github.com/go&#45;i2p/logger.GetGoI2PLogger</title>
<g id="a_node6"><a xlink:title="github.com/go&#45;i2p/logger.GetGoI2PLogger | defined in log.go:120">
<path fill="#ffe4b5" stroke="#000000" stroke-width="1.5" d="M343.5732,-54C343.5732,-54 246.1942,-54 246.1942,-54 240.1942,-54 234.1942,-48 234.1942,-42 234.1942,-42 234.1942,-30 234.1942,-30 234.1942,-24 240.1942,-18 246.1942,-18 246.1942,-18 343.5732,-18 343.5732,-18 349.5732,-18 355.5732,-24 355.5732,-30 355.5732,-30 355.5732,-42 355.5732,-42 355.5732,-48 349.5732,-54 343.5732,-54"/>
<text text-anchor="middle" x="294.8837" y="-40.2" font-family="Verdana" font-size="14.00" fill="#000000">logger</text>
<text text-anchor="middle" x="294.8837" y="-23.4" font-family="Verdana" font-size="14.00" fill="#000000">GetGoI2PLogger</text>
</a>
</g>
</g>
<!-- github.com/go&#45;i2p/go&#45;i2p/lib/common/lease.init&#45;&gt;github.com/go&#45;i2p/logger.GetGoI2PLogger -->
<g id="edge15" class="edge">
<title>github.com/go&#45;i2p/go&#45;i2p/lib/common/lease.init&#45;&gt;github.com/go&#45;i2p/logger.GetGoI2PLogger</title>
<g id="a_edge15"><a xlink:title="at lease.go:59: calling [github.com/go&#45;i2p/logger.GetGoI2PLogger]">
<path fill="none" stroke="#8b4513" d="M116.0315,-36C143.3741,-36 186.5488,-36 223.628,-36"/>
<polygon fill="#8b4513" stroke="#8b4513" points="223.9065,-39.5001 233.9064,-36 223.9064,-32.5001 223.9065,-39.5001"/>
</a>
</g>
</g>
<!-- (github.com/go&#45;i2p/go&#45;i2p/lib/common/data.Integer).Int -->
<g id="node13" class="node">
<title>(github.com/go&#45;i2p/go&#45;i2p/lib/common/data.Integer).Int</title>
<g id="a_node13"><a xlink:title="(github.com/go&#45;i2p/go&#45;i2p/lib/common/data.Integer).Int | defined in integer.go:32">
<path fill="#ffe4b5" stroke="#000000" stroke-width="1.5" d="M638.6972,-580C638.6972,-580 608.6972,-580 608.6972,-580 602.6972,-580 596.6972,-574 596.6972,-568 596.6972,-568 596.6972,-556 596.6972,-556 596.6972,-550 602.6972,-544 608.6972,-544 608.6972,-544 638.6972,-544 638.6972,-544 644.6972,-544 650.6972,-550 650.6972,-556 650.6972,-556 650.6972,-568 650.6972,-568 650.6972,-574 644.6972,-580 638.6972,-580"/>
<text text-anchor="middle" x="623.6972" y="-566.2" font-family="Verdana" font-size="14.00" fill="#000000">data</text>
<text text-anchor="middle" x="623.6972" y="-549.4" font-family="Verdana" font-size="14.00" fill="#000000">Int</text>
</a>
</g>
</g>
<!-- (github.com/go&#45;i2p/go&#45;i2p/lib/common/lease.Lease).TunnelID&#45;&gt;(github.com/go&#45;i2p/go&#45;i2p/lib/common/data.Integer).Int -->
<g id="edge16" class="edge">
<title>(github.com/go&#45;i2p/go&#45;i2p/lib/common/lease.Lease).TunnelID&#45;&gt;(github.com/go&#45;i2p/go&#45;i2p/lib/common/data.Integer).Int</title>
<g id="a_edge16"><a xlink:title="at lease.go:73: calling [(github.com/go&#45;i2p/go&#45;i2p/lib/common/data.Integer).Int]">
<path fill="none" stroke="#8b4513" d="M511.1557,-562C534.257,-562 563.2443,-562 586.0141,-562"/>
<polygon fill="#8b4513" stroke="#8b4513" points="586.3165,-565.5001 596.3164,-562 586.3164,-558.5001 586.3165,-565.5001"/>
</a>
</g>
</g>
</g>
</svg>
