<?xml version="1.0" encoding="UTF-8" standalone="no"?>
<!DOCTYPE svg PUBLIC "-//W3C//DTD SVG 1.1//EN"
 "http://www.w3.org/Graphics/SVG/1.1/DTD/svg11.dtd">
<!-- Generated by graphviz version 2.40.1 (20161225.0304)
 -->
<!-- Title: gocallvis Pages: 1 -->
<svg width="280pt" height="98pt"
 viewBox="0.00 0.00 280.19 98.00" xmlns="http://www.w3.org/2000/svg" xmlns:xlink="http://www.w3.org/1999/xlink">
<g id="graph0" class="graph" transform="scale(1 1) rotate(0) translate(0 98)">
<title>gocallvis</title>
<polygon fill="#d3d3d3" stroke="transparent" points="0,0 0,-98 280.1894,-98 280.1894,0 0,0"/>
<g id="clust1" class="cluster">
<title>cluster_focus</title>
<polygon fill="#e6ecfa" stroke="#000000" stroke-width=".5" points="8,-8 8,-90 272.1894,-90 272.1894,-8 8,-8"/>
<text text-anchor="middle" x="140.0947" y="-69.8" font-family="Arial" font-size="18.00" fill="#000000">rsa</text>
</g>
<!-- github.com/go&#45;i2p/go&#45;i2p/lib/crypto/rsa.init -->
<g id="node1" class="node">
<title>github.com/go&#45;i2p/go&#45;i2p/lib/crypto/rsa.init</title>
<g id="a_node1"><a xlink:title="github.com/go&#45;i2p/go&#45;i2p/lib/crypto/rsa.init | defined in .:0&#10;at rsa.go:5: calling [github.com/go&#45;i2p/logger.GetGoI2PLogger]">
<path fill="#add8e6" stroke="#000000" stroke-width=".5" d="M58,-52C58,-52 28,-52 28,-52 22,-52 16,-46 16,-40 16,-40 16,-28 16,-28 16,-22 22,-16 28,-16 28,-16 58,-16 58,-16 64,-16 70,-22 70,-28 70,-28 70,-40 70,-40 70,-46 64,-52 58,-52"/>
<text text-anchor="middle" x="43" y="-29.8" font-family="Verdana" font-size="14.00" fill="#000000">init</text>
</a>
</g>
</g>
<!-- github.com/go&#45;i2p/logger.GetGoI2PLogger -->
<g id="node2" class="node">
<title>github.com/go&#45;i2p/logger.GetGoI2PLogger</title>
<g id="a_node2"><a xlink:title="github.com/go&#45;i2p/logger.GetGoI2PLogger | defined in log.go:120">
<path fill="#ffe4b5" stroke="#000000" stroke-width="1.5" d="M252.2842,-52C252.2842,-52 154.9052,-52 154.9052,-52 148.9052,-52 142.9052,-46 142.9052,-40 142.9052,-40 142.9052,-28 142.9052,-28 142.9052,-22 148.9052,-16 154.9052,-16 154.9052,-16 252.2842,-16 252.2842,-16 258.2842,-16 264.2842,-22 264.2842,-28 264.2842,-28 264.2842,-40 264.2842,-40 264.2842,-46 258.2842,-52 252.2842,-52"/>
<text text-anchor="middle" x="203.5947" y="-38.2" font-family="Verdana" font-size="14.00" fill="#000000">logger</text>
<text text-anchor="middle" x="203.5947" y="-21.4" font-family="Verdana" font-size="14.00" fill="#000000">GetGoI2PLogger</text>
</a>
</g>
</g>
<!-- github.com/go&#45;i2p/go&#45;i2p/lib/crypto/rsa.init&#45;&gt;github.com/go&#45;i2p/logger.GetGoI2PLogger -->
<g id="edge1" class="edge">
<title>github.com/go&#45;i2p/go&#45;i2p/lib/crypto/rsa.init&#45;&gt;github.com/go&#45;i2p/logger.GetGoI2PLogger</title>
<g id="a_edge1"><a xlink:title="at rsa.go:5: calling [github.com/go&#45;i2p/logger.GetGoI2PLogger]">
<path fill="none" stroke="#8b4513" d="M70.2427,-34C87.4707,-34 110.5965,-34 132.7492,-34"/>
<polygon fill="#8b4513" stroke="#8b4513" points="132.8343,-37.5001 142.8342,-34 132.8342,-30.5001 132.8343,-37.5001"/>
</a>
</g>
</g>
</g>
</svg>
