<?xml version="1.0" encoding="UTF-8" standalone="no"?>
<!DOCTYPE svg PUBLIC "-//W3C//DTD SVG 1.1//EN"
 "http://www.w3.org/Graphics/SVG/1.1/DTD/svg11.dtd">
<!-- Generated by graphviz version 2.40.1 (20161225.0304)
 -->
<!-- Title: gocallvis Pages: 1 -->
<svg width="365pt" height="850pt"
 viewBox="0.00 0.00 364.94 850.00" xmlns="http://www.w3.org/2000/svg" xmlns:xlink="http://www.w3.org/1999/xlink">
<g id="graph0" class="graph" transform="scale(1 1) rotate(0) translate(0 850)">
<title>gocallvis</title>
<polygon fill="#d3d3d3" stroke="transparent" points="0,0 0,-850 364.9356,-850 364.9356,0 0,0"/>
<g id="clust1" class="cluster">
<title>cluster_focus</title>
<polygon fill="#e6ecfa" stroke="#000000" stroke-width=".5" points="8,-8 8,-842 356.9356,-842 356.9356,-8 8,-8"/>
<text text-anchor="middle" x="182.4678" y="-821.8" font-family="Arial" font-size="18.00" fill="#000000">destination</text>
</g>
<g id="clust11" class="cluster">
<title>cluster_github.com/sirupsen/logrus</title>
<g id="a_clust11"><a xlink:href="/?f=github.com/sirupsen/logrus" xlink:title="package: github.com/sirupsen/logrus">
<polygon fill="#ffffe0" stroke="#000000" stroke-width=".8" points="229.4047,-501 229.4047,-622 322.7259,-622 322.7259,-501 229.4047,-501"/>
<text text-anchor="middle" x="276.0653" y="-603.6" font-family="Tahoma bold" font-size="16.00" fill="#000000">logrus</text>
</a>
</g>
</g>
<g id="clust12" class="cluster">
<title>cluster_*github.com/sirupsen/logrus.Logger</title>
<g id="a_clust12"><a xlink:href="/?f=github.com/sirupsen/logrus" xlink:title="type: *github.com/sirupsen/logrus.Logger">
<path fill="#eed8ae" stroke="#000000" stroke-width=".5" d="M249.4047,-509C249.4047,-509 302.7259,-509 302.7259,-509 308.7259,-509 314.7259,-515 314.7259,-521 314.7259,-521 314.7259,-575 314.7259,-575 314.7259,-581 308.7259,-587 302.7259,-587 302.7259,-587 249.4047,-587 249.4047,-587 243.4047,-587 237.4047,-581 237.4047,-575 237.4047,-575 237.4047,-521 237.4047,-521 237.4047,-515 243.4047,-509 249.4047,-509"/>
<text text-anchor="middle" x="276.0653" y="-517.5" font-family="Tahoma bold" font-size="15.00" fill="#222222">(*Logger)</text>
</a>
</g>
</g>
<g id="clust9" class="cluster">
<title>cluster_github.com/go&#45;i2p/logger</title>
<g id="a_clust9"><a xlink:href="/?f=github.com/go-i2p/logger" xlink:title="package: github.com/go&#45;i2p/logger">
<polygon fill="#ffffe0" stroke="#000000" stroke-width=".8" points="207.4706,-319 207.4706,-493 344.66,-493 344.66,-319 207.4706,-319"/>
<text text-anchor="middle" x="276.0653" y="-474.6" font-family="Tahoma bold" font-size="16.00" fill="#000000">logger</text>
</a>
</g>
</g>
<g id="clust10" class="cluster">
<title>cluster_*github.com/go&#45;i2p/logger.Logger</title>
<g id="a_clust10"><a xlink:href="/?f=github.com/go-i2p/logger" xlink:title="type: *github.com/go&#45;i2p/logger.Logger">
<path fill="#eed8ae" stroke="#000000" stroke-width=".5" d="M236.9559,-327C236.9559,-327 315.1747,-327 315.1747,-327 321.1747,-327 327.1747,-333 327.1747,-339 327.1747,-339 327.1747,-393 327.1747,-393 327.1747,-399 321.1747,-405 315.1747,-405 315.1747,-405 236.9559,-405 236.9559,-405 230.9559,-405 224.9559,-399 224.9559,-393 224.9559,-393 224.9559,-339 224.9559,-339 224.9559,-333 230.9559,-327 236.9559,-327"/>
<text text-anchor="middle" x="276.0653" y="-335.5" font-family="Tahoma bold" font-size="15.00" fill="#222222">(*Logger)</text>
</a>
</g>
</g>
<g id="clust7" class="cluster">
<title>cluster_github.com/go&#45;i2p/go&#45;i2p/lib/common/keys_and_cert</title>
<g id="a_clust7"><a xlink:href="/?f=github.com/go-i2p/go-i2p/lib/common/keys_and_cert" xlink:title="package: github.com/go&#45;i2p/go&#45;i2p/lib/common/keys_and_cert">
<polygon fill="#ffffe0" stroke="#000000" stroke-width=".8" points="203.195,-630 203.195,-804 348.9356,-804 348.9356,-630 203.195,-630"/>
<text text-anchor="middle" x="276.0653" y="-785.6" font-family="Tahoma bold" font-size="16.00" fill="#000000">keys_and_cert</text>
</a>
</g>
</g>
<g id="clust8" class="cluster">
<title>cluster_*github.com/go&#45;i2p/go&#45;i2p/lib/common/keys_and_cert.KeysAndCert</title>
<g id="a_clust8"><a xlink:href="/?f=github.com/go-i2p/go-i2p/lib/common/keys_and_cert" xlink:title="type: *github.com/go&#45;i2p/go&#45;i2p/lib/common/keys_and_cert.KeysAndCert">
<path fill="#eed8ae" stroke="#000000" stroke-width=".5" d="M230.526,-638C230.526,-638 321.6046,-638 321.6046,-638 327.6046,-638 333.6046,-644 333.6046,-650 333.6046,-650 333.6046,-704 333.6046,-704 333.6046,-710 327.6046,-716 321.6046,-716 321.6046,-716 230.526,-716 230.526,-716 224.526,-716 218.526,-710 218.526,-704 218.526,-704 218.526,-650 218.526,-650 218.526,-644 224.526,-638 230.526,-638"/>
<text text-anchor="middle" x="276.0653" y="-646.5" font-family="Tahoma bold" font-size="15.00" fill="#222222">(*KeysAndCert)</text>
</a>
</g>
</g>
<g id="clust6" class="cluster">
<title>cluster_github.com/go&#45;i2p/go&#45;i2p/lib/common/destination.Destination</title>
<g id="a_clust6"><a xlink:title="type: github.com/go&#45;i2p/go&#45;i2p/lib/common/destination.Destination">
<path fill="#b0c4de" stroke="#000000" stroke-width=".5" d="M28,-266C28,-266 131.0814,-266 131.0814,-266 137.0814,-266 143.0814,-272 143.0814,-278 143.0814,-278 143.0814,-393 143.0814,-393 143.0814,-399 137.0814,-405 131.0814,-405 131.0814,-405 28,-405 28,-405 22,-405 16,-399 16,-393 16,-393 16,-278 16,-278 16,-272 22,-266 28,-266"/>
<text text-anchor="middle" x="79.5407" y="-274.5" font-family="Arial" font-size="15.00" fill="#222222">(Destination)</text>
</a>
</g>
</g>
<g id="clust4" class="cluster">
<title>cluster_github.com/go&#45;i2p/go&#45;i2p/lib/common/certificate</title>
<g id="a_clust4"><a xlink:href="/?f=github.com/go-i2p/go-i2p/lib/common/certificate" xlink:title="package: github.com/go&#45;i2p/go&#45;i2p/lib/common/certificate">
<polygon fill="#ffffe0" stroke="#000000" stroke-width=".8" points="220.1221,-190 220.1221,-311 332.0085,-311 332.0085,-190 220.1221,-190"/>
<text text-anchor="middle" x="276.0653" y="-292.6" font-family="Tahoma bold" font-size="16.00" fill="#000000">certificate</text>
</a>
</g>
</g>
<g id="clust5" class="cluster">
<title>cluster_*github.com/go&#45;i2p/go&#45;i2p/lib/common/certificate.Certificate</title>
<g id="a_clust5"><a xlink:href="/?f=github.com/go-i2p/go-i2p/lib/common/certificate" xlink:title="type: *github.com/go&#45;i2p/go&#45;i2p/lib/common/certificate.Certificate">
<path fill="#eed8ae" stroke="#000000" stroke-width=".5" d="M240.1221,-198C240.1221,-198 312.0085,-198 312.0085,-198 318.0085,-198 324.0085,-204 324.0085,-210 324.0085,-210 324.0085,-264 324.0085,-264 324.0085,-270 318.0085,-276 312.0085,-276 312.0085,-276 240.1221,-276 240.1221,-276 234.1221,-276 228.1221,-270 228.1221,-264 228.1221,-264 228.1221,-210 228.1221,-210 228.1221,-204 234.1221,-198 240.1221,-198"/>
<text text-anchor="middle" x="276.0653" y="-206.5" font-family="Tahoma bold" font-size="15.00" fill="#222222">(*Certificate)</text>
</a>
</g>
</g>
<g id="clust3" class="cluster">
<title>cluster_github.com/go&#45;i2p/go&#45;i2p/lib/common/base64</title>
<g id="a_clust3"><a xlink:href="/?f=github.com/go-i2p/go-i2p/lib/common/base64" xlink:title="package: github.com/go&#45;i2p/go&#45;i2p/lib/common/base64">
<polygon fill="#ffffe0" stroke="#000000" stroke-width=".8" points="210.1859,-103 210.1859,-182 341.9447,-182 341.9447,-103 210.1859,-103"/>
<text text-anchor="middle" x="276.0653" y="-163.6" font-family="Tahoma bold" font-size="16.00" fill="#000000">base64</text>
</a>
</g>
</g>
<g id="clust2" class="cluster">
<title>cluster_github.com/go&#45;i2p/go&#45;i2p/lib/common/base32</title>
<g id="a_clust2"><a xlink:href="/?f=github.com/go-i2p/go-i2p/lib/common/base32" xlink:title="package: github.com/go&#45;i2p/go&#45;i2p/lib/common/base32">
<polygon fill="#ffffe0" stroke="#000000" stroke-width=".8" points="210.1859,-16 210.1859,-95 341.9447,-95 341.9447,-16 210.1859,-16"/>
<text text-anchor="middle" x="276.0653" y="-76.6" font-family="Tahoma bold" font-size="16.00" fill="#000000">base32</text>
</a>
</g>
</g>
<!-- github.com/go&#45;i2p/go&#45;i2p/lib/common/destination.ReadDestination -->
<g id="node1" class="node">
<title>github.com/go&#45;i2p/go&#45;i2p/lib/common/destination.ReadDestination</title>
<g id="a_node1"><a xlink:title="github.com/go&#45;i2p/go&#45;i2p/lib/common/destination.ReadDestination | defined in destination.go:72&#10;at destination.go:75: calling [(*github.com/sirupsen/logrus.Logger).Debug]&#10;at destination.go:84: calling [(*github.com/sirupsen/logrus.Logger).Debug]&#10;at destination.go:77: calling [github.com/go&#45;i2p/go&#45;i2p/lib/common/keys_and_cert.ReadKeysAndCert]&#10;at destination.go:73: calling [(*github.com/go&#45;i2p/logger.Logger).WithFields]&#10;at destination.go:82: calling [(*github.com/go&#45;i2p/logger.Logger).WithFields]">
<path fill="#add8e6" stroke="#000000" stroke-width="1.5" d="M126.3497,-579C126.3497,-579 32.7317,-579 32.7317,-579 26.7317,-579 20.7317,-573 20.7317,-567 20.7317,-567 20.7317,-555 20.7317,-555 20.7317,-549 26.7317,-543 32.7317,-543 32.7317,-543 126.3497,-543 126.3497,-543 132.3497,-543 138.3497,-549 138.3497,-555 138.3497,-555 138.3497,-567 138.3497,-567 138.3497,-573 132.3497,-579 126.3497,-579"/>
<text text-anchor="middle" x="79.5407" y="-556.8" font-family="Verdana" font-size="14.00" fill="#000000">ReadDestination</text>
</a>
</g>
</g>
<!-- github.com/go&#45;i2p/go&#45;i2p/lib/common/keys_and_cert.ReadKeysAndCert -->
<g id="node8" class="node">
<title>github.com/go&#45;i2p/go&#45;i2p/lib/common/keys_and_cert.ReadKeysAndCert</title>
<g id="a_node8"><a xlink:title="github.com/go&#45;i2p/go&#45;i2p/lib/common/keys_and_cert.ReadKeysAndCert | defined in keys_and_cert.go:142">
<path fill="#ffe4b5" stroke="#000000" stroke-width="1.5" d="M328.8062,-769C328.8062,-769 223.3244,-769 223.3244,-769 217.3244,-769 211.3244,-763 211.3244,-757 211.3244,-757 211.3244,-745 211.3244,-745 211.3244,-739 217.3244,-733 223.3244,-733 223.3244,-733 328.8062,-733 328.8062,-733 334.8062,-733 340.8062,-739 340.8062,-745 340.8062,-745 340.8062,-757 340.8062,-757 340.8062,-763 334.8062,-769 328.8062,-769"/>
<text text-anchor="middle" x="276.0653" y="-746.8" font-family="Verdana" font-size="14.00" fill="#000000">ReadKeysAndCert</text>
</a>
</g>
</g>
<!-- github.com/go&#45;i2p/go&#45;i2p/lib/common/destination.ReadDestination&#45;&gt;github.com/go&#45;i2p/go&#45;i2p/lib/common/keys_and_cert.ReadKeysAndCert -->
<g id="edge4" class="edge">
<title>github.com/go&#45;i2p/go&#45;i2p/lib/common/destination.ReadDestination&#45;&gt;github.com/go&#45;i2p/go&#45;i2p/lib/common/keys_and_cert.ReadKeysAndCert</title>
<g id="a_edge4"><a xlink:title="at destination.go:77: calling [github.com/go&#45;i2p/go&#45;i2p/lib/common/keys_and_cert.ReadKeysAndCert]">
<path fill="none" stroke="#8b4513" d="M89.0222,-579.0163C107.093,-611.7642 149.4959,-681.4059 203.195,-722 205.9953,-724.1169 208.9706,-726.1015 212.0573,-727.9591"/>
<polygon fill="#8b4513" stroke="#8b4513" points="210.5472,-731.1227 220.9983,-732.8619 213.9129,-724.9849 210.5472,-731.1227"/>
</a>
</g>
</g>
<!-- (*github.com/go&#45;i2p/logger.Logger).WithFields -->
<g id="node11" class="node">
<title>(*github.com/go&#45;i2p/logger.Logger).WithFields</title>
<g id="a_node11"><a xlink:title="(*github.com/go&#45;i2p/logger.Logger).WithFields | defined in log.go:60">
<path fill="#ffe4b5" stroke="#000000" stroke-width="1.5" d="M307.2844,-397C307.2844,-397 244.8462,-397 244.8462,-397 238.8462,-397 232.8462,-391 232.8462,-385 232.8462,-385 232.8462,-373 232.8462,-373 232.8462,-367 238.8462,-361 244.8462,-361 244.8462,-361 307.2844,-361 307.2844,-361 313.2844,-361 319.2844,-367 319.2844,-373 319.2844,-373 319.2844,-385 319.2844,-385 319.2844,-391 313.2844,-397 307.2844,-397"/>
<text text-anchor="middle" x="276.0653" y="-374.8" font-family="Verdana" font-size="14.00" fill="#000000">WithFields</text>
</a>
</g>
</g>
<!-- github.com/go&#45;i2p/go&#45;i2p/lib/common/destination.ReadDestination&#45;&gt;(*github.com/go&#45;i2p/logger.Logger).WithFields -->
<g id="edge7" class="edge">
<title>github.com/go&#45;i2p/go&#45;i2p/lib/common/destination.ReadDestination&#45;&gt;(*github.com/go&#45;i2p/logger.Logger).WithFields</title>
<g id="a_edge7"><a xlink:title="at destination.go:73: calling [(*github.com/go&#45;i2p/logger.Logger).WithFields]&#10;at destination.go:82: calling [(*github.com/go&#45;i2p/logger.Logger).WithFields]">
<path fill="none" stroke="#8b4513" d="M92.6277,-542.81C121.3973,-503.0116 188.7377,-410.955 203.195,-401 209.2562,-396.8264 216.1285,-393.4275 223.1724,-390.6638"/>
<polygon fill="#8b4513" stroke="#8b4513" points="224.5476,-393.8905 232.8238,-387.2758 222.2289,-387.2857 224.5476,-393.8905"/>
</a>
</g>
</g>
<!-- (*github.com/sirupsen/logrus.Logger).Debug -->
<g id="node12" class="node">
<title>(*github.com/sirupsen/logrus.Logger).Debug</title>
<g id="a_node12"><a xlink:title="(*github.com/sirupsen/logrus.Logger).Debug | defined in logger.go:221">
<path fill="#ffe4b5" stroke="#000000" stroke-width="1.5" d="M294.8873,-579C294.8873,-579 257.2433,-579 257.2433,-579 251.2433,-579 245.2433,-573 245.2433,-567 245.2433,-567 245.2433,-555 245.2433,-555 245.2433,-549 251.2433,-543 257.2433,-543 257.2433,-543 294.8873,-543 294.8873,-543 300.8873,-543 306.8873,-549 306.8873,-555 306.8873,-555 306.8873,-567 306.8873,-567 306.8873,-573 300.8873,-579 294.8873,-579"/>
<text text-anchor="middle" x="276.0653" y="-556.8" font-family="Verdana" font-size="14.00" fill="#000000">Debug</text>
</a>
</g>
</g>
<!-- github.com/go&#45;i2p/go&#45;i2p/lib/common/destination.ReadDestination&#45;&gt;(*github.com/sirupsen/logrus.Logger).Debug -->
<g id="edge3" class="edge">
<title>github.com/go&#45;i2p/go&#45;i2p/lib/common/destination.ReadDestination&#45;&gt;(*github.com/sirupsen/logrus.Logger).Debug</title>
<g id="a_edge3"><a xlink:title="at destination.go:75: calling [(*github.com/sirupsen/logrus.Logger).Debug]&#10;at destination.go:84: calling [(*github.com/sirupsen/logrus.Logger).Debug]">
<path fill="none" stroke="#8b4513" d="M138.2384,-561C169.429,-561 207.0043,-561 235.0381,-561"/>
<polygon fill="#8b4513" stroke="#8b4513" points="235.282,-564.5001 245.282,-561 235.2819,-557.5001 235.282,-564.5001"/>
</a>
</g>
</g>
<!-- github.com/go&#45;i2p/go&#45;i2p/lib/common/destination.init -->
<g id="node2" class="node">
<title>github.com/go&#45;i2p/go&#45;i2p/lib/common/destination.init</title>
<g id="a_node2"><a xlink:title="github.com/go&#45;i2p/go&#45;i2p/lib/common/destination.init | defined in .:0&#10;at destination.go:17: calling [github.com/go&#45;i2p/logger.GetGoI2PLogger]">
<path fill="#add8e6" stroke="#000000" stroke-width=".5" d="M94.5407,-458C94.5407,-458 64.5407,-458 64.5407,-458 58.5407,-458 52.5407,-452 52.5407,-446 52.5407,-446 52.5407,-434 52.5407,-434 52.5407,-428 58.5407,-422 64.5407,-422 64.5407,-422 94.5407,-422 94.5407,-422 100.5407,-422 106.5407,-428 106.5407,-434 106.5407,-434 106.5407,-446 106.5407,-446 106.5407,-452 100.5407,-458 94.5407,-458"/>
<text text-anchor="middle" x="79.5407" y="-435.8" font-family="Verdana" font-size="14.00" fill="#000000">init</text>
</a>
</g>
</g>
<!-- github.com/go&#45;i2p/logger.GetGoI2PLogger -->
<g id="node10" class="node">
<title>github.com/go&#45;i2p/logger.GetGoI2PLogger</title>
<g id="a_node10"><a xlink:title="github.com/go&#45;i2p/logger.GetGoI2PLogger | defined in log.go:120">
<path fill="#ffe4b5" stroke="#000000" stroke-width="1.5" d="M324.7548,-458C324.7548,-458 227.3758,-458 227.3758,-458 221.3758,-458 215.3758,-452 215.3758,-446 215.3758,-446 215.3758,-434 215.3758,-434 215.3758,-428 221.3758,-422 227.3758,-422 227.3758,-422 324.7548,-422 324.7548,-422 330.7548,-422 336.7548,-428 336.7548,-434 336.7548,-434 336.7548,-446 336.7548,-446 336.7548,-452 330.7548,-458 324.7548,-458"/>
<text text-anchor="middle" x="276.0653" y="-435.8" font-family="Verdana" font-size="14.00" fill="#000000">GetGoI2PLogger</text>
</a>
</g>
</g>
<!-- github.com/go&#45;i2p/go&#45;i2p/lib/common/destination.init&#45;&gt;github.com/go&#45;i2p/logger.GetGoI2PLogger -->
<g id="edge14" class="edge">
<title>github.com/go&#45;i2p/go&#45;i2p/lib/common/destination.init&#45;&gt;github.com/go&#45;i2p/logger.GetGoI2PLogger</title>
<g id="a_edge14"><a xlink:title="at destination.go:17: calling [github.com/go&#45;i2p/logger.GetGoI2PLogger]">
<path fill="none" stroke="#8b4513" d="M106.8666,-440C132.1954,-440 170.9888,-440 205.043,-440"/>
<polygon fill="#8b4513" stroke="#8b4513" points="205.4392,-443.5001 215.4392,-440 205.4392,-436.5001 205.4392,-443.5001"/>
</a>
</g>
</g>
<!-- github.com/go&#45;i2p/go&#45;i2p/lib/common/base32.EncodeToString -->
<g id="node3" class="node">
<title>github.com/go&#45;i2p/go&#45;i2p/lib/common/base32.EncodeToString</title>
<g id="a_node3"><a xlink:title="github.com/go&#45;i2p/go&#45;i2p/lib/common/base32.EncodeToString | defined in base32.go:16">
<path fill="#ffe4b5" stroke="#000000" stroke-width="1.5" d="M321.8244,-60C321.8244,-60 230.3062,-60 230.3062,-60 224.3062,-60 218.3062,-54 218.3062,-48 218.3062,-48 218.3062,-36 218.3062,-36 218.3062,-30 224.3062,-24 230.3062,-24 230.3062,-24 321.8244,-24 321.8244,-24 327.8244,-24 333.8244,-30 333.8244,-36 333.8244,-36 333.8244,-48 333.8244,-48 333.8244,-54 327.8244,-60 321.8244,-60"/>
<text text-anchor="middle" x="276.0653" y="-37.8" font-family="Verdana" font-size="14.00" fill="#000000">EncodeToString</text>
</a>
</g>
</g>
<!-- github.com/go&#45;i2p/go&#45;i2p/lib/common/base64.EncodeToString -->
<g id="node4" class="node">
<title>github.com/go&#45;i2p/go&#45;i2p/lib/common/base64.EncodeToString</title>
<g id="a_node4"><a xlink:title="github.com/go&#45;i2p/go&#45;i2p/lib/common/base64.EncodeToString | defined in base64.go:16">
<path fill="#ffe4b5" stroke="#000000" stroke-width="1.5" d="M321.8244,-147C321.8244,-147 230.3062,-147 230.3062,-147 224.3062,-147 218.3062,-141 218.3062,-135 218.3062,-135 218.3062,-123 218.3062,-123 218.3062,-117 224.3062,-111 230.3062,-111 230.3062,-111 321.8244,-111 321.8244,-111 327.8244,-111 333.8244,-117 333.8244,-123 333.8244,-123 333.8244,-135 333.8244,-135 333.8244,-141 327.8244,-147 321.8244,-147"/>
<text text-anchor="middle" x="276.0653" y="-124.8" font-family="Verdana" font-size="14.00" fill="#000000">EncodeToString</text>
</a>
</g>
</g>
<!-- (*github.com/go&#45;i2p/go&#45;i2p/lib/common/certificate.Certificate).Bytes -->
<g id="node5" class="node">
<title>(*github.com/go&#45;i2p/go&#45;i2p/lib/common/certificate.Certificate).Bytes</title>
<g id="a_node5"><a xlink:title="(*github.com/go&#45;i2p/go&#45;i2p/lib/common/certificate.Certificate).Bytes | defined in certificate.go:100">
<path fill="#ffe4b5" stroke="#000000" stroke-width="1.5" d="M291.9518,-268C291.9518,-268 260.1788,-268 260.1788,-268 254.1788,-268 248.1788,-262 248.1788,-256 248.1788,-256 248.1788,-244 248.1788,-244 248.1788,-238 254.1788,-232 260.1788,-232 260.1788,-232 291.9518,-232 291.9518,-232 297.9518,-232 303.9518,-238 303.9518,-244 303.9518,-244 303.9518,-256 303.9518,-256 303.9518,-262 297.9518,-268 291.9518,-268"/>
<text text-anchor="middle" x="276.0653" y="-245.8" font-family="Verdana" font-size="14.00" fill="#000000">Bytes</text>
</a>
</g>
</g>
<!-- (github.com/go&#45;i2p/go&#45;i2p/lib/common/destination.Destination).Base32Address -->
<g id="node6" class="node">
<title>(github.com/go&#45;i2p/go&#45;i2p/lib/common/destination.Destination).Base32Address</title>
<g id="a_node6"><a xlink:title="(github.com/go&#45;i2p/go&#45;i2p/lib/common/destination.Destination).Base32Address | defined in destination.go:38&#10;at destination.go:41: calling [(*github.com/go&#45;i2p/go&#45;i2p/lib/common/keys_and_cert.KeysAndCert).Certificate]&#10;at destination.go:42: calling [(*github.com/go&#45;i2p/go&#45;i2p/lib/common/certificate.Certificate).Bytes]&#10;at destination.go:39: calling [(*github.com/sirupsen/logrus.Logger).Debug]&#10;at destination.go:49: calling [(*github.com/sirupsen/logrus.Logger).Debug]&#10;at destination.go:44: calling [github.com/go&#45;i2p/go&#45;i2p/lib/common/base32.EncodeToString]&#10;at destination.go:47: calling [(*github.com/go&#45;i2p/logger.Logger).WithFields]">
<path fill="#add8e6" stroke="#000000" stroke-width="1.5" d="M123.1221,-336C123.1221,-336 35.9593,-336 35.9593,-336 29.9593,-336 23.9593,-330 23.9593,-324 23.9593,-324 23.9593,-312 23.9593,-312 23.9593,-306 29.9593,-300 35.9593,-300 35.9593,-300 123.1221,-300 123.1221,-300 129.1221,-300 135.1221,-306 135.1221,-312 135.1221,-312 135.1221,-324 135.1221,-324 135.1221,-330 129.1221,-336 123.1221,-336"/>
<text text-anchor="middle" x="79.5407" y="-313.8" font-family="Verdana" font-size="14.00" fill="#000000">Base32Address</text>
</a>
</g>
</g>
<!-- (github.com/go&#45;i2p/go&#45;i2p/lib/common/destination.Destination).Base32Address&#45;&gt;github.com/go&#45;i2p/go&#45;i2p/lib/common/base32.EncodeToString -->
<g id="edge9" class="edge">
<title>(github.com/go&#45;i2p/go&#45;i2p/lib/common/destination.Destination).Base32Address&#45;&gt;github.com/go&#45;i2p/go&#45;i2p/lib/common/base32.EncodeToString</title>
<g id="a_edge9"><a xlink:title="at destination.go:44: calling [github.com/go&#45;i2p/go&#45;i2p/lib/common/base32.EncodeToString]">
<path fill="none" stroke="#8b4513" d="M86.649,-299.8171C102.8674,-259.9055 145.6896,-162.9386 203.195,-97 213.2677,-85.4501 226.1264,-74.7792 238.2299,-65.9707"/>
<polygon fill="#8b4513" stroke="#8b4513" points="240.2865,-68.8033 246.4451,-60.1822 236.2545,-63.0811 240.2865,-68.8033"/>
</a>
</g>
</g>
<!-- (github.com/go&#45;i2p/go&#45;i2p/lib/common/destination.Destination).Base32Address&#45;&gt;(*github.com/go&#45;i2p/go&#45;i2p/lib/common/certificate.Certificate).Bytes -->
<g id="edge5" class="edge">
<title>(github.com/go&#45;i2p/go&#45;i2p/lib/common/destination.Destination).Base32Address&#45;&gt;(*github.com/go&#45;i2p/go&#45;i2p/lib/common/certificate.Certificate).Bytes</title>
<g id="a_edge5"><a xlink:title="at destination.go:42: calling [(*github.com/go&#45;i2p/go&#45;i2p/lib/common/certificate.Certificate).Bytes]">
<path fill="none" stroke="#8b4513" d="M125.559,-299.8729C140.9517,-293.9769 158.249,-287.5315 174.195,-282 195.2242,-274.7052 218.9368,-267.2138 238.1896,-261.315"/>
<polygon fill="#8b4513" stroke="#8b4513" points="239.2662,-264.6459 247.8132,-258.3849 237.2273,-257.9494 239.2662,-264.6459"/>
</a>
</g>
</g>
<!-- (*github.com/go&#45;i2p/go&#45;i2p/lib/common/keys_and_cert.KeysAndCert).Certificate -->
<g id="node9" class="node">
<title>(*github.com/go&#45;i2p/go&#45;i2p/lib/common/keys_and_cert.KeysAndCert).Certificate</title>
<g id="a_node9"><a xlink:title="(*github.com/go&#45;i2p/go&#45;i2p/lib/common/keys_and_cert.KeysAndCert).Certificate | defined in keys_and_cert.go:136">
<path fill="#ffe4b5" stroke="#000000" stroke-width="1.5" d="M305.6439,-708C305.6439,-708 246.4867,-708 246.4867,-708 240.4867,-708 234.4867,-702 234.4867,-696 234.4867,-696 234.4867,-684 234.4867,-684 234.4867,-678 240.4867,-672 246.4867,-672 246.4867,-672 305.6439,-672 305.6439,-672 311.6439,-672 317.6439,-678 317.6439,-684 317.6439,-684 317.6439,-696 317.6439,-696 317.6439,-702 311.6439,-708 305.6439,-708"/>
<text text-anchor="middle" x="276.0653" y="-685.8" font-family="Verdana" font-size="14.00" fill="#000000">Certificate</text>
</a>
</g>
</g>
<!-- (github.com/go&#45;i2p/go&#45;i2p/lib/common/destination.Destination).Base32Address&#45;&gt;(*github.com/go&#45;i2p/go&#45;i2p/lib/common/keys_and_cert.KeysAndCert).Certificate -->
<g id="edge1" class="edge">
<title>(github.com/go&#45;i2p/go&#45;i2p/lib/common/destination.Destination).Base32Address&#45;&gt;(*github.com/go&#45;i2p/go&#45;i2p/lib/common/keys_and_cert.KeysAndCert).Certificate</title>
<g id="a_edge1"><a xlink:title="at destination.go:41: calling [(*github.com/go&#45;i2p/go&#45;i2p/lib/common/keys_and_cert.KeysAndCert).Certificate]">
<path fill="none" stroke="#8b4513" d="M128.3297,-336.0159C133.8768,-339.644 138.9948,-343.9385 143.0814,-349 178.1618,-392.4496 179.2613,-542.5453 203.195,-593 215.6981,-619.3578 236.0022,-645.5881 252.0064,-664.1136"/>
<polygon fill="#8b4513" stroke="#8b4513" points="249.5509,-666.621 258.7897,-671.8072 254.8016,-661.9916 249.5509,-666.621"/>
</a>
</g>
</g>
<!-- (github.com/go&#45;i2p/go&#45;i2p/lib/common/destination.Destination).Base32Address&#45;&gt;(*github.com/go&#45;i2p/logger.Logger).WithFields -->
<g id="edge11" class="edge">
<title>(github.com/go&#45;i2p/go&#45;i2p/lib/common/destination.Destination).Base32Address&#45;&gt;(*github.com/go&#45;i2p/logger.Logger).WithFields</title>
<g id="a_edge11"><a xlink:title="at destination.go:47: calling [(*github.com/go&#45;i2p/logger.Logger).WithFields]">
<path fill="none" stroke="#8b4513" d="M135.3311,-335.317C162.9225,-343.8812 196.0461,-354.1625 223.2253,-362.5988"/>
<polygon fill="#8b4513" stroke="#8b4513" points="222.3605,-365.995 232.9485,-365.6168 224.4356,-359.3097 222.3605,-365.995"/>
</a>
</g>
</g>
<!-- (github.com/go&#45;i2p/go&#45;i2p/lib/common/destination.Destination).Base32Address&#45;&gt;(*github.com/sirupsen/logrus.Logger).Debug -->
<g id="edge8" class="edge">
<title>(github.com/go&#45;i2p/go&#45;i2p/lib/common/destination.Destination).Base32Address&#45;&gt;(*github.com/sirupsen/logrus.Logger).Debug</title>
<g id="a_edge8"><a xlink:title="at destination.go:39: calling [(*github.com/sirupsen/logrus.Logger).Debug]&#10;at destination.go:49: calling [(*github.com/sirupsen/logrus.Logger).Debug]">
<path fill="none" stroke="#8b4513" d="M127.0415,-336.1787C132.9301,-339.8055 138.4846,-344.056 143.0814,-349 191.9862,-401.5982 161.2607,-440.6925 203.195,-499 213.4754,-513.2943 227.7358,-526.3809 240.9177,-536.8092"/>
<polygon fill="#8b4513" stroke="#8b4513" points="238.8713,-539.6505 248.9407,-542.9458 243.1241,-534.0904 238.8713,-539.6505"/>
</a>
</g>
</g>
<!-- (github.com/go&#45;i2p/go&#45;i2p/lib/common/destination.Destination).Base64 -->
<g id="node7" class="node">
<title>(github.com/go&#45;i2p/go&#45;i2p/lib/common/destination.Destination).Base64</title>
<g id="a_node7"><a xlink:title="(github.com/go&#45;i2p/go&#45;i2p/lib/common/destination.Destination).Base64 | defined in destination.go:55&#10;at destination.go:56: calling [(*github.com/sirupsen/logrus.Logger).Debug]&#10;at destination.go:64: calling [(*github.com/sirupsen/logrus.Logger).Debug]&#10;at destination.go:62: calling [(*github.com/go&#45;i2p/logger.Logger).WithFields]&#10;at destination.go:59: calling [(*github.com/go&#45;i2p/go&#45;i2p/lib/common/certificate.Certificate).Bytes]&#10;at destination.go:58: calling [(*github.com/go&#45;i2p/go&#45;i2p/lib/common/keys_and_cert.KeysAndCert).Certificate]&#10;at destination.go:60: calling [github.com/go&#45;i2p/go&#45;i2p/lib/common/base64.EncodeToString]">
<path fill="#add8e6" stroke="#000000" stroke-width="1.5" d="M100.2514,-397C100.2514,-397 58.83,-397 58.83,-397 52.83,-397 46.83,-391 46.83,-385 46.83,-385 46.83,-373 46.83,-373 46.83,-367 52.83,-361 58.83,-361 58.83,-361 100.2514,-361 100.2514,-361 106.2514,-361 112.2514,-367 112.2514,-373 112.2514,-373 112.2514,-385 112.2514,-385 112.2514,-391 106.2514,-397 100.2514,-397"/>
<text text-anchor="middle" x="79.5407" y="-374.8" font-family="Verdana" font-size="14.00" fill="#000000">Base64</text>
</a>
</g>
</g>
<!-- (github.com/go&#45;i2p/go&#45;i2p/lib/common/destination.Destination).Base64&#45;&gt;github.com/go&#45;i2p/go&#45;i2p/lib/common/base64.EncodeToString -->
<g id="edge13" class="edge">
<title>(github.com/go&#45;i2p/go&#45;i2p/lib/common/destination.Destination).Base64&#45;&gt;github.com/go&#45;i2p/go&#45;i2p/lib/common/base64.EncodeToString</title>
<g id="a_edge13"><a xlink:title="at destination.go:60: calling [github.com/go&#45;i2p/go&#45;i2p/lib/common/base64.EncodeToString]">
<path fill="none" stroke="#8b4513" d="M112.3291,-369.1217C123.2768,-364.4796 134.7868,-357.9452 143.0814,-349 193.8848,-294.2117 160.2819,-253.1654 203.195,-192 213.4558,-177.3749 227.8424,-163.9852 241.1247,-153.3466"/>
<polygon fill="#8b4513" stroke="#8b4513" points="243.44,-155.9805 249.2053,-147.0917 239.1552,-150.4451 243.44,-155.9805"/>
</a>
</g>
</g>
<!-- (github.com/go&#45;i2p/go&#45;i2p/lib/common/destination.Destination).Base64&#45;&gt;(*github.com/go&#45;i2p/go&#45;i2p/lib/common/certificate.Certificate).Bytes -->
<g id="edge10" class="edge">
<title>(github.com/go&#45;i2p/go&#45;i2p/lib/common/destination.Destination).Base64&#45;&gt;(*github.com/go&#45;i2p/go&#45;i2p/lib/common/certificate.Certificate).Bytes</title>
<g id="a_edge10"><a xlink:title="at destination.go:59: calling [(*github.com/go&#45;i2p/go&#45;i2p/lib/common/certificate.Certificate).Bytes]">
<path fill="none" stroke="#8b4513" d="M112.1859,-365.1014C122.308,-360.3936 133.3536,-354.8381 143.0814,-349 180.4938,-326.5472 220.2294,-295.9708 246.418,-274.765"/>
<polygon fill="#8b4513" stroke="#8b4513" points="248.8896,-277.2655 254.4246,-268.2314 244.464,-271.8421 248.8896,-277.2655"/>
</a>
</g>
</g>
<!-- (github.com/go&#45;i2p/go&#45;i2p/lib/common/destination.Destination).Base64&#45;&gt;(*github.com/go&#45;i2p/go&#45;i2p/lib/common/keys_and_cert.KeysAndCert).Certificate -->
<g id="edge12" class="edge">
<title>(github.com/go&#45;i2p/go&#45;i2p/lib/common/destination.Destination).Base64&#45;&gt;(*github.com/go&#45;i2p/go&#45;i2p/lib/common/keys_and_cert.KeysAndCert).Certificate</title>
<g id="a_edge12"><a xlink:title="at destination.go:58: calling [(*github.com/go&#45;i2p/go&#45;i2p/lib/common/keys_and_cert.KeysAndCert).Certificate]">
<path fill="none" stroke="#8b4513" d="M112.3418,-383.209C123.6947,-386.3145 135.4677,-391.6935 143.0814,-401 208.6771,-481.1802 116.2541,-546.125 174.195,-632 186.4226,-650.1226 206.3255,-663.2487 225.3093,-672.3805"/>
<polygon fill="#8b4513" stroke="#8b4513" points="223.9636,-675.6131 234.5172,-676.5469 226.8493,-669.2356 223.9636,-675.6131"/>
</a>
</g>
</g>
<!-- (github.com/go&#45;i2p/go&#45;i2p/lib/common/destination.Destination).Base64&#45;&gt;(*github.com/go&#45;i2p/logger.Logger).WithFields -->
<g id="edge6" class="edge">
<title>(github.com/go&#45;i2p/go&#45;i2p/lib/common/destination.Destination).Base64&#45;&gt;(*github.com/go&#45;i2p/logger.Logger).WithFields</title>
<g id="a_edge6"><a xlink:title="at destination.go:62: calling [(*github.com/go&#45;i2p/logger.Logger).WithFields]">
<path fill="none" stroke="#8b4513" d="M112.4345,-379C142.469,-379 187.4151,-379 222.6061,-379"/>
<polygon fill="#8b4513" stroke="#8b4513" points="222.7186,-382.5001 232.7186,-379 222.7185,-375.5001 222.7186,-382.5001"/>
</a>
</g>
</g>
<!-- (github.com/go&#45;i2p/go&#45;i2p/lib/common/destination.Destination).Base64&#45;&gt;(*github.com/sirupsen/logrus.Logger).Debug -->
<g id="edge2" class="edge">
<title>(github.com/go&#45;i2p/go&#45;i2p/lib/common/destination.Destination).Base64&#45;&gt;(*github.com/sirupsen/logrus.Logger).Debug</title>
<g id="a_edge2"><a xlink:title="at destination.go:56: calling [(*github.com/sirupsen/logrus.Logger).Debug]&#10;at destination.go:64: calling [(*github.com/sirupsen/logrus.Logger).Debug]">
<path fill="none" stroke="#8b4513" d="M112.2579,-384.4732C123.1989,-387.7109 134.7228,-392.8505 143.0814,-401 171.2889,-428.5018 150.6333,-452.4269 174.195,-484 190.7856,-506.2317 215.4946,-525.126 236.4225,-538.6343"/>
<polygon fill="#8b4513" stroke="#8b4513" points="234.7932,-541.7437 245.1255,-544.0878 238.5102,-535.812 234.7932,-541.7437"/>
</a>
</g>
</g>
</g>
</svg>
