<?xml version="1.0" encoding="UTF-8" standalone="no"?>
<!DOCTYPE svg PUBLIC "-//W3C//DTD SVG 1.1//EN"
 "http://www.w3.org/Graphics/SVG/1.1/DTD/svg11.dtd">
<!-- Generated by graphviz version 2.40.1 (20161225.0304)
 -->
<!-- Title: gocallvis Pages: 1 -->
<svg width="363pt" height="755pt"
 viewBox="0.00 0.00 362.52 755.00" xmlns="http://www.w3.org/2000/svg" xmlns:xlink="http://www.w3.org/1999/xlink">
<g id="graph0" class="graph" transform="scale(1 1) rotate(0) translate(0 755)">
<title>gocallvis</title>
<polygon fill="#d3d3d3" stroke="transparent" points="0,0 0,-755 362.5176,-755 362.5176,0 0,0"/>
<g id="clust1" class="cluster">
<title>cluster_focus</title>
<polygon fill="#e6ecfa" stroke="#000000" stroke-width=".5" points="0,-8 0,-747 354.5176,-747 354.5176,-8 0,-8"/>
<text text-anchor="middle" x="177.2588" y="-726.8" font-family="Arial" font-size="18.00" fill="#000000">transport</text>
</g>
<g id="clust8" class="cluster">
<title>cluster_github.com/sirupsen/logrus</title>
<g id="a_clust8"><a xlink:href="/?f=github.com/sirupsen/logrus" xlink:title="package: github.com/sirupsen/logrus">
<polygon fill="#ffffe0" stroke="#000000" stroke-width=".8" points="231.2623,-459 231.2623,-580 324.5835,-580 324.5835,-459 231.2623,-459"/>
<text text-anchor="middle" x="277.9229" y="-561.6" font-family="Tahoma bold" font-size="16.00" fill="#000000">logrus</text>
</a>
</g>
</g>
<g id="clust9" class="cluster">
<title>cluster_*github.com/sirupsen/logrus.Logger</title>
<g id="a_clust9"><a xlink:href="/?f=github.com/sirupsen/logrus" xlink:title="type: *github.com/sirupsen/logrus.Logger">
<path fill="#eed8ae" stroke="#000000" stroke-width=".5" d="M251.2623,-467C251.2623,-467 304.5835,-467 304.5835,-467 310.5835,-467 316.5835,-473 316.5835,-479 316.5835,-479 316.5835,-533 316.5835,-533 316.5835,-539 310.5835,-545 304.5835,-545 304.5835,-545 251.2623,-545 251.2623,-545 245.2623,-545 239.2623,-539 239.2623,-533 239.2623,-533 239.2623,-479 239.2623,-479 239.2623,-473 245.2623,-467 251.2623,-467"/>
<text text-anchor="middle" x="277.9229" y="-475.5" font-family="Tahoma bold" font-size="15.00" fill="#222222">(*Logger)</text>
</a>
</g>
</g>
<g id="clust7" class="cluster">
<title>cluster_github.com/samber/oops</title>
<g id="a_clust7"><a xlink:href="/?f=github.com/samber/oops" xlink:title="package: github.com/samber/oops">
<polygon fill="#ffffe0" stroke="#000000" stroke-width=".8" points="240.8254,-16 240.8254,-95 315.0204,-95 315.0204,-16 240.8254,-16"/>
<text text-anchor="middle" x="277.9229" y="-76.6" font-family="Tahoma bold" font-size="16.00" fill="#000000">oops</text>
</a>
</g>
</g>
<g id="clust5" class="cluster">
<title>cluster_github.com/go&#45;i2p/logger</title>
<g id="a_clust5"><a xlink:href="/?f=github.com/go-i2p/logger" xlink:title="package: github.com/go&#45;i2p/logger">
<polygon fill="#ffffe0" stroke="#000000" stroke-width=".8" points="209.3282,-103 209.3282,-451 346.5176,-451 346.5176,-103 209.3282,-103"/>
<text text-anchor="middle" x="277.9229" y="-432.6" font-family="Tahoma bold" font-size="16.00" fill="#000000">logger</text>
</a>
</g>
</g>
<g id="clust6" class="cluster">
<title>cluster_*github.com/go&#45;i2p/logger.Logger</title>
<g id="a_clust6"><a xlink:href="/?f=github.com/go-i2p/logger" xlink:title="type: *github.com/go&#45;i2p/logger.Logger">
<path fill="#eed8ae" stroke="#000000" stroke-width=".5" d="M241.1578,-155C241.1578,-155 314.688,-155 314.688,-155 320.688,-155 326.688,-161 326.688,-167 326.688,-167 326.688,-404 326.688,-404 326.688,-410 320.688,-416 314.688,-416 314.688,-416 241.1578,-416 241.1578,-416 235.1578,-416 229.1578,-410 229.1578,-404 229.1578,-404 229.1578,-167 229.1578,-167 229.1578,-161 235.1578,-155 241.1578,-155"/>
<text text-anchor="middle" x="277.9229" y="-163.5" font-family="Tahoma bold" font-size="15.00" fill="#222222">(*Logger)</text>
</a>
</g>
</g>
<g id="clust3" class="cluster">
<title>cluster_github.com/go&#45;i2p/go&#45;i2p/lib/common/router_info</title>
<g id="a_clust3"><a xlink:href="/?f=github.com/go-i2p/go-i2p/lib/common/router_info" xlink:title="package: github.com/go&#45;i2p/go&#45;i2p/lib/common/router_info">
<polygon fill="#ffffe0" stroke="#000000" stroke-width=".8" points="224.8107,-588 224.8107,-709 332.0351,-709 332.0351,-588 224.8107,-588"/>
<text text-anchor="middle" x="278.4229" y="-690.6" font-family="Tahoma bold" font-size="16.00" fill="#000000">router_info</text>
</a>
</g>
</g>
<g id="clust4" class="cluster">
<title>cluster_github.com/go&#45;i2p/go&#45;i2p/lib/common/router_info.RouterInfo</title>
<g id="a_clust4"><a xlink:href="/?f=github.com/go-i2p/go-i2p/lib/common/router_info" xlink:title="type: github.com/go&#45;i2p/go&#45;i2p/lib/common/router_info.RouterInfo">
<path fill="#eed8ae" stroke="#000000" stroke-width=".5" d="M244.8107,-596C244.8107,-596 312.0351,-596 312.0351,-596 318.0351,-596 324.0351,-602 324.0351,-608 324.0351,-608 324.0351,-662 324.0351,-662 324.0351,-668 318.0351,-674 312.0351,-674 312.0351,-674 244.8107,-674 244.8107,-674 238.8107,-674 232.8107,-668 232.8107,-662 232.8107,-662 232.8107,-608 232.8107,-608 232.8107,-602 238.8107,-596 244.8107,-596"/>
<text text-anchor="middle" x="278.4229" y="-604.5" font-family="Tahoma bold" font-size="15.00" fill="#222222">(RouterInfo)</text>
</a>
</g>
</g>
<g id="clust2" class="cluster">
<title>cluster_*github.com/go&#45;i2p/go&#45;i2p/lib/transport.TransportMuxer</title>
<g id="a_clust2"><a xlink:title="type: *github.com/go&#45;i2p/go&#45;i2p/lib/transport.TransportMuxer">
<path fill="#b0c4de" stroke="#000000" stroke-width=".5" d="M20,-224C20,-224 133.3282,-224 133.3282,-224 139.3282,-224 145.3282,-230 145.3282,-236 145.3282,-236 145.3282,-534 145.3282,-534 145.3282,-540 139.3282,-546 133.3282,-546 133.3282,-546 20,-546 20,-546 14,-546 8,-540 8,-534 8,-534 8,-236 8,-236 8,-230 14,-224 20,-224"/>
<text text-anchor="middle" x="76.6641" y="-232.5" font-family="Arial" font-size="15.00" fill="#222222">(*TransportMuxer)</text>
</a>
</g>
</g>
<!-- github.com/go&#45;i2p/go&#45;i2p/lib/transport.Mux -->
<g id="node1" class="node">
<title>github.com/go&#45;i2p/go&#45;i2p/lib/transport.Mux</title>
<g id="a_node1"><a xlink:title="github.com/go&#45;i2p/go&#45;i2p/lib/transport.Mux | defined in multi.go:18&#10;at multi.go:19: calling [(*github.com/go&#45;i2p/logger.Logger).WithField]&#10;at multi.go:19: calling [(*github.com/sirupsen/logrus.Logger).Debug]&#10;at multi.go:22: calling [(*github.com/sirupsen/logrus.Logger).Debug]">
<path fill="#add8e6" stroke="#000000" stroke-width="1.5" d="M91.6641,-140C91.6641,-140 61.6641,-140 61.6641,-140 55.6641,-140 49.6641,-134 49.6641,-128 49.6641,-128 49.6641,-116 49.6641,-116 49.6641,-110 55.6641,-104 61.6641,-104 61.6641,-104 91.6641,-104 91.6641,-104 97.6641,-104 103.6641,-110 103.6641,-116 103.6641,-116 103.6641,-128 103.6641,-128 103.6641,-134 97.6641,-140 91.6641,-140"/>
<text text-anchor="middle" x="76.6641" y="-117.8" font-family="Verdana" font-size="14.00" fill="#000000">Mux</text>
</a>
</g>
</g>
<!-- (*github.com/go&#45;i2p/logger.Logger).WithField -->
<g id="node10" class="node">
<title>(*github.com/go&#45;i2p/logger.Logger).WithField</title>
<g id="a_node10"><a xlink:title="(*github.com/go&#45;i2p/logger.Logger).WithField | defined in log.go:54">
<path fill="#ffe4b5" stroke="#000000" stroke-width="1.5" d="M306.1974,-286C306.1974,-286 249.6484,-286 249.6484,-286 243.6484,-286 237.6484,-280 237.6484,-274 237.6484,-274 237.6484,-262 237.6484,-262 237.6484,-256 243.6484,-250 249.6484,-250 249.6484,-250 306.1974,-250 306.1974,-250 312.1974,-250 318.1974,-256 318.1974,-262 318.1974,-262 318.1974,-274 318.1974,-274 318.1974,-280 312.1974,-286 306.1974,-286"/>
<text text-anchor="middle" x="277.9229" y="-263.8" font-family="Verdana" font-size="14.00" fill="#000000">WithField</text>
</a>
</g>
</g>
<!-- github.com/go&#45;i2p/go&#45;i2p/lib/transport.Mux&#45;&gt;(*github.com/go&#45;i2p/logger.Logger).WithField -->
<g id="edge1" class="edge">
<title>github.com/go&#45;i2p/go&#45;i2p/lib/transport.Mux&#45;&gt;(*github.com/go&#45;i2p/logger.Logger).WithField</title>
<g id="a_edge1"><a xlink:title="at multi.go:19: calling [(*github.com/go&#45;i2p/logger.Logger).WithField]">
<path fill="none" stroke="#8b4513" d="M103.881,-115.4535C127.0855,-111.5871 159.9812,-110.4029 181.3282,-128 220.2551,-160.0887 176.6793,-199.5418 209.3282,-238 214.5331,-244.1311 221.2292,-249.0509 228.3916,-252.9869"/>
<polygon fill="#8b4513" stroke="#8b4513" points="227.1103,-256.2553 237.6361,-257.4635 230.1612,-249.955 227.1103,-256.2553"/>
</a>
</g>
</g>
<!-- (*github.com/sirupsen/logrus.Logger).Debug -->
<g id="node15" class="node">
<title>(*github.com/sirupsen/logrus.Logger).Debug</title>
<g id="a_node15"><a xlink:title="(*github.com/sirupsen/logrus.Logger).Debug | defined in logger.go:221">
<path fill="#ffe4b5" stroke="#000000" stroke-width="1.5" d="M296.7449,-537C296.7449,-537 259.1009,-537 259.1009,-537 253.1009,-537 247.1009,-531 247.1009,-525 247.1009,-525 247.1009,-513 247.1009,-513 247.1009,-507 253.1009,-501 259.1009,-501 259.1009,-501 296.7449,-501 296.7449,-501 302.7449,-501 308.7449,-507 308.7449,-513 308.7449,-513 308.7449,-525 308.7449,-525 308.7449,-531 302.7449,-537 296.7449,-537"/>
<text text-anchor="middle" x="277.9229" y="-514.8" font-family="Verdana" font-size="14.00" fill="#000000">Debug</text>
</a>
</g>
</g>
<!-- github.com/go&#45;i2p/go&#45;i2p/lib/transport.Mux&#45;&gt;(*github.com/sirupsen/logrus.Logger).Debug -->
<g id="edge19" class="edge">
<title>github.com/go&#45;i2p/go&#45;i2p/lib/transport.Mux&#45;&gt;(*github.com/sirupsen/logrus.Logger).Debug</title>
<g id="a_edge19"><a xlink:title="at multi.go:19: calling [(*github.com/sirupsen/logrus.Logger).Debug]&#10;at multi.go:22: calling [(*github.com/sirupsen/logrus.Logger).Debug]">
<path fill="none" stroke="#8b4513" d="M92.5072,-140.3445C107.8253,-158.8705 130.7927,-188.8413 145.3282,-218 187.7219,-303.043 167.1631,-336.8435 209.3282,-422 222.0841,-447.7618 241.2825,-474.224 256.1275,-492.9879"/>
<polygon fill="#8b4513" stroke="#8b4513" points="253.403,-495.1851 262.3969,-500.7852 258.8583,-490.7987 253.403,-495.1851"/>
</a>
</g>
</g>
<!-- github.com/go&#45;i2p/go&#45;i2p/lib/transport.init -->
<g id="node2" class="node">
<title>github.com/go&#45;i2p/go&#45;i2p/lib/transport.init</title>
<g id="a_node2"><a xlink:title="github.com/go&#45;i2p/go&#45;i2p/lib/transport.init | defined in .:0&#10;at errors.go:6: calling [github.com/samber/oops.Errorf]&#10;at multi.go:8: calling [github.com/go&#45;i2p/logger.GetGoI2PLogger]">
<path fill="#add8e6" stroke="#000000" stroke-width=".5" d="M91.6641,-70C91.6641,-70 61.6641,-70 61.6641,-70 55.6641,-70 49.6641,-64 49.6641,-58 49.6641,-58 49.6641,-46 49.6641,-46 49.6641,-40 55.6641,-34 61.6641,-34 61.6641,-34 91.6641,-34 91.6641,-34 97.6641,-34 103.6641,-40 103.6641,-46 103.6641,-46 103.6641,-58 103.6641,-58 103.6641,-64 97.6641,-70 91.6641,-70"/>
<text text-anchor="middle" x="76.6641" y="-47.8" font-family="Verdana" font-size="14.00" fill="#000000">init</text>
</a>
</g>
</g>
<!-- github.com/go&#45;i2p/logger.GetGoI2PLogger -->
<g id="node9" class="node">
<title>github.com/go&#45;i2p/logger.GetGoI2PLogger</title>
<g id="a_node9"><a xlink:title="github.com/go&#45;i2p/logger.GetGoI2PLogger | defined in log.go:120">
<path fill="#ffe4b5" stroke="#000000" stroke-width="1.5" d="M326.6124,-147C326.6124,-147 229.2334,-147 229.2334,-147 223.2334,-147 217.2334,-141 217.2334,-135 217.2334,-135 217.2334,-123 217.2334,-123 217.2334,-117 223.2334,-111 229.2334,-111 229.2334,-111 326.6124,-111 326.6124,-111 332.6124,-111 338.6124,-117 338.6124,-123 338.6124,-123 338.6124,-135 338.6124,-135 338.6124,-141 332.6124,-147 326.6124,-147"/>
<text text-anchor="middle" x="277.9229" y="-124.8" font-family="Verdana" font-size="14.00" fill="#000000">GetGoI2PLogger</text>
</a>
</g>
</g>
<!-- github.com/go&#45;i2p/go&#45;i2p/lib/transport.init&#45;&gt;github.com/go&#45;i2p/logger.GetGoI2PLogger -->
<g id="edge18" class="edge">
<title>github.com/go&#45;i2p/go&#45;i2p/lib/transport.init&#45;&gt;github.com/go&#45;i2p/logger.GetGoI2PLogger</title>
<g id="a_edge18"><a xlink:title="at multi.go:8: calling [github.com/go&#45;i2p/logger.GetGoI2PLogger]">
<path fill="none" stroke="#8b4513" d="M103.8068,-62.3846C133.7773,-73.851 182.8699,-92.6335 221.2996,-107.3364"/>
<polygon fill="#8b4513" stroke="#8b4513" points="220.2316,-110.6751 230.822,-110.9796 222.7329,-104.1373 220.2316,-110.6751"/>
</a>
</g>
</g>
<!-- github.com/samber/oops.Errorf -->
<g id="node14" class="node">
<title>github.com/samber/oops.Errorf</title>
<g id="a_node14"><a xlink:title="github.com/samber/oops.Errorf | defined in oops.go:34">
<path fill="#ffe4b5" stroke="#000000" stroke-width="1.5" d="M295.1182,-60C295.1182,-60 260.7276,-60 260.7276,-60 254.7276,-60 248.7276,-54 248.7276,-48 248.7276,-48 248.7276,-36 248.7276,-36 248.7276,-30 254.7276,-24 260.7276,-24 260.7276,-24 295.1182,-24 295.1182,-24 301.1182,-24 307.1182,-30 307.1182,-36 307.1182,-36 307.1182,-48 307.1182,-48 307.1182,-54 301.1182,-60 295.1182,-60"/>
<text text-anchor="middle" x="277.9229" y="-37.8" font-family="Verdana" font-size="14.00" fill="#000000">Errorf</text>
</a>
</g>
</g>
<!-- github.com/go&#45;i2p/go&#45;i2p/lib/transport.init&#45;&gt;github.com/samber/oops.Errorf -->
<g id="edge5" class="edge">
<title>github.com/go&#45;i2p/go&#45;i2p/lib/transport.init&#45;&gt;github.com/samber/oops.Errorf</title>
<g id="a_edge5"><a xlink:title="at errors.go:6: calling [github.com/samber/oops.Errorf]">
<path fill="none" stroke="#8b4513" d="M103.8068,-50.6514C138.4765,-48.9287 198.7348,-45.9346 238.475,-43.9601"/>
<polygon fill="#8b4513" stroke="#8b4513" points="238.7904,-47.4488 248.6043,-43.4568 238.4429,-40.4574 238.7904,-47.4488"/>
</a>
</g>
</g>
<!-- (*github.com/go&#45;i2p/go&#45;i2p/lib/transport.TransportMuxer).Name -->
<g id="node3" class="node">
<title>(*github.com/go&#45;i2p/go&#45;i2p/lib/transport.TransportMuxer).Name</title>
<g id="a_node3"><a xlink:title="(*github.com/go&#45;i2p/go&#45;i2p/lib/transport.TransportMuxer).Name | defined in multi.go:59&#10;at multi.go:60: calling [(*github.com/sirupsen/logrus.Logger).Debug]&#10;at multi.go:67: calling [(*github.com/sirupsen/logrus.Logger).Debug]&#10;at multi.go:67: calling [(*github.com/go&#45;i2p/logger.Logger).WithField]">
<path fill="#add8e6" stroke="#000000" stroke-width="1.5" d="M93.5921,-416C93.5921,-416 59.7361,-416 59.7361,-416 53.7361,-416 47.7361,-410 47.7361,-404 47.7361,-404 47.7361,-392 47.7361,-392 47.7361,-386 53.7361,-380 59.7361,-380 59.7361,-380 93.5921,-380 93.5921,-380 99.5921,-380 105.5921,-386 105.5921,-392 105.5921,-392 105.5921,-404 105.5921,-404 105.5921,-410 99.5921,-416 93.5921,-416"/>
<text text-anchor="middle" x="76.6641" y="-393.8" font-family="Verdana" font-size="14.00" fill="#000000">Name</text>
</a>
</g>
</g>
<!-- (*github.com/go&#45;i2p/go&#45;i2p/lib/transport.TransportMuxer).Name&#45;&gt;(*github.com/go&#45;i2p/logger.Logger).WithField -->
<g id="edge10" class="edge">
<title>(*github.com/go&#45;i2p/go&#45;i2p/lib/transport.TransportMuxer).Name&#45;&gt;(*github.com/go&#45;i2p/logger.Logger).WithField</title>
<g id="a_edge10"><a xlink:title="at multi.go:67: calling [(*github.com/go&#45;i2p/logger.Logger).WithField]">
<path fill="none" stroke="#8b4513" d="M105.445,-388.4741C118.2973,-383.4742 133.2362,-376.586 145.3282,-368 179.4326,-343.7839 175.3763,-323.4295 209.3282,-299 215.2354,-294.7495 221.8185,-290.8814 228.5039,-287.4303"/>
<polygon fill="#8b4513" stroke="#8b4513" points="230.1716,-290.5112 237.6298,-282.9862 227.1068,-284.2178 230.1716,-290.5112"/>
</a>
</g>
</g>
<!-- (*github.com/go&#45;i2p/go&#45;i2p/lib/transport.TransportMuxer).Name&#45;&gt;(*github.com/sirupsen/logrus.Logger).Debug -->
<g id="edge9" class="edge">
<title>(*github.com/go&#45;i2p/go&#45;i2p/lib/transport.TransportMuxer).Name&#45;&gt;(*github.com/sirupsen/logrus.Logger).Debug</title>
<g id="a_edge9"><a xlink:title="at multi.go:60: calling [(*github.com/sirupsen/logrus.Logger).Debug]&#10;at multi.go:67: calling [(*github.com/sirupsen/logrus.Logger).Debug]">
<path fill="none" stroke="#8b4513" d="M105.602,-409.746C118.0672,-415.1402 132.659,-421.91 145.3282,-429 181.0377,-448.984 219.4831,-475.7134 245.733,-494.8405"/>
<polygon fill="#8b4513" stroke="#8b4513" points="243.6752,-497.6717 253.8083,-500.7654 247.8161,-492.0278 243.6752,-497.6717"/>
</a>
</g>
</g>
<!-- (*github.com/go&#45;i2p/go&#45;i2p/lib/transport.TransportMuxer).SetIdentity -->
<g id="node4" class="node">
<title>(*github.com/go&#45;i2p/go&#45;i2p/lib/transport.TransportMuxer).SetIdentity</title>
<g id="a_node4"><a xlink:title="(*github.com/go&#45;i2p/go&#45;i2p/lib/transport.TransportMuxer).SetIdentity | defined in multi.go:27&#10;at multi.go:32: calling [(*github.com/go&#45;i2p/logger.Logger).WithError]&#10;at multi.go:32: calling [(*github.com/go&#45;i2p/logger.Logger).Error]&#10;at multi.go:28: calling [(*github.com/go&#45;i2p/logger.Logger).WithField]&#10;at multi.go:32: calling [(*github.com/go&#45;i2p/logger.Logger).WithField]&#10;at multi.go:36: calling [(*github.com/go&#45;i2p/logger.Logger).WithField]&#10;at multi.go:28: calling [(*github.com/sirupsen/logrus.Logger).Debug]&#10;at multi.go:38: calling [(*github.com/sirupsen/logrus.Logger).Debug]&#10;at multi.go:36: calling [(*github.com/sirupsen/logrus.Logger).Debug]">
<path fill="#add8e6" stroke="#000000" stroke-width="1.5" d="M107.6,-294C107.6,-294 45.7282,-294 45.7282,-294 39.7282,-294 33.7282,-288 33.7282,-282 33.7282,-282 33.7282,-270 33.7282,-270 33.7282,-264 39.7282,-258 45.7282,-258 45.7282,-258 107.6,-258 107.6,-258 113.6,-258 119.6,-264 119.6,-270 119.6,-270 119.6,-282 119.6,-282 119.6,-288 113.6,-294 107.6,-294"/>
<text text-anchor="middle" x="76.6641" y="-271.8" font-family="Verdana" font-size="14.00" fill="#000000">SetIdentity</text>
</a>
</g>
</g>
<!-- (*github.com/go&#45;i2p/go&#45;i2p/lib/transport.TransportMuxer).SetIdentity&#45;&gt;(*github.com/go&#45;i2p/logger.Logger).WithField -->
<g id="edge20" class="edge">
<title>(*github.com/go&#45;i2p/go&#45;i2p/lib/transport.TransportMuxer).SetIdentity&#45;&gt;(*github.com/go&#45;i2p/logger.Logger).WithField</title>
<g id="a_edge20"><a xlink:title="at multi.go:28: calling [(*github.com/go&#45;i2p/logger.Logger).WithField]&#10;at multi.go:32: calling [(*github.com/go&#45;i2p/logger.Logger).WithField]&#10;at multi.go:36: calling [(*github.com/go&#45;i2p/logger.Logger).WithField]">
<path fill="none" stroke="#8b4513" d="M119.56,-266.6231C128.5526,-263.4925 137.6326,-259.3776 145.3282,-254 166.0971,-239.487 157.5674,-220.1319 180.3282,-209 196.7024,-200.9917 194.3631,-227.5937 209.3282,-238 215.0641,-241.9886 221.4153,-245.6248 227.8705,-248.8808"/>
<polygon fill="#8b4513" stroke="#8b4513" points="226.8081,-252.2507 237.3431,-253.3758 229.8092,-245.9266 226.8081,-252.2507"/>
</a>
</g>
</g>
<!-- (*github.com/go&#45;i2p/logger.Logger).WithError -->
<g id="node11" class="node">
<title>(*github.com/go&#45;i2p/logger.Logger).WithError</title>
<g id="a_node11"><a xlink:title="(*github.com/go&#45;i2p/logger.Logger).WithError | defined in log.go:66">
<path fill="#ffe4b5" stroke="#000000" stroke-width="1.5" d="M306.4544,-225C306.4544,-225 249.3914,-225 249.3914,-225 243.3914,-225 237.3914,-219 237.3914,-213 237.3914,-213 237.3914,-201 237.3914,-201 237.3914,-195 243.3914,-189 249.3914,-189 249.3914,-189 306.4544,-189 306.4544,-189 312.4544,-189 318.4544,-195 318.4544,-201 318.4544,-201 318.4544,-213 318.4544,-213 318.4544,-219 312.4544,-225 306.4544,-225"/>
<text text-anchor="middle" x="277.9229" y="-202.8" font-family="Verdana" font-size="14.00" fill="#000000">WithError</text>
</a>
</g>
</g>
<!-- (*github.com/go&#45;i2p/go&#45;i2p/lib/transport.TransportMuxer).SetIdentity&#45;&gt;(*github.com/go&#45;i2p/logger.Logger).WithError -->
<g id="edge2" class="edge">
<title>(*github.com/go&#45;i2p/go&#45;i2p/lib/transport.TransportMuxer).SetIdentity&#45;&gt;(*github.com/go&#45;i2p/logger.Logger).WithError</title>
<g id="a_edge2"><a xlink:title="at multi.go:32: calling [(*github.com/go&#45;i2p/logger.Logger).WithError]">
<path fill="none" stroke="#8b4513" d="M119.4844,-267.1397C128.5796,-263.9737 137.7215,-259.7136 145.3282,-254 167.6031,-237.2689 155.737,-215.0909 180.3282,-202 194.4559,-194.4792 211.4241,-193.1802 227.2209,-194.5388"/>
<polygon fill="#8b4513" stroke="#8b4513" points="227.0412,-198.0427 237.3908,-195.7767 227.887,-191.094 227.0412,-198.0427"/>
</a>
</g>
</g>
<!-- (*github.com/go&#45;i2p/logger.Logger).Error -->
<g id="node12" class="node">
<title>(*github.com/go&#45;i2p/logger.Logger).Error</title>
<g id="a_node12"><a xlink:title="(*github.com/go&#45;i2p/logger.Logger).Error | defined in log.go:42">
<path fill="#ffe4b5" stroke="#000000" stroke-width="1.5" d="M292.9229,-347C292.9229,-347 262.9229,-347 262.9229,-347 256.9229,-347 250.9229,-341 250.9229,-335 250.9229,-335 250.9229,-323 250.9229,-323 250.9229,-317 256.9229,-311 262.9229,-311 262.9229,-311 292.9229,-311 292.9229,-311 298.9229,-311 304.9229,-317 304.9229,-323 304.9229,-323 304.9229,-335 304.9229,-335 304.9229,-341 298.9229,-347 292.9229,-347"/>
<text text-anchor="middle" x="277.9229" y="-324.8" font-family="Verdana" font-size="14.00" fill="#000000">Error</text>
</a>
</g>
</g>
<!-- (*github.com/go&#45;i2p/go&#45;i2p/lib/transport.TransportMuxer).SetIdentity&#45;&gt;(*github.com/go&#45;i2p/logger.Logger).Error -->
<g id="edge11" class="edge">
<title>(*github.com/go&#45;i2p/go&#45;i2p/lib/transport.TransportMuxer).SetIdentity&#45;&gt;(*github.com/go&#45;i2p/logger.Logger).Error</title>
<g id="a_edge11"><a xlink:title="at multi.go:32: calling [(*github.com/go&#45;i2p/logger.Logger).Error]">
<path fill="none" stroke="#8b4513" d="M119.5479,-263.4645C128.1782,-260.606 137.1166,-257.3998 145.3282,-254 161.8562,-247.157 166.3288,-226.2523 181.3282,-236 207.0203,-252.6966 187.5976,-277.398 209.3282,-299 218.0977,-307.7176 229.8221,-314.0989 241.0943,-318.6765"/>
<polygon fill="#8b4513" stroke="#8b4513" points="240.2046,-322.0785 250.7981,-322.2483 242.6226,-315.5094 240.2046,-322.0785"/>
</a>
</g>
</g>
<!-- (*github.com/go&#45;i2p/go&#45;i2p/lib/transport.TransportMuxer).SetIdentity&#45;&gt;(*github.com/sirupsen/logrus.Logger).Debug -->
<g id="edge21" class="edge">
<title>(*github.com/go&#45;i2p/go&#45;i2p/lib/transport.TransportMuxer).SetIdentity&#45;&gt;(*github.com/sirupsen/logrus.Logger).Debug</title>
<g id="a_edge21"><a xlink:title="at multi.go:28: calling [(*github.com/sirupsen/logrus.Logger).Debug]&#10;at multi.go:38: calling [(*github.com/sirupsen/logrus.Logger).Debug]&#10;at multi.go:36: calling [(*github.com/sirupsen/logrus.Logger).Debug]">
<path fill="none" stroke="#8b4513" d="M119.5559,-290.2748C128.7492,-294.6623 137.9149,-300.183 145.3282,-307 188.3844,-346.5929 178.1745,-372.4937 209.3282,-422 224.7608,-446.524 243.9126,-473.3432 258.0542,-492.5532"/>
<polygon fill="#8b4513" stroke="#8b4513" points="255.4036,-494.8551 264.1677,-500.8084 261.029,-490.6891 255.4036,-494.8551"/>
</a>
</g>
</g>
<!-- (*github.com/go&#45;i2p/go&#45;i2p/lib/transport.TransportMuxer).Close -->
<g id="node5" class="node">
<title>(*github.com/go&#45;i2p/go&#45;i2p/lib/transport.TransportMuxer).Close</title>
<g id="a_node5"><a xlink:title="(*github.com/go&#45;i2p/go&#45;i2p/lib/transport.TransportMuxer).Close | defined in multi.go:43&#10;at multi.go:49: calling [(*github.com/go&#45;i2p/logger.Logger).Warn]&#10;at multi.go:44: calling [(*github.com/sirupsen/logrus.Logger).Debug]&#10;at multi.go:54: calling [(*github.com/sirupsen/logrus.Logger).Debug]&#10;at multi.go:51: calling [(*github.com/sirupsen/logrus.Logger).Debug]&#10;at multi.go:49: calling [(*github.com/go&#45;i2p/logger.Logger).WithError]&#10;at multi.go:49: calling [(*github.com/go&#45;i2p/logger.Logger).WithField]&#10;at multi.go:51: calling [(*github.com/go&#45;i2p/logger.Logger).WithField]">
<path fill="#add8e6" stroke="#000000" stroke-width="1.5" d="M92.5506,-355C92.5506,-355 60.7776,-355 60.7776,-355 54.7776,-355 48.7776,-349 48.7776,-343 48.7776,-343 48.7776,-331 48.7776,-331 48.7776,-325 54.7776,-319 60.7776,-319 60.7776,-319 92.5506,-319 92.5506,-319 98.5506,-319 104.5506,-325 104.5506,-331 104.5506,-331 104.5506,-343 104.5506,-343 104.5506,-349 98.5506,-355 92.5506,-355"/>
<text text-anchor="middle" x="76.6641" y="-332.8" font-family="Verdana" font-size="14.00" fill="#000000">Close</text>
</a>
</g>
</g>
<!-- (*github.com/go&#45;i2p/go&#45;i2p/lib/transport.TransportMuxer).Close&#45;&gt;(*github.com/go&#45;i2p/logger.Logger).WithField -->
<g id="edge16" class="edge">
<title>(*github.com/go&#45;i2p/go&#45;i2p/lib/transport.TransportMuxer).Close&#45;&gt;(*github.com/go&#45;i2p/logger.Logger).WithField</title>
<g id="a_edge16"><a xlink:title="at multi.go:49: calling [(*github.com/go&#45;i2p/logger.Logger).WithField]&#10;at multi.go:51: calling [(*github.com/go&#45;i2p/logger.Logger).WithField]">
<path fill="none" stroke="#8b4513" d="M104.6483,-327.4058C136.4112,-316.5162 188.8505,-298.5378 227.7355,-285.2063"/>
<polygon fill="#8b4513" stroke="#8b4513" points="228.9843,-288.4783 237.3087,-281.9243 226.7141,-281.8566 228.9843,-288.4783"/>
</a>
</g>
</g>
<!-- (*github.com/go&#45;i2p/go&#45;i2p/lib/transport.TransportMuxer).Close&#45;&gt;(*github.com/go&#45;i2p/logger.Logger).WithError -->
<g id="edge13" class="edge">
<title>(*github.com/go&#45;i2p/go&#45;i2p/lib/transport.TransportMuxer).Close&#45;&gt;(*github.com/go&#45;i2p/logger.Logger).WithError</title>
<g id="a_edge13"><a xlink:title="at multi.go:49: calling [(*github.com/go&#45;i2p/logger.Logger).WithError]">
<path fill="none" stroke="#8b4513" d="M104.7705,-327.7355C117.7723,-322.7154 133.0241,-315.7366 145.3282,-307 179.4326,-282.7839 175.3763,-262.4295 209.3282,-238 215.1625,-233.802 221.6561,-229.9769 228.2563,-226.5583"/>
<polygon fill="#8b4513" stroke="#8b4513" points="229.824,-229.6879 237.2709,-222.1517 226.7497,-223.3991 229.824,-229.6879"/>
</a>
</g>
</g>
<!-- (*github.com/go&#45;i2p/logger.Logger).Warn -->
<g id="node13" class="node">
<title>(*github.com/go&#45;i2p/logger.Logger).Warn</title>
<g id="a_node13"><a xlink:title="(*github.com/go&#45;i2p/logger.Logger).Warn | defined in log.go:30">
<path fill="#ffe4b5" stroke="#000000" stroke-width="1.5" d="M293.5128,-408C293.5128,-408 262.333,-408 262.333,-408 256.333,-408 250.333,-402 250.333,-396 250.333,-396 250.333,-384 250.333,-384 250.333,-378 256.333,-372 262.333,-372 262.333,-372 293.5128,-372 293.5128,-372 299.5128,-372 305.5128,-378 305.5128,-384 305.5128,-384 305.5128,-396 305.5128,-396 305.5128,-402 299.5128,-408 293.5128,-408"/>
<text text-anchor="middle" x="277.9229" y="-385.8" font-family="Verdana" font-size="14.00" fill="#000000">Warn</text>
</a>
</g>
</g>
<!-- (*github.com/go&#45;i2p/go&#45;i2p/lib/transport.TransportMuxer).Close&#45;&gt;(*github.com/go&#45;i2p/logger.Logger).Warn -->
<g id="edge6" class="edge">
<title>(*github.com/go&#45;i2p/go&#45;i2p/lib/transport.TransportMuxer).Close&#45;&gt;(*github.com/go&#45;i2p/logger.Logger).Warn</title>
<g id="a_edge6"><a xlink:title="at multi.go:49: calling [(*github.com/go&#45;i2p/logger.Logger).Warn]">
<path fill="none" stroke="#8b4513" d="M104.818,-335.4984C126.2431,-335.1584 156.2211,-336.4266 181.3282,-344 195.0504,-348.1392 196.5217,-353.5636 209.3282,-360 219.4647,-365.0945 230.6629,-370.2024 241.0205,-374.7224"/>
<polygon fill="#8b4513" stroke="#8b4513" points="239.6726,-377.9526 250.2417,-378.6908 242.4398,-371.5227 239.6726,-377.9526"/>
</a>
</g>
</g>
<!-- (*github.com/go&#45;i2p/go&#45;i2p/lib/transport.TransportMuxer).Close&#45;&gt;(*github.com/sirupsen/logrus.Logger).Debug -->
<g id="edge12" class="edge">
<title>(*github.com/go&#45;i2p/go&#45;i2p/lib/transport.TransportMuxer).Close&#45;&gt;(*github.com/sirupsen/logrus.Logger).Debug</title>
<g id="a_edge12"><a xlink:title="at multi.go:44: calling [(*github.com/sirupsen/logrus.Logger).Debug]&#10;at multi.go:54: calling [(*github.com/sirupsen/logrus.Logger).Debug]&#10;at multi.go:51: calling [(*github.com/sirupsen/logrus.Logger).Debug]">
<path fill="none" stroke="#8b4513" d="M104.8681,-346.5751C117.8913,-351.7629 133.1328,-358.9741 145.3282,-368 193.5179,-403.6658 236.7582,-459.4892 259.9797,-492.3372"/>
<polygon fill="#8b4513" stroke="#8b4513" points="257.3973,-494.7533 265.986,-500.957 263.1405,-490.7514 257.3973,-494.7533"/>
</a>
</g>
</g>
<!-- (*github.com/go&#45;i2p/go&#45;i2p/lib/transport.TransportMuxer).GetSession -->
<g id="node6" class="node">
<title>(*github.com/go&#45;i2p/go&#45;i2p/lib/transport.TransportMuxer).GetSession</title>
<g id="a_node6"><a xlink:title="(*github.com/go&#45;i2p/go&#45;i2p/lib/transport.TransportMuxer).GetSession | defined in multi.go:74&#10;at multi.go:75: calling [(github.com/go&#45;i2p/go&#45;i2p/lib/common/router_info.RouterInfo).String]&#10;at multi.go:75: calling [(*github.com/go&#45;i2p/logger.Logger).WithField]&#10;at multi.go:79: calling [(*github.com/go&#45;i2p/logger.Logger).WithField]&#10;at multi.go:83: calling [(*github.com/go&#45;i2p/logger.Logger).WithField]&#10;at multi.go:89: calling [(*github.com/go&#45;i2p/logger.Logger).WithField]&#10;at multi.go:93: calling [(*github.com/go&#45;i2p/logger.Logger).Error]&#10;at multi.go:83: calling [(*github.com/go&#45;i2p/logger.Logger).WithError]&#10;at multi.go:83: calling [(*github.com/go&#45;i2p/logger.Logger).Warn]&#10;at multi.go:75: calling [(*github.com/sirupsen/logrus.Logger).Debug]&#10;at multi.go:79: calling [(*github.com/sirupsen/logrus.Logger).Debug]&#10;at multi.go:89: calling [(*github.com/sirupsen/logrus.Logger).Debug]">
<path fill="#add8e6" stroke="#000000" stroke-width="1.5" d="M108.1529,-477C108.1529,-477 45.1753,-477 45.1753,-477 39.1753,-477 33.1753,-471 33.1753,-465 33.1753,-465 33.1753,-453 33.1753,-453 33.1753,-447 39.1753,-441 45.1753,-441 45.1753,-441 108.1529,-441 108.1529,-441 114.1529,-441 120.1529,-447 120.1529,-453 120.1529,-453 120.1529,-465 120.1529,-465 120.1529,-471 114.1529,-477 108.1529,-477"/>
<text text-anchor="middle" x="76.6641" y="-454.8" font-family="Verdana" font-size="14.00" fill="#000000">GetSession</text>
</a>
</g>
</g>
<!-- (github.com/go&#45;i2p/go&#45;i2p/lib/common/router_info.RouterInfo).String -->
<g id="node8" class="node">
<title>(github.com/go&#45;i2p/go&#45;i2p/lib/common/router_info.RouterInfo).String</title>
<g id="a_node8"><a xlink:title="(github.com/go&#45;i2p/go&#45;i2p/lib/common/router_info.RouterInfo).String | defined in router_info.go:155">
<path fill="#ffe4b5" stroke="#000000" stroke-width="1.5" d="M295.1477,-666C295.1477,-666 260.6981,-666 260.6981,-666 254.6981,-666 248.6981,-660 248.6981,-654 248.6981,-654 248.6981,-642 248.6981,-642 248.6981,-636 254.6981,-630 260.6981,-630 260.6981,-630 295.1477,-630 295.1477,-630 301.1477,-630 307.1477,-636 307.1477,-642 307.1477,-642 307.1477,-654 307.1477,-654 307.1477,-660 301.1477,-666 295.1477,-666"/>
<text text-anchor="middle" x="277.9229" y="-643.8" font-family="Verdana" font-size="14.00" fill="#000000">String</text>
</a>
</g>
</g>
<!-- (*github.com/go&#45;i2p/go&#45;i2p/lib/transport.TransportMuxer).GetSession&#45;&gt;(github.com/go&#45;i2p/go&#45;i2p/lib/common/router_info.RouterInfo).String -->
<g id="edge3" class="edge">
<title>(*github.com/go&#45;i2p/go&#45;i2p/lib/transport.TransportMuxer).GetSession&#45;&gt;(github.com/go&#45;i2p/go&#45;i2p/lib/common/router_info.RouterInfo).String</title>
<g id="a_edge3"><a xlink:title="at multi.go:75: calling [(github.com/go&#45;i2p/go&#45;i2p/lib/common/router_info.RouterInfo).String]">
<path fill="none" stroke="#8b4513" d="M120.4557,-475.2096C129.1064,-479.3732 137.8219,-484.3133 145.3282,-490 158.6746,-500.1111 223.2936,-579.7826 257.1428,-621.9772"/>
<polygon fill="#8b4513" stroke="#8b4513" points="254.4941,-624.2688 263.4781,-629.8847 259.957,-619.892 254.4941,-624.2688"/>
</a>
</g>
</g>
<!-- (*github.com/go&#45;i2p/go&#45;i2p/lib/transport.TransportMuxer).GetSession&#45;&gt;(*github.com/go&#45;i2p/logger.Logger).WithField -->
<g id="edge4" class="edge">
<title>(*github.com/go&#45;i2p/go&#45;i2p/lib/transport.TransportMuxer).GetSession&#45;&gt;(*github.com/go&#45;i2p/logger.Logger).WithField</title>
<g id="a_edge4"><a xlink:title="at multi.go:75: calling [(*github.com/go&#45;i2p/logger.Logger).WithField]&#10;at multi.go:79: calling [(*github.com/go&#45;i2p/logger.Logger).WithField]&#10;at multi.go:83: calling [(*github.com/go&#45;i2p/logger.Logger).WithField]&#10;at multi.go:89: calling [(*github.com/go&#45;i2p/logger.Logger).WithField]">
<path fill="none" stroke="#8b4513" d="M120.2855,-461.3133C141.3807,-460.0459 165.4978,-454.6951 181.3282,-439 226.3895,-394.3239 169.8311,-348.6633 209.3282,-299 214.3614,-292.6713 220.9687,-287.5909 228.0953,-283.5251"/>
<polygon fill="#8b4513" stroke="#8b4513" points="229.9496,-286.5108 237.3205,-278.9002 226.8124,-280.2531 229.9496,-286.5108"/>
</a>
</g>
</g>
<!-- (*github.com/go&#45;i2p/go&#45;i2p/lib/transport.TransportMuxer).GetSession&#45;&gt;(*github.com/go&#45;i2p/logger.Logger).WithError -->
<g id="edge8" class="edge">
<title>(*github.com/go&#45;i2p/go&#45;i2p/lib/transport.TransportMuxer).GetSession&#45;&gt;(*github.com/go&#45;i2p/logger.Logger).WithError</title>
<g id="a_edge8"><a xlink:title="at multi.go:83: calling [(*github.com/go&#45;i2p/logger.Logger).WithError]">
<path fill="none" stroke="#8b4513" d="M120.154,-446.5151C129.4277,-442.1948 138.478,-436.4857 145.3282,-429 205.7684,-362.9531 149.3034,-304.4246 209.3282,-238 214.6264,-232.1369 221.2488,-227.314 228.2742,-223.367"/>
<polygon fill="#8b4513" stroke="#8b4513" points="229.9543,-226.4399 237.3193,-218.8236 226.8122,-220.1847 229.9543,-226.4399"/>
</a>
</g>
</g>
<!-- (*github.com/go&#45;i2p/go&#45;i2p/lib/transport.TransportMuxer).GetSession&#45;&gt;(*github.com/go&#45;i2p/logger.Logger).Error -->
<g id="edge7" class="edge">
<title>(*github.com/go&#45;i2p/go&#45;i2p/lib/transport.TransportMuxer).GetSession&#45;&gt;(*github.com/go&#45;i2p/logger.Logger).Error</title>
<g id="a_edge7"><a xlink:title="at multi.go:93: calling [(*github.com/go&#45;i2p/logger.Logger).Error]">
<path fill="none" stroke="#8b4513" d="M120.2741,-474.3401C140.7352,-478.6493 164.3027,-479.1122 181.3282,-466 219.9333,-436.2684 177.8519,-397.1963 209.3282,-360 217.5722,-350.2578 229.5084,-343.4373 241.1202,-338.727"/>
<polygon fill="#8b4513" stroke="#8b4513" points="242.5022,-341.9488 250.7096,-335.2488 240.1154,-335.3683 242.5022,-341.9488"/>
</a>
</g>
</g>
<!-- (*github.com/go&#45;i2p/go&#45;i2p/lib/transport.TransportMuxer).GetSession&#45;&gt;(*github.com/go&#45;i2p/logger.Logger).Warn -->
<g id="edge14" class="edge">
<title>(*github.com/go&#45;i2p/go&#45;i2p/lib/transport.TransportMuxer).GetSession&#45;&gt;(*github.com/go&#45;i2p/logger.Logger).Warn</title>
<g id="a_edge14"><a xlink:title="at multi.go:83: calling [(*github.com/go&#45;i2p/logger.Logger).Warn]">
<path fill="none" stroke="#8b4513" d="M114.1568,-477.0204C138.9891,-487.8398 169.1495,-498.5263 181.3282,-493 198.5374,-485.191 196.5367,-474.9109 209.3282,-461 223.39,-445.7076 239.5137,-428.9794 252.5942,-415.6034"/>
<polygon fill="#8b4513" stroke="#8b4513" points="255.4005,-417.7408 259.9056,-408.1514 250.4039,-412.8384 255.4005,-417.7408"/>
</a>
</g>
</g>
<!-- (*github.com/go&#45;i2p/go&#45;i2p/lib/transport.TransportMuxer).GetSession&#45;&gt;(*github.com/sirupsen/logrus.Logger).Debug -->
<g id="edge22" class="edge">
<title>(*github.com/go&#45;i2p/go&#45;i2p/lib/transport.TransportMuxer).GetSession&#45;&gt;(*github.com/sirupsen/logrus.Logger).Debug</title>
<g id="a_edge22"><a xlink:title="at multi.go:75: calling [(*github.com/sirupsen/logrus.Logger).Debug]&#10;at multi.go:79: calling [(*github.com/sirupsen/logrus.Logger).Debug]&#10;at multi.go:89: calling [(*github.com/sirupsen/logrus.Logger).Debug]">
<path fill="none" stroke="#8b4513" d="M120.4985,-476.5343C128.9673,-480.5437 137.6021,-485.0875 145.3282,-490 162.6172,-500.9929 161.1129,-512.8918 180.3282,-520 198.1296,-526.5852 219.0381,-527.2161 236.9263,-525.8426"/>
<polygon fill="#8b4513" stroke="#8b4513" points="237.4597,-529.3068 247.0632,-524.8322 236.7654,-522.3414 237.4597,-529.3068"/>
</a>
</g>
</g>
<!-- (*github.com/go&#45;i2p/go&#45;i2p/lib/transport.TransportMuxer).Compatible -->
<g id="node7" class="node">
<title>(*github.com/go&#45;i2p/go&#45;i2p/lib/transport.TransportMuxer).Compatible</title>
<g id="a_node7"><a xlink:title="(*github.com/go&#45;i2p/go&#45;i2p/lib/transport.TransportMuxer).Compatible | defined in multi.go:100&#10;at multi.go:101: calling [(github.com/go&#45;i2p/go&#45;i2p/lib/common/router_info.RouterInfo).String]&#10;at multi.go:101: calling [(*github.com/sirupsen/logrus.Logger).Debug]&#10;at multi.go:109: calling [(*github.com/sirupsen/logrus.Logger).Debug]&#10;at multi.go:104: calling [(*github.com/sirupsen/logrus.Logger).Debug]&#10;at multi.go:101: calling [(*github.com/go&#45;i2p/logger.Logger).WithField]&#10;at multi.go:104: calling [(*github.com/go&#45;i2p/logger.Logger).WithField]">
<path fill="#add8e6" stroke="#000000" stroke-width="1.5" d="M109.4929,-538C109.4929,-538 43.8353,-538 43.8353,-538 37.8353,-538 31.8353,-532 31.8353,-526 31.8353,-526 31.8353,-514 31.8353,-514 31.8353,-508 37.8353,-502 43.8353,-502 43.8353,-502 109.4929,-502 109.4929,-502 115.4929,-502 121.4929,-508 121.4929,-514 121.4929,-514 121.4929,-526 121.4929,-526 121.4929,-532 115.4929,-538 109.4929,-538"/>
<text text-anchor="middle" x="76.6641" y="-515.8" font-family="Verdana" font-size="14.00" fill="#000000">Compatible</text>
</a>
</g>
</g>
<!-- (*github.com/go&#45;i2p/go&#45;i2p/lib/transport.TransportMuxer).Compatible&#45;&gt;(github.com/go&#45;i2p/go&#45;i2p/lib/common/router_info.RouterInfo).String -->
<g id="edge15" class="edge">
<title>(*github.com/go&#45;i2p/go&#45;i2p/lib/transport.TransportMuxer).Compatible&#45;&gt;(github.com/go&#45;i2p/go&#45;i2p/lib/common/router_info.RouterInfo).String</title>
<g id="a_edge15"><a xlink:title="at multi.go:101: calling [(github.com/go&#45;i2p/go&#45;i2p/lib/common/router_info.RouterInfo).String]">
<path fill="none" stroke="#8b4513" d="M94.3896,-538.1322C114.009,-557.425 147.2493,-587.882 180.3282,-608 198.6294,-619.1304 220.5827,-628.4408 239.0293,-635.2704"/>
<polygon fill="#8b4513" stroke="#8b4513" points="237.9993,-638.6193 248.5938,-638.7085 240.3673,-632.032 237.9993,-638.6193"/>
</a>
</g>
</g>
<!-- (*github.com/go&#45;i2p/go&#45;i2p/lib/transport.TransportMuxer).Compatible&#45;&gt;(*github.com/go&#45;i2p/logger.Logger).WithField -->
<g id="edge23" class="edge">
<title>(*github.com/go&#45;i2p/go&#45;i2p/lib/transport.TransportMuxer).Compatible&#45;&gt;(*github.com/go&#45;i2p/logger.Logger).WithField</title>
<g id="a_edge23"><a xlink:title="at multi.go:101: calling [(*github.com/go&#45;i2p/logger.Logger).WithField]&#10;at multi.go:104: calling [(*github.com/go&#45;i2p/logger.Logger).WithField]">
<path fill="none" stroke="#8b4513" d="M121.6007,-504.0419C129.8884,-500.0999 138.1742,-495.4215 145.3282,-490 165.4659,-474.7391 170.6352,-468.8928 181.3282,-446 209.4744,-385.7414 168.1696,-351.2425 209.3282,-299 214.3892,-292.5761 221.0747,-287.4404 228.2881,-283.347"/>
<polygon fill="#8b4513" stroke="#8b4513" points="230.2313,-286.2895 237.6248,-278.701 227.1127,-280.0226 230.2313,-286.2895"/>
</a>
</g>
</g>
<!-- (*github.com/go&#45;i2p/go&#45;i2p/lib/transport.TransportMuxer).Compatible&#45;&gt;(*github.com/sirupsen/logrus.Logger).Debug -->
<g id="edge17" class="edge">
<title>(*github.com/go&#45;i2p/go&#45;i2p/lib/transport.TransportMuxer).Compatible&#45;&gt;(*github.com/sirupsen/logrus.Logger).Debug</title>
<g id="a_edge17"><a xlink:title="at multi.go:101: calling [(*github.com/sirupsen/logrus.Logger).Debug]&#10;at multi.go:109: calling [(*github.com/sirupsen/logrus.Logger).Debug]&#10;at multi.go:104: calling [(*github.com/sirupsen/logrus.Logger).Debug]">
<path fill="none" stroke="#8b4513" d="M86.8626,-538.1611C104.1375,-566.2971 141.2107,-615.7318 181.3282,-601 211.6368,-589.8702 238.9441,-564.5471 256.7283,-544.9649"/>
<polygon fill="#8b4513" stroke="#8b4513" points="259.5393,-547.0686 263.5198,-537.2499 254.2851,-542.4433 259.5393,-547.0686"/>
</a>
</g>
</g>
</g>
</svg>
