<?xml version="1.0" encoding="UTF-8" standalone="no"?>
<!DOCTYPE svg PUBLIC "-//W3C//DTD SVG 1.1//EN"
 "http://www.w3.org/Graphics/SVG/1.1/DTD/svg11.dtd">
<!-- Generated by graphviz version 2.40.1 (20161225.0304)
 -->
<!-- Title: gocallvis Pages: 1 -->
<svg width="355pt" height="658pt"
 viewBox="0.00 0.00 354.52 658.00" xmlns="http://www.w3.org/2000/svg" xmlns:xlink="http://www.w3.org/1999/xlink">
<g id="graph0" class="graph" transform="scale(1 1) rotate(0) translate(0 658)">
<title>gocallvis</title>
<polygon fill="#d3d3d3" stroke="transparent" points="0,0 0,-658 354.5176,-658 354.5176,0 0,0"/>
<g id="clust1" class="cluster">
<title>cluster_focus</title>
<polygon fill="#e6ecfa" stroke="#000000" stroke-width=".5" points="0,-8 0,-650 346.5176,-650 346.5176,-8 0,-8"/>
<text text-anchor="middle" x="173.2588" y="-629.8" font-family="Arial" font-size="18.00" fill="#000000">transport</text>
</g>
<g id="clust5" class="cluster">
<title>cluster_github.com/go&#45;i2p/common/router_info.RouterInfo</title>
<g id="a_clust5"><a xlink:title="type: github.com/go&#45;i2p/common/router_info.RouterInfo">
<path fill="#eed8ae" stroke="#000000" stroke-width=".5" d="M238.4341,-121C238.4341,-121 317.4117,-121 317.4117,-121 323.4117,-121 329.4117,-127 329.4117,-133 329.4117,-133 329.4117,-187 329.4117,-187 329.4117,-193 323.4117,-199 317.4117,-199 317.4117,-199 238.4341,-199 238.4341,-199 232.4341,-199 226.4341,-193 226.4341,-187 226.4341,-187 226.4341,-133 226.4341,-133 226.4341,-127 232.4341,-121 238.4341,-121"/>
<text text-anchor="middle" x="277.9229" y="-129.5" font-family="Arial" font-size="15.00" fill="#222222">(RouterInfo)</text>
</a>
</g>
</g>
<g id="clust4" class="cluster">
<title>cluster_*github.com/sirupsen/logrus.Logger</title>
<g id="a_clust4"><a xlink:title="type: *github.com/sirupsen/logrus.Logger">
<path fill="#eed8ae" stroke="#000000" stroke-width=".5" d="M251.2623,-477C251.2623,-477 305.5835,-477 305.5835,-477 311.5835,-477 317.5835,-483 317.5835,-489 317.5835,-489 317.5835,-543 317.5835,-543 317.5835,-549 311.5835,-555 305.5835,-555 305.5835,-555 251.2623,-555 251.2623,-555 245.2623,-555 239.2623,-549 239.2623,-543 239.2623,-543 239.2623,-489 239.2623,-489 239.2623,-483 245.2623,-477 251.2623,-477"/>
<text text-anchor="middle" x="278.4229" y="-485.5" font-family="Arial" font-size="15.00" fill="#222222">(*Logger)</text>
</a>
</g>
</g>
<g id="clust3" class="cluster">
<title>cluster_*github.com/go&#45;i2p/logger.Logger</title>
<g id="a_clust3"><a xlink:title="type: *github.com/go&#45;i2p/logger.Logger">
<path fill="#eed8ae" stroke="#000000" stroke-width=".5" d="M241.1578,-207C241.1578,-207 314.688,-207 314.688,-207 320.688,-207 326.688,-213 326.688,-219 326.688,-219 326.688,-456 326.688,-456 326.688,-462 320.688,-468 314.688,-468 314.688,-468 241.1578,-468 241.1578,-468 235.1578,-468 229.1578,-462 229.1578,-456 229.1578,-456 229.1578,-219 229.1578,-219 229.1578,-213 235.1578,-207 241.1578,-207"/>
<text text-anchor="middle" x="277.9229" y="-215.5" font-family="Arial" font-size="15.00" fill="#222222">(*Logger)</text>
</a>
</g>
</g>
<g id="clust2" class="cluster">
<title>cluster_*github.com/go&#45;i2p/go&#45;i2p/lib/transport.TransportMuxer</title>
<g id="a_clust2"><a xlink:title="type: *github.com/go&#45;i2p/go&#45;i2p/lib/transport.TransportMuxer">
<path fill="#b0c4de" stroke="#000000" stroke-width=".5" d="M20,-154C20,-154 133.3282,-154 133.3282,-154 139.3282,-154 145.3282,-160 145.3282,-166 145.3282,-166 145.3282,-464 145.3282,-464 145.3282,-470 139.3282,-476 133.3282,-476 133.3282,-476 20,-476 20,-476 14,-476 8,-470 8,-464 8,-464 8,-166 8,-166 8,-160 14,-154 20,-154"/>
<text text-anchor="middle" x="76.6641" y="-162.5" font-family="Arial" font-size="15.00" fill="#222222">(*TransportMuxer)</text>
</a>
</g>
</g>
<!-- github.com/go&#45;i2p/go&#45;i2p/lib/transport.Mux -->
<g id="node1" class="node">
<title>github.com/go&#45;i2p/go&#45;i2p/lib/transport.Mux</title>
<g id="a_node1"><a xlink:title="github.com/go&#45;i2p/go&#45;i2p/lib/transport.Mux | defined in multi.go:18&#10;at multi.go:19: calling [(*github.com/go&#45;i2p/logger.Logger).WithField]&#10;at multi.go:19: calling [(*github.com/sirupsen/logrus.Logger).Debug]&#10;at multi.go:22: calling [(*github.com/sirupsen/logrus.Logger).Debug]">
<path fill="#add8e6" stroke="#000000" stroke-width="1.5" d="M91.6641,-607C91.6641,-607 61.6641,-607 61.6641,-607 55.6641,-607 49.6641,-601 49.6641,-595 49.6641,-595 49.6641,-583 49.6641,-583 49.6641,-577 55.6641,-571 61.6641,-571 61.6641,-571 91.6641,-571 91.6641,-571 97.6641,-571 103.6641,-577 103.6641,-583 103.6641,-583 103.6641,-595 103.6641,-595 103.6641,-601 97.6641,-607 91.6641,-607"/>
<text text-anchor="middle" x="76.6641" y="-584.8" font-family="Verdana" font-size="14.00" fill="#000000">Mux</text>
</a>
</g>
</g>
<!-- (*github.com/go&#45;i2p/logger.Logger).WithField -->
<g id="node10" class="node">
<title>(*github.com/go&#45;i2p/logger.Logger).WithField</title>
<g id="a_node10"><a xlink:title="(*github.com/go&#45;i2p/logger.Logger).WithField | defined in log.go:54">
<path fill="#ffe4b5" stroke="#000000" stroke-width="1.5" d="M306.1974,-460C306.1974,-460 249.6484,-460 249.6484,-460 243.6484,-460 237.6484,-454 237.6484,-448 237.6484,-448 237.6484,-436 237.6484,-436 237.6484,-430 243.6484,-424 249.6484,-424 249.6484,-424 306.1974,-424 306.1974,-424 312.1974,-424 318.1974,-430 318.1974,-436 318.1974,-436 318.1974,-448 318.1974,-448 318.1974,-454 312.1974,-460 306.1974,-460"/>
<text text-anchor="middle" x="277.9229" y="-446.2" font-family="Verdana" font-size="14.00" fill="#000000">logger</text>
<text text-anchor="middle" x="277.9229" y="-429.4" font-family="Verdana" font-size="14.00" fill="#000000">WithField</text>
</a>
</g>
</g>
<!-- github.com/go&#45;i2p/go&#45;i2p/lib/transport.Mux&#45;&gt;(*github.com/go&#45;i2p/logger.Logger).WithField -->
<g id="edge16" class="edge">
<title>github.com/go&#45;i2p/go&#45;i2p/lib/transport.Mux&#45;&gt;(*github.com/go&#45;i2p/logger.Logger).WithField</title>
<g id="a_edge16"><a xlink:title="at multi.go:19: calling [(*github.com/go&#45;i2p/logger.Logger).WithField]">
<path fill="none" stroke="#8b4513" d="M95.0317,-570.9518C120.8095,-546.264 169.8949,-501.5498 217.3282,-471 220.858,-468.7266 224.5933,-466.5191 228.4066,-464.4039"/>
<polygon fill="#8b4513" stroke="#8b4513" points="230.1865,-467.4219 237.3855,-459.6486 226.9103,-461.2359 230.1865,-467.4219"/>
</a>
</g>
</g>
<!-- (*github.com/sirupsen/logrus.Logger).Debug -->
<g id="node14" class="node">
<title>(*github.com/sirupsen/logrus.Logger).Debug</title>
<g id="a_node14"><a xlink:title="(*github.com/sirupsen/logrus.Logger).Debug | defined in logger.go:221">
<path fill="#ffe4b5" stroke="#000000" stroke-width="1.5" d="M296.7449,-547C296.7449,-547 259.1009,-547 259.1009,-547 253.1009,-547 247.1009,-541 247.1009,-535 247.1009,-535 247.1009,-523 247.1009,-523 247.1009,-517 253.1009,-511 259.1009,-511 259.1009,-511 296.7449,-511 296.7449,-511 302.7449,-511 308.7449,-517 308.7449,-523 308.7449,-523 308.7449,-535 308.7449,-535 308.7449,-541 302.7449,-547 296.7449,-547"/>
<text text-anchor="middle" x="277.9229" y="-533.2" font-family="Verdana" font-size="14.00" fill="#000000">logrus</text>
<text text-anchor="middle" x="277.9229" y="-516.4" font-family="Verdana" font-size="14.00" fill="#000000">Debug</text>
</a>
</g>
</g>
<!-- github.com/go&#45;i2p/go&#45;i2p/lib/transport.Mux&#45;&gt;(*github.com/sirupsen/logrus.Logger).Debug -->
<g id="edge21" class="edge">
<title>github.com/go&#45;i2p/go&#45;i2p/lib/transport.Mux&#45;&gt;(*github.com/sirupsen/logrus.Logger).Debug</title>
<g id="a_edge21"><a xlink:title="at multi.go:19: calling [(*github.com/sirupsen/logrus.Logger).Debug]&#10;at multi.go:22: calling [(*github.com/sirupsen/logrus.Logger).Debug]">
<path fill="none" stroke="#8b4513" d="M103.9271,-593.9271C125.4045,-596.7676 155.8666,-598.4683 181.3282,-591 206.5328,-583.6071 231.3907,-567.3902 249.5769,-553.3961"/>
<polygon fill="#8b4513" stroke="#8b4513" points="251.7782,-556.1173 257.4405,-547.1624 247.4297,-550.6318 251.7782,-556.1173"/>
</a>
</g>
</g>
<!-- github.com/go&#45;i2p/go&#45;i2p/lib/transport.init -->
<g id="node2" class="node">
<title>github.com/go&#45;i2p/go&#45;i2p/lib/transport.init</title>
<g id="a_node2"><a xlink:title="github.com/go&#45;i2p/go&#45;i2p/lib/transport.init | defined in .:0&#10;at multi.go:8: calling [github.com/go&#45;i2p/logger.GetGoI2PLogger]&#10;at errors.go:6: calling [github.com/samber/oops.Errorf]">
<path fill="#add8e6" stroke="#000000" stroke-width=".5" d="M91.6641,-57C91.6641,-57 61.6641,-57 61.6641,-57 55.6641,-57 49.6641,-51 49.6641,-45 49.6641,-45 49.6641,-33 49.6641,-33 49.6641,-27 55.6641,-21 61.6641,-21 61.6641,-21 91.6641,-21 91.6641,-21 97.6641,-21 103.6641,-27 103.6641,-33 103.6641,-33 103.6641,-45 103.6641,-45 103.6641,-51 97.6641,-57 91.6641,-57"/>
<text text-anchor="middle" x="76.6641" y="-34.8" font-family="Verdana" font-size="14.00" fill="#000000">init</text>
</a>
</g>
</g>
<!-- github.com/samber/oops.Errorf -->
<g id="node3" class="node">
<title>github.com/samber/oops.Errorf</title>
<g id="a_node3"><a xlink:title="github.com/samber/oops.Errorf | defined in oops.go:34">
<path fill="#ffe4b5" stroke="#000000" stroke-width="1.5" d="M295.1182,-113C295.1182,-113 260.7276,-113 260.7276,-113 254.7276,-113 248.7276,-107 248.7276,-101 248.7276,-101 248.7276,-89 248.7276,-89 248.7276,-83 254.7276,-77 260.7276,-77 260.7276,-77 295.1182,-77 295.1182,-77 301.1182,-77 307.1182,-83 307.1182,-89 307.1182,-89 307.1182,-101 307.1182,-101 307.1182,-107 301.1182,-113 295.1182,-113"/>
<text text-anchor="middle" x="277.9229" y="-99.2" font-family="Verdana" font-size="14.00" fill="#000000">oops</text>
<text text-anchor="middle" x="277.9229" y="-82.4" font-family="Verdana" font-size="14.00" fill="#000000">Errorf</text>
</a>
</g>
</g>
<!-- github.com/go&#45;i2p/go&#45;i2p/lib/transport.init&#45;&gt;github.com/samber/oops.Errorf -->
<g id="edge22" class="edge">
<title>github.com/go&#45;i2p/go&#45;i2p/lib/transport.init&#45;&gt;github.com/samber/oops.Errorf</title>
<g id="a_edge22"><a xlink:title="at errors.go:6: calling [github.com/samber/oops.Errorf]">
<path fill="none" stroke="#8b4513" d="M103.8068,-46.5524C138.5502,-56.2197 198.9914,-73.0374 238.7284,-84.0942"/>
<polygon fill="#8b4513" stroke="#8b4513" points="238.032,-87.5333 248.6043,-86.8421 239.9086,-80.7895 238.032,-87.5333"/>
</a>
</g>
</g>
<!-- github.com/go&#45;i2p/logger.GetGoI2PLogger -->
<g id="node4" class="node">
<title>github.com/go&#45;i2p/logger.GetGoI2PLogger</title>
<g id="a_node4"><a xlink:title="github.com/go&#45;i2p/logger.GetGoI2PLogger | defined in log.go:120">
<path fill="#ffe4b5" stroke="#000000" stroke-width="1.5" d="M326.6124,-52C326.6124,-52 229.2334,-52 229.2334,-52 223.2334,-52 217.2334,-46 217.2334,-40 217.2334,-40 217.2334,-28 217.2334,-28 217.2334,-22 223.2334,-16 229.2334,-16 229.2334,-16 326.6124,-16 326.6124,-16 332.6124,-16 338.6124,-22 338.6124,-28 338.6124,-28 338.6124,-40 338.6124,-40 338.6124,-46 332.6124,-52 326.6124,-52"/>
<text text-anchor="middle" x="277.9229" y="-38.2" font-family="Verdana" font-size="14.00" fill="#000000">logger</text>
<text text-anchor="middle" x="277.9229" y="-21.4" font-family="Verdana" font-size="14.00" fill="#000000">GetGoI2PLogger</text>
</a>
</g>
</g>
<!-- github.com/go&#45;i2p/go&#45;i2p/lib/transport.init&#45;&gt;github.com/go&#45;i2p/logger.GetGoI2PLogger -->
<g id="edge4" class="edge">
<title>github.com/go&#45;i2p/go&#45;i2p/lib/transport.init&#45;&gt;github.com/go&#45;i2p/logger.GetGoI2PLogger</title>
<g id="a_edge4"><a xlink:title="at multi.go:8: calling [github.com/go&#45;i2p/logger.GetGoI2PLogger]">
<path fill="none" stroke="#8b4513" d="M103.8068,-38.3257C130.076,-37.6731 171.036,-36.6555 206.63,-35.7712"/>
<polygon fill="#8b4513" stroke="#8b4513" points="207.0846,-39.2611 216.9946,-35.5137 206.9107,-32.2632 207.0846,-39.2611"/>
</a>
</g>
</g>
<!-- (*github.com/go&#45;i2p/go&#45;i2p/lib/transport.TransportMuxer).Name -->
<g id="node5" class="node">
<title>(*github.com/go&#45;i2p/go&#45;i2p/lib/transport.TransportMuxer).Name</title>
<g id="a_node5"><a xlink:title="(*github.com/go&#45;i2p/go&#45;i2p/lib/transport.TransportMuxer).Name | defined in multi.go:59&#10;at multi.go:60: calling [(*github.com/sirupsen/logrus.Logger).Debug]&#10;at multi.go:67: calling [(*github.com/sirupsen/logrus.Logger).Debug]&#10;at multi.go:67: calling [(*github.com/go&#45;i2p/logger.Logger).WithField]">
<path fill="#add8e6" stroke="#000000" stroke-width="1.5" d="M93.5921,-468C93.5921,-468 59.7361,-468 59.7361,-468 53.7361,-468 47.7361,-462 47.7361,-456 47.7361,-456 47.7361,-444 47.7361,-444 47.7361,-438 53.7361,-432 59.7361,-432 59.7361,-432 93.5921,-432 93.5921,-432 99.5921,-432 105.5921,-438 105.5921,-444 105.5921,-444 105.5921,-456 105.5921,-456 105.5921,-462 99.5921,-468 93.5921,-468"/>
<text text-anchor="middle" x="76.6641" y="-445.8" font-family="Verdana" font-size="14.00" fill="#000000">Name</text>
</a>
</g>
</g>
<!-- (*github.com/go&#45;i2p/go&#45;i2p/lib/transport.TransportMuxer).Name&#45;&gt;(*github.com/go&#45;i2p/logger.Logger).WithField -->
<g id="edge23" class="edge">
<title>(*github.com/go&#45;i2p/go&#45;i2p/lib/transport.TransportMuxer).Name&#45;&gt;(*github.com/go&#45;i2p/logger.Logger).WithField</title>
<g id="a_edge23"><a xlink:title="at multi.go:67: calling [(*github.com/go&#45;i2p/logger.Logger).WithField]">
<path fill="none" stroke="#8b4513" d="M105.4996,-448.8538C137.093,-447.598 188.3869,-445.559 226.8299,-444.0309"/>
<polygon fill="#8b4513" stroke="#8b4513" points="227.4519,-447.5091 237.3049,-443.6146 227.1738,-440.5146 227.4519,-447.5091"/>
</a>
</g>
</g>
<!-- (*github.com/go&#45;i2p/go&#45;i2p/lib/transport.TransportMuxer).Name&#45;&gt;(*github.com/sirupsen/logrus.Logger).Debug -->
<g id="edge5" class="edge">
<title>(*github.com/go&#45;i2p/go&#45;i2p/lib/transport.TransportMuxer).Name&#45;&gt;(*github.com/sirupsen/logrus.Logger).Debug</title>
<g id="a_edge5"><a xlink:title="at multi.go:60: calling [(*github.com/sirupsen/logrus.Logger).Debug]&#10;at multi.go:67: calling [(*github.com/sirupsen/logrus.Logger).Debug]">
<path fill="none" stroke="#8b4513" d="M105.4492,-454.1346C118.7547,-457.2385 134.065,-462.6384 145.3282,-472 170.5609,-492.9727 152.1597,-520.1751 180.3282,-537 197.1992,-547.0769 218.7327,-546.4226 237.2782,-542.6735"/>
<polygon fill="#8b4513" stroke="#8b4513" points="238.2995,-546.0286 247.2254,-540.3208 236.6882,-539.2165 238.2995,-546.0286"/>
</a>
</g>
</g>
<!-- (*github.com/go&#45;i2p/go&#45;i2p/lib/transport.TransportMuxer).Compatible -->
<g id="node6" class="node">
<title>(*github.com/go&#45;i2p/go&#45;i2p/lib/transport.TransportMuxer).Compatible</title>
<g id="a_node6"><a xlink:title="(*github.com/go&#45;i2p/go&#45;i2p/lib/transport.TransportMuxer).Compatible | defined in multi.go:100&#10;at multi.go:101: calling [(*github.com/sirupsen/logrus.Logger).Debug]&#10;at multi.go:109: calling [(*github.com/sirupsen/logrus.Logger).Debug]&#10;at multi.go:104: calling [(*github.com/sirupsen/logrus.Logger).Debug]&#10;at multi.go:101: calling [(*github.com/go&#45;i2p/logger.Logger).WithField]&#10;at multi.go:104: calling [(*github.com/go&#45;i2p/logger.Logger).WithField]&#10;at multi.go:101: calling [(github.com/go&#45;i2p/common/router_info.RouterInfo).String]">
<path fill="#add8e6" stroke="#000000" stroke-width="1.5" d="M109.4929,-407C109.4929,-407 43.8353,-407 43.8353,-407 37.8353,-407 31.8353,-401 31.8353,-395 31.8353,-395 31.8353,-383 31.8353,-383 31.8353,-377 37.8353,-371 43.8353,-371 43.8353,-371 109.4929,-371 109.4929,-371 115.4929,-371 121.4929,-377 121.4929,-383 121.4929,-383 121.4929,-395 121.4929,-395 121.4929,-401 115.4929,-407 109.4929,-407"/>
<text text-anchor="middle" x="76.6641" y="-384.8" font-family="Verdana" font-size="14.00" fill="#000000">Compatible</text>
</a>
</g>
</g>
<!-- (*github.com/go&#45;i2p/go&#45;i2p/lib/transport.TransportMuxer).Compatible&#45;&gt;(*github.com/go&#45;i2p/logger.Logger).WithField -->
<g id="edge9" class="edge">
<title>(*github.com/go&#45;i2p/go&#45;i2p/lib/transport.TransportMuxer).Compatible&#45;&gt;(*github.com/go&#45;i2p/logger.Logger).WithField</title>
<g id="a_edge9"><a xlink:title="at multi.go:101: calling [(*github.com/go&#45;i2p/logger.Logger).WithField]&#10;at multi.go:104: calling [(*github.com/go&#45;i2p/logger.Logger).WithField]">
<path fill="none" stroke="#8b4513" d="M121.33,-400.7624C152.8146,-409.0537 195.0163,-420.1672 227.6757,-428.7678"/>
<polygon fill="#8b4513" stroke="#8b4513" points="226.921,-432.1883 237.4826,-431.3504 228.7036,-425.4191 226.921,-432.1883"/>
</a>
</g>
</g>
<!-- (*github.com/go&#45;i2p/go&#45;i2p/lib/transport.TransportMuxer).Compatible&#45;&gt;(*github.com/sirupsen/logrus.Logger).Debug -->
<g id="edge6" class="edge">
<title>(*github.com/go&#45;i2p/go&#45;i2p/lib/transport.TransportMuxer).Compatible&#45;&gt;(*github.com/sirupsen/logrus.Logger).Debug</title>
<g id="a_edge6"><a xlink:title="at multi.go:101: calling [(*github.com/sirupsen/logrus.Logger).Debug]&#10;at multi.go:109: calling [(*github.com/sirupsen/logrus.Logger).Debug]&#10;at multi.go:104: calling [(*github.com/sirupsen/logrus.Logger).Debug]">
<path fill="none" stroke="#8b4513" d="M121.3352,-403.077C130.1218,-407.4232 138.6687,-412.9765 145.3282,-420 174.8583,-451.144 147.3947,-482.4798 180.3282,-510 195.863,-522.9813 217.6474,-528.0562 236.6946,-529.7444"/>
<polygon fill="#8b4513" stroke="#8b4513" points="236.745,-533.2537 246.9377,-530.3625 237.1667,-526.2664 236.745,-533.2537"/>
</a>
</g>
</g>
<!-- (github.com/go&#45;i2p/common/router_info.RouterInfo).String -->
<g id="node15" class="node">
<title>(github.com/go&#45;i2p/common/router_info.RouterInfo).String</title>
<g id="a_node15"><a xlink:title="(github.com/go&#45;i2p/common/router_info.RouterInfo).String | defined in router_info_struct.go:293">
<path fill="#ffe4b5" stroke="#000000" stroke-width="1.5" d="M309.4005,-191C309.4005,-191 246.4453,-191 246.4453,-191 240.4453,-191 234.4453,-185 234.4453,-179 234.4453,-179 234.4453,-167 234.4453,-167 234.4453,-161 240.4453,-155 246.4453,-155 246.4453,-155 309.4005,-155 309.4005,-155 315.4005,-155 321.4005,-161 321.4005,-167 321.4005,-167 321.4005,-179 321.4005,-179 321.4005,-185 315.4005,-191 309.4005,-191"/>
<text text-anchor="middle" x="277.9229" y="-177.2" font-family="Verdana" font-size="14.00" fill="#000000">router_info</text>
<text text-anchor="middle" x="277.9229" y="-160.4" font-family="Verdana" font-size="14.00" fill="#000000">String</text>
</a>
</g>
</g>
<!-- (*github.com/go&#45;i2p/go&#45;i2p/lib/transport.TransportMuxer).Compatible&#45;&gt;(github.com/go&#45;i2p/common/router_info.RouterInfo).String -->
<g id="edge17" class="edge">
<title>(*github.com/go&#45;i2p/go&#45;i2p/lib/transport.TransportMuxer).Compatible&#45;&gt;(github.com/go&#45;i2p/common/router_info.RouterInfo).String</title>
<g id="a_edge17"><a xlink:title="at multi.go:101: calling [(github.com/go&#45;i2p/common/router_info.RouterInfo).String]">
<path fill="none" stroke="#8b4513" d="M121.3878,-375.1403C130.0695,-370.9644 138.5607,-365.6623 145.3282,-359 200.3212,-304.8619 162.9052,-255.711 217.3282,-201 219.9333,-198.3811 222.8291,-195.9803 225.9027,-193.7839"/>
<polygon fill="#8b4513" stroke="#8b4513" points="227.7869,-196.7336 234.377,-188.4377 224.0519,-190.8133 227.7869,-196.7336"/>
</a>
</g>
</g>
<!-- (*github.com/go&#45;i2p/go&#45;i2p/lib/transport.TransportMuxer).SetIdentity -->
<g id="node7" class="node">
<title>(*github.com/go&#45;i2p/go&#45;i2p/lib/transport.TransportMuxer).SetIdentity</title>
<g id="a_node7"><a xlink:title="(*github.com/go&#45;i2p/go&#45;i2p/lib/transport.TransportMuxer).SetIdentity | defined in multi.go:27&#10;at multi.go:32: calling [(*github.com/go&#45;i2p/logger.Logger).Error]&#10;at multi.go:28: calling [(*github.com/sirupsen/logrus.Logger).Debug]&#10;at multi.go:38: calling [(*github.com/sirupsen/logrus.Logger).Debug]&#10;at multi.go:36: calling [(*github.com/sirupsen/logrus.Logger).Debug]&#10;at multi.go:32: calling [(*github.com/go&#45;i2p/logger.Logger).WithError]&#10;at multi.go:28: calling [(*github.com/go&#45;i2p/logger.Logger).WithField]&#10;at multi.go:32: calling [(*github.com/go&#45;i2p/logger.Logger).WithField]&#10;at multi.go:36: calling [(*github.com/go&#45;i2p/logger.Logger).WithField]">
<path fill="#add8e6" stroke="#000000" stroke-width="1.5" d="M107.6,-346C107.6,-346 45.7282,-346 45.7282,-346 39.7282,-346 33.7282,-340 33.7282,-334 33.7282,-334 33.7282,-322 33.7282,-322 33.7282,-316 39.7282,-310 45.7282,-310 45.7282,-310 107.6,-310 107.6,-310 113.6,-310 119.6,-316 119.6,-322 119.6,-322 119.6,-334 119.6,-334 119.6,-340 113.6,-346 107.6,-346"/>
<text text-anchor="middle" x="76.6641" y="-323.8" font-family="Verdana" font-size="14.00" fill="#000000">SetIdentity</text>
</a>
</g>
</g>
<!-- (*github.com/go&#45;i2p/go&#45;i2p/lib/transport.TransportMuxer).SetIdentity&#45;&gt;(*github.com/go&#45;i2p/logger.Logger).WithField -->
<g id="edge18" class="edge">
<title>(*github.com/go&#45;i2p/go&#45;i2p/lib/transport.TransportMuxer).SetIdentity&#45;&gt;(*github.com/go&#45;i2p/logger.Logger).WithField</title>
<g id="a_edge18"><a xlink:title="at multi.go:28: calling [(*github.com/go&#45;i2p/logger.Logger).WithField]&#10;at multi.go:32: calling [(*github.com/go&#45;i2p/logger.Logger).WithField]&#10;at multi.go:36: calling [(*github.com/go&#45;i2p/logger.Logger).WithField]">
<path fill="none" stroke="#8b4513" d="M119.4915,-345.6533C128.2121,-349.7123 137.1997,-354.2449 145.3282,-359 179.6255,-379.0639 183.3938,-391.3283 217.3282,-412 221.3758,-414.4657 225.6539,-416.8998 229.9891,-419.251"/>
<polygon fill="#8b4513" stroke="#8b4513" points="228.4326,-422.3869 238.9124,-423.9443 231.6912,-416.1916 228.4326,-422.3869"/>
</a>
</g>
</g>
<!-- (*github.com/go&#45;i2p/logger.Logger).WithError -->
<g id="node11" class="node">
<title>(*github.com/go&#45;i2p/logger.Logger).WithError</title>
<g id="a_node11"><a xlink:title="(*github.com/go&#45;i2p/logger.Logger).WithError | defined in log.go:66">
<path fill="#ffe4b5" stroke="#000000" stroke-width="1.5" d="M306.4544,-399C306.4544,-399 249.3914,-399 249.3914,-399 243.3914,-399 237.3914,-393 237.3914,-387 237.3914,-387 237.3914,-375 237.3914,-375 237.3914,-369 243.3914,-363 249.3914,-363 249.3914,-363 306.4544,-363 306.4544,-363 312.4544,-363 318.4544,-369 318.4544,-375 318.4544,-375 318.4544,-387 318.4544,-387 318.4544,-393 312.4544,-399 306.4544,-399"/>
<text text-anchor="middle" x="277.9229" y="-385.2" font-family="Verdana" font-size="14.00" fill="#000000">logger</text>
<text text-anchor="middle" x="277.9229" y="-368.4" font-family="Verdana" font-size="14.00" fill="#000000">WithError</text>
</a>
</g>
</g>
<!-- (*github.com/go&#45;i2p/go&#45;i2p/lib/transport.TransportMuxer).SetIdentity&#45;&gt;(*github.com/go&#45;i2p/logger.Logger).WithError -->
<g id="edge11" class="edge">
<title>(*github.com/go&#45;i2p/go&#45;i2p/lib/transport.TransportMuxer).SetIdentity&#45;&gt;(*github.com/go&#45;i2p/logger.Logger).WithError</title>
<g id="a_edge11"><a xlink:title="at multi.go:32: calling [(*github.com/go&#45;i2p/logger.Logger).WithError]">
<path fill="none" stroke="#8b4513" d="M119.5237,-326.6676C138.7019,-327.0339 161.4268,-328.811 181.3282,-334 182.7984,-334.3833 207.814,-346.5613 232.0167,-358.4235"/>
<polygon fill="#8b4513" stroke="#8b4513" points="230.6826,-361.6674 241.202,-362.9291 233.7654,-355.3828 230.6826,-361.6674"/>
</a>
</g>
</g>
<!-- (*github.com/go&#45;i2p/logger.Logger).Error -->
<g id="node12" class="node">
<title>(*github.com/go&#45;i2p/logger.Logger).Error</title>
<g id="a_node12"><a xlink:title="(*github.com/go&#45;i2p/logger.Logger).Error | defined in log.go:42">
<path fill="#ffe4b5" stroke="#000000" stroke-width="1.5" d="M295.6892,-338C295.6892,-338 260.1566,-338 260.1566,-338 254.1566,-338 248.1566,-332 248.1566,-326 248.1566,-326 248.1566,-314 248.1566,-314 248.1566,-308 254.1566,-302 260.1566,-302 260.1566,-302 295.6892,-302 295.6892,-302 301.6892,-302 307.6892,-308 307.6892,-314 307.6892,-314 307.6892,-326 307.6892,-326 307.6892,-332 301.6892,-338 295.6892,-338"/>
<text text-anchor="middle" x="277.9229" y="-324.2" font-family="Verdana" font-size="14.00" fill="#000000">logger</text>
<text text-anchor="middle" x="277.9229" y="-307.4" font-family="Verdana" font-size="14.00" fill="#000000">Error</text>
</a>
</g>
</g>
<!-- (*github.com/go&#45;i2p/go&#45;i2p/lib/transport.TransportMuxer).SetIdentity&#45;&gt;(*github.com/go&#45;i2p/logger.Logger).Error -->
<g id="edge1" class="edge">
<title>(*github.com/go&#45;i2p/go&#45;i2p/lib/transport.TransportMuxer).SetIdentity&#45;&gt;(*github.com/go&#45;i2p/logger.Logger).Error</title>
<g id="a_edge1"><a xlink:title="at multi.go:32: calling [(*github.com/go&#45;i2p/logger.Logger).Error]">
<path fill="none" stroke="#8b4513" d="M119.5493,-313.1968C128.5425,-309.043 137.6254,-303.9884 145.3282,-298 165.3315,-282.4486 157.5674,-264.1319 180.3282,-253 201.2194,-242.7825 198.5286,-276.3101 217.3282,-290 223.9336,-294.8101 231.427,-299.2224 238.837,-303.0976"/>
<polygon fill="#8b4513" stroke="#8b4513" points="237.5932,-306.388 248.1054,-307.7086 240.7111,-300.1207 237.5932,-306.388"/>
</a>
</g>
</g>
<!-- (*github.com/go&#45;i2p/go&#45;i2p/lib/transport.TransportMuxer).SetIdentity&#45;&gt;(*github.com/sirupsen/logrus.Logger).Debug -->
<g id="edge10" class="edge">
<title>(*github.com/go&#45;i2p/go&#45;i2p/lib/transport.TransportMuxer).SetIdentity&#45;&gt;(*github.com/sirupsen/logrus.Logger).Debug</title>
<g id="a_edge10"><a xlink:title="at multi.go:28: calling [(*github.com/sirupsen/logrus.Logger).Debug]&#10;at multi.go:38: calling [(*github.com/sirupsen/logrus.Logger).Debug]&#10;at multi.go:36: calling [(*github.com/sirupsen/logrus.Logger).Debug]">
<path fill="none" stroke="#8b4513" d="M119.7212,-340.567C129.2346,-345.0703 138.5005,-351.071 145.3282,-359 182.6945,-402.3932 143.3184,-439.3023 180.3282,-483 194.9305,-500.2411 217.439,-511.4473 237.1615,-518.478"/>
<polygon fill="#8b4513" stroke="#8b4513" points="236.2743,-521.8711 246.8677,-521.6929 238.4753,-515.2261 236.2743,-521.8711"/>
</a>
</g>
</g>
<!-- (*github.com/go&#45;i2p/go&#45;i2p/lib/transport.TransportMuxer).GetSession -->
<g id="node8" class="node">
<title>(*github.com/go&#45;i2p/go&#45;i2p/lib/transport.TransportMuxer).GetSession</title>
<g id="a_node8"><a xlink:title="(*github.com/go&#45;i2p/go&#45;i2p/lib/transport.TransportMuxer).GetSession | defined in multi.go:74&#10;at multi.go:75: calling [(*github.com/go&#45;i2p/logger.Logger).WithField]&#10;at multi.go:79: calling [(*github.com/go&#45;i2p/logger.Logger).WithField]&#10;at multi.go:83: calling [(*github.com/go&#45;i2p/logger.Logger).WithField]&#10;at multi.go:89: calling [(*github.com/go&#45;i2p/logger.Logger).WithField]&#10;at multi.go:83: calling [(*github.com/go&#45;i2p/logger.Logger).WithError]&#10;at multi.go:75: calling [(github.com/go&#45;i2p/common/router_info.RouterInfo).String]&#10;at multi.go:93: calling [(*github.com/go&#45;i2p/logger.Logger).Error]&#10;at multi.go:75: calling [(*github.com/sirupsen/logrus.Logger).Debug]&#10;at multi.go:79: calling [(*github.com/sirupsen/logrus.Logger).Debug]&#10;at multi.go:89: calling [(*github.com/sirupsen/logrus.Logger).Debug]&#10;at multi.go:83: calling [(*github.com/go&#45;i2p/logger.Logger).Warn]">
<path fill="#add8e6" stroke="#000000" stroke-width="1.5" d="M108.1529,-224C108.1529,-224 45.1753,-224 45.1753,-224 39.1753,-224 33.1753,-218 33.1753,-212 33.1753,-212 33.1753,-200 33.1753,-200 33.1753,-194 39.1753,-188 45.1753,-188 45.1753,-188 108.1529,-188 108.1529,-188 114.1529,-188 120.1529,-194 120.1529,-200 120.1529,-200 120.1529,-212 120.1529,-212 120.1529,-218 114.1529,-224 108.1529,-224"/>
<text text-anchor="middle" x="76.6641" y="-201.8" font-family="Verdana" font-size="14.00" fill="#000000">GetSession</text>
</a>
</g>
</g>
<!-- (*github.com/go&#45;i2p/go&#45;i2p/lib/transport.TransportMuxer).GetSession&#45;&gt;(*github.com/go&#45;i2p/logger.Logger).WithField -->
<g id="edge2" class="edge">
<title>(*github.com/go&#45;i2p/go&#45;i2p/lib/transport.TransportMuxer).GetSession&#45;&gt;(*github.com/go&#45;i2p/logger.Logger).WithField</title>
<g id="a_edge2"><a xlink:title="at multi.go:75: calling [(*github.com/go&#45;i2p/logger.Logger).WithField]&#10;at multi.go:79: calling [(*github.com/go&#45;i2p/logger.Logger).WithField]&#10;at multi.go:83: calling [(*github.com/go&#45;i2p/logger.Logger).WithField]&#10;at multi.go:89: calling [(*github.com/go&#45;i2p/logger.Logger).WithField]">
<path fill="none" stroke="#8b4513" d="M120.1618,-219.6536C129.3269,-224.0699 138.328,-229.7594 145.3282,-237 203.786,-297.4654 159.9569,-350.5027 217.3282,-412 220.7039,-415.6184 224.6109,-418.8587 228.7828,-421.7472"/>
<polygon fill="#8b4513" stroke="#8b4513" points="227.2813,-424.9327 237.6328,-427.1906 230.9487,-418.9702 227.2813,-424.9327"/>
</a>
</g>
</g>
<!-- (*github.com/go&#45;i2p/go&#45;i2p/lib/transport.TransportMuxer).GetSession&#45;&gt;(*github.com/go&#45;i2p/logger.Logger).WithError -->
<g id="edge3" class="edge">
<title>(*github.com/go&#45;i2p/go&#45;i2p/lib/transport.TransportMuxer).GetSession&#45;&gt;(*github.com/go&#45;i2p/logger.Logger).WithError</title>
<g id="a_edge3"><a xlink:title="at multi.go:83: calling [(*github.com/go&#45;i2p/logger.Logger).WithError]">
<path fill="none" stroke="#8b4513" d="M120.3588,-221.0963C129.2062,-225.379 138.0248,-230.6487 145.3282,-237 190.5472,-276.3237 172.817,-310.8769 217.3282,-351 220.7055,-354.0443 224.448,-356.8542 228.3679,-359.4309"/>
<polygon fill="#8b4513" stroke="#8b4513" points="226.7828,-362.5614 237.1596,-364.6998 230.3812,-356.5571 226.7828,-362.5614"/>
</a>
</g>
</g>
<!-- (*github.com/go&#45;i2p/go&#45;i2p/lib/transport.TransportMuxer).GetSession&#45;&gt;(*github.com/go&#45;i2p/logger.Logger).Error -->
<g id="edge13" class="edge">
<title>(*github.com/go&#45;i2p/go&#45;i2p/lib/transport.TransportMuxer).GetSession&#45;&gt;(*github.com/go&#45;i2p/logger.Logger).Error</title>
<g id="a_edge13"><a xlink:title="at multi.go:93: calling [(*github.com/go&#45;i2p/logger.Logger).Error]">
<path fill="none" stroke="#8b4513" d="M120.3605,-217.6857C140.138,-224.2904 163.1093,-233.895 181.3282,-247 201.562,-261.5543 197.7415,-274.5859 217.3282,-290 223.8143,-295.1044 231.3086,-299.6679 238.7679,-303.6027"/>
<polygon fill="#8b4513" stroke="#8b4513" points="237.6057,-306.9332 248.1192,-308.2438 240.7178,-300.663 237.6057,-306.9332"/>
</a>
</g>
</g>
<!-- (*github.com/go&#45;i2p/logger.Logger).Warn -->
<g id="node13" class="node">
<title>(*github.com/go&#45;i2p/logger.Logger).Warn</title>
<g id="a_node13"><a xlink:title="(*github.com/go&#45;i2p/logger.Logger).Warn | defined in log.go:30">
<path fill="#ffe4b5" stroke="#000000" stroke-width="1.5" d="M295.6892,-277C295.6892,-277 260.1566,-277 260.1566,-277 254.1566,-277 248.1566,-271 248.1566,-265 248.1566,-265 248.1566,-253 248.1566,-253 248.1566,-247 254.1566,-241 260.1566,-241 260.1566,-241 295.6892,-241 295.6892,-241 301.6892,-241 307.6892,-247 307.6892,-253 307.6892,-253 307.6892,-265 307.6892,-265 307.6892,-271 301.6892,-277 295.6892,-277"/>
<text text-anchor="middle" x="277.9229" y="-263.2" font-family="Verdana" font-size="14.00" fill="#000000">logger</text>
<text text-anchor="middle" x="277.9229" y="-246.4" font-family="Verdana" font-size="14.00" fill="#000000">Warn</text>
</a>
</g>
</g>
<!-- (*github.com/go&#45;i2p/go&#45;i2p/lib/transport.TransportMuxer).GetSession&#45;&gt;(*github.com/go&#45;i2p/logger.Logger).Warn -->
<g id="edge20" class="edge">
<title>(*github.com/go&#45;i2p/go&#45;i2p/lib/transport.TransportMuxer).GetSession&#45;&gt;(*github.com/go&#45;i2p/logger.Logger).Warn</title>
<g id="a_edge20"><a xlink:title="at multi.go:83: calling [(*github.com/go&#45;i2p/logger.Logger).Warn]">
<path fill="none" stroke="#8b4513" d="M120.3343,-217.5002C155.3277,-226.7155 204.0233,-239.5391 237.9897,-248.4839"/>
<polygon fill="#8b4513" stroke="#8b4513" points="237.4651,-251.965 248.0267,-251.1271 239.2477,-245.1958 237.4651,-251.965"/>
</a>
</g>
</g>
<!-- (*github.com/go&#45;i2p/go&#45;i2p/lib/transport.TransportMuxer).GetSession&#45;&gt;(*github.com/sirupsen/logrus.Logger).Debug -->
<g id="edge19" class="edge">
<title>(*github.com/go&#45;i2p/go&#45;i2p/lib/transport.TransportMuxer).GetSession&#45;&gt;(*github.com/sirupsen/logrus.Logger).Debug</title>
<g id="a_edge19"><a xlink:title="at multi.go:75: calling [(*github.com/sirupsen/logrus.Logger).Debug]&#10;at multi.go:79: calling [(*github.com/sirupsen/logrus.Logger).Debug]&#10;at multi.go:89: calling [(*github.com/sirupsen/logrus.Logger).Debug]">
<path fill="none" stroke="#8b4513" d="M120.3235,-219.0039C129.5902,-223.4639 138.5948,-229.3357 145.3282,-237 181.6572,-278.3519 187.8874,-427.4918 217.3282,-474 224.4635,-485.2718 234.5166,-495.6742 244.3871,-504.3286"/>
<polygon fill="#8b4513" stroke="#8b4513" points="242.2915,-507.1389 252.2047,-510.8777 246.7867,-501.773 242.2915,-507.1389"/>
</a>
</g>
</g>
<!-- (*github.com/go&#45;i2p/go&#45;i2p/lib/transport.TransportMuxer).GetSession&#45;&gt;(github.com/go&#45;i2p/common/router_info.RouterInfo).String -->
<g id="edge12" class="edge">
<title>(*github.com/go&#45;i2p/go&#45;i2p/lib/transport.TransportMuxer).GetSession&#45;&gt;(github.com/go&#45;i2p/common/router_info.RouterInfo).String</title>
<g id="a_edge12"><a xlink:title="at multi.go:75: calling [(github.com/go&#45;i2p/common/router_info.RouterInfo).String]">
<path fill="none" stroke="#8b4513" d="M120.1864,-198.5178C129.3503,-195.2808 138.3448,-190.6435 145.3282,-184 177.3256,-153.5602 144.0142,-116.134 180.3282,-91 206.0891,-73.1701 193.152,-131.074 217.3282,-151 219.7545,-152.9998 222.378,-154.8256 225.1263,-156.4915"/>
<polygon fill="#8b4513" stroke="#8b4513" points="223.7597,-159.7273 234.2394,-161.2853 227.0186,-153.5321 223.7597,-159.7273"/>
</a>
</g>
</g>
<!-- (*github.com/go&#45;i2p/go&#45;i2p/lib/transport.TransportMuxer).Close -->
<g id="node9" class="node">
<title>(*github.com/go&#45;i2p/go&#45;i2p/lib/transport.TransportMuxer).Close</title>
<g id="a_node9"><a xlink:title="(*github.com/go&#45;i2p/go&#45;i2p/lib/transport.TransportMuxer).Close | defined in multi.go:43&#10;at multi.go:49: calling [(*github.com/go&#45;i2p/logger.Logger).WithField]&#10;at multi.go:51: calling [(*github.com/go&#45;i2p/logger.Logger).WithField]&#10;at multi.go:49: calling [(*github.com/go&#45;i2p/logger.Logger).Warn]&#10;at multi.go:44: calling [(*github.com/sirupsen/logrus.Logger).Debug]&#10;at multi.go:54: calling [(*github.com/sirupsen/logrus.Logger).Debug]&#10;at multi.go:51: calling [(*github.com/sirupsen/logrus.Logger).Debug]&#10;at multi.go:49: calling [(*github.com/go&#45;i2p/logger.Logger).WithError]">
<path fill="#add8e6" stroke="#000000" stroke-width="1.5" d="M92.5506,-285C92.5506,-285 60.7776,-285 60.7776,-285 54.7776,-285 48.7776,-279 48.7776,-273 48.7776,-273 48.7776,-261 48.7776,-261 48.7776,-255 54.7776,-249 60.7776,-249 60.7776,-249 92.5506,-249 92.5506,-249 98.5506,-249 104.5506,-255 104.5506,-261 104.5506,-261 104.5506,-273 104.5506,-273 104.5506,-279 98.5506,-285 92.5506,-285"/>
<text text-anchor="middle" x="76.6641" y="-262.8" font-family="Verdana" font-size="14.00" fill="#000000">Close</text>
</a>
</g>
</g>
<!-- (*github.com/go&#45;i2p/go&#45;i2p/lib/transport.TransportMuxer).Close&#45;&gt;(*github.com/go&#45;i2p/logger.Logger).WithField -->
<g id="edge7" class="edge">
<title>(*github.com/go&#45;i2p/go&#45;i2p/lib/transport.TransportMuxer).Close&#45;&gt;(*github.com/go&#45;i2p/logger.Logger).WithField</title>
<g id="a_edge7"><a xlink:title="at multi.go:49: calling [(*github.com/go&#45;i2p/logger.Logger).WithField]&#10;at multi.go:51: calling [(*github.com/go&#45;i2p/logger.Logger).WithField]">
<path fill="none" stroke="#8b4513" d="M104.8586,-275.4837C118.1837,-280.4947 133.6822,-287.8723 145.3282,-298 190.5472,-337.3237 172.817,-371.8769 217.3282,-412 220.8485,-415.1733 224.7657,-418.0919 228.8669,-420.7571"/>
<polygon fill="#8b4513" stroke="#8b4513" points="227.0909,-423.773 237.4756,-425.8726 230.6668,-417.7553 227.0909,-423.773"/>
</a>
</g>
</g>
<!-- (*github.com/go&#45;i2p/go&#45;i2p/lib/transport.TransportMuxer).Close&#45;&gt;(*github.com/go&#45;i2p/logger.Logger).WithError -->
<g id="edge15" class="edge">
<title>(*github.com/go&#45;i2p/go&#45;i2p/lib/transport.TransportMuxer).Close&#45;&gt;(*github.com/go&#45;i2p/logger.Logger).WithError</title>
<g id="a_edge15"><a xlink:title="at multi.go:49: calling [(*github.com/go&#45;i2p/logger.Logger).WithError]">
<path fill="none" stroke="#8b4513" d="M104.7267,-278.0833C117.4341,-283.5001 132.4581,-290.471 145.3282,-298 179.6255,-318.0639 183.3938,-330.3283 217.3282,-351 221.3758,-353.4657 225.6539,-355.8998 229.9891,-358.251"/>
<polygon fill="#8b4513" stroke="#8b4513" points="228.4326,-361.3869 238.9124,-362.9443 231.6912,-355.1916 228.4326,-361.3869"/>
</a>
</g>
</g>
<!-- (*github.com/go&#45;i2p/go&#45;i2p/lib/transport.TransportMuxer).Close&#45;&gt;(*github.com/go&#45;i2p/logger.Logger).Warn -->
<g id="edge8" class="edge">
<title>(*github.com/go&#45;i2p/go&#45;i2p/lib/transport.TransportMuxer).Close&#45;&gt;(*github.com/go&#45;i2p/logger.Logger).Warn</title>
<g id="a_edge8"><a xlink:title="at multi.go:49: calling [(*github.com/go&#45;i2p/logger.Logger).Warn]">
<path fill="none" stroke="#8b4513" d="M104.8465,-257.6689C125.7738,-251.7086 155.1089,-245.3776 181.3282,-247 199.9051,-248.1495 220.3772,-250.5311 237.6749,-252.8719"/>
<polygon fill="#8b4513" stroke="#8b4513" points="237.6016,-256.3956 247.9897,-254.3127 238.5701,-249.4629 237.6016,-256.3956"/>
</a>
</g>
</g>
<!-- (*github.com/go&#45;i2p/go&#45;i2p/lib/transport.TransportMuxer).Close&#45;&gt;(*github.com/sirupsen/logrus.Logger).Debug -->
<g id="edge14" class="edge">
<title>(*github.com/go&#45;i2p/go&#45;i2p/lib/transport.TransportMuxer).Close&#45;&gt;(*github.com/sirupsen/logrus.Logger).Debug</title>
<g id="a_edge14"><a xlink:title="at multi.go:44: calling [(*github.com/sirupsen/logrus.Logger).Debug]&#10;at multi.go:54: calling [(*github.com/sirupsen/logrus.Logger).Debug]&#10;at multi.go:51: calling [(*github.com/sirupsen/logrus.Logger).Debug]">
<path fill="none" stroke="#8b4513" d="M104.7917,-273.2978C118.9355,-277.8704 135.1829,-285.5145 145.3282,-298 190.6856,-353.8197 141.3164,-395.5747 180.3282,-456 194.6242,-478.1431 218.115,-496.0211 238.4675,-508.5419"/>
<polygon fill="#8b4513" stroke="#8b4513" points="236.8686,-511.6627 247.2568,-513.745 240.4345,-505.639 236.8686,-511.6627"/>
</a>
</g>
</g>
</g>
</svg>
