<?xml version="1.0" encoding="UTF-8" standalone="no"?>
<!DOCTYPE svg PUBLIC "-//W3C//DTD SVG 1.1//EN"
 "http://www.w3.org/Graphics/SVG/1.1/DTD/svg11.dtd">
<!-- Generated by graphviz version 2.40.1 (20161225.0304)
 -->
<!-- Title: gocallvis Pages: 1 -->
<svg width="355pt" height="658pt"
 viewBox="0.00 0.00 354.52 658.00" xmlns="http://www.w3.org/2000/svg" xmlns:xlink="http://www.w3.org/1999/xlink">
<g id="graph0" class="graph" transform="scale(1 1) rotate(0) translate(0 658)">
<title>gocallvis</title>
<polygon fill="#d3d3d3" stroke="transparent" points="0,0 0,-658 354.5176,-658 354.5176,0 0,0"/>
<g id="clust1" class="cluster">
<title>cluster_focus</title>
<polygon fill="#e6ecfa" stroke="#000000" stroke-width=".5" points="0,-8 0,-650 346.5176,-650 346.5176,-8 0,-8"/>
<text text-anchor="middle" x="173.2588" y="-629.8" font-family="Arial" font-size="18.00" fill="#000000">transport</text>
</g>
<g id="clust5" class="cluster">
<title>cluster_github.com/go&#45;i2p/common/router_info.RouterInfo</title>
<g id="a_clust5"><a xlink:title="type: github.com/go&#45;i2p/common/router_info.RouterInfo">
<path fill="#eed8ae" stroke="#000000" stroke-width=".5" d="M238.4341,-532C238.4341,-532 317.4117,-532 317.4117,-532 323.4117,-532 329.4117,-538 329.4117,-544 329.4117,-544 329.4117,-598 329.4117,-598 329.4117,-604 323.4117,-610 317.4117,-610 317.4117,-610 238.4341,-610 238.4341,-610 232.4341,-610 226.4341,-604 226.4341,-598 226.4341,-598 226.4341,-544 226.4341,-544 226.4341,-538 232.4341,-532 238.4341,-532"/>
<text text-anchor="middle" x="277.9229" y="-540.5" font-family="Arial" font-size="15.00" fill="#222222">(RouterInfo)</text>
</a>
</g>
</g>
<g id="clust4" class="cluster">
<title>cluster_*github.com/sirupsen/logrus.Logger</title>
<g id="a_clust4"><a xlink:title="type: *github.com/sirupsen/logrus.Logger">
<path fill="#eed8ae" stroke="#000000" stroke-width=".5" d="M251.2623,-151C251.2623,-151 305.5835,-151 305.5835,-151 311.5835,-151 317.5835,-157 317.5835,-163 317.5835,-163 317.5835,-217 317.5835,-217 317.5835,-223 311.5835,-229 305.5835,-229 305.5835,-229 251.2623,-229 251.2623,-229 245.2623,-229 239.2623,-223 239.2623,-217 239.2623,-217 239.2623,-163 239.2623,-163 239.2623,-157 245.2623,-151 251.2623,-151"/>
<text text-anchor="middle" x="278.4229" y="-159.5" font-family="Arial" font-size="15.00" fill="#222222">(*Logger)</text>
</a>
</g>
</g>
<g id="clust3" class="cluster">
<title>cluster_*github.com/go&#45;i2p/logger.Logger</title>
<g id="a_clust3"><a xlink:title="type: *github.com/go&#45;i2p/logger.Logger">
<path fill="#eed8ae" stroke="#000000" stroke-width=".5" d="M241.1578,-262C241.1578,-262 314.688,-262 314.688,-262 320.688,-262 326.688,-268 326.688,-274 326.688,-274 326.688,-511 326.688,-511 326.688,-517 320.688,-523 314.688,-523 314.688,-523 241.1578,-523 241.1578,-523 235.1578,-523 229.1578,-517 229.1578,-511 229.1578,-511 229.1578,-274 229.1578,-274 229.1578,-268 235.1578,-262 241.1578,-262"/>
<text text-anchor="middle" x="277.9229" y="-270.5" font-family="Arial" font-size="15.00" fill="#222222">(*Logger)</text>
</a>
</g>
</g>
<g id="clust2" class="cluster">
<title>cluster_*github.com/go&#45;i2p/go&#45;i2p/lib/transport.TransportMuxer</title>
<g id="a_clust2"><a xlink:title="type: *github.com/go&#45;i2p/go&#45;i2p/lib/transport.TransportMuxer">
<path fill="#b0c4de" stroke="#000000" stroke-width=".5" d="M20,-160C20,-160 133.3282,-160 133.3282,-160 139.3282,-160 145.3282,-166 145.3282,-172 145.3282,-172 145.3282,-470 145.3282,-470 145.3282,-476 139.3282,-482 133.3282,-482 133.3282,-482 20,-482 20,-482 14,-482 8,-476 8,-470 8,-470 8,-172 8,-172 8,-166 14,-160 20,-160"/>
<text text-anchor="middle" x="76.6641" y="-168.5" font-family="Arial" font-size="15.00" fill="#222222">(*TransportMuxer)</text>
</a>
</g>
</g>
<!-- github.com/go&#45;i2p/go&#45;i2p/lib/transport.Mux -->
<g id="node1" class="node">
<title>github.com/go&#45;i2p/go&#45;i2p/lib/transport.Mux</title>
<g id="a_node1"><a xlink:title="github.com/go&#45;i2p/go&#45;i2p/lib/transport.Mux | defined in multi.go:18&#10;at multi.go:19: calling [(*github.com/go&#45;i2p/logger.Logger).WithField]&#10;at multi.go:19: calling [(*github.com/sirupsen/logrus.Logger).Debug]&#10;at multi.go:22: calling [(*github.com/sirupsen/logrus.Logger).Debug]">
<path fill="#add8e6" stroke="#000000" stroke-width="1.5" d="M91.6641,-115C91.6641,-115 61.6641,-115 61.6641,-115 55.6641,-115 49.6641,-109 49.6641,-103 49.6641,-103 49.6641,-91 49.6641,-91 49.6641,-85 55.6641,-79 61.6641,-79 61.6641,-79 91.6641,-79 91.6641,-79 97.6641,-79 103.6641,-85 103.6641,-91 103.6641,-91 103.6641,-103 103.6641,-103 103.6641,-109 97.6641,-115 91.6641,-115"/>
<text text-anchor="middle" x="76.6641" y="-92.8" font-family="Verdana" font-size="14.00" fill="#000000">Mux</text>
</a>
</g>
</g>
<!-- (*github.com/go&#45;i2p/logger.Logger).WithField -->
<g id="node10" class="node">
<title>(*github.com/go&#45;i2p/logger.Logger).WithField</title>
<g id="a_node10"><a xlink:title="(*github.com/go&#45;i2p/logger.Logger).WithField | defined in log.go:54">
<path fill="#ffe4b5" stroke="#000000" stroke-width="1.5" d="M306.1974,-332C306.1974,-332 249.6484,-332 249.6484,-332 243.6484,-332 237.6484,-326 237.6484,-320 237.6484,-320 237.6484,-308 237.6484,-308 237.6484,-302 243.6484,-296 249.6484,-296 249.6484,-296 306.1974,-296 306.1974,-296 312.1974,-296 318.1974,-302 318.1974,-308 318.1974,-308 318.1974,-320 318.1974,-320 318.1974,-326 312.1974,-332 306.1974,-332"/>
<text text-anchor="middle" x="277.9229" y="-318.2" font-family="Verdana" font-size="14.00" fill="#000000">logger</text>
<text text-anchor="middle" x="277.9229" y="-301.4" font-family="Verdana" font-size="14.00" fill="#000000">WithField</text>
</a>
</g>
</g>
<!-- github.com/go&#45;i2p/go&#45;i2p/lib/transport.Mux&#45;&gt;(*github.com/go&#45;i2p/logger.Logger).WithField -->
<g id="edge1" class="edge">
<title>github.com/go&#45;i2p/go&#45;i2p/lib/transport.Mux&#45;&gt;(*github.com/go&#45;i2p/logger.Logger).WithField</title>
<g id="a_edge1"><a xlink:title="at multi.go:19: calling [(*github.com/go&#45;i2p/logger.Logger).WithField]">
<path fill="none" stroke="#8b4513" d="M100.8044,-115.231C114.4134,-125.9441 131.4209,-140.081 145.3282,-154 189.1004,-197.8088 233.789,-254.8073 258.4836,-287.6089"/>
<polygon fill="#8b4513" stroke="#8b4513" points="255.8164,-289.8864 264.6099,-295.7962 261.421,-285.6926 255.8164,-289.8864"/>
</a>
</g>
</g>
<!-- (*github.com/sirupsen/logrus.Logger).Debug -->
<g id="node14" class="node">
<title>(*github.com/sirupsen/logrus.Logger).Debug</title>
<g id="a_node14"><a xlink:title="(*github.com/sirupsen/logrus.Logger).Debug | defined in logger.go:221">
<path fill="#ffe4b5" stroke="#000000" stroke-width="1.5" d="M296.7449,-221C296.7449,-221 259.1009,-221 259.1009,-221 253.1009,-221 247.1009,-215 247.1009,-209 247.1009,-209 247.1009,-197 247.1009,-197 247.1009,-191 253.1009,-185 259.1009,-185 259.1009,-185 296.7449,-185 296.7449,-185 302.7449,-185 308.7449,-191 308.7449,-197 308.7449,-197 308.7449,-209 308.7449,-209 308.7449,-215 302.7449,-221 296.7449,-221"/>
<text text-anchor="middle" x="277.9229" y="-207.2" font-family="Verdana" font-size="14.00" fill="#000000">logrus</text>
<text text-anchor="middle" x="277.9229" y="-190.4" font-family="Verdana" font-size="14.00" fill="#000000">Debug</text>
</a>
</g>
</g>
<!-- github.com/go&#45;i2p/go&#45;i2p/lib/transport.Mux&#45;&gt;(*github.com/sirupsen/logrus.Logger).Debug -->
<g id="edge8" class="edge">
<title>github.com/go&#45;i2p/go&#45;i2p/lib/transport.Mux&#45;&gt;(*github.com/sirupsen/logrus.Logger).Debug</title>
<g id="a_edge8"><a xlink:title="at multi.go:19: calling [(*github.com/sirupsen/logrus.Logger).Debug]&#10;at multi.go:22: calling [(*github.com/sirupsen/logrus.Logger).Debug]">
<path fill="none" stroke="#8b4513" d="M104.0093,-86.8934C126.6731,-80.3849 158.7211,-75.6943 181.3282,-91 217.0024,-115.1526 186.3781,-151.0319 217.3282,-181 223.0381,-186.5287 230.2431,-190.683 237.6742,-193.8"/>
<polygon fill="#8b4513" stroke="#8b4513" points="236.5182,-197.1038 247.1125,-197.2188 238.9023,-190.5222 236.5182,-197.1038"/>
</a>
</g>
</g>
<!-- github.com/go&#45;i2p/go&#45;i2p/lib/transport.init -->
<g id="node2" class="node">
<title>github.com/go&#45;i2p/go&#45;i2p/lib/transport.init</title>
<g id="a_node2"><a xlink:title="github.com/go&#45;i2p/go&#45;i2p/lib/transport.init | defined in .:0&#10;at errors.go:6: calling [github.com/samber/oops.Errorf]&#10;at multi.go:8: calling [github.com/go&#45;i2p/logger.GetGoI2PLogger]">
<path fill="#add8e6" stroke="#000000" stroke-width=".5" d="M91.6641,-53C91.6641,-53 61.6641,-53 61.6641,-53 55.6641,-53 49.6641,-47 49.6641,-41 49.6641,-41 49.6641,-29 49.6641,-29 49.6641,-23 55.6641,-17 61.6641,-17 61.6641,-17 91.6641,-17 91.6641,-17 97.6641,-17 103.6641,-23 103.6641,-29 103.6641,-29 103.6641,-41 103.6641,-41 103.6641,-47 97.6641,-53 91.6641,-53"/>
<text text-anchor="middle" x="76.6641" y="-30.8" font-family="Verdana" font-size="14.00" fill="#000000">init</text>
</a>
</g>
</g>
<!-- github.com/samber/oops.Errorf -->
<g id="node3" class="node">
<title>github.com/samber/oops.Errorf</title>
<g id="a_node3"><a xlink:title="github.com/samber/oops.Errorf | defined in oops.go:34">
<path fill="#ffe4b5" stroke="#000000" stroke-width="1.5" d="M295.1182,-52C295.1182,-52 260.7276,-52 260.7276,-52 254.7276,-52 248.7276,-46 248.7276,-40 248.7276,-40 248.7276,-28 248.7276,-28 248.7276,-22 254.7276,-16 260.7276,-16 260.7276,-16 295.1182,-16 295.1182,-16 301.1182,-16 307.1182,-22 307.1182,-28 307.1182,-28 307.1182,-40 307.1182,-40 307.1182,-46 301.1182,-52 295.1182,-52"/>
<text text-anchor="middle" x="277.9229" y="-38.2" font-family="Verdana" font-size="14.00" fill="#000000">oops</text>
<text text-anchor="middle" x="277.9229" y="-21.4" font-family="Verdana" font-size="14.00" fill="#000000">Errorf</text>
</a>
</g>
</g>
<!-- github.com/go&#45;i2p/go&#45;i2p/lib/transport.init&#45;&gt;github.com/samber/oops.Errorf -->
<g id="edge12" class="edge">
<title>github.com/go&#45;i2p/go&#45;i2p/lib/transport.init&#45;&gt;github.com/samber/oops.Errorf</title>
<g id="a_edge12"><a xlink:title="at errors.go:6: calling [github.com/samber/oops.Errorf]">
<path fill="none" stroke="#8b4513" d="M103.8068,-34.8651C138.4765,-34.6929 198.7348,-34.3935 238.475,-34.196"/>
<polygon fill="#8b4513" stroke="#8b4513" points="238.6219,-37.6954 248.6043,-34.1457 238.587,-30.6955 238.6219,-37.6954"/>
</a>
</g>
</g>
<!-- github.com/go&#45;i2p/logger.GetGoI2PLogger -->
<g id="node4" class="node">
<title>github.com/go&#45;i2p/logger.GetGoI2PLogger</title>
<g id="a_node4"><a xlink:title="github.com/go&#45;i2p/logger.GetGoI2PLogger | defined in log.go:120">
<path fill="#ffe4b5" stroke="#000000" stroke-width="1.5" d="M326.6124,-113C326.6124,-113 229.2334,-113 229.2334,-113 223.2334,-113 217.2334,-107 217.2334,-101 217.2334,-101 217.2334,-89 217.2334,-89 217.2334,-83 223.2334,-77 229.2334,-77 229.2334,-77 326.6124,-77 326.6124,-77 332.6124,-77 338.6124,-83 338.6124,-89 338.6124,-89 338.6124,-101 338.6124,-101 338.6124,-107 332.6124,-113 326.6124,-113"/>
<text text-anchor="middle" x="277.9229" y="-99.2" font-family="Verdana" font-size="14.00" fill="#000000">logger</text>
<text text-anchor="middle" x="277.9229" y="-82.4" font-family="Verdana" font-size="14.00" fill="#000000">GetGoI2PLogger</text>
</a>
</g>
</g>
<!-- github.com/go&#45;i2p/go&#45;i2p/lib/transport.init&#45;&gt;github.com/go&#45;i2p/logger.GetGoI2PLogger -->
<g id="edge18" class="edge">
<title>github.com/go&#45;i2p/go&#45;i2p/lib/transport.init&#45;&gt;github.com/go&#45;i2p/logger.GetGoI2PLogger</title>
<g id="a_edge18"><a xlink:title="at multi.go:8: calling [github.com/go&#45;i2p/logger.GetGoI2PLogger]">
<path fill="none" stroke="#8b4513" d="M103.8574,-42.2126C125.0339,-47.9071 155.1327,-56.1709 181.3282,-64 191.7286,-67.1084 202.72,-70.5169 213.415,-73.9008"/>
<polygon fill="#8b4513" stroke="#8b4513" points="212.5376,-77.2945 223.1281,-76.9923 214.6606,-70.6242 212.5376,-77.2945"/>
</a>
</g>
</g>
<!-- (*github.com/go&#45;i2p/go&#45;i2p/lib/transport.TransportMuxer).GetSession -->
<g id="node5" class="node">
<title>(*github.com/go&#45;i2p/go&#45;i2p/lib/transport.TransportMuxer).GetSession</title>
<g id="a_node5"><a xlink:title="(*github.com/go&#45;i2p/go&#45;i2p/lib/transport.TransportMuxer).GetSession | defined in multi.go:74&#10;at multi.go:75: calling [(github.com/go&#45;i2p/common/router_info.RouterInfo).String]&#10;at multi.go:75: calling [(*github.com/go&#45;i2p/logger.Logger).WithField]&#10;at multi.go:79: calling [(*github.com/go&#45;i2p/logger.Logger).WithField]&#10;at multi.go:83: calling [(*github.com/go&#45;i2p/logger.Logger).WithField]&#10;at multi.go:89: calling [(*github.com/go&#45;i2p/logger.Logger).WithField]&#10;at multi.go:93: calling [(*github.com/go&#45;i2p/logger.Logger).Error]&#10;at multi.go:83: calling [(*github.com/go&#45;i2p/logger.Logger).Warn]&#10;at multi.go:75: calling [(*github.com/sirupsen/logrus.Logger).Debug]&#10;at multi.go:79: calling [(*github.com/sirupsen/logrus.Logger).Debug]&#10;at multi.go:89: calling [(*github.com/sirupsen/logrus.Logger).Debug]&#10;at multi.go:83: calling [(*github.com/go&#45;i2p/logger.Logger).WithError]">
<path fill="#add8e6" stroke="#000000" stroke-width="1.5" d="M108.1529,-474C108.1529,-474 45.1753,-474 45.1753,-474 39.1753,-474 33.1753,-468 33.1753,-462 33.1753,-462 33.1753,-450 33.1753,-450 33.1753,-444 39.1753,-438 45.1753,-438 45.1753,-438 108.1529,-438 108.1529,-438 114.1529,-438 120.1529,-444 120.1529,-450 120.1529,-450 120.1529,-462 120.1529,-462 120.1529,-468 114.1529,-474 108.1529,-474"/>
<text text-anchor="middle" x="76.6641" y="-451.8" font-family="Verdana" font-size="14.00" fill="#000000">GetSession</text>
</a>
</g>
</g>
<!-- (*github.com/go&#45;i2p/go&#45;i2p/lib/transport.TransportMuxer).GetSession&#45;&gt;(*github.com/go&#45;i2p/logger.Logger).WithField -->
<g id="edge6" class="edge">
<title>(*github.com/go&#45;i2p/go&#45;i2p/lib/transport.TransportMuxer).GetSession&#45;&gt;(*github.com/go&#45;i2p/logger.Logger).WithField</title>
<g id="a_edge6"><a xlink:title="at multi.go:75: calling [(*github.com/go&#45;i2p/logger.Logger).WithField]&#10;at multi.go:79: calling [(*github.com/go&#45;i2p/logger.Logger).WithField]&#10;at multi.go:83: calling [(*github.com/go&#45;i2p/logger.Logger).WithField]&#10;at multi.go:89: calling [(*github.com/go&#45;i2p/logger.Logger).WithField]">
<path fill="none" stroke="#8b4513" d="M102.8254,-474.12C125.66,-487.4811 158.6077,-500.5538 181.3282,-483 231.4877,-444.2469 177.6419,-394.4244 217.3282,-345 220.6194,-340.9012 224.5964,-337.2909 228.9216,-334.123"/>
<polygon fill="#8b4513" stroke="#8b4513" points="231.0555,-336.9122 237.5794,-328.5642 227.2735,-331.0218 231.0555,-336.9122"/>
</a>
</g>
</g>
<!-- (*github.com/go&#45;i2p/logger.Logger).Error -->
<g id="node11" class="node">
<title>(*github.com/go&#45;i2p/logger.Logger).Error</title>
<g id="a_node11"><a xlink:title="(*github.com/go&#45;i2p/logger.Logger).Error | defined in log.go:42">
<path fill="#ffe4b5" stroke="#000000" stroke-width="1.5" d="M295.6892,-515C295.6892,-515 260.1566,-515 260.1566,-515 254.1566,-515 248.1566,-509 248.1566,-503 248.1566,-503 248.1566,-491 248.1566,-491 248.1566,-485 254.1566,-479 260.1566,-479 260.1566,-479 295.6892,-479 295.6892,-479 301.6892,-479 307.6892,-485 307.6892,-491 307.6892,-491 307.6892,-503 307.6892,-503 307.6892,-509 301.6892,-515 295.6892,-515"/>
<text text-anchor="middle" x="277.9229" y="-501.2" font-family="Verdana" font-size="14.00" fill="#000000">logger</text>
<text text-anchor="middle" x="277.9229" y="-484.4" font-family="Verdana" font-size="14.00" fill="#000000">Error</text>
</a>
</g>
</g>
<!-- (*github.com/go&#45;i2p/go&#45;i2p/lib/transport.TransportMuxer).GetSession&#45;&gt;(*github.com/go&#45;i2p/logger.Logger).Error -->
<g id="edge7" class="edge">
<title>(*github.com/go&#45;i2p/go&#45;i2p/lib/transport.TransportMuxer).GetSession&#45;&gt;(*github.com/go&#45;i2p/logger.Logger).Error</title>
<g id="a_edge7"><a xlink:title="at multi.go:93: calling [(*github.com/go&#45;i2p/logger.Logger).Error]">
<path fill="none" stroke="#8b4513" d="M90.8272,-474.0599C108.9108,-495.4953 142.4337,-530.0846 180.3282,-544 197.4945,-550.3037 200.9017,-534.0367 217.3282,-526 224.1704,-522.6525 231.4654,-519.1254 238.5368,-515.7284"/>
<polygon fill="#8b4513" stroke="#8b4513" points="240.4712,-518.6826 247.9776,-511.2056 237.4469,-512.3696 240.4712,-518.6826"/>
</a>
</g>
</g>
<!-- (*github.com/go&#45;i2p/logger.Logger).WithError -->
<g id="node12" class="node">
<title>(*github.com/go&#45;i2p/logger.Logger).WithError</title>
<g id="a_node12"><a xlink:title="(*github.com/go&#45;i2p/logger.Logger).WithError | defined in log.go:66">
<path fill="#ffe4b5" stroke="#000000" stroke-width="1.5" d="M306.4544,-393C306.4544,-393 249.3914,-393 249.3914,-393 243.3914,-393 237.3914,-387 237.3914,-381 237.3914,-381 237.3914,-369 237.3914,-369 237.3914,-363 243.3914,-357 249.3914,-357 249.3914,-357 306.4544,-357 306.4544,-357 312.4544,-357 318.4544,-363 318.4544,-369 318.4544,-369 318.4544,-381 318.4544,-381 318.4544,-387 312.4544,-393 306.4544,-393"/>
<text text-anchor="middle" x="277.9229" y="-379.2" font-family="Verdana" font-size="14.00" fill="#000000">logger</text>
<text text-anchor="middle" x="277.9229" y="-362.4" font-family="Verdana" font-size="14.00" fill="#000000">WithError</text>
</a>
</g>
</g>
<!-- (*github.com/go&#45;i2p/go&#45;i2p/lib/transport.TransportMuxer).GetSession&#45;&gt;(*github.com/go&#45;i2p/logger.Logger).WithError -->
<g id="edge16" class="edge">
<title>(*github.com/go&#45;i2p/go&#45;i2p/lib/transport.TransportMuxer).GetSession&#45;&gt;(*github.com/go&#45;i2p/logger.Logger).WithError</title>
<g id="a_edge16"><a xlink:title="at multi.go:83: calling [(*github.com/go&#45;i2p/logger.Logger).WithError]">
<path fill="none" stroke="#8b4513" d="M91.9917,-474.2507C113.0992,-497.1417 151.8476,-530.9921 181.3282,-510 221.1723,-481.6285 185.2385,-442.9154 217.3282,-406 220.6823,-402.1415 224.6335,-398.7017 228.8841,-395.6494"/>
<polygon fill="#8b4513" stroke="#8b4513" points="230.801,-398.5781 237.349,-390.2489 227.0361,-392.6768 230.801,-398.5781"/>
</a>
</g>
</g>
<!-- (*github.com/go&#45;i2p/logger.Logger).Warn -->
<g id="node13" class="node">
<title>(*github.com/go&#45;i2p/logger.Logger).Warn</title>
<g id="a_node13"><a xlink:title="(*github.com/go&#45;i2p/logger.Logger).Warn | defined in log.go:30">
<path fill="#ffe4b5" stroke="#000000" stroke-width="1.5" d="M295.6892,-454C295.6892,-454 260.1566,-454 260.1566,-454 254.1566,-454 248.1566,-448 248.1566,-442 248.1566,-442 248.1566,-430 248.1566,-430 248.1566,-424 254.1566,-418 260.1566,-418 260.1566,-418 295.6892,-418 295.6892,-418 301.6892,-418 307.6892,-424 307.6892,-430 307.6892,-430 307.6892,-442 307.6892,-442 307.6892,-448 301.6892,-454 295.6892,-454"/>
<text text-anchor="middle" x="277.9229" y="-440.2" font-family="Verdana" font-size="14.00" fill="#000000">logger</text>
<text text-anchor="middle" x="277.9229" y="-423.4" font-family="Verdana" font-size="14.00" fill="#000000">Warn</text>
</a>
</g>
</g>
<!-- (*github.com/go&#45;i2p/go&#45;i2p/lib/transport.TransportMuxer).GetSession&#45;&gt;(*github.com/go&#45;i2p/logger.Logger).Warn -->
<g id="edge13" class="edge">
<title>(*github.com/go&#45;i2p/go&#45;i2p/lib/transport.TransportMuxer).GetSession&#45;&gt;(*github.com/go&#45;i2p/logger.Logger).Warn</title>
<g id="a_edge13"><a xlink:title="at multi.go:83: calling [(*github.com/go&#45;i2p/logger.Logger).Warn]">
<path fill="none" stroke="#8b4513" d="M86.8015,-474.3888C104.8764,-504.6905 144.2586,-559.6202 181.3282,-537 211.1916,-518.777 192.5642,-491.7113 217.3282,-467 223.5206,-460.8208 231.1989,-455.623 238.9858,-451.3557"/>
<polygon fill="#8b4513" stroke="#8b4513" points="240.7359,-454.3933 248.0944,-446.7707 237.5885,-448.1407 240.7359,-454.3933"/>
</a>
</g>
</g>
<!-- (*github.com/go&#45;i2p/go&#45;i2p/lib/transport.TransportMuxer).GetSession&#45;&gt;(*github.com/sirupsen/logrus.Logger).Debug -->
<g id="edge15" class="edge">
<title>(*github.com/go&#45;i2p/go&#45;i2p/lib/transport.TransportMuxer).GetSession&#45;&gt;(*github.com/sirupsen/logrus.Logger).Debug</title>
<g id="a_edge15"><a xlink:title="at multi.go:75: calling [(*github.com/sirupsen/logrus.Logger).Debug]&#10;at multi.go:79: calling [(*github.com/sirupsen/logrus.Logger).Debug]&#10;at multi.go:89: calling [(*github.com/sirupsen/logrus.Logger).Debug]">
<path fill="none" stroke="#8b4513" d="M120.4562,-442.7894C129.501,-438.5305 138.3767,-433.0304 145.3282,-426 203.0197,-367.6534 169.2269,-322.4749 217.3282,-256 224.8173,-245.6503 234.6835,-235.9345 244.2745,-227.7194"/>
<polygon fill="#8b4513" stroke="#8b4513" points="246.7104,-230.2476 252.208,-221.1908 242.2623,-224.8425 246.7104,-230.2476"/>
</a>
</g>
</g>
<!-- (github.com/go&#45;i2p/common/router_info.RouterInfo).String -->
<g id="node15" class="node">
<title>(github.com/go&#45;i2p/common/router_info.RouterInfo).String</title>
<g id="a_node15"><a xlink:title="(github.com/go&#45;i2p/common/router_info.RouterInfo).String | defined in router_info_struct.go:293">
<path fill="#ffe4b5" stroke="#000000" stroke-width="1.5" d="M309.4005,-602C309.4005,-602 246.4453,-602 246.4453,-602 240.4453,-602 234.4453,-596 234.4453,-590 234.4453,-590 234.4453,-578 234.4453,-578 234.4453,-572 240.4453,-566 246.4453,-566 246.4453,-566 309.4005,-566 309.4005,-566 315.4005,-566 321.4005,-572 321.4005,-578 321.4005,-578 321.4005,-590 321.4005,-590 321.4005,-596 315.4005,-602 309.4005,-602"/>
<text text-anchor="middle" x="277.9229" y="-588.2" font-family="Verdana" font-size="14.00" fill="#000000">router_info</text>
<text text-anchor="middle" x="277.9229" y="-571.4" font-family="Verdana" font-size="14.00" fill="#000000">String</text>
</a>
</g>
</g>
<!-- (*github.com/go&#45;i2p/go&#45;i2p/lib/transport.TransportMuxer).GetSession&#45;&gt;(github.com/go&#45;i2p/common/router_info.RouterInfo).String -->
<g id="edge5" class="edge">
<title>(*github.com/go&#45;i2p/go&#45;i2p/lib/transport.TransportMuxer).GetSession&#45;&gt;(github.com/go&#45;i2p/common/router_info.RouterInfo).String</title>
<g id="a_edge5"><a xlink:title="at multi.go:75: calling [(github.com/go&#45;i2p/common/router_info.RouterInfo).String]">
<path fill="none" stroke="#8b4513" d="M92.1396,-474.1835C111.013,-495.3277 144.8151,-530.0039 180.3282,-551 193.8421,-558.9897 209.562,-565.38 224.3866,-570.3284"/>
<polygon fill="#8b4513" stroke="#8b4513" points="223.3765,-573.6798 233.9669,-573.3743 225.4974,-567.0089 223.3765,-573.6798"/>
</a>
</g>
</g>
<!-- (*github.com/go&#45;i2p/go&#45;i2p/lib/transport.TransportMuxer).Compatible -->
<g id="node6" class="node">
<title>(*github.com/go&#45;i2p/go&#45;i2p/lib/transport.TransportMuxer).Compatible</title>
<g id="a_node6"><a xlink:title="(*github.com/go&#45;i2p/go&#45;i2p/lib/transport.TransportMuxer).Compatible | defined in multi.go:100&#10;at multi.go:101: calling [(github.com/go&#45;i2p/common/router_info.RouterInfo).String]&#10;at multi.go:101: calling [(*github.com/go&#45;i2p/logger.Logger).WithField]&#10;at multi.go:104: calling [(*github.com/go&#45;i2p/logger.Logger).WithField]&#10;at multi.go:101: calling [(*github.com/sirupsen/logrus.Logger).Debug]&#10;at multi.go:109: calling [(*github.com/sirupsen/logrus.Logger).Debug]&#10;at multi.go:104: calling [(*github.com/sirupsen/logrus.Logger).Debug]">
<path fill="#add8e6" stroke="#000000" stroke-width="1.5" d="M109.4929,-352C109.4929,-352 43.8353,-352 43.8353,-352 37.8353,-352 31.8353,-346 31.8353,-340 31.8353,-340 31.8353,-328 31.8353,-328 31.8353,-322 37.8353,-316 43.8353,-316 43.8353,-316 109.4929,-316 109.4929,-316 115.4929,-316 121.4929,-322 121.4929,-328 121.4929,-328 121.4929,-340 121.4929,-340 121.4929,-346 115.4929,-352 109.4929,-352"/>
<text text-anchor="middle" x="76.6641" y="-329.8" font-family="Verdana" font-size="14.00" fill="#000000">Compatible</text>
</a>
</g>
</g>
<!-- (*github.com/go&#45;i2p/go&#45;i2p/lib/transport.TransportMuxer).Compatible&#45;&gt;(*github.com/go&#45;i2p/logger.Logger).WithField -->
<g id="edge22" class="edge">
<title>(*github.com/go&#45;i2p/go&#45;i2p/lib/transport.TransportMuxer).Compatible&#45;&gt;(*github.com/go&#45;i2p/logger.Logger).WithField</title>
<g id="a_edge22"><a xlink:title="at multi.go:101: calling [(*github.com/go&#45;i2p/logger.Logger).WithField]&#10;at multi.go:104: calling [(*github.com/go&#45;i2p/logger.Logger).WithField]">
<path fill="none" stroke="#8b4513" d="M121.33,-329.5614C152.6789,-326.4461 194.6527,-322.2749 227.2529,-319.0353"/>
<polygon fill="#8b4513" stroke="#8b4513" points="227.8778,-322.4905 237.4826,-318.0187 227.1855,-315.5249 227.8778,-322.4905"/>
</a>
</g>
</g>
<!-- (*github.com/go&#45;i2p/go&#45;i2p/lib/transport.TransportMuxer).Compatible&#45;&gt;(*github.com/sirupsen/logrus.Logger).Debug -->
<g id="edge23" class="edge">
<title>(*github.com/go&#45;i2p/go&#45;i2p/lib/transport.TransportMuxer).Compatible&#45;&gt;(*github.com/sirupsen/logrus.Logger).Debug</title>
<g id="a_edge23"><a xlink:title="at multi.go:101: calling [(*github.com/sirupsen/logrus.Logger).Debug]&#10;at multi.go:109: calling [(*github.com/sirupsen/logrus.Logger).Debug]&#10;at multi.go:104: calling [(*github.com/sirupsen/logrus.Logger).Debug]">
<path fill="none" stroke="#8b4513" d="M121.3937,-316.3117C129.5302,-312.5769 137.8143,-308.417 145.3282,-304 183.5957,-281.5045 223.6114,-249.7035 249.54,-227.8261"/>
<polygon fill="#8b4513" stroke="#8b4513" points="252.0988,-230.2443 257.4433,-221.0962 247.5605,-224.9147 252.0988,-230.2443"/>
</a>
</g>
</g>
<!-- (*github.com/go&#45;i2p/go&#45;i2p/lib/transport.TransportMuxer).Compatible&#45;&gt;(github.com/go&#45;i2p/common/router_info.RouterInfo).String -->
<g id="edge21" class="edge">
<title>(*github.com/go&#45;i2p/go&#45;i2p/lib/transport.TransportMuxer).Compatible&#45;&gt;(github.com/go&#45;i2p/common/router_info.RouterInfo).String</title>
<g id="a_edge21"><a xlink:title="at multi.go:101: calling [(github.com/go&#45;i2p/common/router_info.RouterInfo).String]">
<path fill="none" stroke="#8b4513" d="M121.4663,-348.4718C130.1426,-352.7768 138.6119,-358.2136 145.3282,-365 201.3235,-421.5801 170.8345,-464.3848 217.3282,-529 225.2507,-540.0105 235.6922,-550.4584 245.6718,-559.2318"/>
<polygon fill="#8b4513" stroke="#8b4513" points="243.6289,-562.0885 253.5192,-565.8877 248.1568,-556.7501 243.6289,-562.0885"/>
</a>
</g>
</g>
<!-- (*github.com/go&#45;i2p/go&#45;i2p/lib/transport.TransportMuxer).SetIdentity -->
<g id="node7" class="node">
<title>(*github.com/go&#45;i2p/go&#45;i2p/lib/transport.TransportMuxer).SetIdentity</title>
<g id="a_node7"><a xlink:title="(*github.com/go&#45;i2p/go&#45;i2p/lib/transport.TransportMuxer).SetIdentity | defined in multi.go:27&#10;at multi.go:28: calling [(*github.com/go&#45;i2p/logger.Logger).WithField]&#10;at multi.go:32: calling [(*github.com/go&#45;i2p/logger.Logger).WithField]&#10;at multi.go:36: calling [(*github.com/go&#45;i2p/logger.Logger).WithField]&#10;at multi.go:28: calling [(*github.com/sirupsen/logrus.Logger).Debug]&#10;at multi.go:38: calling [(*github.com/sirupsen/logrus.Logger).Debug]&#10;at multi.go:36: calling [(*github.com/sirupsen/logrus.Logger).Debug]&#10;at multi.go:32: calling [(*github.com/go&#45;i2p/logger.Logger).Error]&#10;at multi.go:32: calling [(*github.com/go&#45;i2p/logger.Logger).WithError]">
<path fill="#add8e6" stroke="#000000" stroke-width="1.5" d="M107.6,-413C107.6,-413 45.7282,-413 45.7282,-413 39.7282,-413 33.7282,-407 33.7282,-401 33.7282,-401 33.7282,-389 33.7282,-389 33.7282,-383 39.7282,-377 45.7282,-377 45.7282,-377 107.6,-377 107.6,-377 113.6,-377 119.6,-383 119.6,-389 119.6,-389 119.6,-401 119.6,-401 119.6,-407 113.6,-413 107.6,-413"/>
<text text-anchor="middle" x="76.6641" y="-390.8" font-family="Verdana" font-size="14.00" fill="#000000">SetIdentity</text>
</a>
</g>
</g>
<!-- (*github.com/go&#45;i2p/go&#45;i2p/lib/transport.TransportMuxer).SetIdentity&#45;&gt;(*github.com/go&#45;i2p/logger.Logger).WithField -->
<g id="edge2" class="edge">
<title>(*github.com/go&#45;i2p/go&#45;i2p/lib/transport.TransportMuxer).SetIdentity&#45;&gt;(*github.com/go&#45;i2p/logger.Logger).WithField</title>
<g id="a_edge2"><a xlink:title="at multi.go:28: calling [(*github.com/go&#45;i2p/logger.Logger).WithField]&#10;at multi.go:32: calling [(*github.com/go&#45;i2p/logger.Logger).WithField]&#10;at multi.go:36: calling [(*github.com/go&#45;i2p/logger.Logger).WithField]">
<path fill="none" stroke="#8b4513" d="M119.4385,-391.7597C139.0219,-389.0556 162.0961,-384.0958 181.3282,-375 200.156,-366.0954 199.9505,-356.4802 217.3282,-345 221.5339,-342.2216 226.0204,-339.5084 230.5773,-336.9159"/>
<polygon fill="#8b4513" stroke="#8b4513" points="232.2866,-339.9704 239.3722,-332.0935 228.921,-333.8325 232.2866,-339.9704"/>
</a>
</g>
</g>
<!-- (*github.com/go&#45;i2p/go&#45;i2p/lib/transport.TransportMuxer).SetIdentity&#45;&gt;(*github.com/go&#45;i2p/logger.Logger).Error -->
<g id="edge10" class="edge">
<title>(*github.com/go&#45;i2p/go&#45;i2p/lib/transport.TransportMuxer).SetIdentity&#45;&gt;(*github.com/go&#45;i2p/logger.Logger).Error</title>
<g id="a_edge10"><a xlink:title="at multi.go:32: calling [(*github.com/go&#45;i2p/logger.Logger).Error]">
<path fill="none" stroke="#8b4513" d="M118.3542,-413.0689C127.3264,-417.1665 136.7027,-421.6092 145.3282,-426 178.1454,-442.7057 184.8138,-449.7123 217.3282,-467 224.0976,-470.5993 231.357,-474.3147 238.4157,-477.8527"/>
<polygon fill="#8b4513" stroke="#8b4513" points="237.339,-481.2258 247.852,-482.5398 240.453,-474.9566 237.339,-481.2258"/>
</a>
</g>
</g>
<!-- (*github.com/go&#45;i2p/go&#45;i2p/lib/transport.TransportMuxer).SetIdentity&#45;&gt;(*github.com/go&#45;i2p/logger.Logger).WithError -->
<g id="edge17" class="edge">
<title>(*github.com/go&#45;i2p/go&#45;i2p/lib/transport.TransportMuxer).SetIdentity&#45;&gt;(*github.com/go&#45;i2p/logger.Logger).WithError</title>
<g id="a_edge17"><a xlink:title="at multi.go:32: calling [(*github.com/go&#45;i2p/logger.Logger).WithError]">
<path fill="none" stroke="#8b4513" d="M119.5758,-401.7832C138.5612,-403.7776 161.1205,-404.7711 181.3282,-402 196.4662,-399.9241 212.5756,-396.099 227.2119,-391.9678"/>
<polygon fill="#8b4513" stroke="#8b4513" points="228.467,-395.2473 237.0794,-389.0765 226.4987,-388.5297 228.467,-395.2473"/>
</a>
</g>
</g>
<!-- (*github.com/go&#45;i2p/go&#45;i2p/lib/transport.TransportMuxer).SetIdentity&#45;&gt;(*github.com/sirupsen/logrus.Logger).Debug -->
<g id="edge9" class="edge">
<title>(*github.com/go&#45;i2p/go&#45;i2p/lib/transport.TransportMuxer).SetIdentity&#45;&gt;(*github.com/sirupsen/logrus.Logger).Debug</title>
<g id="a_edge9"><a xlink:title="at multi.go:28: calling [(*github.com/sirupsen/logrus.Logger).Debug]&#10;at multi.go:38: calling [(*github.com/sirupsen/logrus.Logger).Debug]&#10;at multi.go:36: calling [(*github.com/sirupsen/logrus.Logger).Debug]">
<path fill="none" stroke="#8b4513" d="M119.546,-380.803C128.638,-376.5953 137.763,-371.3653 145.3282,-365 189.7538,-327.6205 179.1342,-299.7273 217.3282,-256 226.1065,-245.9499 236.7654,-236.0243 246.6812,-227.5281"/>
<polygon fill="#8b4513" stroke="#8b4513" points="249.0032,-230.1488 254.424,-221.0458 244.5096,-224.7815 249.0032,-230.1488"/>
</a>
</g>
</g>
<!-- (*github.com/go&#45;i2p/go&#45;i2p/lib/transport.TransportMuxer).Name -->
<g id="node8" class="node">
<title>(*github.com/go&#45;i2p/go&#45;i2p/lib/transport.TransportMuxer).Name</title>
<g id="a_node8"><a xlink:title="(*github.com/go&#45;i2p/go&#45;i2p/lib/transport.TransportMuxer).Name | defined in multi.go:59&#10;at multi.go:60: calling [(*github.com/sirupsen/logrus.Logger).Debug]&#10;at multi.go:67: calling [(*github.com/sirupsen/logrus.Logger).Debug]&#10;at multi.go:67: calling [(*github.com/go&#45;i2p/logger.Logger).WithField]">
<path fill="#add8e6" stroke="#000000" stroke-width="1.5" d="M93.5921,-230C93.5921,-230 59.7361,-230 59.7361,-230 53.7361,-230 47.7361,-224 47.7361,-218 47.7361,-218 47.7361,-206 47.7361,-206 47.7361,-200 53.7361,-194 59.7361,-194 59.7361,-194 93.5921,-194 93.5921,-194 99.5921,-194 105.5921,-200 105.5921,-206 105.5921,-206 105.5921,-218 105.5921,-218 105.5921,-224 99.5921,-230 93.5921,-230"/>
<text text-anchor="middle" x="76.6641" y="-207.8" font-family="Verdana" font-size="14.00" fill="#000000">Name</text>
</a>
</g>
</g>
<!-- (*github.com/go&#45;i2p/go&#45;i2p/lib/transport.TransportMuxer).Name&#45;&gt;(*github.com/go&#45;i2p/logger.Logger).WithField -->
<g id="edge14" class="edge">
<title>(*github.com/go&#45;i2p/go&#45;i2p/lib/transport.TransportMuxer).Name&#45;&gt;(*github.com/go&#45;i2p/logger.Logger).WithField</title>
<g id="a_edge14"><a xlink:title="at multi.go:67: calling [(*github.com/go&#45;i2p/logger.Logger).WithField]">
<path fill="none" stroke="#8b4513" d="M105.497,-208.6804C127.2778,-207.3881 157.4036,-208.2605 181.3282,-219 214.246,-233.7764 242.3979,-264.956 259.6758,-287.5744"/>
<polygon fill="#8b4513" stroke="#8b4513" points="256.9856,-289.8228 265.7525,-295.7719 262.609,-285.6541 256.9856,-289.8228"/>
</a>
</g>
</g>
<!-- (*github.com/go&#45;i2p/go&#45;i2p/lib/transport.TransportMuxer).Name&#45;&gt;(*github.com/sirupsen/logrus.Logger).Debug -->
<g id="edge11" class="edge">
<title>(*github.com/go&#45;i2p/go&#45;i2p/lib/transport.TransportMuxer).Name&#45;&gt;(*github.com/sirupsen/logrus.Logger).Debug</title>
<g id="a_edge11"><a xlink:title="at multi.go:60: calling [(*github.com/sirupsen/logrus.Logger).Debug]&#10;at multi.go:67: calling [(*github.com/sirupsen/logrus.Logger).Debug]">
<path fill="none" stroke="#8b4513" d="M105.4695,-206.8342C118.4736,-203.5226 133.5283,-198.2456 145.3282,-190 166.0971,-175.487 157.5674,-156.1319 180.3282,-145 200.939,-134.9196 197.9727,-168.68 217.3282,-181 223.5596,-184.9663 230.6055,-188.3498 237.6317,-191.1873"/>
<polygon fill="#8b4513" stroke="#8b4513" points="236.5296,-194.5117 247.1224,-194.7217 238.9726,-187.9518 236.5296,-194.5117"/>
</a>
</g>
</g>
<!-- (*github.com/go&#45;i2p/go&#45;i2p/lib/transport.TransportMuxer).Close -->
<g id="node9" class="node">
<title>(*github.com/go&#45;i2p/go&#45;i2p/lib/transport.TransportMuxer).Close</title>
<g id="a_node9"><a xlink:title="(*github.com/go&#45;i2p/go&#45;i2p/lib/transport.TransportMuxer).Close | defined in multi.go:43&#10;at multi.go:44: calling [(*github.com/sirupsen/logrus.Logger).Debug]&#10;at multi.go:54: calling [(*github.com/sirupsen/logrus.Logger).Debug]&#10;at multi.go:51: calling [(*github.com/sirupsen/logrus.Logger).Debug]&#10;at multi.go:49: calling [(*github.com/go&#45;i2p/logger.Logger).WithField]&#10;at multi.go:51: calling [(*github.com/go&#45;i2p/logger.Logger).WithField]&#10;at multi.go:49: calling [(*github.com/go&#45;i2p/logger.Logger).WithError]&#10;at multi.go:49: calling [(*github.com/go&#45;i2p/logger.Logger).Warn]">
<path fill="#add8e6" stroke="#000000" stroke-width="1.5" d="M92.5506,-291C92.5506,-291 60.7776,-291 60.7776,-291 54.7776,-291 48.7776,-285 48.7776,-279 48.7776,-279 48.7776,-267 48.7776,-267 48.7776,-261 54.7776,-255 60.7776,-255 60.7776,-255 92.5506,-255 92.5506,-255 98.5506,-255 104.5506,-261 104.5506,-267 104.5506,-267 104.5506,-279 104.5506,-279 104.5506,-285 98.5506,-291 92.5506,-291"/>
<text text-anchor="middle" x="76.6641" y="-268.8" font-family="Verdana" font-size="14.00" fill="#000000">Close</text>
</a>
</g>
</g>
<!-- (*github.com/go&#45;i2p/go&#45;i2p/lib/transport.TransportMuxer).Close&#45;&gt;(*github.com/go&#45;i2p/logger.Logger).WithField -->
<g id="edge4" class="edge">
<title>(*github.com/go&#45;i2p/go&#45;i2p/lib/transport.TransportMuxer).Close&#45;&gt;(*github.com/go&#45;i2p/logger.Logger).WithField</title>
<g id="a_edge4"><a xlink:title="at multi.go:49: calling [(*github.com/go&#45;i2p/logger.Logger).WithField]&#10;at multi.go:51: calling [(*github.com/go&#45;i2p/logger.Logger).WithField]">
<path fill="none" stroke="#8b4513" d="M104.8405,-260.9931C117.3003,-255.6055 132.0969,-249.1008 145.3282,-243 161.3966,-235.5911 164.8278,-219.6108 181.3282,-226 213.2642,-238.3661 241.1248,-266.7485 258.6113,-287.9578"/>
<polygon fill="#8b4513" stroke="#8b4513" points="256.0359,-290.3417 265.0118,-295.9706 261.5052,-285.9728 256.0359,-290.3417"/>
</a>
</g>
</g>
<!-- (*github.com/go&#45;i2p/go&#45;i2p/lib/transport.TransportMuxer).Close&#45;&gt;(*github.com/go&#45;i2p/logger.Logger).WithError -->
<g id="edge19" class="edge">
<title>(*github.com/go&#45;i2p/go&#45;i2p/lib/transport.TransportMuxer).Close&#45;&gt;(*github.com/go&#45;i2p/logger.Logger).WithError</title>
<g id="a_edge19"><a xlink:title="at multi.go:49: calling [(*github.com/go&#45;i2p/logger.Logger).WithError]">
<path fill="none" stroke="#8b4513" d="M104.7561,-257.0835C127.2658,-246.6614 158.714,-237.5652 181.3282,-253 217.5941,-277.7525 187.6557,-312.6357 217.3282,-345 220.6253,-348.5962 224.449,-351.8154 228.5414,-354.6853"/>
<polygon fill="#8b4513" stroke="#8b4513" points="226.8965,-357.784 237.2363,-360.0944 230.5941,-351.8402 226.8965,-357.784"/>
</a>
</g>
</g>
<!-- (*github.com/go&#45;i2p/go&#45;i2p/lib/transport.TransportMuxer).Close&#45;&gt;(*github.com/go&#45;i2p/logger.Logger).Warn -->
<g id="edge20" class="edge">
<title>(*github.com/go&#45;i2p/go&#45;i2p/lib/transport.TransportMuxer).Close&#45;&gt;(*github.com/go&#45;i2p/logger.Logger).Warn</title>
<g id="a_edge20"><a xlink:title="at multi.go:49: calling [(*github.com/go&#45;i2p/logger.Logger).Warn]">
<path fill="none" stroke="#8b4513" d="M104.6062,-283.5887C117.4286,-288.9514 132.5796,-296.0178 145.3282,-304 162.9808,-315.0527 168.3971,-317.6732 181.3282,-334 203.5411,-362.0461 191.9803,-380.7516 217.3282,-406 223.4852,-412.1328 231.1486,-417.2275 238.9322,-421.3715"/>
<polygon fill="#8b4513" stroke="#8b4513" points="237.5183,-424.5758 248.0417,-425.8047 240.5816,-418.2816 237.5183,-424.5758"/>
</a>
</g>
</g>
<!-- (*github.com/go&#45;i2p/go&#45;i2p/lib/transport.TransportMuxer).Close&#45;&gt;(*github.com/sirupsen/logrus.Logger).Debug -->
<g id="edge3" class="edge">
<title>(*github.com/go&#45;i2p/go&#45;i2p/lib/transport.TransportMuxer).Close&#45;&gt;(*github.com/sirupsen/logrus.Logger).Debug</title>
<g id="a_edge3"><a xlink:title="at multi.go:44: calling [(*github.com/sirupsen/logrus.Logger).Debug]&#10;at multi.go:54: calling [(*github.com/sirupsen/logrus.Logger).Debug]&#10;at multi.go:51: calling [(*github.com/sirupsen/logrus.Logger).Debug]">
<path fill="none" stroke="#8b4513" d="M104.6361,-262.1895C117.3252,-256.9303 132.3599,-250.1944 145.3282,-243 161.8216,-233.8501 162.8248,-226.0274 180.3282,-219 198.1762,-211.8343 219.0905,-207.8761 236.9705,-205.6904"/>
<polygon fill="#8b4513" stroke="#8b4513" points="237.5344,-209.15 247.1012,-204.5975 236.7835,-202.1903 237.5344,-209.15"/>
</a>
</g>
</g>
</g>
</svg>
