<?xml version="1.0" encoding="UTF-8" standalone="no"?>
<!DOCTYPE svg PUBLIC "-//W3C//DTD SVG 1.1//EN"
 "http://www.w3.org/Graphics/SVG/1.1/DTD/svg11.dtd">
<!-- Generated by graphviz version 2.40.1 (20161225.0304)
 -->
<!-- Title: gocallvis Pages: 1 -->
<svg width="301pt" height="270pt"
 viewBox="0.00 0.00 301.42 270.00" xmlns="http://www.w3.org/2000/svg" xmlns:xlink="http://www.w3.org/1999/xlink">
<g id="graph0" class="graph" transform="scale(1 1) rotate(0) translate(0 270)">
<title>gocallvis</title>
<polygon fill="#d3d3d3" stroke="transparent" points="0,0 0,-270 301.4152,-270 301.4152,0 0,0"/>
<g id="clust1" class="cluster">
<title>cluster_focus</title>
<polygon fill="#e6ecfa" stroke="#000000" stroke-width=".5" points="8,-8 8,-262 293.4152,-262 293.4152,-8 8,-8"/>
<text text-anchor="middle" x="150.7076" y="-241.8" font-family="Arial" font-size="18.00" fill="#000000">exportable</text>
</g>
<g id="clust4" class="cluster">
<title>cluster_github.com/go&#45;i2p/go&#45;i2p/lib/common/router_identity</title>
<g id="a_clust4"><a xlink:href="/?f=github.com/go-i2p/go-i2p/lib/common/router_identity" xlink:title="package: github.com/go&#45;i2p/go&#45;i2p/lib/common/router_identity">
<polygon fill="#ffffe0" stroke="#000000" stroke-width=".8" points="135,-145 135,-224 285.4152,-224 285.4152,-145 135,-145"/>
<text text-anchor="middle" x="210.2076" y="-205.6" font-family="Tahoma bold" font-size="16.00" fill="#000000">router_identity</text>
</a>
</g>
</g>
<g id="clust2" class="cluster">
<title>cluster_github.com/go&#45;i2p/go&#45;i2p/lib/common/keys_and_cert</title>
<g id="a_clust2"><a xlink:href="/?f=github.com/go-i2p/go-i2p/lib/common/keys_and_cert" xlink:title="package: github.com/go&#45;i2p/go&#45;i2p/lib/common/keys_and_cert">
<polygon fill="#ffffe0" stroke="#000000" stroke-width=".8" points="144.6683,-16 144.6683,-137 275.7469,-137 275.7469,-16 144.6683,-16"/>
<text text-anchor="middle" x="210.2076" y="-118.6" font-family="Tahoma bold" font-size="16.00" fill="#000000">keys_and_cert</text>
</a>
</g>
</g>
<g id="clust3" class="cluster">
<title>cluster_*github.com/go&#45;i2p/go&#45;i2p/lib/common/keys_and_cert.KeysAndCert</title>
<g id="a_clust3"><a xlink:href="/?f=github.com/go-i2p/go-i2p/lib/common/keys_and_cert" xlink:title="type: *github.com/go&#45;i2p/go&#45;i2p/lib/common/keys_and_cert.KeysAndCert">
<path fill="#eed8ae" stroke="#000000" stroke-width=".5" d="M164.6683,-24C164.6683,-24 255.7469,-24 255.7469,-24 261.7469,-24 267.7469,-30 267.7469,-36 267.7469,-36 267.7469,-90 267.7469,-90 267.7469,-96 261.7469,-102 255.7469,-102 255.7469,-102 164.6683,-102 164.6683,-102 158.6683,-102 152.6683,-96 152.6683,-90 152.6683,-90 152.6683,-36 152.6683,-36 152.6683,-30 158.6683,-24 164.6683,-24"/>
<text text-anchor="middle" x="210.2076" y="-32.5" font-family="Tahoma bold" font-size="15.00" fill="#222222">(*KeysAndCert)</text>
</a>
</g>
</g>
<!-- github.com/go&#45;i2p/go&#45;i2p/lib/common/fuzz/router_identity.Fuzz -->
<g id="node1" class="node">
<title>github.com/go&#45;i2p/go&#45;i2p/lib/common/fuzz/router_identity.Fuzz</title>
<g id="a_node1"><a xlink:title="github.com/go&#45;i2p/go&#45;i2p/lib/common/fuzz/router_identity.Fuzz | defined in fuzz.go:5&#10;at fuzz.go:6: calling [github.com/go&#45;i2p/go&#45;i2p/lib/common/router_identity.ReadRouterIdentity]&#10;at fuzz.go:7: calling [(*github.com/go&#45;i2p/go&#45;i2p/lib/common/keys_and_cert.KeysAndCert).Certificate]">
<path fill="#add8e6" stroke="#000000" stroke-width="1.5" d="M58,-124C58,-124 28,-124 28,-124 22,-124 16,-118 16,-112 16,-112 16,-100 16,-100 16,-94 22,-88 28,-88 28,-88 58,-88 58,-88 64,-88 70,-94 70,-100 70,-100 70,-112 70,-112 70,-118 64,-124 58,-124"/>
<text text-anchor="middle" x="43" y="-101.8" font-family="Verdana" font-size="14.00" fill="#000000">Fuzz</text>
</a>
</g>
</g>
<!-- (*github.com/go&#45;i2p/go&#45;i2p/lib/common/keys_and_cert.KeysAndCert).Certificate -->
<g id="node2" class="node">
<title>(*github.com/go&#45;i2p/go&#45;i2p/lib/common/keys_and_cert.KeysAndCert).Certificate</title>
<g id="a_node2"><a xlink:title="(*github.com/go&#45;i2p/go&#45;i2p/lib/common/keys_and_cert.KeysAndCert).Certificate | defined in keys_and_cert.go:136">
<path fill="#ffe4b5" stroke="#000000" stroke-width="1.5" d="M239.7862,-94C239.7862,-94 180.629,-94 180.629,-94 174.629,-94 168.629,-88 168.629,-82 168.629,-82 168.629,-70 168.629,-70 168.629,-64 174.629,-58 180.629,-58 180.629,-58 239.7862,-58 239.7862,-58 245.7862,-58 251.7862,-64 251.7862,-70 251.7862,-70 251.7862,-82 251.7862,-82 251.7862,-88 245.7862,-94 239.7862,-94"/>
<text text-anchor="middle" x="210.2076" y="-71.8" font-family="Verdana" font-size="14.00" fill="#000000">Certificate</text>
</a>
</g>
</g>
<!-- github.com/go&#45;i2p/go&#45;i2p/lib/common/fuzz/router_identity.Fuzz&#45;&gt;(*github.com/go&#45;i2p/go&#45;i2p/lib/common/keys_and_cert.KeysAndCert).Certificate -->
<g id="edge2" class="edge">
<title>github.com/go&#45;i2p/go&#45;i2p/lib/common/fuzz/router_identity.Fuzz&#45;&gt;(*github.com/go&#45;i2p/go&#45;i2p/lib/common/keys_and_cert.KeysAndCert).Certificate</title>
<g id="a_edge2"><a xlink:title="at fuzz.go:7: calling [(*github.com/go&#45;i2p/go&#45;i2p/lib/common/keys_and_cert.KeysAndCert).Certificate]">
<path fill="none" stroke="#8b4513" d="M70.2369,-101.1132C94.0774,-96.8358 129.3644,-90.5047 158.5427,-85.2696"/>
<polygon fill="#8b4513" stroke="#8b4513" points="159.3552,-88.6798 168.5799,-83.4687 158.1189,-81.7898 159.3552,-88.6798"/>
</a>
</g>
</g>
<!-- github.com/go&#45;i2p/go&#45;i2p/lib/common/router_identity.ReadRouterIdentity -->
<g id="node3" class="node">
<title>github.com/go&#45;i2p/go&#45;i2p/lib/common/router_identity.ReadRouterIdentity</title>
<g id="a_node3"><a xlink:title="github.com/go&#45;i2p/go&#45;i2p/lib/common/router_identity.ReadRouterIdentity | defined in router_identity.go:37">
<path fill="#ffe4b5" stroke="#000000" stroke-width="1.5" d="M265.6234,-189C265.6234,-189 154.7918,-189 154.7918,-189 148.7918,-189 142.7918,-183 142.7918,-177 142.7918,-177 142.7918,-165 142.7918,-165 142.7918,-159 148.7918,-153 154.7918,-153 154.7918,-153 265.6234,-153 265.6234,-153 271.6234,-153 277.6234,-159 277.6234,-165 277.6234,-165 277.6234,-177 277.6234,-177 277.6234,-183 271.6234,-189 265.6234,-189"/>
<text text-anchor="middle" x="210.2076" y="-166.8" font-family="Verdana" font-size="14.00" fill="#000000">ReadRouterIdentity</text>
</a>
</g>
</g>
<!-- github.com/go&#45;i2p/go&#45;i2p/lib/common/fuzz/router_identity.Fuzz&#45;&gt;github.com/go&#45;i2p/go&#45;i2p/lib/common/router_identity.ReadRouterIdentity -->
<g id="edge1" class="edge">
<title>github.com/go&#45;i2p/go&#45;i2p/lib/common/fuzz/router_identity.Fuzz&#45;&gt;github.com/go&#45;i2p/go&#45;i2p/lib/common/router_identity.ReadRouterIdentity</title>
<g id="a_edge1"><a xlink:title="at fuzz.go:6: calling [github.com/go&#45;i2p/go&#45;i2p/lib/common/router_identity.ReadRouterIdentity]">
<path fill="none" stroke="#8b4513" d="M70.2369,-116.588C92.9344,-125.4114 126.0071,-138.2681 154.3058,-149.2688"/>
<polygon fill="#8b4513" stroke="#8b4513" points="153.1091,-152.5587 163.6978,-152.9199 155.6454,-146.0344 153.1091,-152.5587"/>
</a>
</g>
</g>
</g>
</svg>
