<?xml version="1.0" encoding="UTF-8" standalone="no"?>
<!DOCTYPE svg PUBLIC "-//W3C//DTD SVG 1.1//EN"
 "http://www.w3.org/Graphics/SVG/1.1/DTD/svg11.dtd">
<!-- Generated by graphviz version 2.40.1 (20161225.0304)
 -->
<!-- Title: gocallvis Pages: 1 -->
<svg width="279pt" height="349pt"
 viewBox="0.00 0.00 278.84 349.00" xmlns="http://www.w3.org/2000/svg" xmlns:xlink="http://www.w3.org/1999/xlink">
<g id="graph0" class="graph" transform="scale(1 1) rotate(0) translate(0 349)">
<title>gocallvis</title>
<polygon fill="#d3d3d3" stroke="transparent" points="0,0 0,-349 278.8444,-349 278.8444,0 0,0"/>
<g id="clust1" class="cluster">
<title>cluster_focus</title>
<polygon fill="#e6ecfa" stroke="#000000" stroke-width=".5" points="8,-8 8,-341 270.8444,-341 270.8444,-8 8,-8"/>
<text text-anchor="middle" x="139.4222" y="-320.8" font-family="Arial" font-size="18.00" fill="#000000">exportable</text>
</g>
<g id="clust2" class="cluster">
<title>cluster_github.com/go&#45;i2p/go&#45;i2p/lib/common/certificate</title>
<g id="a_clust2"><a xlink:href="/?f=github.com/go-i2p/go-i2p/lib/common/certificate" xlink:title="package: github.com/go&#45;i2p/go&#45;i2p/lib/common/certificate">
<polygon fill="#ffffe0" stroke="#000000" stroke-width=".8" points="135,-16 135,-303 262.8444,-303 262.8444,-16 135,-16"/>
<text text-anchor="middle" x="198.9222" y="-284.6" font-family="Tahoma bold" font-size="16.00" fill="#000000">certificate</text>
</a>
</g>
</g>
<g id="clust3" class="cluster">
<title>cluster_*github.com/go&#45;i2p/go&#45;i2p/lib/common/certificate.Certificate</title>
<g id="a_clust3"><a xlink:href="/?f=github.com/go-i2p/go-i2p/lib/common/certificate" xlink:title="type: *github.com/go&#45;i2p/go&#45;i2p/lib/common/certificate.Certificate">
<path fill="#eed8ae" stroke="#000000" stroke-width=".5" d="M163.0933,-68C163.0933,-68 235.7511,-68 235.7511,-68 241.7511,-68 247.7511,-74 247.7511,-80 247.7511,-80 247.7511,-256 247.7511,-256 247.7511,-262 241.7511,-268 235.7511,-268 235.7511,-268 163.0933,-268 163.0933,-268 157.0933,-268 151.0933,-262 151.0933,-256 151.0933,-256 151.0933,-80 151.0933,-80 151.0933,-74 157.0933,-68 163.0933,-68"/>
<text text-anchor="middle" x="199.4222" y="-76.5" font-family="Tahoma bold" font-size="15.00" fill="#222222">(*Certificate)</text>
</a>
</g>
</g>
<!-- github.com/go&#45;i2p/go&#45;i2p/lib/common/fuzz/certificate.Fuzz -->
<g id="node1" class="node">
<title>github.com/go&#45;i2p/go&#45;i2p/lib/common/fuzz/certificate.Fuzz</title>
<g id="a_node1"><a xlink:title="github.com/go&#45;i2p/go&#45;i2p/lib/common/fuzz/certificate.Fuzz | defined in fuzz.go:5&#10;at fuzz.go:9: calling [(*github.com/go&#45;i2p/go&#45;i2p/lib/common/certificate.Certificate).Type]&#10;at fuzz.go:6: calling [github.com/go&#45;i2p/go&#45;i2p/lib/common/certificate.ReadCertificate]&#10;at fuzz.go:7: calling [(*github.com/go&#45;i2p/go&#45;i2p/lib/common/certificate.Certificate).Data]&#10;at fuzz.go:8: calling [(*github.com/go&#45;i2p/go&#45;i2p/lib/common/certificate.Certificate).Length]">
<path fill="#add8e6" stroke="#000000" stroke-width="1.5" d="M58,-168C58,-168 28,-168 28,-168 22,-168 16,-162 16,-156 16,-156 16,-144 16,-144 16,-138 22,-132 28,-132 28,-132 58,-132 58,-132 64,-132 70,-138 70,-144 70,-144 70,-156 70,-156 70,-162 64,-168 58,-168"/>
<text text-anchor="middle" x="43" y="-145.8" font-family="Verdana" font-size="14.00" fill="#000000">Fuzz</text>
</a>
</g>
</g>
<!-- github.com/go&#45;i2p/go&#45;i2p/lib/common/certificate.ReadCertificate -->
<g id="node2" class="node">
<title>github.com/go&#45;i2p/go&#45;i2p/lib/common/certificate.ReadCertificate</title>
<g id="a_node2"><a xlink:title="github.com/go&#45;i2p/go&#45;i2p/lib/common/certificate.ReadCertificate | defined in certificate.go:201">
<path fill="#ffe4b5" stroke="#000000" stroke-width="1.5" d="M242.7667,-60C242.7667,-60 155.0777,-60 155.0777,-60 149.0777,-60 143.0777,-54 143.0777,-48 143.0777,-48 143.0777,-36 143.0777,-36 143.0777,-30 149.0777,-24 155.0777,-24 155.0777,-24 242.7667,-24 242.7667,-24 248.7667,-24 254.7667,-30 254.7667,-36 254.7667,-36 254.7667,-48 254.7667,-48 254.7667,-54 248.7667,-60 242.7667,-60"/>
<text text-anchor="middle" x="198.9222" y="-37.8" font-family="Verdana" font-size="14.00" fill="#000000">ReadCertificate</text>
</a>
</g>
</g>
<!-- github.com/go&#45;i2p/go&#45;i2p/lib/common/fuzz/certificate.Fuzz&#45;&gt;github.com/go&#45;i2p/go&#45;i2p/lib/common/certificate.ReadCertificate -->
<g id="edge2" class="edge">
<title>github.com/go&#45;i2p/go&#45;i2p/lib/common/fuzz/certificate.Fuzz&#45;&gt;github.com/go&#45;i2p/go&#45;i2p/lib/common/certificate.ReadCertificate</title>
<g id="a_edge2"><a xlink:title="at fuzz.go:6: calling [github.com/go&#45;i2p/go&#45;i2p/lib/common/certificate.ReadCertificate]">
<path fill="none" stroke="#8b4513" d="M58.2008,-131.824C73.8343,-114.0833 99.7994,-87.1203 133.9843,-65.1785"/>
<polygon fill="#8b4513" stroke="#8b4513" points="136.1723,-67.9415 142.8512,-59.7169 132.5012,-61.9814 136.1723,-67.9415"/>
</a>
</g>
</g>
<!-- (*github.com/go&#45;i2p/go&#45;i2p/lib/common/certificate.Certificate).Data -->
<g id="node3" class="node">
<title>(*github.com/go&#45;i2p/go&#45;i2p/lib/common/certificate.Certificate).Data</title>
<g id="a_node3"><a xlink:title="(*github.com/go&#45;i2p/go&#45;i2p/lib/common/certificate.Certificate).Data | defined in certificate.go:134">
<path fill="#ffe4b5" stroke="#000000" stroke-width="1.5" d="M213.9222,-138C213.9222,-138 183.9222,-138 183.9222,-138 177.9222,-138 171.9222,-132 171.9222,-126 171.9222,-126 171.9222,-114 171.9222,-114 171.9222,-108 177.9222,-102 183.9222,-102 183.9222,-102 213.9222,-102 213.9222,-102 219.9222,-102 225.9222,-108 225.9222,-114 225.9222,-114 225.9222,-126 225.9222,-126 225.9222,-132 219.9222,-138 213.9222,-138"/>
<text text-anchor="middle" x="198.9222" y="-115.8" font-family="Verdana" font-size="14.00" fill="#000000">Data</text>
</a>
</g>
</g>
<!-- github.com/go&#45;i2p/go&#45;i2p/lib/common/fuzz/certificate.Fuzz&#45;&gt;(*github.com/go&#45;i2p/go&#45;i2p/lib/common/certificate.Certificate).Data -->
<g id="edge3" class="edge">
<title>github.com/go&#45;i2p/go&#45;i2p/lib/common/fuzz/certificate.Fuzz&#45;&gt;(*github.com/go&#45;i2p/go&#45;i2p/lib/common/certificate.Certificate).Data</title>
<g id="a_edge3"><a xlink:title="at fuzz.go:7: calling [(*github.com/go&#45;i2p/go&#45;i2p/lib/common/certificate.Certificate).Data]">
<path fill="none" stroke="#8b4513" d="M70.1596,-144.7744C95.5702,-139.8853 133.7344,-132.5424 161.9215,-127.1191"/>
<polygon fill="#8b4513" stroke="#8b4513" points="162.6542,-130.5424 171.8127,-125.216 161.3315,-123.6685 162.6542,-130.5424"/>
</a>
</g>
</g>
<!-- (*github.com/go&#45;i2p/go&#45;i2p/lib/common/certificate.Certificate).Length -->
<g id="node4" class="node">
<title>(*github.com/go&#45;i2p/go&#45;i2p/lib/common/certificate.Certificate).Length</title>
<g id="a_node4"><a xlink:title="(*github.com/go&#45;i2p/go&#45;i2p/lib/common/certificate.Certificate).Length | defined in certificate.go:125">
<path fill="#ffe4b5" stroke="#000000" stroke-width="1.5" d="M218.5809,-199C218.5809,-199 179.2635,-199 179.2635,-199 173.2635,-199 167.2635,-193 167.2635,-187 167.2635,-187 167.2635,-175 167.2635,-175 167.2635,-169 173.2635,-163 179.2635,-163 179.2635,-163 218.5809,-163 218.5809,-163 224.5809,-163 230.5809,-169 230.5809,-175 230.5809,-175 230.5809,-187 230.5809,-187 230.5809,-193 224.5809,-199 218.5809,-199"/>
<text text-anchor="middle" x="198.9222" y="-176.8" font-family="Verdana" font-size="14.00" fill="#000000">Length</text>
</a>
</g>
</g>
<!-- github.com/go&#45;i2p/go&#45;i2p/lib/common/fuzz/certificate.Fuzz&#45;&gt;(*github.com/go&#45;i2p/go&#45;i2p/lib/common/certificate.Certificate).Length -->
<g id="edge4" class="edge">
<title>github.com/go&#45;i2p/go&#45;i2p/lib/common/fuzz/certificate.Fuzz&#45;&gt;(*github.com/go&#45;i2p/go&#45;i2p/lib/common/certificate.Certificate).Length</title>
<g id="a_edge4"><a xlink:title="at fuzz.go:8: calling [(*github.com/go&#45;i2p/go&#45;i2p/lib/common/certificate.Certificate).Length]">
<path fill="none" stroke="#8b4513" d="M70.1596,-155.3998C94.1435,-160.1682 129.489,-167.1955 157.0834,-172.6817"/>
<polygon fill="#8b4513" stroke="#8b4513" points="156.7493,-176.1837 167.2398,-174.701 158.1143,-169.3181 156.7493,-176.1837"/>
</a>
</g>
</g>
<!-- (*github.com/go&#45;i2p/go&#45;i2p/lib/common/certificate.Certificate).Type -->
<g id="node5" class="node">
<title>(*github.com/go&#45;i2p/go&#45;i2p/lib/common/certificate.Certificate).Type</title>
<g id="a_node5"><a xlink:title="(*github.com/go&#45;i2p/go&#45;i2p/lib/common/certificate.Certificate).Type | defined in certificate.go:116">
<path fill="#ffe4b5" stroke="#000000" stroke-width="1.5" d="M213.9222,-260C213.9222,-260 183.9222,-260 183.9222,-260 177.9222,-260 171.9222,-254 171.9222,-248 171.9222,-248 171.9222,-236 171.9222,-236 171.9222,-230 177.9222,-224 183.9222,-224 183.9222,-224 213.9222,-224 213.9222,-224 219.9222,-224 225.9222,-230 225.9222,-236 225.9222,-236 225.9222,-248 225.9222,-248 225.9222,-254 219.9222,-260 213.9222,-260"/>
<text text-anchor="middle" x="198.9222" y="-237.8" font-family="Verdana" font-size="14.00" fill="#000000">Type</text>
</a>
</g>
</g>
<!-- github.com/go&#45;i2p/go&#45;i2p/lib/common/fuzz/certificate.Fuzz&#45;&gt;(*github.com/go&#45;i2p/go&#45;i2p/lib/common/certificate.Certificate).Type -->
<g id="edge1" class="edge">
<title>github.com/go&#45;i2p/go&#45;i2p/lib/common/fuzz/certificate.Fuzz&#45;&gt;(*github.com/go&#45;i2p/go&#45;i2p/lib/common/certificate.Certificate).Type</title>
<g id="a_edge1"><a xlink:title="at fuzz.go:9: calling [(*github.com/go&#45;i2p/go&#45;i2p/lib/common/certificate.Certificate).Type]">
<path fill="none" stroke="#8b4513" d="M67.7151,-168.1829C85.8672,-181.155 111.3771,-198.6026 135,-212 143.7057,-216.9373 153.3599,-221.7766 162.4721,-226.0783"/>
<polygon fill="#8b4513" stroke="#8b4513" points="161.1636,-229.3292 171.7093,-230.348 164.1007,-222.9752 161.1636,-229.3292"/>
</a>
</g>
</g>
</g>
</svg>
