<?xml version="1.0" encoding="UTF-8" standalone="no"?>
<!DOCTYPE svg PUBLIC "-//W3C//DTD SVG 1.1//EN"
 "http://www.w3.org/Graphics/SVG/1.1/DTD/svg11.dtd">
<!-- Generated by graphviz version 2.40.1 (20161225.0304)
 -->
<!-- Title: gocallvis Pages: 1 -->
<svg width="443pt" height="869pt"
 viewBox="0.00 0.00 443.23 869.00" xmlns="http://www.w3.org/2000/svg" xmlns:xlink="http://www.w3.org/1999/xlink">
<g id="graph0" class="graph" transform="scale(1 1) rotate(0) translate(0 869)">
<title>gocallvis</title>
<polygon fill="#d3d3d3" stroke="transparent" points="0,0 0,-869 443.2274,-869 443.2274,0 0,0"/>
<g id="clust1" class="cluster">
<title>cluster_focus</title>
<polygon fill="#e6ecfa" stroke="#000000" stroke-width=".5" points="8,-8 8,-861 435.2274,-861 435.2274,-8 8,-8"/>
<text text-anchor="middle" x="221.6137" y="-840.8" font-family="Arial" font-size="18.00" fill="#000000">router_identity</text>
</g>
<g id="clust7" class="cluster">
<title>cluster_github.com/sirupsen/logrus</title>
<g id="a_clust7"><a xlink:href="/?f=github.com/sirupsen/logrus" xlink:title="package: github.com/sirupsen/logrus">
<polygon fill="#ffffe0" stroke="#000000" stroke-width=".8" points="274.6607,-250 274.6607,-371 367.9819,-371 367.9819,-250 274.6607,-250"/>
<text text-anchor="middle" x="321.3213" y="-352.6" font-family="Tahoma bold" font-size="16.00" fill="#000000">logrus</text>
</a>
</g>
</g>
<g id="clust8" class="cluster">
<title>cluster_*github.com/sirupsen/logrus.Logger</title>
<g id="a_clust8"><a xlink:href="/?f=github.com/sirupsen/logrus" xlink:title="type: *github.com/sirupsen/logrus.Logger">
<path fill="#eed8ae" stroke="#000000" stroke-width=".5" d="M294.6607,-258C294.6607,-258 347.9819,-258 347.9819,-258 353.9819,-258 359.9819,-264 359.9819,-270 359.9819,-270 359.9819,-324 359.9819,-324 359.9819,-330 353.9819,-336 347.9819,-336 347.9819,-336 294.6607,-336 294.6607,-336 288.6607,-336 282.6607,-330 282.6607,-324 282.6607,-324 282.6607,-270 282.6607,-270 282.6607,-264 288.6607,-258 294.6607,-258"/>
<text text-anchor="middle" x="321.3213" y="-266.5" font-family="Tahoma bold" font-size="15.00" fill="#222222">(*Logger)</text>
</a>
</g>
</g>
<g id="clust5" class="cluster">
<title>cluster_github.com/go&#45;i2p/logger</title>
<g id="a_clust5"><a xlink:href="/?f=github.com/go-i2p/logger" xlink:title="package: github.com/go&#45;i2p/logger">
<polygon fill="#ffffe0" stroke="#000000" stroke-width=".8" points="252.7266,-527 252.7266,-823 389.916,-823 389.916,-527 252.7266,-527"/>
<text text-anchor="middle" x="321.3213" y="-804.6" font-family="Tahoma bold" font-size="16.00" fill="#000000">logger</text>
</a>
</g>
</g>
<g id="clust6" class="cluster">
<title>cluster_*github.com/go&#45;i2p/logger.Logger</title>
<g id="a_clust6"><a xlink:href="/?f=github.com/go-i2p/logger" xlink:title="type: *github.com/go&#45;i2p/logger.Logger">
<path fill="#eed8ae" stroke="#000000" stroke-width=".5" d="M282.2119,-535C282.2119,-535 360.4307,-535 360.4307,-535 366.4307,-535 372.4307,-541 372.4307,-547 372.4307,-547 372.4307,-723 372.4307,-723 372.4307,-729 366.4307,-735 360.4307,-735 360.4307,-735 282.2119,-735 282.2119,-735 276.2119,-735 270.2119,-729 270.2119,-723 270.2119,-723 270.2119,-547 270.2119,-547 270.2119,-541 276.2119,-535 282.2119,-535"/>
<text text-anchor="middle" x="321.3213" y="-543.5" font-family="Tahoma bold" font-size="15.00" fill="#222222">(*Logger)</text>
</a>
</g>
</g>
<g id="clust4" class="cluster">
<title>cluster_github.com/go&#45;i2p/go&#45;i2p/lib/common/keys_and_cert</title>
<g id="a_clust4"><a xlink:href="/?f=github.com/go-i2p/go-i2p/lib/common/keys_and_cert" xlink:title="package: github.com/go&#45;i2p/go&#45;i2p/lib/common/keys_and_cert">
<polygon fill="#ffffe0" stroke="#000000" stroke-width=".8" points="248.451,-379 248.451,-519 394.1916,-519 394.1916,-379 248.451,-379"/>
<text text-anchor="middle" x="321.3213" y="-500.6" font-family="Tahoma bold" font-size="16.00" fill="#000000">keys_and_cert</text>
</a>
</g>
</g>
<g id="clust2" class="cluster">
<title>cluster_github.com/go&#45;i2p/go&#45;i2p/lib/common/key_certificate</title>
<g id="a_clust2"><a xlink:href="/?f=github.com/go-i2p/go-i2p/lib/common/key_certificate" xlink:title="package: github.com/go&#45;i2p/go&#45;i2p/lib/common/key_certificate">
<polygon fill="#ffffe0" stroke="#000000" stroke-width=".8" points="215.4152,-16 215.4152,-242 427.2274,-242 427.2274,-16 215.4152,-16"/>
<text text-anchor="middle" x="321.3213" y="-223.6" font-family="Tahoma bold" font-size="16.00" fill="#000000">key_certificate</text>
</a>
</g>
</g>
<g id="clust3" class="cluster">
<title>cluster_github.com/go&#45;i2p/go&#45;i2p/lib/common/key_certificate.KeyCertificate</title>
<g id="a_clust3"><a xlink:href="/?f=github.com/go-i2p/go-i2p/lib/common/key_certificate" xlink:title="type: github.com/go&#45;i2p/go&#45;i2p/lib/common/key_certificate.KeyCertificate">
<path fill="#eed8ae" stroke="#000000" stroke-width=".5" d="M247.606,-68C247.606,-68 395.0366,-68 395.0366,-68 401.0366,-68 407.0366,-74 407.0366,-80 407.0366,-80 407.0366,-195 407.0366,-195 407.0366,-201 401.0366,-207 395.0366,-207 395.0366,-207 247.606,-207 247.606,-207 241.606,-207 235.606,-201 235.606,-195 235.606,-195 235.606,-80 235.606,-80 235.606,-74 241.606,-68 247.606,-68"/>
<text text-anchor="middle" x="321.3213" y="-76.5" font-family="Tahoma bold" font-size="15.00" fill="#222222">(KeyCertificate)</text>
</a>
</g>
</g>
<!-- github.com/go&#45;i2p/go&#45;i2p/lib/common/router_identity.init -->
<g id="node1" class="node">
<title>github.com/go&#45;i2p/go&#45;i2p/lib/common/router_identity.init</title>
<g id="a_node1"><a xlink:title="github.com/go&#45;i2p/go&#45;i2p/lib/common/router_identity.init | defined in .:0&#10;at router_identity.go:14: calling [github.com/go&#45;i2p/logger.GetGoI2PLogger]">
<path fill="#add8e6" stroke="#000000" stroke-width=".5" d="M98.2076,-788C98.2076,-788 68.2076,-788 68.2076,-788 62.2076,-788 56.2076,-782 56.2076,-776 56.2076,-776 56.2076,-764 56.2076,-764 56.2076,-758 62.2076,-752 68.2076,-752 68.2076,-752 98.2076,-752 98.2076,-752 104.2076,-752 110.2076,-758 110.2076,-764 110.2076,-764 110.2076,-776 110.2076,-776 110.2076,-782 104.2076,-788 98.2076,-788"/>
<text text-anchor="middle" x="83.2076" y="-765.8" font-family="Verdana" font-size="14.00" fill="#000000">init</text>
</a>
</g>
</g>
<!-- github.com/go&#45;i2p/logger.GetGoI2PLogger -->
<g id="node9" class="node">
<title>github.com/go&#45;i2p/logger.GetGoI2PLogger</title>
<g id="a_node9"><a xlink:title="github.com/go&#45;i2p/logger.GetGoI2PLogger | defined in log.go:120">
<path fill="#ffe4b5" stroke="#000000" stroke-width="1.5" d="M370.0108,-788C370.0108,-788 272.6318,-788 272.6318,-788 266.6318,-788 260.6318,-782 260.6318,-776 260.6318,-776 260.6318,-764 260.6318,-764 260.6318,-758 266.6318,-752 272.6318,-752 272.6318,-752 370.0108,-752 370.0108,-752 376.0108,-752 382.0108,-758 382.0108,-764 382.0108,-764 382.0108,-776 382.0108,-776 382.0108,-782 376.0108,-788 370.0108,-788"/>
<text text-anchor="middle" x="321.3213" y="-765.8" font-family="Verdana" font-size="14.00" fill="#000000">GetGoI2PLogger</text>
</a>
</g>
</g>
<!-- github.com/go&#45;i2p/go&#45;i2p/lib/common/router_identity.init&#45;&gt;github.com/go&#45;i2p/logger.GetGoI2PLogger -->
<g id="edge1" class="edge">
<title>github.com/go&#45;i2p/go&#45;i2p/lib/common/router_identity.init&#45;&gt;github.com/go&#45;i2p/logger.GetGoI2PLogger</title>
<g id="a_edge1"><a xlink:title="at router_identity.go:14: calling [github.com/go&#45;i2p/logger.GetGoI2PLogger]">
<path fill="none" stroke="#8b4513" d="M110.5223,-770C144.4368,-770 203.5523,-770 250.5669,-770"/>
<polygon fill="#8b4513" stroke="#8b4513" points="250.7058,-773.5001 260.7058,-770 250.7058,-766.5001 250.7058,-773.5001"/>
</a>
</g>
</g>
<!-- github.com/go&#45;i2p/go&#45;i2p/lib/common/router_identity.ReadRouterIdentity -->
<g id="node2" class="node">
<title>github.com/go&#45;i2p/go&#45;i2p/lib/common/router_identity.ReadRouterIdentity</title>
<g id="a_node2"><a xlink:title="github.com/go&#45;i2p/go&#45;i2p/lib/common/router_identity.ReadRouterIdentity | defined in router_identity.go:37&#10;at router_identity.go:43: calling [(*github.com/go&#45;i2p/logger.Logger).WithError]&#10;at router_identity.go:41: calling [github.com/go&#45;i2p/go&#45;i2p/lib/common/keys_and_cert.ReadKeysAndCert]&#10;at router_identity.go:38: calling [(*github.com/go&#45;i2p/logger.Logger).WithFields]&#10;at router_identity.go:49: calling [(*github.com/go&#45;i2p/logger.Logger).WithFields]&#10;at router_identity.go:40: calling [(*github.com/sirupsen/logrus.Logger).Debug]&#10;at router_identity.go:51: calling [(*github.com/sirupsen/logrus.Logger).Debug]&#10;at router_identity.go:43: calling [(*github.com/go&#45;i2p/logger.Logger).Error]">
<path fill="#add8e6" stroke="#000000" stroke-width="1.5" d="M138.6234,-605C138.6234,-605 27.7918,-605 27.7918,-605 21.7918,-605 15.7918,-599 15.7918,-593 15.7918,-593 15.7918,-581 15.7918,-581 15.7918,-575 21.7918,-569 27.7918,-569 27.7918,-569 138.6234,-569 138.6234,-569 144.6234,-569 150.6234,-575 150.6234,-581 150.6234,-581 150.6234,-593 150.6234,-593 150.6234,-599 144.6234,-605 138.6234,-605"/>
<text text-anchor="middle" x="83.2076" y="-582.8" font-family="Verdana" font-size="14.00" fill="#000000">ReadRouterIdentity</text>
</a>
</g>
</g>
<!-- github.com/go&#45;i2p/go&#45;i2p/lib/common/keys_and_cert.ReadKeysAndCert -->
<g id="node7" class="node">
<title>github.com/go&#45;i2p/go&#45;i2p/lib/common/keys_and_cert.ReadKeysAndCert</title>
<g id="a_node7"><a xlink:title="github.com/go&#45;i2p/go&#45;i2p/lib/common/keys_and_cert.ReadKeysAndCert | defined in keys_and_cert.go:142">
<path fill="#ffe4b5" stroke="#000000" stroke-width="1.5" d="M374.0622,-484C374.0622,-484 268.5804,-484 268.5804,-484 262.5804,-484 256.5804,-478 256.5804,-472 256.5804,-472 256.5804,-460 256.5804,-460 256.5804,-454 262.5804,-448 268.5804,-448 268.5804,-448 374.0622,-448 374.0622,-448 380.0622,-448 386.0622,-454 386.0622,-460 386.0622,-460 386.0622,-472 386.0622,-472 386.0622,-478 380.0622,-484 374.0622,-484"/>
<text text-anchor="middle" x="321.3213" y="-461.8" font-family="Verdana" font-size="14.00" fill="#000000">ReadKeysAndCert</text>
</a>
</g>
</g>
<!-- github.com/go&#45;i2p/go&#45;i2p/lib/common/router_identity.ReadRouterIdentity&#45;&gt;github.com/go&#45;i2p/go&#45;i2p/lib/common/keys_and_cert.ReadKeysAndCert -->
<g id="edge4" class="edge">
<title>github.com/go&#45;i2p/go&#45;i2p/lib/common/router_identity.ReadRouterIdentity&#45;&gt;github.com/go&#45;i2p/go&#45;i2p/lib/common/keys_and_cert.ReadKeysAndCert</title>
<g id="a_edge4"><a xlink:title="at router_identity.go:41: calling [github.com/go&#45;i2p/go&#45;i2p/lib/common/keys_and_cert.ReadKeysAndCert]">
<path fill="none" stroke="#8b4513" d="M119.918,-568.8261C139.9067,-558.894 165.0546,-546.3395 187.4152,-535 217.5646,-519.7107 251.4066,-502.2699 277.5258,-488.7483"/>
<polygon fill="#8b4513" stroke="#8b4513" points="279.1543,-491.8465 286.4237,-484.1389 275.9344,-485.631 279.1543,-491.8465"/>
</a>
</g>
</g>
<!-- (*github.com/go&#45;i2p/logger.Logger).WithFields -->
<g id="node10" class="node">
<title>(*github.com/go&#45;i2p/logger.Logger).WithFields</title>
<g id="a_node10"><a xlink:title="(*github.com/go&#45;i2p/logger.Logger).WithFields | defined in log.go:60">
<path fill="#ffe4b5" stroke="#000000" stroke-width="1.5" d="M352.5404,-605C352.5404,-605 290.1022,-605 290.1022,-605 284.1022,-605 278.1022,-599 278.1022,-593 278.1022,-593 278.1022,-581 278.1022,-581 278.1022,-575 284.1022,-569 290.1022,-569 290.1022,-569 352.5404,-569 352.5404,-569 358.5404,-569 364.5404,-575 364.5404,-581 364.5404,-581 364.5404,-593 364.5404,-593 364.5404,-599 358.5404,-605 352.5404,-605"/>
<text text-anchor="middle" x="321.3213" y="-582.8" font-family="Verdana" font-size="14.00" fill="#000000">WithFields</text>
</a>
</g>
</g>
<!-- github.com/go&#45;i2p/go&#45;i2p/lib/common/router_identity.ReadRouterIdentity&#45;&gt;(*github.com/go&#45;i2p/logger.Logger).WithFields -->
<g id="edge7" class="edge">
<title>github.com/go&#45;i2p/go&#45;i2p/lib/common/router_identity.ReadRouterIdentity&#45;&gt;(*github.com/go&#45;i2p/logger.Logger).WithFields</title>
<g id="a_edge7"><a xlink:title="at router_identity.go:38: calling [(*github.com/go&#45;i2p/logger.Logger).WithFields]&#10;at router_identity.go:49: calling [(*github.com/go&#45;i2p/logger.Logger).WithFields]">
<path fill="none" stroke="#8b4513" d="M150.4867,-587C187.5024,-587 232.8113,-587 267.4645,-587"/>
<polygon fill="#8b4513" stroke="#8b4513" points="267.8559,-590.5001 277.8558,-587 267.8558,-583.5001 267.8559,-590.5001"/>
</a>
</g>
</g>
<!-- (*github.com/go&#45;i2p/logger.Logger).WithError -->
<g id="node11" class="node">
<title>(*github.com/go&#45;i2p/logger.Logger).WithError</title>
<g id="a_node11"><a xlink:title="(*github.com/go&#45;i2p/logger.Logger).WithError | defined in log.go:66">
<path fill="#ffe4b5" stroke="#000000" stroke-width="1.5" d="M349.8528,-666C349.8528,-666 292.7898,-666 292.7898,-666 286.7898,-666 280.7898,-660 280.7898,-654 280.7898,-654 280.7898,-642 280.7898,-642 280.7898,-636 286.7898,-630 292.7898,-630 292.7898,-630 349.8528,-630 349.8528,-630 355.8528,-630 361.8528,-636 361.8528,-642 361.8528,-642 361.8528,-654 361.8528,-654 361.8528,-660 355.8528,-666 349.8528,-666"/>
<text text-anchor="middle" x="321.3213" y="-643.8" font-family="Verdana" font-size="14.00" fill="#000000">WithError</text>
</a>
</g>
</g>
<!-- github.com/go&#45;i2p/go&#45;i2p/lib/common/router_identity.ReadRouterIdentity&#45;&gt;(*github.com/go&#45;i2p/logger.Logger).WithError -->
<g id="edge2" class="edge">
<title>github.com/go&#45;i2p/go&#45;i2p/lib/common/router_identity.ReadRouterIdentity&#45;&gt;(*github.com/go&#45;i2p/logger.Logger).WithError</title>
<g id="a_edge2"><a xlink:title="at router_identity.go:43: calling [(*github.com/go&#45;i2p/logger.Logger).WithError]">
<path fill="none" stroke="#8b4513" d="M150.4867,-604.2356C188.6633,-614.0157 235.6615,-626.0557 270.6929,-635.03"/>
<polygon fill="#8b4513" stroke="#8b4513" points="270.1414,-638.5017 280.6972,-637.5929 271.8786,-631.7207 270.1414,-638.5017"/>
</a>
</g>
</g>
<!-- (*github.com/go&#45;i2p/logger.Logger).Error -->
<g id="node12" class="node">
<title>(*github.com/go&#45;i2p/logger.Logger).Error</title>
<g id="a_node12"><a xlink:title="(*github.com/go&#45;i2p/logger.Logger).Error | defined in log.go:42">
<path fill="#ffe4b5" stroke="#000000" stroke-width="1.5" d="M336.3213,-727C336.3213,-727 306.3213,-727 306.3213,-727 300.3213,-727 294.3213,-721 294.3213,-715 294.3213,-715 294.3213,-703 294.3213,-703 294.3213,-697 300.3213,-691 306.3213,-691 306.3213,-691 336.3213,-691 336.3213,-691 342.3213,-691 348.3213,-697 348.3213,-703 348.3213,-703 348.3213,-715 348.3213,-715 348.3213,-721 342.3213,-727 336.3213,-727"/>
<text text-anchor="middle" x="321.3213" y="-704.8" font-family="Verdana" font-size="14.00" fill="#000000">Error</text>
</a>
</g>
</g>
<!-- github.com/go&#45;i2p/go&#45;i2p/lib/common/router_identity.ReadRouterIdentity&#45;&gt;(*github.com/go&#45;i2p/logger.Logger).Error -->
<g id="edge12" class="edge">
<title>github.com/go&#45;i2p/go&#45;i2p/lib/common/router_identity.ReadRouterIdentity&#45;&gt;(*github.com/go&#45;i2p/logger.Logger).Error</title>
<g id="a_edge12"><a xlink:title="at router_identity.go:43: calling [(*github.com/go&#45;i2p/logger.Logger).Error]">
<path fill="none" stroke="#8b4513" d="M104.2809,-605.016C129.2845,-625.5639 172.9517,-658.9054 215.4152,-679 237.1373,-689.2793 263.0739,-696.6988 283.8429,-701.5876"/>
<polygon fill="#8b4513" stroke="#8b4513" points="283.357,-705.0659 293.8819,-703.8504 284.8963,-698.2372 283.357,-705.0659"/>
</a>
</g>
</g>
<!-- (*github.com/sirupsen/logrus.Logger).Debug -->
<g id="node13" class="node">
<title>(*github.com/sirupsen/logrus.Logger).Debug</title>
<g id="a_node13"><a xlink:title="(*github.com/sirupsen/logrus.Logger).Debug | defined in logger.go:221">
<path fill="#ffe4b5" stroke="#000000" stroke-width="1.5" d="M340.1433,-328C340.1433,-328 302.4993,-328 302.4993,-328 296.4993,-328 290.4993,-322 290.4993,-316 290.4993,-316 290.4993,-304 290.4993,-304 290.4993,-298 296.4993,-292 302.4993,-292 302.4993,-292 340.1433,-292 340.1433,-292 346.1433,-292 352.1433,-298 352.1433,-304 352.1433,-304 352.1433,-316 352.1433,-316 352.1433,-322 346.1433,-328 340.1433,-328"/>
<text text-anchor="middle" x="321.3213" y="-305.8" font-family="Verdana" font-size="14.00" fill="#000000">Debug</text>
</a>
</g>
</g>
<!-- github.com/go&#45;i2p/go&#45;i2p/lib/common/router_identity.ReadRouterIdentity&#45;&gt;(*github.com/sirupsen/logrus.Logger).Debug -->
<g id="edge11" class="edge">
<title>github.com/go&#45;i2p/go&#45;i2p/lib/common/router_identity.ReadRouterIdentity&#45;&gt;(*github.com/sirupsen/logrus.Logger).Debug</title>
<g id="a_edge11"><a xlink:title="at router_identity.go:40: calling [(*github.com/sirupsen/logrus.Logger).Debug]&#10;at router_identity.go:51: calling [(*github.com/sirupsen/logrus.Logger).Debug]">
<path fill="none" stroke="#8b4513" d="M90.736,-568.9593C107.9336,-529.4471 153.451,-433.9341 215.4152,-373 234.4164,-354.3146 260.0013,-338.8971 281.2638,-327.9912"/>
<polygon fill="#8b4513" stroke="#8b4513" points="282.9923,-331.0405 290.3839,-323.45 279.8722,-324.7743 282.9923,-331.0405"/>
</a>
</g>
</g>
<!-- github.com/go&#45;i2p/go&#45;i2p/lib/common/router_identity.NewRouterIdentity -->
<g id="node3" class="node">
<title>github.com/go&#45;i2p/go&#45;i2p/lib/common/router_identity.NewRouterIdentity</title>
<g id="a_node3"><a xlink:title="github.com/go&#45;i2p/go&#45;i2p/lib/common/router_identity.NewRouterIdentity | defined in router_identity.go:55&#10;at router_identity.go:78: calling [(*github.com/go&#45;i2p/logger.Logger).WithFields]&#10;at router_identity.go:67: calling [github.com/go&#45;i2p/go&#45;i2p/lib/common/keys_and_cert.NewKeysAndCert]&#10;at router_identity.go:80: calling [(github.com/go&#45;i2p/go&#45;i2p/lib/common/key_certificate.KeyCertificate).SigningPublicKeyType]&#10;at router_identity.go:60: calling [github.com/go&#45;i2p/go&#45;i2p/lib/common/key_certificate.KeyCertificateFromCertificate]&#10;at router_identity.go:62: calling [(*github.com/go&#45;i2p/logger.Logger).WithError]&#10;at router_identity.go:69: calling [(*github.com/go&#45;i2p/logger.Logger).WithError]&#10;at router_identity.go:79: calling [(github.com/go&#45;i2p/go&#45;i2p/lib/common/key_certificate.KeyCertificate).PublicKeyType]&#10;at router_identity.go:56: calling [(*github.com/sirupsen/logrus.Logger).Debug]&#10;at router_identity.go:82: calling [(*github.com/sirupsen/logrus.Logger).Debug]&#10;at router_identity.go:62: calling [(*github.com/go&#45;i2p/logger.Logger).Error]&#10;at router_identity.go:69: calling [(*github.com/go&#45;i2p/logger.Logger).Error]">
<path fill="#add8e6" stroke="#000000" stroke-width="1.5" d="M137.2848,-367C137.2848,-367 29.1304,-367 29.1304,-367 23.1304,-367 17.1304,-361 17.1304,-355 17.1304,-355 17.1304,-343 17.1304,-343 17.1304,-337 23.1304,-331 29.1304,-331 29.1304,-331 137.2848,-331 137.2848,-331 143.2848,-331 149.2848,-337 149.2848,-343 149.2848,-343 149.2848,-355 149.2848,-355 149.2848,-361 143.2848,-367 137.2848,-367"/>
<text text-anchor="middle" x="83.2076" y="-344.8" font-family="Verdana" font-size="14.00" fill="#000000">NewRouterIdentity</text>
</a>
</g>
</g>
<!-- github.com/go&#45;i2p/go&#45;i2p/lib/common/key_certificate.KeyCertificateFromCertificate -->
<g id="node4" class="node">
<title>github.com/go&#45;i2p/go&#45;i2p/lib/common/key_certificate.KeyCertificateFromCertificate</title>
<g id="a_node4"><a xlink:title="github.com/go&#45;i2p/go&#45;i2p/lib/common/key_certificate.KeyCertificateFromCertificate | defined in key_certificate.go:395">
<path fill="#ffe4b5" stroke="#000000" stroke-width="1.5" d="M407.1336,-60C407.1336,-60 235.509,-60 235.509,-60 229.509,-60 223.509,-54 223.509,-48 223.509,-48 223.509,-36 223.509,-36 223.509,-30 229.509,-24 235.509,-24 235.509,-24 407.1336,-24 407.1336,-24 413.1336,-24 419.1336,-30 419.1336,-36 419.1336,-36 419.1336,-48 419.1336,-48 419.1336,-54 413.1336,-60 407.1336,-60"/>
<text text-anchor="middle" x="321.3213" y="-37.8" font-family="Verdana" font-size="14.00" fill="#000000">KeyCertificateFromCertificate</text>
</a>
</g>
</g>
<!-- github.com/go&#45;i2p/go&#45;i2p/lib/common/router_identity.NewRouterIdentity&#45;&gt;github.com/go&#45;i2p/go&#45;i2p/lib/common/key_certificate.KeyCertificateFromCertificate -->
<g id="edge8" class="edge">
<title>github.com/go&#45;i2p/go&#45;i2p/lib/common/router_identity.NewRouterIdentity&#45;&gt;github.com/go&#45;i2p/go&#45;i2p/lib/common/key_certificate.KeyCertificateFromCertificate</title>
<g id="a_edge8"><a xlink:title="at router_identity.go:60: calling [github.com/go&#45;i2p/go&#45;i2p/lib/common/key_certificate.KeyCertificateFromCertificate]">
<path fill="none" stroke="#8b4513" d="M85.9093,-330.8722C94.2686,-281.3639 124.3964,-142.7131 215.4678,-64.945"/>
<polygon fill="#8b4513" stroke="#8b4513" points="217.7761,-67.5786 223.2939,-58.534 213.3402,-62.1635 217.7761,-67.5786"/>
</a>
</g>
</g>
<!-- (github.com/go&#45;i2p/go&#45;i2p/lib/common/key_certificate.KeyCertificate).PublicKeyType -->
<g id="node5" class="node">
<title>(github.com/go&#45;i2p/go&#45;i2p/lib/common/key_certificate.KeyCertificate).PublicKeyType</title>
<g id="a_node5"><a xlink:title="(github.com/go&#45;i2p/go&#45;i2p/lib/common/key_certificate.KeyCertificate).PublicKeyType | defined in key_certificate.go:126">
<path fill="#ffe4b5" stroke="#000000" stroke-width="1.5" d="M365.1882,-138C365.1882,-138 277.4544,-138 277.4544,-138 271.4544,-138 265.4544,-132 265.4544,-126 265.4544,-126 265.4544,-114 265.4544,-114 265.4544,-108 271.4544,-102 277.4544,-102 277.4544,-102 365.1882,-102 365.1882,-102 371.1882,-102 377.1882,-108 377.1882,-114 377.1882,-114 377.1882,-126 377.1882,-126 377.1882,-132 371.1882,-138 365.1882,-138"/>
<text text-anchor="middle" x="321.3213" y="-115.8" font-family="Verdana" font-size="14.00" fill="#000000">PublicKeyType</text>
</a>
</g>
</g>
<!-- github.com/go&#45;i2p/go&#45;i2p/lib/common/router_identity.NewRouterIdentity&#45;&gt;(github.com/go&#45;i2p/go&#45;i2p/lib/common/key_certificate.KeyCertificate).PublicKeyType -->
<g id="edge10" class="edge">
<title>github.com/go&#45;i2p/go&#45;i2p/lib/common/router_identity.NewRouterIdentity&#45;&gt;(github.com/go&#45;i2p/go&#45;i2p/lib/common/key_certificate.KeyCertificate).PublicKeyType</title>
<g id="a_edge10"><a xlink:title="at router_identity.go:79: calling [(github.com/go&#45;i2p/go&#45;i2p/lib/common/key_certificate.KeyCertificate).PublicKeyType]">
<path fill="none" stroke="#8b4513" d="M90.212,-330.8703C106.2206,-291.8594 149.2841,-199.5637 215.4152,-151 227.2087,-142.3394 241.3916,-136.0872 255.4885,-131.5772"/>
<polygon fill="#8b4513" stroke="#8b4513" points="256.5946,-134.9003 265.2037,-128.725 254.6227,-128.1837 256.5946,-134.9003"/>
</a>
</g>
</g>
<!-- (github.com/go&#45;i2p/go&#45;i2p/lib/common/key_certificate.KeyCertificate).SigningPublicKeyType -->
<g id="node6" class="node">
<title>(github.com/go&#45;i2p/go&#45;i2p/lib/common/key_certificate.KeyCertificate).SigningPublicKeyType</title>
<g id="a_node6"><a xlink:title="(github.com/go&#45;i2p/go&#45;i2p/lib/common/key_certificate.KeyCertificate).SigningPublicKeyType | defined in key_certificate.go:117">
<path fill="#ffe4b5" stroke="#000000" stroke-width="1.5" d="M387.2525,-199C387.2525,-199 255.3901,-199 255.3901,-199 249.3901,-199 243.3901,-193 243.3901,-187 243.3901,-187 243.3901,-175 243.3901,-175 243.3901,-169 249.3901,-163 255.3901,-163 255.3901,-163 387.2525,-163 387.2525,-163 393.2525,-163 399.2525,-169 399.2525,-175 399.2525,-175 399.2525,-187 399.2525,-187 399.2525,-193 393.2525,-199 387.2525,-199"/>
<text text-anchor="middle" x="321.3213" y="-176.8" font-family="Verdana" font-size="14.00" fill="#000000">SigningPublicKeyType</text>
</a>
</g>
</g>
<!-- github.com/go&#45;i2p/go&#45;i2p/lib/common/router_identity.NewRouterIdentity&#45;&gt;(github.com/go&#45;i2p/go&#45;i2p/lib/common/key_certificate.KeyCertificate).SigningPublicKeyType -->
<g id="edge6" class="edge">
<title>github.com/go&#45;i2p/go&#45;i2p/lib/common/router_identity.NewRouterIdentity&#45;&gt;(github.com/go&#45;i2p/go&#45;i2p/lib/common/key_certificate.KeyCertificate).SigningPublicKeyType</title>
<g id="a_edge6"><a xlink:title="at router_identity.go:80: calling [(github.com/go&#45;i2p/go&#45;i2p/lib/common/key_certificate.KeyCertificate).SigningPublicKeyType]">
<path fill="none" stroke="#8b4513" d="M107.351,-330.8105C133.687,-311.0814 177.1958,-278.8139 215.4152,-252 238.4063,-235.8699 264.6215,-218.2888 285.2179,-204.6569"/>
<polygon fill="#8b4513" stroke="#8b4513" points="287.2591,-207.5033 293.6751,-199.0721 283.4017,-201.662 287.2591,-207.5033"/>
</a>
</g>
</g>
<!-- github.com/go&#45;i2p/go&#45;i2p/lib/common/keys_and_cert.NewKeysAndCert -->
<g id="node8" class="node">
<title>github.com/go&#45;i2p/go&#45;i2p/lib/common/keys_and_cert.NewKeysAndCert</title>
<g id="a_node8"><a xlink:title="github.com/go&#45;i2p/go&#45;i2p/lib/common/keys_and_cert.NewKeysAndCert | defined in keys_and_cert.go:300">
<path fill="#ffe4b5" stroke="#000000" stroke-width="1.5" d="M373.2245,-423C373.2245,-423 269.4181,-423 269.4181,-423 263.4181,-423 257.4181,-417 257.4181,-411 257.4181,-411 257.4181,-399 257.4181,-399 257.4181,-393 263.4181,-387 269.4181,-387 269.4181,-387 373.2245,-387 373.2245,-387 379.2245,-387 385.2245,-393 385.2245,-399 385.2245,-399 385.2245,-411 385.2245,-411 385.2245,-417 379.2245,-423 373.2245,-423"/>
<text text-anchor="middle" x="321.3213" y="-400.8" font-family="Verdana" font-size="14.00" fill="#000000">NewKeysAndCert</text>
</a>
</g>
</g>
<!-- github.com/go&#45;i2p/go&#45;i2p/lib/common/router_identity.NewRouterIdentity&#45;&gt;github.com/go&#45;i2p/go&#45;i2p/lib/common/keys_and_cert.NewKeysAndCert -->
<g id="edge5" class="edge">
<title>github.com/go&#45;i2p/go&#45;i2p/lib/common/router_identity.NewRouterIdentity&#45;&gt;github.com/go&#45;i2p/go&#45;i2p/lib/common/keys_and_cert.NewKeysAndCert</title>
<g id="a_edge5"><a xlink:title="at router_identity.go:67: calling [github.com/go&#45;i2p/go&#45;i2p/lib/common/keys_and_cert.NewKeysAndCert]">
<path fill="none" stroke="#8b4513" d="M149.5355,-364.5991C179.9574,-371.7538 216.1353,-380.2622 247.4268,-387.6214"/>
<polygon fill="#8b4513" stroke="#8b4513" points="246.8654,-391.0848 257.4011,-389.9671 248.468,-384.2707 246.8654,-391.0848"/>
</a>
</g>
</g>
<!-- github.com/go&#45;i2p/go&#45;i2p/lib/common/router_identity.NewRouterIdentity&#45;&gt;(*github.com/go&#45;i2p/logger.Logger).WithFields -->
<g id="edge3" class="edge">
<title>github.com/go&#45;i2p/go&#45;i2p/lib/common/router_identity.NewRouterIdentity&#45;&gt;(*github.com/go&#45;i2p/logger.Logger).WithFields</title>
<g id="a_edge3"><a xlink:title="at router_identity.go:78: calling [(*github.com/go&#45;i2p/logger.Logger).WithFields]">
<path fill="none" stroke="#8b4513" d="M108.315,-367.0035C131.6852,-384.9216 166.0352,-414.3934 187.4152,-447 207.6117,-477.8017 191.8874,-496.6612 215.4152,-525 229.6253,-542.1159 249.8619,-555.5838 268.8449,-565.5322"/>
<polygon fill="#8b4513" stroke="#8b4513" points="267.5227,-568.7844 278.0313,-570.1338 270.6578,-562.5257 267.5227,-568.7844"/>
</a>
</g>
</g>
<!-- github.com/go&#45;i2p/go&#45;i2p/lib/common/router_identity.NewRouterIdentity&#45;&gt;(*github.com/go&#45;i2p/logger.Logger).WithError -->
<g id="edge9" class="edge">
<title>github.com/go&#45;i2p/go&#45;i2p/lib/common/router_identity.NewRouterIdentity&#45;&gt;(*github.com/go&#45;i2p/logger.Logger).WithError</title>
<g id="a_edge9"><a xlink:title="at router_identity.go:62: calling [(*github.com/go&#45;i2p/logger.Logger).WithError]&#10;at router_identity.go:69: calling [(*github.com/go&#45;i2p/logger.Logger).WithError]">
<path fill="none" stroke="#8b4513" d="M101.3445,-367.3526C124.8994,-392.274 165.577,-439.2156 187.4152,-487 212.1627,-541.1503 174.7163,-574.5455 215.4152,-618 229.5986,-633.1437 250.8011,-640.8382 270.5176,-644.6783"/>
<polygon fill="#8b4513" stroke="#8b4513" points="270.2103,-648.1749 280.6475,-646.3541 271.3529,-641.2688 270.2103,-648.1749"/>
</a>
</g>
</g>
<!-- github.com/go&#45;i2p/go&#45;i2p/lib/common/router_identity.NewRouterIdentity&#45;&gt;(*github.com/go&#45;i2p/logger.Logger).Error -->
<g id="edge14" class="edge">
<title>github.com/go&#45;i2p/go&#45;i2p/lib/common/router_identity.NewRouterIdentity&#45;&gt;(*github.com/go&#45;i2p/logger.Logger).Error</title>
<g id="a_edge14"><a xlink:title="at router_identity.go:62: calling [(*github.com/go&#45;i2p/logger.Logger).Error]&#10;at router_identity.go:69: calling [(*github.com/go&#45;i2p/logger.Logger).Error]">
<path fill="none" stroke="#8b4513" d="M89.4293,-367.1672C112.1218,-433.0169 190.4151,-656.4964 215.4152,-679 234.1752,-695.8867 261.7691,-703.3341 284.0874,-706.5874"/>
<polygon fill="#8b4513" stroke="#8b4513" points="283.885,-710.0888 294.2381,-707.8383 284.7413,-703.1414 283.885,-710.0888"/>
</a>
</g>
</g>
<!-- github.com/go&#45;i2p/go&#45;i2p/lib/common/router_identity.NewRouterIdentity&#45;&gt;(*github.com/sirupsen/logrus.Logger).Debug -->
<g id="edge13" class="edge">
<title>github.com/go&#45;i2p/go&#45;i2p/lib/common/router_identity.NewRouterIdentity&#45;&gt;(*github.com/sirupsen/logrus.Logger).Debug</title>
<g id="a_edge13"><a xlink:title="at router_identity.go:56: calling [(*github.com/sirupsen/logrus.Logger).Debug]&#10;at router_identity.go:82: calling [(*github.com/sirupsen/logrus.Logger).Debug]">
<path fill="none" stroke="#8b4513" d="M149.5355,-338.1363C191.4929,-331.2642 244.3993,-322.5989 280.3345,-316.7131"/>
<polygon fill="#8b4513" stroke="#8b4513" points="281.1506,-320.1262 290.4533,-315.0558 280.0191,-313.2182 281.1506,-320.1262"/>
</a>
</g>
</g>
</g>
</svg>
