<?xml version="1.0" encoding="UTF-8" standalone="no"?>
<!DOCTYPE svg PUBLIC "-//W3C//DTD SVG 1.1//EN"
 "http://www.w3.org/Graphics/SVG/1.1/DTD/svg11.dtd">
<!-- Generated by graphviz version 2.40.1 (20161225.0304)
 -->
<!-- Title: gocallvis Pages: 1 -->
<svg width="539pt" height="471pt"
 viewBox="0.00 0.00 539.47 471.00" xmlns="http://www.w3.org/2000/svg" xmlns:xlink="http://www.w3.org/1999/xlink">
<g id="graph0" class="graph" transform="scale(1 1) rotate(0) translate(0 471)">
<title>gocallvis</title>
<polygon fill="#d3d3d3" stroke="transparent" points="0,0 0,-471 539.4714,-471 539.4714,0 0,0"/>
<g id="clust1" class="cluster">
<title>cluster_focus</title>
<polygon fill="#e6ecfa" stroke="#000000" stroke-width=".5" points="8,-8 8,-463 531.4714,-463 531.4714,-8 8,-8"/>
<text text-anchor="middle" x="269.7357" y="-442.8" font-family="Arial" font-size="18.00" fill="#000000">session_tag</text>
</g>
<g id="clust4" class="cluster">
<title>cluster_github.com/sirupsen/logrus</title>
<g id="a_clust4"><a xlink:href="/?f=github.com/sirupsen/logrus" xlink:title="package: github.com/sirupsen/logrus">
<polygon fill="#ffffe0" stroke="#000000" stroke-width=".8" points="215.9664,-304 215.9664,-425 309.2876,-425 309.2876,-304 215.9664,-304"/>
<text text-anchor="middle" x="262.627" y="-406.6" font-family="Tahoma bold" font-size="16.00" fill="#000000">logrus</text>
</a>
</g>
</g>
<g id="clust5" class="cluster">
<title>cluster_*github.com/sirupsen/logrus.Logger</title>
<g id="a_clust5"><a xlink:href="/?f=github.com/sirupsen/logrus" xlink:title="type: *github.com/sirupsen/logrus.Logger">
<path fill="#eed8ae" stroke="#000000" stroke-width=".5" d="M235.9664,-312C235.9664,-312 289.2876,-312 289.2876,-312 295.2876,-312 301.2876,-318 301.2876,-324 301.2876,-324 301.2876,-378 301.2876,-378 301.2876,-384 295.2876,-390 289.2876,-390 289.2876,-390 235.9664,-390 235.9664,-390 229.9664,-390 223.9664,-384 223.9664,-378 223.9664,-378 223.9664,-324 223.9664,-324 223.9664,-318 229.9664,-312 235.9664,-312"/>
<text text-anchor="middle" x="262.627" y="-320.5" font-family="Tahoma bold" font-size="15.00" fill="#222222">(*Logger)</text>
</a>
</g>
</g>
<g id="clust2" class="cluster">
<title>cluster_github.com/go&#45;i2p/logger</title>
<g id="a_clust2"><a xlink:href="/?f=github.com/go-i2p/logger" xlink:title="package: github.com/go&#45;i2p/logger">
<polygon fill="#ffffe0" stroke="#000000" stroke-width=".8" points="386.282,-16 386.282,-425 523.4714,-425 523.4714,-16 386.282,-16"/>
<text text-anchor="middle" x="454.8767" y="-406.6" font-family="Tahoma bold" font-size="16.00" fill="#000000">logger</text>
</a>
</g>
</g>
<g id="clust3" class="cluster">
<title>cluster_*github.com/go&#45;i2p/logger.Logger</title>
<g id="a_clust3"><a xlink:href="/?f=github.com/go-i2p/logger" xlink:title="type: *github.com/go&#45;i2p/logger.Logger">
<path fill="#eed8ae" stroke="#000000" stroke-width=".5" d="M415.7673,-68C415.7673,-68 493.9861,-68 493.9861,-68 499.9861,-68 505.9861,-74 505.9861,-80 505.9861,-80 505.9861,-378 505.9861,-378 505.9861,-384 499.9861,-390 493.9861,-390 493.9861,-390 415.7673,-390 415.7673,-390 409.7673,-390 403.7673,-384 403.7673,-378 403.7673,-378 403.7673,-80 403.7673,-80 403.7673,-74 409.7673,-68 415.7673,-68"/>
<text text-anchor="middle" x="454.8767" y="-76.5" font-family="Tahoma bold" font-size="15.00" fill="#222222">(*Logger)</text>
</a>
</g>
</g>
<!-- github.com/go&#45;i2p/go&#45;i2p/lib/common/session_tag.NewSessionTag -->
<g id="node1" class="node">
<title>github.com/go&#45;i2p/go&#45;i2p/lib/common/session_tag.NewSessionTag</title>
<g id="a_node1"><a xlink:title="github.com/go&#45;i2p/go&#45;i2p/lib/common/session_tag.NewSessionTag | defined in session_tag.go:38&#10;at session_tag.go:39: calling [(*github.com/sirupsen/logrus.Logger).Debug]&#10;at session_tag.go:48: calling [(*github.com/sirupsen/logrus.Logger).Debug]&#10;at session_tag.go:40: calling [github.com/go&#45;i2p/go&#45;i2p/lib/common/session_tag.ReadSessionTag]&#10;at session_tag.go:42: calling [(*github.com/go&#45;i2p/logger.Logger).WithError]&#10;at session_tag.go:42: calling [(*github.com/go&#45;i2p/logger.Logger).Error]&#10;at session_tag.go:46: calling [(*github.com/go&#45;i2p/logger.Logger).WithFields]&#10;at session_tag.go:39: calling [(*github.com/go&#45;i2p/logger.Logger).WithField]">
<path fill="#add8e6" stroke="#000000" stroke-width="1.5" d="M118.958,-272C118.958,-272 28.014,-272 28.014,-272 22.014,-272 16.014,-266 16.014,-260 16.014,-260 16.014,-248 16.014,-248 16.014,-242 22.014,-236 28.014,-236 28.014,-236 118.958,-236 118.958,-236 124.958,-236 130.958,-242 130.958,-248 130.958,-248 130.958,-260 130.958,-260 130.958,-266 124.958,-272 118.958,-272"/>
<text text-anchor="middle" x="73.486" y="-249.8" font-family="Verdana" font-size="14.00" fill="#000000">NewSessionTag</text>
</a>
</g>
</g>
<!-- github.com/go&#45;i2p/go&#45;i2p/lib/common/session_tag.ReadSessionTag -->
<g id="node2" class="node">
<title>github.com/go&#45;i2p/go&#45;i2p/lib/common/session_tag.ReadSessionTag</title>
<g id="a_node2"><a xlink:title="github.com/go&#45;i2p/go&#45;i2p/lib/common/session_tag.ReadSessionTag | defined in session_tag.go:30&#10;at session_tag.go:32: calling [(*github.com/go&#45;i2p/logger.Logger).Warn]">
<path fill="#add8e6" stroke="#000000" stroke-width="1.5" d="M309.4374,-158C309.4374,-158 215.8166,-158 215.8166,-158 209.8166,-158 203.8166,-152 203.8166,-146 203.8166,-146 203.8166,-134 203.8166,-134 203.8166,-128 209.8166,-122 215.8166,-122 215.8166,-122 309.4374,-122 309.4374,-122 315.4374,-122 321.4374,-128 321.4374,-134 321.4374,-134 321.4374,-146 321.4374,-146 321.4374,-152 315.4374,-158 309.4374,-158"/>
<text text-anchor="middle" x="262.627" y="-135.8" font-family="Verdana" font-size="14.00" fill="#000000">ReadSessionTag</text>
</a>
</g>
</g>
<!-- github.com/go&#45;i2p/go&#45;i2p/lib/common/session_tag.NewSessionTag&#45;&gt;github.com/go&#45;i2p/go&#45;i2p/lib/common/session_tag.ReadSessionTag -->
<g id="edge3" class="edge">
<title>github.com/go&#45;i2p/go&#45;i2p/lib/common/session_tag.NewSessionTag&#45;&gt;github.com/go&#45;i2p/go&#45;i2p/lib/common/session_tag.ReadSessionTag</title>
<g id="a_edge3"><a xlink:title="at session_tag.go:40: calling [github.com/go&#45;i2p/go&#45;i2p/lib/common/session_tag.ReadSessionTag]">
<path fill="none" stroke="#000000" d="M98.3475,-235.7859C116.8851,-222.5017 143.0301,-204.3834 166.972,-190 182.6822,-180.5619 200.3502,-171.0373 216.187,-162.87"/>
<polygon fill="#000000" stroke="#000000" points="217.9585,-165.8953 225.2712,-158.2289 214.7737,-159.6617 217.9585,-165.8953"/>
</a>
</g>
</g>
<!-- (*github.com/go&#45;i2p/logger.Logger).WithField -->
<g id="node5" class="node">
<title>(*github.com/go&#45;i2p/logger.Logger).WithField</title>
<g id="a_node5"><a xlink:title="(*github.com/go&#45;i2p/logger.Logger).WithField | defined in log.go:54">
<path fill="#ffe4b5" stroke="#000000" stroke-width="1.5" d="M483.1512,-199C483.1512,-199 426.6022,-199 426.6022,-199 420.6022,-199 414.6022,-193 414.6022,-187 414.6022,-187 414.6022,-175 414.6022,-175 414.6022,-169 420.6022,-163 426.6022,-163 426.6022,-163 483.1512,-163 483.1512,-163 489.1512,-163 495.1512,-169 495.1512,-175 495.1512,-175 495.1512,-187 495.1512,-187 495.1512,-193 489.1512,-199 483.1512,-199"/>
<text text-anchor="middle" x="454.8767" y="-176.8" font-family="Verdana" font-size="14.00" fill="#000000">WithField</text>
</a>
</g>
</g>
<!-- github.com/go&#45;i2p/go&#45;i2p/lib/common/session_tag.NewSessionTag&#45;&gt;(*github.com/go&#45;i2p/logger.Logger).WithField -->
<g id="edge8" class="edge">
<title>github.com/go&#45;i2p/go&#45;i2p/lib/common/session_tag.NewSessionTag&#45;&gt;(*github.com/go&#45;i2p/logger.Logger).WithField</title>
<g id="a_edge8"><a xlink:title="at session_tag.go:39: calling [(*github.com/go&#45;i2p/logger.Logger).WithField]">
<path fill="none" stroke="#8b4513" d="M130.997,-242.9921C205.3749,-228.7558 333.7439,-204.1854 404.4763,-190.6469"/>
<polygon fill="#8b4513" stroke="#8b4513" points="405.317,-194.0496 414.4807,-188.732 404.001,-187.1744 405.317,-194.0496"/>
</a>
</g>
</g>
<!-- (*github.com/go&#45;i2p/logger.Logger).WithError -->
<g id="node7" class="node">
<title>(*github.com/go&#45;i2p/logger.Logger).WithError</title>
<g id="a_node7"><a xlink:title="(*github.com/go&#45;i2p/logger.Logger).WithError | defined in log.go:66">
<path fill="#ffe4b5" stroke="#000000" stroke-width="1.5" d="M483.4082,-260C483.4082,-260 426.3452,-260 426.3452,-260 420.3452,-260 414.3452,-254 414.3452,-248 414.3452,-248 414.3452,-236 414.3452,-236 414.3452,-230 420.3452,-224 426.3452,-224 426.3452,-224 483.4082,-224 483.4082,-224 489.4082,-224 495.4082,-230 495.4082,-236 495.4082,-236 495.4082,-248 495.4082,-248 495.4082,-254 489.4082,-260 483.4082,-260"/>
<text text-anchor="middle" x="454.8767" y="-237.8" font-family="Verdana" font-size="14.00" fill="#000000">WithError</text>
</a>
</g>
</g>
<!-- github.com/go&#45;i2p/go&#45;i2p/lib/common/session_tag.NewSessionTag&#45;&gt;(*github.com/go&#45;i2p/logger.Logger).WithError -->
<g id="edge4" class="edge">
<title>github.com/go&#45;i2p/go&#45;i2p/lib/common/session_tag.NewSessionTag&#45;&gt;(*github.com/go&#45;i2p/logger.Logger).WithError</title>
<g id="a_edge4"><a xlink:title="at session_tag.go:42: calling [(*github.com/go&#45;i2p/logger.Logger).WithError]">
<path fill="none" stroke="#8b4513" d="M130.997,-252.1905C205.2757,-249.8534 333.4017,-245.8221 404.193,-243.5947"/>
<polygon fill="#8b4513" stroke="#8b4513" points="404.3235,-247.0924 414.2084,-243.2796 404.1033,-240.0959 404.3235,-247.0924"/>
</a>
</g>
</g>
<!-- (*github.com/go&#45;i2p/logger.Logger).Error -->
<g id="node8" class="node">
<title>(*github.com/go&#45;i2p/logger.Logger).Error</title>
<g id="a_node8"><a xlink:title="(*github.com/go&#45;i2p/logger.Logger).Error | defined in log.go:42">
<path fill="#ffe4b5" stroke="#000000" stroke-width="1.5" d="M469.8767,-321C469.8767,-321 439.8767,-321 439.8767,-321 433.8767,-321 427.8767,-315 427.8767,-309 427.8767,-309 427.8767,-297 427.8767,-297 427.8767,-291 433.8767,-285 439.8767,-285 439.8767,-285 469.8767,-285 469.8767,-285 475.8767,-285 481.8767,-291 481.8767,-297 481.8767,-297 481.8767,-309 481.8767,-309 481.8767,-315 475.8767,-321 469.8767,-321"/>
<text text-anchor="middle" x="454.8767" y="-298.8" font-family="Verdana" font-size="14.00" fill="#000000">Error</text>
</a>
</g>
</g>
<!-- github.com/go&#45;i2p/go&#45;i2p/lib/common/session_tag.NewSessionTag&#45;&gt;(*github.com/go&#45;i2p/logger.Logger).Error -->
<g id="edge5" class="edge">
<title>github.com/go&#45;i2p/go&#45;i2p/lib/common/session_tag.NewSessionTag&#45;&gt;(*github.com/go&#45;i2p/logger.Logger).Error</title>
<g id="a_edge5"><a xlink:title="at session_tag.go:42: calling [(*github.com/go&#45;i2p/logger.Logger).Error]">
<path fill="none" stroke="#8b4513" d="M131.1094,-260.2764C188.6927,-266.6904 279.7207,-277.2141 358.282,-288 377.9587,-290.7015 399.8321,-294.0678 417.7815,-296.9265"/>
<polygon fill="#8b4513" stroke="#8b4513" points="417.4219,-300.4135 427.8502,-298.5422 418.531,-293.5019 417.4219,-300.4135"/>
</a>
</g>
</g>
<!-- (*github.com/go&#45;i2p/logger.Logger).WithFields -->
<g id="node9" class="node">
<title>(*github.com/go&#45;i2p/logger.Logger).WithFields</title>
<g id="a_node9"><a xlink:title="(*github.com/go&#45;i2p/logger.Logger).WithFields | defined in log.go:60">
<path fill="#ffe4b5" stroke="#000000" stroke-width="1.5" d="M486.0958,-382C486.0958,-382 423.6576,-382 423.6576,-382 417.6576,-382 411.6576,-376 411.6576,-370 411.6576,-370 411.6576,-358 411.6576,-358 411.6576,-352 417.6576,-346 423.6576,-346 423.6576,-346 486.0958,-346 486.0958,-346 492.0958,-346 498.0958,-352 498.0958,-358 498.0958,-358 498.0958,-370 498.0958,-370 498.0958,-376 492.0958,-382 486.0958,-382"/>
<text text-anchor="middle" x="454.8767" y="-359.8" font-family="Verdana" font-size="14.00" fill="#000000">WithFields</text>
</a>
</g>
</g>
<!-- github.com/go&#45;i2p/go&#45;i2p/lib/common/session_tag.NewSessionTag&#45;&gt;(*github.com/go&#45;i2p/logger.Logger).WithFields -->
<g id="edge6" class="edge">
<title>github.com/go&#45;i2p/go&#45;i2p/lib/common/session_tag.NewSessionTag&#45;&gt;(*github.com/go&#45;i2p/logger.Logger).WithFields</title>
<g id="a_edge6"><a xlink:title="at session_tag.go:46: calling [(*github.com/go&#45;i2p/logger.Logger).WithFields]">
<path fill="none" stroke="#8b4513" d="M131.2724,-266.5243C153.9314,-271.4027 180.1613,-277.0098 203.972,-282 256.0581,-292.9162 270.5316,-289.9837 321.282,-306 323.5049,-306.7015 367.5162,-325.8491 404.4234,-341.9537"/>
<polygon fill="#8b4513" stroke="#8b4513" points="403.0586,-345.1769 413.6238,-345.9695 405.8589,-338.7613 403.0586,-345.1769"/>
</a>
</g>
</g>
<!-- (*github.com/sirupsen/logrus.Logger).Debug -->
<g id="node10" class="node">
<title>(*github.com/sirupsen/logrus.Logger).Debug</title>
<g id="a_node10"><a xlink:title="(*github.com/sirupsen/logrus.Logger).Debug | defined in logger.go:221">
<path fill="#ffe4b5" stroke="#000000" stroke-width="1.5" d="M281.449,-382C281.449,-382 243.805,-382 243.805,-382 237.805,-382 231.805,-376 231.805,-370 231.805,-370 231.805,-358 231.805,-358 231.805,-352 237.805,-346 243.805,-346 243.805,-346 281.449,-346 281.449,-346 287.449,-346 293.449,-352 293.449,-358 293.449,-358 293.449,-370 293.449,-370 293.449,-376 287.449,-382 281.449,-382"/>
<text text-anchor="middle" x="262.627" y="-359.8" font-family="Verdana" font-size="14.00" fill="#000000">Debug</text>
</a>
</g>
</g>
<!-- github.com/go&#45;i2p/go&#45;i2p/lib/common/session_tag.NewSessionTag&#45;&gt;(*github.com/sirupsen/logrus.Logger).Debug -->
<g id="edge1" class="edge">
<title>github.com/go&#45;i2p/go&#45;i2p/lib/common/session_tag.NewSessionTag&#45;&gt;(*github.com/sirupsen/logrus.Logger).Debug</title>
<g id="a_edge1"><a xlink:title="at session_tag.go:39: calling [(*github.com/sirupsen/logrus.Logger).Debug]&#10;at session_tag.go:48: calling [(*github.com/sirupsen/logrus.Logger).Debug]">
<path fill="none" stroke="#8b4513" d="M96.9635,-272.3213C122.3103,-291.4932 164.3866,-321.5879 203.972,-342 209.7447,-344.9767 216.016,-347.7618 222.2391,-350.2827"/>
<polygon fill="#8b4513" stroke="#8b4513" points="221.3108,-353.6761 231.9001,-354.0162 223.8341,-347.1467 221.3108,-353.6761"/>
</a>
</g>
</g>
<!-- (*github.com/go&#45;i2p/logger.Logger).Warn -->
<g id="node6" class="node">
<title>(*github.com/go&#45;i2p/logger.Logger).Warn</title>
<g id="a_node6"><a xlink:title="(*github.com/go&#45;i2p/logger.Logger).Warn | defined in log.go:30">
<path fill="#ffe4b5" stroke="#000000" stroke-width="1.5" d="M470.4666,-138C470.4666,-138 439.2868,-138 439.2868,-138 433.2868,-138 427.2868,-132 427.2868,-126 427.2868,-126 427.2868,-114 427.2868,-114 427.2868,-108 433.2868,-102 439.2868,-102 439.2868,-102 470.4666,-102 470.4666,-102 476.4666,-102 482.4666,-108 482.4666,-114 482.4666,-114 482.4666,-126 482.4666,-126 482.4666,-132 476.4666,-138 470.4666,-138"/>
<text text-anchor="middle" x="454.8767" y="-115.8" font-family="Verdana" font-size="14.00" fill="#000000">Warn</text>
</a>
</g>
</g>
<!-- github.com/go&#45;i2p/go&#45;i2p/lib/common/session_tag.ReadSessionTag&#45;&gt;(*github.com/go&#45;i2p/logger.Logger).Warn -->
<g id="edge2" class="edge">
<title>github.com/go&#45;i2p/go&#45;i2p/lib/common/session_tag.ReadSessionTag&#45;&gt;(*github.com/go&#45;i2p/logger.Logger).Warn</title>
<g id="a_edge2"><a xlink:title="at session_tag.go:32: calling [(*github.com/go&#45;i2p/logger.Logger).Warn]">
<path fill="none" stroke="#8b4513" d="M321.3529,-133.8907C352.4502,-130.6556 389.7343,-126.7769 416.9911,-123.9413"/>
<polygon fill="#8b4513" stroke="#8b4513" points="417.6935,-127.3872 427.2777,-122.8712 416.9692,-120.4248 417.6935,-127.3872"/>
</a>
</g>
</g>
<!-- github.com/go&#45;i2p/go&#45;i2p/lib/common/session_tag.init -->
<g id="node3" class="node">
<title>github.com/go&#45;i2p/go&#45;i2p/lib/common/session_tag.init</title>
<g id="a_node3"><a xlink:title="github.com/go&#45;i2p/go&#45;i2p/lib/common/session_tag.init | defined in .:0&#10;at session_tag.go:9: calling [github.com/go&#45;i2p/logger.GetGoI2PLogger]">
<path fill="#add8e6" stroke="#000000" stroke-width=".5" d="M277.627,-60C277.627,-60 247.627,-60 247.627,-60 241.627,-60 235.627,-54 235.627,-48 235.627,-48 235.627,-36 235.627,-36 235.627,-30 241.627,-24 247.627,-24 247.627,-24 277.627,-24 277.627,-24 283.627,-24 289.627,-30 289.627,-36 289.627,-36 289.627,-48 289.627,-48 289.627,-54 283.627,-60 277.627,-60"/>
<text text-anchor="middle" x="262.627" y="-37.8" font-family="Verdana" font-size="14.00" fill="#000000">init</text>
</a>
</g>
</g>
<!-- github.com/go&#45;i2p/logger.GetGoI2PLogger -->
<g id="node4" class="node">
<title>github.com/go&#45;i2p/logger.GetGoI2PLogger</title>
<g id="a_node4"><a xlink:title="github.com/go&#45;i2p/logger.GetGoI2PLogger | defined in log.go:120">
<path fill="#ffe4b5" stroke="#000000" stroke-width="1.5" d="M503.5662,-60C503.5662,-60 406.1872,-60 406.1872,-60 400.1872,-60 394.1872,-54 394.1872,-48 394.1872,-48 394.1872,-36 394.1872,-36 394.1872,-30 400.1872,-24 406.1872,-24 406.1872,-24 503.5662,-24 503.5662,-24 509.5662,-24 515.5662,-30 515.5662,-36 515.5662,-36 515.5662,-48 515.5662,-48 515.5662,-54 509.5662,-60 503.5662,-60"/>
<text text-anchor="middle" x="454.8767" y="-37.8" font-family="Verdana" font-size="14.00" fill="#000000">GetGoI2PLogger</text>
</a>
</g>
</g>
<!-- github.com/go&#45;i2p/go&#45;i2p/lib/common/session_tag.init&#45;&gt;github.com/go&#45;i2p/logger.GetGoI2PLogger -->
<g id="edge7" class="edge">
<title>github.com/go&#45;i2p/go&#45;i2p/lib/common/session_tag.init&#45;&gt;github.com/go&#45;i2p/logger.GetGoI2PLogger</title>
<g id="a_edge7"><a xlink:title="at session_tag.go:9: calling [github.com/go&#45;i2p/logger.GetGoI2PLogger]">
<path fill="none" stroke="#8b4513" d="M289.7639,-42C314.2457,-42 351.3461,-42 384.1812,-42"/>
<polygon fill="#8b4513" stroke="#8b4513" points="384.2158,-45.5001 394.2157,-42 384.2157,-38.5001 384.2158,-45.5001"/>
</a>
</g>
</g>
</g>
</svg>
