<?xml version="1.0" encoding="UTF-8" standalone="no"?>
<!DOCTYPE svg PUBLIC "-//W3C//DTD SVG 1.1//EN"
 "http://www.w3.org/Graphics/SVG/1.1/DTD/svg11.dtd">
<!-- Generated by graphviz version 2.40.1 (20161225.0304)
 -->
<!-- Title: gocallvis Pages: 1 -->
<svg width="508pt" height="384pt"
 viewBox="0.00 0.00 508.38 384.00" xmlns="http://www.w3.org/2000/svg" xmlns:xlink="http://www.w3.org/1999/xlink">
<g id="graph0" class="graph" transform="scale(1 1) rotate(0) translate(0 384)">
<title>gocallvis</title>
<polygon fill="#d3d3d3" stroke="transparent" points="0,0 0,-384 508.3802,-384 508.3802,0 0,0"/>
<g id="clust1" class="cluster">
<title>cluster_focus</title>
<polygon fill="#e6ecfa" stroke="#000000" stroke-width=".5" points="8,-8 8,-376 500.3802,-376 500.3802,-8 8,-8"/>
<text text-anchor="middle" x="254.1901" y="-355.8" font-family="Arial" font-size="18.00" fill="#000000">session_tag</text>
</g>
<g id="clust3" class="cluster">
<title>cluster_*github.com/sirupsen/logrus.Logger</title>
<g id="a_clust3"><a xlink:title="type: *github.com/sirupsen/logrus.Logger">
<path fill="#eed8ae" stroke="#000000" stroke-width=".5" d="M237.9061,-253C237.9061,-253 292.2273,-253 292.2273,-253 298.2273,-253 304.2273,-259 304.2273,-265 304.2273,-265 304.2273,-319 304.2273,-319 304.2273,-325 298.2273,-331 292.2273,-331 292.2273,-331 237.9061,-331 237.9061,-331 231.9061,-331 225.9061,-325 225.9061,-319 225.9061,-319 225.9061,-265 225.9061,-265 225.9061,-259 231.9061,-253 237.9061,-253"/>
<text text-anchor="middle" x="265.0667" y="-261.5" font-family="Arial" font-size="15.00" fill="#222222">(*Logger)</text>
</a>
</g>
</g>
<g id="clust2" class="cluster">
<title>cluster_*github.com/go&#45;i2p/logger.Logger</title>
<g id="a_clust2"><a xlink:title="type: *github.com/go&#45;i2p/logger.Logger">
<path fill="#eed8ae" stroke="#000000" stroke-width=".5" d="M402.1614,-16C402.1614,-16 480.3802,-16 480.3802,-16 486.3802,-16 492.3802,-22 492.3802,-28 492.3802,-28 492.3802,-326 492.3802,-326 492.3802,-332 486.3802,-338 480.3802,-338 480.3802,-338 402.1614,-338 402.1614,-338 396.1614,-338 390.1614,-332 390.1614,-326 390.1614,-326 390.1614,-28 390.1614,-28 390.1614,-22 396.1614,-16 402.1614,-16"/>
<text text-anchor="middle" x="441.2708" y="-24.5" font-family="Arial" font-size="15.00" fill="#222222">(*Logger)</text>
</a>
</g>
</g>
<!-- github.com/go&#45;i2p/go&#45;i2p/lib/common/session_tag.NewSessionTag -->
<g id="node1" class="node">
<title>github.com/go&#45;i2p/go&#45;i2p/lib/common/session_tag.NewSessionTag</title>
<g id="a_node1"><a xlink:title="github.com/go&#45;i2p/go&#45;i2p/lib/common/session_tag.NewSessionTag | defined in session_tag.go:38&#10;at session_tag.go:46: calling [(*github.com/go&#45;i2p/logger.Logger).WithFields]&#10;at session_tag.go:39: calling [(*github.com/go&#45;i2p/logger.Logger).WithField]&#10;at session_tag.go:39: calling [(*github.com/sirupsen/logrus.Logger).Debug]&#10;at session_tag.go:48: calling [(*github.com/sirupsen/logrus.Logger).Debug]&#10;at session_tag.go:40: calling [github.com/go&#45;i2p/go&#45;i2p/lib/common/session_tag.ReadSessionTag]&#10;at session_tag.go:42: calling [(*github.com/go&#45;i2p/logger.Logger).WithError]&#10;at session_tag.go:42: calling [(*github.com/go&#45;i2p/logger.Logger).Error]">
<path fill="#add8e6" stroke="#000000" stroke-width="1.5" d="M118.958,-221C118.958,-221 28.014,-221 28.014,-221 22.014,-221 16.014,-215 16.014,-209 16.014,-209 16.014,-197 16.014,-197 16.014,-191 22.014,-185 28.014,-185 28.014,-185 118.958,-185 118.958,-185 124.958,-185 130.958,-191 130.958,-197 130.958,-197 130.958,-209 130.958,-209 130.958,-215 124.958,-221 118.958,-221"/>
<text text-anchor="middle" x="73.486" y="-198.8" font-family="Verdana" font-size="14.00" fill="#000000">NewSessionTag</text>
</a>
</g>
</g>
<!-- github.com/go&#45;i2p/go&#45;i2p/lib/common/session_tag.ReadSessionTag -->
<g id="node2" class="node">
<title>github.com/go&#45;i2p/go&#45;i2p/lib/common/session_tag.ReadSessionTag</title>
<g id="a_node2"><a xlink:title="github.com/go&#45;i2p/go&#45;i2p/lib/common/session_tag.ReadSessionTag | defined in session_tag.go:30&#10;at session_tag.go:32: calling [(*github.com/go&#45;i2p/logger.Logger).Warn]">
<path fill="#add8e6" stroke="#000000" stroke-width="1.5" d="M311.3771,-128C311.3771,-128 217.7563,-128 217.7563,-128 211.7563,-128 205.7563,-122 205.7563,-116 205.7563,-116 205.7563,-104 205.7563,-104 205.7563,-98 211.7563,-92 217.7563,-92 217.7563,-92 311.3771,-92 311.3771,-92 317.3771,-92 323.3771,-98 323.3771,-104 323.3771,-104 323.3771,-116 323.3771,-116 323.3771,-122 317.3771,-128 311.3771,-128"/>
<text text-anchor="middle" x="264.5667" y="-105.8" font-family="Verdana" font-size="14.00" fill="#000000">ReadSessionTag</text>
</a>
</g>
</g>
<!-- github.com/go&#45;i2p/go&#45;i2p/lib/common/session_tag.NewSessionTag&#45;&gt;github.com/go&#45;i2p/go&#45;i2p/lib/common/session_tag.ReadSessionTag -->
<g id="edge6" class="edge">
<title>github.com/go&#45;i2p/go&#45;i2p/lib/common/session_tag.NewSessionTag&#45;&gt;github.com/go&#45;i2p/go&#45;i2p/lib/common/session_tag.ReadSessionTag</title>
<g id="a_edge6"><a xlink:title="at session_tag.go:40: calling [github.com/go&#45;i2p/go&#45;i2p/lib/common/session_tag.ReadSessionTag]">
<path fill="none" stroke="#000000" d="M106.0521,-184.7968C123.8767,-175.0334 146.4515,-162.9903 166.972,-153 181.4472,-145.9528 197.3486,-138.732 212.0373,-132.2686"/>
<polygon fill="#000000" stroke="#000000" points="213.725,-135.3508 221.4875,-128.1401 210.9226,-128.9362 213.725,-135.3508"/>
</a>
</g>
</g>
<!-- (*github.com/go&#45;i2p/logger.Logger).WithField -->
<g id="node5" class="node">
<title>(*github.com/go&#45;i2p/logger.Logger).WithField</title>
<g id="a_node5"><a xlink:title="(*github.com/go&#45;i2p/logger.Logger).WithField | defined in log.go:54">
<path fill="#ffe4b5" stroke="#000000" stroke-width="1.5" d="M469.5453,-147C469.5453,-147 412.9963,-147 412.9963,-147 406.9963,-147 400.9963,-141 400.9963,-135 400.9963,-135 400.9963,-123 400.9963,-123 400.9963,-117 406.9963,-111 412.9963,-111 412.9963,-111 469.5453,-111 469.5453,-111 475.5453,-111 481.5453,-117 481.5453,-123 481.5453,-123 481.5453,-135 481.5453,-135 481.5453,-141 475.5453,-147 469.5453,-147"/>
<text text-anchor="middle" x="441.2708" y="-133.2" font-family="Verdana" font-size="14.00" fill="#000000">logger</text>
<text text-anchor="middle" x="441.2708" y="-116.4" font-family="Verdana" font-size="14.00" fill="#000000">WithField</text>
</a>
</g>
</g>
<!-- github.com/go&#45;i2p/go&#45;i2p/lib/common/session_tag.NewSessionTag&#45;&gt;(*github.com/go&#45;i2p/logger.Logger).WithField -->
<g id="edge3" class="edge">
<title>github.com/go&#45;i2p/go&#45;i2p/lib/common/session_tag.NewSessionTag&#45;&gt;(*github.com/go&#45;i2p/logger.Logger).WithField</title>
<g id="a_edge3"><a xlink:title="at session_tag.go:39: calling [(*github.com/go&#45;i2p/logger.Logger).WithField]">
<path fill="none" stroke="#8b4513" d="M131.357,-191.3561C202.7426,-176.993 322.9463,-152.8074 390.7638,-139.1622"/>
<polygon fill="#8b4513" stroke="#8b4513" points="391.667,-142.5507 400.7801,-137.1469 390.2862,-135.6883 391.667,-142.5507"/>
</a>
</g>
</g>
<!-- (*github.com/go&#45;i2p/logger.Logger).WithError -->
<g id="node7" class="node">
<title>(*github.com/go&#45;i2p/logger.Logger).WithError</title>
<g id="a_node7"><a xlink:title="(*github.com/go&#45;i2p/logger.Logger).WithError | defined in log.go:66">
<path fill="#ffe4b5" stroke="#000000" stroke-width="1.5" d="M469.8023,-208C469.8023,-208 412.7393,-208 412.7393,-208 406.7393,-208 400.7393,-202 400.7393,-196 400.7393,-196 400.7393,-184 400.7393,-184 400.7393,-178 406.7393,-172 412.7393,-172 412.7393,-172 469.8023,-172 469.8023,-172 475.8023,-172 481.8023,-178 481.8023,-184 481.8023,-184 481.8023,-196 481.8023,-196 481.8023,-202 475.8023,-208 469.8023,-208"/>
<text text-anchor="middle" x="441.2708" y="-194.2" font-family="Verdana" font-size="14.00" fill="#000000">logger</text>
<text text-anchor="middle" x="441.2708" y="-177.4" font-family="Verdana" font-size="14.00" fill="#000000">WithError</text>
</a>
</g>
</g>
<!-- github.com/go&#45;i2p/go&#45;i2p/lib/common/session_tag.NewSessionTag&#45;&gt;(*github.com/go&#45;i2p/logger.Logger).WithError -->
<g id="edge7" class="edge">
<title>github.com/go&#45;i2p/go&#45;i2p/lib/common/session_tag.NewSessionTag&#45;&gt;(*github.com/go&#45;i2p/logger.Logger).WithError</title>
<g id="a_edge7"><a xlink:title="at session_tag.go:42: calling [(*github.com/go&#45;i2p/logger.Logger).WithError]">
<path fill="none" stroke="#8b4513" d="M131.357,-200.9544C202.6464,-198.4346 322.6224,-194.1938 390.4893,-191.795"/>
<polygon fill="#8b4513" stroke="#8b4513" points="390.6454,-195.2917 400.5155,-191.4406 390.3981,-188.2961 390.6454,-195.2917"/>
</a>
</g>
</g>
<!-- (*github.com/go&#45;i2p/logger.Logger).Error -->
<g id="node8" class="node">
<title>(*github.com/go&#45;i2p/logger.Logger).Error</title>
<g id="a_node8"><a xlink:title="(*github.com/go&#45;i2p/logger.Logger).Error | defined in log.go:42">
<path fill="#ffe4b5" stroke="#000000" stroke-width="1.5" d="M459.0371,-269C459.0371,-269 423.5045,-269 423.5045,-269 417.5045,-269 411.5045,-263 411.5045,-257 411.5045,-257 411.5045,-245 411.5045,-245 411.5045,-239 417.5045,-233 423.5045,-233 423.5045,-233 459.0371,-233 459.0371,-233 465.0371,-233 471.0371,-239 471.0371,-245 471.0371,-245 471.0371,-257 471.0371,-257 471.0371,-263 465.0371,-269 459.0371,-269"/>
<text text-anchor="middle" x="441.2708" y="-255.2" font-family="Verdana" font-size="14.00" fill="#000000">logger</text>
<text text-anchor="middle" x="441.2708" y="-238.4" font-family="Verdana" font-size="14.00" fill="#000000">Error</text>
</a>
</g>
</g>
<!-- github.com/go&#45;i2p/go&#45;i2p/lib/common/session_tag.NewSessionTag&#45;&gt;(*github.com/go&#45;i2p/logger.Logger).Error -->
<g id="edge8" class="edge">
<title>github.com/go&#45;i2p/go&#45;i2p/lib/common/session_tag.NewSessionTag&#45;&gt;(*github.com/go&#45;i2p/logger.Logger).Error</title>
<g id="a_edge8"><a xlink:title="at session_tag.go:42: calling [(*github.com/go&#45;i2p/logger.Logger).Error]">
<path fill="none" stroke="#8b4513" d="M131.1251,-208.7956C189.4872,-214.897 282.2809,-225.2377 362.1614,-237 374.8823,-238.8731 388.7001,-241.2127 401.1752,-243.4398"/>
<polygon fill="#8b4513" stroke="#8b4513" points="400.8211,-246.9326 411.2849,-245.2715 402.0691,-240.0447 400.8211,-246.9326"/>
</a>
</g>
</g>
<!-- (*github.com/go&#45;i2p/logger.Logger).WithFields -->
<g id="node9" class="node">
<title>(*github.com/go&#45;i2p/logger.Logger).WithFields</title>
<g id="a_node9"><a xlink:title="(*github.com/go&#45;i2p/logger.Logger).WithFields | defined in log.go:60">
<path fill="#ffe4b5" stroke="#000000" stroke-width="1.5" d="M472.4899,-330C472.4899,-330 410.0517,-330 410.0517,-330 404.0517,-330 398.0517,-324 398.0517,-318 398.0517,-318 398.0517,-306 398.0517,-306 398.0517,-300 404.0517,-294 410.0517,-294 410.0517,-294 472.4899,-294 472.4899,-294 478.4899,-294 484.4899,-300 484.4899,-306 484.4899,-306 484.4899,-318 484.4899,-318 484.4899,-324 478.4899,-330 472.4899,-330"/>
<text text-anchor="middle" x="441.2708" y="-316.2" font-family="Verdana" font-size="14.00" fill="#000000">logger</text>
<text text-anchor="middle" x="441.2708" y="-299.4" font-family="Verdana" font-size="14.00" fill="#000000">WithFields</text>
</a>
</g>
</g>
<!-- github.com/go&#45;i2p/go&#45;i2p/lib/common/session_tag.NewSessionTag&#45;&gt;(*github.com/go&#45;i2p/logger.Logger).WithFields -->
<g id="edge1" class="edge">
<title>github.com/go&#45;i2p/go&#45;i2p/lib/common/session_tag.NewSessionTag&#45;&gt;(*github.com/go&#45;i2p/logger.Logger).WithFields</title>
<g id="a_edge1"><a xlink:title="at session_tag.go:46: calling [(*github.com/go&#45;i2p/logger.Logger).WithFields]">
<path fill="none" stroke="#8b4513" d="M131.1401,-216.2015C153.7818,-221.1681 180.0345,-226.6586 203.972,-231 257.5508,-240.7172 273.5123,-231.7524 325.1614,-249 340.6011,-254.1559 374.6188,-272.9648 401.864,-288.7001"/>
<polygon fill="#8b4513" stroke="#8b4513" points="400.4022,-291.8986 410.8074,-293.8944 403.9179,-285.8454 400.4022,-291.8986"/>
</a>
</g>
</g>
<!-- (*github.com/sirupsen/logrus.Logger).Debug -->
<g id="node10" class="node">
<title>(*github.com/sirupsen/logrus.Logger).Debug</title>
<g id="a_node10"><a xlink:title="(*github.com/sirupsen/logrus.Logger).Debug | defined in logger.go:221">
<path fill="#ffe4b5" stroke="#000000" stroke-width="1.5" d="M283.3887,-323C283.3887,-323 245.7447,-323 245.7447,-323 239.7447,-323 233.7447,-317 233.7447,-311 233.7447,-311 233.7447,-299 233.7447,-299 233.7447,-293 239.7447,-287 245.7447,-287 245.7447,-287 283.3887,-287 283.3887,-287 289.3887,-287 295.3887,-293 295.3887,-299 295.3887,-299 295.3887,-311 295.3887,-311 295.3887,-317 289.3887,-323 283.3887,-323"/>
<text text-anchor="middle" x="264.5667" y="-309.2" font-family="Verdana" font-size="14.00" fill="#000000">logrus</text>
<text text-anchor="middle" x="264.5667" y="-292.4" font-family="Verdana" font-size="14.00" fill="#000000">Debug</text>
</a>
</g>
</g>
<!-- github.com/go&#45;i2p/go&#45;i2p/lib/common/session_tag.NewSessionTag&#45;&gt;(*github.com/sirupsen/logrus.Logger).Debug -->
<g id="edge4" class="edge">
<title>github.com/go&#45;i2p/go&#45;i2p/lib/common/session_tag.NewSessionTag&#45;&gt;(*github.com/sirupsen/logrus.Logger).Debug</title>
<g id="a_edge4"><a xlink:title="at session_tag.go:39: calling [(*github.com/sirupsen/logrus.Logger).Debug]&#10;at session_tag.go:48: calling [(*github.com/sirupsen/logrus.Logger).Debug]">
<path fill="none" stroke="#8b4513" d="M99.5846,-221.1809C125.3107,-238.5699 166.1513,-264.7711 203.972,-283 210.3393,-286.0689 217.2529,-288.9626 224.0558,-291.5807"/>
<polygon fill="#8b4513" stroke="#8b4513" points="223.2736,-295.0231 233.8669,-295.2077 225.7009,-288.4573 223.2736,-295.0231"/>
</a>
</g>
</g>
<!-- (*github.com/go&#45;i2p/logger.Logger).Warn -->
<g id="node6" class="node">
<title>(*github.com/go&#45;i2p/logger.Logger).Warn</title>
<g id="a_node6"><a xlink:title="(*github.com/go&#45;i2p/logger.Logger).Warn | defined in log.go:30">
<path fill="#ffe4b5" stroke="#000000" stroke-width="1.5" d="M459.0371,-86C459.0371,-86 423.5045,-86 423.5045,-86 417.5045,-86 411.5045,-80 411.5045,-74 411.5045,-74 411.5045,-62 411.5045,-62 411.5045,-56 417.5045,-50 423.5045,-50 423.5045,-50 459.0371,-50 459.0371,-50 465.0371,-50 471.0371,-56 471.0371,-62 471.0371,-62 471.0371,-74 471.0371,-74 471.0371,-80 465.0371,-86 459.0371,-86"/>
<text text-anchor="middle" x="441.2708" y="-72.2" font-family="Verdana" font-size="14.00" fill="#000000">logger</text>
<text text-anchor="middle" x="441.2708" y="-55.4" font-family="Verdana" font-size="14.00" fill="#000000">Warn</text>
</a>
</g>
</g>
<!-- github.com/go&#45;i2p/go&#45;i2p/lib/common/session_tag.ReadSessionTag&#45;&gt;(*github.com/go&#45;i2p/logger.Logger).Warn -->
<g id="edge5" class="edge">
<title>github.com/go&#45;i2p/go&#45;i2p/lib/common/session_tag.ReadSessionTag&#45;&gt;(*github.com/go&#45;i2p/logger.Logger).Warn</title>
<g id="a_edge5"><a xlink:title="at session_tag.go:32: calling [(*github.com/go&#45;i2p/logger.Logger).Warn]">
<path fill="none" stroke="#8b4513" d="M323.4066,-96.0146C349.1185,-89.9033 378.5977,-82.8965 401.6424,-77.4191"/>
<polygon fill="#8b4513" stroke="#8b4513" points="402.4976,-80.8134 411.4172,-75.0958 400.8788,-74.0031 402.4976,-80.8134"/>
</a>
</g>
</g>
<!-- github.com/go&#45;i2p/go&#45;i2p/lib/common/session_tag.init -->
<g id="node3" class="node">
<title>github.com/go&#45;i2p/go&#45;i2p/lib/common/session_tag.init</title>
<g id="a_node3"><a xlink:title="github.com/go&#45;i2p/go&#45;i2p/lib/common/session_tag.init | defined in .:0&#10;at session_tag.go:9: calling [github.com/go&#45;i2p/logger.GetGoI2PLogger]">
<path fill="#add8e6" stroke="#000000" stroke-width=".5" d="M88.486,-55C88.486,-55 58.486,-55 58.486,-55 52.486,-55 46.486,-49 46.486,-43 46.486,-43 46.486,-31 46.486,-31 46.486,-25 52.486,-19 58.486,-19 58.486,-19 88.486,-19 88.486,-19 94.486,-19 100.486,-25 100.486,-31 100.486,-31 100.486,-43 100.486,-43 100.486,-49 94.486,-55 88.486,-55"/>
<text text-anchor="middle" x="73.486" y="-32.8" font-family="Verdana" font-size="14.00" fill="#000000">init</text>
</a>
</g>
</g>
<!-- github.com/go&#45;i2p/logger.GetGoI2PLogger -->
<g id="node4" class="node">
<title>github.com/go&#45;i2p/logger.GetGoI2PLogger</title>
<g id="a_node4"><a xlink:title="github.com/go&#45;i2p/logger.GetGoI2PLogger | defined in log.go:120">
<path fill="#ffe4b5" stroke="#000000" stroke-width="1.5" d="M313.2562,-55C313.2562,-55 215.8772,-55 215.8772,-55 209.8772,-55 203.8772,-49 203.8772,-43 203.8772,-43 203.8772,-31 203.8772,-31 203.8772,-25 209.8772,-19 215.8772,-19 215.8772,-19 313.2562,-19 313.2562,-19 319.2562,-19 325.2562,-25 325.2562,-31 325.2562,-31 325.2562,-43 325.2562,-43 325.2562,-49 319.2562,-55 313.2562,-55"/>
<text text-anchor="middle" x="264.5667" y="-41.2" font-family="Verdana" font-size="14.00" fill="#000000">logger</text>
<text text-anchor="middle" x="264.5667" y="-24.4" font-family="Verdana" font-size="14.00" fill="#000000">GetGoI2PLogger</text>
</a>
</g>
</g>
<!-- github.com/go&#45;i2p/go&#45;i2p/lib/common/session_tag.init&#45;&gt;github.com/go&#45;i2p/logger.GetGoI2PLogger -->
<g id="edge2" class="edge">
<title>github.com/go&#45;i2p/go&#45;i2p/lib/common/session_tag.init&#45;&gt;github.com/go&#45;i2p/logger.GetGoI2PLogger</title>
<g id="a_edge2"><a xlink:title="at session_tag.go:9: calling [github.com/go&#45;i2p/logger.GetGoI2PLogger]">
<path fill="none" stroke="#8b4513" d="M100.8632,-37C124.9805,-37 161.1891,-37 193.4256,-37"/>
<polygon fill="#8b4513" stroke="#8b4513" points="193.7322,-40.5001 203.7321,-37 193.7321,-33.5001 193.7322,-40.5001"/>
</a>
</g>
</g>
</g>
</svg>
