<?xml version="1.0" encoding="UTF-8" standalone="no"?>
<!DOCTYPE svg PUBLIC "-//W3C//DTD SVG 1.1//EN"
 "http://www.w3.org/Graphics/SVG/1.1/DTD/svg11.dtd">
<!-- Generated by graphviz version 2.40.1 (20161225.0304)
 -->
<!-- Title: gocallvis Pages: 1 -->
<svg width="508pt" height="384pt"
 viewBox="0.00 0.00 508.38 384.00" xmlns="http://www.w3.org/2000/svg" xmlns:xlink="http://www.w3.org/1999/xlink">
<g id="graph0" class="graph" transform="scale(1 1) rotate(0) translate(0 384)">
<title>gocallvis</title>
<polygon fill="#d3d3d3" stroke="transparent" points="0,0 0,-384 508.3802,-384 508.3802,0 0,0"/>
<g id="clust1" class="cluster">
<title>cluster_focus</title>
<polygon fill="#e6ecfa" stroke="#000000" stroke-width=".5" points="8,-8 8,-376 500.3802,-376 500.3802,-8 8,-8"/>
<text text-anchor="middle" x="254.1901" y="-355.8" font-family="Arial" font-size="18.00" fill="#000000">session_tag</text>
</g>
<g id="clust3" class="cluster">
<title>cluster_*github.com/sirupsen/logrus.Logger</title>
<g id="a_clust3"><a xlink:title="type: *github.com/sirupsen/logrus.Logger">
<path fill="#eed8ae" stroke="#000000" stroke-width=".5" d="M237.9061,-207C237.9061,-207 292.2273,-207 292.2273,-207 298.2273,-207 304.2273,-213 304.2273,-219 304.2273,-219 304.2273,-273 304.2273,-273 304.2273,-279 298.2273,-285 292.2273,-285 292.2273,-285 237.9061,-285 237.9061,-285 231.9061,-285 225.9061,-279 225.9061,-273 225.9061,-273 225.9061,-219 225.9061,-219 225.9061,-213 231.9061,-207 237.9061,-207"/>
<text text-anchor="middle" x="265.0667" y="-215.5" font-family="Arial" font-size="15.00" fill="#222222">(*Logger)</text>
</a>
</g>
</g>
<g id="clust2" class="cluster">
<title>cluster_*github.com/go&#45;i2p/logger.Logger</title>
<g id="a_clust2"><a xlink:title="type: *github.com/go&#45;i2p/logger.Logger">
<path fill="#eed8ae" stroke="#000000" stroke-width=".5" d="M402.1614,-16C402.1614,-16 480.3802,-16 480.3802,-16 486.3802,-16 492.3802,-22 492.3802,-28 492.3802,-28 492.3802,-326 492.3802,-326 492.3802,-332 486.3802,-338 480.3802,-338 480.3802,-338 402.1614,-338 402.1614,-338 396.1614,-338 390.1614,-332 390.1614,-326 390.1614,-326 390.1614,-28 390.1614,-28 390.1614,-22 396.1614,-16 402.1614,-16"/>
<text text-anchor="middle" x="441.2708" y="-24.5" font-family="Arial" font-size="15.00" fill="#222222">(*Logger)</text>
</a>
</g>
</g>
<!-- github.com/go&#45;i2p/go&#45;i2p/lib/common/session_tag.ReadSessionTag -->
<g id="node1" class="node">
<title>github.com/go&#45;i2p/go&#45;i2p/lib/common/session_tag.ReadSessionTag</title>
<g id="a_node1"><a xlink:title="github.com/go&#45;i2p/go&#45;i2p/lib/common/session_tag.ReadSessionTag | defined in session_tag.go:30&#10;at session_tag.go:32: calling [(*github.com/go&#45;i2p/logger.Logger).Warn]">
<path fill="#add8e6" stroke="#000000" stroke-width="1.5" d="M311.3771,-89C311.3771,-89 217.7563,-89 217.7563,-89 211.7563,-89 205.7563,-83 205.7563,-77 205.7563,-77 205.7563,-65 205.7563,-65 205.7563,-59 211.7563,-53 217.7563,-53 217.7563,-53 311.3771,-53 311.3771,-53 317.3771,-53 323.3771,-59 323.3771,-65 323.3771,-65 323.3771,-77 323.3771,-77 323.3771,-83 317.3771,-89 311.3771,-89"/>
<text text-anchor="middle" x="264.5667" y="-66.8" font-family="Verdana" font-size="14.00" fill="#000000">ReadSessionTag</text>
</a>
</g>
</g>
<!-- (*github.com/go&#45;i2p/logger.Logger).Warn -->
<g id="node5" class="node">
<title>(*github.com/go&#45;i2p/logger.Logger).Warn</title>
<g id="a_node5"><a xlink:title="(*github.com/go&#45;i2p/logger.Logger).Warn | defined in log.go:30">
<path fill="#ffe4b5" stroke="#000000" stroke-width="1.5" d="M459.0371,-86C459.0371,-86 423.5045,-86 423.5045,-86 417.5045,-86 411.5045,-80 411.5045,-74 411.5045,-74 411.5045,-62 411.5045,-62 411.5045,-56 417.5045,-50 423.5045,-50 423.5045,-50 459.0371,-50 459.0371,-50 465.0371,-50 471.0371,-56 471.0371,-62 471.0371,-62 471.0371,-74 471.0371,-74 471.0371,-80 465.0371,-86 459.0371,-86"/>
<text text-anchor="middle" x="441.2708" y="-72.2" font-family="Verdana" font-size="14.00" fill="#000000">logger</text>
<text text-anchor="middle" x="441.2708" y="-55.4" font-family="Verdana" font-size="14.00" fill="#000000">Warn</text>
</a>
</g>
</g>
<!-- github.com/go&#45;i2p/go&#45;i2p/lib/common/session_tag.ReadSessionTag&#45;&gt;(*github.com/go&#45;i2p/logger.Logger).Warn -->
<g id="edge5" class="edge">
<title>github.com/go&#45;i2p/go&#45;i2p/lib/common/session_tag.ReadSessionTag&#45;&gt;(*github.com/go&#45;i2p/logger.Logger).Warn</title>
<g id="a_edge5"><a xlink:title="at session_tag.go:32: calling [(*github.com/go&#45;i2p/logger.Logger).Warn]">
<path fill="none" stroke="#8b4513" d="M323.4066,-70.001C349.0032,-69.5665 378.3334,-69.0685 401.332,-68.6781"/>
<polygon fill="#8b4513" stroke="#8b4513" points="401.4781,-72.1762 411.4172,-68.5068 401.3592,-65.1772 401.4781,-72.1762"/>
</a>
</g>
</g>
<!-- github.com/go&#45;i2p/go&#45;i2p/lib/common/session_tag.init -->
<g id="node2" class="node">
<title>github.com/go&#45;i2p/go&#45;i2p/lib/common/session_tag.init</title>
<g id="a_node2"><a xlink:title="github.com/go&#45;i2p/go&#45;i2p/lib/common/session_tag.init | defined in .:0&#10;at session_tag.go:9: calling [github.com/go&#45;i2p/logger.GetGoI2PLogger]">
<path fill="#add8e6" stroke="#000000" stroke-width=".5" d="M88.486,-338C88.486,-338 58.486,-338 58.486,-338 52.486,-338 46.486,-332 46.486,-326 46.486,-326 46.486,-314 46.486,-314 46.486,-308 52.486,-302 58.486,-302 58.486,-302 88.486,-302 88.486,-302 94.486,-302 100.486,-308 100.486,-314 100.486,-314 100.486,-326 100.486,-326 100.486,-332 94.486,-338 88.486,-338"/>
<text text-anchor="middle" x="73.486" y="-315.8" font-family="Verdana" font-size="14.00" fill="#000000">init</text>
</a>
</g>
</g>
<!-- github.com/go&#45;i2p/logger.GetGoI2PLogger -->
<g id="node3" class="node">
<title>github.com/go&#45;i2p/logger.GetGoI2PLogger</title>
<g id="a_node3"><a xlink:title="github.com/go&#45;i2p/logger.GetGoI2PLogger | defined in log.go:120">
<path fill="#ffe4b5" stroke="#000000" stroke-width="1.5" d="M313.2562,-338C313.2562,-338 215.8772,-338 215.8772,-338 209.8772,-338 203.8772,-332 203.8772,-326 203.8772,-326 203.8772,-314 203.8772,-314 203.8772,-308 209.8772,-302 215.8772,-302 215.8772,-302 313.2562,-302 313.2562,-302 319.2562,-302 325.2562,-308 325.2562,-314 325.2562,-314 325.2562,-326 325.2562,-326 325.2562,-332 319.2562,-338 313.2562,-338"/>
<text text-anchor="middle" x="264.5667" y="-324.2" font-family="Verdana" font-size="14.00" fill="#000000">logger</text>
<text text-anchor="middle" x="264.5667" y="-307.4" font-family="Verdana" font-size="14.00" fill="#000000">GetGoI2PLogger</text>
</a>
</g>
</g>
<!-- github.com/go&#45;i2p/go&#45;i2p/lib/common/session_tag.init&#45;&gt;github.com/go&#45;i2p/logger.GetGoI2PLogger -->
<g id="edge6" class="edge">
<title>github.com/go&#45;i2p/go&#45;i2p/lib/common/session_tag.init&#45;&gt;github.com/go&#45;i2p/logger.GetGoI2PLogger</title>
<g id="a_edge6"><a xlink:title="at session_tag.go:9: calling [github.com/go&#45;i2p/logger.GetGoI2PLogger]">
<path fill="none" stroke="#8b4513" d="M100.8632,-320C124.9805,-320 161.1891,-320 193.4256,-320"/>
<polygon fill="#8b4513" stroke="#8b4513" points="193.7322,-323.5001 203.7321,-320 193.7321,-316.5001 193.7322,-323.5001"/>
</a>
</g>
</g>
<!-- github.com/go&#45;i2p/go&#45;i2p/lib/common/session_tag.NewSessionTag -->
<g id="node4" class="node">
<title>github.com/go&#45;i2p/go&#45;i2p/lib/common/session_tag.NewSessionTag</title>
<g id="a_node4"><a xlink:title="github.com/go&#45;i2p/go&#45;i2p/lib/common/session_tag.NewSessionTag | defined in session_tag.go:38&#10;at session_tag.go:40: calling [github.com/go&#45;i2p/go&#45;i2p/lib/common/session_tag.ReadSessionTag]&#10;at session_tag.go:42: calling [(*github.com/go&#45;i2p/logger.Logger).WithError]&#10;at session_tag.go:42: calling [(*github.com/go&#45;i2p/logger.Logger).Error]&#10;at session_tag.go:46: calling [(*github.com/go&#45;i2p/logger.Logger).WithFields]&#10;at session_tag.go:39: calling [(*github.com/go&#45;i2p/logger.Logger).WithField]&#10;at session_tag.go:39: calling [(*github.com/sirupsen/logrus.Logger).Debug]&#10;at session_tag.go:48: calling [(*github.com/sirupsen/logrus.Logger).Debug]">
<path fill="#add8e6" stroke="#000000" stroke-width="1.5" d="M118.958,-175C118.958,-175 28.014,-175 28.014,-175 22.014,-175 16.014,-169 16.014,-163 16.014,-163 16.014,-151 16.014,-151 16.014,-145 22.014,-139 28.014,-139 28.014,-139 118.958,-139 118.958,-139 124.958,-139 130.958,-145 130.958,-151 130.958,-151 130.958,-163 130.958,-163 130.958,-169 124.958,-175 118.958,-175"/>
<text text-anchor="middle" x="73.486" y="-152.8" font-family="Verdana" font-size="14.00" fill="#000000">NewSessionTag</text>
</a>
</g>
</g>
<!-- github.com/go&#45;i2p/go&#45;i2p/lib/common/session_tag.NewSessionTag&#45;&gt;github.com/go&#45;i2p/go&#45;i2p/lib/common/session_tag.ReadSessionTag -->
<g id="edge1" class="edge">
<title>github.com/go&#45;i2p/go&#45;i2p/lib/common/session_tag.NewSessionTag&#45;&gt;github.com/go&#45;i2p/go&#45;i2p/lib/common/session_tag.ReadSessionTag</title>
<g id="a_edge1"><a xlink:title="at session_tag.go:40: calling [github.com/go&#45;i2p/go&#45;i2p/lib/common/session_tag.ReadSessionTag]">
<path fill="none" stroke="#000000" d="M107.7754,-138.8764C125.3106,-129.8351 147.0943,-118.9486 166.972,-110 179.9588,-104.1535 194.099,-98.2467 207.4821,-92.8597"/>
<polygon fill="#000000" stroke="#000000" points="209.074,-95.9929 217.0659,-89.0373 206.4808,-89.491 209.074,-95.9929"/>
</a>
</g>
</g>
<!-- (*github.com/go&#45;i2p/logger.Logger).WithField -->
<g id="node6" class="node">
<title>(*github.com/go&#45;i2p/logger.Logger).WithField</title>
<g id="a_node6"><a xlink:title="(*github.com/go&#45;i2p/logger.Logger).WithField | defined in log.go:54">
<path fill="#ffe4b5" stroke="#000000" stroke-width="1.5" d="M469.5453,-147C469.5453,-147 412.9963,-147 412.9963,-147 406.9963,-147 400.9963,-141 400.9963,-135 400.9963,-135 400.9963,-123 400.9963,-123 400.9963,-117 406.9963,-111 412.9963,-111 412.9963,-111 469.5453,-111 469.5453,-111 475.5453,-111 481.5453,-117 481.5453,-123 481.5453,-123 481.5453,-135 481.5453,-135 481.5453,-141 475.5453,-147 469.5453,-147"/>
<text text-anchor="middle" x="441.2708" y="-133.2" font-family="Verdana" font-size="14.00" fill="#000000">logger</text>
<text text-anchor="middle" x="441.2708" y="-116.4" font-family="Verdana" font-size="14.00" fill="#000000">WithField</text>
</a>
</g>
</g>
<!-- github.com/go&#45;i2p/go&#45;i2p/lib/common/session_tag.NewSessionTag&#45;&gt;(*github.com/go&#45;i2p/logger.Logger).WithField -->
<g id="edge7" class="edge">
<title>github.com/go&#45;i2p/go&#45;i2p/lib/common/session_tag.NewSessionTag&#45;&gt;(*github.com/go&#45;i2p/logger.Logger).WithField</title>
<g id="a_edge7"><a xlink:title="at session_tag.go:39: calling [(*github.com/go&#45;i2p/logger.Logger).WithField]">
<path fill="none" stroke="#8b4513" d="M131.0584,-142.9712C142.8716,-140.5766 155.2725,-138.4102 166.972,-137 244.5117,-127.6536 335.2259,-126.9969 390.4445,-127.7334"/>
<polygon fill="#8b4513" stroke="#8b4513" points="390.6126,-131.2363 400.6655,-127.8912 390.7207,-124.2372 390.6126,-131.2363"/>
</a>
</g>
</g>
<!-- (*github.com/go&#45;i2p/logger.Logger).WithError -->
<g id="node7" class="node">
<title>(*github.com/go&#45;i2p/logger.Logger).WithError</title>
<g id="a_node7"><a xlink:title="(*github.com/go&#45;i2p/logger.Logger).WithError | defined in log.go:66">
<path fill="#ffe4b5" stroke="#000000" stroke-width="1.5" d="M469.8023,-208C469.8023,-208 412.7393,-208 412.7393,-208 406.7393,-208 400.7393,-202 400.7393,-196 400.7393,-196 400.7393,-184 400.7393,-184 400.7393,-178 406.7393,-172 412.7393,-172 412.7393,-172 469.8023,-172 469.8023,-172 475.8023,-172 481.8023,-178 481.8023,-184 481.8023,-184 481.8023,-196 481.8023,-196 481.8023,-202 475.8023,-208 469.8023,-208"/>
<text text-anchor="middle" x="441.2708" y="-194.2" font-family="Verdana" font-size="14.00" fill="#000000">logger</text>
<text text-anchor="middle" x="441.2708" y="-177.4" font-family="Verdana" font-size="14.00" fill="#000000">WithError</text>
</a>
</g>
</g>
<!-- github.com/go&#45;i2p/go&#45;i2p/lib/common/session_tag.NewSessionTag&#45;&gt;(*github.com/go&#45;i2p/logger.Logger).WithError -->
<g id="edge2" class="edge">
<title>github.com/go&#45;i2p/go&#45;i2p/lib/common/session_tag.NewSessionTag&#45;&gt;(*github.com/go&#45;i2p/logger.Logger).WithError</title>
<g id="a_edge2"><a xlink:title="at session_tag.go:42: calling [(*github.com/go&#45;i2p/logger.Logger).WithError]">
<path fill="none" stroke="#8b4513" d="M131.2039,-153.4715C189.8248,-151.0372 282.9951,-150.338 362.1614,-164 371.5718,-165.624 381.3929,-168.1409 390.7862,-170.9819"/>
<polygon fill="#8b4513" stroke="#8b4513" points="389.7944,-174.3392 400.3849,-174.0359 391.9168,-167.6687 389.7944,-174.3392"/>
</a>
</g>
</g>
<!-- (*github.com/go&#45;i2p/logger.Logger).Error -->
<g id="node8" class="node">
<title>(*github.com/go&#45;i2p/logger.Logger).Error</title>
<g id="a_node8"><a xlink:title="(*github.com/go&#45;i2p/logger.Logger).Error | defined in log.go:42">
<path fill="#ffe4b5" stroke="#000000" stroke-width="1.5" d="M459.0371,-269C459.0371,-269 423.5045,-269 423.5045,-269 417.5045,-269 411.5045,-263 411.5045,-257 411.5045,-257 411.5045,-245 411.5045,-245 411.5045,-239 417.5045,-233 423.5045,-233 423.5045,-233 459.0371,-233 459.0371,-233 465.0371,-233 471.0371,-239 471.0371,-245 471.0371,-245 471.0371,-257 471.0371,-257 471.0371,-263 465.0371,-269 459.0371,-269"/>
<text text-anchor="middle" x="441.2708" y="-255.2" font-family="Verdana" font-size="14.00" fill="#000000">logger</text>
<text text-anchor="middle" x="441.2708" y="-238.4" font-family="Verdana" font-size="14.00" fill="#000000">Error</text>
</a>
</g>
</g>
<!-- github.com/go&#45;i2p/go&#45;i2p/lib/common/session_tag.NewSessionTag&#45;&gt;(*github.com/go&#45;i2p/logger.Logger).Error -->
<g id="edge3" class="edge">
<title>github.com/go&#45;i2p/go&#45;i2p/lib/common/session_tag.NewSessionTag&#45;&gt;(*github.com/go&#45;i2p/logger.Logger).Error</title>
<g id="a_edge3"><a xlink:title="at session_tag.go:42: calling [(*github.com/go&#45;i2p/logger.Logger).Error]">
<path fill="none" stroke="#8b4513" d="M130.9975,-159.1129C203.3633,-162.5668 322.9335,-171.1449 362.1614,-191 378.4342,-199.2364 375.9262,-209.5982 390.1614,-221 394.1252,-224.1748 398.4605,-227.2407 402.8767,-230.1215"/>
<polygon fill="#8b4513" stroke="#8b4513" points="401.0515,-233.108 411.3925,-235.4135 404.7463,-227.1625 401.0515,-233.108"/>
</a>
</g>
</g>
<!-- (*github.com/go&#45;i2p/logger.Logger).WithFields -->
<g id="node9" class="node">
<title>(*github.com/go&#45;i2p/logger.Logger).WithFields</title>
<g id="a_node9"><a xlink:title="(*github.com/go&#45;i2p/logger.Logger).WithFields | defined in log.go:60">
<path fill="#ffe4b5" stroke="#000000" stroke-width="1.5" d="M472.4899,-330C472.4899,-330 410.0517,-330 410.0517,-330 404.0517,-330 398.0517,-324 398.0517,-318 398.0517,-318 398.0517,-306 398.0517,-306 398.0517,-300 404.0517,-294 410.0517,-294 410.0517,-294 472.4899,-294 472.4899,-294 478.4899,-294 484.4899,-300 484.4899,-306 484.4899,-306 484.4899,-318 484.4899,-318 484.4899,-324 478.4899,-330 472.4899,-330"/>
<text text-anchor="middle" x="441.2708" y="-316.2" font-family="Verdana" font-size="14.00" fill="#000000">logger</text>
<text text-anchor="middle" x="441.2708" y="-299.4" font-family="Verdana" font-size="14.00" fill="#000000">WithFields</text>
</a>
</g>
</g>
<!-- github.com/go&#45;i2p/go&#45;i2p/lib/common/session_tag.NewSessionTag&#45;&gt;(*github.com/go&#45;i2p/logger.Logger).WithFields -->
<g id="edge4" class="edge">
<title>github.com/go&#45;i2p/go&#45;i2p/lib/common/session_tag.NewSessionTag&#45;&gt;(*github.com/go&#45;i2p/logger.Logger).WithFields</title>
<g id="a_edge4"><a xlink:title="at session_tag.go:46: calling [(*github.com/go&#45;i2p/logger.Logger).WithFields]">
<path fill="none" stroke="#8b4513" d="M131.2291,-166.525C202.9067,-178.5 316.8096,-198.0892 325.1614,-203 364.3561,-226.0464 355.5781,-252.4814 390.1614,-282 392.6656,-284.1375 395.3424,-286.2094 398.1094,-288.1986"/>
<polygon fill="#8b4513" stroke="#8b4513" points="396.3464,-291.2306 406.599,-293.9015 400.2497,-285.4199 396.3464,-291.2306"/>
</a>
</g>
</g>
<!-- (*github.com/sirupsen/logrus.Logger).Debug -->
<g id="node10" class="node">
<title>(*github.com/sirupsen/logrus.Logger).Debug</title>
<g id="a_node10"><a xlink:title="(*github.com/sirupsen/logrus.Logger).Debug | defined in logger.go:221">
<path fill="#ffe4b5" stroke="#000000" stroke-width="1.5" d="M283.3887,-277C283.3887,-277 245.7447,-277 245.7447,-277 239.7447,-277 233.7447,-271 233.7447,-265 233.7447,-265 233.7447,-253 233.7447,-253 233.7447,-247 239.7447,-241 245.7447,-241 245.7447,-241 283.3887,-241 283.3887,-241 289.3887,-241 295.3887,-247 295.3887,-253 295.3887,-253 295.3887,-265 295.3887,-265 295.3887,-271 289.3887,-277 283.3887,-277"/>
<text text-anchor="middle" x="264.5667" y="-263.2" font-family="Verdana" font-size="14.00" fill="#000000">logrus</text>
<text text-anchor="middle" x="264.5667" y="-246.4" font-family="Verdana" font-size="14.00" fill="#000000">Debug</text>
</a>
</g>
</g>
<!-- github.com/go&#45;i2p/go&#45;i2p/lib/common/session_tag.NewSessionTag&#45;&gt;(*github.com/sirupsen/logrus.Logger).Debug -->
<g id="edge8" class="edge">
<title>github.com/go&#45;i2p/go&#45;i2p/lib/common/session_tag.NewSessionTag&#45;&gt;(*github.com/sirupsen/logrus.Logger).Debug</title>
<g id="a_edge8"><a xlink:title="at session_tag.go:39: calling [(*github.com/sirupsen/logrus.Logger).Debug]&#10;at session_tag.go:48: calling [(*github.com/sirupsen/logrus.Logger).Debug]">
<path fill="none" stroke="#8b4513" d="M99.5846,-175.1809C125.3107,-192.5699 166.1513,-218.7711 203.972,-237 210.3393,-240.0689 217.2529,-242.9626 224.0558,-245.5807"/>
<polygon fill="#8b4513" stroke="#8b4513" points="223.2736,-249.0231 233.8669,-249.2077 225.7009,-242.4573 223.2736,-249.0231"/>
</a>
</g>
</g>
</g>
</svg>
