<?xml version="1.0" encoding="UTF-8" standalone="no"?>
<!DOCTYPE svg PUBLIC "-//W3C//DTD SVG 1.1//EN"
 "http://www.w3.org/Graphics/SVG/1.1/DTD/svg11.dtd">
<!-- Generated by graphviz version 2.40.1 (20161225.0304)
 -->
<!-- Title: gocallvis Pages: 1 -->
<svg width="326pt" height="141pt"
 viewBox="0.00 0.00 325.50 141.00" xmlns="http://www.w3.org/2000/svg" xmlns:xlink="http://www.w3.org/1999/xlink">
<g id="graph0" class="graph" transform="scale(1 1) rotate(0) translate(0 141)">
<title>gocallvis</title>
<polygon fill="#d3d3d3" stroke="transparent" points="0,0 0,-141 325.505,-141 325.505,0 0,0"/>
<g id="clust1" class="cluster">
<title>cluster_focus</title>
<polygon fill="#e6ecfa" stroke="#000000" stroke-width=".5" points="8,-8 8,-133 317.505,-133 317.505,-8 8,-8"/>
<text text-anchor="middle" x="162.7525" y="-112.8" font-family="Arial" font-size="18.00" fill="#000000">exportable</text>
</g>
<g id="clust2" class="cluster">
<title>cluster_github.com/go&#45;i2p/go&#45;i2p/lib/i2np</title>
<g id="a_clust2"><a xlink:href="/?f=github.com/go-i2p/go-i2p/lib/i2np" xlink:title="package: github.com/go&#45;i2p/go&#45;i2p/lib/i2np">
<polygon fill="#ffffe0" stroke="#000000" stroke-width=".8" points="135,-16 135,-95 309.505,-95 309.505,-16 135,-16"/>
<text text-anchor="middle" x="222.2525" y="-76.6" font-family="Tahoma bold" font-size="16.00" fill="#000000">i2np</text>
</a>
</g>
</g>
<!-- github.com/go&#45;i2p/go&#45;i2p/lib/i2np/fuzz/header.Fuzz -->
<g id="node1" class="node">
<title>github.com/go&#45;i2p/go&#45;i2p/lib/i2np/fuzz/header.Fuzz</title>
<g id="a_node1"><a xlink:title="github.com/go&#45;i2p/go&#45;i2p/lib/i2np/fuzz/header.Fuzz | defined in fuzz.go:5&#10;at fuzz.go:6: calling [github.com/go&#45;i2p/go&#45;i2p/lib/i2np.ReadI2NPNTCPHeader]">
<path fill="#add8e6" stroke="#000000" stroke-width="1.5" d="M58,-60C58,-60 28,-60 28,-60 22,-60 16,-54 16,-48 16,-48 16,-36 16,-36 16,-30 22,-24 28,-24 28,-24 58,-24 58,-24 64,-24 70,-30 70,-36 70,-36 70,-48 70,-48 70,-54 64,-60 58,-60"/>
<text text-anchor="middle" x="43" y="-37.8" font-family="Verdana" font-size="14.00" fill="#000000">Fuzz</text>
</a>
</g>
</g>
<!-- github.com/go&#45;i2p/go&#45;i2p/lib/i2np.ReadI2NPNTCPHeader -->
<g id="node2" class="node">
<title>github.com/go&#45;i2p/go&#45;i2p/lib/i2np.ReadI2NPNTCPHeader</title>
<g id="a_node2"><a xlink:title="github.com/go&#45;i2p/go&#45;i2p/lib/i2np.ReadI2NPNTCPHeader | defined in header.go:97">
<path fill="#ffe4b5" stroke="#000000" stroke-width="1.5" d="M289.2583,-60C289.2583,-60 155.2467,-60 155.2467,-60 149.2467,-60 143.2467,-54 143.2467,-48 143.2467,-48 143.2467,-36 143.2467,-36 143.2467,-30 149.2467,-24 155.2467,-24 155.2467,-24 289.2583,-24 289.2583,-24 295.2583,-24 301.2583,-30 301.2583,-36 301.2583,-36 301.2583,-48 301.2583,-48 301.2583,-54 295.2583,-60 289.2583,-60"/>
<text text-anchor="middle" x="222.2525" y="-37.8" font-family="Verdana" font-size="14.00" fill="#000000">ReadI2NPNTCPHeader</text>
</a>
</g>
</g>
<!-- github.com/go&#45;i2p/go&#45;i2p/lib/i2np/fuzz/header.Fuzz&#45;&gt;github.com/go&#45;i2p/go&#45;i2p/lib/i2np.ReadI2NPNTCPHeader -->
<g id="edge1" class="edge">
<title>github.com/go&#45;i2p/go&#45;i2p/lib/i2np/fuzz/header.Fuzz&#45;&gt;github.com/go&#45;i2p/go&#45;i2p/lib/i2np.ReadI2NPNTCPHeader</title>
<g id="a_edge1"><a xlink:title="at fuzz.go:6: calling [github.com/go&#45;i2p/go&#45;i2p/lib/i2np.ReadI2NPNTCPHeader]">
<path fill="none" stroke="#8b4513" d="M70.2246,-42C87.2023,-42 110.1106,-42 132.9875,-42"/>
<polygon fill="#8b4513" stroke="#8b4513" points="133.1223,-45.5001 143.1222,-42 133.1222,-38.5001 133.1223,-45.5001"/>
</a>
</g>
</g>
</g>
</svg>
