<?xml version="1.0" encoding="UTF-8" standalone="no"?>
<!DOCTYPE svg PUBLIC "-//W3C//DTD SVG 1.1//EN"
 "http://www.w3.org/Graphics/SVG/1.1/DTD/svg11.dtd">
<!-- Generated by graphviz version 2.40.1 (20161225.0304)
 -->
<!-- Title: gocallvis Pages: 1 -->
<svg width="303pt" height="349pt"
 viewBox="0.00 0.00 303.20 349.00" xmlns="http://www.w3.org/2000/svg" xmlns:xlink="http://www.w3.org/1999/xlink">
<g id="graph0" class="graph" transform="scale(1 1) rotate(0) translate(0 349)">
<title>gocallvis</title>
<polygon fill="#d3d3d3" stroke="transparent" points="0,0 0,-349 303.202,-349 303.202,0 0,0"/>
<g id="clust1" class="cluster">
<title>cluster_focus</title>
<polygon fill="#e6ecfa" stroke="#000000" stroke-width=".5" points="8,-8 8,-341 295.202,-341 295.202,-8 8,-8"/>
<text text-anchor="middle" x="151.601" y="-320.8" font-family="Arial" font-size="18.00" fill="#000000">exportable</text>
</g>
<g id="clust2" class="cluster">
<title>cluster_github.com/go&#45;i2p/go&#45;i2p/lib/common/keys_and_cert</title>
<g id="a_clust2"><a xlink:href="/?f=github.com/go-i2p/go-i2p/lib/common/keys_and_cert" xlink:title="package: github.com/go&#45;i2p/go&#45;i2p/lib/common/keys_and_cert">
<polygon fill="#ffffe0" stroke="#000000" stroke-width=".8" points="128.5386,-16 128.5386,-303 287.202,-303 287.202,-16 128.5386,-16"/>
<text text-anchor="middle" x="207.8703" y="-284.6" font-family="Tahoma bold" font-size="16.00" fill="#000000">keys_and_cert</text>
</a>
</g>
</g>
<g id="clust3" class="cluster">
<title>cluster_*github.com/go&#45;i2p/go&#45;i2p/lib/common/keys_and_cert.KeysAndCert</title>
<g id="a_clust3"><a xlink:href="/?f=github.com/go-i2p/go-i2p/lib/common/keys_and_cert" xlink:title="type: *github.com/go&#45;i2p/go&#45;i2p/lib/common/keys_and_cert.KeysAndCert">
<path fill="#eed8ae" stroke="#000000" stroke-width=".5" d="M148.5386,-68C148.5386,-68 267.202,-68 267.202,-68 273.202,-68 279.202,-74 279.202,-80 279.202,-80 279.202,-256 279.202,-256 279.202,-262 273.202,-268 267.202,-268 267.202,-268 148.5386,-268 148.5386,-268 142.5386,-268 136.5386,-262 136.5386,-256 136.5386,-256 136.5386,-80 136.5386,-80 136.5386,-74 142.5386,-68 148.5386,-68"/>
<text text-anchor="middle" x="207.8703" y="-76.5" font-family="Tahoma bold" font-size="15.00" fill="#222222">(*KeysAndCert)</text>
</a>
</g>
</g>
<!-- github.com/go&#45;i2p/go&#45;i2p/lib/common/fuzz/keys_and_cert.Fuzz -->
<g id="node1" class="node">
<title>github.com/go&#45;i2p/go&#45;i2p/lib/common/fuzz/keys_and_cert.Fuzz</title>
<g id="a_node1"><a xlink:title="github.com/go&#45;i2p/go&#45;i2p/lib/common/fuzz/keys_and_cert.Fuzz | defined in fuzz.go:5&#10;at fuzz.go:6: calling [github.com/go&#45;i2p/go&#45;i2p/lib/common/keys_and_cert.ReadKeysAndCert]&#10;at fuzz.go:7: calling [(*github.com/go&#45;i2p/go&#45;i2p/lib/common/keys_and_cert.KeysAndCert).Certificate]&#10;at fuzz.go:8: calling [(*github.com/go&#45;i2p/go&#45;i2p/lib/common/keys_and_cert.KeysAndCert).PublicKey]&#10;at fuzz.go:9: calling [(*github.com/go&#45;i2p/go&#45;i2p/lib/common/keys_and_cert.KeysAndCert).SigningPublicKey]">
<path fill="#add8e6" stroke="#000000" stroke-width="1.5" d="M58,-168C58,-168 28,-168 28,-168 22,-168 16,-162 16,-156 16,-156 16,-144 16,-144 16,-138 22,-132 28,-132 28,-132 58,-132 58,-132 64,-132 70,-138 70,-144 70,-144 70,-156 70,-156 70,-162 64,-168 58,-168"/>
<text text-anchor="middle" x="43" y="-145.8" font-family="Verdana" font-size="14.00" fill="#000000">Fuzz</text>
</a>
</g>
</g>
<!-- github.com/go&#45;i2p/go&#45;i2p/lib/common/keys_and_cert.ReadKeysAndCert -->
<g id="node2" class="node">
<title>github.com/go&#45;i2p/go&#45;i2p/lib/common/keys_and_cert.ReadKeysAndCert</title>
<g id="a_node2"><a xlink:title="github.com/go&#45;i2p/go&#45;i2p/lib/common/keys_and_cert.ReadKeysAndCert | defined in keys_and_cert.go:142">
<path fill="#ffe4b5" stroke="#000000" stroke-width="1.5" d="M260.6112,-60C260.6112,-60 155.1294,-60 155.1294,-60 149.1294,-60 143.1294,-54 143.1294,-48 143.1294,-48 143.1294,-36 143.1294,-36 143.1294,-30 149.1294,-24 155.1294,-24 155.1294,-24 260.6112,-24 260.6112,-24 266.6112,-24 272.6112,-30 272.6112,-36 272.6112,-36 272.6112,-48 272.6112,-48 272.6112,-54 266.6112,-60 260.6112,-60"/>
<text text-anchor="middle" x="207.8703" y="-37.8" font-family="Verdana" font-size="14.00" fill="#000000">ReadKeysAndCert</text>
</a>
</g>
</g>
<!-- github.com/go&#45;i2p/go&#45;i2p/lib/common/fuzz/keys_and_cert.Fuzz&#45;&gt;github.com/go&#45;i2p/go&#45;i2p/lib/common/keys_and_cert.ReadKeysAndCert -->
<g id="edge1" class="edge">
<title>github.com/go&#45;i2p/go&#45;i2p/lib/common/fuzz/keys_and_cert.Fuzz&#45;&gt;github.com/go&#45;i2p/go&#45;i2p/lib/common/keys_and_cert.ReadKeysAndCert</title>
<g id="a_edge1"><a xlink:title="at fuzz.go:6: calling [github.com/go&#45;i2p/go&#45;i2p/lib/common/keys_and_cert.ReadKeysAndCert]">
<path fill="none" stroke="#8b4513" d="M56.3722,-131.7759C71.6819,-112.1993 98.5469,-81.5446 128.5386,-64 130.2503,-62.9987 132.0096,-62.0412 133.8061,-61.1259"/>
<polygon fill="#8b4513" stroke="#8b4513" points="135.4178,-64.2375 143.0527,-56.8917 132.5034,-57.873 135.4178,-64.2375"/>
</a>
</g>
</g>
<!-- (*github.com/go&#45;i2p/go&#45;i2p/lib/common/keys_and_cert.KeysAndCert).Certificate -->
<g id="node3" class="node">
<title>(*github.com/go&#45;i2p/go&#45;i2p/lib/common/keys_and_cert.KeysAndCert).Certificate</title>
<g id="a_node3"><a xlink:title="(*github.com/go&#45;i2p/go&#45;i2p/lib/common/keys_and_cert.KeysAndCert).Certificate | defined in keys_and_cert.go:136">
<path fill="#ffe4b5" stroke="#000000" stroke-width="1.5" d="M237.4489,-138C237.4489,-138 178.2917,-138 178.2917,-138 172.2917,-138 166.2917,-132 166.2917,-126 166.2917,-126 166.2917,-114 166.2917,-114 166.2917,-108 172.2917,-102 178.2917,-102 178.2917,-102 237.4489,-102 237.4489,-102 243.4489,-102 249.4489,-108 249.4489,-114 249.4489,-114 249.4489,-126 249.4489,-126 249.4489,-132 243.4489,-138 237.4489,-138"/>
<text text-anchor="middle" x="207.8703" y="-115.8" font-family="Verdana" font-size="14.00" fill="#000000">Certificate</text>
</a>
</g>
</g>
<!-- github.com/go&#45;i2p/go&#45;i2p/lib/common/fuzz/keys_and_cert.Fuzz&#45;&gt;(*github.com/go&#45;i2p/go&#45;i2p/lib/common/keys_and_cert.KeysAndCert).Certificate -->
<g id="edge2" class="edge">
<title>github.com/go&#45;i2p/go&#45;i2p/lib/common/fuzz/keys_and_cert.Fuzz&#45;&gt;(*github.com/go&#45;i2p/go&#45;i2p/lib/common/keys_and_cert.KeysAndCert).Certificate</title>
<g id="a_edge2"><a xlink:title="at fuzz.go:7: calling [(*github.com/go&#45;i2p/go&#45;i2p/lib/common/keys_and_cert.KeysAndCert).Certificate]">
<path fill="none" stroke="#8b4513" d="M70.225,-145.0461C93.4402,-140.8218 127.4671,-134.6303 155.88,-129.4602"/>
<polygon fill="#8b4513" stroke="#8b4513" points="156.8516,-132.841 166.0634,-127.6072 155.5984,-125.9541 156.8516,-132.841"/>
</a>
</g>
</g>
<!-- (*github.com/go&#45;i2p/go&#45;i2p/lib/common/keys_and_cert.KeysAndCert).PublicKey -->
<g id="node4" class="node">
<title>(*github.com/go&#45;i2p/go&#45;i2p/lib/common/keys_and_cert.KeysAndCert).PublicKey</title>
<g id="a_node4"><a xlink:title="(*github.com/go&#45;i2p/go&#45;i2p/lib/common/keys_and_cert.KeysAndCert).PublicKey | defined in keys_and_cert.go:126">
<path fill="#ffe4b5" stroke="#000000" stroke-width="1.5" d="M237.47,-199C237.47,-199 178.2706,-199 178.2706,-199 172.2706,-199 166.2706,-193 166.2706,-187 166.2706,-187 166.2706,-175 166.2706,-175 166.2706,-169 172.2706,-163 178.2706,-163 178.2706,-163 237.47,-163 237.47,-163 243.47,-163 249.47,-169 249.47,-175 249.47,-175 249.47,-187 249.47,-187 249.47,-193 243.47,-199 237.47,-199"/>
<text text-anchor="middle" x="207.8703" y="-176.8" font-family="Verdana" font-size="14.00" fill="#000000">PublicKey</text>
</a>
</g>
</g>
<!-- github.com/go&#45;i2p/go&#45;i2p/lib/common/fuzz/keys_and_cert.Fuzz&#45;&gt;(*github.com/go&#45;i2p/go&#45;i2p/lib/common/keys_and_cert.KeysAndCert).PublicKey -->
<g id="edge3" class="edge">
<title>github.com/go&#45;i2p/go&#45;i2p/lib/common/fuzz/keys_and_cert.Fuzz&#45;&gt;(*github.com/go&#45;i2p/go&#45;i2p/lib/common/keys_and_cert.KeysAndCert).PublicKey</title>
<g id="a_edge3"><a xlink:title="at fuzz.go:8: calling [(*github.com/go&#45;i2p/go&#45;i2p/lib/common/keys_and_cert.KeysAndCert).PublicKey]">
<path fill="none" stroke="#8b4513" d="M70.225,-155.119C93.4402,-159.4841 127.4671,-165.8821 155.88,-171.2244"/>
<polygon fill="#8b4513" stroke="#8b4513" points="155.5889,-174.731 166.0634,-173.1392 156.8824,-167.8515 155.5889,-174.731"/>
</a>
</g>
</g>
<!-- (*github.com/go&#45;i2p/go&#45;i2p/lib/common/keys_and_cert.KeysAndCert).SigningPublicKey -->
<g id="node5" class="node">
<title>(*github.com/go&#45;i2p/go&#45;i2p/lib/common/keys_and_cert.KeysAndCert).SigningPublicKey</title>
<g id="a_node5"><a xlink:title="(*github.com/go&#45;i2p/go&#45;i2p/lib/common/keys_and_cert.KeysAndCert).SigningPublicKey | defined in keys_and_cert.go:131">
<path fill="#ffe4b5" stroke="#000000" stroke-width="1.5" d="M259.0341,-260C259.0341,-260 156.7065,-260 156.7065,-260 150.7065,-260 144.7065,-254 144.7065,-248 144.7065,-248 144.7065,-236 144.7065,-236 144.7065,-230 150.7065,-224 156.7065,-224 156.7065,-224 259.0341,-224 259.0341,-224 265.0341,-224 271.0341,-230 271.0341,-236 271.0341,-236 271.0341,-248 271.0341,-248 271.0341,-254 265.0341,-260 259.0341,-260"/>
<text text-anchor="middle" x="207.8703" y="-237.8" font-family="Verdana" font-size="14.00" fill="#000000">SigningPublicKey</text>
</a>
</g>
</g>
<!-- github.com/go&#45;i2p/go&#45;i2p/lib/common/fuzz/keys_and_cert.Fuzz&#45;&gt;(*github.com/go&#45;i2p/go&#45;i2p/lib/common/keys_and_cert.KeysAndCert).SigningPublicKey -->
<g id="edge4" class="edge">
<title>github.com/go&#45;i2p/go&#45;i2p/lib/common/fuzz/keys_and_cert.Fuzz&#45;&gt;(*github.com/go&#45;i2p/go&#45;i2p/lib/common/keys_and_cert.KeysAndCert).SigningPublicKey</title>
<g id="a_edge4"><a xlink:title="at fuzz.go:9: calling [(*github.com/go&#45;i2p/go&#45;i2p/lib/common/keys_and_cert.KeysAndCert).SigningPublicKey]">
<path fill="none" stroke="#8b4513" d="M64.4418,-168.022C81.1307,-181.4179 105.2896,-199.4686 128.5386,-212 133.6869,-214.7749 139.1473,-217.411 144.699,-219.8844"/>
<polygon fill="#8b4513" stroke="#8b4513" points="143.5181,-223.1857 154.0895,-223.8893 146.2642,-216.7468 143.5181,-223.1857"/>
</a>
</g>
</g>
</g>
</svg>
