<?xml version="1.0" encoding="UTF-8" standalone="no"?>
<!DOCTYPE svg PUBLIC "-//W3C//DTD SVG 1.1//EN"
 "http://www.w3.org/Graphics/SVG/1.1/DTD/svg11.dtd">
<!-- Generated by graphviz version 2.40.1 (20161225.0304)
 -->
<!-- Title: gocallvis Pages: 1 -->
<svg width="262pt" height="288pt"
 viewBox="0.00 0.00 262.22 288.00" xmlns="http://www.w3.org/2000/svg" xmlns:xlink="http://www.w3.org/1999/xlink">
<g id="graph0" class="graph" transform="scale(1 1) rotate(0) translate(0 288)">
<title>gocallvis</title>
<polygon fill="#d3d3d3" stroke="transparent" points="0,0 0,-288 262.2202,-288 262.2202,0 0,0"/>
<g id="clust1" class="cluster">
<title>cluster_focus</title>
<polygon fill="#e6ecfa" stroke="#000000" stroke-width=".5" points="8,-8 8,-280 254.2202,-280 254.2202,-8 8,-8"/>
<text text-anchor="middle" x="131.1101" y="-259.8" font-family="Arial" font-size="18.00" fill="#000000">exportable</text>
</g>
<g id="clust2" class="cluster">
<title>cluster_github.com/go&#45;i2p/go&#45;i2p/lib/common/data</title>
<g id="a_clust2"><a xlink:href="/?f=github.com/go-i2p/go-i2p/lib/common/data" xlink:title="package: github.com/go&#45;i2p/go&#45;i2p/lib/common/data">
<polygon fill="#ffffe0" stroke="#000000" stroke-width=".8" points="137,-16 137,-242 246.2202,-242 246.2202,-16 137,-16"/>
<text text-anchor="middle" x="191.6101" y="-223.6" font-family="Tahoma bold" font-size="16.00" fill="#000000">data</text>
</a>
</g>
</g>
<g id="clust3" class="cluster">
<title>cluster_github.com/go&#45;i2p/go&#45;i2p/lib/common/data.I2PString</title>
<g id="a_clust3"><a xlink:href="/?f=github.com/go-i2p/go-i2p/lib/common/data" xlink:title="type: github.com/go&#45;i2p/go&#45;i2p/lib/common/data.I2PString">
<path fill="#eed8ae" stroke="#000000" stroke-width=".5" d="M162.7812,-68C162.7812,-68 221.439,-68 221.439,-68 227.439,-68 233.439,-74 233.439,-80 233.439,-80 233.439,-195 233.439,-195 233.439,-201 227.439,-207 221.439,-207 221.439,-207 162.7812,-207 162.7812,-207 156.7812,-207 150.7812,-201 150.7812,-195 150.7812,-195 150.7812,-80 150.7812,-80 150.7812,-74 156.7812,-68 162.7812,-68"/>
<text text-anchor="middle" x="192.1101" y="-76.5" font-family="Tahoma bold" font-size="15.00" fill="#222222">(I2PString)</text>
</a>
</g>
</g>
<!-- github.com/go&#45;i2p/go&#45;i2p/lib/common/fuzz/string.Fuzz -->
<g id="node1" class="node">
<title>github.com/go&#45;i2p/go&#45;i2p/lib/common/fuzz/string.Fuzz</title>
<g id="a_node1"><a xlink:title="github.com/go&#45;i2p/go&#45;i2p/lib/common/fuzz/string.Fuzz | defined in fuzz.go:5&#10;at fuzz.go:7: calling [(github.com/go&#45;i2p/go&#45;i2p/lib/common/data.I2PString).Data]&#10;at fuzz.go:10: calling [(github.com/go&#45;i2p/go&#45;i2p/lib/common/data.I2PString).Data]&#10;at fuzz.go:8: calling [(github.com/go&#45;i2p/go&#45;i2p/lib/common/data.I2PString).Length]&#10;at fuzz.go:11: calling [(github.com/go&#45;i2p/go&#45;i2p/lib/common/data.I2PString).Length]&#10;at fuzz.go:9: calling [github.com/go&#45;i2p/go&#45;i2p/lib/common/data.ToI2PString]">
<path fill="#add8e6" stroke="#000000" stroke-width="1.5" d="M58,-138C58,-138 28,-138 28,-138 22,-138 16,-132 16,-126 16,-126 16,-114 16,-114 16,-108 22,-102 28,-102 28,-102 58,-102 58,-102 64,-102 70,-108 70,-114 70,-114 70,-126 70,-126 70,-132 64,-138 58,-138"/>
<text text-anchor="middle" x="43" y="-115.8" font-family="Verdana" font-size="14.00" fill="#000000">Fuzz</text>
</a>
</g>
</g>
<!-- github.com/go&#45;i2p/go&#45;i2p/lib/common/data.ToI2PString -->
<g id="node2" class="node">
<title>github.com/go&#45;i2p/go&#45;i2p/lib/common/data.ToI2PString</title>
<g id="a_node2"><a xlink:title="github.com/go&#45;i2p/go&#45;i2p/lib/common/data.ToI2PString | defined in string.go:114">
<path fill="#ffe4b5" stroke="#000000" stroke-width="1.5" d="M226.3306,-60C226.3306,-60 156.8896,-60 156.8896,-60 150.8896,-60 144.8896,-54 144.8896,-48 144.8896,-48 144.8896,-36 144.8896,-36 144.8896,-30 150.8896,-24 156.8896,-24 156.8896,-24 226.3306,-24 226.3306,-24 232.3306,-24 238.3306,-30 238.3306,-36 238.3306,-36 238.3306,-48 238.3306,-48 238.3306,-54 232.3306,-60 226.3306,-60"/>
<text text-anchor="middle" x="191.6101" y="-37.8" font-family="Verdana" font-size="14.00" fill="#000000">ToI2PString</text>
</a>
</g>
</g>
<!-- github.com/go&#45;i2p/go&#45;i2p/lib/common/fuzz/string.Fuzz&#45;&gt;github.com/go&#45;i2p/go&#45;i2p/lib/common/data.ToI2PString -->
<g id="edge3" class="edge">
<title>github.com/go&#45;i2p/go&#45;i2p/lib/common/fuzz/string.Fuzz&#45;&gt;github.com/go&#45;i2p/go&#45;i2p/lib/common/data.ToI2PString</title>
<g id="a_edge3"><a xlink:title="at fuzz.go:9: calling [github.com/go&#45;i2p/go&#45;i2p/lib/common/data.ToI2PString]">
<path fill="none" stroke="#8b4513" d="M70.341,-102.1837C86.9701,-91.6949 109.0169,-78.3859 136.2019,-64.6014"/>
<polygon fill="#8b4513" stroke="#8b4513" points="137.8199,-67.7056 145.2084,-60.1122 134.6972,-61.4407 137.8199,-67.7056"/>
</a>
</g>
</g>
<!-- (github.com/go&#45;i2p/go&#45;i2p/lib/common/data.I2PString).Data -->
<g id="node3" class="node">
<title>(github.com/go&#45;i2p/go&#45;i2p/lib/common/data.I2PString).Data</title>
<g id="a_node3"><a xlink:title="(github.com/go&#45;i2p/go&#45;i2p/lib/common/data.I2PString).Data | defined in string.go:73">
<path fill="#ffe4b5" stroke="#000000" stroke-width="1.5" d="M206.6101,-138C206.6101,-138 176.6101,-138 176.6101,-138 170.6101,-138 164.6101,-132 164.6101,-126 164.6101,-126 164.6101,-114 164.6101,-114 164.6101,-108 170.6101,-102 176.6101,-102 176.6101,-102 206.6101,-102 206.6101,-102 212.6101,-102 218.6101,-108 218.6101,-114 218.6101,-114 218.6101,-126 218.6101,-126 218.6101,-132 212.6101,-138 206.6101,-138"/>
<text text-anchor="middle" x="191.6101" y="-115.8" font-family="Verdana" font-size="14.00" fill="#000000">Data</text>
</a>
</g>
</g>
<!-- github.com/go&#45;i2p/go&#45;i2p/lib/common/fuzz/string.Fuzz&#45;&gt;(github.com/go&#45;i2p/go&#45;i2p/lib/common/data.I2PString).Data -->
<g id="edge1" class="edge">
<title>github.com/go&#45;i2p/go&#45;i2p/lib/common/fuzz/string.Fuzz&#45;&gt;(github.com/go&#45;i2p/go&#45;i2p/lib/common/data.I2PString).Data</title>
<g id="a_edge1"><a xlink:title="at fuzz.go:7: calling [(github.com/go&#45;i2p/go&#45;i2p/lib/common/data.I2PString).Data]&#10;at fuzz.go:10: calling [(github.com/go&#45;i2p/go&#45;i2p/lib/common/data.I2PString).Data]">
<path fill="none" stroke="#8b4513" d="M70.2574,-120C93.8244,-120 128.1179,-120 154.2422,-120"/>
<polygon fill="#8b4513" stroke="#8b4513" points="154.5256,-123.5001 164.5255,-120 154.5255,-116.5001 154.5256,-123.5001"/>
</a>
</g>
</g>
<!-- (github.com/go&#45;i2p/go&#45;i2p/lib/common/data.I2PString).Length -->
<g id="node4" class="node">
<title>(github.com/go&#45;i2p/go&#45;i2p/lib/common/data.I2PString).Length</title>
<g id="a_node4"><a xlink:title="(github.com/go&#45;i2p/go&#45;i2p/lib/common/data.I2PString).Length | defined in string.go:31">
<path fill="#ffe4b5" stroke="#000000" stroke-width="1.5" d="M211.2688,-199C211.2688,-199 171.9514,-199 171.9514,-199 165.9514,-199 159.9514,-193 159.9514,-187 159.9514,-187 159.9514,-175 159.9514,-175 159.9514,-169 165.9514,-163 171.9514,-163 171.9514,-163 211.2688,-163 211.2688,-163 217.2688,-163 223.2688,-169 223.2688,-175 223.2688,-175 223.2688,-187 223.2688,-187 223.2688,-193 217.2688,-199 211.2688,-199"/>
<text text-anchor="middle" x="191.6101" y="-176.8" font-family="Verdana" font-size="14.00" fill="#000000">Length</text>
</a>
</g>
</g>
<!-- github.com/go&#45;i2p/go&#45;i2p/lib/common/fuzz/string.Fuzz&#45;&gt;(github.com/go&#45;i2p/go&#45;i2p/lib/common/data.I2PString).Length -->
<g id="edge2" class="edge">
<title>github.com/go&#45;i2p/go&#45;i2p/lib/common/fuzz/string.Fuzz&#45;&gt;(github.com/go&#45;i2p/go&#45;i2p/lib/common/data.I2PString).Length</title>
<g id="a_edge2"><a xlink:title="at fuzz.go:8: calling [(github.com/go&#45;i2p/go&#45;i2p/lib/common/data.I2PString).Length]&#10;at fuzz.go:11: calling [(github.com/go&#45;i2p/go&#45;i2p/lib/common/data.I2PString).Length]">
<path fill="none" stroke="#8b4513" d="M70.2574,-131.1883C92.6965,-140.3989 124.8599,-153.601 150.4371,-164.0997"/>
<polygon fill="#8b4513" stroke="#8b4513" points="149.3033,-167.4176 159.8833,-167.9771 151.9614,-160.9419 149.3033,-167.4176"/>
</a>
</g>
</g>
</g>
</svg>
