<?xml version="1.0" encoding="UTF-8" standalone="no"?>
<!DOCTYPE svg PUBLIC "-//W3C//DTD SVG 1.1//EN"
 "http://www.w3.org/Graphics/SVG/1.1/DTD/svg11.dtd">
<!-- Generated by graphviz version 2.40.1 (20161225.0304)
 -->
<!-- Title: gocallvis Pages: 1 -->
<svg width="503pt" height="471pt"
 viewBox="0.00 0.00 502.92 471.00" xmlns="http://www.w3.org/2000/svg" xmlns:xlink="http://www.w3.org/1999/xlink">
<g id="graph0" class="graph" transform="scale(1 1) rotate(0) translate(0 471)">
<title>gocallvis</title>
<polygon fill="#d3d3d3" stroke="transparent" points="0,0 0,-471 502.9202,-471 502.9202,0 0,0"/>
<g id="clust1" class="cluster">
<title>cluster_focus</title>
<polygon fill="#e6ecfa" stroke="#000000" stroke-width=".5" points="8,-8 8,-463 494.9202,-463 494.9202,-8 8,-8"/>
<text text-anchor="middle" x="251.4601" y="-442.8" font-family="Arial" font-size="18.00" fill="#000000">session_key</text>
</g>
<g id="clust2" class="cluster">
<title>cluster_github.com/sirupsen/logrus</title>
<g id="a_clust2"><a xlink:href="/?f=github.com/sirupsen/logrus" xlink:title="package: github.com/sirupsen/logrus">
<polygon fill="#ffffe0" stroke="#000000" stroke-width=".8" points="389.39,-16 389.39,-425 486.9202,-425 486.9202,-16 389.39,-16"/>
<text text-anchor="middle" x="438.1551" y="-406.6" font-family="Tahoma bold" font-size="16.00" fill="#000000">logrus</text>
</a>
</g>
</g>
<g id="clust3" class="cluster">
<title>cluster_*github.com/sirupsen/logrus.Entry</title>
<g id="a_clust3"><a xlink:href="/?f=github.com/sirupsen/logrus" xlink:title="type: *github.com/sirupsen/logrus.Entry">
<path fill="#eed8ae" stroke="#000000" stroke-width=".5" d="M411.4945,-251C411.4945,-251 464.8157,-251 464.8157,-251 470.8157,-251 476.8157,-257 476.8157,-263 476.8157,-263 476.8157,-378 476.8157,-378 476.8157,-384 470.8157,-390 464.8157,-390 464.8157,-390 411.4945,-390 411.4945,-390 405.4945,-390 399.4945,-384 399.4945,-378 399.4945,-378 399.4945,-263 399.4945,-263 399.4945,-257 405.4945,-251 411.4945,-251"/>
<text text-anchor="middle" x="438.1551" y="-259.5" font-family="Tahoma bold" font-size="15.00" fill="#222222">(*Entry)</text>
</a>
</g>
</g>
<!-- github.com/go&#45;i2p/go&#45;i2p/lib/common/session_key.ReadSessionKey -->
<g id="node1" class="node">
<title>github.com/go&#45;i2p/go&#45;i2p/lib/common/session_key.ReadSessionKey</title>
<g id="a_node1"><a xlink:title="github.com/go&#45;i2p/go&#45;i2p/lib/common/session_key.ReadSessionKey | defined in session_key.go:25&#10;at session_key.go:27: calling [github.com/sirupsen/logrus.Warn]">
<path fill="#add8e6" stroke="#000000" stroke-width="1.5" d="M312.3221,-89C312.3221,-89 217.5939,-89 217.5939,-89 211.5939,-89 205.5939,-83 205.5939,-77 205.5939,-77 205.5939,-65 205.5939,-65 205.5939,-59 211.5939,-53 217.5939,-53 217.5939,-53 312.3221,-53 312.3221,-53 318.3221,-53 324.3221,-59 324.3221,-65 324.3221,-65 324.3221,-77 324.3221,-77 324.3221,-83 318.3221,-89 312.3221,-89"/>
<text text-anchor="middle" x="264.958" y="-66.8" font-family="Verdana" font-size="14.00" fill="#000000">ReadSessionKey</text>
</a>
</g>
</g>
<!-- github.com/sirupsen/logrus.Warn -->
<g id="node3" class="node">
<title>github.com/sirupsen/logrus.Warn</title>
<g id="a_node3"><a xlink:title="github.com/sirupsen/logrus.Warn | defined in exported.go:113">
<path fill="#ffe4b5" stroke="#000000" stroke-width="1.5" d="M453.745,-60C453.745,-60 422.5652,-60 422.5652,-60 416.5652,-60 410.5652,-54 410.5652,-48 410.5652,-48 410.5652,-36 410.5652,-36 410.5652,-30 416.5652,-24 422.5652,-24 422.5652,-24 453.745,-24 453.745,-24 459.745,-24 465.745,-30 465.745,-36 465.745,-36 465.745,-48 465.745,-48 465.745,-54 459.745,-60 453.745,-60"/>
<text text-anchor="middle" x="438.1551" y="-37.8" font-family="Verdana" font-size="14.00" fill="#000000">Warn</text>
</a>
</g>
</g>
<!-- github.com/go&#45;i2p/go&#45;i2p/lib/common/session_key.ReadSessionKey&#45;&gt;github.com/sirupsen/logrus.Warn -->
<g id="edge7" class="edge">
<title>github.com/go&#45;i2p/go&#45;i2p/lib/common/session_key.ReadSessionKey&#45;&gt;github.com/sirupsen/logrus.Warn</title>
<g id="a_edge7"><a xlink:title="at session_key.go:27: calling [github.com/sirupsen/logrus.Warn]">
<path fill="none" stroke="#8b4513" d="M324.5626,-61.0198C349.7356,-56.8049 378.2897,-52.0238 400.4721,-48.3096"/>
<polygon fill="#8b4513" stroke="#8b4513" points="401.2083,-51.7352 410.493,-46.6317 400.0523,-44.8313 401.2083,-51.7352"/>
</a>
</g>
</g>
<!-- github.com/go&#45;i2p/go&#45;i2p/lib/common/session_key.NewSessionKey -->
<g id="node2" class="node">
<title>github.com/go&#45;i2p/go&#45;i2p/lib/common/session_key.NewSessionKey</title>
<g id="a_node2"><a xlink:title="github.com/go&#45;i2p/go&#45;i2p/lib/common/session_key.NewSessionKey | defined in session_key.go:33&#10;at session_key.go:34: calling [github.com/sirupsen/logrus.WithField]&#10;at session_key.go:34: calling [(*github.com/sirupsen/logrus.Entry).Debug]&#10;at session_key.go:35: calling [github.com/go&#45;i2p/go&#45;i2p/lib/common/session_key.ReadSessionKey]&#10;at session_key.go:37: calling [github.com/sirupsen/logrus.WithError]&#10;at session_key.go:37: calling [(*github.com/sirupsen/logrus.Entry).Error]&#10;at session_key.go:41: calling [github.com/sirupsen/logrus.Debug]">
<path fill="#add8e6" stroke="#000000" stroke-width="1.5" d="M120.29,-212C120.29,-212 28.236,-212 28.236,-212 22.236,-212 16.236,-206 16.236,-200 16.236,-200 16.236,-188 16.236,-188 16.236,-182 22.236,-176 28.236,-176 28.236,-176 120.29,-176 120.29,-176 126.29,-176 132.29,-182 132.29,-188 132.29,-188 132.29,-200 132.29,-200 132.29,-206 126.29,-212 120.29,-212"/>
<text text-anchor="middle" x="74.263" y="-189.8" font-family="Verdana" font-size="14.00" fill="#000000">NewSessionKey</text>
</a>
</g>
</g>
<!-- github.com/go&#45;i2p/go&#45;i2p/lib/common/session_key.NewSessionKey&#45;&gt;github.com/go&#45;i2p/go&#45;i2p/lib/common/session_key.ReadSessionKey -->
<g id="edge3" class="edge">
<title>github.com/go&#45;i2p/go&#45;i2p/lib/common/session_key.NewSessionKey&#45;&gt;github.com/go&#45;i2p/go&#45;i2p/lib/common/session_key.ReadSessionKey</title>
<g id="a_edge3"><a xlink:title="at session_key.go:35: calling [github.com/go&#45;i2p/go&#45;i2p/lib/common/session_key.ReadSessionKey]">
<path fill="none" stroke="#000000" d="M95.5362,-175.7261C114.1263,-160.2042 142.1895,-137.8306 168.526,-121 183.8021,-111.2377 201.2035,-101.7565 216.98,-93.722"/>
<polygon fill="#000000" stroke="#000000" points="218.686,-96.7819 226.0528,-89.1673 215.5454,-90.5259 218.686,-96.7819"/>
</a>
</g>
</g>
<!-- github.com/sirupsen/logrus.WithField -->
<g id="node4" class="node">
<title>github.com/sirupsen/logrus.WithField</title>
<g id="a_node4"><a xlink:title="github.com/sirupsen/logrus.WithField | defined in exported.go:69">
<path fill="#ffe4b5" stroke="#000000" stroke-width="1.5" d="M466.4296,-121C466.4296,-121 409.8806,-121 409.8806,-121 403.8806,-121 397.8806,-115 397.8806,-109 397.8806,-109 397.8806,-97 397.8806,-97 397.8806,-91 403.8806,-85 409.8806,-85 409.8806,-85 466.4296,-85 466.4296,-85 472.4296,-85 478.4296,-91 478.4296,-97 478.4296,-97 478.4296,-109 478.4296,-109 478.4296,-115 472.4296,-121 466.4296,-121"/>
<text text-anchor="middle" x="438.1551" y="-98.8" font-family="Verdana" font-size="14.00" fill="#000000">WithField</text>
</a>
</g>
</g>
<!-- github.com/go&#45;i2p/go&#45;i2p/lib/common/session_key.NewSessionKey&#45;&gt;github.com/sirupsen/logrus.WithField -->
<g id="edge1" class="edge">
<title>github.com/go&#45;i2p/go&#45;i2p/lib/common/session_key.NewSessionKey&#45;&gt;github.com/sirupsen/logrus.WithField</title>
<g id="a_edge1"><a xlink:title="at session_key.go:34: calling [github.com/sirupsen/logrus.WithField]">
<path fill="none" stroke="#8b4513" d="M132.3252,-179.4802C202.9433,-161.8204 320.9777,-132.303 387.8778,-115.5731"/>
<polygon fill="#8b4513" stroke="#8b4513" points="388.911,-118.9225 397.7631,-113.101 387.2127,-112.1317 388.911,-118.9225"/>
</a>
</g>
</g>
<!-- github.com/sirupsen/logrus.WithError -->
<g id="node5" class="node">
<title>github.com/sirupsen/logrus.WithError</title>
<g id="a_node5"><a xlink:title="github.com/sirupsen/logrus.WithError | defined in exported.go:55">
<path fill="#ffe4b5" stroke="#000000" stroke-width="1.5" d="M466.6866,-182C466.6866,-182 409.6236,-182 409.6236,-182 403.6236,-182 397.6236,-176 397.6236,-170 397.6236,-170 397.6236,-158 397.6236,-158 397.6236,-152 403.6236,-146 409.6236,-146 409.6236,-146 466.6866,-146 466.6866,-146 472.6866,-146 478.6866,-152 478.6866,-158 478.6866,-158 478.6866,-170 478.6866,-170 478.6866,-176 472.6866,-182 466.6866,-182"/>
<text text-anchor="middle" x="438.1551" y="-159.8" font-family="Verdana" font-size="14.00" fill="#000000">WithError</text>
</a>
</g>
</g>
<!-- github.com/go&#45;i2p/go&#45;i2p/lib/common/session_key.NewSessionKey&#45;&gt;github.com/sirupsen/logrus.WithError -->
<g id="edge4" class="edge">
<title>github.com/go&#45;i2p/go&#45;i2p/lib/common/session_key.NewSessionKey&#45;&gt;github.com/sirupsen/logrus.WithError</title>
<g id="a_edge4"><a xlink:title="at session_key.go:37: calling [github.com/sirupsen/logrus.WithError]">
<path fill="none" stroke="#8b4513" d="M132.3252,-189.2132C202.703,-183.4111 320.1752,-173.7265 387.1933,-168.2014"/>
<polygon fill="#8b4513" stroke="#8b4513" points="387.8225,-171.6615 397.5011,-167.3516 387.2473,-164.6852 387.8225,-171.6615"/>
</a>
</g>
</g>
<!-- github.com/sirupsen/logrus.Debug -->
<g id="node6" class="node">
<title>github.com/sirupsen/logrus.Debug</title>
<g id="a_node6"><a xlink:title="github.com/sirupsen/logrus.Debug | defined in exported.go:98">
<path fill="#ffe4b5" stroke="#000000" stroke-width="1.5" d="M456.9771,-243C456.9771,-243 419.3331,-243 419.3331,-243 413.3331,-243 407.3331,-237 407.3331,-231 407.3331,-231 407.3331,-219 407.3331,-219 407.3331,-213 413.3331,-207 419.3331,-207 419.3331,-207 456.9771,-207 456.9771,-207 462.9771,-207 468.9771,-213 468.9771,-219 468.9771,-219 468.9771,-231 468.9771,-231 468.9771,-237 462.9771,-243 456.9771,-243"/>
<text text-anchor="middle" x="438.1551" y="-220.8" font-family="Verdana" font-size="14.00" fill="#000000">Debug</text>
</a>
</g>
</g>
<!-- github.com/go&#45;i2p/go&#45;i2p/lib/common/session_key.NewSessionKey&#45;&gt;github.com/sirupsen/logrus.Debug -->
<g id="edge6" class="edge">
<title>github.com/go&#45;i2p/go&#45;i2p/lib/common/session_key.NewSessionKey&#45;&gt;github.com/sirupsen/logrus.Debug</title>
<g id="a_edge6"><a xlink:title="at session_key.go:41: calling [github.com/sirupsen/logrus.Debug]">
<path fill="none" stroke="#8b4513" d="M132.3252,-198.9463C206.2647,-205.2452 332.1858,-215.9725 396.9679,-221.4913"/>
<polygon fill="#8b4513" stroke="#8b4513" points="396.9382,-225.0013 407.1992,-222.3629 397.5324,-218.0266 396.9382,-225.0013"/>
</a>
</g>
</g>
<!-- (*github.com/sirupsen/logrus.Entry).Debug -->
<g id="node7" class="node">
<title>(*github.com/sirupsen/logrus.Entry).Debug</title>
<g id="a_node7"><a xlink:title="(*github.com/sirupsen/logrus.Entry).Debug | defined in entry.go:312">
<path fill="#ffe4b5" stroke="#000000" stroke-width="1.5" d="M456.9771,-321C456.9771,-321 419.3331,-321 419.3331,-321 413.3331,-321 407.3331,-315 407.3331,-309 407.3331,-309 407.3331,-297 407.3331,-297 407.3331,-291 413.3331,-285 419.3331,-285 419.3331,-285 456.9771,-285 456.9771,-285 462.9771,-285 468.9771,-291 468.9771,-297 468.9771,-297 468.9771,-309 468.9771,-309 468.9771,-315 462.9771,-321 456.9771,-321"/>
<text text-anchor="middle" x="438.1551" y="-298.8" font-family="Verdana" font-size="14.00" fill="#000000">Debug</text>
</a>
</g>
</g>
<!-- github.com/go&#45;i2p/go&#45;i2p/lib/common/session_key.NewSessionKey&#45;&gt;(*github.com/sirupsen/logrus.Entry).Debug -->
<g id="edge2" class="edge">
<title>github.com/go&#45;i2p/go&#45;i2p/lib/common/session_key.NewSessionKey&#45;&gt;(*github.com/sirupsen/logrus.Entry).Debug</title>
<g id="a_edge2"><a xlink:title="at session_key.go:34: calling [(*github.com/sirupsen/logrus.Entry).Debug]">
<path fill="none" stroke="#8b4513" d="M132.3252,-211.3919C206.4172,-233.5854 332.7053,-271.4136 397.3678,-290.7826"/>
<polygon fill="#8b4513" stroke="#8b4513" points="396.6154,-294.2108 407.1992,-293.7275 398.624,-287.5052 396.6154,-294.2108"/>
</a>
</g>
</g>
<!-- (*github.com/sirupsen/logrus.Entry).Error -->
<g id="node8" class="node">
<title>(*github.com/sirupsen/logrus.Entry).Error</title>
<g id="a_node8"><a xlink:title="(*github.com/sirupsen/logrus.Entry).Error | defined in entry.go:332">
<path fill="#ffe4b5" stroke="#000000" stroke-width="1.5" d="M453.1551,-382C453.1551,-382 423.1551,-382 423.1551,-382 417.1551,-382 411.1551,-376 411.1551,-370 411.1551,-370 411.1551,-358 411.1551,-358 411.1551,-352 417.1551,-346 423.1551,-346 423.1551,-346 453.1551,-346 453.1551,-346 459.1551,-346 465.1551,-352 465.1551,-358 465.1551,-358 465.1551,-370 465.1551,-370 465.1551,-376 459.1551,-382 453.1551,-382"/>
<text text-anchor="middle" x="438.1551" y="-359.8" font-family="Verdana" font-size="14.00" fill="#000000">Error</text>
</a>
</g>
</g>
<!-- github.com/go&#45;i2p/go&#45;i2p/lib/common/session_key.NewSessionKey&#45;&gt;(*github.com/sirupsen/logrus.Entry).Error -->
<g id="edge5" class="edge">
<title>github.com/go&#45;i2p/go&#45;i2p/lib/common/session_key.NewSessionKey&#45;&gt;(*github.com/sirupsen/logrus.Entry).Error</title>
<g id="a_edge5"><a xlink:title="at session_key.go:37: calling [(*github.com/sirupsen/logrus.Entry).Error]">
<path fill="none" stroke="#8b4513" d="M110.6359,-212.0502C136.9152,-225.0141 173.3068,-242.8081 205.526,-258 274.4848,-290.5153 355.6436,-327.1222 401.5796,-347.689"/>
<polygon fill="#8b4513" stroke="#8b4513" points="400.2726,-350.9385 410.8301,-351.827 403.131,-344.5487 400.2726,-350.9385"/>
</a>
</g>
</g>
</g>
</svg>
