<?xml version="1.0" encoding="UTF-8" standalone="no"?>
<!DOCTYPE svg PUBLIC "-//W3C//DTD SVG 1.1//EN"
 "http://www.w3.org/Graphics/SVG/1.1/DTD/svg11.dtd">
<!-- Generated by graphviz version 2.40.1 (20161225.0304)
 -->
<!-- Title: gocallvis Pages: 1 -->
<svg width="485pt" height="356pt"
 viewBox="0.00 0.00 485.00 356.00" xmlns="http://www.w3.org/2000/svg" xmlns:xlink="http://www.w3.org/1999/xlink">
<g id="graph0" class="graph" transform="scale(1 1) rotate(0) translate(0 356)">
<title>gocallvis</title>
<polygon fill="#d3d3d3" stroke="transparent" points="0,0 0,-356 485.0016,-356 485.0016,0 0,0"/>
<g id="clust1" class="cluster">
<title>cluster_focus</title>
<polygon fill="#e6ecfa" stroke="#000000" stroke-width=".5" points="8,-8 8,-348 485.0016,-348 485.0016,-8 8,-8"/>
<text text-anchor="middle" x="246.5008" y="-327.8" font-family="Arial" font-size="18.00" fill="#000000">obfs</text>
</g>
<g id="clust5" class="cluster">
<title>cluster_github.com/samber/oops</title>
<g id="a_clust5"><a xlink:href="/?f=github.com/samber/oops" xlink:title="package: github.com/samber/oops">
<polygon fill="#ffffe0" stroke="#000000" stroke-width=".8" points="337.8634,-231 337.8634,-310 412.0584,-310 412.0584,-231 337.8634,-231"/>
<text text-anchor="middle" x="374.9609" y="-291.6" font-family="Tahoma bold" font-size="16.00" fill="#000000">oops</text>
</a>
</g>
</g>
<g id="clust2" class="cluster">
<title>cluster_github.com/go&#45;i2p/go&#45;i2p/lib/crypto</title>
<g id="a_clust2"><a xlink:href="/?f=github.com/go-i2p/go-i2p/lib/crypto" xlink:title="package: github.com/go&#45;i2p/go&#45;i2p/lib/crypto">
<polygon fill="#ffffe0" stroke="#000000" stroke-width=".8" points="273.9202,-16 273.9202,-223 477.0016,-223 477.0016,-16 273.9202,-16"/>
<text text-anchor="middle" x="375.4609" y="-204.6" font-family="Tahoma bold" font-size="16.00" fill="#000000">crypto</text>
</a>
</g>
</g>
<g id="clust4" class="cluster">
<title>cluster_*github.com/go&#45;i2p/go&#45;i2p/lib/crypto.AESSymmetricEncrypter</title>
<g id="a_clust4"><a xlink:href="/?f=github.com/go-i2p/go-i2p/lib/crypto" xlink:title="type: *github.com/go&#45;i2p/go&#45;i2p/lib/crypto.AESSymmetricEncrypter">
<path fill="#eed8ae" stroke="#000000" stroke-width=".5" d="M294.3045,-110C294.3045,-110 456.6173,-110 456.6173,-110 462.6173,-110 468.6173,-116 468.6173,-122 468.6173,-122 468.6173,-176 468.6173,-176 468.6173,-182 462.6173,-188 456.6173,-188 456.6173,-188 294.3045,-188 294.3045,-188 288.3045,-188 282.3045,-182 282.3045,-176 282.3045,-176 282.3045,-122 282.3045,-122 282.3045,-116 288.3045,-110 294.3045,-110"/>
<text text-anchor="middle" x="375.4609" y="-118.5" font-family="Tahoma bold" font-size="15.00" fill="#222222">(*AESSymmetricEncrypter)</text>
</a>
</g>
</g>
<g id="clust3" class="cluster">
<title>cluster_*github.com/go&#45;i2p/go&#45;i2p/lib/crypto.AESSymmetricDecrypter</title>
<g id="a_clust3"><a xlink:href="/?f=github.com/go-i2p/go-i2p/lib/crypto" xlink:title="type: *github.com/go&#45;i2p/go&#45;i2p/lib/crypto.AESSymmetricDecrypter">
<path fill="#eed8ae" stroke="#000000" stroke-width=".5" d="M293.9202,-24C293.9202,-24 457.0016,-24 457.0016,-24 463.0016,-24 469.0016,-30 469.0016,-36 469.0016,-36 469.0016,-90 469.0016,-90 469.0016,-96 463.0016,-102 457.0016,-102 457.0016,-102 293.9202,-102 293.9202,-102 287.9202,-102 281.9202,-96 281.9202,-90 281.9202,-90 281.9202,-36 281.9202,-36 281.9202,-30 287.9202,-24 293.9202,-24"/>
<text text-anchor="middle" x="375.4609" y="-32.5" font-family="Tahoma bold" font-size="15.00" fill="#222222">(*AESSymmetricDecrypter)</text>
</a>
</g>
</g>
<!-- github.com/go&#45;i2p/go&#45;i2p/lib/transport/obfs.ObfuscateEphemeralKey -->
<g id="node1" class="node">
<title>github.com/go&#45;i2p/go&#45;i2p/lib/transport/obfs.ObfuscateEphemeralKey</title>
<g id="a_node1"><a xlink:title="github.com/go&#45;i2p/go&#45;i2p/lib/transport/obfs.ObfuscateEphemeralKey | defined in obfs.go:9&#10;at obfs.go:11: calling [github.com/samber/oops.Errorf]&#10;at obfs.go:24: calling [(*github.com/go&#45;i2p/go&#45;i2p/lib/crypto.AESSymmetricEncrypter).EncryptNoPadding]">
<path fill="#add8e6" stroke="#000000" stroke-width="1.5" d="M175.166,-210C175.166,-210 34.7542,-210 34.7542,-210 28.7542,-210 22.7542,-204 22.7542,-198 22.7542,-198 22.7542,-186 22.7542,-186 22.7542,-180 28.7542,-174 34.7542,-174 34.7542,-174 175.166,-174 175.166,-174 181.166,-174 187.166,-180 187.166,-186 187.166,-186 187.166,-198 187.166,-198 187.166,-204 181.166,-210 175.166,-210"/>
<text text-anchor="middle" x="104.9601" y="-187.8" font-family="Verdana" font-size="14.00" fill="#000000">ObfuscateEphemeralKey</text>
</a>
</g>
</g>
<!-- (*github.com/go&#45;i2p/go&#45;i2p/lib/crypto.AESSymmetricEncrypter).EncryptNoPadding -->
<g id="node4" class="node">
<title>(*github.com/go&#45;i2p/go&#45;i2p/lib/crypto.AESSymmetricEncrypter).EncryptNoPadding</title>
<g id="a_node4"><a xlink:title="(*github.com/go&#45;i2p/go&#45;i2p/lib/crypto.AESSymmetricEncrypter).EncryptNoPadding | defined in aes.go:144">
<path fill="#ffe4b5" stroke="#000000" stroke-width="1.5" d="M428.7741,-180C428.7741,-180 321.1477,-180 321.1477,-180 315.1477,-180 309.1477,-174 309.1477,-168 309.1477,-168 309.1477,-156 309.1477,-156 309.1477,-150 315.1477,-144 321.1477,-144 321.1477,-144 428.7741,-144 428.7741,-144 434.7741,-144 440.7741,-150 440.7741,-156 440.7741,-156 440.7741,-168 440.7741,-168 440.7741,-174 434.7741,-180 428.7741,-180"/>
<text text-anchor="middle" x="374.9609" y="-157.8" font-family="Verdana" font-size="14.00" fill="#000000">EncryptNoPadding</text>
</a>
</g>
</g>
<!-- github.com/go&#45;i2p/go&#45;i2p/lib/transport/obfs.ObfuscateEphemeralKey&#45;&gt;(*github.com/go&#45;i2p/go&#45;i2p/lib/crypto.AESSymmetricEncrypter).EncryptNoPadding -->
<g id="edge3" class="edge">
<title>github.com/go&#45;i2p/go&#45;i2p/lib/transport/obfs.ObfuscateEphemeralKey&#45;&gt;(*github.com/go&#45;i2p/go&#45;i2p/lib/crypto.AESSymmetricEncrypter).EncryptNoPadding</title>
<g id="a_edge3"><a xlink:title="at obfs.go:24: calling [(*github.com/go&#45;i2p/go&#45;i2p/lib/crypto.AESSymmetricEncrypter).EncryptNoPadding]">
<path fill="none" stroke="#8b4513" d="M187.4363,-182.836C223.006,-178.8838 264.339,-174.2913 299.1339,-170.4252"/>
<polygon fill="#8b4513" stroke="#8b4513" points="299.6827,-173.8859 309.235,-169.3029 298.9096,-166.9287 299.6827,-173.8859"/>
</a>
</g>
</g>
<!-- github.com/samber/oops.Errorf -->
<g id="node5" class="node">
<title>github.com/samber/oops.Errorf</title>
<g id="a_node5"><a xlink:title="github.com/samber/oops.Errorf | defined in oops.go:34">
<path fill="#ffe4b5" stroke="#000000" stroke-width="1.5" d="M392.1562,-275C392.1562,-275 357.7656,-275 357.7656,-275 351.7656,-275 345.7656,-269 345.7656,-263 345.7656,-263 345.7656,-251 345.7656,-251 345.7656,-245 351.7656,-239 357.7656,-239 357.7656,-239 392.1562,-239 392.1562,-239 398.1562,-239 404.1562,-245 404.1562,-251 404.1562,-251 404.1562,-263 404.1562,-263 404.1562,-269 398.1562,-275 392.1562,-275"/>
<text text-anchor="middle" x="374.9609" y="-252.8" font-family="Verdana" font-size="14.00" fill="#000000">Errorf</text>
</a>
</g>
</g>
<!-- github.com/go&#45;i2p/go&#45;i2p/lib/transport/obfs.ObfuscateEphemeralKey&#45;&gt;github.com/samber/oops.Errorf -->
<g id="edge2" class="edge">
<title>github.com/go&#45;i2p/go&#45;i2p/lib/transport/obfs.ObfuscateEphemeralKey&#45;&gt;github.com/samber/oops.Errorf</title>
<g id="a_edge2"><a xlink:title="at obfs.go:11: calling [github.com/samber/oops.Errorf]">
<path fill="none" stroke="#8b4513" d="M179.8118,-210.0198C230.4549,-222.2116 295.2931,-237.8208 335.9902,-247.6182"/>
<polygon fill="#8b4513" stroke="#8b4513" points="335.252,-251.0404 345.7935,-249.9782 336.8905,-244.2348 335.252,-251.0404"/>
</a>
</g>
</g>
<!-- github.com/go&#45;i2p/go&#45;i2p/lib/transport/obfs.DeobfuscateEphemeralKey -->
<g id="node2" class="node">
<title>github.com/go&#45;i2p/go&#45;i2p/lib/transport/obfs.DeobfuscateEphemeralKey</title>
<g id="a_node2"><a xlink:title="github.com/go&#45;i2p/go&#45;i2p/lib/transport/obfs.DeobfuscateEphemeralKey | defined in obfs.go:36&#10;at obfs.go:51: calling [(*github.com/go&#45;i2p/go&#45;i2p/lib/crypto.AESSymmetricDecrypter).DecryptNoPadding]&#10;at obfs.go:38: calling [github.com/samber/oops.Errorf]">
<path fill="#add8e6" stroke="#000000" stroke-width="1.5" d="M181.8803,-114C181.8803,-114 28.0399,-114 28.0399,-114 22.0399,-114 16.0399,-108 16.0399,-102 16.0399,-102 16.0399,-90 16.0399,-90 16.0399,-84 22.0399,-78 28.0399,-78 28.0399,-78 181.8803,-78 181.8803,-78 187.8803,-78 193.8803,-84 193.8803,-90 193.8803,-90 193.8803,-102 193.8803,-102 193.8803,-108 187.8803,-114 181.8803,-114"/>
<text text-anchor="middle" x="104.9601" y="-91.8" font-family="Verdana" font-size="14.00" fill="#000000">DeobfuscateEphemeralKey</text>
</a>
</g>
</g>
<!-- (*github.com/go&#45;i2p/go&#45;i2p/lib/crypto.AESSymmetricDecrypter).DecryptNoPadding -->
<g id="node3" class="node">
<title>(*github.com/go&#45;i2p/go&#45;i2p/lib/crypto.AESSymmetricDecrypter).DecryptNoPadding</title>
<g id="a_node3"><a xlink:title="(*github.com/go&#45;i2p/go&#45;i2p/lib/crypto.AESSymmetricDecrypter).DecryptNoPadding | defined in aes.go:162">
<path fill="#ffe4b5" stroke="#000000" stroke-width="1.5" d="M429.0423,-94C429.0423,-94 320.8795,-94 320.8795,-94 314.8795,-94 308.8795,-88 308.8795,-82 308.8795,-82 308.8795,-70 308.8795,-70 308.8795,-64 314.8795,-58 320.8795,-58 320.8795,-58 429.0423,-58 429.0423,-58 435.0423,-58 441.0423,-64 441.0423,-70 441.0423,-70 441.0423,-82 441.0423,-82 441.0423,-88 435.0423,-94 429.0423,-94"/>
<text text-anchor="middle" x="374.9609" y="-71.8" font-family="Verdana" font-size="14.00" fill="#000000">DecryptNoPadding</text>
</a>
</g>
</g>
<!-- github.com/go&#45;i2p/go&#45;i2p/lib/transport/obfs.DeobfuscateEphemeralKey&#45;&gt;(*github.com/go&#45;i2p/go&#45;i2p/lib/crypto.AESSymmetricDecrypter).DecryptNoPadding -->
<g id="edge1" class="edge">
<title>github.com/go&#45;i2p/go&#45;i2p/lib/transport/obfs.DeobfuscateEphemeralKey&#45;&gt;(*github.com/go&#45;i2p/go&#45;i2p/lib/crypto.AESSymmetricDecrypter).DecryptNoPadding</title>
<g id="a_edge1"><a xlink:title="at obfs.go:51: calling [(*github.com/go&#45;i2p/go&#45;i2p/lib/crypto.AESSymmetricDecrypter).DecryptNoPadding]">
<path fill="none" stroke="#8b4513" d="M194.1167,-89.3958C227.7974,-86.901 265.798,-84.0861 298.2411,-81.6829"/>
<polygon fill="#8b4513" stroke="#8b4513" points="298.8527,-85.1473 308.5668,-80.9181 298.3356,-78.1664 298.8527,-85.1473"/>
</a>
</g>
</g>
<!-- github.com/go&#45;i2p/go&#45;i2p/lib/transport/obfs.DeobfuscateEphemeralKey&#45;&gt;github.com/samber/oops.Errorf -->
<g id="edge4" class="edge">
<title>github.com/go&#45;i2p/go&#45;i2p/lib/transport/obfs.DeobfuscateEphemeralKey&#45;&gt;github.com/samber/oops.Errorf</title>
<g id="a_edge4"><a xlink:title="at obfs.go:38: calling [github.com/samber/oops.Errorf]">
<path fill="none" stroke="#8b4513" d="M135.1467,-114.0001C184.6805,-143.5369 283.0997,-202.2237 337.1832,-234.4734"/>
<polygon fill="#8b4513" stroke="#8b4513" points="335.406,-237.4886 345.7875,-239.604 338.9911,-231.4763 335.406,-237.4886"/>
</a>
</g>
</g>
</g>
</svg>
