<?xml version="1.0" encoding="UTF-8" standalone="no"?>
<!DOCTYPE svg PUBLIC "-//W3C//DTD SVG 1.1//EN"
 "http://www.w3.org/Graphics/SVG/1.1/DTD/svg11.dtd">
<!-- Generated by graphviz version 2.40.1 (20161225.0304)
 -->
<!-- Title: gocallvis Pages: 1 -->
<svg width="479pt" height="279pt"
 viewBox="0.00 0.00 479.00 279.00" xmlns="http://www.w3.org/2000/svg" xmlns:xlink="http://www.w3.org/1999/xlink">
<g id="graph0" class="graph" transform="scale(1 1) rotate(0) translate(0 279)">
<title>gocallvis</title>
<polygon fill="#d3d3d3" stroke="transparent" points="0,0 0,-279 479.0016,-279 479.0016,0 0,0"/>
<g id="clust1" class="cluster">
<title>cluster_focus</title>
<polygon fill="#e6ecfa" stroke="#000000" stroke-width=".5" points="8,-8 8,-271 479.0016,-271 479.0016,-8 8,-8"/>
<text text-anchor="middle" x="243.5008" y="-250.8" font-family="Arial" font-size="18.00" fill="#000000">obfs</text>
</g>
<g id="clust3" class="cluster">
<title>cluster_*github.com/go&#45;i2p/go&#45;i2p/lib/crypto.AESSymmetricEncrypter</title>
<g id="a_clust3"><a xlink:title="type: *github.com/go&#45;i2p/go&#45;i2p/lib/crypto.AESSymmetricEncrypter">
<path fill="#eed8ae" stroke="#000000" stroke-width=".5" d="M286.3045,-155C286.3045,-155 458.6173,-155 458.6173,-155 464.6173,-155 470.6173,-161 470.6173,-167 470.6173,-167 470.6173,-221 470.6173,-221 470.6173,-227 464.6173,-233 458.6173,-233 458.6173,-233 286.3045,-233 286.3045,-233 280.3045,-233 274.3045,-227 274.3045,-221 274.3045,-221 274.3045,-167 274.3045,-167 274.3045,-161 280.3045,-155 286.3045,-155"/>
<text text-anchor="middle" x="372.4609" y="-163.5" font-family="Arial" font-size="15.00" fill="#222222">(*AESSymmetricEncrypter)</text>
</a>
</g>
</g>
<g id="clust2" class="cluster">
<title>cluster_*github.com/go&#45;i2p/go&#45;i2p/lib/crypto.AESSymmetricDecrypter</title>
<g id="a_clust2"><a xlink:title="type: *github.com/go&#45;i2p/go&#45;i2p/lib/crypto.AESSymmetricDecrypter">
<path fill="#eed8ae" stroke="#000000" stroke-width=".5" d="M285.9202,-16C285.9202,-16 459.0016,-16 459.0016,-16 465.0016,-16 471.0016,-22 471.0016,-28 471.0016,-28 471.0016,-82 471.0016,-82 471.0016,-88 465.0016,-94 459.0016,-94 459.0016,-94 285.9202,-94 285.9202,-94 279.9202,-94 273.9202,-88 273.9202,-82 273.9202,-82 273.9202,-28 273.9202,-28 273.9202,-22 279.9202,-16 285.9202,-16"/>
<text text-anchor="middle" x="372.4609" y="-24.5" font-family="Arial" font-size="15.00" fill="#222222">(*AESSymmetricDecrypter)</text>
</a>
</g>
</g>
<!-- github.com/go&#45;i2p/go&#45;i2p/lib/transport/obfs.ObfuscateEphemeralKey -->
<g id="node1" class="node">
<title>github.com/go&#45;i2p/go&#45;i2p/lib/transport/obfs.ObfuscateEphemeralKey</title>
<g id="a_node1"><a xlink:title="github.com/go&#45;i2p/go&#45;i2p/lib/transport/obfs.ObfuscateEphemeralKey | defined in obfs.go:9&#10;at obfs.go:11: calling [github.com/samber/oops.Errorf]&#10;at obfs.go:24: calling [(*github.com/go&#45;i2p/go&#45;i2p/lib/crypto.AESSymmetricEncrypter).EncryptNoPadding]">
<path fill="#add8e6" stroke="#000000" stroke-width="1.5" d="M175.166,-169C175.166,-169 34.7542,-169 34.7542,-169 28.7542,-169 22.7542,-163 22.7542,-157 22.7542,-157 22.7542,-145 22.7542,-145 22.7542,-139 28.7542,-133 34.7542,-133 34.7542,-133 175.166,-133 175.166,-133 181.166,-133 187.166,-139 187.166,-145 187.166,-145 187.166,-157 187.166,-157 187.166,-163 181.166,-169 175.166,-169"/>
<text text-anchor="middle" x="104.9601" y="-146.8" font-family="Verdana" font-size="14.00" fill="#000000">ObfuscateEphemeralKey</text>
</a>
</g>
</g>
<!-- github.com/samber/oops.Errorf -->
<g id="node2" class="node">
<title>github.com/samber/oops.Errorf</title>
<g id="a_node2"><a xlink:title="github.com/samber/oops.Errorf | defined in oops.go:34">
<path fill="#ffe4b5" stroke="#000000" stroke-width="1.5" d="M389.1562,-147C389.1562,-147 354.7656,-147 354.7656,-147 348.7656,-147 342.7656,-141 342.7656,-135 342.7656,-135 342.7656,-123 342.7656,-123 342.7656,-117 348.7656,-111 354.7656,-111 354.7656,-111 389.1562,-111 389.1562,-111 395.1562,-111 401.1562,-117 401.1562,-123 401.1562,-123 401.1562,-135 401.1562,-135 401.1562,-141 395.1562,-147 389.1562,-147"/>
<text text-anchor="middle" x="371.9609" y="-133.2" font-family="Verdana" font-size="14.00" fill="#000000">oops</text>
<text text-anchor="middle" x="371.9609" y="-116.4" font-family="Verdana" font-size="14.00" fill="#000000">Errorf</text>
</a>
</g>
</g>
<!-- github.com/go&#45;i2p/go&#45;i2p/lib/transport/obfs.ObfuscateEphemeralKey&#45;&gt;github.com/samber/oops.Errorf -->
<g id="edge2" class="edge">
<title>github.com/go&#45;i2p/go&#45;i2p/lib/transport/obfs.ObfuscateEphemeralKey&#45;&gt;github.com/samber/oops.Errorf</title>
<g id="a_edge2"><a xlink:title="at obfs.go:11: calling [github.com/samber/oops.Errorf]">
<path fill="none" stroke="#8b4513" d="M187.2478,-144.2198C235.5675,-140.2384 294.4375,-135.3877 332.531,-132.2489"/>
<polygon fill="#8b4513" stroke="#8b4513" points="333.0195,-135.7206 342.6983,-131.4111 332.4446,-128.7442 333.0195,-135.7206"/>
</a>
</g>
</g>
<!-- (*github.com/go&#45;i2p/go&#45;i2p/lib/crypto.AESSymmetricEncrypter).EncryptNoPadding -->
<g id="node5" class="node">
<title>(*github.com/go&#45;i2p/go&#45;i2p/lib/crypto.AESSymmetricEncrypter).EncryptNoPadding</title>
<g id="a_node5"><a xlink:title="(*github.com/go&#45;i2p/go&#45;i2p/lib/crypto.AESSymmetricEncrypter).EncryptNoPadding | defined in aes.go:144">
<path fill="#ffe4b5" stroke="#000000" stroke-width="1.5" d="M425.7741,-225C425.7741,-225 318.1477,-225 318.1477,-225 312.1477,-225 306.1477,-219 306.1477,-213 306.1477,-213 306.1477,-201 306.1477,-201 306.1477,-195 312.1477,-189 318.1477,-189 318.1477,-189 425.7741,-189 425.7741,-189 431.7741,-189 437.7741,-195 437.7741,-201 437.7741,-201 437.7741,-213 437.7741,-213 437.7741,-219 431.7741,-225 425.7741,-225"/>
<text text-anchor="middle" x="371.9609" y="-211.2" font-family="Verdana" font-size="14.00" fill="#000000">crypto</text>
<text text-anchor="middle" x="371.9609" y="-194.4" font-family="Verdana" font-size="14.00" fill="#000000">EncryptNoPadding</text>
</a>
</g>
</g>
<!-- github.com/go&#45;i2p/go&#45;i2p/lib/transport/obfs.ObfuscateEphemeralKey&#45;&gt;(*github.com/go&#45;i2p/go&#45;i2p/lib/crypto.AESSymmetricEncrypter).EncryptNoPadding -->
<g id="edge3" class="edge">
<title>github.com/go&#45;i2p/go&#45;i2p/lib/transport/obfs.ObfuscateEphemeralKey&#45;&gt;(*github.com/go&#45;i2p/go&#45;i2p/lib/crypto.AESSymmetricEncrypter).EncryptNoPadding</title>
<g id="a_edge3"><a xlink:title="at obfs.go:24: calling [(*github.com/go&#45;i2p/go&#45;i2p/lib/crypto.AESSymmetricEncrypter).EncryptNoPadding]">
<path fill="none" stroke="#8b4513" d="M187.2478,-168.2588C221.973,-175.542 262.147,-183.9679 296.1427,-191.0981"/>
<polygon fill="#8b4513" stroke="#8b4513" points="295.5127,-194.5421 306.0183,-193.1694 296.9497,-187.6911 295.5127,-194.5421"/>
</a>
</g>
</g>
<!-- github.com/go&#45;i2p/go&#45;i2p/lib/transport/obfs.DeobfuscateEphemeralKey -->
<g id="node3" class="node">
<title>github.com/go&#45;i2p/go&#45;i2p/lib/transport/obfs.DeobfuscateEphemeralKey</title>
<g id="a_node3"><a xlink:title="github.com/go&#45;i2p/go&#45;i2p/lib/transport/obfs.DeobfuscateEphemeralKey | defined in obfs.go:36&#10;at obfs.go:51: calling [(*github.com/go&#45;i2p/go&#45;i2p/lib/crypto.AESSymmetricDecrypter).DecryptNoPadding]&#10;at obfs.go:38: calling [github.com/samber/oops.Errorf]">
<path fill="#add8e6" stroke="#000000" stroke-width="1.5" d="M181.8803,-95C181.8803,-95 28.0399,-95 28.0399,-95 22.0399,-95 16.0399,-89 16.0399,-83 16.0399,-83 16.0399,-71 16.0399,-71 16.0399,-65 22.0399,-59 28.0399,-59 28.0399,-59 181.8803,-59 181.8803,-59 187.8803,-59 193.8803,-65 193.8803,-71 193.8803,-71 193.8803,-83 193.8803,-83 193.8803,-89 187.8803,-95 181.8803,-95"/>
<text text-anchor="middle" x="104.9601" y="-72.8" font-family="Verdana" font-size="14.00" fill="#000000">DeobfuscateEphemeralKey</text>
</a>
</g>
</g>
<!-- github.com/go&#45;i2p/go&#45;i2p/lib/transport/obfs.DeobfuscateEphemeralKey&#45;&gt;github.com/samber/oops.Errorf -->
<g id="edge4" class="edge">
<title>github.com/go&#45;i2p/go&#45;i2p/lib/transport/obfs.DeobfuscateEphemeralKey&#45;&gt;github.com/samber/oops.Errorf</title>
<g id="a_edge4"><a xlink:title="at obfs.go:38: calling [github.com/samber/oops.Errorf]">
<path fill="none" stroke="#8b4513" d="M194.2387,-94.3875C241.1517,-103.5241 296.2782,-114.2603 332.5523,-121.3249"/>
<polygon fill="#8b4513" stroke="#8b4513" points="332.2326,-124.8284 342.7173,-123.3046 333.5708,-117.9575 332.2326,-124.8284"/>
</a>
</g>
</g>
<!-- (*github.com/go&#45;i2p/go&#45;i2p/lib/crypto.AESSymmetricDecrypter).DecryptNoPadding -->
<g id="node4" class="node">
<title>(*github.com/go&#45;i2p/go&#45;i2p/lib/crypto.AESSymmetricDecrypter).DecryptNoPadding</title>
<g id="a_node4"><a xlink:title="(*github.com/go&#45;i2p/go&#45;i2p/lib/crypto.AESSymmetricDecrypter).DecryptNoPadding | defined in aes.go:162">
<path fill="#ffe4b5" stroke="#000000" stroke-width="1.5" d="M426.0423,-86C426.0423,-86 317.8795,-86 317.8795,-86 311.8795,-86 305.8795,-80 305.8795,-74 305.8795,-74 305.8795,-62 305.8795,-62 305.8795,-56 311.8795,-50 317.8795,-50 317.8795,-50 426.0423,-50 426.0423,-50 432.0423,-50 438.0423,-56 438.0423,-62 438.0423,-62 438.0423,-74 438.0423,-74 438.0423,-80 432.0423,-86 426.0423,-86"/>
<text text-anchor="middle" x="371.9609" y="-72.2" font-family="Verdana" font-size="14.00" fill="#000000">crypto</text>
<text text-anchor="middle" x="371.9609" y="-55.4" font-family="Verdana" font-size="14.00" fill="#000000">DecryptNoPadding</text>
</a>
</g>
</g>
<!-- github.com/go&#45;i2p/go&#45;i2p/lib/transport/obfs.DeobfuscateEphemeralKey&#45;&gt;(*github.com/go&#45;i2p/go&#45;i2p/lib/crypto.AESSymmetricDecrypter).DecryptNoPadding -->
<g id="edge1" class="edge">
<title>github.com/go&#45;i2p/go&#45;i2p/lib/transport/obfs.DeobfuscateEphemeralKey&#45;&gt;(*github.com/go&#45;i2p/go&#45;i2p/lib/crypto.AESSymmetricDecrypter).DecryptNoPadding</title>
<g id="a_edge1"><a xlink:title="at obfs.go:51: calling [(*github.com/go&#45;i2p/go&#45;i2p/lib/crypto.AESSymmetricDecrypter).DecryptNoPadding]">
<path fill="none" stroke="#8b4513" d="M194.2387,-73.9906C227.0695,-72.884 263.9229,-71.6417 295.5223,-70.5766"/>
<polygon fill="#8b4513" stroke="#8b4513" points="295.7091,-74.0724 305.5855,-70.2374 295.4732,-67.0763 295.7091,-74.0724"/>
</a>
</g>
</g>
</g>
</svg>
