<?xml version="1.0" encoding="UTF-8" standalone="no"?>
<!DOCTYPE svg PUBLIC "-//W3C//DTD SVG 1.1//EN"
 "http://www.w3.org/Graphics/SVG/1.1/DTD/svg11.dtd">
<!-- Generated by graphviz version 2.40.1 (20161225.0304)
 -->
<!-- Title: gocallvis Pages: 1 -->
<svg width="497pt" height="367pt"
 viewBox="0.00 0.00 497.49 367.00" xmlns="http://www.w3.org/2000/svg" xmlns:xlink="http://www.w3.org/1999/xlink">
<g id="graph0" class="graph" transform="scale(1 1) rotate(0) translate(0 367)">
<title>gocallvis</title>
<polygon fill="#d3d3d3" stroke="transparent" points="0,0 0,-367 497.4896,-367 497.4896,0 0,0"/>
<g id="clust1" class="cluster">
<title>cluster_focus</title>
<polygon fill="#e6ecfa" stroke="#000000" stroke-width=".5" points="8,-8 8,-359 489.4896,-359 489.4896,-8 8,-8"/>
<text text-anchor="middle" x="248.7448" y="-338.8" font-family="Arial" font-size="18.00" fill="#000000">signature</text>
</g>
<g id="clust3" class="cluster">
<title>cluster_*github.com/sirupsen/logrus.Logger</title>
<g id="a_clust3"><a xlink:title="type: *github.com/sirupsen/logrus.Logger">
<path fill="#eed8ae" stroke="#000000" stroke-width=".5" d="M227.0155,-243C227.0155,-243 281.3367,-243 281.3367,-243 287.3367,-243 293.3367,-249 293.3367,-255 293.3367,-255 293.3367,-309 293.3367,-309 293.3367,-315 287.3367,-321 281.3367,-321 281.3367,-321 227.0155,-321 227.0155,-321 221.0155,-321 215.0155,-315 215.0155,-309 215.0155,-309 215.0155,-255 215.0155,-255 215.0155,-249 221.0155,-243 227.0155,-243"/>
<text text-anchor="middle" x="254.1761" y="-251.5" font-family="Arial" font-size="15.00" fill="#222222">(*Logger)</text>
</a>
</g>
</g>
<g id="clust2" class="cluster">
<title>cluster_*github.com/go&#45;i2p/logger.Logger</title>
<g id="a_clust2"><a xlink:title="type: *github.com/go&#45;i2p/logger.Logger">
<path fill="#eed8ae" stroke="#000000" stroke-width=".5" d="M391.2708,-60C391.2708,-60 469.4896,-60 469.4896,-60 475.4896,-60 481.4896,-66 481.4896,-72 481.4896,-72 481.4896,-309 481.4896,-309 481.4896,-315 475.4896,-321 469.4896,-321 469.4896,-321 391.2708,-321 391.2708,-321 385.2708,-321 379.2708,-315 379.2708,-309 379.2708,-309 379.2708,-72 379.2708,-72 379.2708,-66 385.2708,-60 391.2708,-60"/>
<text text-anchor="middle" x="430.3802" y="-68.5" font-family="Arial" font-size="15.00" fill="#222222">(*Logger)</text>
</a>
</g>
</g>
<!-- github.com/go&#45;i2p/go&#45;i2p/lib/common/signature.NewSignature -->
<g id="node1" class="node">
<title>github.com/go&#45;i2p/go&#45;i2p/lib/common/signature.NewSignature</title>
<g id="a_node1"><a xlink:title="github.com/go&#45;i2p/go&#45;i2p/lib/common/signature.NewSignature | defined in signature.go:106&#10;at signature.go:108: calling [github.com/go&#45;i2p/go&#45;i2p/lib/common/signature.ReadSignature]&#10;at signature.go:110: calling [(*github.com/go&#45;i2p/logger.Logger).Error]&#10;at signature.go:107: calling [(*github.com/go&#45;i2p/logger.Logger).WithField]&#10;at signature.go:110: calling [(*github.com/go&#45;i2p/logger.Logger).WithError]&#10;at signature.go:114: calling [(*github.com/go&#45;i2p/logger.Logger).WithFields]&#10;at signature.go:107: calling [(*github.com/sirupsen/logrus.Logger).Debug]&#10;at signature.go:117: calling [(*github.com/sirupsen/logrus.Logger).Debug]">
<path fill="#add8e6" stroke="#000000" stroke-width="1.5" d="M108.1221,-211C108.1221,-211 27.9593,-211 27.9593,-211 21.9593,-211 15.9593,-205 15.9593,-199 15.9593,-199 15.9593,-187 15.9593,-187 15.9593,-181 21.9593,-175 27.9593,-175 27.9593,-175 108.1221,-175 108.1221,-175 114.1221,-175 120.1221,-181 120.1221,-187 120.1221,-187 120.1221,-199 120.1221,-199 120.1221,-205 114.1221,-211 108.1221,-211"/>
<text text-anchor="middle" x="68.0407" y="-188.8" font-family="Verdana" font-size="14.00" fill="#000000">NewSignature</text>
</a>
</g>
</g>
<!-- github.com/go&#45;i2p/go&#45;i2p/lib/common/signature.ReadSignature -->
<g id="node2" class="node">
<title>github.com/go&#45;i2p/go&#45;i2p/lib/common/signature.ReadSignature</title>
<g id="a_node2"><a xlink:title="github.com/go&#45;i2p/go&#45;i2p/lib/common/signature.ReadSignature | defined in signature.go:66&#10;at signature.go:96: calling [(*github.com/go&#45;i2p/logger.Logger).WithError]&#10;at signature.go:90: calling [github.com/samber/oops.Errorf]&#10;at signature.go:95: calling [github.com/samber/oops.Errorf]&#10;at signature.go:96: calling [(*github.com/go&#45;i2p/logger.Logger).Error]">
<path fill="#add8e6" stroke="#000000" stroke-width="1.5" d="M295.0963,-124C295.0963,-124 212.2559,-124 212.2559,-124 206.2559,-124 200.2559,-118 200.2559,-112 200.2559,-112 200.2559,-100 200.2559,-100 200.2559,-94 206.2559,-88 212.2559,-88 212.2559,-88 295.0963,-88 295.0963,-88 301.0963,-88 307.0963,-94 307.0963,-100 307.0963,-100 307.0963,-112 307.0963,-112 307.0963,-118 301.0963,-124 295.0963,-124"/>
<text text-anchor="middle" x="253.6761" y="-101.8" font-family="Verdana" font-size="14.00" fill="#000000">ReadSignature</text>
</a>
</g>
</g>
<!-- github.com/go&#45;i2p/go&#45;i2p/lib/common/signature.NewSignature&#45;&gt;github.com/go&#45;i2p/go&#45;i2p/lib/common/signature.ReadSignature -->
<g id="edge2" class="edge">
<title>github.com/go&#45;i2p/go&#45;i2p/lib/common/signature.NewSignature&#45;&gt;github.com/go&#45;i2p/go&#45;i2p/lib/common/signature.ReadSignature</title>
<g id="a_edge2"><a xlink:title="at signature.go:108: calling [github.com/go&#45;i2p/go&#45;i2p/lib/common/signature.ReadSignature]">
<path fill="none" stroke="#000000" d="M100.2528,-174.7926C116.7462,-165.73 137.267,-154.8498 156.0814,-146 169.2752,-139.794 183.7031,-133.5789 197.321,-127.9607"/>
<polygon fill="#000000" stroke="#000000" points="198.6596,-131.1947 206.5943,-124.1739 196.0132,-124.7142 198.6596,-131.1947"/>
</a>
</g>
</g>
<!-- (*github.com/go&#45;i2p/logger.Logger).WithField -->
<g id="node6" class="node">
<title>(*github.com/go&#45;i2p/logger.Logger).WithField</title>
<g id="a_node6"><a xlink:title="(*github.com/go&#45;i2p/logger.Logger).WithField | defined in log.go:54">
<path fill="#ffe4b5" stroke="#000000" stroke-width="1.5" d="M458.6547,-313C458.6547,-313 402.1057,-313 402.1057,-313 396.1057,-313 390.1057,-307 390.1057,-301 390.1057,-301 390.1057,-289 390.1057,-289 390.1057,-283 396.1057,-277 402.1057,-277 402.1057,-277 458.6547,-277 458.6547,-277 464.6547,-277 470.6547,-283 470.6547,-289 470.6547,-289 470.6547,-301 470.6547,-301 470.6547,-307 464.6547,-313 458.6547,-313"/>
<text text-anchor="middle" x="430.3802" y="-299.2" font-family="Verdana" font-size="14.00" fill="#000000">logger</text>
<text text-anchor="middle" x="430.3802" y="-282.4" font-family="Verdana" font-size="14.00" fill="#000000">WithField</text>
</a>
</g>
</g>
<!-- github.com/go&#45;i2p/go&#45;i2p/lib/common/signature.NewSignature&#45;&gt;(*github.com/go&#45;i2p/logger.Logger).WithField -->
<g id="edge5" class="edge">
<title>github.com/go&#45;i2p/go&#45;i2p/lib/common/signature.NewSignature&#45;&gt;(*github.com/go&#45;i2p/logger.Logger).WithField</title>
<g id="a_edge5"><a xlink:title="at signature.go:107: calling [(*github.com/go&#45;i2p/logger.Logger).WithField]">
<path fill="none" stroke="#8b4513" d="M120.2271,-204.9654C142.6007,-209.9142 169.0645,-215.5281 193.0814,-220 246.6801,-229.9799 262.2256,-222.7606 314.2708,-239 340.6288,-247.2243 368.5487,-260.5281 390.4032,-272.1051"/>
<polygon fill="#8b4513" stroke="#8b4513" points="388.9124,-275.2776 399.3758,-276.9412 392.2336,-269.1156 388.9124,-275.2776"/>
</a>
</g>
</g>
<!-- (*github.com/go&#45;i2p/logger.Logger).WithError -->
<g id="node7" class="node">
<title>(*github.com/go&#45;i2p/logger.Logger).WithError</title>
<g id="a_node7"><a xlink:title="(*github.com/go&#45;i2p/logger.Logger).WithError | defined in log.go:66">
<path fill="#ffe4b5" stroke="#000000" stroke-width="1.5" d="M458.9117,-130C458.9117,-130 401.8487,-130 401.8487,-130 395.8487,-130 389.8487,-124 389.8487,-118 389.8487,-118 389.8487,-106 389.8487,-106 389.8487,-100 395.8487,-94 401.8487,-94 401.8487,-94 458.9117,-94 458.9117,-94 464.9117,-94 470.9117,-100 470.9117,-106 470.9117,-106 470.9117,-118 470.9117,-118 470.9117,-124 464.9117,-130 458.9117,-130"/>
<text text-anchor="middle" x="430.3802" y="-116.2" font-family="Verdana" font-size="14.00" fill="#000000">logger</text>
<text text-anchor="middle" x="430.3802" y="-99.4" font-family="Verdana" font-size="14.00" fill="#000000">WithError</text>
</a>
</g>
</g>
<!-- github.com/go&#45;i2p/go&#45;i2p/lib/common/signature.NewSignature&#45;&gt;(*github.com/go&#45;i2p/logger.Logger).WithError -->
<g id="edge8" class="edge">
<title>github.com/go&#45;i2p/go&#45;i2p/lib/common/signature.NewSignature&#45;&gt;(*github.com/go&#45;i2p/logger.Logger).WithError</title>
<g id="a_edge8"><a xlink:title="at signature.go:110: calling [(*github.com/go&#45;i2p/logger.Logger).WithError]">
<path fill="none" stroke="#8b4513" d="M120.341,-181.3084C189.5934,-165.8272 310.9326,-138.7022 379.4763,-123.3794"/>
<polygon fill="#8b4513" stroke="#8b4513" points="380.6053,-126.7135 389.6008,-121.1161 379.0781,-119.8821 380.6053,-126.7135"/>
</a>
</g>
</g>
<!-- (*github.com/go&#45;i2p/logger.Logger).Error -->
<g id="node8" class="node">
<title>(*github.com/go&#45;i2p/logger.Logger).Error</title>
<g id="a_node8"><a xlink:title="(*github.com/go&#45;i2p/logger.Logger).Error | defined in log.go:42">
<path fill="#ffe4b5" stroke="#000000" stroke-width="1.5" d="M448.1465,-191C448.1465,-191 412.6139,-191 412.6139,-191 406.6139,-191 400.6139,-185 400.6139,-179 400.6139,-179 400.6139,-167 400.6139,-167 400.6139,-161 406.6139,-155 412.6139,-155 412.6139,-155 448.1465,-155 448.1465,-155 454.1465,-155 460.1465,-161 460.1465,-167 460.1465,-167 460.1465,-179 460.1465,-179 460.1465,-185 454.1465,-191 448.1465,-191"/>
<text text-anchor="middle" x="430.3802" y="-177.2" font-family="Verdana" font-size="14.00" fill="#000000">logger</text>
<text text-anchor="middle" x="430.3802" y="-160.4" font-family="Verdana" font-size="14.00" fill="#000000">Error</text>
</a>
</g>
</g>
<!-- github.com/go&#45;i2p/go&#45;i2p/lib/common/signature.NewSignature&#45;&gt;(*github.com/go&#45;i2p/logger.Logger).Error -->
<g id="edge3" class="edge">
<title>github.com/go&#45;i2p/go&#45;i2p/lib/common/signature.NewSignature&#45;&gt;(*github.com/go&#45;i2p/logger.Logger).Error</title>
<g id="a_edge3"><a xlink:title="at signature.go:110: calling [(*github.com/go&#45;i2p/logger.Logger).Error]">
<path fill="none" stroke="#8b4513" d="M120.341,-190.1132C193.3004,-186.0861 324.0721,-178.8679 390.0137,-175.2281"/>
<polygon fill="#8b4513" stroke="#8b4513" points="390.6108,-178.7006 400.4027,-174.6547 390.2249,-171.7112 390.6108,-178.7006"/>
</a>
</g>
</g>
<!-- (*github.com/go&#45;i2p/logger.Logger).WithFields -->
<g id="node9" class="node">
<title>(*github.com/go&#45;i2p/logger.Logger).WithFields</title>
<g id="a_node9"><a xlink:title="(*github.com/go&#45;i2p/logger.Logger).WithFields | defined in log.go:60">
<path fill="#ffe4b5" stroke="#000000" stroke-width="1.5" d="M461.5993,-252C461.5993,-252 399.1611,-252 399.1611,-252 393.1611,-252 387.1611,-246 387.1611,-240 387.1611,-240 387.1611,-228 387.1611,-228 387.1611,-222 393.1611,-216 399.1611,-216 399.1611,-216 461.5993,-216 461.5993,-216 467.5993,-216 473.5993,-222 473.5993,-228 473.5993,-228 473.5993,-240 473.5993,-240 473.5993,-246 467.5993,-252 461.5993,-252"/>
<text text-anchor="middle" x="430.3802" y="-238.2" font-family="Verdana" font-size="14.00" fill="#000000">logger</text>
<text text-anchor="middle" x="430.3802" y="-221.4" font-family="Verdana" font-size="14.00" fill="#000000">WithFields</text>
</a>
</g>
</g>
<!-- github.com/go&#45;i2p/go&#45;i2p/lib/common/signature.NewSignature&#45;&gt;(*github.com/go&#45;i2p/logger.Logger).WithFields -->
<g id="edge9" class="edge">
<title>github.com/go&#45;i2p/go&#45;i2p/lib/common/signature.NewSignature&#45;&gt;(*github.com/go&#45;i2p/logger.Logger).WithFields</title>
<g id="a_edge9"><a xlink:title="at signature.go:114: calling [(*github.com/go&#45;i2p/logger.Logger).WithFields]">
<path fill="none" stroke="#8b4513" d="M120.341,-198.918C188.7545,-206.6592 308.0006,-220.1523 376.9625,-227.9556"/>
<polygon fill="#8b4513" stroke="#8b4513" points="376.8415,-231.4642 387.1717,-229.1108 377.6286,-224.5085 376.8415,-231.4642"/>
</a>
</g>
</g>
<!-- (*github.com/sirupsen/logrus.Logger).Debug -->
<g id="node10" class="node">
<title>(*github.com/sirupsen/logrus.Logger).Debug</title>
<g id="a_node10"><a xlink:title="(*github.com/sirupsen/logrus.Logger).Debug | defined in logger.go:221">
<path fill="#ffe4b5" stroke="#000000" stroke-width="1.5" d="M272.4981,-313C272.4981,-313 234.8541,-313 234.8541,-313 228.8541,-313 222.8541,-307 222.8541,-301 222.8541,-301 222.8541,-289 222.8541,-289 222.8541,-283 228.8541,-277 234.8541,-277 234.8541,-277 272.4981,-277 272.4981,-277 278.4981,-277 284.4981,-283 284.4981,-289 284.4981,-289 284.4981,-301 284.4981,-301 284.4981,-307 278.4981,-313 272.4981,-313"/>
<text text-anchor="middle" x="253.6761" y="-299.2" font-family="Verdana" font-size="14.00" fill="#000000">logrus</text>
<text text-anchor="middle" x="253.6761" y="-282.4" font-family="Verdana" font-size="14.00" fill="#000000">Debug</text>
</a>
</g>
</g>
<!-- github.com/go&#45;i2p/go&#45;i2p/lib/common/signature.NewSignature&#45;&gt;(*github.com/sirupsen/logrus.Logger).Debug -->
<g id="edge10" class="edge">
<title>github.com/go&#45;i2p/go&#45;i2p/lib/common/signature.NewSignature&#45;&gt;(*github.com/sirupsen/logrus.Logger).Debug</title>
<g id="a_edge10"><a xlink:title="at signature.go:107: calling [(*github.com/sirupsen/logrus.Logger).Debug]&#10;at signature.go:117: calling [(*github.com/sirupsen/logrus.Logger).Debug]">
<path fill="none" stroke="#8b4513" d="M92.9329,-211.2683C117.4985,-228.7221 156.5722,-254.9699 193.0814,-273 199.419,-276.1298 206.3176,-279.0544 213.1146,-281.6844"/>
<polygon fill="#8b4513" stroke="#8b4513" points="212.33,-285.1261 222.9231,-285.3166 214.7609,-278.5617 212.33,-285.1261"/>
</a>
</g>
</g>
<!-- github.com/samber/oops.Errorf -->
<g id="node3" class="node">
<title>github.com/samber/oops.Errorf</title>
<g id="a_node3"><a xlink:title="github.com/samber/oops.Errorf | defined in oops.go:34">
<path fill="#ffe4b5" stroke="#000000" stroke-width="1.5" d="M447.5755,-52C447.5755,-52 413.1849,-52 413.1849,-52 407.1849,-52 401.1849,-46 401.1849,-40 401.1849,-40 401.1849,-28 401.1849,-28 401.1849,-22 407.1849,-16 413.1849,-16 413.1849,-16 447.5755,-16 447.5755,-16 453.5755,-16 459.5755,-22 459.5755,-28 459.5755,-28 459.5755,-40 459.5755,-40 459.5755,-46 453.5755,-52 447.5755,-52"/>
<text text-anchor="middle" x="430.3802" y="-38.2" font-family="Verdana" font-size="14.00" fill="#000000">oops</text>
<text text-anchor="middle" x="430.3802" y="-21.4" font-family="Verdana" font-size="14.00" fill="#000000">Errorf</text>
</a>
</g>
</g>
<!-- github.com/go&#45;i2p/go&#45;i2p/lib/common/signature.ReadSignature&#45;&gt;github.com/samber/oops.Errorf -->
<g id="edge6" class="edge">
<title>github.com/go&#45;i2p/go&#45;i2p/lib/common/signature.ReadSignature&#45;&gt;github.com/samber/oops.Errorf</title>
<g id="a_edge6"><a xlink:title="at signature.go:90: calling [github.com/samber/oops.Errorf]&#10;at signature.go:95: calling [github.com/samber/oops.Errorf]">
<path fill="none" stroke="#8b4513" d="M298.266,-87.8314C327.0751,-76.0928 364.1891,-60.9703 391.7412,-49.7439"/>
<polygon fill="#8b4513" stroke="#8b4513" points="393.1185,-52.9621 401.0586,-45.9474 390.4771,-46.4796 393.1185,-52.9621"/>
</a>
</g>
</g>
<!-- github.com/go&#45;i2p/go&#45;i2p/lib/common/signature.ReadSignature&#45;&gt;(*github.com/go&#45;i2p/logger.Logger).WithError -->
<g id="edge1" class="edge">
<title>github.com/go&#45;i2p/go&#45;i2p/lib/common/signature.ReadSignature&#45;&gt;(*github.com/go&#45;i2p/logger.Logger).WithError</title>
<g id="a_edge1"><a xlink:title="at signature.go:96: calling [(*github.com/go&#45;i2p/logger.Logger).WithError]">
<path fill="none" stroke="#8b4513" d="M307.1727,-107.8165C330.1637,-108.5971 356.9049,-109.5051 379.5878,-110.2753"/>
<polygon fill="#8b4513" stroke="#8b4513" points="379.583,-113.7771 389.696,-110.6186 379.8206,-106.7811 379.583,-113.7771"/>
</a>
</g>
</g>
<!-- github.com/go&#45;i2p/go&#45;i2p/lib/common/signature.ReadSignature&#45;&gt;(*github.com/go&#45;i2p/logger.Logger).Error -->
<g id="edge7" class="edge">
<title>github.com/go&#45;i2p/go&#45;i2p/lib/common/signature.ReadSignature&#45;&gt;(*github.com/go&#45;i2p/logger.Logger).Error</title>
<g id="a_edge7"><a xlink:title="at signature.go:96: calling [(*github.com/go&#45;i2p/logger.Logger).Error]">
<path fill="none" stroke="#8b4513" d="M301.4948,-124.1312C329.5,-134.7498 364.442,-147.9986 390.8762,-158.0215"/>
<polygon fill="#8b4513" stroke="#8b4513" points="389.9672,-161.4199 400.5586,-161.6927 392.449,-154.8746 389.9672,-161.4199"/>
</a>
</g>
</g>
<!-- github.com/go&#45;i2p/go&#45;i2p/lib/common/signature.init -->
<g id="node4" class="node">
<title>github.com/go&#45;i2p/go&#45;i2p/lib/common/signature.init</title>
<g id="a_node4"><a xlink:title="github.com/go&#45;i2p/go&#45;i2p/lib/common/signature.init | defined in .:0&#10;at signature.go:10: calling [github.com/go&#45;i2p/logger.GetGoI2PLogger]">
<path fill="#add8e6" stroke="#000000" stroke-width=".5" d="M83.0407,-56C83.0407,-56 53.0407,-56 53.0407,-56 47.0407,-56 41.0407,-50 41.0407,-44 41.0407,-44 41.0407,-32 41.0407,-32 41.0407,-26 47.0407,-20 53.0407,-20 53.0407,-20 83.0407,-20 83.0407,-20 89.0407,-20 95.0407,-26 95.0407,-32 95.0407,-32 95.0407,-44 95.0407,-44 95.0407,-50 89.0407,-56 83.0407,-56"/>
<text text-anchor="middle" x="68.0407" y="-33.8" font-family="Verdana" font-size="14.00" fill="#000000">init</text>
</a>
</g>
</g>
<!-- github.com/go&#45;i2p/logger.GetGoI2PLogger -->
<g id="node5" class="node">
<title>github.com/go&#45;i2p/logger.GetGoI2PLogger</title>
<g id="a_node5"><a xlink:title="github.com/go&#45;i2p/logger.GetGoI2PLogger | defined in log.go:120">
<path fill="#ffe4b5" stroke="#000000" stroke-width="1.5" d="M302.3656,-56C302.3656,-56 204.9866,-56 204.9866,-56 198.9866,-56 192.9866,-50 192.9866,-44 192.9866,-44 192.9866,-32 192.9866,-32 192.9866,-26 198.9866,-20 204.9866,-20 204.9866,-20 302.3656,-20 302.3656,-20 308.3656,-20 314.3656,-26 314.3656,-32 314.3656,-32 314.3656,-44 314.3656,-44 314.3656,-50 308.3656,-56 302.3656,-56"/>
<text text-anchor="middle" x="253.6761" y="-42.2" font-family="Verdana" font-size="14.00" fill="#000000">logger</text>
<text text-anchor="middle" x="253.6761" y="-25.4" font-family="Verdana" font-size="14.00" fill="#000000">GetGoI2PLogger</text>
</a>
</g>
</g>
<!-- github.com/go&#45;i2p/go&#45;i2p/lib/common/signature.init&#45;&gt;github.com/go&#45;i2p/logger.GetGoI2PLogger -->
<g id="edge4" class="edge">
<title>github.com/go&#45;i2p/go&#45;i2p/lib/common/signature.init&#45;&gt;github.com/go&#45;i2p/logger.GetGoI2PLogger</title>
<g id="a_edge4"><a xlink:title="at signature.go:10: calling [github.com/go&#45;i2p/logger.GetGoI2PLogger]">
<path fill="none" stroke="#8b4513" d="M95.4318,-38C118.3566,-38 152.1155,-38 182.5704,-38"/>
<polygon fill="#8b4513" stroke="#8b4513" points="182.7516,-41.5001 192.7515,-38 182.7515,-34.5001 182.7516,-41.5001"/>
</a>
</g>
</g>
</g>
</svg>
