<?xml version="1.0" encoding="UTF-8" standalone="no"?>
<!DOCTYPE svg PUBLIC "-//W3C//DTD SVG 1.1//EN"
 "http://www.w3.org/Graphics/SVG/1.1/DTD/svg11.dtd">
<!-- Generated by graphviz version 2.40.1 (20161225.0304)
 -->
<!-- Title: gocallvis Pages: 1 -->
<svg width="518pt" height="506pt"
 viewBox="0.00 0.00 517.69 506.00" xmlns="http://www.w3.org/2000/svg" xmlns:xlink="http://www.w3.org/1999/xlink">
<g id="graph0" class="graph" transform="scale(1 1) rotate(0) translate(0 506)">
<title>gocallvis</title>
<polygon fill="#d3d3d3" stroke="transparent" points="0,0 0,-506 517.6902,-506 517.6902,0 0,0"/>
<g id="clust1" class="cluster">
<title>cluster_focus</title>
<polygon fill="#e6ecfa" stroke="#000000" stroke-width=".5" points="8,-8 8,-498 509.6902,-498 509.6902,-8 8,-8"/>
<text text-anchor="middle" x="258.8451" y="-477.8" font-family="Arial" font-size="18.00" fill="#000000">signature</text>
</g>
<g id="clust5" class="cluster">
<title>cluster_github.com/sirupsen/logrus</title>
<g id="a_clust5"><a xlink:href="/?f=github.com/sirupsen/logrus" xlink:title="package: github.com/sirupsen/logrus">
<polygon fill="#ffffe0" stroke="#000000" stroke-width=".8" points="199.6305,-339 199.6305,-460 292.9517,-460 292.9517,-339 199.6305,-339"/>
<text text-anchor="middle" x="246.2911" y="-441.6" font-family="Tahoma bold" font-size="16.00" fill="#000000">logrus</text>
</a>
</g>
</g>
<g id="clust6" class="cluster">
<title>cluster_*github.com/sirupsen/logrus.Logger</title>
<g id="a_clust6"><a xlink:href="/?f=github.com/sirupsen/logrus" xlink:title="type: *github.com/sirupsen/logrus.Logger">
<path fill="#eed8ae" stroke="#000000" stroke-width=".5" d="M219.6305,-347C219.6305,-347 272.9517,-347 272.9517,-347 278.9517,-347 284.9517,-353 284.9517,-359 284.9517,-359 284.9517,-413 284.9517,-413 284.9517,-419 278.9517,-425 272.9517,-425 272.9517,-425 219.6305,-425 219.6305,-425 213.6305,-425 207.6305,-419 207.6305,-413 207.6305,-413 207.6305,-359 207.6305,-359 207.6305,-353 213.6305,-347 219.6305,-347"/>
<text text-anchor="middle" x="246.2911" y="-355.5" font-family="Tahoma bold" font-size="15.00" fill="#222222">(*Logger)</text>
</a>
</g>
</g>
<g id="clust4" class="cluster">
<title>cluster_github.com/samber/oops</title>
<g id="a_clust4"><a xlink:href="/?f=github.com/samber/oops" xlink:title="package: github.com/samber/oops">
<polygon fill="#ffffe0" stroke="#000000" stroke-width=".8" points="395.998,-16 395.998,-95 470.193,-95 470.193,-16 395.998,-16"/>
<text text-anchor="middle" x="433.0955" y="-76.6" font-family="Tahoma bold" font-size="16.00" fill="#000000">oops</text>
</a>
</g>
</g>
<g id="clust2" class="cluster">
<title>cluster_github.com/go&#45;i2p/logger</title>
<g id="a_clust2"><a xlink:href="/?f=github.com/go-i2p/logger" xlink:title="package: github.com/go&#45;i2p/logger">
<polygon fill="#ffffe0" stroke="#000000" stroke-width=".8" points="364.5008,-103 364.5008,-460 501.6902,-460 501.6902,-103 364.5008,-103"/>
<text text-anchor="middle" x="433.0955" y="-441.6" font-family="Tahoma bold" font-size="16.00" fill="#000000">logger</text>
</a>
</g>
</g>
<g id="clust3" class="cluster">
<title>cluster_*github.com/go&#45;i2p/logger.Logger</title>
<g id="a_clust3"><a xlink:href="/?f=github.com/go-i2p/logger" xlink:title="type: *github.com/go&#45;i2p/logger.Logger">
<path fill="#eed8ae" stroke="#000000" stroke-width=".5" d="M393.9861,-111C393.9861,-111 472.2049,-111 472.2049,-111 478.2049,-111 484.2049,-117 484.2049,-123 484.2049,-123 484.2049,-360 484.2049,-360 484.2049,-366 478.2049,-372 472.2049,-372 472.2049,-372 393.9861,-372 393.9861,-372 387.9861,-372 381.9861,-366 381.9861,-360 381.9861,-360 381.9861,-123 381.9861,-123 381.9861,-117 387.9861,-111 393.9861,-111"/>
<text text-anchor="middle" x="433.0955" y="-119.5" font-family="Tahoma bold" font-size="15.00" fill="#222222">(*Logger)</text>
</a>
</g>
</g>
<!-- github.com/go&#45;i2p/go&#45;i2p/lib/common/signature.NewSignature -->
<g id="node1" class="node">
<title>github.com/go&#45;i2p/go&#45;i2p/lib/common/signature.NewSignature</title>
<g id="a_node1"><a xlink:title="github.com/go&#45;i2p/go&#45;i2p/lib/common/signature.NewSignature | defined in signature.go:106&#10;at signature.go:107: calling [(*github.com/go&#45;i2p/logger.Logger).WithField]&#10;at signature.go:110: calling [(*github.com/go&#45;i2p/logger.Logger).Error]&#10;at signature.go:114: calling [(*github.com/go&#45;i2p/logger.Logger).WithFields]&#10;at signature.go:107: calling [(*github.com/sirupsen/logrus.Logger).Debug]&#10;at signature.go:117: calling [(*github.com/sirupsen/logrus.Logger).Debug]&#10;at signature.go:108: calling [github.com/go&#45;i2p/go&#45;i2p/lib/common/signature.ReadSignature]&#10;at signature.go:110: calling [(*github.com/go&#45;i2p/logger.Logger).WithError]">
<path fill="#add8e6" stroke="#000000" stroke-width="1.5" d="M108.1221,-246C108.1221,-246 27.9593,-246 27.9593,-246 21.9593,-246 15.9593,-240 15.9593,-234 15.9593,-234 15.9593,-222 15.9593,-222 15.9593,-216 21.9593,-210 27.9593,-210 27.9593,-210 108.1221,-210 108.1221,-210 114.1221,-210 120.1221,-216 120.1221,-222 120.1221,-222 120.1221,-234 120.1221,-234 120.1221,-240 114.1221,-246 108.1221,-246"/>
<text text-anchor="middle" x="68.0407" y="-223.8" font-family="Verdana" font-size="14.00" fill="#000000">NewSignature</text>
</a>
</g>
</g>
<!-- github.com/go&#45;i2p/go&#45;i2p/lib/common/signature.ReadSignature -->
<g id="node2" class="node">
<title>github.com/go&#45;i2p/go&#45;i2p/lib/common/signature.ReadSignature</title>
<g id="a_node2"><a xlink:title="github.com/go&#45;i2p/go&#45;i2p/lib/common/signature.ReadSignature | defined in signature.go:66&#10;at signature.go:96: calling [(*github.com/go&#45;i2p/logger.Logger).WithError]&#10;at signature.go:96: calling [(*github.com/go&#45;i2p/logger.Logger).Error]&#10;at signature.go:90: calling [github.com/samber/oops.Errorf]&#10;at signature.go:95: calling [github.com/samber/oops.Errorf]">
<path fill="#add8e6" stroke="#000000" stroke-width="1.5" d="M287.7113,-189C287.7113,-189 204.8709,-189 204.8709,-189 198.8709,-189 192.8709,-183 192.8709,-177 192.8709,-177 192.8709,-165 192.8709,-165 192.8709,-159 198.8709,-153 204.8709,-153 204.8709,-153 287.7113,-153 287.7113,-153 293.7113,-153 299.7113,-159 299.7113,-165 299.7113,-165 299.7113,-177 299.7113,-177 299.7113,-183 293.7113,-189 287.7113,-189"/>
<text text-anchor="middle" x="246.2911" y="-166.8" font-family="Verdana" font-size="14.00" fill="#000000">ReadSignature</text>
</a>
</g>
</g>
<!-- github.com/go&#45;i2p/go&#45;i2p/lib/common/signature.NewSignature&#45;&gt;github.com/go&#45;i2p/go&#45;i2p/lib/common/signature.ReadSignature -->
<g id="edge9" class="edge">
<title>github.com/go&#45;i2p/go&#45;i2p/lib/common/signature.NewSignature&#45;&gt;github.com/go&#45;i2p/go&#45;i2p/lib/common/signature.ReadSignature</title>
<g id="a_edge9"><a xlink:title="at signature.go:108: calling [github.com/go&#45;i2p/go&#45;i2p/lib/common/signature.ReadSignature]">
<path fill="none" stroke="#000000" d="M120.5576,-211.2064C140.2388,-204.9129 162.8027,-197.6975 183.3337,-191.1322"/>
<polygon fill="#000000" stroke="#000000" points="184.457,-194.4477 192.9158,-188.0681 182.3248,-187.7803 184.457,-194.4477"/>
</a>
</g>
</g>
<!-- (*github.com/go&#45;i2p/logger.Logger).WithField -->
<g id="node5" class="node">
<title>(*github.com/go&#45;i2p/logger.Logger).WithField</title>
<g id="a_node5"><a xlink:title="(*github.com/go&#45;i2p/logger.Logger).WithField | defined in log.go:54">
<path fill="#ffe4b5" stroke="#000000" stroke-width="1.5" d="M461.37,-303C461.37,-303 404.821,-303 404.821,-303 398.821,-303 392.821,-297 392.821,-291 392.821,-291 392.821,-279 392.821,-279 392.821,-273 398.821,-267 404.821,-267 404.821,-267 461.37,-267 461.37,-267 467.37,-267 473.37,-273 473.37,-279 473.37,-279 473.37,-291 473.37,-291 473.37,-297 467.37,-303 461.37,-303"/>
<text text-anchor="middle" x="433.0955" y="-280.8" font-family="Verdana" font-size="14.00" fill="#000000">WithField</text>
</a>
</g>
</g>
<!-- github.com/go&#45;i2p/go&#45;i2p/lib/common/signature.NewSignature&#45;&gt;(*github.com/go&#45;i2p/logger.Logger).WithField -->
<g id="edge2" class="edge">
<title>github.com/go&#45;i2p/go&#45;i2p/lib/common/signature.NewSignature&#45;&gt;(*github.com/go&#45;i2p/logger.Logger).WithField</title>
<g id="a_edge2"><a xlink:title="at signature.go:107: calling [(*github.com/go&#45;i2p/logger.Logger).WithField]">
<path fill="none" stroke="#8b4513" d="M120.2622,-232.9298C174.5464,-238.4475 261.8522,-248.4265 336.5008,-262 351.5216,-264.7313 367.71,-268.3254 382.4604,-271.8585"/>
<polygon fill="#8b4513" stroke="#8b4513" points="381.8661,-275.3161 392.4105,-274.2834 383.5236,-268.5151 381.8661,-275.3161"/>
</a>
</g>
</g>
<!-- (*github.com/go&#45;i2p/logger.Logger).WithError -->
<g id="node6" class="node">
<title>(*github.com/go&#45;i2p/logger.Logger).WithError</title>
<g id="a_node6"><a xlink:title="(*github.com/go&#45;i2p/logger.Logger).WithError | defined in log.go:66">
<path fill="#ffe4b5" stroke="#000000" stroke-width="1.5" d="M461.627,-242C461.627,-242 404.564,-242 404.564,-242 398.564,-242 392.564,-236 392.564,-230 392.564,-230 392.564,-218 392.564,-218 392.564,-212 398.564,-206 404.564,-206 404.564,-206 461.627,-206 461.627,-206 467.627,-206 473.627,-212 473.627,-218 473.627,-218 473.627,-230 473.627,-230 473.627,-236 467.627,-242 461.627,-242"/>
<text text-anchor="middle" x="433.0955" y="-219.8" font-family="Verdana" font-size="14.00" fill="#000000">WithError</text>
</a>
</g>
</g>
<!-- github.com/go&#45;i2p/go&#45;i2p/lib/common/signature.NewSignature&#45;&gt;(*github.com/go&#45;i2p/logger.Logger).WithError -->
<g id="edge10" class="edge">
<title>github.com/go&#45;i2p/go&#45;i2p/lib/common/signature.NewSignature&#45;&gt;(*github.com/go&#45;i2p/logger.Logger).WithError</title>
<g id="a_edge10"><a xlink:title="at signature.go:110: calling [(*github.com/go&#45;i2p/logger.Logger).WithError]">
<path fill="none" stroke="#8b4513" d="M120.3442,-227.4269C190.1967,-226.6615 313.143,-225.3144 382.2484,-224.5571"/>
<polygon fill="#8b4513" stroke="#8b4513" points="382.4898,-228.0548 392.4508,-224.4454 382.4131,-221.0552 382.4898,-228.0548"/>
</a>
</g>
</g>
<!-- (*github.com/go&#45;i2p/logger.Logger).Error -->
<g id="node7" class="node">
<title>(*github.com/go&#45;i2p/logger.Logger).Error</title>
<g id="a_node7"><a xlink:title="(*github.com/go&#45;i2p/logger.Logger).Error | defined in log.go:42">
<path fill="#ffe4b5" stroke="#000000" stroke-width="1.5" d="M448.0955,-181C448.0955,-181 418.0955,-181 418.0955,-181 412.0955,-181 406.0955,-175 406.0955,-169 406.0955,-169 406.0955,-157 406.0955,-157 406.0955,-151 412.0955,-145 418.0955,-145 418.0955,-145 448.0955,-145 448.0955,-145 454.0955,-145 460.0955,-151 460.0955,-157 460.0955,-157 460.0955,-169 460.0955,-169 460.0955,-175 454.0955,-181 448.0955,-181"/>
<text text-anchor="middle" x="433.0955" y="-158.8" font-family="Verdana" font-size="14.00" fill="#000000">Error</text>
</a>
</g>
</g>
<!-- github.com/go&#45;i2p/go&#45;i2p/lib/common/signature.NewSignature&#45;&gt;(*github.com/go&#45;i2p/logger.Logger).Error -->
<g id="edge5" class="edge">
<title>github.com/go&#45;i2p/go&#45;i2p/lib/common/signature.NewSignature&#45;&gt;(*github.com/go&#45;i2p/logger.Logger).Error</title>
<g id="a_edge5"><a xlink:title="at signature.go:110: calling [(*github.com/go&#45;i2p/logger.Logger).Error]">
<path fill="none" stroke="#8b4513" d="M86.3702,-209.6972C109.1193,-188.4054 150.1838,-154.4553 193.0814,-141 262.5984,-119.1953 348.5806,-137.2279 396.4731,-150.9947"/>
<polygon fill="#8b4513" stroke="#8b4513" points="395.5125,-154.3604 406.0951,-153.8518 397.5051,-147.65 395.5125,-154.3604"/>
</a>
</g>
</g>
<!-- (*github.com/go&#45;i2p/logger.Logger).WithFields -->
<g id="node8" class="node">
<title>(*github.com/go&#45;i2p/logger.Logger).WithFields</title>
<g id="a_node8"><a xlink:title="(*github.com/go&#45;i2p/logger.Logger).WithFields | defined in log.go:60">
<path fill="#ffe4b5" stroke="#000000" stroke-width="1.5" d="M464.3146,-364C464.3146,-364 401.8764,-364 401.8764,-364 395.8764,-364 389.8764,-358 389.8764,-352 389.8764,-352 389.8764,-340 389.8764,-340 389.8764,-334 395.8764,-328 401.8764,-328 401.8764,-328 464.3146,-328 464.3146,-328 470.3146,-328 476.3146,-334 476.3146,-340 476.3146,-340 476.3146,-352 476.3146,-352 476.3146,-358 470.3146,-364 464.3146,-364"/>
<text text-anchor="middle" x="433.0955" y="-341.8" font-family="Verdana" font-size="14.00" fill="#000000">WithFields</text>
</a>
</g>
</g>
<!-- github.com/go&#45;i2p/go&#45;i2p/lib/common/signature.NewSignature&#45;&gt;(*github.com/go&#45;i2p/logger.Logger).WithFields -->
<g id="edge6" class="edge">
<title>github.com/go&#45;i2p/go&#45;i2p/lib/common/signature.NewSignature&#45;&gt;(*github.com/go&#45;i2p/logger.Logger).WithFields</title>
<g id="a_edge6"><a xlink:title="at signature.go:114: calling [(*github.com/go&#45;i2p/logger.Logger).WithFields]">
<path fill="none" stroke="#8b4513" d="M120.2399,-239.7175C183.2108,-253.9602 282.754,-276.8577 299.5008,-283 329.9182,-294.1563 335.2023,-302.1698 364.5008,-316 369.9224,-318.5592 375.6171,-321.1702 381.3106,-323.731"/>
<polygon fill="#8b4513" stroke="#8b4513" points="380.2835,-327.105 390.8426,-327.9756 383.1311,-320.7103 380.2835,-327.105"/>
</a>
</g>
</g>
<!-- (*github.com/sirupsen/logrus.Logger).Debug -->
<g id="node10" class="node">
<title>(*github.com/sirupsen/logrus.Logger).Debug</title>
<g id="a_node10"><a xlink:title="(*github.com/sirupsen/logrus.Logger).Debug | defined in logger.go:221">
<path fill="#ffe4b5" stroke="#000000" stroke-width="1.5" d="M265.1131,-417C265.1131,-417 227.4691,-417 227.4691,-417 221.4691,-417 215.4691,-411 215.4691,-405 215.4691,-405 215.4691,-393 215.4691,-393 215.4691,-387 221.4691,-381 227.4691,-381 227.4691,-381 265.1131,-381 265.1131,-381 271.1131,-381 277.1131,-387 277.1131,-393 277.1131,-393 277.1131,-405 277.1131,-405 277.1131,-411 271.1131,-417 265.1131,-417"/>
<text text-anchor="middle" x="246.2911" y="-394.8" font-family="Verdana" font-size="14.00" fill="#000000">Debug</text>
</a>
</g>
</g>
<!-- github.com/go&#45;i2p/go&#45;i2p/lib/common/signature.NewSignature&#45;&gt;(*github.com/sirupsen/logrus.Logger).Debug -->
<g id="edge7" class="edge">
<title>github.com/go&#45;i2p/go&#45;i2p/lib/common/signature.NewSignature&#45;&gt;(*github.com/sirupsen/logrus.Logger).Debug</title>
<g id="a_edge7"><a xlink:title="at signature.go:107: calling [(*github.com/sirupsen/logrus.Logger).Debug]&#10;at signature.go:117: calling [(*github.com/sirupsen/logrus.Logger).Debug]">
<path fill="none" stroke="#8b4513" d="M78.981,-246.0114C98.4395,-276.7093 141.869,-339.4772 193.0814,-377 197.0552,-379.9116 201.4709,-382.5174 206.0111,-384.8274"/>
<polygon fill="#8b4513" stroke="#8b4513" points="204.8568,-388.1492 215.4036,-389.1564 207.7869,-381.7919 204.8568,-388.1492"/>
</a>
</g>
</g>
<!-- github.com/go&#45;i2p/go&#45;i2p/lib/common/signature.ReadSignature&#45;&gt;(*github.com/go&#45;i2p/logger.Logger).WithError -->
<g id="edge3" class="edge">
<title>github.com/go&#45;i2p/go&#45;i2p/lib/common/signature.ReadSignature&#45;&gt;(*github.com/go&#45;i2p/logger.Logger).WithError</title>
<g id="a_edge3"><a xlink:title="at signature.go:96: calling [(*github.com/go&#45;i2p/logger.Logger).WithError]">
<path fill="none" stroke="#8b4513" d="M299.5717,-186.1167C325.6573,-193.5177 356.8978,-202.3812 382.6,-209.6735"/>
<polygon fill="#8b4513" stroke="#8b4513" points="381.942,-213.1249 392.5177,-212.4873 383.8527,-206.3906 381.942,-213.1249"/>
</a>
</g>
</g>
<!-- github.com/go&#45;i2p/go&#45;i2p/lib/common/signature.ReadSignature&#45;&gt;(*github.com/go&#45;i2p/logger.Logger).Error -->
<g id="edge4" class="edge">
<title>github.com/go&#45;i2p/go&#45;i2p/lib/common/signature.ReadSignature&#45;&gt;(*github.com/go&#45;i2p/logger.Logger).Error</title>
<g id="a_edge4"><a xlink:title="at signature.go:96: calling [(*github.com/go&#45;i2p/logger.Logger).Error]">
<path fill="none" stroke="#8b4513" d="M299.5717,-168.7182C330.3627,-167.3996 368.336,-165.7734 395.9054,-164.5927"/>
<polygon fill="#8b4513" stroke="#8b4513" points="396.0845,-168.0883 405.9255,-164.1636 395.7849,-161.0947 396.0845,-168.0883"/>
</a>
</g>
</g>
<!-- github.com/samber/oops.Errorf -->
<g id="node9" class="node">
<title>github.com/samber/oops.Errorf</title>
<g id="a_node9"><a xlink:title="github.com/samber/oops.Errorf | defined in oops.go:34">
<path fill="#ffe4b5" stroke="#000000" stroke-width="1.5" d="M450.2908,-60C450.2908,-60 415.9002,-60 415.9002,-60 409.9002,-60 403.9002,-54 403.9002,-48 403.9002,-48 403.9002,-36 403.9002,-36 403.9002,-30 409.9002,-24 415.9002,-24 415.9002,-24 450.2908,-24 450.2908,-24 456.2908,-24 462.2908,-30 462.2908,-36 462.2908,-36 462.2908,-48 462.2908,-48 462.2908,-54 456.2908,-60 450.2908,-60"/>
<text text-anchor="middle" x="433.0955" y="-37.8" font-family="Verdana" font-size="14.00" fill="#000000">Errorf</text>
</a>
</g>
</g>
<!-- github.com/go&#45;i2p/go&#45;i2p/lib/common/signature.ReadSignature&#45;&gt;github.com/samber/oops.Errorf -->
<g id="edge8" class="edge">
<title>github.com/go&#45;i2p/go&#45;i2p/lib/common/signature.ReadSignature&#45;&gt;github.com/samber/oops.Errorf</title>
<g id="a_edge8"><a xlink:title="at signature.go:90: calling [github.com/samber/oops.Errorf]&#10;at signature.go:95: calling [github.com/samber/oops.Errorf]">
<path fill="none" stroke="#8b4513" d="M272.6594,-152.7911C305.6195,-130.0301 362.1179,-91.0144 398.5171,-65.8785"/>
<polygon fill="#8b4513" stroke="#8b4513" points="400.6215,-68.6788 406.8613,-60.1163 396.6438,-62.9187 400.6215,-68.6788"/>
</a>
</g>
</g>
<!-- github.com/go&#45;i2p/go&#45;i2p/lib/common/signature.init -->
<g id="node3" class="node">
<title>github.com/go&#45;i2p/go&#45;i2p/lib/common/signature.init</title>
<g id="a_node3"><a xlink:title="github.com/go&#45;i2p/go&#45;i2p/lib/common/signature.init | defined in .:0&#10;at signature.go:10: calling [github.com/go&#45;i2p/logger.GetGoI2PLogger]">
<path fill="#add8e6" stroke="#000000" stroke-width=".5" d="M261.2911,-331C261.2911,-331 231.2911,-331 231.2911,-331 225.2911,-331 219.2911,-325 219.2911,-319 219.2911,-319 219.2911,-307 219.2911,-307 219.2911,-301 225.2911,-295 231.2911,-295 231.2911,-295 261.2911,-295 261.2911,-295 267.2911,-295 273.2911,-301 273.2911,-307 273.2911,-307 273.2911,-319 273.2911,-319 273.2911,-325 267.2911,-331 261.2911,-331"/>
<text text-anchor="middle" x="246.2911" y="-308.8" font-family="Verdana" font-size="14.00" fill="#000000">init</text>
</a>
</g>
</g>
<!-- github.com/go&#45;i2p/logger.GetGoI2PLogger -->
<g id="node4" class="node">
<title>github.com/go&#45;i2p/logger.GetGoI2PLogger</title>
<g id="a_node4"><a xlink:title="github.com/go&#45;i2p/logger.GetGoI2PLogger | defined in log.go:120">
<path fill="#ffe4b5" stroke="#000000" stroke-width="1.5" d="M481.785,-425C481.785,-425 384.406,-425 384.406,-425 378.406,-425 372.406,-419 372.406,-413 372.406,-413 372.406,-401 372.406,-401 372.406,-395 378.406,-389 384.406,-389 384.406,-389 481.785,-389 481.785,-389 487.785,-389 493.785,-395 493.785,-401 493.785,-401 493.785,-413 493.785,-413 493.785,-419 487.785,-425 481.785,-425"/>
<text text-anchor="middle" x="433.0955" y="-402.8" font-family="Verdana" font-size="14.00" fill="#000000">GetGoI2PLogger</text>
</a>
</g>
</g>
<!-- github.com/go&#45;i2p/go&#45;i2p/lib/common/signature.init&#45;&gt;github.com/go&#45;i2p/logger.GetGoI2PLogger -->
<g id="edge1" class="edge">
<title>github.com/go&#45;i2p/go&#45;i2p/lib/common/signature.init&#45;&gt;github.com/go&#45;i2p/logger.GetGoI2PLogger</title>
<g id="a_edge1"><a xlink:title="at signature.go:10: calling [github.com/go&#45;i2p/logger.GetGoI2PLogger]">
<path fill="none" stroke="#8b4513" d="M273.4527,-327.072C281.836,-331.4744 291.0772,-336.3878 299.5008,-341 328.6578,-356.9643 334.6962,-363.2802 364.5008,-378 369.0926,-380.2678 373.9055,-382.528 378.7614,-384.7288"/>
<polygon fill="#8b4513" stroke="#8b4513" points="377.5451,-388.0181 388.1053,-388.874 380.3837,-381.6195 377.5451,-388.0181"/>
</a>
</g>
</g>
</g>
</svg>
