<?xml version="1.0" encoding="UTF-8" standalone="no"?>
<!DOCTYPE svg PUBLIC "-//W3C//DTD SVG 1.1//EN"
 "http://www.w3.org/Graphics/SVG/1.1/DTD/svg11.dtd">
<!-- Generated by graphviz version 2.40.1 (20161225.0304)
 -->
<!-- Title: gocallvis Pages: 1 -->
<svg width="551pt" height="528pt"
 viewBox="0.00 0.00 550.66 528.00" xmlns="http://www.w3.org/2000/svg" xmlns:xlink="http://www.w3.org/1999/xlink">
<g id="graph0" class="graph" transform="scale(1 1) rotate(0) translate(0 528)">
<title>gocallvis</title>
<polygon fill="#d3d3d3" stroke="transparent" points="0,0 0,-528 550.665,-528 550.665,0 0,0"/>
<g id="clust1" class="cluster">
<title>cluster_focus</title>
<polygon fill="#e6ecfa" stroke="#000000" stroke-width=".5" points="0,-8 0,-520 542.665,-520 542.665,-8 0,-8"/>
<text text-anchor="middle" x="271.3325" y="-499.8" font-family="Arial" font-size="18.00" fill="#000000">ecdsa</text>
</g>
<g id="clust7" class="cluster">
<title>cluster_github.com/go&#45;i2p/go&#45;i2p/lib/crypto/ecdsa.ECP521PublicKey</title>
<g id="a_clust7"><a xlink:title="type: github.com/go&#45;i2p/go&#45;i2p/lib/crypto/ecdsa.ECP521PublicKey">
<path fill="#b0c4de" stroke="#000000" stroke-width=".5" d="M20,-388C20,-388 143.7266,-388 143.7266,-388 149.7266,-388 155.7266,-394 155.7266,-400 155.7266,-400 155.7266,-454 155.7266,-454 155.7266,-460 149.7266,-466 143.7266,-466 143.7266,-466 20,-466 20,-466 14,-466 8,-460 8,-454 8,-454 8,-400 8,-400 8,-394 14,-388 20,-388"/>
<text text-anchor="middle" x="81.8633" y="-396.5" font-family="Arial" font-size="15.00" fill="#222222">(ECP521PublicKey)</text>
</a>
</g>
</g>
<g id="clust6" class="cluster">
<title>cluster_github.com/go&#45;i2p/go&#45;i2p/lib/crypto/ecdsa.ECP384PublicKey</title>
<g id="a_clust6"><a xlink:title="type: github.com/go&#45;i2p/go&#45;i2p/lib/crypto/ecdsa.ECP384PublicKey">
<path fill="#b0c4de" stroke="#000000" stroke-width=".5" d="M20,-294C20,-294 143.7266,-294 143.7266,-294 149.7266,-294 155.7266,-300 155.7266,-306 155.7266,-306 155.7266,-360 155.7266,-360 155.7266,-366 149.7266,-372 143.7266,-372 143.7266,-372 20,-372 20,-372 14,-372 8,-366 8,-360 8,-360 8,-306 8,-306 8,-300 14,-294 20,-294"/>
<text text-anchor="middle" x="81.8633" y="-302.5" font-family="Arial" font-size="15.00" fill="#222222">(ECP384PublicKey)</text>
</a>
</g>
</g>
<g id="clust5" class="cluster">
<title>cluster_github.com/go&#45;i2p/go&#45;i2p/lib/crypto/ecdsa.ECP256PublicKey</title>
<g id="a_clust5"><a xlink:title="type: github.com/go&#45;i2p/go&#45;i2p/lib/crypto/ecdsa.ECP256PublicKey">
<path fill="#b0c4de" stroke="#000000" stroke-width=".5" d="M20,-190C20,-190 143.7266,-190 143.7266,-190 149.7266,-190 155.7266,-196 155.7266,-202 155.7266,-202 155.7266,-256 155.7266,-256 155.7266,-262 149.7266,-268 143.7266,-268 143.7266,-268 20,-268 20,-268 14,-268 8,-262 8,-256 8,-256 8,-202 8,-202 8,-196 14,-190 20,-190"/>
<text text-anchor="middle" x="81.8633" y="-198.5" font-family="Arial" font-size="15.00" fill="#222222">(ECP256PublicKey)</text>
</a>
</g>
</g>
<g id="clust4" class="cluster">
<title>cluster_*github.com/sirupsen/logrus.Logger</title>
<g id="a_clust4"><a xlink:title="type: *github.com/sirupsen/logrus.Logger">
<path fill="#eed8ae" stroke="#000000" stroke-width=".5" d="M456.895,-55C456.895,-55 511.2162,-55 511.2162,-55 517.2162,-55 523.2162,-61 523.2162,-67 523.2162,-67 523.2162,-121 523.2162,-121 523.2162,-127 517.2162,-133 511.2162,-133 511.2162,-133 456.895,-133 456.895,-133 450.895,-133 444.895,-127 444.895,-121 444.895,-121 444.895,-67 444.895,-67 444.895,-61 450.895,-55 456.895,-55"/>
<text text-anchor="middle" x="484.0556" y="-63.5" font-family="Arial" font-size="15.00" fill="#222222">(*Logger)</text>
</a>
</g>
</g>
<g id="clust3" class="cluster">
<title>cluster_*github.com/go&#45;i2p/logger.Logger</title>
<g id="a_clust3"><a xlink:title="type: *github.com/go&#45;i2p/logger.Logger">
<path fill="#eed8ae" stroke="#000000" stroke-width=".5" d="M444.4462,-145C444.4462,-145 522.665,-145 522.665,-145 528.665,-145 534.665,-151 534.665,-157 534.665,-157 534.665,-394 534.665,-394 534.665,-400 528.665,-406 522.665,-406 522.665,-406 444.4462,-406 444.4462,-406 438.4462,-406 432.4462,-400 432.4462,-394 432.4462,-394 432.4462,-157 432.4462,-157 432.4462,-151 438.4462,-145 444.4462,-145"/>
<text text-anchor="middle" x="483.5556" y="-153.5" font-family="Arial" font-size="15.00" fill="#222222">(*Logger)</text>
</a>
</g>
</g>
<g id="clust2" class="cluster">
<title>cluster_*github.com/go&#45;i2p/go&#45;i2p/lib/crypto/ecdsa.ECDSAVerifier</title>
<g id="a_clust2"><a xlink:title="type: *github.com/go&#45;i2p/go&#45;i2p/lib/crypto/ecdsa.ECDSAVerifier">
<path fill="#b0c4de" stroke="#000000" stroke-width=".5" d="M55.0968,-97C55.0968,-97 346.7358,-97 346.7358,-97 352.7358,-97 358.7358,-103 358.7358,-109 358.7358,-109 358.7358,-163 358.7358,-163 358.7358,-169 352.7358,-175 346.7358,-175 346.7358,-175 55.0968,-175 55.0968,-175 49.0968,-175 43.0968,-169 43.0968,-163 43.0968,-163 43.0968,-109 43.0968,-109 43.0968,-103 49.0968,-97 55.0968,-97"/>
<text text-anchor="middle" x="200.9163" y="-105.5" font-family="Arial" font-size="15.00" fill="#222222">(*ECDSAVerifier)</text>
</a>
</g>
</g>
<!-- github.com/go&#45;i2p/go&#45;i2p/lib/crypto/ecdsa.CreateECVerifier -->
<g id="node1" class="node">
<title>github.com/go&#45;i2p/go&#45;i2p/lib/crypto/ecdsa.CreateECVerifier</title>
<g id="a_node1"><a xlink:title="github.com/go&#45;i2p/go&#45;i2p/lib/crypto/ecdsa.CreateECVerifier | defined in ecdsa_verifier.go:48&#10;at ecdsa_verifier.go:52: calling [(*github.com/sirupsen/logrus.Logger).Debug]&#10;at ecdsa_verifier.go:63: calling [(*github.com/sirupsen/logrus.Logger).Debug]&#10;at ecdsa_verifier.go:55: calling [(*github.com/go&#45;i2p/logger.Logger).Error]&#10;at ecdsa_verifier.go:49: calling [(*github.com/go&#45;i2p/logger.Logger).WithFields]">
<path fill="#add8e6" stroke="#000000" stroke-width="1.5" d="M355.3063,-286C355.3063,-286 256.8665,-286 256.8665,-286 250.8665,-286 244.8665,-280 244.8665,-274 244.8665,-274 244.8665,-262 244.8665,-262 244.8665,-256 250.8665,-250 256.8665,-250 256.8665,-250 355.3063,-250 355.3063,-250 361.3063,-250 367.3063,-256 367.3063,-262 367.3063,-262 367.3063,-274 367.3063,-274 367.3063,-280 361.3063,-286 355.3063,-286"/>
<text text-anchor="middle" x="306.0864" y="-263.8" font-family="Verdana" font-size="14.00" fill="#000000">CreateECVerifier</text>
</a>
</g>
</g>
<!-- (*github.com/go&#45;i2p/logger.Logger).WithFields -->
<g id="node6" class="node">
<title>(*github.com/go&#45;i2p/logger.Logger).WithFields</title>
<g id="a_node6"><a xlink:title="(*github.com/go&#45;i2p/logger.Logger).WithFields | defined in log.go:60">
<path fill="#ffe4b5" stroke="#000000" stroke-width="1.5" d="M514.7747,-215C514.7747,-215 452.3365,-215 452.3365,-215 446.3365,-215 440.3365,-209 440.3365,-203 440.3365,-203 440.3365,-191 440.3365,-191 440.3365,-185 446.3365,-179 452.3365,-179 452.3365,-179 514.7747,-179 514.7747,-179 520.7747,-179 526.7747,-185 526.7747,-191 526.7747,-191 526.7747,-203 526.7747,-203 526.7747,-209 520.7747,-215 514.7747,-215"/>
<text text-anchor="middle" x="483.5556" y="-201.2" font-family="Verdana" font-size="14.00" fill="#000000">logger</text>
<text text-anchor="middle" x="483.5556" y="-184.4" font-family="Verdana" font-size="14.00" fill="#000000">WithFields</text>
</a>
</g>
</g>
<!-- github.com/go&#45;i2p/go&#45;i2p/lib/crypto/ecdsa.CreateECVerifier&#45;&gt;(*github.com/go&#45;i2p/logger.Logger).WithFields -->
<g id="edge11" class="edge">
<title>github.com/go&#45;i2p/go&#45;i2p/lib/crypto/ecdsa.CreateECVerifier&#45;&gt;(*github.com/go&#45;i2p/logger.Logger).WithFields</title>
<g id="a_edge11"><a xlink:title="at ecdsa_verifier.go:49: calling [(*github.com/go&#45;i2p/logger.Logger).WithFields]">
<path fill="none" stroke="#8b4513" d="M367.3649,-256.8325C379.862,-253.6811 392.7566,-249.7734 404.4462,-245 417.9243,-239.4963 420.0001,-235.5528 432.4462,-228 436.555,-225.5066 440.8499,-222.9008 445.1291,-220.3048"/>
<polygon fill="#8b4513" stroke="#8b4513" points="447.0912,-223.2083 453.8259,-215.0293 443.4607,-217.2233 447.0912,-223.2083"/>
</a>
</g>
</g>
<!-- (*github.com/go&#45;i2p/logger.Logger).Error -->
<g id="node7" class="node">
<title>(*github.com/go&#45;i2p/logger.Logger).Error</title>
<g id="a_node7"><a xlink:title="(*github.com/go&#45;i2p/logger.Logger).Error | defined in log.go:42">
<path fill="#ffe4b5" stroke="#000000" stroke-width="1.5" d="M501.3219,-337C501.3219,-337 465.7893,-337 465.7893,-337 459.7893,-337 453.7893,-331 453.7893,-325 453.7893,-325 453.7893,-313 453.7893,-313 453.7893,-307 459.7893,-301 465.7893,-301 465.7893,-301 501.3219,-301 501.3219,-301 507.3219,-301 513.3219,-307 513.3219,-313 513.3219,-313 513.3219,-325 513.3219,-325 513.3219,-331 507.3219,-337 501.3219,-337"/>
<text text-anchor="middle" x="483.5556" y="-323.2" font-family="Verdana" font-size="14.00" fill="#000000">logger</text>
<text text-anchor="middle" x="483.5556" y="-306.4" font-family="Verdana" font-size="14.00" fill="#000000">Error</text>
</a>
</g>
</g>
<!-- github.com/go&#45;i2p/go&#45;i2p/lib/crypto/ecdsa.CreateECVerifier&#45;&gt;(*github.com/go&#45;i2p/logger.Logger).Error -->
<g id="edge6" class="edge">
<title>github.com/go&#45;i2p/go&#45;i2p/lib/crypto/ecdsa.CreateECVerifier&#45;&gt;(*github.com/go&#45;i2p/logger.Logger).Error</title>
<g id="a_edge6"><a xlink:title="at ecdsa_verifier.go:55: calling [(*github.com/go&#45;i2p/logger.Logger).Error]">
<path fill="none" stroke="#8b4513" d="M367.6585,-285.6942C392.8351,-292.9293 421.2403,-301.0922 443.6284,-307.526"/>
<polygon fill="#8b4513" stroke="#8b4513" points="442.8805,-310.9526 453.4582,-310.3508 444.8139,-304.2249 442.8805,-310.9526"/>
</a>
</g>
</g>
<!-- (*github.com/sirupsen/logrus.Logger).Debug -->
<g id="node10" class="node">
<title>(*github.com/sirupsen/logrus.Logger).Debug</title>
<g id="a_node10"><a xlink:title="(*github.com/sirupsen/logrus.Logger).Debug | defined in logger.go:221">
<path fill="#ffe4b5" stroke="#000000" stroke-width="1.5" d="M502.3776,-125C502.3776,-125 464.7336,-125 464.7336,-125 458.7336,-125 452.7336,-119 452.7336,-113 452.7336,-113 452.7336,-101 452.7336,-101 452.7336,-95 458.7336,-89 464.7336,-89 464.7336,-89 502.3776,-89 502.3776,-89 508.3776,-89 514.3776,-95 514.3776,-101 514.3776,-101 514.3776,-113 514.3776,-113 514.3776,-119 508.3776,-125 502.3776,-125"/>
<text text-anchor="middle" x="483.5556" y="-111.2" font-family="Verdana" font-size="14.00" fill="#000000">logrus</text>
<text text-anchor="middle" x="483.5556" y="-94.4" font-family="Verdana" font-size="14.00" fill="#000000">Debug</text>
</a>
</g>
</g>
<!-- github.com/go&#45;i2p/go&#45;i2p/lib/crypto/ecdsa.CreateECVerifier&#45;&gt;(*github.com/sirupsen/logrus.Logger).Debug -->
<g id="edge5" class="edge">
<title>github.com/go&#45;i2p/go&#45;i2p/lib/crypto/ecdsa.CreateECVerifier&#45;&gt;(*github.com/sirupsen/logrus.Logger).Debug</title>
<g id="a_edge5"><a xlink:title="at ecdsa_verifier.go:52: calling [(*github.com/sirupsen/logrus.Logger).Debug]&#10;at ecdsa_verifier.go:63: calling [(*github.com/sirupsen/logrus.Logger).Debug]">
<path fill="none" stroke="#8b4513" d="M335.5779,-249.8595C345.9456,-243.0791 357.487,-235.0599 367.4462,-227 385.2812,-212.5663 390.6246,-209.3134 404.4462,-191 420.2586,-170.0488 414.5029,-158.1579 432.4462,-139 435.9786,-135.2285 440.0488,-131.7218 444.3182,-128.5179"/>
<polygon fill="#8b4513" stroke="#8b4513" points="446.4452,-131.3025 452.6848,-122.7399 442.4674,-125.5426 446.4452,-131.3025"/>
</a>
</g>
</g>
<!-- github.com/go&#45;i2p/go&#45;i2p/lib/crypto/ecdsa.init -->
<g id="node2" class="node">
<title>github.com/go&#45;i2p/go&#45;i2p/lib/crypto/ecdsa.init</title>
<g id="a_node2"><a xlink:title="github.com/go&#45;i2p/go&#45;i2p/lib/crypto/ecdsa.init | defined in .:0&#10;at ecdsa.go:7: calling [github.com/go&#45;i2p/logger.GetGoI2PLogger]">
<path fill="#add8e6" stroke="#000000" stroke-width=".5" d="M96.3633,-52C96.3633,-52 66.3633,-52 66.3633,-52 60.3633,-52 54.3633,-46 54.3633,-40 54.3633,-40 54.3633,-28 54.3633,-28 54.3633,-22 60.3633,-16 66.3633,-16 66.3633,-16 96.3633,-16 96.3633,-16 102.3633,-16 108.3633,-22 108.3633,-28 108.3633,-28 108.3633,-40 108.3633,-40 108.3633,-46 102.3633,-52 96.3633,-52"/>
<text text-anchor="middle" x="81.3633" y="-29.8" font-family="Verdana" font-size="14.00" fill="#000000">init</text>
</a>
</g>
</g>
<!-- github.com/go&#45;i2p/logger.GetGoI2PLogger -->
<g id="node3" class="node">
<title>github.com/go&#45;i2p/logger.GetGoI2PLogger</title>
<g id="a_node3"><a xlink:title="github.com/go&#45;i2p/logger.GetGoI2PLogger | defined in log.go:120">
<path fill="#ffe4b5" stroke="#000000" stroke-width="1.5" d="M354.7759,-52C354.7759,-52 257.3969,-52 257.3969,-52 251.3969,-52 245.3969,-46 245.3969,-40 245.3969,-40 245.3969,-28 245.3969,-28 245.3969,-22 251.3969,-16 257.3969,-16 257.3969,-16 354.7759,-16 354.7759,-16 360.7759,-16 366.7759,-22 366.7759,-28 366.7759,-28 366.7759,-40 366.7759,-40 366.7759,-46 360.7759,-52 354.7759,-52"/>
<text text-anchor="middle" x="306.0864" y="-38.2" font-family="Verdana" font-size="14.00" fill="#000000">logger</text>
<text text-anchor="middle" x="306.0864" y="-21.4" font-family="Verdana" font-size="14.00" fill="#000000">GetGoI2PLogger</text>
</a>
</g>
</g>
<!-- github.com/go&#45;i2p/go&#45;i2p/lib/crypto/ecdsa.init&#45;&gt;github.com/go&#45;i2p/logger.GetGoI2PLogger -->
<g id="edge2" class="edge">
<title>github.com/go&#45;i2p/go&#45;i2p/lib/crypto/ecdsa.init&#45;&gt;github.com/go&#45;i2p/logger.GetGoI2PLogger</title>
<g id="a_edge2"><a xlink:title="at ecdsa.go:7: calling [github.com/go&#45;i2p/logger.GetGoI2PLogger]">
<path fill="none" stroke="#8b4513" d="M108.4702,-34C139.7033,-34 192.2569,-34 235.3198,-34"/>
<polygon fill="#8b4513" stroke="#8b4513" points="235.4778,-37.5001 245.4778,-34 235.4778,-30.5001 235.4778,-37.5001"/>
</a>
</g>
</g>
<!-- (*github.com/go&#45;i2p/go&#45;i2p/lib/crypto/ecdsa.ECDSAVerifier).VerifyHash -->
<g id="node4" class="node">
<title>(*github.com/go&#45;i2p/go&#45;i2p/lib/crypto/ecdsa.ECDSAVerifier).VerifyHash</title>
<g id="a_node4"><a xlink:title="(*github.com/go&#45;i2p/go&#45;i2p/lib/crypto/ecdsa.ECDSAVerifier).VerifyHash | defined in ecdsa_verifier.go:19&#10;at ecdsa_verifier.go:20: calling [(*github.com/go&#45;i2p/logger.Logger).WithFields]&#10;at ecdsa_verifier.go:23: calling [(*github.com/sirupsen/logrus.Logger).Debug]&#10;at ecdsa_verifier.go:30: calling [(*github.com/sirupsen/logrus.Logger).Debug]&#10;at ecdsa_verifier.go:27: calling [(*github.com/go&#45;i2p/logger.Logger).Warn]">
<path fill="#add8e6" stroke="#000000" stroke-width="1.5" d="M338.8857,-167C338.8857,-167 273.2871,-167 273.2871,-167 267.2871,-167 261.2871,-161 261.2871,-155 261.2871,-155 261.2871,-143 261.2871,-143 261.2871,-137 267.2871,-131 273.2871,-131 273.2871,-131 338.8857,-131 338.8857,-131 344.8857,-131 350.8857,-137 350.8857,-143 350.8857,-143 350.8857,-155 350.8857,-155 350.8857,-161 344.8857,-167 338.8857,-167"/>
<text text-anchor="middle" x="306.0864" y="-144.8" font-family="Verdana" font-size="14.00" fill="#000000">VerifyHash</text>
</a>
</g>
</g>
<!-- (*github.com/go&#45;i2p/go&#45;i2p/lib/crypto/ecdsa.ECDSAVerifier).VerifyHash&#45;&gt;(*github.com/go&#45;i2p/logger.Logger).WithFields -->
<g id="edge3" class="edge">
<title>(*github.com/go&#45;i2p/go&#45;i2p/lib/crypto/ecdsa.ECDSAVerifier).VerifyHash&#45;&gt;(*github.com/go&#45;i2p/logger.Logger).WithFields</title>
<g id="a_edge3"><a xlink:title="at ecdsa_verifier.go:20: calling [(*github.com/go&#45;i2p/logger.Logger).WithFields]">
<path fill="none" stroke="#8b4513" d="M350.8694,-161.1124C375.0729,-167.6587 405.1131,-175.7837 430.4861,-182.6463"/>
<polygon fill="#8b4513" stroke="#8b4513" points="429.7521,-186.0735 440.3191,-185.3058 431.5798,-179.3163 429.7521,-186.0735"/>
</a>
</g>
</g>
<!-- (*github.com/go&#45;i2p/logger.Logger).Warn -->
<g id="node9" class="node">
<title>(*github.com/go&#45;i2p/logger.Logger).Warn</title>
<g id="a_node9"><a xlink:title="(*github.com/go&#45;i2p/logger.Logger).Warn | defined in log.go:30">
<path fill="#ffe4b5" stroke="#000000" stroke-width="1.5" d="M501.3219,-276C501.3219,-276 465.7893,-276 465.7893,-276 459.7893,-276 453.7893,-270 453.7893,-264 453.7893,-264 453.7893,-252 453.7893,-252 453.7893,-246 459.7893,-240 465.7893,-240 465.7893,-240 501.3219,-240 501.3219,-240 507.3219,-240 513.3219,-246 513.3219,-252 513.3219,-252 513.3219,-264 513.3219,-264 513.3219,-270 507.3219,-276 501.3219,-276"/>
<text text-anchor="middle" x="483.5556" y="-262.2" font-family="Verdana" font-size="14.00" fill="#000000">logger</text>
<text text-anchor="middle" x="483.5556" y="-245.4" font-family="Verdana" font-size="14.00" fill="#000000">Warn</text>
</a>
</g>
</g>
<!-- (*github.com/go&#45;i2p/go&#45;i2p/lib/crypto/ecdsa.ECDSAVerifier).VerifyHash&#45;&gt;(*github.com/go&#45;i2p/logger.Logger).Warn -->
<g id="edge17" class="edge">
<title>(*github.com/go&#45;i2p/go&#45;i2p/lib/crypto/ecdsa.ECDSAVerifier).VerifyHash&#45;&gt;(*github.com/go&#45;i2p/logger.Logger).Warn</title>
<g id="a_edge17"><a xlink:title="at ecdsa_verifier.go:27: calling [(*github.com/go&#45;i2p/logger.Logger).Warn]">
<path fill="none" stroke="#8b4513" d="M350.895,-162.8214C356.619,-165.2311 362.2775,-167.9571 367.4462,-171 400.5574,-190.4935 401.2943,-205.5077 432.4462,-228 436.4085,-230.8609 440.66,-233.6929 444.957,-236.4084"/>
<polygon fill="#8b4513" stroke="#8b4513" points="443.405,-239.5617 453.7628,-241.7902 447.0554,-233.5889 443.405,-239.5617"/>
</a>
</g>
</g>
<!-- (*github.com/go&#45;i2p/go&#45;i2p/lib/crypto/ecdsa.ECDSAVerifier).VerifyHash&#45;&gt;(*github.com/sirupsen/logrus.Logger).Debug -->
<g id="edge4" class="edge">
<title>(*github.com/go&#45;i2p/go&#45;i2p/lib/crypto/ecdsa.ECDSAVerifier).VerifyHash&#45;&gt;(*github.com/sirupsen/logrus.Logger).Debug</title>
<g id="a_edge4"><a xlink:title="at ecdsa_verifier.go:23: calling [(*github.com/sirupsen/logrus.Logger).Debug]&#10;at ecdsa_verifier.go:30: calling [(*github.com/sirupsen/logrus.Logger).Debug]">
<path fill="none" stroke="#8b4513" d="M331.0564,-130.8408C349.904,-118.3109 376.9629,-102.7413 403.4462,-96 416.1133,-92.7756 430.1633,-93.3518 442.9146,-95.3905"/>
<polygon fill="#8b4513" stroke="#8b4513" points="442.3301,-98.8422 452.8113,-97.2944 443.6526,-91.9682 442.3301,-98.8422"/>
</a>
</g>
</g>
<!-- (*github.com/go&#45;i2p/go&#45;i2p/lib/crypto/ecdsa.ECDSAVerifier).Verify -->
<g id="node5" class="node">
<title>(*github.com/go&#45;i2p/go&#45;i2p/lib/crypto/ecdsa.ECDSAVerifier).Verify</title>
<g id="a_node5"><a xlink:title="(*github.com/go&#45;i2p/go&#45;i2p/lib/crypto/ecdsa.ECDSAVerifier).Verify | defined in ecdsa_verifier.go:36&#10;at ecdsa_verifier.go:40: calling [(*github.com/sirupsen/logrus.Logger).Debug]&#10;at ecdsa_verifier.go:44: calling [(*github.com/go&#45;i2p/go&#45;i2p/lib/crypto/ecdsa.ECDSAVerifier).VerifyHash]&#10;at ecdsa_verifier.go:37: calling [(*github.com/go&#45;i2p/logger.Logger).WithFields]">
<path fill="#add8e6" stroke="#000000" stroke-width="1.5" d="M99.3981,-167C99.3981,-167 63.3285,-167 63.3285,-167 57.3285,-167 51.3285,-161 51.3285,-155 51.3285,-155 51.3285,-143 51.3285,-143 51.3285,-137 57.3285,-131 63.3285,-131 63.3285,-131 99.3981,-131 99.3981,-131 105.3981,-131 111.3981,-137 111.3981,-143 111.3981,-143 111.3981,-155 111.3981,-155 111.3981,-161 105.3981,-167 99.3981,-167"/>
<text text-anchor="middle" x="81.3633" y="-144.8" font-family="Verdana" font-size="14.00" fill="#000000">Verify</text>
</a>
</g>
</g>
<!-- (*github.com/go&#45;i2p/go&#45;i2p/lib/crypto/ecdsa.ECDSAVerifier).Verify&#45;&gt;(*github.com/go&#45;i2p/go&#45;i2p/lib/crypto/ecdsa.ECDSAVerifier).VerifyHash -->
<g id="edge9" class="edge">
<title>(*github.com/go&#45;i2p/go&#45;i2p/lib/crypto/ecdsa.ECDSAVerifier).Verify&#45;&gt;(*github.com/go&#45;i2p/go&#45;i2p/lib/crypto/ecdsa.ECDSAVerifier).VerifyHash</title>
<g id="a_edge9"><a xlink:title="at ecdsa_verifier.go:44: calling [(*github.com/go&#45;i2p/go&#45;i2p/lib/crypto/ecdsa.ECDSAVerifier).VerifyHash]">
<path fill="none" stroke="#000000" d="M111.6705,-149C147.2734,-149 207.0435,-149 250.9323,-149"/>
<polygon fill="#000000" stroke="#000000" points="251.161,-152.5001 261.161,-149 251.1609,-145.5001 251.161,-152.5001"/>
</a>
</g>
</g>
<!-- (*github.com/go&#45;i2p/go&#45;i2p/lib/crypto/ecdsa.ECDSAVerifier).Verify&#45;&gt;(*github.com/go&#45;i2p/logger.Logger).WithFields -->
<g id="edge13" class="edge">
<title>(*github.com/go&#45;i2p/go&#45;i2p/lib/crypto/ecdsa.ECDSAVerifier).Verify&#45;&gt;(*github.com/go&#45;i2p/logger.Logger).WithFields</title>
<g id="a_edge13"><a xlink:title="at ecdsa_verifier.go:37: calling [(*github.com/go&#45;i2p/logger.Logger).WithFields]">
<path fill="none" stroke="#8b4513" d="M111.5453,-141.7548C144.1599,-134.3267 197.7741,-123.2754 244.7266,-119 299.0439,-114.0539 315.2724,-103.1024 367.4462,-119 401.5829,-129.4016 434.7882,-153.5637 456.8829,-172.2608"/>
<polygon fill="#8b4513" stroke="#8b4513" points="454.6531,-174.9599 464.5014,-178.8664 459.2387,-169.671 454.6531,-174.9599"/>
</a>
</g>
</g>
<!-- (*github.com/go&#45;i2p/go&#45;i2p/lib/crypto/ecdsa.ECDSAVerifier).Verify&#45;&gt;(*github.com/sirupsen/logrus.Logger).Debug -->
<g id="edge8" class="edge">
<title>(*github.com/go&#45;i2p/go&#45;i2p/lib/crypto/ecdsa.ECDSAVerifier).Verify&#45;&gt;(*github.com/sirupsen/logrus.Logger).Debug</title>
<g id="a_edge8"><a xlink:title="at ecdsa_verifier.go:40: calling [(*github.com/sirupsen/logrus.Logger).Debug]">
<path fill="none" stroke="#8b4513" d="M111.5621,-141.6957C125.2852,-137.9648 141.579,-132.9512 155.7266,-127 180.1185,-116.7394 182.2572,-105.1804 207.7266,-98 291.9469,-74.2564 317.4326,-80.7562 404.4462,-90 416.9967,-91.3333 430.4816,-93.8246 442.6993,-96.4968"/>
<polygon fill="#8b4513" stroke="#8b4513" points="442.0874,-99.9472 452.6158,-98.7627 443.6467,-93.123 442.0874,-99.9472"/>
</a>
</g>
</g>
<!-- (*github.com/go&#45;i2p/logger.Logger).WithError -->
<g id="node8" class="node">
<title>(*github.com/go&#45;i2p/logger.Logger).WithError</title>
<g id="a_node8"><a xlink:title="(*github.com/go&#45;i2p/logger.Logger).WithError | defined in log.go:66">
<path fill="#ffe4b5" stroke="#000000" stroke-width="1.5" d="M512.0871,-398C512.0871,-398 455.0241,-398 455.0241,-398 449.0241,-398 443.0241,-392 443.0241,-386 443.0241,-386 443.0241,-374 443.0241,-374 443.0241,-368 449.0241,-362 455.0241,-362 455.0241,-362 512.0871,-362 512.0871,-362 518.0871,-362 524.0871,-368 524.0871,-374 524.0871,-374 524.0871,-386 524.0871,-386 524.0871,-392 518.0871,-398 512.0871,-398"/>
<text text-anchor="middle" x="483.5556" y="-384.2" font-family="Verdana" font-size="14.00" fill="#000000">logger</text>
<text text-anchor="middle" x="483.5556" y="-367.4" font-family="Verdana" font-size="14.00" fill="#000000">WithError</text>
</a>
</g>
</g>
<!-- (github.com/go&#45;i2p/go&#45;i2p/lib/crypto/ecdsa.ECP256PublicKey).NewVerifier -->
<g id="node11" class="node">
<title>(github.com/go&#45;i2p/go&#45;i2p/lib/crypto/ecdsa.ECP256PublicKey).NewVerifier</title>
<g id="a_node11"><a xlink:title="(github.com/go&#45;i2p/go&#45;i2p/lib/crypto/ecdsa.ECP256PublicKey).NewVerifier | defined in ecdsa_p256_public.go:37&#10;at ecdsa_p256_public.go:40: calling [github.com/go&#45;i2p/go&#45;i2p/lib/crypto/ecdsa.CreateECVerifier]&#10;at ecdsa_p256_public.go:38: calling [(*github.com/sirupsen/logrus.Logger).Debug]&#10;at ecdsa_p256_public.go:42: calling [(*github.com/go&#45;i2p/logger.Logger).WithError]&#10;at ecdsa_p256_public.go:42: calling [(*github.com/go&#45;i2p/logger.Logger).Error]">
<path fill="#add8e6" stroke="#000000" stroke-width="1.5" d="M116.5903,-260C116.5903,-260 46.1363,-260 46.1363,-260 40.1363,-260 34.1363,-254 34.1363,-248 34.1363,-248 34.1363,-236 34.1363,-236 34.1363,-230 40.1363,-224 46.1363,-224 46.1363,-224 116.5903,-224 116.5903,-224 122.5903,-224 128.5903,-230 128.5903,-236 128.5903,-236 128.5903,-248 128.5903,-248 128.5903,-254 122.5903,-260 116.5903,-260"/>
<text text-anchor="middle" x="81.3633" y="-237.8" font-family="Verdana" font-size="14.00" fill="#000000">NewVerifier</text>
</a>
</g>
</g>
<!-- (github.com/go&#45;i2p/go&#45;i2p/lib/crypto/ecdsa.ECP256PublicKey).NewVerifier&#45;&gt;github.com/go&#45;i2p/go&#45;i2p/lib/crypto/ecdsa.CreateECVerifier -->
<g id="edge15" class="edge">
<title>(github.com/go&#45;i2p/go&#45;i2p/lib/crypto/ecdsa.ECP256PublicKey).NewVerifier&#45;&gt;github.com/go&#45;i2p/go&#45;i2p/lib/crypto/ecdsa.CreateECVerifier</title>
<g id="a_edge15"><a xlink:title="at ecdsa_p256_public.go:40: calling [github.com/go&#45;i2p/go&#45;i2p/lib/crypto/ecdsa.CreateECVerifier]">
<path fill="none" stroke="#000000" d="M128.7467,-247.4822C159.4538,-251.0349 200.0256,-255.729 234.6125,-259.7306"/>
<polygon fill="#000000" stroke="#000000" points="234.3287,-263.221 244.6647,-260.8936 235.1333,-256.2674 234.3287,-263.221"/>
</a>
</g>
</g>
<!-- (github.com/go&#45;i2p/go&#45;i2p/lib/crypto/ecdsa.ECP256PublicKey).NewVerifier&#45;&gt;(*github.com/go&#45;i2p/logger.Logger).Error -->
<g id="edge22" class="edge">
<title>(github.com/go&#45;i2p/go&#45;i2p/lib/crypto/ecdsa.ECP256PublicKey).NewVerifier&#45;&gt;(*github.com/go&#45;i2p/logger.Logger).Error</title>
<g id="a_edge22"><a xlink:title="at ecdsa_p256_public.go:42: calling [(*github.com/go&#45;i2p/logger.Logger).Error]">
<path fill="none" stroke="#8b4513" d="M113.6199,-260.1436C145.725,-277.1437 196.9679,-301.4674 244.7266,-312 313.267,-327.1158 395.5374,-325.308 443.446,-322.3445"/>
<polygon fill="#8b4513" stroke="#8b4513" points="443.9611,-325.818 453.7055,-321.6591 443.4944,-318.8336 443.9611,-325.818"/>
</a>
</g>
</g>
<!-- (github.com/go&#45;i2p/go&#45;i2p/lib/crypto/ecdsa.ECP256PublicKey).NewVerifier&#45;&gt;(*github.com/go&#45;i2p/logger.Logger).WithError -->
<g id="edge21" class="edge">
<title>(github.com/go&#45;i2p/go&#45;i2p/lib/crypto/ecdsa.ECP256PublicKey).NewVerifier&#45;&gt;(*github.com/go&#45;i2p/logger.Logger).WithError</title>
<g id="a_edge21"><a xlink:title="at ecdsa_p256_public.go:42: calling [(*github.com/go&#45;i2p/logger.Logger).WithError]">
<path fill="none" stroke="#8b4513" d="M114.9159,-260.1155C140.2454,-273.6467 175.9504,-292.414 207.7266,-308 223.9745,-315.9694 227.5973,-319.1611 244.7266,-325 308.0806,-346.5955 383.7559,-362.4185 432.687,-371.4089"/>
<polygon fill="#8b4513" stroke="#8b4513" points="432.2448,-374.8857 442.7084,-373.2233 433.4919,-367.9976 432.2448,-374.8857"/>
</a>
</g>
</g>
<!-- (github.com/go&#45;i2p/go&#45;i2p/lib/crypto/ecdsa.ECP256PublicKey).NewVerifier&#45;&gt;(*github.com/sirupsen/logrus.Logger).Debug -->
<g id="edge20" class="edge">
<title>(github.com/go&#45;i2p/go&#45;i2p/lib/crypto/ecdsa.ECP256PublicKey).NewVerifier&#45;&gt;(*github.com/sirupsen/logrus.Logger).Debug</title>
<g id="a_edge20"><a xlink:title="at ecdsa_p256_public.go:38: calling [(*github.com/sirupsen/logrus.Logger).Debug]">
<path fill="none" stroke="#8b4513" d="M128.6255,-225.96C152.1771,-218.4368 181.2199,-209.8598 207.7266,-204 277.7546,-188.5191 300.2831,-206.1534 367.4462,-181 399.6564,-168.9369 403.4249,-157.4601 432.4462,-139 436.8063,-136.2266 441.385,-133.3331 445.9361,-130.4689"/>
<polygon fill="#8b4513" stroke="#8b4513" points="447.9809,-133.3177 454.589,-125.0362 444.2588,-127.3893 447.9809,-133.3177"/>
</a>
</g>
</g>
<!-- (github.com/go&#45;i2p/go&#45;i2p/lib/crypto/ecdsa.ECP384PublicKey).NewVerifier -->
<g id="node12" class="node">
<title>(github.com/go&#45;i2p/go&#45;i2p/lib/crypto/ecdsa.ECP384PublicKey).NewVerifier</title>
<g id="a_node12"><a xlink:title="(github.com/go&#45;i2p/go&#45;i2p/lib/crypto/ecdsa.ECP384PublicKey).NewVerifier | defined in ecdsa_p384_public.go:32&#10;at ecdsa_p384_public.go:33: calling [(*github.com/sirupsen/logrus.Logger).Debug]&#10;at ecdsa_p384_public.go:34: calling [github.com/go&#45;i2p/go&#45;i2p/lib/crypto/ecdsa.CreateECVerifier]&#10;at ecdsa_p384_public.go:36: calling [(*github.com/go&#45;i2p/logger.Logger).Error]&#10;at ecdsa_p384_public.go:36: calling [(*github.com/go&#45;i2p/logger.Logger).WithError]">
<path fill="#add8e6" stroke="#000000" stroke-width="1.5" d="M116.5903,-364C116.5903,-364 46.1363,-364 46.1363,-364 40.1363,-364 34.1363,-358 34.1363,-352 34.1363,-352 34.1363,-340 34.1363,-340 34.1363,-334 40.1363,-328 46.1363,-328 46.1363,-328 116.5903,-328 116.5903,-328 122.5903,-328 128.5903,-334 128.5903,-340 128.5903,-340 128.5903,-352 128.5903,-352 128.5903,-358 122.5903,-364 116.5903,-364"/>
<text text-anchor="middle" x="81.3633" y="-341.8" font-family="Verdana" font-size="14.00" fill="#000000">NewVerifier</text>
</a>
</g>
</g>
<!-- (github.com/go&#45;i2p/go&#45;i2p/lib/crypto/ecdsa.ECP384PublicKey).NewVerifier&#45;&gt;github.com/go&#45;i2p/go&#45;i2p/lib/crypto/ecdsa.CreateECVerifier -->
<g id="edge7" class="edge">
<title>(github.com/go&#45;i2p/go&#45;i2p/lib/crypto/ecdsa.ECP384PublicKey).NewVerifier&#45;&gt;github.com/go&#45;i2p/go&#45;i2p/lib/crypto/ecdsa.CreateECVerifier</title>
<g id="a_edge7"><a xlink:title="at ecdsa_p384_public.go:34: calling [github.com/go&#45;i2p/go&#45;i2p/lib/crypto/ecdsa.CreateECVerifier]">
<path fill="none" stroke="#000000" d="M128.7467,-329.5535C162.4361,-317.8601 207.9997,-302.0453 244.5062,-289.3741"/>
<polygon fill="#000000" stroke="#000000" points="245.7617,-292.6432 254.0611,-286.0577 243.4663,-286.0303 245.7617,-292.6432"/>
</a>
</g>
</g>
<!-- (github.com/go&#45;i2p/go&#45;i2p/lib/crypto/ecdsa.ECP384PublicKey).NewVerifier&#45;&gt;(*github.com/go&#45;i2p/logger.Logger).Error -->
<g id="edge12" class="edge">
<title>(github.com/go&#45;i2p/go&#45;i2p/lib/crypto/ecdsa.ECP384PublicKey).NewVerifier&#45;&gt;(*github.com/go&#45;i2p/logger.Logger).Error</title>
<g id="a_edge12"><a xlink:title="at ecdsa_p384_public.go:36: calling [(*github.com/go&#45;i2p/logger.Logger).Error]">
<path fill="none" stroke="#8b4513" d="M128.8132,-356.2565C152.4101,-360.8461 181.4369,-365.7285 207.7266,-368 292.6257,-375.3353 390.5155,-349.6778 443.8463,-332.7525"/>
<polygon fill="#8b4513" stroke="#8b4513" points="445.1506,-336.0092 453.5871,-329.6 442.9952,-329.3493 445.1506,-336.0092"/>
</a>
</g>
</g>
<!-- (github.com/go&#45;i2p/go&#45;i2p/lib/crypto/ecdsa.ECP384PublicKey).NewVerifier&#45;&gt;(*github.com/go&#45;i2p/logger.Logger).WithError -->
<g id="edge16" class="edge">
<title>(github.com/go&#45;i2p/go&#45;i2p/lib/crypto/ecdsa.ECP384PublicKey).NewVerifier&#45;&gt;(*github.com/go&#45;i2p/logger.Logger).WithError</title>
<g id="a_edge16"><a xlink:title="at ecdsa_p384_public.go:36: calling [(*github.com/go&#45;i2p/logger.Logger).WithError]">
<path fill="none" stroke="#8b4513" d="M128.6638,-359.2204C152.2246,-365.198 181.2642,-371.6596 207.7266,-375 294.0564,-385.8974 316.4384,-378.8888 403.4462,-380 412.8419,-380.12 422.8581,-380.1767 432.5127,-380.195"/>
<polygon fill="#8b4513" stroke="#8b4513" points="432.7985,-383.6951 442.8006,-380.2012 432.8027,-376.6951 432.7985,-383.6951"/>
</a>
</g>
</g>
<!-- (github.com/go&#45;i2p/go&#45;i2p/lib/crypto/ecdsa.ECP384PublicKey).NewVerifier&#45;&gt;(*github.com/sirupsen/logrus.Logger).Debug -->
<g id="edge1" class="edge">
<title>(github.com/go&#45;i2p/go&#45;i2p/lib/crypto/ecdsa.ECP384PublicKey).NewVerifier&#45;&gt;(*github.com/sirupsen/logrus.Logger).Debug</title>
<g id="a_edge1"><a xlink:title="at ecdsa_p384_public.go:33: calling [(*github.com/sirupsen/logrus.Logger).Debug]">
<path fill="none" stroke="#8b4513" d="M100.9905,-327.7188C116.2011,-313.38 137.6584,-292.7747 155.7266,-274 179.7335,-249.0544 177.0536,-232.0557 207.7266,-216 271.1091,-182.8225 301.4052,-223.5079 367.4462,-196 402.9156,-181.226 402.3865,-162.9324 432.4462,-139 436.1906,-136.0188 440.2277,-133.0819 444.3335,-130.2684"/>
<polygon fill="#8b4513" stroke="#8b4513" points="446.3661,-133.1205 452.7859,-124.6922 442.5113,-127.2775 446.3661,-133.1205"/>
</a>
</g>
</g>
<!-- (github.com/go&#45;i2p/go&#45;i2p/lib/crypto/ecdsa.ECP521PublicKey).NewVerifier -->
<g id="node13" class="node">
<title>(github.com/go&#45;i2p/go&#45;i2p/lib/crypto/ecdsa.ECP521PublicKey).NewVerifier</title>
<g id="a_node13"><a xlink:title="(github.com/go&#45;i2p/go&#45;i2p/lib/crypto/ecdsa.ECP521PublicKey).NewVerifier | defined in ecdsa_p521_public.go:32&#10;at ecdsa_p521_public.go:36: calling [(*github.com/go&#45;i2p/logger.Logger).Error]&#10;at ecdsa_p521_public.go:34: calling [github.com/go&#45;i2p/go&#45;i2p/lib/crypto/ecdsa.CreateECVerifier]&#10;at ecdsa_p521_public.go:33: calling [(*github.com/sirupsen/logrus.Logger).Debug]&#10;at ecdsa_p521_public.go:36: calling [(*github.com/go&#45;i2p/logger.Logger).WithError]">
<path fill="#add8e6" stroke="#000000" stroke-width="1.5" d="M116.5903,-458C116.5903,-458 46.1363,-458 46.1363,-458 40.1363,-458 34.1363,-452 34.1363,-446 34.1363,-446 34.1363,-434 34.1363,-434 34.1363,-428 40.1363,-422 46.1363,-422 46.1363,-422 116.5903,-422 116.5903,-422 122.5903,-422 128.5903,-428 128.5903,-434 128.5903,-434 128.5903,-446 128.5903,-446 128.5903,-452 122.5903,-458 116.5903,-458"/>
<text text-anchor="middle" x="81.3633" y="-435.8" font-family="Verdana" font-size="14.00" fill="#000000">NewVerifier</text>
</a>
</g>
</g>
<!-- (github.com/go&#45;i2p/go&#45;i2p/lib/crypto/ecdsa.ECP521PublicKey).NewVerifier&#45;&gt;github.com/go&#45;i2p/go&#45;i2p/lib/crypto/ecdsa.CreateECVerifier -->
<g id="edge14" class="edge">
<title>(github.com/go&#45;i2p/go&#45;i2p/lib/crypto/ecdsa.ECP521PublicKey).NewVerifier&#45;&gt;github.com/go&#45;i2p/go&#45;i2p/lib/crypto/ecdsa.CreateECVerifier</title>
<g id="a_edge14"><a xlink:title="at ecdsa_p521_public.go:34: calling [github.com/go&#45;i2p/go&#45;i2p/lib/crypto/ecdsa.CreateECVerifier]">
<path fill="none" stroke="#000000" d="M104.9879,-421.9181C145.6189,-390.8197 228.7527,-327.1902 274.3773,-292.2697"/>
<polygon fill="#000000" stroke="#000000" points="276.6275,-294.955 282.4412,-286.0977 272.3729,-289.3963 276.6275,-294.955"/>
</a>
</g>
</g>
<!-- (github.com/go&#45;i2p/go&#45;i2p/lib/crypto/ecdsa.ECP521PublicKey).NewVerifier&#45;&gt;(*github.com/go&#45;i2p/logger.Logger).Error -->
<g id="edge10" class="edge">
<title>(github.com/go&#45;i2p/go&#45;i2p/lib/crypto/ecdsa.ECP521PublicKey).NewVerifier&#45;&gt;(*github.com/go&#45;i2p/logger.Logger).Error</title>
<g id="a_edge10"><a xlink:title="at ecdsa_p521_public.go:36: calling [(*github.com/go&#45;i2p/logger.Logger).Error]">
<path fill="none" stroke="#8b4513" d="M128.6119,-438.7872C152.6374,-437.9135 182.2757,-436.4425 208.7266,-434 230.5862,-431.9814 386.6517,-419.8558 404.4462,-407 427.325,-390.4711 413.3918,-370.8223 432.4462,-350 436.1681,-345.9327 440.5463,-342.2186 445.1481,-338.8861"/>
<polygon fill="#8b4513" stroke="#8b4513" points="447.1719,-341.7438 453.5793,-333.306 443.3085,-335.9064 447.1719,-341.7438"/>
</a>
</g>
</g>
<!-- (github.com/go&#45;i2p/go&#45;i2p/lib/crypto/ecdsa.ECP521PublicKey).NewVerifier&#45;&gt;(*github.com/go&#45;i2p/logger.Logger).WithError -->
<g id="edge19" class="edge">
<title>(github.com/go&#45;i2p/go&#45;i2p/lib/crypto/ecdsa.ECP521PublicKey).NewVerifier&#45;&gt;(*github.com/go&#45;i2p/logger.Logger).WithError</title>
<g id="a_edge19"><a xlink:title="at ecdsa_p521_public.go:36: calling [(*github.com/go&#45;i2p/logger.Logger).WithError]">
<path fill="none" stroke="#8b4513" d="M128.8356,-449.7909C152.4379,-454.172 181.4627,-458.8325 207.7266,-461 293.3605,-468.0672 388.5646,-428.9948 441.7369,-402.6453"/>
<polygon fill="#8b4513" stroke="#8b4513" points="443.4964,-405.6779 450.8488,-398.0495 440.344,-399.4279 443.4964,-405.6779"/>
</a>
</g>
</g>
<!-- (github.com/go&#45;i2p/go&#45;i2p/lib/crypto/ecdsa.ECP521PublicKey).NewVerifier&#45;&gt;(*github.com/sirupsen/logrus.Logger).Debug -->
<g id="edge18" class="edge">
<title>(github.com/go&#45;i2p/go&#45;i2p/lib/crypto/ecdsa.ECP521PublicKey).NewVerifier&#45;&gt;(*github.com/sirupsen/logrus.Logger).Debug</title>
<g id="a_edge18"><a xlink:title="at ecdsa_p521_public.go:33: calling [(*github.com/sirupsen/logrus.Logger).Debug]">
<path fill="none" stroke="#8b4513" d="M128.7224,-430.1635C161.2389,-423.6905 205.4521,-415.4397 244.7266,-410 262.3828,-407.5546 391.7462,-407.5072 404.4462,-395 445.221,-354.8444 402.0391,-187.4816 432.4462,-139 435.582,-134.0002 439.8153,-129.6506 444.5105,-125.9074"/>
<polygon fill="#8b4513" stroke="#8b4513" points="446.5349,-128.7627 452.7363,-120.1724 442.5314,-123.0205 446.5349,-128.7627"/>
</a>
</g>
</g>
</g>
</svg>
