<?xml version="1.0" encoding="UTF-8" standalone="no"?>
<!DOCTYPE svg PUBLIC "-//W3C//DTD SVG 1.1//EN"
 "http://www.w3.org/Graphics/SVG/1.1/DTD/svg11.dtd">
<!-- Generated by graphviz version 2.40.1 (20161225.0304)
 -->
<!-- Title: gocallvis Pages: 1 -->
<svg width="535pt" height="226pt"
 viewBox="0.00 0.00 534.83 226.00" xmlns="http://www.w3.org/2000/svg" xmlns:xlink="http://www.w3.org/1999/xlink">
<g id="graph0" class="graph" transform="scale(1 1) rotate(0) translate(0 226)">
<title>gocallvis</title>
<polygon fill="#d3d3d3" stroke="transparent" points="0,0 0,-226 534.8262,-226 534.8262,0 0,0"/>
<g id="clust1" class="cluster">
<title>cluster_focus</title>
<polygon fill="#e6ecfa" stroke="#000000" stroke-width=".5" points="8,-8 8,-218 526.8262,-218 526.8262,-8 8,-8"/>
<text text-anchor="middle" x="267.4131" y="-197.8" font-family="Arial" font-size="18.00" fill="#000000">skew</text>
</g>
<g id="clust3" class="cluster">
<title>cluster_*github.com/go&#45;i2p/logger.Logger</title>
<g id="a_clust3"><a xlink:title="type: *github.com/go&#45;i2p/logger.Logger">
<path fill="#eed8ae" stroke="#000000" stroke-width=".5" d="M428.6074,-102C428.6074,-102 506.8262,-102 506.8262,-102 512.8262,-102 518.8262,-108 518.8262,-114 518.8262,-114 518.8262,-168 518.8262,-168 518.8262,-174 512.8262,-180 506.8262,-180 506.8262,-180 428.6074,-180 428.6074,-180 422.6074,-180 416.6074,-174 416.6074,-168 416.6074,-168 416.6074,-114 416.6074,-114 416.6074,-108 422.6074,-102 428.6074,-102"/>
<text text-anchor="middle" x="467.7168" y="-110.5" font-family="Arial" font-size="15.00" fill="#222222">(*Logger)</text>
</a>
</g>
</g>
<g id="clust2" class="cluster">
<title>cluster_*github.com/go&#45;i2p/logger.Entry</title>
<g id="a_clust2"><a xlink:title="type: *github.com/go&#45;i2p/logger.Entry">
<path fill="#eed8ae" stroke="#000000" stroke-width=".5" d="M441.8339,-16C441.8339,-16 493.5997,-16 493.5997,-16 499.5997,-16 505.5997,-22 505.5997,-28 505.5997,-28 505.5997,-82 505.5997,-82 505.5997,-88 499.5997,-94 493.5997,-94 493.5997,-94 441.8339,-94 441.8339,-94 435.8339,-94 429.8339,-88 429.8339,-82 429.8339,-82 429.8339,-28 429.8339,-28 429.8339,-22 435.8339,-16 441.8339,-16"/>
<text text-anchor="middle" x="467.7168" y="-24.5" font-family="Arial" font-size="15.00" fill="#222222">(*Entry)</text>
</a>
</g>
</g>
<!-- github.com/go&#45;i2p/go&#45;i2p/lib/util/time/skew.init -->
<g id="node1" class="node">
<title>github.com/go&#45;i2p/go&#45;i2p/lib/util/time/skew.init</title>
<g id="a_node1"><a xlink:title="github.com/go&#45;i2p/go&#45;i2p/lib/util/time/skew.init | defined in .:0&#10;at log.go:5: calling [github.com/go&#45;i2p/logger.GetGoI2PLogger]">
<path fill="#add8e6" stroke="#000000" stroke-width=".5" d="M95.0982,-175C95.0982,-175 65.0982,-175 65.0982,-175 59.0982,-175 53.0982,-169 53.0982,-163 53.0982,-163 53.0982,-151 53.0982,-151 53.0982,-145 59.0982,-139 65.0982,-139 65.0982,-139 95.0982,-139 95.0982,-139 101.0982,-139 107.0982,-145 107.0982,-151 107.0982,-151 107.0982,-163 107.0982,-163 107.0982,-169 101.0982,-175 95.0982,-175"/>
<text text-anchor="middle" x="80.0982" y="-152.8" font-family="Verdana" font-size="14.00" fill="#000000">init</text>
</a>
</g>
</g>
<!-- github.com/go&#45;i2p/logger.GetGoI2PLogger -->
<g id="node2" class="node">
<title>github.com/go&#45;i2p/logger.GetGoI2PLogger</title>
<g id="a_node2"><a xlink:title="github.com/go&#45;i2p/logger.GetGoI2PLogger | defined in log.go:254">
<path fill="#ffe4b5" stroke="#000000" stroke-width="1.5" d="M333.0914,-175C333.0914,-175 235.7124,-175 235.7124,-175 229.7124,-175 223.7124,-169 223.7124,-163 223.7124,-163 223.7124,-151 223.7124,-151 223.7124,-145 229.7124,-139 235.7124,-139 235.7124,-139 333.0914,-139 333.0914,-139 339.0914,-139 345.0914,-145 345.0914,-151 345.0914,-151 345.0914,-163 345.0914,-163 345.0914,-169 339.0914,-175 333.0914,-175"/>
<text text-anchor="middle" x="284.4019" y="-161.2" font-family="Verdana" font-size="14.00" fill="#000000">logger</text>
<text text-anchor="middle" x="284.4019" y="-144.4" font-family="Verdana" font-size="14.00" fill="#000000">GetGoI2PLogger</text>
</a>
</g>
</g>
<!-- github.com/go&#45;i2p/go&#45;i2p/lib/util/time/skew.init&#45;&gt;github.com/go&#45;i2p/logger.GetGoI2PLogger -->
<g id="edge1" class="edge">
<title>github.com/go&#45;i2p/go&#45;i2p/lib/util/time/skew.init&#45;&gt;github.com/go&#45;i2p/logger.GetGoI2PLogger</title>
<g id="a_edge1"><a xlink:title="at log.go:5: calling [github.com/go&#45;i2p/logger.GetGoI2PLogger]">
<path fill="none" stroke="#8b4513" d="M107.2282,-157C134.2149,-157 176.7705,-157 213.4111,-157"/>
<polygon fill="#8b4513" stroke="#8b4513" points="213.5709,-160.5001 223.5709,-157 213.5708,-153.5001 213.5709,-160.5001"/>
</a>
</g>
</g>
<!-- github.com/go&#45;i2p/go&#45;i2p/lib/util/time/skew.ValidateTimestamp -->
<g id="node3" class="node">
<title>github.com/go&#45;i2p/go&#45;i2p/lib/util/time/skew.ValidateTimestamp</title>
<g id="a_node3"><a xlink:title="github.com/go&#45;i2p/go&#45;i2p/lib/util/time/skew.ValidateTimestamp | defined in skew.go:25&#10;at skew.go:34: calling [(*github.com/go&#45;i2p/logger.Logger).WithFields]&#10;at skew.go:44: calling [(*github.com/go&#45;i2p/logger.Logger).WithFields]&#10;at skew.go:39: calling [(*github.com/go&#45;i2p/logger.Entry).Warn]&#10;at skew.go:49: calling [(*github.com/go&#45;i2p/logger.Entry).Warn]">
<path fill="#add8e6" stroke="#000000" stroke-width="1.5" d="M339.8135,-98C339.8135,-98 228.9903,-98 228.9903,-98 222.9903,-98 216.9903,-92 216.9903,-86 216.9903,-86 216.9903,-74 216.9903,-74 216.9903,-68 222.9903,-62 228.9903,-62 228.9903,-62 339.8135,-62 339.8135,-62 345.8135,-62 351.8135,-68 351.8135,-74 351.8135,-74 351.8135,-86 351.8135,-86 351.8135,-92 345.8135,-98 339.8135,-98"/>
<text text-anchor="middle" x="284.4019" y="-75.8" font-family="Verdana" font-size="14.00" fill="#000000">ValidateTimestamp</text>
</a>
</g>
</g>
<!-- (*github.com/go&#45;i2p/logger.Entry).Warn -->
<g id="node5" class="node">
<title>(*github.com/go&#45;i2p/logger.Entry).Warn</title>
<g id="a_node5"><a xlink:title="(*github.com/go&#45;i2p/logger.Entry).Warn | defined in log.go:112">
<path fill="#ffe4b5" stroke="#000000" stroke-width="1.5" d="M485.4831,-86C485.4831,-86 449.9505,-86 449.9505,-86 443.9505,-86 437.9505,-80 437.9505,-74 437.9505,-74 437.9505,-62 437.9505,-62 437.9505,-56 443.9505,-50 449.9505,-50 449.9505,-50 485.4831,-50 485.4831,-50 491.4831,-50 497.4831,-56 497.4831,-62 497.4831,-62 497.4831,-74 497.4831,-74 497.4831,-80 491.4831,-86 485.4831,-86"/>
<text text-anchor="middle" x="467.7168" y="-72.2" font-family="Verdana" font-size="14.00" fill="#000000">logger</text>
<text text-anchor="middle" x="467.7168" y="-55.4" font-family="Verdana" font-size="14.00" fill="#000000">Warn</text>
</a>
</g>
</g>
<!-- github.com/go&#45;i2p/go&#45;i2p/lib/util/time/skew.ValidateTimestamp&#45;&gt;(*github.com/go&#45;i2p/logger.Entry).Warn -->
<g id="edge3" class="edge">
<title>github.com/go&#45;i2p/go&#45;i2p/lib/util/time/skew.ValidateTimestamp&#45;&gt;(*github.com/go&#45;i2p/logger.Entry).Warn</title>
<g id="a_edge3"><a xlink:title="at skew.go:39: calling [(*github.com/go&#45;i2p/logger.Entry).Warn]&#10;at skew.go:49: calling [(*github.com/go&#45;i2p/logger.Entry).Warn]">
<path fill="none" stroke="#8b4513" d="M351.6207,-75.5998C377.2025,-73.9252 405.5243,-72.0712 427.7902,-70.6136"/>
<polygon fill="#8b4513" stroke="#8b4513" points="428.1285,-74.0991 437.8785,-69.9533 427.6712,-67.114 428.1285,-74.0991"/>
</a>
</g>
</g>
<!-- (*github.com/go&#45;i2p/logger.Logger).WithFields -->
<g id="node6" class="node">
<title>(*github.com/go&#45;i2p/logger.Logger).WithFields</title>
<g id="a_node6"><a xlink:title="(*github.com/go&#45;i2p/logger.Logger).WithFields | defined in log.go:66">
<path fill="#ffe4b5" stroke="#000000" stroke-width="1.5" d="M498.9359,-172C498.9359,-172 436.4977,-172 436.4977,-172 430.4977,-172 424.4977,-166 424.4977,-160 424.4977,-160 424.4977,-148 424.4977,-148 424.4977,-142 430.4977,-136 436.4977,-136 436.4977,-136 498.9359,-136 498.9359,-136 504.9359,-136 510.9359,-142 510.9359,-148 510.9359,-148 510.9359,-160 510.9359,-160 510.9359,-166 504.9359,-172 498.9359,-172"/>
<text text-anchor="middle" x="467.7168" y="-158.2" font-family="Verdana" font-size="14.00" fill="#000000">logger</text>
<text text-anchor="middle" x="467.7168" y="-141.4" font-family="Verdana" font-size="14.00" fill="#000000">WithFields</text>
</a>
</g>
</g>
<!-- github.com/go&#45;i2p/go&#45;i2p/lib/util/time/skew.ValidateTimestamp&#45;&gt;(*github.com/go&#45;i2p/logger.Logger).WithFields -->
<g id="edge2" class="edge">
<title>github.com/go&#45;i2p/go&#45;i2p/lib/util/time/skew.ValidateTimestamp&#45;&gt;(*github.com/go&#45;i2p/logger.Logger).WithFields</title>
<g id="a_edge2"><a xlink:title="at skew.go:34: calling [(*github.com/go&#45;i2p/logger.Logger).WithFields]&#10;at skew.go:44: calling [(*github.com/go&#45;i2p/logger.Logger).WithFields]">
<path fill="none" stroke="#8b4513" d="M329.2458,-98.1024C355.2256,-108.5899 388.0647,-121.8463 415.2419,-132.8171"/>
<polygon fill="#8b4513" stroke="#8b4513" points="414.0151,-136.0962 424.5982,-136.594 416.6354,-129.6051 414.0151,-136.0962"/>
</a>
</g>
</g>
<!-- github.com/go&#45;i2p/go&#45;i2p/lib/util/time/skew.IsTimestampValid -->
<g id="node4" class="node">
<title>github.com/go&#45;i2p/go&#45;i2p/lib/util/time/skew.IsTimestampValid</title>
<g id="a_node4"><a xlink:title="github.com/go&#45;i2p/go&#45;i2p/lib/util/time/skew.IsTimestampValid | defined in skew.go:59&#10;at skew.go:60: calling [github.com/go&#45;i2p/go&#45;i2p/lib/util/time/skew.ValidateTimestamp]">
<path fill="#add8e6" stroke="#000000" stroke-width="1.5" d="M132.2948,-98C132.2948,-98 27.9016,-98 27.9016,-98 21.9016,-98 15.9016,-92 15.9016,-86 15.9016,-86 15.9016,-74 15.9016,-74 15.9016,-68 21.9016,-62 27.9016,-62 27.9016,-62 132.2948,-62 132.2948,-62 138.2948,-62 144.2948,-68 144.2948,-74 144.2948,-74 144.2948,-86 144.2948,-86 144.2948,-92 138.2948,-98 132.2948,-98"/>
<text text-anchor="middle" x="80.0982" y="-75.8" font-family="Verdana" font-size="14.00" fill="#000000">IsTimestampValid</text>
</a>
</g>
</g>
<!-- github.com/go&#45;i2p/go&#45;i2p/lib/util/time/skew.IsTimestampValid&#45;&gt;github.com/go&#45;i2p/go&#45;i2p/lib/util/time/skew.ValidateTimestamp -->
<g id="edge4" class="edge">
<title>github.com/go&#45;i2p/go&#45;i2p/lib/util/time/skew.IsTimestampValid&#45;&gt;github.com/go&#45;i2p/go&#45;i2p/lib/util/time/skew.ValidateTimestamp</title>
<g id="a_edge4"><a xlink:title="at skew.go:60: calling [github.com/go&#45;i2p/go&#45;i2p/lib/util/time/skew.ValidateTimestamp]">
<path fill="none" stroke="#000000" d="M144.4607,-80C164.3629,-80 186.4927,-80 207.1715,-80"/>
<polygon fill="#000000" stroke="#000000" points="207.1902,-83.5001 217.1902,-80 207.1902,-76.5001 207.1902,-83.5001"/>
</a>
</g>
</g>
</g>
</svg>
