<?xml version="1.0" encoding="UTF-8" standalone="no"?>
<!DOCTYPE svg PUBLIC "-//W3C//DTD SVG 1.1//EN"
 "http://www.w3.org/Graphics/SVG/1.1/DTD/svg11.dtd">
<!-- Generated by graphviz version 2.40.1 (20161225.0304)
 -->
<!-- Title: gocallvis Pages: 1 -->
<svg width="594pt" height="270pt"
 viewBox="0.00 0.00 593.93 270.00" xmlns="http://www.w3.org/2000/svg" xmlns:xlink="http://www.w3.org/1999/xlink">
<g id="graph0" class="graph" transform="scale(1 1) rotate(0) translate(0 270)">
<title>gocallvis</title>
<polygon fill="#d3d3d3" stroke="transparent" points="0,0 0,-270 593.9258,-270 593.9258,0 0,0"/>
<g id="clust1" class="cluster">
<title>cluster_focus</title>
<polygon fill="#e6ecfa" stroke="#000000" stroke-width=".5" points="8,-8 8,-262 585.9258,-262 585.9258,-8 8,-8"/>
<text text-anchor="middle" x="296.9629" y="-241.8" font-family="Arial" font-size="18.00" fill="#000000">skew</text>
</g>
<g id="clust3" class="cluster">
<title>cluster_*github.com/go&#45;i2p/logger.Logger</title>
<g id="a_clust3"><a xlink:title="type: *github.com/go&#45;i2p/logger.Logger">
<path fill="#eed8ae" stroke="#000000" stroke-width=".5" d="M487.707,-146C487.707,-146 565.9258,-146 565.9258,-146 571.9258,-146 577.9258,-152 577.9258,-158 577.9258,-158 577.9258,-212 577.9258,-212 577.9258,-218 571.9258,-224 565.9258,-224 565.9258,-224 487.707,-224 487.707,-224 481.707,-224 475.707,-218 475.707,-212 475.707,-212 475.707,-158 475.707,-158 475.707,-152 481.707,-146 487.707,-146"/>
<text text-anchor="middle" x="526.8164" y="-154.5" font-family="Arial" font-size="15.00" fill="#222222">(*Logger)</text>
</a>
</g>
</g>
<g id="clust2" class="cluster">
<title>cluster_*github.com/go&#45;i2p/logger.Entry</title>
<g id="a_clust2"><a xlink:title="type: *github.com/go&#45;i2p/logger.Entry">
<path fill="#eed8ae" stroke="#000000" stroke-width=".5" d="M500.9335,-60C500.9335,-60 552.6993,-60 552.6993,-60 558.6993,-60 564.6993,-66 564.6993,-72 564.6993,-72 564.6993,-126 564.6993,-126 564.6993,-132 558.6993,-138 552.6993,-138 552.6993,-138 500.9335,-138 500.9335,-138 494.9335,-138 488.9335,-132 488.9335,-126 488.9335,-126 488.9335,-72 488.9335,-72 488.9335,-66 494.9335,-60 500.9335,-60"/>
<text text-anchor="middle" x="526.8164" y="-68.5" font-family="Arial" font-size="15.00" fill="#222222">(*Entry)</text>
</a>
</g>
</g>
<!-- github.com/go&#45;i2p/go&#45;i2p/lib/util/time/skew.ValidateTimestamp -->
<g id="node1" class="node">
<title>github.com/go&#45;i2p/go&#45;i2p/lib/util/time/skew.ValidateTimestamp</title>
<g id="a_node1"><a xlink:title="github.com/go&#45;i2p/go&#45;i2p/lib/util/time/skew.ValidateTimestamp | defined in skew.go:26&#10;at skew.go:28: calling [github.com/samber/oops.Errorf]&#10;at skew.go:41: calling [github.com/samber/oops.Errorf]&#10;at skew.go:51: calling [github.com/samber/oops.Errorf]&#10;at skew.go:35: calling [(*github.com/go&#45;i2p/logger.Logger).WithFields]&#10;at skew.go:45: calling [(*github.com/go&#45;i2p/logger.Logger).WithFields]&#10;at skew.go:40: calling [(*github.com/go&#45;i2p/logger.Entry).Warn]&#10;at skew.go:50: calling [(*github.com/go&#45;i2p/logger.Entry).Warn]">
<path fill="#add8e6" stroke="#000000" stroke-width="1.5" d="M369.3633,-174C369.3633,-174 258.5401,-174 258.5401,-174 252.5401,-174 246.5401,-168 246.5401,-162 246.5401,-162 246.5401,-150 246.5401,-150 246.5401,-144 252.5401,-138 258.5401,-138 258.5401,-138 369.3633,-138 369.3633,-138 375.3633,-138 381.3633,-144 381.3633,-150 381.3633,-150 381.3633,-162 381.3633,-162 381.3633,-168 375.3633,-174 369.3633,-174"/>
<text text-anchor="middle" x="313.9517" y="-151.8" font-family="Verdana" font-size="14.00" fill="#000000">ValidateTimestamp</text>
</a>
</g>
</g>
<!-- github.com/samber/oops.Errorf -->
<g id="node2" class="node">
<title>github.com/samber/oops.Errorf</title>
<g id="a_node2"><a xlink:title="github.com/samber/oops.Errorf | defined in oops.go:34">
<path fill="#ffe4b5" stroke="#000000" stroke-width="1.5" d="M544.0117,-52C544.0117,-52 509.6211,-52 509.6211,-52 503.6211,-52 497.6211,-46 497.6211,-40 497.6211,-40 497.6211,-28 497.6211,-28 497.6211,-22 503.6211,-16 509.6211,-16 509.6211,-16 544.0117,-16 544.0117,-16 550.0117,-16 556.0117,-22 556.0117,-28 556.0117,-28 556.0117,-40 556.0117,-40 556.0117,-46 550.0117,-52 544.0117,-52"/>
<text text-anchor="middle" x="526.8164" y="-38.2" font-family="Verdana" font-size="14.00" fill="#000000">oops</text>
<text text-anchor="middle" x="526.8164" y="-21.4" font-family="Verdana" font-size="14.00" fill="#000000">Errorf</text>
</a>
</g>
</g>
<!-- github.com/go&#45;i2p/go&#45;i2p/lib/util/time/skew.ValidateTimestamp&#45;&gt;github.com/samber/oops.Errorf -->
<g id="edge4" class="edge">
<title>github.com/go&#45;i2p/go&#45;i2p/lib/util/time/skew.ValidateTimestamp&#45;&gt;github.com/samber/oops.Errorf</title>
<g id="a_edge4"><a xlink:title="at skew.go:28: calling [github.com/samber/oops.Errorf]&#10;at skew.go:41: calling [github.com/samber/oops.Errorf]&#10;at skew.go:51: calling [github.com/samber/oops.Errorf]">
<path fill="none" stroke="#8b4513" d="M381.2927,-140.1472C391.5478,-136.329 401.7009,-131.6657 410.707,-126 446.6429,-103.3929 441.017,-80.4759 475.707,-56 479.6438,-53.2223 483.9866,-50.692 488.4277,-48.4179"/>
<polygon fill="#8b4513" stroke="#8b4513" points="490.0229,-51.5355 497.5833,-44.1131 487.0444,-45.2008 490.0229,-51.5355"/>
</a>
</g>
</g>
<!-- (*github.com/go&#45;i2p/logger.Entry).Warn -->
<g id="node7" class="node">
<title>(*github.com/go&#45;i2p/logger.Entry).Warn</title>
<g id="a_node7"><a xlink:title="(*github.com/go&#45;i2p/logger.Entry).Warn | defined in log.go:112">
<path fill="#ffe4b5" stroke="#000000" stroke-width="1.5" d="M544.5827,-130C544.5827,-130 509.0501,-130 509.0501,-130 503.0501,-130 497.0501,-124 497.0501,-118 497.0501,-118 497.0501,-106 497.0501,-106 497.0501,-100 503.0501,-94 509.0501,-94 509.0501,-94 544.5827,-94 544.5827,-94 550.5827,-94 556.5827,-100 556.5827,-106 556.5827,-106 556.5827,-118 556.5827,-118 556.5827,-124 550.5827,-130 544.5827,-130"/>
<text text-anchor="middle" x="526.8164" y="-116.2" font-family="Verdana" font-size="14.00" fill="#000000">logger</text>
<text text-anchor="middle" x="526.8164" y="-99.4" font-family="Verdana" font-size="14.00" fill="#000000">Warn</text>
</a>
</g>
</g>
<!-- github.com/go&#45;i2p/go&#45;i2p/lib/util/time/skew.ValidateTimestamp&#45;&gt;(*github.com/go&#45;i2p/logger.Entry).Warn -->
<g id="edge6" class="edge">
<title>github.com/go&#45;i2p/go&#45;i2p/lib/util/time/skew.ValidateTimestamp&#45;&gt;(*github.com/go&#45;i2p/logger.Entry).Warn</title>
<g id="a_edge6"><a xlink:title="at skew.go:40: calling [(*github.com/go&#45;i2p/logger.Entry).Warn]&#10;at skew.go:50: calling [(*github.com/go&#45;i2p/logger.Entry).Warn]">
<path fill="none" stroke="#8b4513" d="M381.3034,-142.0781C416.0603,-134.8937 457.2743,-126.3746 486.9516,-120.2402"/>
<polygon fill="#8b4513" stroke="#8b4513" points="487.8537,-123.6278 496.9382,-118.1759 486.4367,-116.7727 487.8537,-123.6278"/>
</a>
</g>
</g>
<!-- (*github.com/go&#45;i2p/logger.Logger).WithFields -->
<g id="node8" class="node">
<title>(*github.com/go&#45;i2p/logger.Logger).WithFields</title>
<g id="a_node8"><a xlink:title="(*github.com/go&#45;i2p/logger.Logger).WithFields | defined in log.go:66">
<path fill="#ffe4b5" stroke="#000000" stroke-width="1.5" d="M558.0355,-216C558.0355,-216 495.5973,-216 495.5973,-216 489.5973,-216 483.5973,-210 483.5973,-204 483.5973,-204 483.5973,-192 483.5973,-192 483.5973,-186 489.5973,-180 495.5973,-180 495.5973,-180 558.0355,-180 558.0355,-180 564.0355,-180 570.0355,-186 570.0355,-192 570.0355,-192 570.0355,-204 570.0355,-204 570.0355,-210 564.0355,-216 558.0355,-216"/>
<text text-anchor="middle" x="526.8164" y="-202.2" font-family="Verdana" font-size="14.00" fill="#000000">logger</text>
<text text-anchor="middle" x="526.8164" y="-185.4" font-family="Verdana" font-size="14.00" fill="#000000">WithFields</text>
</a>
</g>
</g>
<!-- github.com/go&#45;i2p/go&#45;i2p/lib/util/time/skew.ValidateTimestamp&#45;&gt;(*github.com/go&#45;i2p/logger.Logger).WithFields -->
<g id="edge5" class="edge">
<title>github.com/go&#45;i2p/go&#45;i2p/lib/util/time/skew.ValidateTimestamp&#45;&gt;(*github.com/go&#45;i2p/logger.Logger).WithFields</title>
<g id="a_edge5"><a xlink:title="at skew.go:35: calling [(*github.com/go&#45;i2p/logger.Logger).WithFields]&#10;at skew.go:45: calling [(*github.com/go&#45;i2p/logger.Logger).WithFields]">
<path fill="none" stroke="#8b4513" d="M381.3034,-169.2891C411.1354,-175.1752 445.7243,-181.9998 473.6925,-187.5182"/>
<polygon fill="#8b4513" stroke="#8b4513" points="473.1876,-190.986 483.676,-189.488 474.5426,-184.1184 473.1876,-190.986"/>
</a>
</g>
</g>
<!-- github.com/go&#45;i2p/go&#45;i2p/lib/util/time/skew.IsTimestampValid -->
<g id="node3" class="node">
<title>github.com/go&#45;i2p/go&#45;i2p/lib/util/time/skew.IsTimestampValid</title>
<g id="a_node3"><a xlink:title="github.com/go&#45;i2p/go&#45;i2p/lib/util/time/skew.IsTimestampValid | defined in skew.go:60&#10;at skew.go:61: calling [github.com/go&#45;i2p/go&#45;i2p/lib/util/time/skew.ValidateTimestamp]">
<path fill="#add8e6" stroke="#000000" stroke-width="1.5" d="M132.2948,-174C132.2948,-174 27.9016,-174 27.9016,-174 21.9016,-174 15.9016,-168 15.9016,-162 15.9016,-162 15.9016,-150 15.9016,-150 15.9016,-144 21.9016,-138 27.9016,-138 27.9016,-138 132.2948,-138 132.2948,-138 138.2948,-138 144.2948,-144 144.2948,-150 144.2948,-150 144.2948,-162 144.2948,-162 144.2948,-168 138.2948,-174 132.2948,-174"/>
<text text-anchor="middle" x="80.0982" y="-151.8" font-family="Verdana" font-size="14.00" fill="#000000">IsTimestampValid</text>
</a>
</g>
</g>
<!-- github.com/go&#45;i2p/go&#45;i2p/lib/util/time/skew.IsTimestampValid&#45;&gt;github.com/go&#45;i2p/go&#45;i2p/lib/util/time/skew.ValidateTimestamp -->
<g id="edge1" class="edge">
<title>github.com/go&#45;i2p/go&#45;i2p/lib/util/time/skew.IsTimestampValid&#45;&gt;github.com/go&#45;i2p/go&#45;i2p/lib/util/time/skew.ValidateTimestamp</title>
<g id="a_edge1"><a xlink:title="at skew.go:61: calling [github.com/go&#45;i2p/go&#45;i2p/lib/util/time/skew.ValidateTimestamp]">
<path fill="none" stroke="#000000" d="M144.309,-156C172.7331,-156 206.4138,-156 236.2432,-156"/>
<polygon fill="#000000" stroke="#000000" points="236.6186,-159.5001 246.6186,-156 236.6186,-152.5001 236.6186,-159.5001"/>
</a>
</g>
</g>
<!-- github.com/go&#45;i2p/go&#45;i2p/lib/util/time/skew.ValidateTimestampWithSkew -->
<g id="node4" class="node">
<title>github.com/go&#45;i2p/go&#45;i2p/lib/util/time/skew.ValidateTimestampWithSkew</title>
<g id="a_node4"><a xlink:title="github.com/go&#45;i2p/go&#45;i2p/lib/util/time/skew.ValidateTimestampWithSkew | defined in skew.go:70&#10;at skew.go:72: calling [github.com/samber/oops.Errorf]&#10;at skew.go:75: calling [github.com/samber/oops.Errorf]&#10;at skew.go:82: calling [github.com/samber/oops.Errorf]&#10;at skew.go:85: calling [github.com/samber/oops.Errorf]">
<path fill="#add8e6" stroke="#000000" stroke-width="1.5" d="M398.4629,-113C398.4629,-113 229.4405,-113 229.4405,-113 223.4405,-113 217.4405,-107 217.4405,-101 217.4405,-101 217.4405,-89 217.4405,-89 217.4405,-83 223.4405,-77 229.4405,-77 229.4405,-77 398.4629,-77 398.4629,-77 404.4629,-77 410.4629,-83 410.4629,-89 410.4629,-89 410.4629,-101 410.4629,-101 410.4629,-107 404.4629,-113 398.4629,-113"/>
<text text-anchor="middle" x="313.9517" y="-90.8" font-family="Verdana" font-size="14.00" fill="#000000">ValidateTimestampWithSkew</text>
</a>
</g>
</g>
<!-- github.com/go&#45;i2p/go&#45;i2p/lib/util/time/skew.ValidateTimestampWithSkew&#45;&gt;github.com/samber/oops.Errorf -->
<g id="edge2" class="edge">
<title>github.com/go&#45;i2p/go&#45;i2p/lib/util/time/skew.ValidateTimestampWithSkew&#45;&gt;github.com/samber/oops.Errorf</title>
<g id="a_edge2"><a xlink:title="at skew.go:72: calling [github.com/samber/oops.Errorf]&#10;at skew.go:75: calling [github.com/samber/oops.Errorf]&#10;at skew.go:82: calling [github.com/samber/oops.Errorf]&#10;at skew.go:85: calling [github.com/samber/oops.Errorf]">
<path fill="none" stroke="#8b4513" d="M376.9541,-76.9456C412.8611,-66.6558 456.7282,-54.085 487.6979,-45.2101"/>
<polygon fill="#8b4513" stroke="#8b4513" points="489.0272,-48.4701 497.6761,-42.3506 487.0988,-41.7409 489.0272,-48.4701"/>
</a>
</g>
</g>
<!-- github.com/go&#45;i2p/go&#45;i2p/lib/util/time/skew.init -->
<g id="node5" class="node">
<title>github.com/go&#45;i2p/go&#45;i2p/lib/util/time/skew.init</title>
<g id="a_node5"><a xlink:title="github.com/go&#45;i2p/go&#45;i2p/lib/util/time/skew.init | defined in .:0&#10;at log.go:5: calling [github.com/go&#45;i2p/logger.GetGoI2PLogger]">
<path fill="#add8e6" stroke="#000000" stroke-width=".5" d="M95.0982,-52C95.0982,-52 65.0982,-52 65.0982,-52 59.0982,-52 53.0982,-46 53.0982,-40 53.0982,-40 53.0982,-28 53.0982,-28 53.0982,-22 59.0982,-16 65.0982,-16 65.0982,-16 95.0982,-16 95.0982,-16 101.0982,-16 107.0982,-22 107.0982,-28 107.0982,-28 107.0982,-40 107.0982,-40 107.0982,-46 101.0982,-52 95.0982,-52"/>
<text text-anchor="middle" x="80.0982" y="-29.8" font-family="Verdana" font-size="14.00" fill="#000000">init</text>
</a>
</g>
</g>
<!-- github.com/go&#45;i2p/logger.GetGoI2PLogger -->
<g id="node6" class="node">
<title>github.com/go&#45;i2p/logger.GetGoI2PLogger</title>
<g id="a_node6"><a xlink:title="github.com/go&#45;i2p/logger.GetGoI2PLogger | defined in log.go:254">
<path fill="#ffe4b5" stroke="#000000" stroke-width="1.5" d="M362.6412,-52C362.6412,-52 265.2622,-52 265.2622,-52 259.2622,-52 253.2622,-46 253.2622,-40 253.2622,-40 253.2622,-28 253.2622,-28 253.2622,-22 259.2622,-16 265.2622,-16 265.2622,-16 362.6412,-16 362.6412,-16 368.6412,-16 374.6412,-22 374.6412,-28 374.6412,-28 374.6412,-40 374.6412,-40 374.6412,-46 368.6412,-52 362.6412,-52"/>
<text text-anchor="middle" x="313.9517" y="-38.2" font-family="Verdana" font-size="14.00" fill="#000000">logger</text>
<text text-anchor="middle" x="313.9517" y="-21.4" font-family="Verdana" font-size="14.00" fill="#000000">GetGoI2PLogger</text>
</a>
</g>
</g>
<!-- github.com/go&#45;i2p/go&#45;i2p/lib/util/time/skew.init&#45;&gt;github.com/go&#45;i2p/logger.GetGoI2PLogger -->
<g id="edge3" class="edge">
<title>github.com/go&#45;i2p/go&#45;i2p/lib/util/time/skew.init&#45;&gt;github.com/go&#45;i2p/logger.GetGoI2PLogger</title>
<g id="a_edge3"><a xlink:title="at log.go:5: calling [github.com/go&#45;i2p/logger.GetGoI2PLogger]">
<path fill="none" stroke="#8b4513" d="M107.3818,-34C140.4256,-34 197.3403,-34 243.0713,-34"/>
<polygon fill="#8b4513" stroke="#8b4513" points="243.2402,-37.5001 253.2401,-34 243.2401,-30.5001 243.2402,-37.5001"/>
</a>
</g>
</g>
</g>
</svg>
