<?xml version="1.0" encoding="UTF-8" standalone="no"?>
<!DOCTYPE svg PUBLIC "-//W3C//DTD SVG 1.1//EN"
 "http://www.w3.org/Graphics/SVG/1.1/DTD/svg11.dtd">
<!-- Generated by graphviz version 2.40.1 (20161225.0304)
 -->
<!-- Title: gocallvis Pages: 1 -->
<svg width="637pt" height="988pt"
 viewBox="0.00 0.00 637.35 988.00" xmlns="http://www.w3.org/2000/svg" xmlns:xlink="http://www.w3.org/1999/xlink">
<g id="graph0" class="graph" transform="scale(1 1) rotate(0) translate(0 988)">
<title>gocallvis</title>
<polygon fill="#d3d3d3" stroke="transparent" points="0,0 0,-988 637.3474,-988 637.3474,0 0,0"/>
<g id="clust1" class="cluster">
<title>cluster_focus</title>
<polygon fill="#e6ecfa" stroke="#000000" stroke-width=".5" points="7.0274,-8 7.0274,-980 629.3474,-980 629.3474,-8 7.0274,-8"/>
<text text-anchor="middle" x="318.1874" y="-959.8" font-family="Arial" font-size="18.00" fill="#000000">handshake</text>
</g>
<g id="clust5" class="cluster">
<title>cluster_*github.com/go&#45;i2p/go&#45;i2p/lib/transport/noise/kdf.NoiseKDF</title>
<g id="a_clust5"><a xlink:title="type: *github.com/go&#45;i2p/go&#45;i2p/lib/transport/noise/kdf.NoiseKDF">
<path fill="#eed8ae" stroke="#000000" stroke-width=".5" d="M482.1748,-107C482.1748,-107 609.3474,-107 609.3474,-107 615.3474,-107 621.3474,-113 621.3474,-119 621.3474,-119 621.3474,-356 621.3474,-356 621.3474,-362 615.3474,-368 609.3474,-368 609.3474,-368 482.1748,-368 482.1748,-368 476.1748,-368 470.1748,-362 470.1748,-356 470.1748,-356 470.1748,-119 470.1748,-119 470.1748,-113 476.1748,-107 482.1748,-107"/>
<text text-anchor="middle" x="545.7611" y="-115.5" font-family="Arial" font-size="15.00" fill="#222222">(*NoiseKDF)</text>
</a>
</g>
</g>
<g id="clust4" class="cluster">
<title>cluster_*github.com/go&#45;i2p/go&#45;i2p/lib/transport/noise/handshake.NoiseHandshakeState</title>
<g id="a_clust4"><a xlink:title="type: *github.com/go&#45;i2p/go&#45;i2p/lib/transport/noise/handshake.NoiseHandshakeState">
<path fill="#b0c4de" stroke="#000000" stroke-width=".5" d="M28,-498C28,-498 401.1748,-498 401.1748,-498 407.1748,-498 413.1748,-504 413.1748,-510 413.1748,-510 413.1748,-930 413.1748,-930 413.1748,-936 407.1748,-942 401.1748,-942 401.1748,-942 28,-942 28,-942 22,-942 16,-936 16,-930 16,-930 16,-510 16,-510 16,-504 22,-498 28,-498"/>
<text text-anchor="middle" x="214.5874" y="-506.5" font-family="Arial" font-size="15.00" fill="#222222">(*NoiseHandshakeState)</text>
</a>
</g>
</g>
<g id="clust3" class="cluster">
<title>cluster_*github.com/go&#45;i2p/go&#45;i2p/lib/transport/noise/handshake.HandshakeBuilder</title>
<g id="a_clust3"><a xlink:title="type: *github.com/go&#45;i2p/go&#45;i2p/lib/transport/noise/handshake.HandshakeBuilder">
<path fill="#b0c4de" stroke="#000000" stroke-width=".5" d="M27.0274,-16C27.0274,-16 157.1452,-16 157.1452,-16 163.1452,-16 169.1452,-22 169.1452,-28 169.1452,-28 169.1452,-82 169.1452,-82 169.1452,-88 163.1452,-94 157.1452,-94 157.1452,-94 27.0274,-94 27.0274,-94 21.0274,-94 15.0274,-88 15.0274,-82 15.0274,-82 15.0274,-28 15.0274,-28 15.0274,-22 21.0274,-16 27.0274,-16"/>
<text text-anchor="middle" x="92.0863" y="-24.5" font-family="Arial" font-size="15.00" fill="#222222">(*HandshakeBuilder)</text>
</a>
</g>
</g>
<g id="clust2" class="cluster">
<title>cluster_*github.com/flynn/noise.HandshakeState</title>
<g id="a_clust2"><a xlink:title="type: *github.com/flynn/noise.HandshakeState">
<path fill="#eed8ae" stroke="#000000" stroke-width=".5" d="M269.7792,-290C269.7792,-290 388.2898,-290 388.2898,-290 394.2898,-290 400.2898,-296 400.2898,-302 400.2898,-302 400.2898,-478 400.2898,-478 400.2898,-484 394.2898,-490 388.2898,-490 388.2898,-490 269.7792,-490 269.7792,-490 263.7792,-490 257.7792,-484 257.7792,-478 257.7792,-478 257.7792,-302 257.7792,-302 257.7792,-296 263.7792,-290 269.7792,-290"/>
<text text-anchor="middle" x="329.0345" y="-298.5" font-family="Arial" font-size="15.00" fill="#222222">(*HandshakeState)</text>
</a>
</g>
</g>
<!-- github.com/go&#45;i2p/go&#45;i2p/lib/transport/noise/kdf.NewNoiseKDF -->
<g id="node1" class="node">
<title>github.com/go&#45;i2p/go&#45;i2p/lib/transport/noise/kdf.NewNoiseKDF</title>
<g id="a_node1"><a xlink:title="github.com/go&#45;i2p/go&#45;i2p/lib/transport/noise/kdf.NewNoiseKDF | defined in kdf.go:17">
<path fill="#ffe4b5" stroke="#000000" stroke-width="1.5" d="M589.3411,-873C589.3411,-873 502.1811,-873 502.1811,-873 496.1811,-873 490.1811,-867 490.1811,-861 490.1811,-861 490.1811,-849 490.1811,-849 490.1811,-843 496.1811,-837 502.1811,-837 502.1811,-837 589.3411,-837 589.3411,-837 595.3411,-837 601.3411,-843 601.3411,-849 601.3411,-849 601.3411,-861 601.3411,-861 601.3411,-867 595.3411,-873 589.3411,-873"/>
<text text-anchor="middle" x="545.7611" y="-859.2" font-family="Verdana" font-size="14.00" fill="#000000">kdf</text>
<text text-anchor="middle" x="545.7611" y="-842.4" font-family="Verdana" font-size="14.00" fill="#000000">NewNoiseKDF</text>
</a>
</g>
</g>
<!-- github.com/samber/oops.Errorf -->
<g id="node2" class="node">
<title>github.com/samber/oops.Errorf</title>
<g id="a_node2"><a xlink:title="github.com/samber/oops.Errorf | defined in oops.go:34">
<path fill="#ffe4b5" stroke="#000000" stroke-width="1.5" d="M346.2298,-228C346.2298,-228 311.8392,-228 311.8392,-228 305.8392,-228 299.8392,-222 299.8392,-216 299.8392,-216 299.8392,-204 299.8392,-204 299.8392,-198 305.8392,-192 311.8392,-192 311.8392,-192 346.2298,-192 346.2298,-192 352.2298,-192 358.2298,-198 358.2298,-204 358.2298,-204 358.2298,-216 358.2298,-216 358.2298,-222 352.2298,-228 346.2298,-228"/>
<text text-anchor="middle" x="329.0345" y="-214.2" font-family="Verdana" font-size="14.00" fill="#000000">oops</text>
<text text-anchor="middle" x="329.0345" y="-197.4" font-family="Verdana" font-size="14.00" fill="#000000">Errorf</text>
</a>
</g>
</g>
<!-- github.com/go&#45;i2p/go&#45;i2p/lib/transport/noise/handshake.NewHandshakeState -->
<g id="node3" class="node">
<title>github.com/go&#45;i2p/go&#45;i2p/lib/transport/noise/handshake.NewHandshakeState</title>
<g id="a_node3"><a xlink:title="github.com/go&#45;i2p/go&#45;i2p/lib/transport/noise/handshake.NewHandshakeState | defined in handshake.go:23&#10;at handshake.go:29: calling [github.com/flynn/noise.NewCipherSuite]&#10;at handshake.go:35: calling [github.com/flynn/noise.NewHandshakeState]">
<path fill="#add8e6" stroke="#000000" stroke-width="1.5" d="M149.7026,-147C149.7026,-147 33.47,-147 33.47,-147 27.47,-147 21.47,-141 21.47,-135 21.47,-135 21.47,-123 21.47,-123 21.47,-117 27.47,-111 33.47,-111 33.47,-111 149.7026,-111 149.7026,-111 155.7026,-111 161.7026,-117 161.7026,-123 161.7026,-123 161.7026,-135 161.7026,-135 161.7026,-141 155.7026,-147 149.7026,-147"/>
<text text-anchor="middle" x="91.5863" y="-124.8" font-family="Verdana" font-size="14.00" fill="#000000">NewHandshakeState</text>
</a>
</g>
</g>
<!-- github.com/flynn/noise.NewCipherSuite -->
<g id="node4" class="node">
<title>github.com/flynn/noise.NewCipherSuite</title>
<g id="a_node4"><a xlink:title="github.com/flynn/noise.NewCipherSuite | defined in cipher_suite.go:84">
<path fill="#ffe4b5" stroke="#000000" stroke-width="1.5" d="M375.8435,-113C375.8435,-113 282.2255,-113 282.2255,-113 276.2255,-113 270.2255,-107 270.2255,-101 270.2255,-101 270.2255,-89 270.2255,-89 270.2255,-83 276.2255,-77 282.2255,-77 282.2255,-77 375.8435,-77 375.8435,-77 381.8435,-77 387.8435,-83 387.8435,-89 387.8435,-89 387.8435,-101 387.8435,-101 387.8435,-107 381.8435,-113 375.8435,-113"/>
<text text-anchor="middle" x="329.0345" y="-99.2" font-family="Verdana" font-size="14.00" fill="#000000">noise</text>
<text text-anchor="middle" x="329.0345" y="-82.4" font-family="Verdana" font-size="14.00" fill="#000000">NewCipherSuite</text>
</a>
</g>
</g>
<!-- github.com/go&#45;i2p/go&#45;i2p/lib/transport/noise/handshake.NewHandshakeState&#45;&gt;github.com/flynn/noise.NewCipherSuite -->
<g id="edge12" class="edge">
<title>github.com/go&#45;i2p/go&#45;i2p/lib/transport/noise/handshake.NewHandshakeState&#45;&gt;github.com/flynn/noise.NewCipherSuite</title>
<g id="a_edge12"><a xlink:title="at handshake.go:29: calling [github.com/flynn/noise.NewCipherSuite]">
<path fill="none" stroke="#8b4513" d="M161.8648,-118.9369C192.8266,-114.5035 229.0943,-109.3104 259.921,-104.8963"/>
<polygon fill="#8b4513" stroke="#8b4513" points="260.7483,-108.3136 270.1512,-103.4314 259.756,-101.3843 260.7483,-108.3136"/>
</a>
</g>
</g>
<!-- github.com/flynn/noise.NewHandshakeState -->
<g id="node5" class="node">
<title>github.com/flynn/noise.NewHandshakeState</title>
<g id="a_node5"><a xlink:title="github.com/flynn/noise.NewHandshakeState | defined in state.go:317">
<path fill="#ffe4b5" stroke="#000000" stroke-width="1.5" d="M387.1508,-52C387.1508,-52 270.9182,-52 270.9182,-52 264.9182,-52 258.9182,-46 258.9182,-40 258.9182,-40 258.9182,-28 258.9182,-28 258.9182,-22 264.9182,-16 270.9182,-16 270.9182,-16 387.1508,-16 387.1508,-16 393.1508,-16 399.1508,-22 399.1508,-28 399.1508,-28 399.1508,-40 399.1508,-40 399.1508,-46 393.1508,-52 387.1508,-52"/>
<text text-anchor="middle" x="329.0345" y="-38.2" font-family="Verdana" font-size="14.00" fill="#000000">noise</text>
<text text-anchor="middle" x="329.0345" y="-21.4" font-family="Verdana" font-size="14.00" fill="#000000">NewHandshakeState</text>
</a>
</g>
</g>
<!-- github.com/go&#45;i2p/go&#45;i2p/lib/transport/noise/handshake.NewHandshakeState&#45;&gt;github.com/flynn/noise.NewHandshakeState -->
<g id="edge13" class="edge">
<title>github.com/go&#45;i2p/go&#45;i2p/lib/transport/noise/handshake.NewHandshakeState&#45;&gt;github.com/flynn/noise.NewHandshakeState</title>
<g id="a_edge13"><a xlink:title="at handshake.go:35: calling [github.com/flynn/noise.NewHandshakeState]">
<path fill="none" stroke="#8b4513" d="M140.9294,-110.8713C150.3227,-107.3294 160.0557,-103.5971 169.1452,-100 206.6561,-85.1552 215.6012,-80.3841 252.8942,-65 260.0375,-62.0533 267.5648,-58.9664 274.9943,-55.9305"/>
<polygon fill="#8b4513" stroke="#8b4513" points="276.3799,-59.1453 284.3164,-52.1266 273.7352,-52.6641 276.3799,-59.1453"/>
</a>
</g>
</g>
<!-- (*github.com/flynn/noise.HandshakeState).WriteMessage -->
<g id="node6" class="node">
<title>(*github.com/flynn/noise.HandshakeState).WriteMessage</title>
<g id="a_node6"><a xlink:title="(*github.com/flynn/noise.HandshakeState).WriteMessage | defined in state.go:391">
<path fill="#ffe4b5" stroke="#000000" stroke-width="1.5" d="M369.3832,-482C369.3832,-482 288.6858,-482 288.6858,-482 282.6858,-482 276.6858,-476 276.6858,-470 276.6858,-470 276.6858,-458 276.6858,-458 276.6858,-452 282.6858,-446 288.6858,-446 288.6858,-446 369.3832,-446 369.3832,-446 375.3832,-446 381.3832,-452 381.3832,-458 381.3832,-458 381.3832,-470 381.3832,-470 381.3832,-476 375.3832,-482 369.3832,-482"/>
<text text-anchor="middle" x="329.0345" y="-468.2" font-family="Verdana" font-size="14.00" fill="#000000">noise</text>
<text text-anchor="middle" x="329.0345" y="-451.4" font-family="Verdana" font-size="14.00" fill="#000000">WriteMessage</text>
</a>
</g>
</g>
<!-- (*github.com/flynn/noise.HandshakeState).ReadMessage -->
<g id="node7" class="node">
<title>(*github.com/flynn/noise.HandshakeState).ReadMessage</title>
<g id="a_node7"><a xlink:title="(*github.com/flynn/noise.HandshakeState).ReadMessage | defined in state.go:503">
<path fill="#ffe4b5" stroke="#000000" stroke-width="1.5" d="M367.7782,-360C367.7782,-360 290.2908,-360 290.2908,-360 284.2908,-360 278.2908,-354 278.2908,-348 278.2908,-348 278.2908,-336 278.2908,-336 278.2908,-330 284.2908,-324 290.2908,-324 290.2908,-324 367.7782,-324 367.7782,-324 373.7782,-324 379.7782,-330 379.7782,-336 379.7782,-336 379.7782,-348 379.7782,-348 379.7782,-354 373.7782,-360 367.7782,-360"/>
<text text-anchor="middle" x="329.0345" y="-346.2" font-family="Verdana" font-size="14.00" fill="#000000">noise</text>
<text text-anchor="middle" x="329.0345" y="-329.4" font-family="Verdana" font-size="14.00" fill="#000000">ReadMessage</text>
</a>
</g>
</g>
<!-- (*github.com/flynn/noise.HandshakeState).LocalEphemeral -->
<g id="node8" class="node">
<title>(*github.com/flynn/noise.HandshakeState).LocalEphemeral</title>
<g id="a_node8"><a xlink:title="(*github.com/flynn/noise.HandshakeState).LocalEphemeral | defined in state.go:642">
<path fill="#ffe4b5" stroke="#000000" stroke-width="1.5" d="M375.0461,-421C375.0461,-421 283.0229,-421 283.0229,-421 277.0229,-421 271.0229,-415 271.0229,-409 271.0229,-409 271.0229,-397 271.0229,-397 271.0229,-391 277.0229,-385 283.0229,-385 283.0229,-385 375.0461,-385 375.0461,-385 381.0461,-385 387.0461,-391 387.0461,-397 387.0461,-397 387.0461,-409 387.0461,-409 387.0461,-415 381.0461,-421 375.0461,-421"/>
<text text-anchor="middle" x="329.0345" y="-407.2" font-family="Verdana" font-size="14.00" fill="#000000">noise</text>
<text text-anchor="middle" x="329.0345" y="-390.4" font-family="Verdana" font-size="14.00" fill="#000000">LocalEphemeral</text>
</a>
</g>
</g>
<!-- (*github.com/go&#45;i2p/go&#45;i2p/lib/transport/noise/handshake.HandshakeBuilder).Build -->
<g id="node9" class="node">
<title>(*github.com/go&#45;i2p/go&#45;i2p/lib/transport/noise/handshake.HandshakeBuilder).Build</title>
<g id="a_node9"><a xlink:title="(*github.com/go&#45;i2p/go&#45;i2p/lib/transport/noise/handshake.HandshakeBuilder).Build | defined in handshake_builder.go:68&#10;at handshake_builder.go:71: calling [github.com/flynn/noise.NewCipherSuite]&#10;at handshake_builder.go:80: calling [github.com/flynn/noise.NewHandshakeState]">
<path fill="#add8e6" stroke="#000000" stroke-width="1.5" d="M107.2042,-86C107.2042,-86 75.9684,-86 75.9684,-86 69.9684,-86 63.9684,-80 63.9684,-74 63.9684,-74 63.9684,-62 63.9684,-62 63.9684,-56 69.9684,-50 75.9684,-50 75.9684,-50 107.2042,-50 107.2042,-50 113.2042,-50 119.2042,-56 119.2042,-62 119.2042,-62 119.2042,-74 119.2042,-74 119.2042,-80 113.2042,-86 107.2042,-86"/>
<text text-anchor="middle" x="91.5863" y="-63.8" font-family="Verdana" font-size="14.00" fill="#000000">Build</text>
</a>
</g>
</g>
<!-- (*github.com/go&#45;i2p/go&#45;i2p/lib/transport/noise/handshake.HandshakeBuilder).Build&#45;&gt;github.com/flynn/noise.NewCipherSuite -->
<g id="edge19" class="edge">
<title>(*github.com/go&#45;i2p/go&#45;i2p/lib/transport/noise/handshake.HandshakeBuilder).Build&#45;&gt;github.com/flynn/noise.NewCipherSuite</title>
<g id="a_edge19"><a xlink:title="at handshake_builder.go:71: calling [github.com/flynn/noise.NewCipherSuite]">
<path fill="none" stroke="#8b4513" d="M119.2893,-71.1501C153.5954,-75.051 213.2414,-81.8333 260.1788,-87.1705"/>
<polygon fill="#8b4513" stroke="#8b4513" points="259.9592,-90.668 270.2906,-88.3203 260.7501,-83.7128 259.9592,-90.668"/>
</a>
</g>
</g>
<!-- (*github.com/go&#45;i2p/go&#45;i2p/lib/transport/noise/handshake.HandshakeBuilder).Build&#45;&gt;github.com/flynn/noise.NewHandshakeState -->
<g id="edge20" class="edge">
<title>(*github.com/go&#45;i2p/go&#45;i2p/lib/transport/noise/handshake.HandshakeBuilder).Build&#45;&gt;github.com/flynn/noise.NewHandshakeState</title>
<g id="a_edge20"><a xlink:title="at handshake_builder.go:80: calling [github.com/flynn/noise.NewHandshakeState]">
<path fill="none" stroke="#8b4513" d="M119.2893,-64.0332C150.8507,-59.514 203.8595,-51.9237 248.6884,-45.5047"/>
<polygon fill="#8b4513" stroke="#8b4513" points="249.3036,-48.9524 258.7065,-44.0702 248.3113,-42.0231 249.3036,-48.9524"/>
</a>
</g>
</g>
<!-- (*github.com/go&#45;i2p/go&#45;i2p/lib/transport/noise/handshake.NoiseHandshakeState).updateHandshakeHash -->
<g id="node10" class="node">
<title>(*github.com/go&#45;i2p/go&#45;i2p/lib/transport/noise/handshake.NoiseHandshakeState).updateHandshakeHash</title>
<g id="a_node10"><a xlink:title="(*github.com/go&#45;i2p/go&#45;i2p/lib/transport/noise/handshake.NoiseHandshakeState).updateHandshakeHash | defined in handshake.go:205&#10;at handshake.go:253: calling [(*github.com/go&#45;i2p/go&#45;i2p/lib/transport/noise/kdf.NoiseKDF).SetHash]&#10;at handshake.go:214: calling [github.com/go&#45;i2p/go&#45;i2p/lib/transport/noise/kdf.NewNoiseKDF]&#10;at handshake.go:230: calling [github.com/go&#45;i2p/go&#45;i2p/lib/transport/noise/kdf.NewNoiseKDF]&#10;at handshake.go:246: calling [github.com/go&#45;i2p/go&#45;i2p/lib/transport/noise/kdf.NewNoiseKDF]">
<path fill="#add8e6" stroke="#000000" stroke-width=".5" d="M393.3154,-728C393.3154,-728 264.7536,-728 264.7536,-728 258.7536,-728 252.7536,-722 252.7536,-716 252.7536,-716 252.7536,-704 252.7536,-704 252.7536,-698 258.7536,-692 264.7536,-692 264.7536,-692 393.3154,-692 393.3154,-692 399.3154,-692 405.3154,-698 405.3154,-704 405.3154,-704 405.3154,-716 405.3154,-716 405.3154,-722 399.3154,-728 393.3154,-728"/>
<text text-anchor="middle" x="329.0345" y="-705.8" font-family="Verdana" font-size="14.00" fill="#000000">updateHandshakeHash</text>
</a>
</g>
</g>
<!-- (*github.com/go&#45;i2p/go&#45;i2p/lib/transport/noise/handshake.NoiseHandshakeState).updateHandshakeHash&#45;&gt;github.com/go&#45;i2p/go&#45;i2p/lib/transport/noise/kdf.NewNoiseKDF -->
<g id="edge9" class="edge">
<title>(*github.com/go&#45;i2p/go&#45;i2p/lib/transport/noise/handshake.NoiseHandshakeState).updateHandshakeHash&#45;&gt;github.com/go&#45;i2p/go&#45;i2p/lib/transport/noise/kdf.NewNoiseKDF</title>
<g id="a_edge9"><a xlink:title="at handshake.go:214: calling [github.com/go&#45;i2p/go&#45;i2p/lib/transport/noise/kdf.NewNoiseKDF]&#10;at handshake.go:230: calling [github.com/go&#45;i2p/go&#45;i2p/lib/transport/noise/kdf.NewNoiseKDF]&#10;at handshake.go:246: calling [github.com/go&#45;i2p/go&#45;i2p/lib/transport/noise/kdf.NewNoiseKDF]">
<path fill="none" stroke="#8b4513" d="M405.3864,-728.1063C408.0545,-729.3237 410.6597,-730.62 413.1748,-732 458.7729,-757.0185 500.874,-801.159 524.9122,-829.2001"/>
<polygon fill="#8b4513" stroke="#8b4513" points="522.3667,-831.6108 531.4887,-836.9996 527.7182,-827.0984 522.3667,-831.6108"/>
</a>
</g>
</g>
<!-- (*github.com/go&#45;i2p/go&#45;i2p/lib/transport/noise/kdf.NoiseKDF).SetHash -->
<g id="node18" class="node">
<title>(*github.com/go&#45;i2p/go&#45;i2p/lib/transport/noise/kdf.NoiseKDF).SetHash</title>
<g id="a_node18"><a xlink:title="(*github.com/go&#45;i2p/go&#45;i2p/lib/transport/noise/kdf.NoiseKDF).SetHash | defined in kdf.go:106">
<path fill="#ffe4b5" stroke="#000000" stroke-width="1.5" d="M568.9155,-360C568.9155,-360 522.6067,-360 522.6067,-360 516.6067,-360 510.6067,-354 510.6067,-348 510.6067,-348 510.6067,-336 510.6067,-336 510.6067,-330 516.6067,-324 522.6067,-324 522.6067,-324 568.9155,-324 568.9155,-324 574.9155,-324 580.9155,-330 580.9155,-336 580.9155,-336 580.9155,-348 580.9155,-348 580.9155,-354 574.9155,-360 568.9155,-360"/>
<text text-anchor="middle" x="545.7611" y="-346.2" font-family="Verdana" font-size="14.00" fill="#000000">kdf</text>
<text text-anchor="middle" x="545.7611" y="-329.4" font-family="Verdana" font-size="14.00" fill="#000000">SetHash</text>
</a>
</g>
</g>
<!-- (*github.com/go&#45;i2p/go&#45;i2p/lib/transport/noise/handshake.NoiseHandshakeState).updateHandshakeHash&#45;&gt;(*github.com/go&#45;i2p/go&#45;i2p/lib/transport/noise/kdf.NoiseKDF).SetHash -->
<g id="edge1" class="edge">
<title>(*github.com/go&#45;i2p/go&#45;i2p/lib/transport/noise/handshake.NoiseHandshakeState).updateHandshakeHash&#45;&gt;(*github.com/go&#45;i2p/go&#45;i2p/lib/transport/noise/kdf.NoiseKDF).SetHash</title>
<g id="a_edge1"><a xlink:title="at handshake.go:253: calling [(*github.com/go&#45;i2p/go&#45;i2p/lib/transport/noise/kdf.NoiseKDF).SetHash]">
<path fill="none" stroke="#8b4513" d="M336.2297,-691.7518C364.0752,-621.2091 463.5476,-369.971 470.1748,-364 478.6484,-356.3654 489.6299,-351.3705 500.5837,-348.1056"/>
<polygon fill="#8b4513" stroke="#8b4513" points="501.7341,-351.4245 510.5627,-345.5674 500.0085,-344.6405 501.7341,-351.4245"/>
</a>
</g>
</g>
<!-- (*github.com/go&#45;i2p/go&#45;i2p/lib/transport/noise/handshake.NoiseHandshakeState).MixHash -->
<g id="node11" class="node">
<title>(*github.com/go&#45;i2p/go&#45;i2p/lib/transport/noise/handshake.NoiseHandshakeState).MixHash</title>
<g id="a_node11"><a xlink:title="(*github.com/go&#45;i2p/go&#45;i2p/lib/transport/noise/handshake.NoiseHandshakeState).MixHash | defined in handshake.go:177&#10;at handshake.go:184: calling [github.com/go&#45;i2p/go&#45;i2p/lib/transport/noise/kdf.NewNoiseKDF]&#10;at handshake.go:187: calling [(*github.com/go&#45;i2p/go&#45;i2p/lib/transport/noise/kdf.NoiseKDF).MixHash]">
<path fill="#add8e6" stroke="#000000" stroke-width="1.5" d="M117.6874,-934C117.6874,-934 65.4852,-934 65.4852,-934 59.4852,-934 53.4852,-928 53.4852,-922 53.4852,-922 53.4852,-910 53.4852,-910 53.4852,-904 59.4852,-898 65.4852,-898 65.4852,-898 117.6874,-898 117.6874,-898 123.6874,-898 129.6874,-904 129.6874,-910 129.6874,-910 129.6874,-922 129.6874,-922 129.6874,-928 123.6874,-934 117.6874,-934"/>
<text text-anchor="middle" x="91.5863" y="-911.8" font-family="Verdana" font-size="14.00" fill="#000000">MixHash</text>
</a>
</g>
</g>
<!-- (*github.com/go&#45;i2p/go&#45;i2p/lib/transport/noise/handshake.NoiseHandshakeState).MixHash&#45;&gt;github.com/go&#45;i2p/go&#45;i2p/lib/transport/noise/kdf.NewNoiseKDF -->
<g id="edge2" class="edge">
<title>(*github.com/go&#45;i2p/go&#45;i2p/lib/transport/noise/handshake.NoiseHandshakeState).MixHash&#45;&gt;github.com/go&#45;i2p/go&#45;i2p/lib/transport/noise/kdf.NewNoiseKDF</title>
<g id="a_edge2"><a xlink:title="at handshake.go:184: calling [github.com/go&#45;i2p/go&#45;i2p/lib/transport/noise/kdf.NewNoiseKDF]">
<path fill="none" stroke="#8b4513" d="M129.9176,-910.8517C207.3982,-900.4454 383.4466,-876.8004 479.7708,-863.8631"/>
<polygon fill="#8b4513" stroke="#8b4513" points="480.5289,-867.2928 489.9739,-862.4927 479.597,-860.3551 480.5289,-867.2928"/>
</a>
</g>
</g>
<!-- (*github.com/go&#45;i2p/go&#45;i2p/lib/transport/noise/kdf.NoiseKDF).MixHash -->
<g id="node19" class="node">
<title>(*github.com/go&#45;i2p/go&#45;i2p/lib/transport/noise/kdf.NoiseKDF).MixHash</title>
<g id="a_node19"><a xlink:title="(*github.com/go&#45;i2p/go&#45;i2p/lib/transport/noise/kdf.NoiseKDF).MixHash | defined in kdf.go:55">
<path fill="#ffe4b5" stroke="#000000" stroke-width="1.5" d="M571.8622,-299C571.8622,-299 519.66,-299 519.66,-299 513.66,-299 507.66,-293 507.66,-287 507.66,-287 507.66,-275 507.66,-275 507.66,-269 513.66,-263 519.66,-263 519.66,-263 571.8622,-263 571.8622,-263 577.8622,-263 583.8622,-269 583.8622,-275 583.8622,-275 583.8622,-287 583.8622,-287 583.8622,-293 577.8622,-299 571.8622,-299"/>
<text text-anchor="middle" x="545.7611" y="-285.2" font-family="Verdana" font-size="14.00" fill="#000000">kdf</text>
<text text-anchor="middle" x="545.7611" y="-268.4" font-family="Verdana" font-size="14.00" fill="#000000">MixHash</text>
</a>
</g>
</g>
<!-- (*github.com/go&#45;i2p/go&#45;i2p/lib/transport/noise/handshake.NoiseHandshakeState).MixHash&#45;&gt;(*github.com/go&#45;i2p/go&#45;i2p/lib/transport/noise/kdf.NoiseKDF).MixHash -->
<g id="edge10" class="edge">
<title>(*github.com/go&#45;i2p/go&#45;i2p/lib/transport/noise/handshake.NoiseHandshakeState).MixHash&#45;&gt;(*github.com/go&#45;i2p/go&#45;i2p/lib/transport/noise/kdf.NoiseKDF).MixHash</title>
<g id="a_edge10"><a xlink:title="at handshake.go:187: calling [(*github.com/go&#45;i2p/go&#45;i2p/lib/transport/noise/kdf.NoiseKDF).MixHash]">
<path fill="none" stroke="#8b4513" d="M129.6593,-910.1843C144.3134,-905.9508 159.7663,-898.6364 169.1452,-886 246.1804,-782.2096 140.851,-413.3156 212.8942,-306 243.6305,-260.2152 412.628,-268.6875 497.3313,-276.0499"/>
<polygon fill="#8b4513" stroke="#8b4513" points="497.2008,-279.5522 507.474,-276.9613 497.8274,-272.5803 497.2008,-279.5522"/>
</a>
</g>
</g>
<!-- (*github.com/go&#45;i2p/go&#45;i2p/lib/transport/noise/handshake.NoiseHandshakeState).SetPrologue -->
<g id="node12" class="node">
<title>(*github.com/go&#45;i2p/go&#45;i2p/lib/transport/noise/handshake.NoiseHandshakeState).SetPrologue</title>
<g id="a_node12"><a xlink:title="(*github.com/go&#45;i2p/go&#45;i2p/lib/transport/noise/handshake.NoiseHandshakeState).SetPrologue | defined in handshake.go:159&#10;at handshake.go:167: calling [(*github.com/go&#45;i2p/go&#45;i2p/lib/transport/noise/kdf.NoiseKDF).MixHash]&#10;at handshake.go:173: calling [github.com/samber/oops.Errorf]">
<path fill="#add8e6" stroke="#000000" stroke-width="1.5" d="M126.0235,-629C126.0235,-629 57.1491,-629 57.1491,-629 51.1491,-629 45.1491,-623 45.1491,-617 45.1491,-617 45.1491,-605 45.1491,-605 45.1491,-599 51.1491,-593 57.1491,-593 57.1491,-593 126.0235,-593 126.0235,-593 132.0235,-593 138.0235,-599 138.0235,-605 138.0235,-605 138.0235,-617 138.0235,-617 138.0235,-623 132.0235,-629 126.0235,-629"/>
<text text-anchor="middle" x="91.5863" y="-606.8" font-family="Verdana" font-size="14.00" fill="#000000">SetPrologue</text>
</a>
</g>
</g>
<!-- (*github.com/go&#45;i2p/go&#45;i2p/lib/transport/noise/handshake.NoiseHandshakeState).SetPrologue&#45;&gt;github.com/samber/oops.Errorf -->
<g id="edge15" class="edge">
<title>(*github.com/go&#45;i2p/go&#45;i2p/lib/transport/noise/handshake.NoiseHandshakeState).SetPrologue&#45;&gt;github.com/samber/oops.Errorf</title>
<g id="a_edge15"><a xlink:title="at handshake.go:173: calling [github.com/samber/oops.Errorf]">
<path fill="none" stroke="#8b4513" d="M137.8876,-602.1647C149.7565,-597.7179 161.3554,-591.0365 169.1452,-581 219.6391,-515.9424 152.0313,-268.4782 212.8942,-213 233.2014,-194.4895 264.7847,-194.8302 289.8923,-199.2006"/>
<polygon fill="#8b4513" stroke="#8b4513" points="289.3619,-202.6638 299.8548,-201.1977 290.7379,-195.8004 289.3619,-202.6638"/>
</a>
</g>
</g>
<!-- (*github.com/go&#45;i2p/go&#45;i2p/lib/transport/noise/handshake.NoiseHandshakeState).SetPrologue&#45;&gt;(*github.com/go&#45;i2p/go&#45;i2p/lib/transport/noise/kdf.NoiseKDF).MixHash -->
<g id="edge11" class="edge">
<title>(*github.com/go&#45;i2p/go&#45;i2p/lib/transport/noise/handshake.NoiseHandshakeState).SetPrologue&#45;&gt;(*github.com/go&#45;i2p/go&#45;i2p/lib/transport/noise/kdf.NoiseKDF).MixHash</title>
<g id="a_edge11"><a xlink:title="at handshake.go:167: calling [(*github.com/go&#45;i2p/go&#45;i2p/lib/transport/noise/kdf.NoiseKDF).MixHash]">
<path fill="none" stroke="#8b4513" d="M137.9657,-602.225C149.8358,-597.7791 161.4159,-591.0832 169.1452,-581 224.8895,-508.2791 144.7526,-232.2574 212.8942,-171 245.9928,-141.2453 373.6129,-150.6111 413.1748,-171 451.9818,-190.9998 435.8141,-224.0683 470.1748,-251 478.4272,-257.4681 488.2527,-262.7082 498.0441,-266.8884"/>
<polygon fill="#8b4513" stroke="#8b4513" points="496.7826,-270.1532 507.3689,-270.5769 499.3574,-263.6439 496.7826,-270.1532"/>
</a>
</g>
</g>
<!-- (*github.com/go&#45;i2p/go&#45;i2p/lib/transport/noise/handshake.NoiseHandshakeState).GetHandshakeHash -->
<g id="node13" class="node">
<title>(*github.com/go&#45;i2p/go&#45;i2p/lib/transport/noise/handshake.NoiseHandshakeState).GetHandshakeHash</title>
<g id="a_node13"><a xlink:title="(*github.com/go&#45;i2p/go&#45;i2p/lib/transport/noise/handshake.NoiseHandshakeState).GetHandshakeHash | defined in handshake.go:146&#10;at handshake.go:151: calling [(*github.com/go&#45;i2p/go&#45;i2p/lib/transport/noise/kdf.NoiseKDF).GetHandshakeHash]">
<path fill="#add8e6" stroke="#000000" stroke-width="1.5" d="M147.259,-568C147.259,-568 35.9136,-568 35.9136,-568 29.9136,-568 23.9136,-562 23.9136,-556 23.9136,-556 23.9136,-544 23.9136,-544 23.9136,-538 29.9136,-532 35.9136,-532 35.9136,-532 147.259,-532 147.259,-532 153.259,-532 159.259,-538 159.259,-544 159.259,-544 159.259,-556 159.259,-556 159.259,-562 153.259,-568 147.259,-568"/>
<text text-anchor="middle" x="91.5863" y="-545.8" font-family="Verdana" font-size="14.00" fill="#000000">GetHandshakeHash</text>
</a>
</g>
</g>
<!-- (*github.com/go&#45;i2p/go&#45;i2p/lib/transport/noise/kdf.NoiseKDF).GetHandshakeHash -->
<g id="node20" class="node">
<title>(*github.com/go&#45;i2p/go&#45;i2p/lib/transport/noise/kdf.NoiseKDF).GetHandshakeHash</title>
<g id="a_node20"><a xlink:title="(*github.com/go&#45;i2p/go&#45;i2p/lib/transport/noise/kdf.NoiseKDF).GetHandshakeHash | defined in kdf.go:68">
<path fill="#ffe4b5" stroke="#000000" stroke-width="1.5" d="M601.4338,-177C601.4338,-177 490.0884,-177 490.0884,-177 484.0884,-177 478.0884,-171 478.0884,-165 478.0884,-165 478.0884,-153 478.0884,-153 478.0884,-147 484.0884,-141 490.0884,-141 490.0884,-141 601.4338,-141 601.4338,-141 607.4338,-141 613.4338,-147 613.4338,-153 613.4338,-153 613.4338,-165 613.4338,-165 613.4338,-171 607.4338,-177 601.4338,-177"/>
<text text-anchor="middle" x="545.7611" y="-163.2" font-family="Verdana" font-size="14.00" fill="#000000">kdf</text>
<text text-anchor="middle" x="545.7611" y="-146.4" font-family="Verdana" font-size="14.00" fill="#000000">GetHandshakeHash</text>
</a>
</g>
</g>
<!-- (*github.com/go&#45;i2p/go&#45;i2p/lib/transport/noise/handshake.NoiseHandshakeState).GetHandshakeHash&#45;&gt;(*github.com/go&#45;i2p/go&#45;i2p/lib/transport/noise/kdf.NoiseKDF).GetHandshakeHash -->
<g id="edge3" class="edge">
<title>(*github.com/go&#45;i2p/go&#45;i2p/lib/transport/noise/handshake.NoiseHandshakeState).GetHandshakeHash&#45;&gt;(*github.com/go&#45;i2p/go&#45;i2p/lib/transport/noise/kdf.NoiseKDF).GetHandshakeHash</title>
<g id="a_edge3"><a xlink:title="at handshake.go:151: calling [(*github.com/go&#45;i2p/go&#45;i2p/lib/transport/noise/kdf.NoiseKDF).GetHandshakeHash]">
<path fill="none" stroke="#8b4513" d="M159.4762,-536.5335C163.0528,-534.1206 166.3263,-531.2984 169.1452,-528 274.7197,-404.4665 117.9941,-296.9109 212.8942,-165 241.577,-125.131 378.8779,-135.5532 467.9397,-147.0642"/>
<polygon fill="#8b4513" stroke="#8b4513" points="467.6402,-150.555 478.013,-148.3972 468.5586,-143.6155 467.6402,-150.555"/>
</a>
</g>
</g>
<!-- (*github.com/go&#45;i2p/go&#45;i2p/lib/transport/noise/handshake.NoiseHandshakeState).MixKey -->
<g id="node14" class="node">
<title>(*github.com/go&#45;i2p/go&#45;i2p/lib/transport/noise/handshake.NoiseHandshakeState).MixKey</title>
<g id="a_node14"><a xlink:title="(*github.com/go&#45;i2p/go&#45;i2p/lib/transport/noise/handshake.NoiseHandshakeState).MixKey | defined in handshake.go:191&#10;at handshake.go:198: calling [github.com/go&#45;i2p/go&#45;i2p/lib/transport/noise/kdf.NewNoiseKDF]&#10;at handshake.go:201: calling [(*github.com/go&#45;i2p/go&#45;i2p/lib/transport/noise/kdf.NoiseKDF).MixKey]">
<path fill="#add8e6" stroke="#000000" stroke-width="1.5" d="M114.7435,-873C114.7435,-873 68.4291,-873 68.4291,-873 62.4291,-873 56.4291,-867 56.4291,-861 56.4291,-861 56.4291,-849 56.4291,-849 56.4291,-843 62.4291,-837 68.4291,-837 68.4291,-837 114.7435,-837 114.7435,-837 120.7435,-837 126.7435,-843 126.7435,-849 126.7435,-849 126.7435,-861 126.7435,-861 126.7435,-867 120.7435,-873 114.7435,-873"/>
<text text-anchor="middle" x="91.5863" y="-850.8" font-family="Verdana" font-size="14.00" fill="#000000">MixKey</text>
</a>
</g>
</g>
<!-- (*github.com/go&#45;i2p/go&#45;i2p/lib/transport/noise/handshake.NoiseHandshakeState).MixKey&#45;&gt;github.com/go&#45;i2p/go&#45;i2p/lib/transport/noise/kdf.NewNoiseKDF -->
<g id="edge7" class="edge">
<title>(*github.com/go&#45;i2p/go&#45;i2p/lib/transport/noise/handshake.NoiseHandshakeState).MixKey&#45;&gt;github.com/go&#45;i2p/go&#45;i2p/lib/transport/noise/kdf.NewNoiseKDF</title>
<g id="a_edge7"><a xlink:title="at handshake.go:198: calling [github.com/go&#45;i2p/go&#45;i2p/lib/transport/noise/kdf.NewNoiseKDF]">
<path fill="none" stroke="#8b4513" d="M126.8467,-855C202.7349,-855 382.5514,-855 480.0964,-855"/>
<polygon fill="#8b4513" stroke="#8b4513" points="480.1352,-858.5001 490.1352,-855 480.1351,-851.5001 480.1352,-858.5001"/>
</a>
</g>
</g>
<!-- (*github.com/go&#45;i2p/go&#45;i2p/lib/transport/noise/kdf.NoiseKDF).MixKey -->
<g id="node21" class="node">
<title>(*github.com/go&#45;i2p/go&#45;i2p/lib/transport/noise/kdf.NoiseKDF).MixKey</title>
<g id="a_node21"><a xlink:title="(*github.com/go&#45;i2p/go&#45;i2p/lib/transport/noise/kdf.NoiseKDF).MixKey | defined in kdf.go:29">
<path fill="#ffe4b5" stroke="#000000" stroke-width="1.5" d="M568.9183,-238C568.9183,-238 522.6039,-238 522.6039,-238 516.6039,-238 510.6039,-232 510.6039,-226 510.6039,-226 510.6039,-214 510.6039,-214 510.6039,-208 516.6039,-202 522.6039,-202 522.6039,-202 568.9183,-202 568.9183,-202 574.9183,-202 580.9183,-208 580.9183,-214 580.9183,-214 580.9183,-226 580.9183,-226 580.9183,-232 574.9183,-238 568.9183,-238"/>
<text text-anchor="middle" x="545.7611" y="-224.2" font-family="Verdana" font-size="14.00" fill="#000000">kdf</text>
<text text-anchor="middle" x="545.7611" y="-207.4" font-family="Verdana" font-size="14.00" fill="#000000">MixKey</text>
</a>
</g>
</g>
<!-- (*github.com/go&#45;i2p/go&#45;i2p/lib/transport/noise/handshake.NoiseHandshakeState).MixKey&#45;&gt;(*github.com/go&#45;i2p/go&#45;i2p/lib/transport/noise/kdf.NoiseKDF).MixKey -->
<g id="edge16" class="edge">
<title>(*github.com/go&#45;i2p/go&#45;i2p/lib/transport/noise/handshake.NoiseHandshakeState).MixKey&#45;&gt;(*github.com/go&#45;i2p/go&#45;i2p/lib/transport/noise/kdf.NoiseKDF).MixKey</title>
<g id="a_edge16"><a xlink:title="at handshake.go:201: calling [(*github.com/go&#45;i2p/go&#45;i2p/lib/transport/noise/kdf.NoiseKDF).MixKey]">
<path fill="none" stroke="#8b4513" d="M126.8024,-849.9286C142.2483,-845.827 159.1133,-838.4101 169.1452,-825 239.538,-730.9022 159.1961,-402.5277 212.8942,-298 223.5559,-277.2461 231.3938,-273.0625 252.8942,-264 318.8239,-236.2105 342.478,-259.9977 413.1748,-249 442.5673,-244.4277 475.2133,-237.3126 500.7564,-231.2746"/>
<polygon fill="#8b4513" stroke="#8b4513" points="501.6182,-234.6673 510.5287,-228.9355 499.9887,-227.8596 501.6182,-234.6673"/>
</a>
</g>
</g>
<!-- (*github.com/go&#45;i2p/go&#45;i2p/lib/transport/noise/handshake.NoiseHandshakeState).WriteMessage -->
<g id="node15" class="node">
<title>(*github.com/go&#45;i2p/go&#45;i2p/lib/transport/noise/handshake.NoiseHandshakeState).WriteMessage</title>
<g id="a_node15"><a xlink:title="(*github.com/go&#45;i2p/go&#45;i2p/lib/transport/noise/handshake.NoiseHandshakeState).WriteMessage | defined in handshake.go:73&#10;at handshake.go:87: calling [(*github.com/go&#45;i2p/go&#45;i2p/lib/transport/noise/handshake.NoiseHandshakeState).updateHandshakeHash]&#10;at handshake.go:78: calling [(*github.com/flynn/noise.HandshakeState).WriteMessage]&#10;at handshake.go:80: calling [github.com/samber/oops.Errorf]&#10;at handshake.go:94: calling [github.com/samber/oops.Errorf]">
<path fill="#add8e6" stroke="#000000" stroke-width="1.5" d="M131.935,-812C131.935,-812 51.2376,-812 51.2376,-812 45.2376,-812 39.2376,-806 39.2376,-800 39.2376,-800 39.2376,-788 39.2376,-788 39.2376,-782 45.2376,-776 51.2376,-776 51.2376,-776 131.935,-776 131.935,-776 137.935,-776 143.935,-782 143.935,-788 143.935,-788 143.935,-800 143.935,-800 143.935,-806 137.935,-812 131.935,-812"/>
<text text-anchor="middle" x="91.5863" y="-789.8" font-family="Verdana" font-size="14.00" fill="#000000">WriteMessage</text>
</a>
</g>
</g>
<!-- (*github.com/go&#45;i2p/go&#45;i2p/lib/transport/noise/handshake.NoiseHandshakeState).WriteMessage&#45;&gt;github.com/samber/oops.Errorf -->
<g id="edge18" class="edge">
<title>(*github.com/go&#45;i2p/go&#45;i2p/lib/transport/noise/handshake.NoiseHandshakeState).WriteMessage&#45;&gt;github.com/samber/oops.Errorf</title>
<g id="a_edge18"><a xlink:title="at handshake.go:80: calling [github.com/samber/oops.Errorf]&#10;at handshake.go:94: calling [github.com/samber/oops.Errorf]">
<path fill="none" stroke="#8b4513" d="M144.1118,-782.8402C153.7827,-778.4823 162.8111,-772.4234 169.1452,-764 235.7796,-675.3865 150.5228,-358.664 212.8942,-267 230.5966,-240.9837 263.7077,-226.3715 290.0601,-218.4732"/>
<polygon fill="#8b4513" stroke="#8b4513" points="291.0886,-221.82 299.7827,-215.765 289.2102,-215.0767 291.0886,-221.82"/>
</a>
</g>
</g>
<!-- (*github.com/go&#45;i2p/go&#45;i2p/lib/transport/noise/handshake.NoiseHandshakeState).WriteMessage&#45;&gt;(*github.com/flynn/noise.HandshakeState).WriteMessage -->
<g id="edge17" class="edge">
<title>(*github.com/go&#45;i2p/go&#45;i2p/lib/transport/noise/handshake.NoiseHandshakeState).WriteMessage&#45;&gt;(*github.com/flynn/noise.HandshakeState).WriteMessage</title>
<g id="a_edge17"><a xlink:title="at handshake.go:78: calling [(*github.com/flynn/noise.HandshakeState).WriteMessage]">
<path fill="none" stroke="#8b4513" d="M144.0078,-781.2108C153.3339,-776.9862 162.255,-771.3931 169.1452,-764 255.3842,-671.4666 165.8862,-583.8107 252.8942,-492 257.0525,-487.6121 261.9568,-483.9085 267.2401,-480.7831"/>
<polygon fill="#8b4513" stroke="#8b4513" points="269.1385,-483.7423 276.4244,-476.0503 265.9319,-477.5199 269.1385,-483.7423"/>
</a>
</g>
</g>
<!-- (*github.com/go&#45;i2p/go&#45;i2p/lib/transport/noise/handshake.NoiseHandshakeState).WriteMessage&#45;&gt;(*github.com/go&#45;i2p/go&#45;i2p/lib/transport/noise/handshake.NoiseHandshakeState).updateHandshakeHash -->
<g id="edge14" class="edge">
<title>(*github.com/go&#45;i2p/go&#45;i2p/lib/transport/noise/handshake.NoiseHandshakeState).WriteMessage&#45;&gt;(*github.com/go&#45;i2p/go&#45;i2p/lib/transport/noise/handshake.NoiseHandshakeState).updateHandshakeHash</title>
<g id="a_edge14"><a xlink:title="at handshake.go:87: calling [(*github.com/go&#45;i2p/go&#45;i2p/lib/transport/noise/handshake.NoiseHandshakeState).updateHandshakeHash]">
<path fill="none" stroke="#000000" d="M138.531,-775.8437C184.0688,-758.2489 247.1351,-733.9348 252.8942,-732 253.6279,-731.7535 254.3661,-731.5072 255.1082,-731.2613"/>
<polygon fill="#000000" stroke="#000000" points="256.4926,-734.4924 264.9347,-728.0908 254.3431,-727.8305 256.4926,-734.4924"/>
</a>
</g>
</g>
<!-- (*github.com/go&#45;i2p/go&#45;i2p/lib/transport/noise/handshake.NoiseHandshakeState).ReadMessage -->
<g id="node16" class="node">
<title>(*github.com/go&#45;i2p/go&#45;i2p/lib/transport/noise/handshake.NoiseHandshakeState).ReadMessage</title>
<g id="a_node16"><a xlink:title="(*github.com/go&#45;i2p/go&#45;i2p/lib/transport/noise/handshake.NoiseHandshakeState).ReadMessage | defined in handshake.go:103&#10;at handshake.go:108: calling [(*github.com/flynn/noise.HandshakeState).ReadMessage]&#10;at handshake.go:117: calling [(*github.com/go&#45;i2p/go&#45;i2p/lib/transport/noise/handshake.NoiseHandshakeState).updateHandshakeHash]&#10;at handshake.go:110: calling [github.com/samber/oops.Errorf]">
<path fill="#add8e6" stroke="#000000" stroke-width="1.5" d="M130.33,-690C130.33,-690 52.8426,-690 52.8426,-690 46.8426,-690 40.8426,-684 40.8426,-678 40.8426,-678 40.8426,-666 40.8426,-666 40.8426,-660 46.8426,-654 52.8426,-654 52.8426,-654 130.33,-654 130.33,-654 136.33,-654 142.33,-660 142.33,-666 142.33,-666 142.33,-678 142.33,-678 142.33,-684 136.33,-690 130.33,-690"/>
<text text-anchor="middle" x="91.5863" y="-667.8" font-family="Verdana" font-size="14.00" fill="#000000">ReadMessage</text>
</a>
</g>
</g>
<!-- (*github.com/go&#45;i2p/go&#45;i2p/lib/transport/noise/handshake.NoiseHandshakeState).ReadMessage&#45;&gt;github.com/samber/oops.Errorf -->
<g id="edge8" class="edge">
<title>(*github.com/go&#45;i2p/go&#45;i2p/lib/transport/noise/handshake.NoiseHandshakeState).ReadMessage&#45;&gt;github.com/samber/oops.Errorf</title>
<g id="a_edge8"><a xlink:title="at handshake.go:110: calling [github.com/samber/oops.Errorf]">
<path fill="none" stroke="#8b4513" d="M142.3829,-661.4397C152.6577,-657.0423 162.3728,-650.8157 169.1452,-642 278.6328,-499.4787 95.309,-375.9175 212.8942,-240 231.6353,-218.337 263.7659,-211.2923 289.4873,-209.411"/>
<polygon fill="#8b4513" stroke="#8b4513" points="289.8883,-212.8955 299.702,-208.9028 289.5404,-205.9042 289.8883,-212.8955"/>
</a>
</g>
</g>
<!-- (*github.com/go&#45;i2p/go&#45;i2p/lib/transport/noise/handshake.NoiseHandshakeState).ReadMessage&#45;&gt;(*github.com/flynn/noise.HandshakeState).ReadMessage -->
<g id="edge4" class="edge">
<title>(*github.com/go&#45;i2p/go&#45;i2p/lib/transport/noise/handshake.NoiseHandshakeState).ReadMessage&#45;&gt;(*github.com/flynn/noise.HandshakeState).ReadMessage</title>
<g id="a_edge4"><a xlink:title="at handshake.go:108: calling [(*github.com/flynn/noise.HandshakeState).ReadMessage]">
<path fill="none" stroke="#8b4513" d="M142.673,-660.6855C152.6802,-656.3325 162.2091,-650.3148 169.1452,-642 235.5203,-562.4316 164.3955,-504.5678 212.8942,-413 224.8034,-390.5149 247.2381,-374.3845 269.2384,-363.2408"/>
<polygon fill="#8b4513" stroke="#8b4513" points="270.7687,-366.3886 278.2784,-358.9151 267.7472,-360.0743 270.7687,-366.3886"/>
</a>
</g>
</g>
<!-- (*github.com/go&#45;i2p/go&#45;i2p/lib/transport/noise/handshake.NoiseHandshakeState).ReadMessage&#45;&gt;(*github.com/go&#45;i2p/go&#45;i2p/lib/transport/noise/handshake.NoiseHandshakeState).updateHandshakeHash -->
<g id="edge5" class="edge">
<title>(*github.com/go&#45;i2p/go&#45;i2p/lib/transport/noise/handshake.NoiseHandshakeState).ReadMessage&#45;&gt;(*github.com/go&#45;i2p/go&#45;i2p/lib/transport/noise/handshake.NoiseHandshakeState).updateHandshakeHash</title>
<g id="a_edge5"><a xlink:title="at handshake.go:117: calling [(*github.com/go&#45;i2p/go&#45;i2p/lib/transport/noise/handshake.NoiseHandshakeState).updateHandshakeHash]">
<path fill="none" stroke="#000000" d="M142.5249,-680.152C171.5461,-684.7964 208.6938,-690.7413 242.1864,-696.1013"/>
<polygon fill="#000000" stroke="#000000" points="242.0228,-699.6195 252.4503,-697.7438 243.129,-692.7075 242.0228,-699.6195"/>
</a>
</g>
</g>
<!-- (*github.com/go&#45;i2p/go&#45;i2p/lib/transport/noise/handshake.NoiseHandshakeState).GenerateEphemeral -->
<g id="node17" class="node">
<title>(*github.com/go&#45;i2p/go&#45;i2p/lib/transport/noise/handshake.NoiseHandshakeState).GenerateEphemeral</title>
<g id="a_node17"><a xlink:title="(*github.com/go&#45;i2p/go&#45;i2p/lib/transport/noise/handshake.NoiseHandshakeState).GenerateEphemeral | defined in handshake.go:57&#10;at handshake.go:64: calling [(*github.com/flynn/noise.HandshakeState).LocalEphemeral]">
<path fill="#add8e6" stroke="#000000" stroke-width="1.5" d="M147.2408,-751C147.2408,-751 35.9318,-751 35.9318,-751 29.9318,-751 23.9318,-745 23.9318,-739 23.9318,-739 23.9318,-727 23.9318,-727 23.9318,-721 29.9318,-715 35.9318,-715 35.9318,-715 147.2408,-715 147.2408,-715 153.2408,-715 159.2408,-721 159.2408,-727 159.2408,-727 159.2408,-739 159.2408,-739 159.2408,-745 153.2408,-751 147.2408,-751"/>
<text text-anchor="middle" x="91.5863" y="-728.8" font-family="Verdana" font-size="14.00" fill="#000000">GenerateEphemeral</text>
</a>
</g>
</g>
<!-- (*github.com/go&#45;i2p/go&#45;i2p/lib/transport/noise/handshake.NoiseHandshakeState).GenerateEphemeral&#45;&gt;(*github.com/flynn/noise.HandshakeState).LocalEphemeral -->
<g id="edge6" class="edge">
<title>(*github.com/go&#45;i2p/go&#45;i2p/lib/transport/noise/handshake.NoiseHandshakeState).GenerateEphemeral&#45;&gt;(*github.com/flynn/noise.HandshakeState).LocalEphemeral</title>
<g id="a_edge6"><a xlink:title="at handshake.go:64: calling [(*github.com/flynn/noise.HandshakeState).LocalEphemeral]">
<path fill="none" stroke="#8b4513" d="M154.185,-714.9485C159.7099,-711.61 164.8318,-707.6634 169.1452,-703 254.1693,-611.0767 167.6081,-525.6803 252.8942,-434 255.6586,-431.0283 258.7485,-428.3343 262.0573,-425.8929"/>
<polygon fill="#8b4513" stroke="#8b4513" points="264.1698,-428.6951 270.6724,-420.3306 260.3729,-422.8144 264.1698,-428.6951"/>
</a>
</g>
</g>
</g>
</svg>
