<?xml version="1.0" encoding="UTF-8" standalone="no"?>
<!DOCTYPE svg PUBLIC "-//W3C//DTD SVG 1.1//EN"
 "http://www.w3.org/Graphics/SVG/1.1/DTD/svg11.dtd">
<!-- Generated by graphviz version 2.40.1 (20161225.0304)
 -->
<!-- Title: gocallvis Pages: 1 -->
<svg width="342pt" height="1242pt"
 viewBox="0.00 0.00 342.39 1242.00" xmlns="http://www.w3.org/2000/svg" xmlns:xlink="http://www.w3.org/1999/xlink">
<g id="graph0" class="graph" transform="scale(1 1) rotate(0) translate(0 1242)">
<title>gocallvis</title>
<polygon fill="#d3d3d3" stroke="transparent" points="0,0 0,-1242 342.3928,-1242 342.3928,0 0,0"/>
<g id="clust1" class="cluster">
<title>cluster_focus</title>
<polygon fill="#e6ecfa" stroke="#000000" stroke-width=".5" points="8,-8 8,-1234 334.3928,-1234 334.3928,-8 8,-8"/>
<text text-anchor="middle" x="171.1964" y="-1213.8" font-family="Arial" font-size="18.00" fill="#000000">reseed</text>
</g>
<g id="clust11" class="cluster">
<title>cluster_github.com/sirupsen/logrus</title>
<g id="a_clust11"><a xlink:href="/?f=github.com/sirupsen/logrus" xlink:title="package: github.com/sirupsen/logrus">
<polygon fill="#ffffe0" stroke="#000000" stroke-width=".8" points="210.7406,-927 210.7406,-1109 304.8556,-1109 304.8556,-927 210.7406,-927"/>
<text text-anchor="middle" x="257.7981" y="-1090.6" font-family="Tahoma bold" font-size="16.00" fill="#000000">logrus</text>
</a>
</g>
</g>
<g id="clust12" class="cluster">
<title>cluster_*github.com/sirupsen/logrus.Logger</title>
<g id="a_clust12"><a xlink:href="/?f=github.com/sirupsen/logrus" xlink:title="type: *github.com/sirupsen/logrus.Logger">
<path fill="#eed8ae" stroke="#000000" stroke-width=".5" d="M230.7406,-935C230.7406,-935 284.8556,-935 284.8556,-935 290.8556,-935 296.8556,-941 296.8556,-947 296.8556,-947 296.8556,-1062 296.8556,-1062 296.8556,-1068 290.8556,-1074 284.8556,-1074 284.8556,-1074 230.7406,-1074 230.7406,-1074 224.7406,-1074 218.7406,-1068 218.7406,-1062 218.7406,-1062 218.7406,-947 218.7406,-947 218.7406,-941 224.7406,-935 230.7406,-935"/>
<text text-anchor="middle" x="257.7981" y="-943.5" font-family="Tahoma bold" font-size="15.00" fill="#222222">(*Logger)</text>
</a>
</g>
</g>
<g id="clust10" class="cluster">
<title>cluster_github.com/samber/oops</title>
<g id="a_clust10"><a xlink:href="/?f=github.com/samber/oops" xlink:title="package: github.com/samber/oops">
<polygon fill="#ffffe0" stroke="#000000" stroke-width=".8" points="220.7006,-840 220.7006,-919 294.8956,-919 294.8956,-840 220.7006,-840"/>
<text text-anchor="middle" x="257.7981" y="-900.6" font-family="Tahoma bold" font-size="16.00" fill="#000000">oops</text>
</a>
</g>
</g>
<g id="clust8" class="cluster">
<title>cluster_github.com/go&#45;i2p/logger</title>
<g id="a_clust8"><a xlink:href="/?f=github.com/go-i2p/logger" xlink:title="package: github.com/go&#45;i2p/logger">
<polygon fill="#ffffe0" stroke="#000000" stroke-width=".8" points="189.2034,-250 189.2034,-659 326.3928,-659 326.3928,-250 189.2034,-250"/>
<text text-anchor="middle" x="257.7981" y="-640.6" font-family="Tahoma bold" font-size="16.00" fill="#000000">logger</text>
</a>
</g>
</g>
<g id="clust9" class="cluster">
<title>cluster_*github.com/go&#45;i2p/logger.Logger</title>
<g id="a_clust9"><a xlink:href="/?f=github.com/go-i2p/logger" xlink:title="type: *github.com/go&#45;i2p/logger.Logger">
<path fill="#eed8ae" stroke="#000000" stroke-width=".5" d="M218.6887,-302C218.6887,-302 296.9075,-302 296.9075,-302 302.9075,-302 308.9075,-308 308.9075,-314 308.9075,-314 308.9075,-612 308.9075,-612 308.9075,-618 302.9075,-624 296.9075,-624 296.9075,-624 218.6887,-624 218.6887,-624 212.6887,-624 206.6887,-618 206.6887,-612 206.6887,-612 206.6887,-314 206.6887,-314 206.6887,-308 212.6887,-302 218.6887,-302"/>
<text text-anchor="middle" x="257.7981" y="-310.5" font-family="Tahoma bold" font-size="15.00" fill="#222222">(*Logger)</text>
</a>
</g>
</g>
<g id="clust6" class="cluster">
<title>cluster_github.com/go&#45;i2p/go&#45;i2p/lib/su3</title>
<g id="a_clust6"><a xlink:href="/?f=github.com/go-i2p/go-i2p/lib/su3" xlink:title="package: github.com/go&#45;i2p/go&#45;i2p/lib/su3">
<polygon fill="#ffffe0" stroke="#000000" stroke-width=".8" points="202.9713,-16 202.9713,-242 312.6249,-242 312.6249,-16 202.9713,-16"/>
<text text-anchor="middle" x="257.7981" y="-223.6" font-family="Tahoma bold" font-size="16.00" fill="#000000">su3</text>
</a>
</g>
</g>
<g id="clust7" class="cluster">
<title>cluster_*github.com/go&#45;i2p/go&#45;i2p/lib/su3.SU3</title>
<g id="a_clust7"><a xlink:href="/?f=github.com/go-i2p/go-i2p/lib/su3" xlink:title="type: *github.com/go&#45;i2p/go&#45;i2p/lib/su3.SU3">
<path fill="#eed8ae" stroke="#000000" stroke-width=".5" d="M222.9713,-68C222.9713,-68 292.6249,-68 292.6249,-68 298.6249,-68 304.6249,-74 304.6249,-80 304.6249,-80 304.6249,-195 304.6249,-195 304.6249,-201 298.6249,-207 292.6249,-207 292.6249,-207 222.9713,-207 222.9713,-207 216.9713,-207 210.9713,-201 210.9713,-195 210.9713,-195 210.9713,-80 210.9713,-80 210.9713,-74 216.9713,-68 222.9713,-68"/>
<text text-anchor="middle" x="257.7981" y="-76.5" font-family="Tahoma bold" font-size="15.00" fill="#222222">(*SU3)</text>
</a>
</g>
</g>
<g id="clust5" class="cluster">
<title>cluster_github.com/go&#45;i2p/go&#45;i2p/lib/netdb/reseed.Reseed</title>
<g id="a_clust5"><a xlink:title="type: github.com/go&#45;i2p/go&#45;i2p/lib/netdb/reseed.Reseed">
<path fill="#b0c4de" stroke="#000000" stroke-width=".5" d="M28,-515C28,-515 120.2034,-515 120.2034,-515 126.2034,-515 132.2034,-521 132.2034,-527 132.2034,-527 132.2034,-581 132.2034,-581 132.2034,-587 126.2034,-593 120.2034,-593 120.2034,-593 28,-593 28,-593 22,-593 16,-587 16,-581 16,-581 16,-527 16,-527 16,-521 22,-515 28,-515"/>
<text text-anchor="middle" x="74.1017" y="-523.5" font-family="Arial" font-size="15.00" fill="#222222">(Reseed)</text>
</a>
</g>
</g>
<g id="clust4" class="cluster">
<title>cluster_github.com/go&#45;i2p/go&#45;i2p/lib/common/router_info</title>
<g id="a_clust4"><a xlink:href="/?f=github.com/go-i2p/go-i2p/lib/common/router_info" xlink:title="package: github.com/go&#45;i2p/go&#45;i2p/lib/common/router_info">
<polygon fill="#ffffe0" stroke="#000000" stroke-width=".8" points="192.7034,-1117 192.7034,-1196 322.8928,-1196 322.8928,-1117 192.7034,-1117"/>
<text text-anchor="middle" x="257.7981" y="-1177.6" font-family="Tahoma bold" font-size="16.00" fill="#000000">router_info</text>
</a>
</g>
</g>
<g id="clust2" class="cluster">
<title>cluster_github.com/eyedeekay/go&#45;unzip/pkg/unzip</title>
<g id="a_clust2"><a xlink:href="/?f=github.com/eyedeekay/go-unzip/pkg/unzip" xlink:title="package: github.com/eyedeekay/go&#45;unzip/pkg/unzip">
<polygon fill="#ffffe0" stroke="#000000" stroke-width=".8" points="209.5863,-667 209.5863,-832 306.0099,-832 306.0099,-667 209.5863,-667"/>
<text text-anchor="middle" x="257.7981" y="-813.6" font-family="Tahoma bold" font-size="16.00" fill="#000000">unzip</text>
</a>
</g>
</g>
<g id="clust3" class="cluster">
<title>cluster_github.com/eyedeekay/go&#45;unzip/pkg/unzip.Unzip</title>
<g id="a_clust3"><a xlink:href="/?f=github.com/eyedeekay/go-unzip/pkg/unzip" xlink:title="type: github.com/eyedeekay/go&#45;unzip/pkg/unzip.Unzip">
<path fill="#eed8ae" stroke="#000000" stroke-width=".5" d="M229.5863,-719C229.5863,-719 286.0099,-719 286.0099,-719 292.0099,-719 298.0099,-725 298.0099,-731 298.0099,-731 298.0099,-785 298.0099,-785 298.0099,-791 292.0099,-797 286.0099,-797 286.0099,-797 229.5863,-797 229.5863,-797 223.5863,-797 217.5863,-791 217.5863,-785 217.5863,-785 217.5863,-731 217.5863,-731 217.5863,-725 223.5863,-719 229.5863,-719"/>
<text text-anchor="middle" x="257.7981" y="-727.5" font-family="Tahoma bold" font-size="15.00" fill="#222222">(Unzip)</text>
</a>
</g>
</g>
<!-- github.com/go&#45;i2p/go&#45;i2p/lib/netdb/reseed.init -->
<g id="node1" class="node">
<title>github.com/go&#45;i2p/go&#45;i2p/lib/netdb/reseed.init</title>
<g id="a_node1"><a xlink:title="github.com/go&#45;i2p/go&#45;i2p/lib/netdb/reseed.init | defined in .:0&#10;at reseed.go:21: calling [github.com/go&#45;i2p/logger.GetGoI2PLogger]">
<path fill="#add8e6" stroke="#000000" stroke-width=".5" d="M89.1017,-294C89.1017,-294 59.1017,-294 59.1017,-294 53.1017,-294 47.1017,-288 47.1017,-282 47.1017,-282 47.1017,-270 47.1017,-270 47.1017,-264 53.1017,-258 59.1017,-258 59.1017,-258 89.1017,-258 89.1017,-258 95.1017,-258 101.1017,-264 101.1017,-270 101.1017,-270 101.1017,-282 101.1017,-282 101.1017,-288 95.1017,-294 89.1017,-294"/>
<text text-anchor="middle" x="74.1017" y="-271.8" font-family="Verdana" font-size="14.00" fill="#000000">init</text>
</a>
</g>
</g>
<!-- github.com/go&#45;i2p/logger.GetGoI2PLogger -->
<g id="node9" class="node">
<title>github.com/go&#45;i2p/logger.GetGoI2PLogger</title>
<g id="a_node9"><a xlink:title="github.com/go&#45;i2p/logger.GetGoI2PLogger | defined in log.go:120">
<path fill="#ffe4b5" stroke="#000000" stroke-width="1.5" d="M306.4876,-294C306.4876,-294 209.1086,-294 209.1086,-294 203.1086,-294 197.1086,-288 197.1086,-282 197.1086,-282 197.1086,-270 197.1086,-270 197.1086,-264 203.1086,-258 209.1086,-258 209.1086,-258 306.4876,-258 306.4876,-258 312.4876,-258 318.4876,-264 318.4876,-270 318.4876,-270 318.4876,-282 318.4876,-282 318.4876,-288 312.4876,-294 306.4876,-294"/>
<text text-anchor="middle" x="257.7981" y="-271.8" font-family="Verdana" font-size="14.00" fill="#000000">GetGoI2PLogger</text>
</a>
</g>
</g>
<!-- github.com/go&#45;i2p/go&#45;i2p/lib/netdb/reseed.init&#45;&gt;github.com/go&#45;i2p/logger.GetGoI2PLogger -->
<g id="edge10" class="edge">
<title>github.com/go&#45;i2p/go&#45;i2p/lib/netdb/reseed.init&#45;&gt;github.com/go&#45;i2p/logger.GetGoI2PLogger</title>
<g id="a_edge10"><a xlink:title="at reseed.go:21: calling [github.com/go&#45;i2p/logger.GetGoI2PLogger]">
<path fill="none" stroke="#8b4513" d="M101.2067,-276C123.8024,-276 157.0344,-276 187.0776,-276"/>
<polygon fill="#8b4513" stroke="#8b4513" points="187.124,-279.5001 197.124,-276 187.124,-272.5001 187.124,-279.5001"/>
</a>
</g>
</g>
<!-- github.com/eyedeekay/go&#45;unzip/pkg/unzip.New -->
<g id="node2" class="node">
<title>github.com/eyedeekay/go&#45;unzip/pkg/unzip.New</title>
<g id="a_node2"><a xlink:title="github.com/eyedeekay/go&#45;unzip/pkg/unzip.New | defined in unzip.go:18">
<path fill="#ffe4b5" stroke="#000000" stroke-width="1.5" d="M272.7981,-711C272.7981,-711 242.7981,-711 242.7981,-711 236.7981,-711 230.7981,-705 230.7981,-699 230.7981,-699 230.7981,-687 230.7981,-687 230.7981,-681 236.7981,-675 242.7981,-675 242.7981,-675 272.7981,-675 272.7981,-675 278.7981,-675 284.7981,-681 284.7981,-687 284.7981,-687 284.7981,-699 284.7981,-699 284.7981,-705 278.7981,-711 272.7981,-711"/>
<text text-anchor="middle" x="257.7981" y="-688.8" font-family="Verdana" font-size="14.00" fill="#000000">New</text>
</a>
</g>
</g>
<!-- (github.com/eyedeekay/go&#45;unzip/pkg/unzip.Unzip).Extract -->
<g id="node3" class="node">
<title>(github.com/eyedeekay/go&#45;unzip/pkg/unzip.Unzip).Extract</title>
<g id="a_node3"><a xlink:title="(github.com/eyedeekay/go&#45;unzip/pkg/unzip.Unzip).Extract | defined in unzip.go:22">
<path fill="#ffe4b5" stroke="#000000" stroke-width="1.5" d="M278.2231,-789C278.2231,-789 237.3731,-789 237.3731,-789 231.3731,-789 225.3731,-783 225.3731,-777 225.3731,-777 225.3731,-765 225.3731,-765 225.3731,-759 231.3731,-753 237.3731,-753 237.3731,-753 278.2231,-753 278.2231,-753 284.2231,-753 290.2231,-759 290.2231,-765 290.2231,-765 290.2231,-777 290.2231,-777 290.2231,-783 284.2231,-789 278.2231,-789"/>
<text text-anchor="middle" x="257.7981" y="-766.8" font-family="Verdana" font-size="14.00" fill="#000000">Extract</text>
</a>
</g>
</g>
<!-- github.com/go&#45;i2p/go&#45;i2p/lib/common/router_info.ReadRouterInfo -->
<g id="node4" class="node">
<title>github.com/go&#45;i2p/go&#45;i2p/lib/common/router_info.ReadRouterInfo</title>
<g id="a_node4"><a xlink:title="github.com/go&#45;i2p/go&#45;i2p/lib/common/router_info.ReadRouterInfo | defined in router_info.go:233">
<path fill="#ffe4b5" stroke="#000000" stroke-width="1.5" d="M302.9877,-1161C302.9877,-1161 212.6085,-1161 212.6085,-1161 206.6085,-1161 200.6085,-1155 200.6085,-1149 200.6085,-1149 200.6085,-1137 200.6085,-1137 200.6085,-1131 206.6085,-1125 212.6085,-1125 212.6085,-1125 302.9877,-1125 302.9877,-1125 308.9877,-1125 314.9877,-1131 314.9877,-1137 314.9877,-1137 314.9877,-1149 314.9877,-1149 314.9877,-1155 308.9877,-1161 302.9877,-1161"/>
<text text-anchor="middle" x="257.7981" y="-1138.8" font-family="Verdana" font-size="14.00" fill="#000000">ReadRouterInfo</text>
</a>
</g>
</g>
<!-- (github.com/go&#45;i2p/go&#45;i2p/lib/netdb/reseed.Reseed).SingleReseed -->
<g id="node5" class="node">
<title>(github.com/go&#45;i2p/go&#45;i2p/lib/netdb/reseed.Reseed).SingleReseed</title>
<g id="a_node5"><a xlink:title="(github.com/go&#45;i2p/go&#45;i2p/lib/netdb/reseed.Reseed).SingleReseed | defined in reseed.go:31&#10;at reseed.go:72: calling [(*github.com/go&#45;i2p/go&#45;i2p/lib/su3.SU3).Content]&#10;at reseed.go:108: calling [github.com/go&#45;i2p/go&#45;i2p/lib/common/router_info.ReadRouterInfo]&#10;at reseed.go:32: calling [(*github.com/sirupsen/logrus.Logger).Debug]&#10;at reseed.go:57: calling [(*github.com/sirupsen/logrus.Logger).Debug]&#10;at reseed.go:68: calling [(*github.com/sirupsen/logrus.Logger).Debug]&#10;at reseed.go:99: calling [(*github.com/sirupsen/logrus.Logger).Debug]&#10;at reseed.go:119: calling [(*github.com/sirupsen/logrus.Logger).Debug]&#10;at reseed.go:42: calling [(*github.com/go&#45;i2p/logger.Logger).Error]&#10;at reseed.go:53: calling [(*github.com/go&#45;i2p/logger.Logger).Error]&#10;at reseed.go:61: calling [(*github.com/go&#45;i2p/logger.Logger).Error]&#10;at reseed.go:123: calling [(*github.com/go&#45;i2p/logger.Logger).Error]&#10;at reseed.go:76: calling [(*github.com/go&#45;i2p/logger.Logger).Error]&#10;at reseed.go:85: calling [(*github.com/go&#45;i2p/logger.Logger).Error]&#10;at reseed.go:91: calling [(*github.com/go&#45;i2p/logger.Logger).Error]&#10;at reseed.go:95: calling [(*github.com/go&#45;i2p/logger.Logger).Error]&#10;at reseed.go:59: calling [github.com/go&#45;i2p/go&#45;i2p/lib/su3.Read]&#10;at reseed.go:74: calling [(*github.com/go&#45;i2p/go&#45;i2p/lib/su3.SU3).Signature]&#10;at reseed.go:89: calling [(github.com/eyedeekay/go&#45;unzip/pkg/unzip.Unzip).Extract]&#10;at reseed.go:80: calling [(*github.com/go&#45;i2p/logger.Logger).Warn]&#10;at reseed.go:105: calling [(*github.com/go&#45;i2p/logger.Logger).Warn]&#10;at reseed.go:110: calling [(*github.com/go&#45;i2p/logger.Logger).Warn]&#10;at reseed.go:117: calling [(*github.com/go&#45;i2p/logger.Logger).Warn]&#10;at reseed.go:89: calling [github.com/eyedeekay/go&#45;unzip/pkg/unzip.New]&#10;at reseed.go:32: calling [(*github.com/go&#45;i2p/logger.Logger).WithField]&#10;at reseed.go:99: calling [(*github.com/go&#45;i2p/logger.Logger).WithField]&#10;at reseed.go:105: calling [(*github.com/go&#45;i2p/logger.Logger).WithField]&#10;at reseed.go:110: calling [(*github.com/go&#45;i2p/logger.Logger).WithField]&#10;at reseed.go:119: calling [(*github.com/go&#45;i2p/logger.Logger).WithField]&#10;at reseed.go:65: calling [(*github.com/go&#45;i2p/logger.Logger).WithFields]&#10;at reseed.go:124: calling [github.com/samber/oops.Errorf]&#10;at reseed.go:96: calling [github.com/samber/oops.Errorf]&#10;at reseed.go:79: calling [(*github.com/sirupsen/logrus.Logger).Println]&#10;at reseed.go:42: calling [(*github.com/go&#45;i2p/logger.Logger).WithError]&#10;at reseed.go:53: calling [(*github.com/go&#45;i2p/logger.Logger).WithError]&#10;at reseed.go:61: calling [(*github.com/go&#45;i2p/logger.Logger).WithError]&#10;at reseed.go:76: calling [(*github.com/go&#45;i2p/logger.Logger).WithError]&#10;at reseed.go:85: calling [(*github.com/go&#45;i2p/logger.Logger).WithError]&#10;at reseed.go:91: calling [(*github.com/go&#45;i2p/logger.Logger).WithError]&#10;at reseed.go:105: calling [(*github.com/go&#45;i2p/logger.Logger).WithError]&#10;at reseed.go:110: calling [(*github.com/go&#45;i2p/logger.Logger).WithError]&#10;at reseed.go:117: calling [(*github.com/go&#45;i2p/logger.Logger).WithError]">
<path fill="#add8e6" stroke="#000000" stroke-width="1.5" d="M112.3053,-585C112.3053,-585 35.8981,-585 35.8981,-585 29.8981,-585 23.8981,-579 23.8981,-573 23.8981,-573 23.8981,-561 23.8981,-561 23.8981,-555 29.8981,-549 35.8981,-549 35.8981,-549 112.3053,-549 112.3053,-549 118.3053,-549 124.3053,-555 124.3053,-561 124.3053,-561 124.3053,-573 124.3053,-573 124.3053,-579 118.3053,-585 112.3053,-585"/>
<text text-anchor="middle" x="74.1017" y="-562.8" font-family="Verdana" font-size="14.00" fill="#000000">SingleReseed</text>
</a>
</g>
</g>
<!-- (github.com/go&#45;i2p/go&#45;i2p/lib/netdb/reseed.Reseed).SingleReseed&#45;&gt;github.com/eyedeekay/go&#45;unzip/pkg/unzip.New -->
<g id="edge9" class="edge">
<title>(github.com/go&#45;i2p/go&#45;i2p/lib/netdb/reseed.Reseed).SingleReseed&#45;&gt;github.com/eyedeekay/go&#45;unzip/pkg/unzip.New</title>
<g id="a_edge9"><a xlink:title="at reseed.go:89: calling [github.com/eyedeekay/go&#45;unzip/pkg/unzip.New]">
<path fill="none" stroke="#8b4513" d="M100.4209,-585.0527C132.6134,-607.134 187.216,-644.5867 222.8908,-669.0566"/>
<polygon fill="#8b4513" stroke="#8b4513" points="221.3014,-672.2106 231.5277,-674.9808 225.2609,-666.438 221.3014,-672.2106"/>
</a>
</g>
</g>
<!-- (github.com/go&#45;i2p/go&#45;i2p/lib/netdb/reseed.Reseed).SingleReseed&#45;&gt;(github.com/eyedeekay/go&#45;unzip/pkg/unzip.Unzip).Extract -->
<g id="edge7" class="edge">
<title>(github.com/go&#45;i2p/go&#45;i2p/lib/netdb/reseed.Reseed).SingleReseed&#45;&gt;(github.com/eyedeekay/go&#45;unzip/pkg/unzip.Unzip).Extract</title>
<g id="a_edge7"><a xlink:title="at reseed.go:89: calling [(github.com/eyedeekay/go&#45;unzip/pkg/unzip.Unzip).Extract]">
<path fill="none" stroke="#8b4513" d="M80.664,-585.1951C94.7563,-621.7155 131.4015,-704.2676 189.2034,-749 196.9844,-755.0217 206.4612,-759.42 215.8566,-762.624"/>
<polygon fill="#8b4513" stroke="#8b4513" points="214.9588,-766.0089 225.5436,-765.5485 216.982,-759.3076 214.9588,-766.0089"/>
</a>
</g>
</g>
<!-- (github.com/go&#45;i2p/go&#45;i2p/lib/netdb/reseed.Reseed).SingleReseed&#45;&gt;github.com/go&#45;i2p/go&#45;i2p/lib/common/router_info.ReadRouterInfo -->
<g id="edge2" class="edge">
<title>(github.com/go&#45;i2p/go&#45;i2p/lib/netdb/reseed.Reseed).SingleReseed&#45;&gt;github.com/go&#45;i2p/go&#45;i2p/lib/common/router_info.ReadRouterInfo</title>
<g id="a_edge2"><a xlink:title="at reseed.go:108: calling [github.com/go&#45;i2p/go&#45;i2p/lib/common/router_info.ReadRouterInfo]">
<path fill="none" stroke="#8b4513" d="M76.6054,-585.2128C87.9601,-666.0957 136.3556,-992.6229 189.2034,-1080 197.9899,-1094.5274 211.1083,-1107.7361 223.5269,-1118.264"/>
<polygon fill="#8b4513" stroke="#8b4513" points="221.5692,-1121.1834 231.5341,-1124.7822 225.9884,-1115.7547 221.5692,-1121.1834"/>
</a>
</g>
</g>
<!-- github.com/go&#45;i2p/go&#45;i2p/lib/su3.Read -->
<g id="node6" class="node">
<title>github.com/go&#45;i2p/go&#45;i2p/lib/su3.Read</title>
<g id="a_node6"><a xlink:title="github.com/go&#45;i2p/go&#45;i2p/lib/su3.Read | defined in su3.go:208">
<path fill="#ffe4b5" stroke="#000000" stroke-width="1.5" d="M272.7981,-60C272.7981,-60 242.7981,-60 242.7981,-60 236.7981,-60 230.7981,-54 230.7981,-48 230.7981,-48 230.7981,-36 230.7981,-36 230.7981,-30 236.7981,-24 242.7981,-24 242.7981,-24 272.7981,-24 272.7981,-24 278.7981,-24 284.7981,-30 284.7981,-36 284.7981,-36 284.7981,-48 284.7981,-48 284.7981,-54 278.7981,-60 272.7981,-60"/>
<text text-anchor="middle" x="257.7981" y="-37.8" font-family="Verdana" font-size="14.00" fill="#000000">Read</text>
</a>
</g>
</g>
<!-- (github.com/go&#45;i2p/go&#45;i2p/lib/netdb/reseed.Reseed).SingleReseed&#45;&gt;github.com/go&#45;i2p/go&#45;i2p/lib/su3.Read -->
<g id="edge5" class="edge">
<title>(github.com/go&#45;i2p/go&#45;i2p/lib/netdb/reseed.Reseed).SingleReseed&#45;&gt;github.com/go&#45;i2p/go&#45;i2p/lib/su3.Read</title>
<g id="a_edge5"><a xlink:title="at reseed.go:59: calling [github.com/go&#45;i2p/go&#45;i2p/lib/su3.Read]">
<path fill="none" stroke="#8b4513" d="M124.3063,-552.5798C127.2619,-550.3994 129.9451,-547.8894 132.2034,-545 165.3444,-502.5961 154.9794,-105.5348 189.2034,-64 197.0942,-54.4236 209.1723,-48.9656 221.0066,-45.8721"/>
<polygon fill="#8b4513" stroke="#8b4513" points="221.7395,-49.2947 230.7929,-43.7913 220.2836,-42.4477 221.7395,-49.2947"/>
</a>
</g>
</g>
<!-- (*github.com/go&#45;i2p/go&#45;i2p/lib/su3.SU3).Content -->
<g id="node7" class="node">
<title>(*github.com/go&#45;i2p/go&#45;i2p/lib/su3.SU3).Content</title>
<g id="a_node7"><a xlink:title="(*github.com/go&#45;i2p/go&#45;i2p/lib/su3.SU3).Content | defined in su3.go:197">
<path fill="#ffe4b5" stroke="#000000" stroke-width="1.5" d="M280.1313,-138C280.1313,-138 235.4649,-138 235.4649,-138 229.4649,-138 223.4649,-132 223.4649,-126 223.4649,-126 223.4649,-114 223.4649,-114 223.4649,-108 229.4649,-102 235.4649,-102 235.4649,-102 280.1313,-102 280.1313,-102 286.1313,-102 292.1313,-108 292.1313,-114 292.1313,-114 292.1313,-126 292.1313,-126 292.1313,-132 286.1313,-138 280.1313,-138"/>
<text text-anchor="middle" x="257.7981" y="-115.8" font-family="Verdana" font-size="14.00" fill="#000000">Content</text>
</a>
</g>
</g>
<!-- (github.com/go&#45;i2p/go&#45;i2p/lib/netdb/reseed.Reseed).SingleReseed&#45;&gt;(*github.com/go&#45;i2p/go&#45;i2p/lib/su3.SU3).Content -->
<g id="edge1" class="edge">
<title>(github.com/go&#45;i2p/go&#45;i2p/lib/netdb/reseed.Reseed).SingleReseed&#45;&gt;(*github.com/go&#45;i2p/go&#45;i2p/lib/su3.SU3).Content</title>
<g id="a_edge1"><a xlink:title="at reseed.go:72: calling [(*github.com/go&#45;i2p/go&#45;i2p/lib/su3.SU3).Content]">
<path fill="none" stroke="#8b4513" d="M124.2229,-552.5138C127.1977,-550.3487 129.9082,-547.8602 132.2034,-545 187.5727,-476.0025 136.0167,-221.6937 189.2034,-151 195.4496,-142.6978 204.4315,-136.5625 213.8477,-132.0488"/>
<polygon fill="#8b4513" stroke="#8b4513" points="215.4675,-135.1643 223.3233,-128.0555 212.749,-128.7138 215.4675,-135.1643"/>
</a>
</g>
</g>
<!-- (*github.com/go&#45;i2p/go&#45;i2p/lib/su3.SU3).Signature -->
<g id="node8" class="node">
<title>(*github.com/go&#45;i2p/go&#45;i2p/lib/su3.SU3).Signature</title>
<g id="a_node8"><a xlink:title="(*github.com/go&#45;i2p/go&#45;i2p/lib/su3.SU3).Signature | defined in su3.go:203">
<path fill="#ffe4b5" stroke="#000000" stroke-width="1.5" d="M284.4525,-199C284.4525,-199 231.1437,-199 231.1437,-199 225.1437,-199 219.1437,-193 219.1437,-187 219.1437,-187 219.1437,-175 219.1437,-175 219.1437,-169 225.1437,-163 231.1437,-163 231.1437,-163 284.4525,-163 284.4525,-163 290.4525,-163 296.4525,-169 296.4525,-175 296.4525,-175 296.4525,-187 296.4525,-187 296.4525,-193 290.4525,-199 284.4525,-199"/>
<text text-anchor="middle" x="257.7981" y="-176.8" font-family="Verdana" font-size="14.00" fill="#000000">Signature</text>
</a>
</g>
</g>
<!-- (github.com/go&#45;i2p/go&#45;i2p/lib/netdb/reseed.Reseed).SingleReseed&#45;&gt;(*github.com/go&#45;i2p/go&#45;i2p/lib/su3.SU3).Signature -->
<g id="edge6" class="edge">
<title>(github.com/go&#45;i2p/go&#45;i2p/lib/netdb/reseed.Reseed).SingleReseed&#45;&gt;(*github.com/go&#45;i2p/go&#45;i2p/lib/su3.SU3).Signature</title>
<g id="a_edge6"><a xlink:title="at reseed.go:74: calling [(*github.com/go&#45;i2p/go&#45;i2p/lib/su3.SU3).Signature]">
<path fill="none" stroke="#8b4513" d="M124.3485,-552.2102C127.2526,-550.1164 129.9159,-547.727 132.2034,-545 175.9556,-492.8434 156.1169,-303.4966 189.2034,-244 197.3904,-229.2781 210.2739,-216.105 222.6756,-205.6582"/>
<polygon fill="#8b4513" stroke="#8b4513" points="225.1061,-208.1948 230.7015,-199.198 220.7169,-202.7418 225.1061,-208.1948"/>
</a>
</g>
</g>
<!-- (*github.com/go&#45;i2p/logger.Logger).WithField -->
<g id="node10" class="node">
<title>(*github.com/go&#45;i2p/logger.Logger).WithField</title>
<g id="a_node10"><a xlink:title="(*github.com/go&#45;i2p/logger.Logger).WithField | defined in log.go:54">
<path fill="#ffe4b5" stroke="#000000" stroke-width="1.5" d="M286.0726,-616C286.0726,-616 229.5236,-616 229.5236,-616 223.5236,-616 217.5236,-610 217.5236,-604 217.5236,-604 217.5236,-592 217.5236,-592 217.5236,-586 223.5236,-580 229.5236,-580 229.5236,-580 286.0726,-580 286.0726,-580 292.0726,-580 298.0726,-586 298.0726,-592 298.0726,-592 298.0726,-604 298.0726,-604 298.0726,-610 292.0726,-616 286.0726,-616"/>
<text text-anchor="middle" x="257.7981" y="-593.8" font-family="Verdana" font-size="14.00" fill="#000000">WithField</text>
</a>
</g>
</g>
<!-- (github.com/go&#45;i2p/go&#45;i2p/lib/netdb/reseed.Reseed).SingleReseed&#45;&gt;(*github.com/go&#45;i2p/logger.Logger).WithField -->
<g id="edge11" class="edge">
<title>(github.com/go&#45;i2p/go&#45;i2p/lib/netdb/reseed.Reseed).SingleReseed&#45;&gt;(*github.com/go&#45;i2p/logger.Logger).WithField</title>
<g id="a_edge11"><a xlink:title="at reseed.go:32: calling [(*github.com/go&#45;i2p/logger.Logger).WithField]&#10;at reseed.go:99: calling [(*github.com/go&#45;i2p/logger.Logger).WithField]&#10;at reseed.go:105: calling [(*github.com/go&#45;i2p/logger.Logger).WithField]&#10;at reseed.go:110: calling [(*github.com/go&#45;i2p/logger.Logger).WithField]&#10;at reseed.go:119: calling [(*github.com/go&#45;i2p/logger.Logger).WithField]">
<path fill="none" stroke="#8b4513" d="M124.2975,-575.4709C150.0871,-579.823 181.435,-585.1132 207.2718,-589.4733"/>
<polygon fill="#8b4513" stroke="#8b4513" points="206.8005,-592.9432 217.2435,-591.1561 207.9654,-586.0408 206.8005,-592.9432"/>
</a>
</g>
</g>
<!-- (*github.com/go&#45;i2p/logger.Logger).WithError -->
<g id="node11" class="node">
<title>(*github.com/go&#45;i2p/logger.Logger).WithError</title>
<g id="a_node11"><a xlink:title="(*github.com/go&#45;i2p/logger.Logger).WithError | defined in log.go:66">
<path fill="#ffe4b5" stroke="#000000" stroke-width="1.5" d="M286.3296,-372C286.3296,-372 229.2666,-372 229.2666,-372 223.2666,-372 217.2666,-366 217.2666,-360 217.2666,-360 217.2666,-348 217.2666,-348 217.2666,-342 223.2666,-336 229.2666,-336 229.2666,-336 286.3296,-336 286.3296,-336 292.3296,-336 298.3296,-342 298.3296,-348 298.3296,-348 298.3296,-360 298.3296,-360 298.3296,-366 292.3296,-372 286.3296,-372"/>
<text text-anchor="middle" x="257.7981" y="-349.8" font-family="Verdana" font-size="14.00" fill="#000000">WithError</text>
</a>
</g>
</g>
<!-- (github.com/go&#45;i2p/go&#45;i2p/lib/netdb/reseed.Reseed).SingleReseed&#45;&gt;(*github.com/go&#45;i2p/logger.Logger).WithError -->
<g id="edge15" class="edge">
<title>(github.com/go&#45;i2p/go&#45;i2p/lib/netdb/reseed.Reseed).SingleReseed&#45;&gt;(*github.com/go&#45;i2p/logger.Logger).WithError</title>
<g id="a_edge15"><a xlink:title="at reseed.go:42: calling [(*github.com/go&#45;i2p/logger.Logger).WithError]&#10;at reseed.go:53: calling [(*github.com/go&#45;i2p/logger.Logger).WithError]&#10;at reseed.go:61: calling [(*github.com/go&#45;i2p/logger.Logger).WithError]&#10;at reseed.go:76: calling [(*github.com/go&#45;i2p/logger.Logger).WithError]&#10;at reseed.go:85: calling [(*github.com/go&#45;i2p/logger.Logger).WithError]&#10;at reseed.go:91: calling [(*github.com/go&#45;i2p/logger.Logger).WithError]&#10;at reseed.go:105: calling [(*github.com/go&#45;i2p/logger.Logger).WithError]&#10;at reseed.go:110: calling [(*github.com/go&#45;i2p/logger.Logger).WithError]&#10;at reseed.go:117: calling [(*github.com/go&#45;i2p/logger.Logger).WithError]">
<path fill="none" stroke="#8b4513" d="M124.429,-551.4226C127.2366,-549.5194 129.8625,-547.3875 132.2034,-545 185.0529,-491.0973 138.0638,-440.5275 189.2034,-385 194.4946,-379.2548 201.0538,-374.5026 208.0007,-370.5928"/>
<polygon fill="#8b4513" stroke="#8b4513" points="209.5913,-373.7106 216.9411,-366.0796 206.4368,-367.4617 209.5913,-373.7106"/>
</a>
</g>
</g>
<!-- (*github.com/go&#45;i2p/logger.Logger).Error -->
<g id="node12" class="node">
<title>(*github.com/go&#45;i2p/logger.Logger).Error</title>
<g id="a_node12"><a xlink:title="(*github.com/go&#45;i2p/logger.Logger).Error | defined in log.go:42">
<path fill="#ffe4b5" stroke="#000000" stroke-width="1.5" d="M272.7981,-433C272.7981,-433 242.7981,-433 242.7981,-433 236.7981,-433 230.7981,-427 230.7981,-421 230.7981,-421 230.7981,-409 230.7981,-409 230.7981,-403 236.7981,-397 242.7981,-397 242.7981,-397 272.7981,-397 272.7981,-397 278.7981,-397 284.7981,-403 284.7981,-409 284.7981,-409 284.7981,-421 284.7981,-421 284.7981,-427 278.7981,-433 272.7981,-433"/>
<text text-anchor="middle" x="257.7981" y="-410.8" font-family="Verdana" font-size="14.00" fill="#000000">Error</text>
</a>
</g>
</g>
<!-- (github.com/go&#45;i2p/go&#45;i2p/lib/netdb/reseed.Reseed).SingleReseed&#45;&gt;(*github.com/go&#45;i2p/logger.Logger).Error -->
<g id="edge4" class="edge">
<title>(github.com/go&#45;i2p/go&#45;i2p/lib/netdb/reseed.Reseed).SingleReseed&#45;&gt;(*github.com/go&#45;i2p/logger.Logger).Error</title>
<g id="a_edge4"><a xlink:title="at reseed.go:42: calling [(*github.com/go&#45;i2p/logger.Logger).Error]&#10;at reseed.go:53: calling [(*github.com/go&#45;i2p/logger.Logger).Error]&#10;at reseed.go:61: calling [(*github.com/go&#45;i2p/logger.Logger).Error]&#10;at reseed.go:123: calling [(*github.com/go&#45;i2p/logger.Logger).Error]&#10;at reseed.go:76: calling [(*github.com/go&#45;i2p/logger.Logger).Error]&#10;at reseed.go:85: calling [(*github.com/go&#45;i2p/logger.Logger).Error]&#10;at reseed.go:91: calling [(*github.com/go&#45;i2p/logger.Logger).Error]&#10;at reseed.go:95: calling [(*github.com/go&#45;i2p/logger.Logger).Error]">
<path fill="none" stroke="#8b4513" d="M124.2356,-550.7393C127.0549,-549.0053 129.7394,-547.0973 132.2034,-545 170.8659,-512.0912 151.5879,-480.1006 189.2034,-446 198.2645,-437.7856 209.8677,-431.4342 220.9435,-426.6815"/>
<polygon fill="#8b4513" stroke="#8b4513" points="222.4561,-429.847 230.4639,-422.9097 219.8778,-423.3391 222.4561,-429.847"/>
</a>
</g>
</g>
<!-- (*github.com/go&#45;i2p/logger.Logger).WithFields -->
<g id="node13" class="node">
<title>(*github.com/go&#45;i2p/logger.Logger).WithFields</title>
<g id="a_node13"><a xlink:title="(*github.com/go&#45;i2p/logger.Logger).WithFields | defined in log.go:60">
<path fill="#ffe4b5" stroke="#000000" stroke-width="1.5" d="M289.0172,-494C289.0172,-494 226.579,-494 226.579,-494 220.579,-494 214.579,-488 214.579,-482 214.579,-482 214.579,-470 214.579,-470 214.579,-464 220.579,-458 226.579,-458 226.579,-458 289.0172,-458 289.0172,-458 295.0172,-458 301.0172,-464 301.0172,-470 301.0172,-470 301.0172,-482 301.0172,-482 301.0172,-488 295.0172,-494 289.0172,-494"/>
<text text-anchor="middle" x="257.7981" y="-471.8" font-family="Verdana" font-size="14.00" fill="#000000">WithFields</text>
</a>
</g>
</g>
<!-- (github.com/go&#45;i2p/go&#45;i2p/lib/netdb/reseed.Reseed).SingleReseed&#45;&gt;(*github.com/go&#45;i2p/logger.Logger).WithFields -->
<g id="edge12" class="edge">
<title>(github.com/go&#45;i2p/go&#45;i2p/lib/netdb/reseed.Reseed).SingleReseed&#45;&gt;(*github.com/go&#45;i2p/logger.Logger).WithFields</title>
<g id="a_edge12"><a xlink:title="at reseed.go:65: calling [(*github.com/go&#45;i2p/logger.Logger).WithFields]">
<path fill="none" stroke="#8b4513" d="M124.1838,-548.8797C126.9237,-547.6274 129.6136,-546.3318 132.2034,-545 159.2798,-531.0759 162.5752,-521.7632 189.2034,-507 194.402,-504.1178 199.9187,-501.2812 205.4763,-498.5649"/>
<polygon fill="#8b4513" stroke="#8b4513" points="207.2923,-501.5769 214.8191,-494.1205 204.2852,-495.2557 207.2923,-501.5769"/>
</a>
</g>
</g>
<!-- (*github.com/go&#45;i2p/logger.Logger).Warn -->
<g id="node14" class="node">
<title>(*github.com/go&#45;i2p/logger.Logger).Warn</title>
<g id="a_node14"><a xlink:title="(*github.com/go&#45;i2p/logger.Logger).Warn | defined in log.go:30">
<path fill="#ffe4b5" stroke="#000000" stroke-width="1.5" d="M273.388,-555C273.388,-555 242.2082,-555 242.2082,-555 236.2082,-555 230.2082,-549 230.2082,-543 230.2082,-543 230.2082,-531 230.2082,-531 230.2082,-525 236.2082,-519 242.2082,-519 242.2082,-519 273.388,-519 273.388,-519 279.388,-519 285.388,-525 285.388,-531 285.388,-531 285.388,-543 285.388,-543 285.388,-549 279.388,-555 273.388,-555"/>
<text text-anchor="middle" x="257.7981" y="-532.8" font-family="Verdana" font-size="14.00" fill="#000000">Warn</text>
</a>
</g>
</g>
<!-- (github.com/go&#45;i2p/go&#45;i2p/lib/netdb/reseed.Reseed).SingleReseed&#45;&gt;(*github.com/go&#45;i2p/logger.Logger).Warn -->
<g id="edge8" class="edge">
<title>(github.com/go&#45;i2p/go&#45;i2p/lib/netdb/reseed.Reseed).SingleReseed&#45;&gt;(*github.com/go&#45;i2p/logger.Logger).Warn</title>
<g id="a_edge8"><a xlink:title="at reseed.go:80: calling [(*github.com/go&#45;i2p/logger.Logger).Warn]&#10;at reseed.go:105: calling [(*github.com/go&#45;i2p/logger.Logger).Warn]&#10;at reseed.go:110: calling [(*github.com/go&#45;i2p/logger.Logger).Warn]&#10;at reseed.go:117: calling [(*github.com/go&#45;i2p/logger.Logger).Warn]">
<path fill="none" stroke="#8b4513" d="M124.2975,-558.8024C154.5341,-553.8643 192.4114,-547.6785 220.0891,-543.1584"/>
<polygon fill="#8b4513" stroke="#8b4513" points="220.8551,-546.5797 230.1602,-541.5136 219.7268,-539.6712 220.8551,-546.5797"/>
</a>
</g>
</g>
<!-- github.com/samber/oops.Errorf -->
<g id="node15" class="node">
<title>github.com/samber/oops.Errorf</title>
<g id="a_node15"><a xlink:title="github.com/samber/oops.Errorf | defined in oops.go:34">
<path fill="#ffe4b5" stroke="#000000" stroke-width="1.5" d="M274.9934,-884C274.9934,-884 240.6028,-884 240.6028,-884 234.6028,-884 228.6028,-878 228.6028,-872 228.6028,-872 228.6028,-860 228.6028,-860 228.6028,-854 234.6028,-848 240.6028,-848 240.6028,-848 274.9934,-848 274.9934,-848 280.9934,-848 286.9934,-854 286.9934,-860 286.9934,-860 286.9934,-872 286.9934,-872 286.9934,-878 280.9934,-884 274.9934,-884"/>
<text text-anchor="middle" x="257.7981" y="-861.8" font-family="Verdana" font-size="14.00" fill="#000000">Errorf</text>
</a>
</g>
</g>
<!-- (github.com/go&#45;i2p/go&#45;i2p/lib/netdb/reseed.Reseed).SingleReseed&#45;&gt;github.com/samber/oops.Errorf -->
<g id="edge13" class="edge">
<title>(github.com/go&#45;i2p/go&#45;i2p/lib/netdb/reseed.Reseed).SingleReseed&#45;&gt;github.com/samber/oops.Errorf</title>
<g id="a_edge13"><a xlink:title="at reseed.go:124: calling [github.com/samber/oops.Errorf]&#10;at reseed.go:96: calling [github.com/samber/oops.Errorf]">
<path fill="none" stroke="#8b4513" d="M80.2807,-585.1365C94.9059,-626.4685 134.5594,-729.7346 189.2034,-803 199.5917,-816.9284 213.3454,-830.2644 225.8087,-841.051"/>
<polygon fill="#8b4513" stroke="#8b4513" points="223.861,-843.9865 233.7642,-847.7518 228.3705,-838.6326 223.861,-843.9865"/>
</a>
</g>
</g>
<!-- (*github.com/sirupsen/logrus.Logger).Debug -->
<g id="node16" class="node">
<title>(*github.com/sirupsen/logrus.Logger).Debug</title>
<g id="a_node16"><a xlink:title="(*github.com/sirupsen/logrus.Logger).Debug | defined in logger.go:221">
<path fill="#ffe4b5" stroke="#000000" stroke-width="1.5" d="M276.6201,-1066C276.6201,-1066 238.9761,-1066 238.9761,-1066 232.9761,-1066 226.9761,-1060 226.9761,-1054 226.9761,-1054 226.9761,-1042 226.9761,-1042 226.9761,-1036 232.9761,-1030 238.9761,-1030 238.9761,-1030 276.6201,-1030 276.6201,-1030 282.6201,-1030 288.6201,-1036 288.6201,-1042 288.6201,-1042 288.6201,-1054 288.6201,-1054 288.6201,-1060 282.6201,-1066 276.6201,-1066"/>
<text text-anchor="middle" x="257.7981" y="-1043.8" font-family="Verdana" font-size="14.00" fill="#000000">Debug</text>
</a>
</g>
</g>
<!-- (github.com/go&#45;i2p/go&#45;i2p/lib/netdb/reseed.Reseed).SingleReseed&#45;&gt;(*github.com/sirupsen/logrus.Logger).Debug -->
<g id="edge3" class="edge">
<title>(github.com/go&#45;i2p/go&#45;i2p/lib/netdb/reseed.Reseed).SingleReseed&#45;&gt;(*github.com/sirupsen/logrus.Logger).Debug</title>
<g id="a_edge3"><a xlink:title="at reseed.go:32: calling [(*github.com/sirupsen/logrus.Logger).Debug]&#10;at reseed.go:57: calling [(*github.com/sirupsen/logrus.Logger).Debug]&#10;at reseed.go:68: calling [(*github.com/sirupsen/logrus.Logger).Debug]&#10;at reseed.go:99: calling [(*github.com/sirupsen/logrus.Logger).Debug]&#10;at reseed.go:119: calling [(*github.com/sirupsen/logrus.Logger).Debug]">
<path fill="none" stroke="#8b4513" d="M76.5803,-585.1352C87.2199,-660.6832 131.1315,-949.6388 189.2034,-1018 196.6127,-1026.7221 207.0394,-1032.9932 217.5316,-1037.4676"/>
<polygon fill="#8b4513" stroke="#8b4513" points="216.5095,-1040.823 227.1009,-1041.0904 218.9879,-1034.2765 216.5095,-1040.823"/>
</a>
</g>
</g>
<!-- (*github.com/sirupsen/logrus.Logger).Println -->
<g id="node17" class="node">
<title>(*github.com/sirupsen/logrus.Logger).Println</title>
<g id="a_node17"><a xlink:title="(*github.com/sirupsen/logrus.Logger).Println | defined in logger.go:315">
<path fill="#ffe4b5" stroke="#000000" stroke-width="1.5" d="M276.9132,-1005C276.9132,-1005 238.683,-1005 238.683,-1005 232.683,-1005 226.683,-999 226.683,-993 226.683,-993 226.683,-981 226.683,-981 226.683,-975 232.683,-969 238.683,-969 238.683,-969 276.9132,-969 276.9132,-969 282.9132,-969 288.9132,-975 288.9132,-981 288.9132,-981 288.9132,-993 288.9132,-993 288.9132,-999 282.9132,-1005 276.9132,-1005"/>
<text text-anchor="middle" x="257.7981" y="-982.8" font-family="Verdana" font-size="14.00" fill="#000000">Println</text>
</a>
</g>
</g>
<!-- (github.com/go&#45;i2p/go&#45;i2p/lib/netdb/reseed.Reseed).SingleReseed&#45;&gt;(*github.com/sirupsen/logrus.Logger).Println -->
<g id="edge14" class="edge">
<title>(github.com/go&#45;i2p/go&#45;i2p/lib/netdb/reseed.Reseed).SingleReseed&#45;&gt;(*github.com/sirupsen/logrus.Logger).Println</title>
<g id="a_edge14"><a xlink:title="at reseed.go:79: calling [(*github.com/sirupsen/logrus.Logger).Println]">
<path fill="none" stroke="#8b4513" d="M76.5355,-585.177C84.595,-640.3185 114.2886,-809.0089 189.2034,-925 198.348,-939.1587 211.5308,-952.133 223.9007,-962.5126"/>
<polygon fill="#8b4513" stroke="#8b4513" points="221.8836,-965.3825 231.8616,-968.9451 226.2831,-959.9378 221.8836,-965.3825"/>
</a>
</g>
</g>
</g>
</svg>
