<?xml version="1.0" encoding="UTF-8" standalone="no"?>
<!DOCTYPE svg PUBLIC "-//W3C//DTD SVG 1.1//EN"
 "http://www.w3.org/Graphics/SVG/1.1/DTD/svg11.dtd">
<!-- Generated by graphviz version 2.40.1 (20161225.0304)
 -->
<!-- Title: gocallvis Pages: 1 -->
<svg width="1420pt" height="628pt"
 viewBox="0.00 0.00 1420.13 628.00" xmlns="http://www.w3.org/2000/svg" xmlns:xlink="http://www.w3.org/1999/xlink">
<g id="graph0" class="graph" transform="scale(1 1) rotate(0) translate(0 628)">
<title>gocallvis</title>
<polygon fill="#d3d3d3" stroke="transparent" points="0,0 0,-628 1420.1336,-628 1420.1336,0 0,0"/>
<g id="clust1" class="cluster">
<title>cluster_focus</title>
<polygon fill="#e6ecfa" stroke="#000000" stroke-width=".5" points="8,-8 8,-620 1412.1336,-620 1412.1336,-8 8,-8"/>
<text text-anchor="middle" x="710.0668" y="-599.8" font-family="Arial" font-size="18.00" fill="#000000">sntp</text>
</g>
<g id="clust4" class="cluster">
<title>cluster_*github.com/go&#45;i2p/go&#45;i2p/lib/util/time/sntp.Zones</title>
<g id="a_clust4"><a xlink:title="type: *github.com/go&#45;i2p/go&#45;i2p/lib/util/time/sntp.Zones">
<path fill="#b0c4de" stroke="#000000" stroke-width=".5" d="M1091.3404,-16C1091.3404,-16 1392.1336,-16 1392.1336,-16 1398.1336,-16 1404.1336,-22 1404.1336,-28 1404.1336,-28 1404.1336,-143 1404.1336,-143 1404.1336,-149 1398.1336,-155 1392.1336,-155 1392.1336,-155 1091.3404,-155 1091.3404,-155 1085.3404,-155 1079.3404,-149 1079.3404,-143 1079.3404,-143 1079.3404,-28 1079.3404,-28 1079.3404,-22 1085.3404,-16 1091.3404,-16"/>
<text text-anchor="middle" x="1241.737" y="-24.5" font-family="Arial" font-size="15.00" fill="#222222">(*Zones)</text>
</a>
</g>
</g>
<g id="clust3" class="cluster">
<title>cluster_*github.com/go&#45;i2p/go&#45;i2p/lib/util/time/sntp.RouterTimestamper</title>
<g id="a_clust3"><a xlink:title="type: *github.com/go&#45;i2p/go&#45;i2p/lib/util/time/sntp.RouterTimestamper">
<path fill="#b0c4de" stroke="#000000" stroke-width=".5" d="M32.6697,-277C32.6697,-277 1163.3285,-277 1163.3285,-277 1169.3285,-277 1175.3285,-283 1175.3285,-289 1175.3285,-289 1175.3285,-465 1175.3285,-465 1175.3285,-471 1169.3285,-477 1163.3285,-477 1163.3285,-477 32.6697,-477 32.6697,-477 26.6697,-477 20.6697,-471 20.6697,-465 20.6697,-465 20.6697,-289 20.6697,-289 20.6697,-283 26.6697,-277 32.6697,-277"/>
<text text-anchor="middle" x="597.9991" y="-285.5" font-family="Arial" font-size="15.00" fill="#222222">(*RouterTimestamper)</text>
</a>
</g>
</g>
<g id="clust2" class="cluster">
<title>cluster_*github.com/go&#45;i2p/go&#45;i2p/lib/util/time/sntp.DefaultNTPClient</title>
<g id="a_clust2"><a xlink:title="type: *github.com/go&#45;i2p/go&#45;i2p/lib/util/time/sntp.DefaultNTPClient">
<path fill="#b0c4de" stroke="#000000" stroke-width=".5" d="M28,-504C28,-504 151.31,-504 151.31,-504 157.31,-504 163.31,-510 163.31,-516 163.31,-516 163.31,-570 163.31,-570 163.31,-576 157.31,-582 151.31,-582 151.31,-582 28,-582 28,-582 22,-582 16,-576 16,-570 16,-570 16,-516 16,-516 16,-510 22,-504 28,-504"/>
<text text-anchor="middle" x="89.655" y="-512.5" font-family="Arial" font-size="15.00" fill="#222222">(*DefaultNTPClient)</text>
</a>
</g>
</g>
<!-- github.com/go&#45;i2p/go&#45;i2p/lib/util/time/sntp.getLocalCountryCode -->
<g id="node1" class="node">
<title>github.com/go&#45;i2p/go&#45;i2p/lib/util/time/sntp.getLocalCountryCode</title>
<g id="a_node1"><a xlink:title="github.com/go&#45;i2p/go&#45;i2p/lib/util/time/sntp.getLocalCountryCode | defined in router_timestamper.go:420">
<path fill="#add8e6" stroke="#000000" stroke-width=".5" d="M1186.2513,-521C1186.2513,-521 1061.4169,-521 1061.4169,-521 1055.4169,-521 1049.4169,-515 1049.4169,-509 1049.4169,-509 1049.4169,-497 1049.4169,-497 1049.4169,-491 1055.4169,-485 1061.4169,-485 1061.4169,-485 1186.2513,-485 1186.2513,-485 1192.2513,-485 1198.2513,-491 1198.2513,-497 1198.2513,-497 1198.2513,-509 1198.2513,-509 1198.2513,-515 1192.2513,-521 1186.2513,-521"/>
<text text-anchor="middle" x="1123.8341" y="-498.8" font-family="Verdana" font-size="14.00" fill="#000000">getLocalCountryCode</text>
</a>
</g>
</g>
<!-- github.com/go&#45;i2p/go&#45;i2p/lib/util/time/sntp.checkIPv6Connectivity -->
<g id="node2" class="node">
<title>github.com/go&#45;i2p/go&#45;i2p/lib/util/time/sntp.checkIPv6Connectivity</title>
<g id="a_node2"><a xlink:title="github.com/go&#45;i2p/go&#45;i2p/lib/util/time/sntp.checkIPv6Connectivity | defined in router_timestamper.go:398">
<path fill="#add8e6" stroke="#000000" stroke-width=".5" d="M964.834,-530C964.834,-530 833.0024,-530 833.0024,-530 827.0024,-530 821.0024,-524 821.0024,-518 821.0024,-518 821.0024,-506 821.0024,-506 821.0024,-500 827.0024,-494 833.0024,-494 833.0024,-494 964.834,-494 964.834,-494 970.834,-494 976.834,-500 976.834,-506 976.834,-506 976.834,-518 976.834,-518 976.834,-524 970.834,-530 964.834,-530"/>
<text text-anchor="middle" x="898.9182" y="-507.8" font-family="Verdana" font-size="14.00" fill="#000000">checkIPv6Connectivity</text>
</a>
</g>
</g>
<!-- github.com/go&#45;i2p/crypto/rand.Intn -->
<g id="node3" class="node">
<title>github.com/go&#45;i2p/crypto/rand.Intn</title>
<g id="a_node3"><a xlink:title="github.com/go&#45;i2p/crypto/rand.Intn | defined in prng.go:337">
<path fill="#ffe4b5" stroke="#000000" stroke-width="1.5" d="M1138.8341,-269C1138.8341,-269 1108.8341,-269 1108.8341,-269 1102.8341,-269 1096.8341,-263 1096.8341,-257 1096.8341,-257 1096.8341,-245 1096.8341,-245 1096.8341,-239 1102.8341,-233 1108.8341,-233 1108.8341,-233 1138.8341,-233 1138.8341,-233 1144.8341,-233 1150.8341,-239 1150.8341,-245 1150.8341,-245 1150.8341,-257 1150.8341,-257 1150.8341,-263 1144.8341,-269 1138.8341,-269"/>
<text text-anchor="middle" x="1123.8341" y="-255.2" font-family="Verdana" font-size="14.00" fill="#000000">rand</text>
<text text-anchor="middle" x="1123.8341" y="-238.4" font-family="Verdana" font-size="14.00" fill="#000000">Intn</text>
</a>
</g>
</g>
<!-- github.com/go&#45;i2p/go&#45;i2p/lib/util/time/sntp.absDuration -->
<g id="node4" class="node">
<title>github.com/go&#45;i2p/go&#45;i2p/lib/util/time/sntp.absDuration</title>
<g id="a_node4"><a xlink:title="github.com/go&#45;i2p/go&#45;i2p/lib/util/time/sntp.absDuration | defined in router_timestamper.go:413">
<path fill="#add8e6" stroke="#000000" stroke-width=".5" d="M1158.2573,-582C1158.2573,-582 1089.4109,-582 1089.4109,-582 1083.4109,-582 1077.4109,-576 1077.4109,-570 1077.4109,-570 1077.4109,-558 1077.4109,-558 1077.4109,-552 1083.4109,-546 1089.4109,-546 1089.4109,-546 1158.2573,-546 1158.2573,-546 1164.2573,-546 1170.2573,-552 1170.2573,-558 1170.2573,-558 1170.2573,-570 1170.2573,-570 1170.2573,-576 1164.2573,-582 1158.2573,-582"/>
<text text-anchor="middle" x="1123.8341" y="-559.8" font-family="Verdana" font-size="14.00" fill="#000000">absDuration</text>
</a>
</g>
</g>
<!-- github.com/go&#45;i2p/crypto/rand.Float64 -->
<g id="node5" class="node">
<title>github.com/go&#45;i2p/crypto/rand.Float64</title>
<g id="a_node5"><a xlink:title="github.com/go&#45;i2p/crypto/rand.Float64 | defined in prng.go:342">
<path fill="#ffe4b5" stroke="#000000" stroke-width="1.5" d="M1145.1129,-208C1145.1129,-208 1102.5553,-208 1102.5553,-208 1096.5553,-208 1090.5553,-202 1090.5553,-196 1090.5553,-196 1090.5553,-184 1090.5553,-184 1090.5553,-178 1096.5553,-172 1102.5553,-172 1102.5553,-172 1145.1129,-172 1145.1129,-172 1151.1129,-172 1157.1129,-178 1157.1129,-184 1157.1129,-184 1157.1129,-196 1157.1129,-196 1157.1129,-202 1151.1129,-208 1145.1129,-208"/>
<text text-anchor="middle" x="1123.8341" y="-194.2" font-family="Verdana" font-size="14.00" fill="#000000">rand</text>
<text text-anchor="middle" x="1123.8341" y="-177.4" font-family="Verdana" font-size="14.00" fill="#000000">Float64</text>
</a>
</g>
</g>
<!-- github.com/go&#45;i2p/go&#45;i2p/lib/util/time/sntp.NewZones -->
<g id="node6" class="node">
<title>github.com/go&#45;i2p/go&#45;i2p/lib/util/time/sntp.NewZones</title>
<g id="a_node6"><a xlink:title="github.com/go&#45;i2p/go&#45;i2p/lib/util/time/sntp.NewZones | defined in zones.go:19&#10;at zones.go:24: calling [(*github.com/go&#45;i2p/go&#45;i2p/lib/util/time/sntp.Zones).initialize]">
<path fill="#add8e6" stroke="#000000" stroke-width="1.5" d="M929.0586,-166C929.0586,-166 868.7778,-166 868.7778,-166 862.7778,-166 856.7778,-160 856.7778,-154 856.7778,-154 856.7778,-142 856.7778,-142 856.7778,-136 862.7778,-130 868.7778,-130 868.7778,-130 929.0586,-130 929.0586,-130 935.0586,-130 941.0586,-136 941.0586,-142 941.0586,-142 941.0586,-154 941.0586,-154 941.0586,-160 935.0586,-166 929.0586,-166"/>
<text text-anchor="middle" x="898.9182" y="-143.8" font-family="Verdana" font-size="14.00" fill="#000000">NewZones</text>
</a>
</g>
</g>
<!-- (*github.com/go&#45;i2p/go&#45;i2p/lib/util/time/sntp.Zones).initialize -->
<g id="node23" class="node">
<title>(*github.com/go&#45;i2p/go&#45;i2p/lib/util/time/sntp.Zones).initialize</title>
<g id="a_node23"><a xlink:title="(*github.com/go&#45;i2p/go&#45;i2p/lib/util/time/sntp.Zones).initialize | defined in zones.go:36&#10;at zones.go:51: calling [(*github.com/go&#45;i2p/go&#45;i2p/lib/util/time/sntp.Zones).readContinentFile]">
<path fill="#add8e6" stroke="#000000" stroke-width=".5" d="M1148.3215,-86C1148.3215,-86 1099.3467,-86 1099.3467,-86 1093.3467,-86 1087.3467,-80 1087.3467,-74 1087.3467,-74 1087.3467,-62 1087.3467,-62 1087.3467,-56 1093.3467,-50 1099.3467,-50 1099.3467,-50 1148.3215,-50 1148.3215,-50 1154.3215,-50 1160.3215,-56 1160.3215,-62 1160.3215,-62 1160.3215,-74 1160.3215,-74 1160.3215,-80 1154.3215,-86 1148.3215,-86"/>
<text text-anchor="middle" x="1123.8341" y="-63.8" font-family="Verdana" font-size="14.00" fill="#000000">initialize</text>
</a>
</g>
</g>
<!-- github.com/go&#45;i2p/go&#45;i2p/lib/util/time/sntp.NewZones&#45;&gt;(*github.com/go&#45;i2p/go&#45;i2p/lib/util/time/sntp.Zones).initialize -->
<g id="edge17" class="edge">
<title>github.com/go&#45;i2p/go&#45;i2p/lib/util/time/sntp.NewZones&#45;&gt;(*github.com/go&#45;i2p/go&#45;i2p/lib/util/time/sntp.Zones).initialize</title>
<g id="a_edge17"><a xlink:title="at zones.go:24: calling [(*github.com/go&#45;i2p/go&#45;i2p/lib/util/time/sntp.Zones).initialize]">
<path fill="none" stroke="#000000" d="M941.2232,-132.9526C980.135,-119.1121 1037.704,-98.6355 1077.7648,-84.3863"/>
<polygon fill="#000000" stroke="#000000" points="1079.048,-87.6448 1087.2968,-80.9959 1076.7021,-81.0495 1079.048,-87.6448"/>
</a>
</g>
</g>
<!-- github.com/go&#45;i2p/go&#45;i2p/lib/util/time/sntp.NewRouterTimestamper -->
<g id="node7" class="node">
<title>github.com/go&#45;i2p/go&#45;i2p/lib/util/time/sntp.NewRouterTimestamper</title>
<g id="a_node7"><a xlink:title="github.com/go&#45;i2p/go&#45;i2p/lib/util/time/sntp.NewRouterTimestamper | defined in router_timestamper.go:57&#10;at router_timestamper.go:63: calling [github.com/go&#45;i2p/go&#45;i2p/lib/util/time/sntp.NewZones]&#10;at router_timestamper.go:67: calling [(*github.com/go&#45;i2p/go&#45;i2p/lib/util/time/sntp.RouterTimestamper).updateConfig]">
<path fill="#add8e6" stroke="#000000" stroke-width="1.5" d="M736.4082,-193C736.4082,-193 597.6188,-193 597.6188,-193 591.6188,-193 585.6188,-187 585.6188,-181 585.6188,-181 585.6188,-169 585.6188,-169 585.6188,-163 591.6188,-157 597.6188,-157 597.6188,-157 736.4082,-157 736.4082,-157 742.4082,-157 748.4082,-163 748.4082,-169 748.4082,-169 748.4082,-181 748.4082,-181 748.4082,-187 742.4082,-193 736.4082,-193"/>
<text text-anchor="middle" x="667.0135" y="-170.8" font-family="Verdana" font-size="14.00" fill="#000000">NewRouterTimestamper</text>
</a>
</g>
</g>
<!-- github.com/go&#45;i2p/go&#45;i2p/lib/util/time/sntp.NewRouterTimestamper&#45;&gt;github.com/go&#45;i2p/go&#45;i2p/lib/util/time/sntp.NewZones -->
<g id="edge12" class="edge">
<title>github.com/go&#45;i2p/go&#45;i2p/lib/util/time/sntp.NewRouterTimestamper&#45;&gt;github.com/go&#45;i2p/go&#45;i2p/lib/util/time/sntp.NewZones</title>
<g id="a_edge12"><a xlink:title="at router_timestamper.go:63: calling [github.com/go&#45;i2p/go&#45;i2p/lib/util/time/sntp.NewZones]">
<path fill="none" stroke="#000000" d="M748.4483,-165.5188C780.9942,-161.7296 817.5321,-157.4755 846.4526,-154.1084"/>
<polygon fill="#000000" stroke="#000000" points="847.2132,-157.5436 856.7413,-152.9105 846.4036,-150.5906 847.2132,-157.5436"/>
</a>
</g>
</g>
<!-- (*github.com/go&#45;i2p/go&#45;i2p/lib/util/time/sntp.RouterTimestamper).updateConfig -->
<g id="node11" class="node">
<title>(*github.com/go&#45;i2p/go&#45;i2p/lib/util/time/sntp.RouterTimestamper).updateConfig</title>
<g id="a_node11"><a xlink:title="(*github.com/go&#45;i2p/go&#45;i2p/lib/util/time/sntp.RouterTimestamper).updateConfig | defined in router_timestamper.go:354&#10;at router_timestamper.go:384: calling [(*github.com/go&#45;i2p/go&#45;i2p/lib/util/time/sntp.Zones).GetZone]&#10;at router_timestamper.go:375: calling [github.com/go&#45;i2p/go&#45;i2p/lib/util/time/sntp.getLocalCountryCode]">
<path fill="#add8e6" stroke="#000000" stroke-width=".5" d="M937.126,-347C937.126,-347 860.7104,-347 860.7104,-347 854.7104,-347 848.7104,-341 848.7104,-335 848.7104,-335 848.7104,-323 848.7104,-323 848.7104,-317 854.7104,-311 860.7104,-311 860.7104,-311 937.126,-311 937.126,-311 943.126,-311 949.126,-317 949.126,-323 949.126,-323 949.126,-335 949.126,-335 949.126,-341 943.126,-347 937.126,-347"/>
<text text-anchor="middle" x="898.9182" y="-324.8" font-family="Verdana" font-size="14.00" fill="#000000">updateConfig</text>
</a>
</g>
</g>
<!-- github.com/go&#45;i2p/go&#45;i2p/lib/util/time/sntp.NewRouterTimestamper&#45;&gt;(*github.com/go&#45;i2p/go&#45;i2p/lib/util/time/sntp.RouterTimestamper).updateConfig -->
<g id="edge22" class="edge">
<title>github.com/go&#45;i2p/go&#45;i2p/lib/util/time/sntp.NewRouterTimestamper&#45;&gt;(*github.com/go&#45;i2p/go&#45;i2p/lib/util/time/sntp.RouterTimestamper).updateConfig</title>
<g id="a_edge22"><a xlink:title="at router_timestamper.go:67: calling [(*github.com/go&#45;i2p/go&#45;i2p/lib/util/time/sntp.RouterTimestamper).updateConfig]">
<path fill="none" stroke="#000000" d="M706.453,-193.1268C720.3615,-200.4579 735.6497,-209.6463 748.2106,-220 787.1596,-252.1049 778.8325,-279.5801 821.2106,-307 826.6183,-310.499 832.5874,-313.4506 838.7424,-315.9386"/>
<polygon fill="#000000" stroke="#000000" points="837.9192,-319.363 848.5134,-319.4789 840.3038,-312.7816 837.9192,-319.363"/>
</a>
</g>
</g>
<!-- github.com/beevik/ntp.QueryWithOptions -->
<g id="node8" class="node">
<title>github.com/beevik/ntp.QueryWithOptions</title>
<g id="a_node8"><a xlink:title="github.com/beevik/ntp.QueryWithOptions | defined in ntp.go:432">
<path fill="#ffe4b5" stroke="#000000" stroke-width="1.5" d="M355.7754,-582C355.7754,-582 248.1546,-582 248.1546,-582 242.1546,-582 236.1546,-576 236.1546,-570 236.1546,-570 236.1546,-558 236.1546,-558 236.1546,-552 242.1546,-546 248.1546,-546 248.1546,-546 355.7754,-546 355.7754,-546 361.7754,-546 367.7754,-552 367.7754,-558 367.7754,-558 367.7754,-570 367.7754,-570 367.7754,-576 361.7754,-582 355.7754,-582"/>
<text text-anchor="middle" x="301.965" y="-568.2" font-family="Verdana" font-size="14.00" fill="#000000">ntp</text>
<text text-anchor="middle" x="301.965" y="-551.4" font-family="Verdana" font-size="14.00" fill="#000000">QueryWithOptions</text>
</a>
</g>
</g>
<!-- github.com/go&#45;i2p/crypto/rand.Int63n -->
<g id="node9" class="node">
<title>github.com/go&#45;i2p/crypto/rand.Int63n</title>
<g id="a_node9"><a xlink:title="github.com/go&#45;i2p/crypto/rand.Int63n | defined in prng.go:327">
<path fill="#ffe4b5" stroke="#000000" stroke-width="1.5" d="M685.0664,-269C685.0664,-269 648.9606,-269 648.9606,-269 642.9606,-269 636.9606,-263 636.9606,-257 636.9606,-257 636.9606,-245 636.9606,-245 636.9606,-239 642.9606,-233 648.9606,-233 648.9606,-233 685.0664,-233 685.0664,-233 691.0664,-233 697.0664,-239 697.0664,-245 697.0664,-245 697.0664,-257 697.0664,-257 697.0664,-263 691.0664,-269 685.0664,-269"/>
<text text-anchor="middle" x="667.0135" y="-255.2" font-family="Verdana" font-size="14.00" fill="#000000">rand</text>
<text text-anchor="middle" x="667.0135" y="-238.4" font-family="Verdana" font-size="14.00" fill="#000000">Int63n</text>
</a>
</g>
</g>
<!-- (*github.com/go&#45;i2p/go&#45;i2p/lib/util/time/sntp.DefaultNTPClient).QueryWithOptions -->
<g id="node10" class="node">
<title>(*github.com/go&#45;i2p/go&#45;i2p/lib/util/time/sntp.DefaultNTPClient).QueryWithOptions</title>
<g id="a_node10"><a xlink:title="(*github.com/go&#45;i2p/go&#45;i2p/lib/util/time/sntp.DefaultNTPClient).QueryWithOptions | defined in router_timestamper.go:21&#10;at router_timestamper.go:22: calling [github.com/beevik/ntp.QueryWithOptions]">
<path fill="#add8e6" stroke="#000000" stroke-width="1.5" d="M143.4654,-574C143.4654,-574 35.8446,-574 35.8446,-574 29.8446,-574 23.8446,-568 23.8446,-562 23.8446,-562 23.8446,-550 23.8446,-550 23.8446,-544 29.8446,-538 35.8446,-538 35.8446,-538 143.4654,-538 143.4654,-538 149.4654,-538 155.4654,-544 155.4654,-550 155.4654,-550 155.4654,-562 155.4654,-562 155.4654,-568 149.4654,-574 143.4654,-574"/>
<text text-anchor="middle" x="89.655" y="-551.8" font-family="Verdana" font-size="14.00" fill="#000000">QueryWithOptions</text>
</a>
</g>
</g>
<!-- (*github.com/go&#45;i2p/go&#45;i2p/lib/util/time/sntp.DefaultNTPClient).QueryWithOptions&#45;&gt;github.com/beevik/ntp.QueryWithOptions -->
<g id="edge18" class="edge">
<title>(*github.com/go&#45;i2p/go&#45;i2p/lib/util/time/sntp.DefaultNTPClient).QueryWithOptions&#45;&gt;github.com/beevik/ntp.QueryWithOptions</title>
<g id="a_edge18"><a xlink:title="at router_timestamper.go:22: calling [github.com/beevik/ntp.QueryWithOptions]">
<path fill="none" stroke="#8b4513" d="M155.3772,-558.4765C177.7612,-559.3199 202.965,-560.2696 226.0794,-561.1406"/>
<polygon fill="#8b4513" stroke="#8b4513" points="226.0631,-564.6423 236.1878,-561.5215 226.3267,-557.6473 226.0631,-564.6423"/>
</a>
</g>
</g>
<!-- (*github.com/go&#45;i2p/go&#45;i2p/lib/util/time/sntp.RouterTimestamper).updateConfig&#45;&gt;github.com/go&#45;i2p/go&#45;i2p/lib/util/time/sntp.getLocalCountryCode -->
<g id="edge13" class="edge">
<title>(*github.com/go&#45;i2p/go&#45;i2p/lib/util/time/sntp.RouterTimestamper).updateConfig&#45;&gt;github.com/go&#45;i2p/go&#45;i2p/lib/util/time/sntp.getLocalCountryCode</title>
<g id="a_edge13"><a xlink:title="at router_timestamper.go:375: calling [github.com/go&#45;i2p/go&#45;i2p/lib/util/time/sntp.getLocalCountryCode]">
<path fill="none" stroke="#000000" d="M949.2861,-343.535C959.0176,-347.82 968.6526,-353.2328 976.6258,-360 1022.0787,-398.5781 1002.2441,-438.3308 1047.4553,-478.4837"/>
<polygon fill="#000000" stroke="#000000" points="1045.3444,-481.2793 1055.2899,-484.9314 1049.7925,-475.8743 1045.3444,-481.2793"/>
</a>
</g>
</g>
<!-- (*github.com/go&#45;i2p/go&#45;i2p/lib/util/time/sntp.Zones).GetZone -->
<g id="node22" class="node">
<title>(*github.com/go&#45;i2p/go&#45;i2p/lib/util/time/sntp.Zones).GetZone</title>
<g id="a_node22"><a xlink:title="(*github.com/go&#45;i2p/go&#45;i2p/lib/util/time/sntp.Zones).GetZone | defined in zones.go:28">
<path fill="#add8e6" stroke="#000000" stroke-width="1.5" d="M1148.3131,-147C1148.3131,-147 1099.3551,-147 1099.3551,-147 1093.3551,-147 1087.3551,-141 1087.3551,-135 1087.3551,-135 1087.3551,-123 1087.3551,-123 1087.3551,-117 1093.3551,-111 1099.3551,-111 1099.3551,-111 1148.3131,-111 1148.3131,-111 1154.3131,-111 1160.3131,-117 1160.3131,-123 1160.3131,-123 1160.3131,-135 1160.3131,-135 1160.3131,-141 1154.3131,-147 1148.3131,-147"/>
<text text-anchor="middle" x="1123.8341" y="-124.8" font-family="Verdana" font-size="14.00" fill="#000000">GetZone</text>
</a>
</g>
</g>
<!-- (*github.com/go&#45;i2p/go&#45;i2p/lib/util/time/sntp.RouterTimestamper).updateConfig&#45;&gt;(*github.com/go&#45;i2p/go&#45;i2p/lib/util/time/sntp.Zones).GetZone -->
<g id="edge7" class="edge">
<title>(*github.com/go&#45;i2p/go&#45;i2p/lib/util/time/sntp.RouterTimestamper).updateConfig&#45;&gt;(*github.com/go&#45;i2p/go&#45;i2p/lib/util/time/sntp.Zones).GetZone</title>
<g id="a_edge7"><a xlink:title="at router_timestamper.go:384: calling [(*github.com/go&#45;i2p/go&#45;i2p/lib/util/time/sntp.Zones).GetZone]">
<path fill="none" stroke="#000000" d="M949.1807,-323.0476C959.3803,-319.7307 969.2326,-314.6741 976.6258,-307 1023.5933,-258.2479 965.3569,-207.46 1012.6258,-159 1029.3963,-141.807 1054.909,-134.1432 1077.2695,-130.8515"/>
<polygon fill="#000000" stroke="#000000" points="1077.7772,-134.3156 1087.2787,-129.6283 1076.928,-127.3673 1077.7772,-134.3156"/>
</a>
</g>
</g>
<!-- (*github.com/go&#45;i2p/go&#45;i2p/lib/util/time/sntp.RouterTimestamper).performTimeQuery -->
<g id="node12" class="node">
<title>(*github.com/go&#45;i2p/go&#45;i2p/lib/util/time/sntp.RouterTimestamper).performTimeQuery</title>
<g id="a_node12"><a xlink:title="(*github.com/go&#45;i2p/go&#45;i2p/lib/util/time/sntp.RouterTimestamper).performTimeQuery | defined in router_timestamper.go:131&#10;at router_timestamper.go:133: calling [github.com/go&#45;i2p/go&#45;i2p/lib/util/time/sntp.checkIPv6Connectivity]&#10;at router_timestamper.go:148: calling [(*github.com/go&#45;i2p/go&#45;i2p/lib/util/time/sntp.RouterTimestamper).queryTime]&#10;at router_timestamper.go:156: calling [(*github.com/go&#45;i2p/go&#45;i2p/lib/util/time/sntp.RouterTimestamper).queryTime]&#10;at router_timestamper.go:132: calling [(*github.com/go&#45;i2p/go&#45;i2p/lib/util/time/sntp.RouterTimestamper).updateConfig]&#10;at router_timestamper.go:155: calling [(*github.com/go&#45;i2p/go&#45;i2p/lib/util/time/sntp.RouterTimestamper).secureRandBool]">
<path fill="#add8e6" stroke="#000000" stroke-width=".5" d="M721.6312,-408C721.6312,-408 612.3958,-408 612.3958,-408 606.3958,-408 600.3958,-402 600.3958,-396 600.3958,-396 600.3958,-384 600.3958,-384 600.3958,-378 606.3958,-372 612.3958,-372 612.3958,-372 721.6312,-372 721.6312,-372 727.6312,-372 733.6312,-378 733.6312,-384 733.6312,-384 733.6312,-396 733.6312,-396 733.6312,-402 727.6312,-408 721.6312,-408"/>
<text text-anchor="middle" x="667.0135" y="-385.8" font-family="Verdana" font-size="14.00" fill="#000000">performTimeQuery</text>
</a>
</g>
</g>
<!-- (*github.com/go&#45;i2p/go&#45;i2p/lib/util/time/sntp.RouterTimestamper).performTimeQuery&#45;&gt;github.com/go&#45;i2p/go&#45;i2p/lib/util/time/sntp.checkIPv6Connectivity -->
<g id="edge2" class="edge">
<title>(*github.com/go&#45;i2p/go&#45;i2p/lib/util/time/sntp.RouterTimestamper).performTimeQuery&#45;&gt;github.com/go&#45;i2p/go&#45;i2p/lib/util/time/sntp.checkIPv6Connectivity</title>
<g id="a_edge2"><a xlink:title="at router_timestamper.go:133: calling [github.com/go&#45;i2p/go&#45;i2p/lib/util/time/sntp.checkIPv6Connectivity]">
<path fill="none" stroke="#000000" d="M733.7246,-405.0487C738.7538,-407.09 743.6427,-409.3964 748.2106,-412 787.5311,-434.4118 782.9694,-458.7924 821.2106,-483 824.8379,-485.2961 828.6741,-487.4508 832.6216,-489.4657"/>
<polygon fill="#000000" stroke="#000000" points="831.4534,-492.7856 841.9879,-493.9146 834.4568,-486.4626 831.4534,-492.7856"/>
</a>
</g>
</g>
<!-- (*github.com/go&#45;i2p/go&#45;i2p/lib/util/time/sntp.RouterTimestamper).performTimeQuery&#45;&gt;(*github.com/go&#45;i2p/go&#45;i2p/lib/util/time/sntp.RouterTimestamper).updateConfig -->
<g id="edge14" class="edge">
<title>(*github.com/go&#45;i2p/go&#45;i2p/lib/util/time/sntp.RouterTimestamper).performTimeQuery&#45;&gt;(*github.com/go&#45;i2p/go&#45;i2p/lib/util/time/sntp.RouterTimestamper).updateConfig</title>
<g id="a_edge14"><a xlink:title="at router_timestamper.go:132: calling [(*github.com/go&#45;i2p/go&#45;i2p/lib/util/time/sntp.RouterTimestamper).updateConfig]">
<path fill="none" stroke="#000000" d="M733.7788,-372.4381C767.0048,-363.6984 806.8451,-353.2188 839.069,-344.7427"/>
<polygon fill="#000000" stroke="#000000" points="840.0285,-348.1094 848.8092,-342.1806 838.2478,-341.3397 840.0285,-348.1094"/>
</a>
</g>
</g>
<!-- (*github.com/go&#45;i2p/go&#45;i2p/lib/util/time/sntp.RouterTimestamper).queryTime -->
<g id="node13" class="node">
<title>(*github.com/go&#45;i2p/go&#45;i2p/lib/util/time/sntp.RouterTimestamper).queryTime</title>
<g id="a_node13"><a xlink:title="(*github.com/go&#45;i2p/go&#45;i2p/lib/util/time/sntp.RouterTimestamper).queryTime | defined in router_timestamper.go:288&#10;at router_timestamper.go:298: calling [github.com/go&#45;i2p/crypto/rand.Intn]&#10;at router_timestamper.go:338: calling [(*github.com/go&#45;i2p/go&#45;i2p/lib/util/time/sntp.RouterTimestamper).stampTime]&#10;at router_timestamper.go:319: calling [github.com/go&#45;i2p/go&#45;i2p/lib/util/time/sntp.absDuration]&#10;at router_timestamper.go:331: calling [github.com/go&#45;i2p/go&#45;i2p/lib/util/time/sntp.absDuration]&#10;at router_timestamper.go:320: calling [github.com/go&#45;i2p/go&#45;i2p/lib/util/time/sntp.absDuration]">
<path fill="#add8e6" stroke="#000000" stroke-width=".5" d="M929.8429,-469C929.8429,-469 867.9935,-469 867.9935,-469 861.9935,-469 855.9935,-463 855.9935,-457 855.9935,-457 855.9935,-445 855.9935,-445 855.9935,-439 861.9935,-433 867.9935,-433 867.9935,-433 929.8429,-433 929.8429,-433 935.8429,-433 941.8429,-439 941.8429,-445 941.8429,-445 941.8429,-457 941.8429,-457 941.8429,-463 935.8429,-469 929.8429,-469"/>
<text text-anchor="middle" x="898.9182" y="-446.8" font-family="Verdana" font-size="14.00" fill="#000000">queryTime</text>
</a>
</g>
</g>
<!-- (*github.com/go&#45;i2p/go&#45;i2p/lib/util/time/sntp.RouterTimestamper).performTimeQuery&#45;&gt;(*github.com/go&#45;i2p/go&#45;i2p/lib/util/time/sntp.RouterTimestamper).queryTime -->
<g id="edge4" class="edge">
<title>(*github.com/go&#45;i2p/go&#45;i2p/lib/util/time/sntp.RouterTimestamper).performTimeQuery&#45;&gt;(*github.com/go&#45;i2p/go&#45;i2p/lib/util/time/sntp.RouterTimestamper).queryTime</title>
<g id="a_edge4"><a xlink:title="at router_timestamper.go:148: calling [(*github.com/go&#45;i2p/go&#45;i2p/lib/util/time/sntp.RouterTimestamper).queryTime]&#10;at router_timestamper.go:156: calling [(*github.com/go&#45;i2p/go&#45;i2p/lib/util/time/sntp.RouterTimestamper).queryTime]">
<path fill="none" stroke="#000000" d="M733.7788,-407.5619C769.4301,-416.9396 812.6965,-428.3203 845.998,-437.0799"/>
<polygon fill="#000000" stroke="#000000" points="845.4322,-440.5501 855.9936,-439.7091 847.2129,-433.7804 845.4322,-440.5501"/>
</a>
</g>
</g>
<!-- (*github.com/go&#45;i2p/go&#45;i2p/lib/util/time/sntp.RouterTimestamper).secureRandBool -->
<g id="node15" class="node">
<title>(*github.com/go&#45;i2p/go&#45;i2p/lib/util/time/sntp.RouterTimestamper).secureRandBool</title>
<g id="a_node15"><a xlink:title="(*github.com/go&#45;i2p/go&#45;i2p/lib/util/time/sntp.RouterTimestamper).secureRandBool | defined in router_timestamper.go:127&#10;at router_timestamper.go:128: calling [github.com/go&#45;i2p/crypto/rand.Float64]">
<path fill="#add8e6" stroke="#000000" stroke-width=".5" d="M944.9466,-408C944.9466,-408 852.8898,-408 852.8898,-408 846.8898,-408 840.8898,-402 840.8898,-396 840.8898,-396 840.8898,-384 840.8898,-384 840.8898,-378 846.8898,-372 852.8898,-372 852.8898,-372 944.9466,-372 944.9466,-372 950.9466,-372 956.9466,-378 956.9466,-384 956.9466,-384 956.9466,-396 956.9466,-396 956.9466,-402 950.9466,-408 944.9466,-408"/>
<text text-anchor="middle" x="898.9182" y="-385.8" font-family="Verdana" font-size="14.00" fill="#000000">secureRandBool</text>
</a>
</g>
</g>
<!-- (*github.com/go&#45;i2p/go&#45;i2p/lib/util/time/sntp.RouterTimestamper).performTimeQuery&#45;&gt;(*github.com/go&#45;i2p/go&#45;i2p/lib/util/time/sntp.RouterTimestamper).secureRandBool -->
<g id="edge21" class="edge">
<title>(*github.com/go&#45;i2p/go&#45;i2p/lib/util/time/sntp.RouterTimestamper).performTimeQuery&#45;&gt;(*github.com/go&#45;i2p/go&#45;i2p/lib/util/time/sntp.RouterTimestamper).secureRandBool</title>
<g id="a_edge21"><a xlink:title="at router_timestamper.go:155: calling [(*github.com/go&#45;i2p/go&#45;i2p/lib/util/time/sntp.RouterTimestamper).secureRandBool]">
<path fill="none" stroke="#000000" d="M733.7788,-390C764.1938,-390 800.1513,-390 830.7354,-390"/>
<polygon fill="#000000" stroke="#000000" points="830.8857,-393.5001 840.8856,-390 830.8856,-386.5001 830.8857,-393.5001"/>
</a>
</g>
</g>
<!-- (*github.com/go&#45;i2p/go&#45;i2p/lib/util/time/sntp.RouterTimestamper).queryTime&#45;&gt;github.com/go&#45;i2p/crypto/rand.Intn -->
<g id="edge3" class="edge">
<title>(*github.com/go&#45;i2p/go&#45;i2p/lib/util/time/sntp.RouterTimestamper).queryTime&#45;&gt;github.com/go&#45;i2p/crypto/rand.Intn</title>
<g id="a_edge3"><a xlink:title="at router_timestamper.go:298: calling [github.com/go&#45;i2p/crypto/rand.Intn]">
<path fill="none" stroke="#8b4513" d="M941.6403,-440.8899C954.0074,-436.375 966.8054,-429.976 976.6258,-421 1030.7633,-371.5178 993.5475,-320.2714 1049.6258,-273 1060.0028,-264.2526 1073.7426,-258.9831 1086.5765,-255.8087"/>
<polygon fill="#8b4513" stroke="#8b4513" points="1087.5363,-259.1831 1096.5933,-253.6857 1086.0849,-252.3352 1087.5363,-259.1831"/>
</a>
</g>
</g>
<!-- (*github.com/go&#45;i2p/go&#45;i2p/lib/util/time/sntp.RouterTimestamper).queryTime&#45;&gt;github.com/go&#45;i2p/go&#45;i2p/lib/util/time/sntp.absDuration -->
<g id="edge15" class="edge">
<title>(*github.com/go&#45;i2p/go&#45;i2p/lib/util/time/sntp.RouterTimestamper).queryTime&#45;&gt;github.com/go&#45;i2p/go&#45;i2p/lib/util/time/sntp.absDuration</title>
<g id="a_edge15"><a xlink:title="at router_timestamper.go:319: calling [github.com/go&#45;i2p/go&#45;i2p/lib/util/time/sntp.absDuration]&#10;at router_timestamper.go:331: calling [github.com/go&#45;i2p/go&#45;i2p/lib/util/time/sntp.absDuration]&#10;at router_timestamper.go:320: calling [github.com/go&#45;i2p/go&#45;i2p/lib/util/time/sntp.absDuration]">
<path fill="none" stroke="#000000" d="M941.6998,-459.6552C953.4102,-462.9364 965.8398,-467.3023 976.6258,-473 1014.0109,-492.7486 1013.3642,-512.2572 1049.6258,-534 1055.3912,-537.457 1061.6274,-540.6787 1067.9508,-543.6306"/>
<polygon fill="#000000" stroke="#000000" points="1066.6734,-546.893 1077.2328,-547.7584 1069.5178,-540.4969 1066.6734,-546.893"/>
</a>
</g>
</g>
<!-- (*github.com/go&#45;i2p/go&#45;i2p/lib/util/time/sntp.RouterTimestamper).stampTime -->
<g id="node14" class="node">
<title>(*github.com/go&#45;i2p/go&#45;i2p/lib/util/time/sntp.RouterTimestamper).stampTime</title>
<g id="a_node14"><a xlink:title="(*github.com/go&#45;i2p/go&#45;i2p/lib/util/time/sntp.RouterTimestamper).stampTime | defined in router_timestamper.go:342">
<path fill="#add8e6" stroke="#000000" stroke-width=".5" d="M1155.3229,-460C1155.3229,-460 1092.3453,-460 1092.3453,-460 1086.3453,-460 1080.3453,-454 1080.3453,-448 1080.3453,-448 1080.3453,-436 1080.3453,-436 1080.3453,-430 1086.3453,-424 1092.3453,-424 1092.3453,-424 1155.3229,-424 1155.3229,-424 1161.3229,-424 1167.3229,-430 1167.3229,-436 1167.3229,-436 1167.3229,-448 1167.3229,-448 1167.3229,-454 1161.3229,-460 1155.3229,-460"/>
<text text-anchor="middle" x="1123.8341" y="-437.8" font-family="Verdana" font-size="14.00" fill="#000000">stampTime</text>
</a>
</g>
</g>
<!-- (*github.com/go&#45;i2p/go&#45;i2p/lib/util/time/sntp.RouterTimestamper).queryTime&#45;&gt;(*github.com/go&#45;i2p/go&#45;i2p/lib/util/time/sntp.RouterTimestamper).stampTime -->
<g id="edge8" class="edge">
<title>(*github.com/go&#45;i2p/go&#45;i2p/lib/util/time/sntp.RouterTimestamper).queryTime&#45;&gt;(*github.com/go&#45;i2p/go&#45;i2p/lib/util/time/sntp.RouterTimestamper).stampTime</title>
<g id="a_edge8"><a xlink:title="at router_timestamper.go:338: calling [(*github.com/go&#45;i2p/go&#45;i2p/lib/util/time/sntp.RouterTimestamper).stampTime]">
<path fill="none" stroke="#000000" d="M941.7526,-449.286C978.1397,-447.83 1030.5595,-445.7324 1069.8194,-444.1614"/>
<polygon fill="#000000" stroke="#000000" points="1070.1563,-447.6508 1080.0083,-443.7537 1069.8763,-440.6564 1070.1563,-447.6508"/>
</a>
</g>
</g>
<!-- (*github.com/go&#45;i2p/go&#45;i2p/lib/util/time/sntp.RouterTimestamper).secureRandBool&#45;&gt;github.com/go&#45;i2p/crypto/rand.Float64 -->
<g id="edge9" class="edge">
<title>(*github.com/go&#45;i2p/go&#45;i2p/lib/util/time/sntp.RouterTimestamper).secureRandBool&#45;&gt;github.com/go&#45;i2p/crypto/rand.Float64</title>
<g id="a_edge9"><a xlink:title="at router_timestamper.go:128: calling [github.com/go&#45;i2p/crypto/rand.Float64]">
<path fill="none" stroke="#8b4513" d="M957.232,-372.9594C964.2314,-369.3856 970.9108,-365.1072 976.6258,-360 1028.95,-313.2407 997.6714,-267.1698 1049.6258,-220 1058.4587,-211.9806 1069.713,-205.966 1080.7713,-201.5134"/>
<polygon fill="#8b4513" stroke="#8b4513" points="1082.1899,-204.7212 1090.373,-197.9915 1079.7793,-198.1493 1082.1899,-204.7212"/>
</a>
</g>
</g>
<!-- (*github.com/go&#45;i2p/go&#45;i2p/lib/util/time/sntp.RouterTimestamper).runOnce -->
<g id="node16" class="node">
<title>(*github.com/go&#45;i2p/go&#45;i2p/lib/util/time/sntp.RouterTimestamper).runOnce</title>
<g id="a_node16"><a xlink:title="(*github.com/go&#45;i2p/go&#45;i2p/lib/util/time/sntp.RouterTimestamper).runOnce | defined in router_timestamper.go:284&#10;at router_timestamper.go:285: calling [(*github.com/go&#45;i2p/go&#45;i2p/lib/util/time/sntp.RouterTimestamper).performTimeQuery]">
<path fill="#add8e6" stroke="#000000" stroke-width=".5" d="M500.9149,-408C500.9149,-408 452.5215,-408 452.5215,-408 446.5215,-408 440.5215,-402 440.5215,-396 440.5215,-396 440.5215,-384 440.5215,-384 440.5215,-378 446.5215,-372 452.5215,-372 452.5215,-372 500.9149,-372 500.9149,-372 506.9149,-372 512.9149,-378 512.9149,-384 512.9149,-384 512.9149,-396 512.9149,-396 512.9149,-402 506.9149,-408 500.9149,-408"/>
<text text-anchor="middle" x="476.7182" y="-385.8" font-family="Verdana" font-size="14.00" fill="#000000">runOnce</text>
</a>
</g>
</g>
<!-- (*github.com/go&#45;i2p/go&#45;i2p/lib/util/time/sntp.RouterTimestamper).runOnce&#45;&gt;(*github.com/go&#45;i2p/go&#45;i2p/lib/util/time/sntp.RouterTimestamper).performTimeQuery -->
<g id="edge10" class="edge">
<title>(*github.com/go&#45;i2p/go&#45;i2p/lib/util/time/sntp.RouterTimestamper).runOnce&#45;&gt;(*github.com/go&#45;i2p/go&#45;i2p/lib/util/time/sntp.RouterTimestamper).performTimeQuery</title>
<g id="a_edge10"><a xlink:title="at router_timestamper.go:285: calling [(*github.com/go&#45;i2p/go&#45;i2p/lib/util/time/sntp.RouterTimestamper).performTimeQuery]">
<path fill="none" stroke="#000000" d="M512.9592,-390C534.7608,-390 563.365,-390 590.0004,-390"/>
<polygon fill="#000000" stroke="#000000" points="590.094,-393.5001 600.0939,-390 590.0939,-386.5001 590.094,-393.5001"/>
</a>
</g>
</g>
<!-- (*github.com/go&#45;i2p/go&#45;i2p/lib/util/time/sntp.RouterTimestamper).TimestampNow -->
<g id="node17" class="node">
<title>(*github.com/go&#45;i2p/go&#45;i2p/lib/util/time/sntp.RouterTimestamper).TimestampNow</title>
<g id="a_node17"><a xlink:title="(*github.com/go&#45;i2p/go&#45;i2p/lib/util/time/sntp.RouterTimestamper).TimestampNow | defined in router_timestamper.go:121&#10;at router_timestamper.go:123: calling [(*github.com/go&#45;i2p/go&#45;i2p/lib/util/time/sntp.RouterTimestamper).runOnce]">
<path fill="#add8e6" stroke="#000000" stroke-width="1.5" d="M347.1672,-408C347.1672,-408 256.7628,-408 256.7628,-408 250.7628,-408 244.7628,-402 244.7628,-396 244.7628,-396 244.7628,-384 244.7628,-384 244.7628,-378 250.7628,-372 256.7628,-372 256.7628,-372 347.1672,-372 347.1672,-372 353.1672,-372 359.1672,-378 359.1672,-384 359.1672,-384 359.1672,-396 359.1672,-396 359.1672,-402 353.1672,-408 347.1672,-408"/>
<text text-anchor="middle" x="301.965" y="-385.8" font-family="Verdana" font-size="14.00" fill="#000000">TimestampNow</text>
</a>
</g>
</g>
<!-- (*github.com/go&#45;i2p/go&#45;i2p/lib/util/time/sntp.RouterTimestamper).TimestampNow&#45;&gt;(*github.com/go&#45;i2p/go&#45;i2p/lib/util/time/sntp.RouterTimestamper).runOnce -->
<g id="edge5" class="edge">
<title>(*github.com/go&#45;i2p/go&#45;i2p/lib/util/time/sntp.RouterTimestamper).TimestampNow&#45;&gt;(*github.com/go&#45;i2p/go&#45;i2p/lib/util/time/sntp.RouterTimestamper).runOnce</title>
<g id="a_edge5"><a xlink:title="at router_timestamper.go:123: calling [(*github.com/go&#45;i2p/go&#45;i2p/lib/util/time/sntp.RouterTimestamper).runOnce]">
<path fill="none" stroke="#000000" d="M359.1857,-390C377.8039,-390 398.5042,-390 417.2807,-390"/>
<polygon fill="#000000" stroke="#000000" points="430.5192,-393.5 440.5192,-390 430.5192,-386.5 430.5192,-393.5"/>
<polyline fill="none" stroke="#000000" points="430.5192,-390 425.5192,-390.0001 "/>
<ellipse fill="none" stroke="#000000" cx="421.5192" cy="-390.0001" rx="4" ry="4"/>
</a>
</g>
</g>
<!-- (*github.com/go&#45;i2p/go&#45;i2p/lib/util/time/sntp.RouterTimestamper).GetCurrentTime -->
<g id="node18" class="node">
<title>(*github.com/go&#45;i2p/go&#45;i2p/lib/util/time/sntp.RouterTimestamper).GetCurrentTime</title>
<g id="a_node18"><a xlink:title="(*github.com/go&#45;i2p/go&#45;i2p/lib/util/time/sntp.RouterTimestamper).GetCurrentTime | defined in router_timestamper.go:424&#10;at router_timestamper.go:427: calling [(*github.com/go&#45;i2p/go&#45;i2p/lib/util/time/sntp.RouterTimestamper).TimestampNow]">
<path fill="#add8e6" stroke="#000000" stroke-width="1.5" d="M135.6792,-408C135.6792,-408 43.6308,-408 43.6308,-408 37.6308,-408 31.6308,-402 31.6308,-396 31.6308,-396 31.6308,-384 31.6308,-384 31.6308,-378 37.6308,-372 43.6308,-372 43.6308,-372 135.6792,-372 135.6792,-372 141.6792,-372 147.6792,-378 147.6792,-384 147.6792,-384 147.6792,-396 147.6792,-396 147.6792,-402 141.6792,-408 135.6792,-408"/>
<text text-anchor="middle" x="89.655" y="-385.8" font-family="Verdana" font-size="14.00" fill="#000000">GetCurrentTime</text>
</a>
</g>
</g>
<!-- (*github.com/go&#45;i2p/go&#45;i2p/lib/util/time/sntp.RouterTimestamper).GetCurrentTime&#45;&gt;(*github.com/go&#45;i2p/go&#45;i2p/lib/util/time/sntp.RouterTimestamper).TimestampNow -->
<g id="edge16" class="edge">
<title>(*github.com/go&#45;i2p/go&#45;i2p/lib/util/time/sntp.RouterTimestamper).GetCurrentTime&#45;&gt;(*github.com/go&#45;i2p/go&#45;i2p/lib/util/time/sntp.RouterTimestamper).TimestampNow</title>
<g id="a_edge16"><a xlink:title="at router_timestamper.go:427: calling [(*github.com/go&#45;i2p/go&#45;i2p/lib/util/time/sntp.RouterTimestamper).TimestampNow]">
<path fill="none" stroke="#000000" d="M147.9505,-390C174.7367,-390 206.6648,-390 234.487,-390"/>
<polygon fill="#000000" stroke="#000000" points="234.5344,-393.5001 244.5344,-390 234.5343,-386.5001 234.5344,-393.5001"/>
</a>
</g>
</g>
<!-- (*github.com/go&#45;i2p/go&#45;i2p/lib/util/time/sntp.RouterTimestamper).run -->
<g id="node19" class="node">
<title>(*github.com/go&#45;i2p/go&#45;i2p/lib/util/time/sntp.RouterTimestamper).run</title>
<g id="a_node19"><a xlink:title="(*github.com/go&#45;i2p/go&#45;i2p/lib/util/time/sntp.RouterTimestamper).run | defined in router_timestamper.go:221&#10;at router_timestamper.go:224: calling [(*github.com/go&#45;i2p/go&#45;i2p/lib/util/time/sntp.RouterTimestamper).performTimeQuery]&#10;at router_timestamper.go:236: calling [github.com/go&#45;i2p/crypto/rand.Int63n]">
<path fill="#add8e6" stroke="#000000" stroke-width=".5" d="M491.7182,-347C491.7182,-347 461.7182,-347 461.7182,-347 455.7182,-347 449.7182,-341 449.7182,-335 449.7182,-335 449.7182,-323 449.7182,-323 449.7182,-317 455.7182,-311 461.7182,-311 461.7182,-311 491.7182,-311 491.7182,-311 497.7182,-311 503.7182,-317 503.7182,-323 503.7182,-323 503.7182,-335 503.7182,-335 503.7182,-341 497.7182,-347 491.7182,-347"/>
<text text-anchor="middle" x="476.7182" y="-324.8" font-family="Verdana" font-size="14.00" fill="#000000">run</text>
</a>
</g>
</g>
<!-- (*github.com/go&#45;i2p/go&#45;i2p/lib/util/time/sntp.RouterTimestamper).run&#45;&gt;github.com/go&#45;i2p/crypto/rand.Int63n -->
<g id="edge6" class="edge">
<title>(*github.com/go&#45;i2p/go&#45;i2p/lib/util/time/sntp.RouterTimestamper).run&#45;&gt;github.com/go&#45;i2p/crypto/rand.Int63n</title>
<g id="a_edge6"><a xlink:title="at router_timestamper.go:236: calling [github.com/go&#45;i2p/crypto/rand.Int63n]">
<path fill="none" stroke="#8b4513" d="M503.7811,-313.0838C525.4211,-300.8593 556.8297,-284.2233 585.8164,-273 598.9488,-267.9153 613.7075,-263.5399 627.0045,-260.0608"/>
<polygon fill="#8b4513" stroke="#8b4513" points="627.9979,-263.4199 636.8367,-257.5781 626.2841,-256.6329 627.9979,-263.4199"/>
</a>
</g>
</g>
<!-- (*github.com/go&#45;i2p/go&#45;i2p/lib/util/time/sntp.RouterTimestamper).run&#45;&gt;(*github.com/go&#45;i2p/go&#45;i2p/lib/util/time/sntp.RouterTimestamper).performTimeQuery -->
<g id="edge1" class="edge">
<title>(*github.com/go&#45;i2p/go&#45;i2p/lib/util/time/sntp.RouterTimestamper).run&#45;&gt;(*github.com/go&#45;i2p/go&#45;i2p/lib/util/time/sntp.RouterTimestamper).performTimeQuery</title>
<g id="a_edge1"><a xlink:title="at router_timestamper.go:224: calling [(*github.com/go&#45;i2p/go&#45;i2p/lib/util/time/sntp.RouterTimestamper).performTimeQuery]">
<path fill="none" stroke="#000000" d="M503.8667,-339.377C525.8187,-347.6046 557.6035,-359.1503 585.8164,-368 587.2535,-368.4508 588.7066,-368.9009 590.172,-369.3498"/>
<polygon fill="#000000" stroke="#000000" points="589.4012,-372.7724 599.9848,-372.2862 591.408,-366.0662 589.4012,-372.7724"/>
</a>
</g>
</g>
<!-- (*github.com/go&#45;i2p/go&#45;i2p/lib/util/time/sntp.RouterTimestamper).validateResponse -->
<g id="node20" class="node">
<title>(*github.com/go&#45;i2p/go&#45;i2p/lib/util/time/sntp.RouterTimestamper).validateResponse</title>
<g id="a_node20"><a xlink:title="(*github.com/go&#45;i2p/go&#45;i2p/lib/util/time/sntp.RouterTimestamper).validateResponse | defined in verification.go:10&#10;at verification.go:28: calling [github.com/go&#45;i2p/go&#45;i2p/lib/util/time/sntp.absDuration]">
<path fill="#add8e6" stroke="#000000" stroke-width=".5" d="M138.6256,-469C138.6256,-469 40.6844,-469 40.6844,-469 34.6844,-469 28.6844,-463 28.6844,-457 28.6844,-457 28.6844,-445 28.6844,-445 28.6844,-439 34.6844,-433 40.6844,-433 40.6844,-433 138.6256,-433 138.6256,-433 144.6256,-433 150.6256,-439 150.6256,-445 150.6256,-445 150.6256,-457 150.6256,-457 150.6256,-463 144.6256,-469 138.6256,-469"/>
<text text-anchor="middle" x="89.655" y="-446.8" font-family="Verdana" font-size="14.00" fill="#000000">validateResponse</text>
</a>
</g>
</g>
<!-- (*github.com/go&#45;i2p/go&#45;i2p/lib/util/time/sntp.RouterTimestamper).validateResponse&#45;&gt;github.com/go&#45;i2p/go&#45;i2p/lib/util/time/sntp.absDuration -->
<g id="edge19" class="edge">
<title>(*github.com/go&#45;i2p/go&#45;i2p/lib/util/time/sntp.RouterTimestamper).validateResponse&#45;&gt;github.com/go&#45;i2p/go&#45;i2p/lib/util/time/sntp.absDuration</title>
<g id="a_edge19"><a xlink:title="at verification.go:28: calling [github.com/go&#45;i2p/go&#45;i2p/lib/util/time/sntp.absDuration]">
<path fill="none" stroke="#000000" d="M150.7035,-459.8486C276.0906,-477.7634 571.8203,-518.6846 821.2106,-543 906.8083,-551.3457 1006.3432,-557.5892 1067.203,-561.0165"/>
<polygon fill="#000000" stroke="#000000" points="1067.1876,-564.521 1077.3669,-561.5829 1067.5772,-557.5318 1067.1876,-564.521"/>
</a>
</g>
</g>
<!-- (*github.com/go&#45;i2p/go&#45;i2p/lib/util/time/sntp.RouterTimestamper).Start -->
<g id="node21" class="node">
<title>(*github.com/go&#45;i2p/go&#45;i2p/lib/util/time/sntp.RouterTimestamper).Start</title>
<g id="a_node21"><a xlink:title="(*github.com/go&#45;i2p/go&#45;i2p/lib/util/time/sntp.RouterTimestamper).Start | defined in router_timestamper.go:71&#10;at router_timestamper.go:77: calling [(*github.com/go&#45;i2p/go&#45;i2p/lib/util/time/sntp.RouterTimestamper).run]">
<path fill="#add8e6" stroke="#000000" stroke-width="1.5" d="M316.965,-347C316.965,-347 286.965,-347 286.965,-347 280.965,-347 274.965,-341 274.965,-335 274.965,-335 274.965,-323 274.965,-323 274.965,-317 280.965,-311 286.965,-311 286.965,-311 316.965,-311 316.965,-311 322.965,-311 328.965,-317 328.965,-323 328.965,-323 328.965,-335 328.965,-335 328.965,-341 322.965,-347 316.965,-347"/>
<text text-anchor="middle" x="301.965" y="-324.8" font-family="Verdana" font-size="14.00" fill="#000000">Start</text>
</a>
</g>
</g>
<!-- (*github.com/go&#45;i2p/go&#45;i2p/lib/util/time/sntp.RouterTimestamper).Start&#45;&gt;(*github.com/go&#45;i2p/go&#45;i2p/lib/util/time/sntp.RouterTimestamper).run -->
<g id="edge20" class="edge">
<title>(*github.com/go&#45;i2p/go&#45;i2p/lib/util/time/sntp.RouterTimestamper).Start&#45;&gt;(*github.com/go&#45;i2p/go&#45;i2p/lib/util/time/sntp.RouterTimestamper).run</title>
<g id="a_edge20"><a xlink:title="at router_timestamper.go:77: calling [(*github.com/go&#45;i2p/go&#45;i2p/lib/util/time/sntp.RouterTimestamper).run]">
<path fill="none" stroke="#000000" d="M329.2702,-329C355.1753,-329 394.7342,-329 426.3574,-329"/>
<polygon fill="#000000" stroke="#000000" points="439.6048,-332.5 449.6048,-329 439.6047,-325.5 439.6048,-332.5"/>
<polyline fill="none" stroke="#000000" points="439.6048,-329 434.6048,-329.0001 "/>
<ellipse fill="none" stroke="#000000" cx="430.6048" cy="-329.0001" rx="4" ry="4"/>
</a>
</g>
</g>
<!-- (*github.com/go&#45;i2p/go&#45;i2p/lib/util/time/sntp.Zones).readContinentFile -->
<g id="node24" class="node">
<title>(*github.com/go&#45;i2p/go&#45;i2p/lib/util/time/sntp.Zones).readContinentFile</title>
<g id="a_node24"><a xlink:title="(*github.com/go&#45;i2p/go&#45;i2p/lib/util/time/sntp.Zones).readContinentFile | defined in zones.go:54">
<path fill="#add8e6" stroke="#000000" stroke-width=".5" d="M1384.1792,-86C1384.1792,-86 1282.9968,-86 1282.9968,-86 1276.9968,-86 1270.9968,-80 1270.9968,-74 1270.9968,-74 1270.9968,-62 1270.9968,-62 1270.9968,-56 1276.9968,-50 1282.9968,-50 1282.9968,-50 1384.1792,-50 1384.1792,-50 1390.1792,-50 1396.1792,-56 1396.1792,-62 1396.1792,-62 1396.1792,-74 1396.1792,-74 1396.1792,-80 1390.1792,-86 1384.1792,-86"/>
<text text-anchor="middle" x="1333.588" y="-63.8" font-family="Verdana" font-size="14.00" fill="#000000">readContinentFile</text>
</a>
</g>
</g>
<!-- (*github.com/go&#45;i2p/go&#45;i2p/lib/util/time/sntp.Zones).initialize&#45;&gt;(*github.com/go&#45;i2p/go&#45;i2p/lib/util/time/sntp.Zones).readContinentFile -->
<g id="edge11" class="edge">
<title>(*github.com/go&#45;i2p/go&#45;i2p/lib/util/time/sntp.Zones).initialize&#45;&gt;(*github.com/go&#45;i2p/go&#45;i2p/lib/util/time/sntp.Zones).readContinentFile</title>
<g id="a_edge11"><a xlink:title="at zones.go:51: calling [(*github.com/go&#45;i2p/go&#45;i2p/lib/util/time/sntp.Zones).readContinentFile]">
<path fill="none" stroke="#000000" d="M1160.3704,-68C1187.9205,-68 1226.6146,-68 1260.4451,-68"/>
<polygon fill="#000000" stroke="#000000" points="1260.7704,-71.5001 1270.7704,-68 1260.7703,-64.5001 1260.7704,-71.5001"/>
</a>
</g>
</g>
</g>
</svg>
