<?xml version="1.0" encoding="UTF-8" standalone="no"?>
<!DOCTYPE svg PUBLIC "-//W3C//DTD SVG 1.1//EN"
 "http://www.w3.org/Graphics/SVG/1.1/DTD/svg11.dtd">
<!-- Generated by graphviz version 2.40.1 (20161225.0304)
 -->
<!-- Title: gocallvis Pages: 1 -->
<svg width="1420pt" height="539pt"
 viewBox="0.00 0.00 1420.13 539.00" xmlns="http://www.w3.org/2000/svg" xmlns:xlink="http://www.w3.org/1999/xlink">
<g id="graph0" class="graph" transform="scale(1 1) rotate(0) translate(0 539)">
<title>gocallvis</title>
<polygon fill="#d3d3d3" stroke="transparent" points="0,0 0,-539 1420.1336,-539 1420.1336,0 0,0"/>
<g id="clust1" class="cluster">
<title>cluster_focus</title>
<polygon fill="#e6ecfa" stroke="#000000" stroke-width=".5" points="8,-8 8,-531 1412.1336,-531 1412.1336,-8 8,-8"/>
<text text-anchor="middle" x="710.0668" y="-510.8" font-family="Arial" font-size="18.00" fill="#000000">sntp</text>
</g>
<g id="clust4" class="cluster">
<title>cluster_*github.com/go&#45;i2p/go&#45;i2p/lib/util/time/sntp.Zones</title>
<g id="a_clust4"><a xlink:title="type: *github.com/go&#45;i2p/go&#45;i2p/lib/util/time/sntp.Zones">
<path fill="#b0c4de" stroke="#000000" stroke-width=".5" d="M1091.3404,-60C1091.3404,-60 1392.1336,-60 1392.1336,-60 1398.1336,-60 1404.1336,-66 1404.1336,-72 1404.1336,-72 1404.1336,-187 1404.1336,-187 1404.1336,-193 1398.1336,-199 1392.1336,-199 1392.1336,-199 1091.3404,-199 1091.3404,-199 1085.3404,-199 1079.3404,-193 1079.3404,-187 1079.3404,-187 1079.3404,-72 1079.3404,-72 1079.3404,-66 1085.3404,-60 1091.3404,-60"/>
<text text-anchor="middle" x="1241.737" y="-68.5" font-family="Arial" font-size="15.00" fill="#222222">(*Zones)</text>
</a>
</g>
</g>
<g id="clust3" class="cluster">
<title>cluster_*github.com/go&#45;i2p/go&#45;i2p/lib/util/time/sntp.RouterTimestamper</title>
<g id="a_clust3"><a xlink:title="type: *github.com/go&#45;i2p/go&#45;i2p/lib/util/time/sntp.RouterTimestamper">
<path fill="#b0c4de" stroke="#000000" stroke-width=".5" d="M32.6697,-207C32.6697,-207 1163.3285,-207 1163.3285,-207 1169.3285,-207 1175.3285,-213 1175.3285,-219 1175.3285,-219 1175.3285,-395 1175.3285,-395 1175.3285,-401 1169.3285,-407 1163.3285,-407 1163.3285,-407 32.6697,-407 32.6697,-407 26.6697,-407 20.6697,-401 20.6697,-395 20.6697,-395 20.6697,-219 20.6697,-219 20.6697,-213 26.6697,-207 32.6697,-207"/>
<text text-anchor="middle" x="597.9991" y="-215.5" font-family="Arial" font-size="15.00" fill="#222222">(*RouterTimestamper)</text>
</a>
</g>
</g>
<g id="clust2" class="cluster">
<title>cluster_*github.com/go&#45;i2p/go&#45;i2p/lib/util/time/sntp.DefaultNTPClient</title>
<g id="a_clust2"><a xlink:title="type: *github.com/go&#45;i2p/go&#45;i2p/lib/util/time/sntp.DefaultNTPClient">
<path fill="#b0c4de" stroke="#000000" stroke-width=".5" d="M28,-415C28,-415 151.31,-415 151.31,-415 157.31,-415 163.31,-421 163.31,-427 163.31,-427 163.31,-481 163.31,-481 163.31,-487 157.31,-493 151.31,-493 151.31,-493 28,-493 28,-493 22,-493 16,-487 16,-481 16,-481 16,-427 16,-427 16,-421 22,-415 28,-415"/>
<text text-anchor="middle" x="89.655" y="-423.5" font-family="Arial" font-size="15.00" fill="#222222">(*DefaultNTPClient)</text>
</a>
</g>
</g>
<!-- github.com/go&#45;i2p/go&#45;i2p/lib/util/time/sntp.absDuration -->
<g id="node1" class="node">
<title>github.com/go&#45;i2p/go&#45;i2p/lib/util/time/sntp.absDuration</title>
<g id="a_node1"><a xlink:title="github.com/go&#45;i2p/go&#45;i2p/lib/util/time/sntp.absDuration | defined in router_timestamper.go:386">
<path fill="#add8e6" stroke="#000000" stroke-width=".5" d="M1158.2573,-52C1158.2573,-52 1089.4109,-52 1089.4109,-52 1083.4109,-52 1077.4109,-46 1077.4109,-40 1077.4109,-40 1077.4109,-28 1077.4109,-28 1077.4109,-22 1083.4109,-16 1089.4109,-16 1089.4109,-16 1158.2573,-16 1158.2573,-16 1164.2573,-16 1170.2573,-22 1170.2573,-28 1170.2573,-28 1170.2573,-40 1170.2573,-40 1170.2573,-46 1164.2573,-52 1158.2573,-52"/>
<text text-anchor="middle" x="1123.8341" y="-29.8" font-family="Verdana" font-size="14.00" fill="#000000">absDuration</text>
</a>
</g>
</g>
<!-- github.com/go&#45;i2p/go&#45;i2p/lib/util/time/sntp.getLocalCountryCode -->
<g id="node2" class="node">
<title>github.com/go&#45;i2p/go&#45;i2p/lib/util/time/sntp.getLocalCountryCode</title>
<g id="a_node2"><a xlink:title="github.com/go&#45;i2p/go&#45;i2p/lib/util/time/sntp.getLocalCountryCode | defined in router_timestamper.go:393">
<path fill="#add8e6" stroke="#000000" stroke-width=".5" d="M1186.2513,-451C1186.2513,-451 1061.4169,-451 1061.4169,-451 1055.4169,-451 1049.4169,-445 1049.4169,-439 1049.4169,-439 1049.4169,-427 1049.4169,-427 1049.4169,-421 1055.4169,-415 1061.4169,-415 1061.4169,-415 1186.2513,-415 1186.2513,-415 1192.2513,-415 1198.2513,-421 1198.2513,-427 1198.2513,-427 1198.2513,-439 1198.2513,-439 1198.2513,-445 1192.2513,-451 1186.2513,-451"/>
<text text-anchor="middle" x="1123.8341" y="-428.8" font-family="Verdana" font-size="14.00" fill="#000000">getLocalCountryCode</text>
</a>
</g>
</g>
<!-- github.com/go&#45;i2p/go&#45;i2p/lib/util/time/sntp.checkIPv6Connectivity -->
<g id="node3" class="node">
<title>github.com/go&#45;i2p/go&#45;i2p/lib/util/time/sntp.checkIPv6Connectivity</title>
<g id="a_node3"><a xlink:title="github.com/go&#45;i2p/go&#45;i2p/lib/util/time/sntp.checkIPv6Connectivity | defined in router_timestamper.go:371">
<path fill="#add8e6" stroke="#000000" stroke-width=".5" d="M964.834,-460C964.834,-460 833.0024,-460 833.0024,-460 827.0024,-460 821.0024,-454 821.0024,-448 821.0024,-448 821.0024,-436 821.0024,-436 821.0024,-430 827.0024,-424 833.0024,-424 833.0024,-424 964.834,-424 964.834,-424 970.834,-424 976.834,-430 976.834,-436 976.834,-436 976.834,-448 976.834,-448 976.834,-454 970.834,-460 964.834,-460"/>
<text text-anchor="middle" x="898.9182" y="-437.8" font-family="Verdana" font-size="14.00" fill="#000000">checkIPv6Connectivity</text>
</a>
</g>
</g>
<!-- github.com/go&#45;i2p/go&#45;i2p/lib/util/time/sntp.NewZones -->
<g id="node4" class="node">
<title>github.com/go&#45;i2p/go&#45;i2p/lib/util/time/sntp.NewZones</title>
<g id="a_node4"><a xlink:title="github.com/go&#45;i2p/go&#45;i2p/lib/util/time/sntp.NewZones | defined in zones.go:19&#10;at zones.go:24: calling [(*github.com/go&#45;i2p/go&#45;i2p/lib/util/time/sntp.Zones).initialize]">
<path fill="#add8e6" stroke="#000000" stroke-width="1.5" d="M929.0586,-157C929.0586,-157 868.7778,-157 868.7778,-157 862.7778,-157 856.7778,-151 856.7778,-145 856.7778,-145 856.7778,-133 856.7778,-133 856.7778,-127 862.7778,-121 868.7778,-121 868.7778,-121 929.0586,-121 929.0586,-121 935.0586,-121 941.0586,-127 941.0586,-133 941.0586,-133 941.0586,-145 941.0586,-145 941.0586,-151 935.0586,-157 929.0586,-157"/>
<text text-anchor="middle" x="898.9182" y="-134.8" font-family="Verdana" font-size="14.00" fill="#000000">NewZones</text>
</a>
</g>
</g>
<!-- (*github.com/go&#45;i2p/go&#45;i2p/lib/util/time/sntp.Zones).initialize -->
<g id="node19" class="node">
<title>(*github.com/go&#45;i2p/go&#45;i2p/lib/util/time/sntp.Zones).initialize</title>
<g id="a_node19"><a xlink:title="(*github.com/go&#45;i2p/go&#45;i2p/lib/util/time/sntp.Zones).initialize | defined in zones.go:36&#10;at zones.go:51: calling [(*github.com/go&#45;i2p/go&#45;i2p/lib/util/time/sntp.Zones).readContinentFile]">
<path fill="#add8e6" stroke="#000000" stroke-width=".5" d="M1148.3215,-130C1148.3215,-130 1099.3467,-130 1099.3467,-130 1093.3467,-130 1087.3467,-124 1087.3467,-118 1087.3467,-118 1087.3467,-106 1087.3467,-106 1087.3467,-100 1093.3467,-94 1099.3467,-94 1099.3467,-94 1148.3215,-94 1148.3215,-94 1154.3215,-94 1160.3215,-100 1160.3215,-106 1160.3215,-106 1160.3215,-118 1160.3215,-118 1160.3215,-124 1154.3215,-130 1148.3215,-130"/>
<text text-anchor="middle" x="1123.8341" y="-107.8" font-family="Verdana" font-size="14.00" fill="#000000">initialize</text>
</a>
</g>
</g>
<!-- github.com/go&#45;i2p/go&#45;i2p/lib/util/time/sntp.NewZones&#45;&gt;(*github.com/go&#45;i2p/go&#45;i2p/lib/util/time/sntp.Zones).initialize -->
<g id="edge1" class="edge">
<title>github.com/go&#45;i2p/go&#45;i2p/lib/util/time/sntp.NewZones&#45;&gt;(*github.com/go&#45;i2p/go&#45;i2p/lib/util/time/sntp.Zones).initialize</title>
<g id="a_edge1"><a xlink:title="at zones.go:24: calling [(*github.com/go&#45;i2p/go&#45;i2p/lib/util/time/sntp.Zones).initialize]">
<path fill="none" stroke="#000000" d="M941.2232,-133.9215C979.9704,-129.2701 1037.2175,-122.3979 1077.2557,-117.5915"/>
<polygon fill="#000000" stroke="#000000" points="1077.7853,-121.0531 1087.2968,-116.3861 1076.9509,-114.103 1077.7853,-121.0531"/>
</a>
</g>
</g>
<!-- github.com/go&#45;i2p/go&#45;i2p/lib/util/time/sntp.NewRouterTimestamper -->
<g id="node5" class="node">
<title>github.com/go&#45;i2p/go&#45;i2p/lib/util/time/sntp.NewRouterTimestamper</title>
<g id="a_node5"><a xlink:title="github.com/go&#45;i2p/go&#45;i2p/lib/util/time/sntp.NewRouterTimestamper | defined in router_timestamper.go:55&#10;at router_timestamper.go:61: calling [github.com/go&#45;i2p/go&#45;i2p/lib/util/time/sntp.NewZones]&#10;at router_timestamper.go:65: calling [(*github.com/go&#45;i2p/go&#45;i2p/lib/util/time/sntp.RouterTimestamper).updateConfig]">
<path fill="#add8e6" stroke="#000000" stroke-width="1.5" d="M736.4082,-164C736.4082,-164 597.6188,-164 597.6188,-164 591.6188,-164 585.6188,-158 585.6188,-152 585.6188,-152 585.6188,-140 585.6188,-140 585.6188,-134 591.6188,-128 597.6188,-128 597.6188,-128 736.4082,-128 736.4082,-128 742.4082,-128 748.4082,-134 748.4082,-140 748.4082,-140 748.4082,-152 748.4082,-152 748.4082,-158 742.4082,-164 736.4082,-164"/>
<text text-anchor="middle" x="667.0135" y="-141.8" font-family="Verdana" font-size="14.00" fill="#000000">NewRouterTimestamper</text>
</a>
</g>
</g>
<!-- github.com/go&#45;i2p/go&#45;i2p/lib/util/time/sntp.NewRouterTimestamper&#45;&gt;github.com/go&#45;i2p/go&#45;i2p/lib/util/time/sntp.NewZones -->
<g id="edge2" class="edge">
<title>github.com/go&#45;i2p/go&#45;i2p/lib/util/time/sntp.NewRouterTimestamper&#45;&gt;github.com/go&#45;i2p/go&#45;i2p/lib/util/time/sntp.NewZones</title>
<g id="a_edge2"><a xlink:title="at router_timestamper.go:61: calling [github.com/go&#45;i2p/go&#45;i2p/lib/util/time/sntp.NewZones]">
<path fill="none" stroke="#000000" d="M748.4483,-143.5419C780.9942,-142.5595 817.5321,-141.4566 846.4526,-140.5837"/>
<polygon fill="#000000" stroke="#000000" points="846.8515,-144.0733 856.7413,-140.2731 846.6402,-137.0765 846.8515,-144.0733"/>
</a>
</g>
</g>
<!-- (*github.com/go&#45;i2p/go&#45;i2p/lib/util/time/sntp.RouterTimestamper).updateConfig -->
<g id="node10" class="node">
<title>(*github.com/go&#45;i2p/go&#45;i2p/lib/util/time/sntp.RouterTimestamper).updateConfig</title>
<g id="a_node10"><a xlink:title="(*github.com/go&#45;i2p/go&#45;i2p/lib/util/time/sntp.RouterTimestamper).updateConfig | defined in router_timestamper.go:331&#10;at router_timestamper.go:357: calling [(*github.com/go&#45;i2p/go&#45;i2p/lib/util/time/sntp.Zones).GetZone]&#10;at router_timestamper.go:348: calling [github.com/go&#45;i2p/go&#45;i2p/lib/util/time/sntp.getLocalCountryCode]">
<path fill="#add8e6" stroke="#000000" stroke-width=".5" d="M937.126,-338C937.126,-338 860.7104,-338 860.7104,-338 854.7104,-338 848.7104,-332 848.7104,-326 848.7104,-326 848.7104,-314 848.7104,-314 848.7104,-308 854.7104,-302 860.7104,-302 860.7104,-302 937.126,-302 937.126,-302 943.126,-302 949.126,-308 949.126,-314 949.126,-314 949.126,-326 949.126,-326 949.126,-332 943.126,-338 937.126,-338"/>
<text text-anchor="middle" x="898.9182" y="-315.8" font-family="Verdana" font-size="14.00" fill="#000000">updateConfig</text>
</a>
</g>
</g>
<!-- github.com/go&#45;i2p/go&#45;i2p/lib/util/time/sntp.NewRouterTimestamper&#45;&gt;(*github.com/go&#45;i2p/go&#45;i2p/lib/util/time/sntp.RouterTimestamper).updateConfig -->
<g id="edge9" class="edge">
<title>github.com/go&#45;i2p/go&#45;i2p/lib/util/time/sntp.NewRouterTimestamper&#45;&gt;(*github.com/go&#45;i2p/go&#45;i2p/lib/util/time/sntp.RouterTimestamper).updateConfig</title>
<g id="a_edge9"><a xlink:title="at router_timestamper.go:65: calling [(*github.com/go&#45;i2p/go&#45;i2p/lib/util/time/sntp.RouterTimestamper).updateConfig]">
<path fill="none" stroke="#000000" d="M698.2421,-164.1692C714.0193,-174.0679 732.9914,-187.1144 748.2106,-201 786.0037,-235.4814 779.7563,-260.0195 821.2106,-290 826.7217,-293.9857 832.8306,-297.5195 839.1317,-300.6329"/>
<polygon fill="#000000" stroke="#000000" points="837.904,-303.9201 848.4536,-304.8973 840.8159,-297.5545 837.904,-303.9201"/>
</a>
</g>
</g>
<!-- github.com/beevik/ntp.QueryWithOptions -->
<g id="node6" class="node">
<title>github.com/beevik/ntp.QueryWithOptions</title>
<g id="a_node6"><a xlink:title="github.com/beevik/ntp.QueryWithOptions | defined in ntp.go:432">
<path fill="#ffe4b5" stroke="#000000" stroke-width="1.5" d="M355.7754,-485C355.7754,-485 248.1546,-485 248.1546,-485 242.1546,-485 236.1546,-479 236.1546,-473 236.1546,-473 236.1546,-461 236.1546,-461 236.1546,-455 242.1546,-449 248.1546,-449 248.1546,-449 355.7754,-449 355.7754,-449 361.7754,-449 367.7754,-455 367.7754,-461 367.7754,-461 367.7754,-473 367.7754,-473 367.7754,-479 361.7754,-485 355.7754,-485"/>
<text text-anchor="middle" x="301.965" y="-471.2" font-family="Verdana" font-size="14.00" fill="#000000">ntp</text>
<text text-anchor="middle" x="301.965" y="-454.4" font-family="Verdana" font-size="14.00" fill="#000000">QueryWithOptions</text>
</a>
</g>
</g>
<!-- (*github.com/go&#45;i2p/go&#45;i2p/lib/util/time/sntp.DefaultNTPClient).QueryWithOptions -->
<g id="node7" class="node">
<title>(*github.com/go&#45;i2p/go&#45;i2p/lib/util/time/sntp.DefaultNTPClient).QueryWithOptions</title>
<g id="a_node7"><a xlink:title="(*github.com/go&#45;i2p/go&#45;i2p/lib/util/time/sntp.DefaultNTPClient).QueryWithOptions | defined in router_timestamper.go:20&#10;at router_timestamper.go:21: calling [github.com/beevik/ntp.QueryWithOptions]">
<path fill="#add8e6" stroke="#000000" stroke-width="1.5" d="M143.4654,-485C143.4654,-485 35.8446,-485 35.8446,-485 29.8446,-485 23.8446,-479 23.8446,-473 23.8446,-473 23.8446,-461 23.8446,-461 23.8446,-455 29.8446,-449 35.8446,-449 35.8446,-449 143.4654,-449 143.4654,-449 149.4654,-449 155.4654,-455 155.4654,-461 155.4654,-461 155.4654,-473 155.4654,-473 155.4654,-479 149.4654,-485 143.4654,-485"/>
<text text-anchor="middle" x="89.655" y="-462.8" font-family="Verdana" font-size="14.00" fill="#000000">QueryWithOptions</text>
</a>
</g>
</g>
<!-- (*github.com/go&#45;i2p/go&#45;i2p/lib/util/time/sntp.DefaultNTPClient).QueryWithOptions&#45;&gt;github.com/beevik/ntp.QueryWithOptions -->
<g id="edge10" class="edge">
<title>(*github.com/go&#45;i2p/go&#45;i2p/lib/util/time/sntp.DefaultNTPClient).QueryWithOptions&#45;&gt;github.com/beevik/ntp.QueryWithOptions</title>
<g id="a_edge10"><a xlink:title="at router_timestamper.go:21: calling [github.com/beevik/ntp.QueryWithOptions]">
<path fill="none" stroke="#8b4513" d="M155.3772,-467C177.7612,-467 202.965,-467 226.0794,-467"/>
<polygon fill="#8b4513" stroke="#8b4513" points="226.1878,-470.5001 236.1878,-467 226.1878,-463.5001 226.1878,-470.5001"/>
</a>
</g>
</g>
<!-- (*github.com/go&#45;i2p/go&#45;i2p/lib/util/time/sntp.RouterTimestamper).queryTime -->
<g id="node8" class="node">
<title>(*github.com/go&#45;i2p/go&#45;i2p/lib/util/time/sntp.RouterTimestamper).queryTime</title>
<g id="a_node8"><a xlink:title="(*github.com/go&#45;i2p/go&#45;i2p/lib/util/time/sntp.RouterTimestamper).queryTime | defined in router_timestamper.go:276&#10;at router_timestamper.go:319: calling [(*github.com/go&#45;i2p/go&#45;i2p/lib/util/time/sntp.RouterTimestamper).stampTime]&#10;at router_timestamper.go:303: calling [github.com/go&#45;i2p/go&#45;i2p/lib/util/time/sntp.absDuration]&#10;at router_timestamper.go:312: calling [github.com/go&#45;i2p/go&#45;i2p/lib/util/time/sntp.absDuration]&#10;at router_timestamper.go:304: calling [github.com/go&#45;i2p/go&#45;i2p/lib/util/time/sntp.absDuration]">
<path fill="#add8e6" stroke="#000000" stroke-width=".5" d="M929.8429,-277C929.8429,-277 867.9935,-277 867.9935,-277 861.9935,-277 855.9935,-271 855.9935,-265 855.9935,-265 855.9935,-253 855.9935,-253 855.9935,-247 861.9935,-241 867.9935,-241 867.9935,-241 929.8429,-241 929.8429,-241 935.8429,-241 941.8429,-247 941.8429,-253 941.8429,-253 941.8429,-265 941.8429,-265 941.8429,-271 935.8429,-277 929.8429,-277"/>
<text text-anchor="middle" x="898.9182" y="-254.8" font-family="Verdana" font-size="14.00" fill="#000000">queryTime</text>
</a>
</g>
</g>
<!-- (*github.com/go&#45;i2p/go&#45;i2p/lib/util/time/sntp.RouterTimestamper).queryTime&#45;&gt;github.com/go&#45;i2p/go&#45;i2p/lib/util/time/sntp.absDuration -->
<g id="edge16" class="edge">
<title>(*github.com/go&#45;i2p/go&#45;i2p/lib/util/time/sntp.RouterTimestamper).queryTime&#45;&gt;github.com/go&#45;i2p/go&#45;i2p/lib/util/time/sntp.absDuration</title>
<g id="a_edge16"><a xlink:title="at router_timestamper.go:303: calling [github.com/go&#45;i2p/go&#45;i2p/lib/util/time/sntp.absDuration]&#10;at router_timestamper.go:312: calling [github.com/go&#45;i2p/go&#45;i2p/lib/util/time/sntp.absDuration]&#10;at router_timestamper.go:304: calling [github.com/go&#45;i2p/go&#45;i2p/lib/util/time/sntp.absDuration]">
<path fill="none" stroke="#000000" d="M941.9142,-254.0925C954.2924,-250.8834 967.0278,-245.6182 976.6258,-237 1041.1664,-179.0478 985.4433,-114.3486 1049.6258,-56 1054.8365,-51.2629 1061.0237,-47.5433 1067.5692,-44.6232"/>
<polygon fill="#000000" stroke="#000000" points="1069.2496,-47.7281 1077.3435,-40.8915 1066.7528,-41.1885 1069.2496,-47.7281"/>
</a>
</g>
</g>
<!-- (*github.com/go&#45;i2p/go&#45;i2p/lib/util/time/sntp.RouterTimestamper).stampTime -->
<g id="node9" class="node">
<title>(*github.com/go&#45;i2p/go&#45;i2p/lib/util/time/sntp.RouterTimestamper).stampTime</title>
<g id="a_node9"><a xlink:title="(*github.com/go&#45;i2p/go&#45;i2p/lib/util/time/sntp.RouterTimestamper).stampTime | defined in router_timestamper.go:323">
<path fill="#add8e6" stroke="#000000" stroke-width=".5" d="M1155.3229,-277C1155.3229,-277 1092.3453,-277 1092.3453,-277 1086.3453,-277 1080.3453,-271 1080.3453,-265 1080.3453,-265 1080.3453,-253 1080.3453,-253 1080.3453,-247 1086.3453,-241 1092.3453,-241 1092.3453,-241 1155.3229,-241 1155.3229,-241 1161.3229,-241 1167.3229,-247 1167.3229,-253 1167.3229,-253 1167.3229,-265 1167.3229,-265 1167.3229,-271 1161.3229,-277 1155.3229,-277"/>
<text text-anchor="middle" x="1123.8341" y="-254.8" font-family="Verdana" font-size="14.00" fill="#000000">stampTime</text>
</a>
</g>
</g>
<!-- (*github.com/go&#45;i2p/go&#45;i2p/lib/util/time/sntp.RouterTimestamper).queryTime&#45;&gt;(*github.com/go&#45;i2p/go&#45;i2p/lib/util/time/sntp.RouterTimestamper).stampTime -->
<g id="edge12" class="edge">
<title>(*github.com/go&#45;i2p/go&#45;i2p/lib/util/time/sntp.RouterTimestamper).queryTime&#45;&gt;(*github.com/go&#45;i2p/go&#45;i2p/lib/util/time/sntp.RouterTimestamper).stampTime</title>
<g id="a_edge12"><a xlink:title="at router_timestamper.go:319: calling [(*github.com/go&#45;i2p/go&#45;i2p/lib/util/time/sntp.RouterTimestamper).stampTime]">
<path fill="none" stroke="#000000" d="M941.7526,-259C978.1397,-259 1030.5595,-259 1069.8194,-259"/>
<polygon fill="#000000" stroke="#000000" points="1070.0083,-262.5001 1080.0083,-259 1070.0083,-255.5001 1070.0083,-262.5001"/>
</a>
</g>
</g>
<!-- (*github.com/go&#45;i2p/go&#45;i2p/lib/util/time/sntp.RouterTimestamper).updateConfig&#45;&gt;github.com/go&#45;i2p/go&#45;i2p/lib/util/time/sntp.getLocalCountryCode -->
<g id="edge18" class="edge">
<title>(*github.com/go&#45;i2p/go&#45;i2p/lib/util/time/sntp.RouterTimestamper).updateConfig&#45;&gt;github.com/go&#45;i2p/go&#45;i2p/lib/util/time/sntp.getLocalCountryCode</title>
<g id="a_edge18"><a xlink:title="at router_timestamper.go:348: calling [github.com/go&#45;i2p/go&#45;i2p/lib/util/time/sntp.getLocalCountryCode]">
<path fill="none" stroke="#000000" d="M949.3331,-337.4698C958.6543,-341.432 968.1229,-345.9748 976.6258,-351 1010.2386,-370.8651 1012.3876,-388.6308 1048.8341,-410.0173"/>
<polygon fill="#000000" stroke="#000000" points="1047.2761,-413.1553 1057.7205,-414.9343 1050.6652,-407.0303 1047.2761,-413.1553"/>
</a>
</g>
</g>
<!-- (*github.com/go&#45;i2p/go&#45;i2p/lib/util/time/sntp.Zones).GetZone -->
<g id="node21" class="node">
<title>(*github.com/go&#45;i2p/go&#45;i2p/lib/util/time/sntp.Zones).GetZone</title>
<g id="a_node21"><a xlink:title="(*github.com/go&#45;i2p/go&#45;i2p/lib/util/time/sntp.Zones).GetZone | defined in zones.go:28">
<path fill="#add8e6" stroke="#000000" stroke-width="1.5" d="M1148.3131,-191C1148.3131,-191 1099.3551,-191 1099.3551,-191 1093.3551,-191 1087.3551,-185 1087.3551,-179 1087.3551,-179 1087.3551,-167 1087.3551,-167 1087.3551,-161 1093.3551,-155 1099.3551,-155 1099.3551,-155 1148.3131,-155 1148.3131,-155 1154.3131,-155 1160.3131,-161 1160.3131,-167 1160.3131,-167 1160.3131,-179 1160.3131,-179 1160.3131,-185 1154.3131,-191 1148.3131,-191"/>
<text text-anchor="middle" x="1123.8341" y="-168.8" font-family="Verdana" font-size="14.00" fill="#000000">GetZone</text>
</a>
</g>
</g>
<!-- (*github.com/go&#45;i2p/go&#45;i2p/lib/util/time/sntp.RouterTimestamper).updateConfig&#45;&gt;(*github.com/go&#45;i2p/go&#45;i2p/lib/util/time/sntp.Zones).GetZone -->
<g id="edge14" class="edge">
<title>(*github.com/go&#45;i2p/go&#45;i2p/lib/util/time/sntp.RouterTimestamper).updateConfig&#45;&gt;(*github.com/go&#45;i2p/go&#45;i2p/lib/util/time/sntp.Zones).GetZone</title>
<g id="a_edge14"><a xlink:title="at router_timestamper.go:357: calling [(*github.com/go&#45;i2p/go&#45;i2p/lib/util/time/sntp.Zones).GetZone]">
<path fill="none" stroke="#000000" d="M949.1949,-307.3083C959.1561,-303.0443 968.9059,-297.4111 976.6258,-290 1005.6323,-262.1538 982.6395,-233.7883 1012.6258,-207 1030.3677,-191.1503 1055.3391,-182.688 1077.1252,-178.1705"/>
<polygon fill="#000000" stroke="#000000" points="1077.9988,-181.5684 1087.1951,-176.3073 1076.7252,-174.6852 1077.9988,-181.5684"/>
</a>
</g>
</g>
<!-- (*github.com/go&#45;i2p/go&#45;i2p/lib/util/time/sntp.RouterTimestamper).performTimeQuery -->
<g id="node11" class="node">
<title>(*github.com/go&#45;i2p/go&#45;i2p/lib/util/time/sntp.RouterTimestamper).performTimeQuery</title>
<g id="a_node11"><a xlink:title="(*github.com/go&#45;i2p/go&#45;i2p/lib/util/time/sntp.RouterTimestamper).performTimeQuery | defined in router_timestamper.go:129&#10;at router_timestamper.go:131: calling [github.com/go&#45;i2p/go&#45;i2p/lib/util/time/sntp.checkIPv6Connectivity]&#10;at router_timestamper.go:141: calling [(*github.com/go&#45;i2p/go&#45;i2p/lib/util/time/sntp.RouterTimestamper).queryTime]&#10;at router_timestamper.go:150: calling [(*github.com/go&#45;i2p/go&#45;i2p/lib/util/time/sntp.RouterTimestamper).queryTime]&#10;at router_timestamper.go:149: calling [(*github.com/go&#45;i2p/go&#45;i2p/lib/util/time/sntp.RouterTimestamper).secureRandBool]&#10;at router_timestamper.go:130: calling [(*github.com/go&#45;i2p/go&#45;i2p/lib/util/time/sntp.RouterTimestamper).updateConfig]">
<path fill="#add8e6" stroke="#000000" stroke-width=".5" d="M721.6312,-353C721.6312,-353 612.3958,-353 612.3958,-353 606.3958,-353 600.3958,-347 600.3958,-341 600.3958,-341 600.3958,-329 600.3958,-329 600.3958,-323 606.3958,-317 612.3958,-317 612.3958,-317 721.6312,-317 721.6312,-317 727.6312,-317 733.6312,-323 733.6312,-329 733.6312,-329 733.6312,-341 733.6312,-341 733.6312,-347 727.6312,-353 721.6312,-353"/>
<text text-anchor="middle" x="667.0135" y="-330.8" font-family="Verdana" font-size="14.00" fill="#000000">performTimeQuery</text>
</a>
</g>
</g>
<!-- (*github.com/go&#45;i2p/go&#45;i2p/lib/util/time/sntp.RouterTimestamper).performTimeQuery&#45;&gt;github.com/go&#45;i2p/go&#45;i2p/lib/util/time/sntp.checkIPv6Connectivity -->
<g id="edge3" class="edge">
<title>(*github.com/go&#45;i2p/go&#45;i2p/lib/util/time/sntp.RouterTimestamper).performTimeQuery&#45;&gt;github.com/go&#45;i2p/go&#45;i2p/lib/util/time/sntp.checkIPv6Connectivity</title>
<g id="a_edge3"><a xlink:title="at router_timestamper.go:131: calling [github.com/go&#45;i2p/go&#45;i2p/lib/util/time/sntp.checkIPv6Connectivity]">
<path fill="none" stroke="#000000" d="M700.1887,-353.133C731.0725,-369.6876 778.615,-394.3472 821.2106,-413 826.8372,-415.4639 832.7462,-417.9119 838.6872,-420.2808"/>
<polygon fill="#000000" stroke="#000000" points="837.4258,-423.5455 848.0137,-423.9293 839.976,-417.0266 837.4258,-423.5455"/>
</a>
</g>
</g>
<!-- (*github.com/go&#45;i2p/go&#45;i2p/lib/util/time/sntp.RouterTimestamper).performTimeQuery&#45;&gt;(*github.com/go&#45;i2p/go&#45;i2p/lib/util/time/sntp.RouterTimestamper).queryTime -->
<g id="edge4" class="edge">
<title>(*github.com/go&#45;i2p/go&#45;i2p/lib/util/time/sntp.RouterTimestamper).performTimeQuery&#45;&gt;(*github.com/go&#45;i2p/go&#45;i2p/lib/util/time/sntp.RouterTimestamper).queryTime</title>
<g id="a_edge4"><a xlink:title="at router_timestamper.go:141: calling [(*github.com/go&#45;i2p/go&#45;i2p/lib/util/time/sntp.RouterTimestamper).queryTime]&#10;at router_timestamper.go:150: calling [(*github.com/go&#45;i2p/go&#45;i2p/lib/util/time/sntp.RouterTimestamper).queryTime]">
<path fill="none" stroke="#000000" d="M734.0434,-317.2901C738.8505,-315.8816 743.6124,-314.4442 748.2106,-313 781.2057,-302.6368 817.7317,-289.5899 846.5604,-278.9166"/>
<polygon fill="#000000" stroke="#000000" points="847.8738,-282.1624 856.0259,-275.3953 845.433,-275.6017 847.8738,-282.1624"/>
</a>
</g>
</g>
<!-- (*github.com/go&#45;i2p/go&#45;i2p/lib/util/time/sntp.RouterTimestamper).performTimeQuery&#45;&gt;(*github.com/go&#45;i2p/go&#45;i2p/lib/util/time/sntp.RouterTimestamper).updateConfig -->
<g id="edge19" class="edge">
<title>(*github.com/go&#45;i2p/go&#45;i2p/lib/util/time/sntp.RouterTimestamper).performTimeQuery&#45;&gt;(*github.com/go&#45;i2p/go&#45;i2p/lib/util/time/sntp.RouterTimestamper).updateConfig</title>
<g id="a_edge19"><a xlink:title="at router_timestamper.go:130: calling [(*github.com/go&#45;i2p/go&#45;i2p/lib/util/time/sntp.RouterTimestamper).updateConfig]">
<path fill="none" stroke="#000000" d="M733.7788,-330.6815C766.8616,-328.5417 806.5018,-325.9777 838.6518,-323.8981"/>
<polygon fill="#000000" stroke="#000000" points="839.056,-327.3794 848.8092,-323.2411 838.6041,-320.394 839.056,-327.3794"/>
</a>
</g>
</g>
<!-- (*github.com/go&#45;i2p/go&#45;i2p/lib/util/time/sntp.RouterTimestamper).secureRandBool -->
<g id="node12" class="node">
<title>(*github.com/go&#45;i2p/go&#45;i2p/lib/util/time/sntp.RouterTimestamper).secureRandBool</title>
<g id="a_node12"><a xlink:title="(*github.com/go&#45;i2p/go&#45;i2p/lib/util/time/sntp.RouterTimestamper).secureRandBool | defined in router_timestamper.go:125">
<path fill="#add8e6" stroke="#000000" stroke-width=".5" d="M944.9466,-399C944.9466,-399 852.8898,-399 852.8898,-399 846.8898,-399 840.8898,-393 840.8898,-387 840.8898,-387 840.8898,-375 840.8898,-375 840.8898,-369 846.8898,-363 852.8898,-363 852.8898,-363 944.9466,-363 944.9466,-363 950.9466,-363 956.9466,-369 956.9466,-375 956.9466,-375 956.9466,-387 956.9466,-387 956.9466,-393 950.9466,-399 944.9466,-399"/>
<text text-anchor="middle" x="898.9182" y="-376.8" font-family="Verdana" font-size="14.00" fill="#000000">secureRandBool</text>
</a>
</g>
</g>
<!-- (*github.com/go&#45;i2p/go&#45;i2p/lib/util/time/sntp.RouterTimestamper).performTimeQuery&#45;&gt;(*github.com/go&#45;i2p/go&#45;i2p/lib/util/time/sntp.RouterTimestamper).secureRandBool -->
<g id="edge13" class="edge">
<title>(*github.com/go&#45;i2p/go&#45;i2p/lib/util/time/sntp.RouterTimestamper).performTimeQuery&#45;&gt;(*github.com/go&#45;i2p/go&#45;i2p/lib/util/time/sntp.RouterTimestamper).secureRandBool</title>
<g id="a_edge13"><a xlink:title="at router_timestamper.go:149: calling [(*github.com/go&#45;i2p/go&#45;i2p/lib/util/time/sntp.RouterTimestamper).secureRandBool]">
<path fill="none" stroke="#000000" d="M733.7788,-348.2434C764.1938,-354.2764 800.1513,-361.4089 830.7354,-367.4754"/>
<polygon fill="#000000" stroke="#000000" points="830.3957,-370.9762 840.8856,-369.4888 831.7577,-364.11 830.3957,-370.9762"/>
</a>
</g>
</g>
<!-- (*github.com/go&#45;i2p/go&#45;i2p/lib/util/time/sntp.RouterTimestamper).validateResponse -->
<g id="node13" class="node">
<title>(*github.com/go&#45;i2p/go&#45;i2p/lib/util/time/sntp.RouterTimestamper).validateResponse</title>
<g id="a_node13"><a xlink:title="(*github.com/go&#45;i2p/go&#45;i2p/lib/util/time/sntp.RouterTimestamper).validateResponse | defined in verification.go:10&#10;at verification.go:28: calling [github.com/go&#45;i2p/go&#45;i2p/lib/util/time/sntp.absDuration]">
<path fill="#add8e6" stroke="#000000" stroke-width=".5" d="M138.6256,-277C138.6256,-277 40.6844,-277 40.6844,-277 34.6844,-277 28.6844,-271 28.6844,-265 28.6844,-265 28.6844,-253 28.6844,-253 28.6844,-247 34.6844,-241 40.6844,-241 40.6844,-241 138.6256,-241 138.6256,-241 144.6256,-241 150.6256,-247 150.6256,-253 150.6256,-253 150.6256,-265 150.6256,-265 150.6256,-271 144.6256,-277 138.6256,-277"/>
<text text-anchor="middle" x="89.655" y="-254.8" font-family="Verdana" font-size="14.00" fill="#000000">validateResponse</text>
</a>
</g>
</g>
<!-- (*github.com/go&#45;i2p/go&#45;i2p/lib/util/time/sntp.RouterTimestamper).validateResponse&#45;&gt;github.com/go&#45;i2p/go&#45;i2p/lib/util/time/sntp.absDuration -->
<g id="edge5" class="edge">
<title>(*github.com/go&#45;i2p/go&#45;i2p/lib/util/time/sntp.RouterTimestamper).validateResponse&#45;&gt;github.com/go&#45;i2p/go&#45;i2p/lib/util/time/sntp.absDuration</title>
<g id="a_edge5"><a xlink:title="at verification.go:28: calling [github.com/go&#45;i2p/go&#45;i2p/lib/util/time/sntp.absDuration]">
<path fill="none" stroke="#000000" d="M100.4525,-240.807C128.0129,-196.9517 205.6372,-89 301.965,-89 301.965,-89 301.965,-89 898.9182,-89 915.7442,-89 1006.7672,-65.4742 1067.7373,-49.1952"/>
<polygon fill="#000000" stroke="#000000" points="1068.8677,-52.516 1077.6226,-46.5492 1067.0576,-45.754 1068.8677,-52.516"/>
</a>
</g>
</g>
<!-- (*github.com/go&#45;i2p/go&#45;i2p/lib/util/time/sntp.RouterTimestamper).run -->
<g id="node14" class="node">
<title>(*github.com/go&#45;i2p/go&#45;i2p/lib/util/time/sntp.RouterTimestamper).run</title>
<g id="a_node14"><a xlink:title="(*github.com/go&#45;i2p/go&#45;i2p/lib/util/time/sntp.RouterTimestamper).run | defined in router_timestamper.go:215&#10;at router_timestamper.go:218: calling [(*github.com/go&#45;i2p/go&#45;i2p/lib/util/time/sntp.RouterTimestamper).performTimeQuery]">
<path fill="#add8e6" stroke="#000000" stroke-width=".5" d="M491.7182,-316C491.7182,-316 461.7182,-316 461.7182,-316 455.7182,-316 449.7182,-310 449.7182,-304 449.7182,-304 449.7182,-292 449.7182,-292 449.7182,-286 455.7182,-280 461.7182,-280 461.7182,-280 491.7182,-280 491.7182,-280 497.7182,-280 503.7182,-286 503.7182,-292 503.7182,-292 503.7182,-304 503.7182,-304 503.7182,-310 497.7182,-316 491.7182,-316"/>
<text text-anchor="middle" x="476.7182" y="-293.8" font-family="Verdana" font-size="14.00" fill="#000000">run</text>
</a>
</g>
</g>
<!-- (*github.com/go&#45;i2p/go&#45;i2p/lib/util/time/sntp.RouterTimestamper).run&#45;&gt;(*github.com/go&#45;i2p/go&#45;i2p/lib/util/time/sntp.RouterTimestamper).performTimeQuery -->
<g id="edge6" class="edge">
<title>(*github.com/go&#45;i2p/go&#45;i2p/lib/util/time/sntp.RouterTimestamper).run&#45;&gt;(*github.com/go&#45;i2p/go&#45;i2p/lib/util/time/sntp.RouterTimestamper).performTimeQuery</title>
<g id="a_edge6"><a xlink:title="at router_timestamper.go:218: calling [(*github.com/go&#45;i2p/go&#45;i2p/lib/util/time/sntp.RouterTimestamper).performTimeQuery]">
<path fill="none" stroke="#000000" d="M503.9829,-303.3012C526.61,-307.7007 559.9243,-314.1782 590.5502,-320.1329"/>
<polygon fill="#000000" stroke="#000000" points="589.8981,-323.5716 600.3823,-322.0446 591.2341,-316.7002 589.8981,-323.5716"/>
</a>
</g>
</g>
<!-- (*github.com/go&#45;i2p/go&#45;i2p/lib/util/time/sntp.RouterTimestamper).runOnce -->
<g id="node15" class="node">
<title>(*github.com/go&#45;i2p/go&#45;i2p/lib/util/time/sntp.RouterTimestamper).runOnce</title>
<g id="a_node15"><a xlink:title="(*github.com/go&#45;i2p/go&#45;i2p/lib/util/time/sntp.RouterTimestamper).runOnce | defined in router_timestamper.go:272&#10;at router_timestamper.go:273: calling [(*github.com/go&#45;i2p/go&#45;i2p/lib/util/time/sntp.RouterTimestamper).performTimeQuery]">
<path fill="#add8e6" stroke="#000000" stroke-width=".5" d="M500.9149,-377C500.9149,-377 452.5215,-377 452.5215,-377 446.5215,-377 440.5215,-371 440.5215,-365 440.5215,-365 440.5215,-353 440.5215,-353 440.5215,-347 446.5215,-341 452.5215,-341 452.5215,-341 500.9149,-341 500.9149,-341 506.9149,-341 512.9149,-347 512.9149,-353 512.9149,-353 512.9149,-365 512.9149,-365 512.9149,-371 506.9149,-377 500.9149,-377"/>
<text text-anchor="middle" x="476.7182" y="-354.8" font-family="Verdana" font-size="14.00" fill="#000000">runOnce</text>
</a>
</g>
</g>
<!-- (*github.com/go&#45;i2p/go&#45;i2p/lib/util/time/sntp.RouterTimestamper).runOnce&#45;&gt;(*github.com/go&#45;i2p/go&#45;i2p/lib/util/time/sntp.RouterTimestamper).performTimeQuery -->
<g id="edge7" class="edge">
<title>(*github.com/go&#45;i2p/go&#45;i2p/lib/util/time/sntp.RouterTimestamper).runOnce&#45;&gt;(*github.com/go&#45;i2p/go&#45;i2p/lib/util/time/sntp.RouterTimestamper).performTimeQuery</title>
<g id="a_edge7"><a xlink:title="at router_timestamper.go:273: calling [(*github.com/go&#45;i2p/go&#45;i2p/lib/util/time/sntp.RouterTimestamper).performTimeQuery]">
<path fill="none" stroke="#000000" d="M512.9592,-354.4293C534.7608,-351.6797 563.365,-348.0721 590.0004,-344.7129"/>
<polygon fill="#000000" stroke="#000000" points="590.6105,-348.1637 600.0939,-343.4399 589.7346,-341.2188 590.6105,-348.1637"/>
</a>
</g>
</g>
<!-- (*github.com/go&#45;i2p/go&#45;i2p/lib/util/time/sntp.RouterTimestamper).TimestampNow -->
<g id="node16" class="node">
<title>(*github.com/go&#45;i2p/go&#45;i2p/lib/util/time/sntp.RouterTimestamper).TimestampNow</title>
<g id="a_node16"><a xlink:title="(*github.com/go&#45;i2p/go&#45;i2p/lib/util/time/sntp.RouterTimestamper).TimestampNow | defined in router_timestamper.go:119&#10;at router_timestamper.go:121: calling [(*github.com/go&#45;i2p/go&#45;i2p/lib/util/time/sntp.RouterTimestamper).runOnce]">
<path fill="#add8e6" stroke="#000000" stroke-width="1.5" d="M347.1672,-377C347.1672,-377 256.7628,-377 256.7628,-377 250.7628,-377 244.7628,-371 244.7628,-365 244.7628,-365 244.7628,-353 244.7628,-353 244.7628,-347 250.7628,-341 256.7628,-341 256.7628,-341 347.1672,-341 347.1672,-341 353.1672,-341 359.1672,-347 359.1672,-353 359.1672,-353 359.1672,-365 359.1672,-365 359.1672,-371 353.1672,-377 347.1672,-377"/>
<text text-anchor="middle" x="301.965" y="-354.8" font-family="Verdana" font-size="14.00" fill="#000000">TimestampNow</text>
</a>
</g>
</g>
<!-- (*github.com/go&#45;i2p/go&#45;i2p/lib/util/time/sntp.RouterTimestamper).TimestampNow&#45;&gt;(*github.com/go&#45;i2p/go&#45;i2p/lib/util/time/sntp.RouterTimestamper).runOnce -->
<g id="edge8" class="edge">
<title>(*github.com/go&#45;i2p/go&#45;i2p/lib/util/time/sntp.RouterTimestamper).TimestampNow&#45;&gt;(*github.com/go&#45;i2p/go&#45;i2p/lib/util/time/sntp.RouterTimestamper).runOnce</title>
<g id="a_edge8"><a xlink:title="at router_timestamper.go:121: calling [(*github.com/go&#45;i2p/go&#45;i2p/lib/util/time/sntp.RouterTimestamper).runOnce]">
<path fill="none" stroke="#000000" d="M359.1857,-359C377.8039,-359 398.5042,-359 417.2807,-359"/>
<polygon fill="#000000" stroke="#000000" points="430.5192,-362.5 440.5192,-359 430.5192,-355.5 430.5192,-362.5"/>
<polyline fill="none" stroke="#000000" points="430.5192,-359 425.5192,-359.0001 "/>
<ellipse fill="none" stroke="#000000" cx="421.5192" cy="-359.0001" rx="4" ry="4"/>
</a>
</g>
</g>
<!-- (*github.com/go&#45;i2p/go&#45;i2p/lib/util/time/sntp.RouterTimestamper).GetCurrentTime -->
<g id="node17" class="node">
<title>(*github.com/go&#45;i2p/go&#45;i2p/lib/util/time/sntp.RouterTimestamper).GetCurrentTime</title>
<g id="a_node17"><a xlink:title="(*github.com/go&#45;i2p/go&#45;i2p/lib/util/time/sntp.RouterTimestamper).GetCurrentTime | defined in router_timestamper.go:397&#10;at router_timestamper.go:400: calling [(*github.com/go&#45;i2p/go&#45;i2p/lib/util/time/sntp.RouterTimestamper).TimestampNow]">
<path fill="#add8e6" stroke="#000000" stroke-width="1.5" d="M135.6792,-377C135.6792,-377 43.6308,-377 43.6308,-377 37.6308,-377 31.6308,-371 31.6308,-365 31.6308,-365 31.6308,-353 31.6308,-353 31.6308,-347 37.6308,-341 43.6308,-341 43.6308,-341 135.6792,-341 135.6792,-341 141.6792,-341 147.6792,-347 147.6792,-353 147.6792,-353 147.6792,-365 147.6792,-365 147.6792,-371 141.6792,-377 135.6792,-377"/>
<text text-anchor="middle" x="89.655" y="-354.8" font-family="Verdana" font-size="14.00" fill="#000000">GetCurrentTime</text>
</a>
</g>
</g>
<!-- (*github.com/go&#45;i2p/go&#45;i2p/lib/util/time/sntp.RouterTimestamper).GetCurrentTime&#45;&gt;(*github.com/go&#45;i2p/go&#45;i2p/lib/util/time/sntp.RouterTimestamper).TimestampNow -->
<g id="edge15" class="edge">
<title>(*github.com/go&#45;i2p/go&#45;i2p/lib/util/time/sntp.RouterTimestamper).GetCurrentTime&#45;&gt;(*github.com/go&#45;i2p/go&#45;i2p/lib/util/time/sntp.RouterTimestamper).TimestampNow</title>
<g id="a_edge15"><a xlink:title="at router_timestamper.go:400: calling [(*github.com/go&#45;i2p/go&#45;i2p/lib/util/time/sntp.RouterTimestamper).TimestampNow]">
<path fill="none" stroke="#000000" d="M147.9505,-359C174.7367,-359 206.6648,-359 234.487,-359"/>
<polygon fill="#000000" stroke="#000000" points="234.5344,-362.5001 244.5344,-359 234.5343,-355.5001 234.5344,-362.5001"/>
</a>
</g>
</g>
<!-- (*github.com/go&#45;i2p/go&#45;i2p/lib/util/time/sntp.RouterTimestamper).Start -->
<g id="node18" class="node">
<title>(*github.com/go&#45;i2p/go&#45;i2p/lib/util/time/sntp.RouterTimestamper).Start</title>
<g id="a_node18"><a xlink:title="(*github.com/go&#45;i2p/go&#45;i2p/lib/util/time/sntp.RouterTimestamper).Start | defined in router_timestamper.go:69&#10;at router_timestamper.go:75: calling [(*github.com/go&#45;i2p/go&#45;i2p/lib/util/time/sntp.RouterTimestamper).run]">
<path fill="#add8e6" stroke="#000000" stroke-width="1.5" d="M316.965,-316C316.965,-316 286.965,-316 286.965,-316 280.965,-316 274.965,-310 274.965,-304 274.965,-304 274.965,-292 274.965,-292 274.965,-286 280.965,-280 286.965,-280 286.965,-280 316.965,-280 316.965,-280 322.965,-280 328.965,-286 328.965,-292 328.965,-292 328.965,-304 328.965,-304 328.965,-310 322.965,-316 316.965,-316"/>
<text text-anchor="middle" x="301.965" y="-293.8" font-family="Verdana" font-size="14.00" fill="#000000">Start</text>
</a>
</g>
</g>
<!-- (*github.com/go&#45;i2p/go&#45;i2p/lib/util/time/sntp.RouterTimestamper).Start&#45;&gt;(*github.com/go&#45;i2p/go&#45;i2p/lib/util/time/sntp.RouterTimestamper).run -->
<g id="edge11" class="edge">
<title>(*github.com/go&#45;i2p/go&#45;i2p/lib/util/time/sntp.RouterTimestamper).Start&#45;&gt;(*github.com/go&#45;i2p/go&#45;i2p/lib/util/time/sntp.RouterTimestamper).run</title>
<g id="a_edge11"><a xlink:title="at router_timestamper.go:75: calling [(*github.com/go&#45;i2p/go&#45;i2p/lib/util/time/sntp.RouterTimestamper).run]">
<path fill="none" stroke="#000000" d="M329.2702,-298C355.1753,-298 394.7342,-298 426.3574,-298"/>
<polygon fill="#000000" stroke="#000000" points="439.6048,-301.5 449.6048,-298 439.6047,-294.5 439.6048,-301.5"/>
<polyline fill="none" stroke="#000000" points="439.6048,-298 434.6048,-298.0001 "/>
<ellipse fill="none" stroke="#000000" cx="430.6048" cy="-298.0001" rx="4" ry="4"/>
</a>
</g>
</g>
<!-- (*github.com/go&#45;i2p/go&#45;i2p/lib/util/time/sntp.Zones).readContinentFile -->
<g id="node20" class="node">
<title>(*github.com/go&#45;i2p/go&#45;i2p/lib/util/time/sntp.Zones).readContinentFile</title>
<g id="a_node20"><a xlink:title="(*github.com/go&#45;i2p/go&#45;i2p/lib/util/time/sntp.Zones).readContinentFile | defined in zones.go:54">
<path fill="#add8e6" stroke="#000000" stroke-width=".5" d="M1384.1792,-130C1384.1792,-130 1282.9968,-130 1282.9968,-130 1276.9968,-130 1270.9968,-124 1270.9968,-118 1270.9968,-118 1270.9968,-106 1270.9968,-106 1270.9968,-100 1276.9968,-94 1282.9968,-94 1282.9968,-94 1384.1792,-94 1384.1792,-94 1390.1792,-94 1396.1792,-100 1396.1792,-106 1396.1792,-106 1396.1792,-118 1396.1792,-118 1396.1792,-124 1390.1792,-130 1384.1792,-130"/>
<text text-anchor="middle" x="1333.588" y="-107.8" font-family="Verdana" font-size="14.00" fill="#000000">readContinentFile</text>
</a>
</g>
</g>
<!-- (*github.com/go&#45;i2p/go&#45;i2p/lib/util/time/sntp.Zones).initialize&#45;&gt;(*github.com/go&#45;i2p/go&#45;i2p/lib/util/time/sntp.Zones).readContinentFile -->
<g id="edge17" class="edge">
<title>(*github.com/go&#45;i2p/go&#45;i2p/lib/util/time/sntp.Zones).initialize&#45;&gt;(*github.com/go&#45;i2p/go&#45;i2p/lib/util/time/sntp.Zones).readContinentFile</title>
<g id="a_edge17"><a xlink:title="at zones.go:51: calling [(*github.com/go&#45;i2p/go&#45;i2p/lib/util/time/sntp.Zones).readContinentFile]">
<path fill="none" stroke="#000000" d="M1160.3704,-112C1187.9205,-112 1226.6146,-112 1260.4451,-112"/>
<polygon fill="#000000" stroke="#000000" points="1260.7704,-115.5001 1270.7704,-112 1260.7703,-108.5001 1260.7704,-115.5001"/>
</a>
</g>
</g>
</g>
</svg>
