<?xml version="1.0" encoding="UTF-8" standalone="no"?>
<!DOCTYPE svg PUBLIC "-//W3C//DTD SVG 1.1//EN"
 "http://www.w3.org/Graphics/SVG/1.1/DTD/svg11.dtd">
<!-- Generated by graphviz version 2.40.1 (20161225.0304)
 -->
<!-- Title: gocallvis Pages: 1 -->
<svg width="660pt" height="550pt"
 viewBox="0.00 0.00 659.81 550.00" xmlns="http://www.w3.org/2000/svg" xmlns:xlink="http://www.w3.org/1999/xlink">
<g id="graph0" class="graph" transform="scale(1 1) rotate(0) translate(0 550)">
<title>gocallvis</title>
<polygon fill="#d3d3d3" stroke="transparent" points="0,0 0,-550 659.8122,-550 659.8122,0 0,0"/>
<g id="clust1" class="cluster">
<title>cluster_focus</title>
<polygon fill="#e6ecfa" stroke="#000000" stroke-width=".5" points="8,-8 8,-542 651.8122,-542 651.8122,-8 8,-8"/>
<text text-anchor="middle" x="329.9061" y="-521.8" font-family="Arial" font-size="18.00" fill="#000000">util</text>
</g>
<g id="clust3" class="cluster">
<title>cluster_*github.com/go&#45;i2p/logger.Logger</title>
<g id="a_clust3"><a xlink:title="type: *github.com/go&#45;i2p/logger.Logger">
<path fill="#eed8ae" stroke="#000000" stroke-width=".5" d="M553.5934,-262C553.5934,-262 631.8122,-262 631.8122,-262 637.8122,-262 643.8122,-268 643.8122,-274 643.8122,-274 643.8122,-450 643.8122,-450 643.8122,-456 637.8122,-462 631.8122,-462 631.8122,-462 553.5934,-462 553.5934,-462 547.5934,-462 541.5934,-456 541.5934,-450 541.5934,-450 541.5934,-274 541.5934,-274 541.5934,-268 547.5934,-262 553.5934,-262"/>
<text text-anchor="middle" x="592.7028" y="-270.5" font-family="Arial" font-size="15.00" fill="#222222">(*Logger)</text>
</a>
</g>
</g>
<g id="clust2" class="cluster">
<title>cluster_*github.com/go&#45;i2p/logger.Entry</title>
<g id="a_clust2"><a xlink:title="type: *github.com/go&#45;i2p/logger.Entry">
<path fill="#eed8ae" stroke="#000000" stroke-width=".5" d="M566.0422,-56C566.0422,-56 619.3634,-56 619.3634,-56 625.3634,-56 631.3634,-62 631.3634,-68 631.3634,-68 631.3634,-183 631.3634,-183 631.3634,-189 625.3634,-195 619.3634,-195 619.3634,-195 566.0422,-195 566.0422,-195 560.0422,-195 554.0422,-189 554.0422,-183 554.0422,-183 554.0422,-68 554.0422,-68 554.0422,-62 560.0422,-56 566.0422,-56"/>
<text text-anchor="middle" x="592.7028" y="-64.5" font-family="Arial" font-size="15.00" fill="#222222">(*Entry)</text>
</a>
</g>
</g>
<!-- github.com/go&#45;i2p/go&#45;i2p/lib/util.CloseAll$1$1 -->
<g id="node1" class="node">
<title>github.com/go&#45;i2p/go&#45;i2p/lib/util.CloseAll$1$1</title>
<g id="a_node1"><a xlink:title="github.com/go&#45;i2p/go&#45;i2p/lib/util.CloseAll$1$1 | defined in closeables.go:66&#10;at closeables.go:68: calling [(*github.com/go&#45;i2p/logger.Logger).WithField]&#10;at closeables.go:68: calling [(*github.com/go&#45;i2p/logger.Entry).Warn]">
<polygon fill="#add8e6" stroke="#000000" stroke-dasharray="1,5" points="467.5529,-228 366.0041,-228 366.0041,-192 467.5529,-192 467.5529,-228"/>
<text text-anchor="middle" x="416.7785" y="-205.8" font-family="Verdana" font-size="14.00" fill="#000000">CloseAll$1$1</text>
</a>
</g>
</g>
<!-- (*github.com/go&#45;i2p/logger.Entry).Warn -->
<g id="node11" class="node">
<title>(*github.com/go&#45;i2p/logger.Entry).Warn</title>
<g id="a_node11"><a xlink:title="(*github.com/go&#45;i2p/logger.Entry).Warn | defined in log.go:112">
<path fill="#ffe4b5" stroke="#000000" stroke-width="1.5" d="M610.4691,-126C610.4691,-126 574.9365,-126 574.9365,-126 568.9365,-126 562.9365,-120 562.9365,-114 562.9365,-114 562.9365,-102 562.9365,-102 562.9365,-96 568.9365,-90 574.9365,-90 574.9365,-90 610.4691,-90 610.4691,-90 616.4691,-90 622.4691,-96 622.4691,-102 622.4691,-102 622.4691,-114 622.4691,-114 622.4691,-120 616.4691,-126 610.4691,-126"/>
<text text-anchor="middle" x="592.7028" y="-112.2" font-family="Verdana" font-size="14.00" fill="#000000">logger</text>
<text text-anchor="middle" x="592.7028" y="-95.4" font-family="Verdana" font-size="14.00" fill="#000000">Warn</text>
</a>
</g>
</g>
<!-- github.com/go&#45;i2p/go&#45;i2p/lib/util.CloseAll$1$1&#45;&gt;(*github.com/go&#45;i2p/logger.Entry).Warn -->
<g id="edge2" class="edge">
<title>github.com/go&#45;i2p/go&#45;i2p/lib/util.CloseAll$1$1&#45;&gt;(*github.com/go&#45;i2p/logger.Entry).Warn</title>
<g id="a_edge2"><a xlink:title="at closeables.go:68: calling [(*github.com/go&#45;i2p/logger.Entry).Warn]">
<path fill="none" stroke="#8b4513" d="M435.9511,-191.8226C447.7091,-180.6518 463.0547,-166.0315 476.5934,-153 492.671,-137.5247 492.4778,-127.6612 512.5934,-118 524.8555,-112.1107 539.3342,-109.2496 552.5864,-107.9671"/>
<polygon fill="#8b4513" stroke="#8b4513" points="553.1533,-111.4361 562.8857,-107.2492 552.6665,-104.4531 553.1533,-111.4361"/>
</a>
</g>
</g>
<!-- (*github.com/go&#45;i2p/logger.Logger).WithField -->
<g id="node13" class="node">
<title>(*github.com/go&#45;i2p/logger.Logger).WithField</title>
<g id="a_node13"><a xlink:title="(*github.com/go&#45;i2p/logger.Logger).WithField | defined in log.go:60">
<path fill="#ffe4b5" stroke="#000000" stroke-width="1.5" d="M620.9773,-454C620.9773,-454 564.4283,-454 564.4283,-454 558.4283,-454 552.4283,-448 552.4283,-442 552.4283,-442 552.4283,-430 552.4283,-430 552.4283,-424 558.4283,-418 564.4283,-418 564.4283,-418 620.9773,-418 620.9773,-418 626.9773,-418 632.9773,-424 632.9773,-430 632.9773,-430 632.9773,-442 632.9773,-442 632.9773,-448 626.9773,-454 620.9773,-454"/>
<text text-anchor="middle" x="592.7028" y="-440.2" font-family="Verdana" font-size="14.00" fill="#000000">logger</text>
<text text-anchor="middle" x="592.7028" y="-423.4" font-family="Verdana" font-size="14.00" fill="#000000">WithField</text>
</a>
</g>
</g>
<!-- github.com/go&#45;i2p/go&#45;i2p/lib/util.CloseAll$1$1&#45;&gt;(*github.com/go&#45;i2p/logger.Logger).WithField -->
<g id="edge1" class="edge">
<title>github.com/go&#45;i2p/go&#45;i2p/lib/util.CloseAll$1$1&#45;&gt;(*github.com/go&#45;i2p/logger.Logger).WithField</title>
<g id="a_edge1"><a xlink:title="at closeables.go:68: calling [(*github.com/go&#45;i2p/logger.Logger).WithField]">
<path fill="none" stroke="#8b4513" d="M461.454,-228.0926C467.071,-231.746 472.3309,-236.0268 476.5934,-241 527.886,-300.8449 487.7624,-348.4277 541.5934,-406 543.4072,-407.9399 545.3749,-409.7936 547.447,-411.5588"/>
<polygon fill="#8b4513" stroke="#8b4513" points="545.7665,-414.6765 555.8516,-417.9232 549.9924,-409.096 545.7665,-414.6765"/>
</a>
</g>
</g>
<!-- github.com/go&#45;i2p/go&#45;i2p/lib/util.CloseAll$1 -->
<g id="node2" class="node">
<title>github.com/go&#45;i2p/go&#45;i2p/lib/util.CloseAll$1</title>
<g id="a_node2"><a xlink:title="github.com/go&#45;i2p/go&#45;i2p/lib/util.CloseAll$1 | defined in closeables.go:65&#10;at closeables.go:72: calling [(*github.com/go&#45;i2p/logger.Logger).WithError]&#10;at closeables.go:72: calling [(*github.com/go&#45;i2p/logger.Entry).Warn]&#10;at closeables.go:66: calling [github.com/go&#45;i2p/go&#45;i2p/lib/util.CloseAll$1$1]">
<polygon fill="#add8e6" stroke="#000000" stroke-dasharray="1,5" points="267.1434,-281 179.5944,-281 179.5944,-245 267.1434,-245 267.1434,-281"/>
<text text-anchor="middle" x="223.3689" y="-258.8" font-family="Verdana" font-size="14.00" fill="#000000">CloseAll$1</text>
</a>
</g>
</g>
<!-- github.com/go&#45;i2p/go&#45;i2p/lib/util.CloseAll$1&#45;&gt;github.com/go&#45;i2p/go&#45;i2p/lib/util.CloseAll$1$1 -->
<g id="edge19" class="edge">
<title>github.com/go&#45;i2p/go&#45;i2p/lib/util.CloseAll$1&#45;&gt;github.com/go&#45;i2p/go&#45;i2p/lib/util.CloseAll$1$1</title>
<g id="a_edge19"><a xlink:title="at closeables.go:66: calling [github.com/go&#45;i2p/go&#45;i2p/lib/util.CloseAll$1$1]">
<path fill="none" stroke="#000000" d="M267.2565,-250.9735C288.6681,-245.1061 315.0629,-237.8731 339.6867,-231.1255"/>
<polygon fill="#000000" stroke="#000000" points="357.162,-229.9658 365.8814,-223.9473 355.312,-223.2147 357.162,-229.9658"/>
<polyline fill="none" stroke="#000000" points="356.237,-226.5902 351.4147,-227.9117 "/>
<polygon fill="none" stroke="#000000" points="339.8414,-231.0831 344.5709,-225.6396 351.4147,-227.9117 346.6852,-233.3552 339.8414,-231.0831"/>
</a>
</g>
</g>
<!-- github.com/go&#45;i2p/go&#45;i2p/lib/util.CloseAll$1&#45;&gt;(*github.com/go&#45;i2p/logger.Entry).Warn -->
<g id="edge6" class="edge">
<title>github.com/go&#45;i2p/go&#45;i2p/lib/util.CloseAll$1&#45;&gt;(*github.com/go&#45;i2p/logger.Entry).Warn</title>
<g id="a_edge6"><a xlink:title="at closeables.go:72: calling [(*github.com/go&#45;i2p/logger.Entry).Warn]">
<path fill="none" stroke="#8b4513" d="M230.9725,-244.8697C252.4803,-194.5583 314.9146,-55.3088 356.9636,-31 402.9941,-4.3895 425.6873,-15.6543 476.5934,-31 510.4191,-41.1968 543.4435,-64.8241 565.5695,-83.2367"/>
<polygon fill="#8b4513" stroke="#8b4513" points="563.3288,-85.9257 573.2094,-89.7499 567.8701,-80.5988 563.3288,-85.9257"/>
</a>
</g>
</g>
<!-- (*github.com/go&#45;i2p/logger.Logger).WithError -->
<g id="node14" class="node">
<title>(*github.com/go&#45;i2p/logger.Logger).WithError</title>
<g id="a_node14"><a xlink:title="(*github.com/go&#45;i2p/logger.Logger).WithError | defined in log.go:72">
<path fill="#ffe4b5" stroke="#000000" stroke-width="1.5" d="M621.2343,-332C621.2343,-332 564.1713,-332 564.1713,-332 558.1713,-332 552.1713,-326 552.1713,-320 552.1713,-320 552.1713,-308 552.1713,-308 552.1713,-302 558.1713,-296 564.1713,-296 564.1713,-296 621.2343,-296 621.2343,-296 627.2343,-296 633.2343,-302 633.2343,-308 633.2343,-308 633.2343,-320 633.2343,-320 633.2343,-326 627.2343,-332 621.2343,-332"/>
<text text-anchor="middle" x="592.7028" y="-318.2" font-family="Verdana" font-size="14.00" fill="#000000">logger</text>
<text text-anchor="middle" x="592.7028" y="-301.4" font-family="Verdana" font-size="14.00" fill="#000000">WithError</text>
</a>
</g>
</g>
<!-- github.com/go&#45;i2p/go&#45;i2p/lib/util.CloseAll$1&#45;&gt;(*github.com/go&#45;i2p/logger.Logger).WithError -->
<g id="edge5" class="edge">
<title>github.com/go&#45;i2p/go&#45;i2p/lib/util.CloseAll$1&#45;&gt;(*github.com/go&#45;i2p/logger.Logger).WithError</title>
<g id="a_edge5"><a xlink:title="at closeables.go:72: calling [(*github.com/go&#45;i2p/logger.Logger).WithError]">
<path fill="none" stroke="#8b4513" d="M267.2955,-278.6342C293.0706,-287.0955 326.4693,-296.8455 356.9636,-302 420.0183,-312.6581 493.7953,-314.7814 541.7932,-314.8147"/>
<polygon fill="#8b4513" stroke="#8b4513" points="541.9362,-318.3145 551.9279,-314.7909 541.9197,-311.3145 541.9362,-318.3145"/>
</a>
</g>
</g>
<!-- github.com/go&#45;i2p/go&#45;i2p/lib/util.RegisterCloser -->
<g id="node3" class="node">
<title>github.com/go&#45;i2p/go&#45;i2p/lib/util.RegisterCloser</title>
<g id="a_node3"><a xlink:title="github.com/go&#45;i2p/go&#45;i2p/lib/util.RegisterCloser | defined in closeables.go:18&#10;at closeables.go:25: calling [(*github.com/go&#45;i2p/logger.Logger).WithField]&#10;at closeables.go:25: calling [(*github.com/go&#45;i2p/logger.Entry).Debug]">
<path fill="#add8e6" stroke="#000000" stroke-width="1.5" d="M458.4779,-377C458.4779,-377 375.0791,-377 375.0791,-377 369.0791,-377 363.0791,-371 363.0791,-365 363.0791,-365 363.0791,-353 363.0791,-353 363.0791,-347 369.0791,-341 375.0791,-341 375.0791,-341 458.4779,-341 458.4779,-341 464.4779,-341 470.4779,-347 470.4779,-353 470.4779,-353 470.4779,-365 470.4779,-365 470.4779,-371 464.4779,-377 458.4779,-377"/>
<text text-anchor="middle" x="416.7785" y="-354.8" font-family="Verdana" font-size="14.00" fill="#000000">RegisterCloser</text>
</a>
</g>
</g>
<!-- (*github.com/go&#45;i2p/logger.Entry).Debug -->
<g id="node12" class="node">
<title>(*github.com/go&#45;i2p/logger.Entry).Debug</title>
<g id="a_node12"><a xlink:title="(*github.com/go&#45;i2p/logger.Entry).Debug | defined in log.go:92">
<path fill="#ffe4b5" stroke="#000000" stroke-width="1.5" d="M611.5248,-187C611.5248,-187 573.8808,-187 573.8808,-187 567.8808,-187 561.8808,-181 561.8808,-175 561.8808,-175 561.8808,-163 561.8808,-163 561.8808,-157 567.8808,-151 573.8808,-151 573.8808,-151 611.5248,-151 611.5248,-151 617.5248,-151 623.5248,-157 623.5248,-163 623.5248,-163 623.5248,-175 623.5248,-175 623.5248,-181 617.5248,-187 611.5248,-187"/>
<text text-anchor="middle" x="592.7028" y="-173.2" font-family="Verdana" font-size="14.00" fill="#000000">logger</text>
<text text-anchor="middle" x="592.7028" y="-156.4" font-family="Verdana" font-size="14.00" fill="#000000">Debug</text>
</a>
</g>
</g>
<!-- github.com/go&#45;i2p/go&#45;i2p/lib/util.RegisterCloser&#45;&gt;(*github.com/go&#45;i2p/logger.Entry).Debug -->
<g id="edge20" class="edge">
<title>github.com/go&#45;i2p/go&#45;i2p/lib/util.RegisterCloser&#45;&gt;(*github.com/go&#45;i2p/logger.Entry).Debug</title>
<g id="a_edge20"><a xlink:title="at closeables.go:25: calling [(*github.com/go&#45;i2p/logger.Entry).Debug]">
<path fill="none" stroke="#8b4513" d="M437.5896,-340.8387C449.5112,-330.035 464.4649,-315.785 476.5934,-302 494.444,-281.7114 495.2327,-273.7094 512.5934,-253 529.7269,-232.5617 550.5552,-210.8058 566.679,-194.5569"/>
<polygon fill="#8b4513" stroke="#8b4513" points="569.5859,-196.5995 574.1797,-187.0524 564.6348,-191.651 569.5859,-196.5995"/>
</a>
</g>
</g>
<!-- github.com/go&#45;i2p/go&#45;i2p/lib/util.RegisterCloser&#45;&gt;(*github.com/go&#45;i2p/logger.Logger).WithField -->
<g id="edge7" class="edge">
<title>github.com/go&#45;i2p/go&#45;i2p/lib/util.RegisterCloser&#45;&gt;(*github.com/go&#45;i2p/logger.Logger).WithField</title>
<g id="a_edge7"><a xlink:title="at closeables.go:25: calling [(*github.com/go&#45;i2p/logger.Logger).WithField]">
<path fill="none" stroke="#8b4513" d="M456.5743,-377.1428C463.5078,-380.9888 470.4562,-385.3174 476.5934,-390 495.3471,-404.3089 491.4174,-418.6066 512.5934,-429 521.617,-433.4288 531.9015,-435.9202 542.0241,-437.2135"/>
<polygon fill="#8b4513" stroke="#8b4513" points="541.7612,-440.704 552.0398,-438.1349 542.4025,-433.7335 541.7612,-440.704"/>
</a>
</g>
</g>
<!-- github.com/go&#45;i2p/go&#45;i2p/lib/util.CloseAll -->
<g id="node4" class="node">
<title>github.com/go&#45;i2p/go&#45;i2p/lib/util.CloseAll</title>
<g id="a_node4"><a xlink:title="github.com/go&#45;i2p/go&#45;i2p/lib/util.CloseAll | defined in closeables.go:53&#10;at closeables.go:61: calling [(*github.com/go&#45;i2p/logger.Logger).WithField]&#10;at closeables.go:61: calling [(*github.com/go&#45;i2p/logger.Entry).Debug]&#10;at closeables.go:76: calling [(*github.com/go&#45;i2p/logger.Entry).Debug]&#10;at closeables.go:74: calling [github.com/go&#45;i2p/go&#45;i2p/lib/util.CloseAll$1]&#10;at closeables.go:76: calling [(*github.com/go&#45;i2p/logger.Logger).WithFields]">
<path fill="#add8e6" stroke="#000000" stroke-width="1.5" d="M77.6616,-418C77.6616,-418 28.1126,-418 28.1126,-418 22.1126,-418 16.1126,-412 16.1126,-406 16.1126,-406 16.1126,-394 16.1126,-394 16.1126,-388 22.1126,-382 28.1126,-382 28.1126,-382 77.6616,-382 77.6616,-382 83.6616,-382 89.6616,-388 89.6616,-394 89.6616,-394 89.6616,-406 89.6616,-406 89.6616,-412 83.6616,-418 77.6616,-418"/>
<text text-anchor="middle" x="52.8871" y="-395.8" font-family="Verdana" font-size="14.00" fill="#000000">CloseAll</text>
</a>
</g>
</g>
<!-- github.com/go&#45;i2p/go&#45;i2p/lib/util.CloseAll&#45;&gt;github.com/go&#45;i2p/go&#45;i2p/lib/util.CloseAll$1 -->
<g id="edge13" class="edge">
<title>github.com/go&#45;i2p/go&#45;i2p/lib/util.CloseAll&#45;&gt;github.com/go&#45;i2p/go&#45;i2p/lib/util.CloseAll$1</title>
<g id="a_edge13"><a xlink:title="at closeables.go:74: calling [github.com/go&#45;i2p/go&#45;i2p/lib/util.CloseAll$1]">
<path fill="none" stroke="#000000" d="M75.5258,-381.8075C105.6688,-357.5843 159.0888,-314.6558 192.7908,-287.5727"/>
<polygon fill="#000000" stroke="#000000" points="195.3056,-290.0419 200.9081,-281.0496 190.9207,-284.5854 195.3056,-290.0419"/>
</a>
</g>
</g>
<!-- github.com/go&#45;i2p/go&#45;i2p/lib/util.CloseAll&#45;&gt;(*github.com/go&#45;i2p/logger.Entry).Debug -->
<g id="edge12" class="edge">
<title>github.com/go&#45;i2p/go&#45;i2p/lib/util.CloseAll&#45;&gt;(*github.com/go&#45;i2p/logger.Entry).Debug</title>
<g id="a_edge12"><a xlink:title="at closeables.go:61: calling [(*github.com/go&#45;i2p/logger.Entry).Debug]&#10;at closeables.go:76: calling [(*github.com/go&#45;i2p/logger.Entry).Debug]">
<path fill="none" stroke="#8b4513" d="M56.821,-381.6384C69.8246,-326.4751 116.8106,-166 223.3689,-166 223.3689,-166 223.3689,-166 320.4636,-166 402.4416,-166 498.2969,-167.377 551.5987,-168.2652"/>
<polygon fill="#8b4513" stroke="#8b4513" points="551.6171,-171.7659 561.675,-168.4357 551.7357,-164.7669 551.6171,-171.7659"/>
</a>
</g>
</g>
<!-- github.com/go&#45;i2p/go&#45;i2p/lib/util.CloseAll&#45;&gt;(*github.com/go&#45;i2p/logger.Logger).WithField -->
<g id="edge8" class="edge">
<title>github.com/go&#45;i2p/go&#45;i2p/lib/util.CloseAll&#45;&gt;(*github.com/go&#45;i2p/logger.Logger).WithField</title>
<g id="a_edge8"><a xlink:title="at closeables.go:61: calling [(*github.com/go&#45;i2p/logger.Logger).WithField]">
<path fill="none" stroke="#8b4513" d="M69.2727,-418.4143C97.5442,-448.0408 158.7043,-503 223.3689,-503 223.3689,-503 223.3689,-503 416.7785,-503 467.3309,-503 521.0194,-478.5403 555.5991,-459.1786"/>
<polygon fill="#8b4513" stroke="#8b4513" points="557.4641,-462.1438 564.3958,-454.1312 553.9803,-456.0722 557.4641,-462.1438"/>
</a>
</g>
</g>
<!-- (*github.com/go&#45;i2p/logger.Logger).WithFields -->
<g id="node15" class="node">
<title>(*github.com/go&#45;i2p/logger.Logger).WithFields</title>
<g id="a_node15"><a xlink:title="(*github.com/go&#45;i2p/logger.Logger).WithFields | defined in log.go:66">
<path fill="#ffe4b5" stroke="#000000" stroke-width="1.5" d="M623.9219,-393C623.9219,-393 561.4837,-393 561.4837,-393 555.4837,-393 549.4837,-387 549.4837,-381 549.4837,-381 549.4837,-369 549.4837,-369 549.4837,-363 555.4837,-357 561.4837,-357 561.4837,-357 623.9219,-357 623.9219,-357 629.9219,-357 635.9219,-363 635.9219,-369 635.9219,-369 635.9219,-381 635.9219,-381 635.9219,-387 629.9219,-393 623.9219,-393"/>
<text text-anchor="middle" x="592.7028" y="-379.2" font-family="Verdana" font-size="14.00" fill="#000000">logger</text>
<text text-anchor="middle" x="592.7028" y="-362.4" font-family="Verdana" font-size="14.00" fill="#000000">WithFields</text>
</a>
</g>
</g>
<!-- github.com/go&#45;i2p/go&#45;i2p/lib/util.CloseAll&#45;&gt;(*github.com/go&#45;i2p/logger.Logger).WithFields -->
<g id="edge14" class="edge">
<title>github.com/go&#45;i2p/go&#45;i2p/lib/util.CloseAll&#45;&gt;(*github.com/go&#45;i2p/logger.Logger).WithFields</title>
<g id="a_edge14"><a xlink:title="at closeables.go:76: calling [(*github.com/go&#45;i2p/logger.Logger).WithFields]">
<path fill="none" stroke="#8b4513" d="M81.8254,-418.1686C114.7863,-437.0898 170.889,-464 223.3689,-464 223.3689,-464 223.3689,-464 320.4636,-464 390.0947,-464 411.049,-474.5037 476.5934,-451 509.6676,-439.1398 512.1145,-425.1196 541.5934,-406 545.419,-403.5188 549.4369,-400.9761 553.4684,-398.4662"/>
<polygon fill="#8b4513" stroke="#8b4513" points="555.5671,-401.2843 562.2467,-393.0603 551.8965,-395.3238 555.5671,-401.2843"/>
</a>
</g>
</g>
<!-- github.com/go&#45;i2p/go&#45;i2p/lib/util.CheckFileAge -->
<g id="node5" class="node">
<title>github.com/go&#45;i2p/go&#45;i2p/lib/util.CheckFileAge</title>
<g id="a_node5"><a xlink:title="github.com/go&#45;i2p/go&#45;i2p/lib/util.CheckFileAge | defined in checkfile.go:32&#10;at checkfile.go:38: calling [(*github.com/go&#45;i2p/logger.Entry).Warn]&#10;at checkfile.go:34: calling [(*github.com/go&#45;i2p/logger.Logger).WithFields]&#10;at checkfile.go:43: calling [(*github.com/go&#45;i2p/logger.Logger).WithFields]&#10;at checkfile.go:52: calling [(*github.com/go&#45;i2p/logger.Logger).WithFields]&#10;at checkfile.go:46: calling [(*github.com/go&#45;i2p/logger.Entry).Debug]&#10;at checkfile.go:57: calling [(*github.com/go&#45;i2p/logger.Entry).Debug]">
<path fill="#add8e6" stroke="#000000" stroke-width="1.5" d="M457.144,-140C457.144,-140 376.413,-140 376.413,-140 370.413,-140 364.413,-134 364.413,-128 364.413,-128 364.413,-116 364.413,-116 364.413,-110 370.413,-104 376.413,-104 376.413,-104 457.144,-104 457.144,-104 463.144,-104 469.144,-110 469.144,-116 469.144,-116 469.144,-128 469.144,-128 469.144,-134 463.144,-140 457.144,-140"/>
<text text-anchor="middle" x="416.7785" y="-117.8" font-family="Verdana" font-size="14.00" fill="#000000">CheckFileAge</text>
</a>
</g>
</g>
<!-- github.com/go&#45;i2p/go&#45;i2p/lib/util.CheckFileAge&#45;&gt;(*github.com/go&#45;i2p/logger.Entry).Warn -->
<g id="edge3" class="edge">
<title>github.com/go&#45;i2p/go&#45;i2p/lib/util.CheckFileAge&#45;&gt;(*github.com/go&#45;i2p/logger.Entry).Warn</title>
<g id="a_edge3"><a xlink:title="at checkfile.go:38: calling [(*github.com/go&#45;i2p/logger.Entry).Warn]">
<path fill="none" stroke="#8b4513" d="M462.8483,-103.8734C478.3955,-98.6285 496.0142,-93.6153 512.5934,-91 525.7804,-88.9198 540.0713,-90.6527 552.882,-93.6814"/>
<polygon fill="#8b4513" stroke="#8b4513" points="552.2239,-97.1285 562.7893,-96.34 554.0382,-90.3677 552.2239,-97.1285"/>
</a>
</g>
</g>
<!-- github.com/go&#45;i2p/go&#45;i2p/lib/util.CheckFileAge&#45;&gt;(*github.com/go&#45;i2p/logger.Entry).Debug -->
<g id="edge16" class="edge">
<title>github.com/go&#45;i2p/go&#45;i2p/lib/util.CheckFileAge&#45;&gt;(*github.com/go&#45;i2p/logger.Entry).Debug</title>
<g id="a_edge16"><a xlink:title="at checkfile.go:46: calling [(*github.com/go&#45;i2p/logger.Entry).Debug]&#10;at checkfile.go:57: calling [(*github.com/go&#45;i2p/logger.Entry).Debug]">
<path fill="none" stroke="#8b4513" d="M469.5616,-136.1015C496.07,-143.1835 527.6817,-151.6289 552.2387,-158.1896"/>
<polygon fill="#8b4513" stroke="#8b4513" points="551.3908,-161.5858 561.9554,-160.7855 553.1976,-154.8229 551.3908,-161.5858"/>
</a>
</g>
</g>
<!-- github.com/go&#45;i2p/go&#45;i2p/lib/util.CheckFileAge&#45;&gt;(*github.com/go&#45;i2p/logger.Logger).WithFields -->
<g id="edge15" class="edge">
<title>github.com/go&#45;i2p/go&#45;i2p/lib/util.CheckFileAge&#45;&gt;(*github.com/go&#45;i2p/logger.Logger).WithFields</title>
<g id="a_edge15"><a xlink:title="at checkfile.go:34: calling [(*github.com/go&#45;i2p/logger.Logger).WithFields]&#10;at checkfile.go:43: calling [(*github.com/go&#45;i2p/logger.Logger).WithFields]&#10;at checkfile.go:52: calling [(*github.com/go&#45;i2p/logger.Logger).WithFields]">
<path fill="none" stroke="#8b4513" d="M440.569,-140.1876C452.8389,-150.6554 467.1672,-164.7402 476.5934,-180 518.015,-247.0567 486.245,-288.8849 541.5934,-345 543.6255,-347.0602 545.8279,-349.0298 548.1388,-350.9039"/>
<polygon fill="#8b4513" stroke="#8b4513" points="546.1881,-353.8136 556.3233,-356.9003 550.3252,-348.1669 546.1881,-353.8136"/>
</a>
</g>
</g>
<!-- github.com/go&#45;i2p/go&#45;i2p/lib/util.UserHome -->
<g id="node6" class="node">
<title>github.com/go&#45;i2p/go&#45;i2p/lib/util.UserHome</title>
<g id="a_node6"><a xlink:title="github.com/go&#45;i2p/go&#45;i2p/lib/util.UserHome | defined in home.go:11&#10;at home.go:16: calling [(*github.com/go&#45;i2p/logger.Entry).Warn]&#10;at home.go:21: calling [(*github.com/go&#45;i2p/logger.Entry).Warn]&#10;at home.go:30: calling [(*github.com/go&#45;i2p/logger.Entry).Warn]&#10;at home.go:16: calling [(*github.com/go&#45;i2p/logger.Logger).WithError]&#10;at home.go:21: calling [(*github.com/go&#45;i2p/logger.Logger).WithError]&#10;at home.go:30: calling [(*github.com/go&#45;i2p/logger.Logger).WithError]">
<path fill="#add8e6" stroke="#000000" stroke-width="1.5" d="M446.9175,-79C446.9175,-79 386.6395,-79 386.6395,-79 380.6395,-79 374.6395,-73 374.6395,-67 374.6395,-67 374.6395,-55 374.6395,-55 374.6395,-49 380.6395,-43 386.6395,-43 386.6395,-43 446.9175,-43 446.9175,-43 452.9175,-43 458.9175,-49 458.9175,-55 458.9175,-55 458.9175,-67 458.9175,-67 458.9175,-73 452.9175,-79 446.9175,-79"/>
<text text-anchor="middle" x="416.7785" y="-56.8" font-family="Verdana" font-size="14.00" fill="#000000">UserHome</text>
</a>
</g>
</g>
<!-- github.com/go&#45;i2p/go&#45;i2p/lib/util.UserHome&#45;&gt;(*github.com/go&#45;i2p/logger.Entry).Warn -->
<g id="edge4" class="edge">
<title>github.com/go&#45;i2p/go&#45;i2p/lib/util.UserHome&#45;&gt;(*github.com/go&#45;i2p/logger.Entry).Warn</title>
<g id="a_edge4"><a xlink:title="at home.go:16: calling [(*github.com/go&#45;i2p/logger.Entry).Warn]&#10;at home.go:21: calling [(*github.com/go&#45;i2p/logger.Entry).Warn]&#10;at home.go:30: calling [(*github.com/go&#45;i2p/logger.Entry).Warn]">
<path fill="none" stroke="#8b4513" d="M459.287,-71.1487C476.2234,-75.2936 495.8685,-80.2284 513.5934,-85 526.453,-88.4618 540.4232,-92.448 552.995,-96.1191"/>
<polygon fill="#8b4513" stroke="#8b4513" points="552.1485,-99.5183 562.7296,-98.9797 554.1221,-92.8023 552.1485,-99.5183"/>
</a>
</g>
</g>
<!-- github.com/go&#45;i2p/go&#45;i2p/lib/util.UserHome&#45;&gt;(*github.com/go&#45;i2p/logger.Logger).WithError -->
<g id="edge17" class="edge">
<title>github.com/go&#45;i2p/go&#45;i2p/lib/util.UserHome&#45;&gt;(*github.com/go&#45;i2p/logger.Logger).WithError</title>
<g id="a_edge17"><a xlink:title="at home.go:16: calling [(*github.com/go&#45;i2p/logger.Logger).WithError]&#10;at home.go:21: calling [(*github.com/go&#45;i2p/logger.Logger).WithError]&#10;at home.go:30: calling [(*github.com/go&#45;i2p/logger.Logger).WithError]">
<path fill="none" stroke="#8b4513" d="M459.2254,-78.7933C465.4971,-82.5685 471.539,-86.9644 476.5934,-92 506.4815,-121.7766 557.7484,-233.91 580.8287,-286.4805"/>
<polygon fill="#8b4513" stroke="#8b4513" points="577.7172,-288.101 584.9267,-295.8646 584.1322,-285.2996 577.7172,-288.101"/>
</a>
</g>
</g>
<!-- github.com/go&#45;i2p/go&#45;i2p/lib/util.UnregisterCloser -->
<g id="node7" class="node">
<title>github.com/go&#45;i2p/go&#45;i2p/lib/util.UnregisterCloser</title>
<g id="a_node7"><a xlink:title="github.com/go&#45;i2p/go&#45;i2p/lib/util.UnregisterCloser | defined in closeables.go:32&#10;at closeables.go:41: calling [(*github.com/go&#45;i2p/logger.Entry).Debug]&#10;at closeables.go:41: calling [(*github.com/go&#45;i2p/logger.Logger).WithField]">
<path fill="#add8e6" stroke="#000000" stroke-width="1.5" d="M464.4089,-438C464.4089,-438 369.1481,-438 369.1481,-438 363.1481,-438 357.1481,-432 357.1481,-426 357.1481,-426 357.1481,-414 357.1481,-414 357.1481,-408 363.1481,-402 369.1481,-402 369.1481,-402 464.4089,-402 464.4089,-402 470.4089,-402 476.4089,-408 476.4089,-414 476.4089,-414 476.4089,-426 476.4089,-426 476.4089,-432 470.4089,-438 464.4089,-438"/>
<text text-anchor="middle" x="416.7785" y="-415.8" font-family="Verdana" font-size="14.00" fill="#000000">UnregisterCloser</text>
</a>
</g>
</g>
<!-- github.com/go&#45;i2p/go&#45;i2p/lib/util.UnregisterCloser&#45;&gt;(*github.com/go&#45;i2p/logger.Entry).Debug -->
<g id="edge9" class="edge">
<title>github.com/go&#45;i2p/go&#45;i2p/lib/util.UnregisterCloser&#45;&gt;(*github.com/go&#45;i2p/logger.Entry).Debug</title>
<g id="a_edge9"><a xlink:title="at closeables.go:41: calling [(*github.com/go&#45;i2p/logger.Entry).Debug]">
<path fill="none" stroke="#8b4513" d="M461.1966,-401.9702C466.7848,-398.5265 472.1053,-394.548 476.5934,-390 523.0874,-342.8859 510.3602,-314.3602 541.5934,-256 552.543,-235.5403 565.8458,-212.9594 576.1346,-195.9309"/>
<polygon fill="#8b4513" stroke="#8b4513" points="579.3045,-197.4541 581.5064,-187.0905 573.3224,-193.819 579.3045,-197.4541"/>
</a>
</g>
</g>
<!-- github.com/go&#45;i2p/go&#45;i2p/lib/util.UnregisterCloser&#45;&gt;(*github.com/go&#45;i2p/logger.Logger).WithField -->
<g id="edge21" class="edge">
<title>github.com/go&#45;i2p/go&#45;i2p/lib/util.UnregisterCloser&#45;&gt;(*github.com/go&#45;i2p/logger.Logger).WithField</title>
<g id="a_edge21"><a xlink:title="at closeables.go:41: calling [(*github.com/go&#45;i2p/logger.Logger).WithField]">
<path fill="none" stroke="#8b4513" d="M455.4957,-438.1717C472.5954,-445.2381 493.1864,-452.4745 512.5934,-456 522.2237,-457.7495 532.4159,-457.1429 542.1851,-455.3126"/>
<polygon fill="#8b4513" stroke="#8b4513" points="543.2134,-458.6674 552.1712,-453.0097 541.6404,-451.8464 543.2134,-458.6674"/>
</a>
</g>
</g>
<!-- github.com/go&#45;i2p/go&#45;i2p/lib/util.init -->
<g id="node8" class="node">
<title>github.com/go&#45;i2p/go&#45;i2p/lib/util.init</title>
<g id="a_node8"><a xlink:title="github.com/go&#45;i2p/go&#45;i2p/lib/util.init | defined in .:0&#10;at log.go:5: calling [github.com/go&#45;i2p/logger.GetGoI2PLogger]">
<path fill="#add8e6" stroke="#000000" stroke-width=".5" d="M67.8871,-96C67.8871,-96 37.8871,-96 37.8871,-96 31.8871,-96 25.8871,-90 25.8871,-84 25.8871,-84 25.8871,-72 25.8871,-72 25.8871,-66 31.8871,-60 37.8871,-60 37.8871,-60 67.8871,-60 67.8871,-60 73.8871,-60 79.8871,-66 79.8871,-72 79.8871,-72 79.8871,-84 79.8871,-84 79.8871,-90 73.8871,-96 67.8871,-96"/>
<text text-anchor="middle" x="52.8871" y="-73.8" font-family="Verdana" font-size="14.00" fill="#000000">init</text>
</a>
</g>
</g>
<!-- github.com/go&#45;i2p/logger.GetGoI2PLogger -->
<g id="node9" class="node">
<title>github.com/go&#45;i2p/logger.GetGoI2PLogger</title>
<g id="a_node9"><a xlink:title="github.com/go&#45;i2p/logger.GetGoI2PLogger | defined in log.go:254">
<path fill="#ffe4b5" stroke="#000000" stroke-width="1.5" d="M272.0584,-96C272.0584,-96 174.6794,-96 174.6794,-96 168.6794,-96 162.6794,-90 162.6794,-84 162.6794,-84 162.6794,-72 162.6794,-72 162.6794,-66 168.6794,-60 174.6794,-60 174.6794,-60 272.0584,-60 272.0584,-60 278.0584,-60 284.0584,-66 284.0584,-72 284.0584,-72 284.0584,-84 284.0584,-84 284.0584,-90 278.0584,-96 272.0584,-96"/>
<text text-anchor="middle" x="223.3689" y="-82.2" font-family="Verdana" font-size="14.00" fill="#000000">logger</text>
<text text-anchor="middle" x="223.3689" y="-65.4" font-family="Verdana" font-size="14.00" fill="#000000">GetGoI2PLogger</text>
</a>
</g>
</g>
<!-- github.com/go&#45;i2p/go&#45;i2p/lib/util.init&#45;&gt;github.com/go&#45;i2p/logger.GetGoI2PLogger -->
<g id="edge10" class="edge">
<title>github.com/go&#45;i2p/go&#45;i2p/lib/util.init&#45;&gt;github.com/go&#45;i2p/logger.GetGoI2PLogger</title>
<g id="a_edge10"><a xlink:title="at log.go:5: calling [github.com/go&#45;i2p/logger.GetGoI2PLogger]">
<path fill="none" stroke="#8b4513" d="M79.9004,-78C99.4617,-78 126.8594,-78 152.4768,-78"/>
<polygon fill="#8b4513" stroke="#8b4513" points="152.5619,-81.5001 162.5619,-78 152.5618,-74.5001 152.5619,-81.5001"/>
</a>
</g>
</g>
<!-- github.com/go&#45;i2p/go&#45;i2p/lib/util.CheckFileExists -->
<g id="node10" class="node">
<title>github.com/go&#45;i2p/go&#45;i2p/lib/util.CheckFileExists</title>
<g id="a_node10"><a xlink:title="github.com/go&#45;i2p/go&#45;i2p/lib/util.CheckFileExists | defined in checkfile.go:10&#10;at checkfile.go:14: calling [(*github.com/go&#45;i2p/logger.Logger).WithFields]&#10;at checkfile.go:19: calling [(*github.com/go&#45;i2p/logger.Logger).WithFields]&#10;at checkfile.go:23: calling [(*github.com/go&#45;i2p/logger.Entry).Warn]&#10;at checkfile.go:17: calling [(*github.com/go&#45;i2p/logger.Entry).Debug]">
<path fill="#add8e6" stroke="#000000" stroke-width="1.5" d="M462.5459,-289C462.5459,-289 371.0111,-289 371.0111,-289 365.0111,-289 359.0111,-283 359.0111,-277 359.0111,-277 359.0111,-265 359.0111,-265 359.0111,-259 365.0111,-253 371.0111,-253 371.0111,-253 462.5459,-253 462.5459,-253 468.5459,-253 474.5459,-259 474.5459,-265 474.5459,-265 474.5459,-277 474.5459,-277 474.5459,-283 468.5459,-289 462.5459,-289"/>
<text text-anchor="middle" x="416.7785" y="-266.8" font-family="Verdana" font-size="14.00" fill="#000000">CheckFileExists</text>
</a>
</g>
</g>
<!-- github.com/go&#45;i2p/go&#45;i2p/lib/util.CheckFileExists&#45;&gt;(*github.com/go&#45;i2p/logger.Entry).Warn -->
<g id="edge18" class="edge">
<title>github.com/go&#45;i2p/go&#45;i2p/lib/util.CheckFileExists&#45;&gt;(*github.com/go&#45;i2p/logger.Entry).Warn</title>
<g id="a_edge18"><a xlink:title="at checkfile.go:23: calling [(*github.com/go&#45;i2p/logger.Entry).Warn]">
<path fill="none" stroke="#8b4513" d="M460.1059,-252.8419C465.985,-249.3846 471.6773,-245.4365 476.5934,-241 516.5014,-204.9857 503.1638,-176.5878 541.5934,-139 545.4884,-135.1903 549.9353,-131.6395 554.544,-128.4015"/>
<polygon fill="#8b4513" stroke="#8b4513" points="556.4727,-131.3222 562.9301,-122.9226 552.6441,-125.462 556.4727,-131.3222"/>
</a>
</g>
</g>
<!-- github.com/go&#45;i2p/go&#45;i2p/lib/util.CheckFileExists&#45;&gt;(*github.com/go&#45;i2p/logger.Entry).Debug -->
<g id="edge22" class="edge">
<title>github.com/go&#45;i2p/go&#45;i2p/lib/util.CheckFileExists&#45;&gt;(*github.com/go&#45;i2p/logger.Entry).Debug</title>
<g id="a_edge22"><a xlink:title="at checkfile.go:17: calling [(*github.com/go&#45;i2p/logger.Entry).Debug]">
<path fill="none" stroke="#8b4513" d="M454.0643,-252.9511C461.5879,-249.1272 469.3946,-245.0265 476.5934,-241 503.8231,-225.7696 533.7249,-207.1816 556.3638,-192.7075"/>
<polygon fill="#8b4513" stroke="#8b4513" points="558.4497,-195.5275 564.9721,-187.1784 554.6667,-189.6378 558.4497,-195.5275"/>
</a>
</g>
</g>
<!-- github.com/go&#45;i2p/go&#45;i2p/lib/util.CheckFileExists&#45;&gt;(*github.com/go&#45;i2p/logger.Logger).WithFields -->
<g id="edge11" class="edge">
<title>github.com/go&#45;i2p/go&#45;i2p/lib/util.CheckFileExists&#45;&gt;(*github.com/go&#45;i2p/logger.Logger).WithFields</title>
<g id="a_edge11"><a xlink:title="at checkfile.go:14: calling [(*github.com/go&#45;i2p/logger.Logger).WithFields]&#10;at checkfile.go:19: calling [(*github.com/go&#45;i2p/logger.Logger).WithFields]">
<path fill="none" stroke="#8b4513" d="M435.1502,-289.0927C453.4532,-306.2696 483.0197,-331.8047 512.5934,-348 521.0964,-352.6565 530.545,-356.7076 539.8849,-360.1556"/>
<polygon fill="#8b4513" stroke="#8b4513" points="538.9398,-363.5329 549.5347,-363.5307 541.2509,-356.9254 538.9398,-363.5329"/>
</a>
</g>
</g>
</g>
</svg>
