<?xml version="1.0" encoding="UTF-8" standalone="no"?>
<!DOCTYPE svg PUBLIC "-//W3C//DTD SVG 1.1//EN"
 "http://www.w3.org/Graphics/SVG/1.1/DTD/svg11.dtd">
<!-- Generated by graphviz version 2.40.1 (20161225.0304)
 -->
<!-- Title: gocallvis Pages: 1 -->
<svg width="673pt" height="1038pt"
 viewBox="0.00 0.00 672.82 1038.00" xmlns="http://www.w3.org/2000/svg" xmlns:xlink="http://www.w3.org/1999/xlink">
<g id="graph0" class="graph" transform="scale(1 1) rotate(0) translate(0 1038)">
<title>gocallvis</title>
<polygon fill="#d3d3d3" stroke="transparent" points="0,0 0,-1038 672.8192,-1038 672.8192,0 0,0"/>
<g id="clust1" class="cluster">
<title>cluster_focus</title>
<polygon fill="#e6ecfa" stroke="#000000" stroke-width=".5" points="8,-8 8,-1030 664.8192,-1030 664.8192,-8 8,-8"/>
<text text-anchor="middle" x="336.4096" y="-1009.8" font-family="Arial" font-size="18.00" fill="#000000">config</text>
</g>
<g id="clust7" class="cluster">
<title>cluster_gopkg.in/yaml.v3</title>
<g id="a_clust7"><a xlink:href="/?f=gopkg.in/yaml.v3" xlink:title="package: gopkg.in/yaml.v3">
<polygon fill="#ffffe0" stroke="#000000" stroke-width=".8" points="199.1031,-804 199.1031,-883 284.9727,-883 284.9727,-804 199.1031,-804"/>
<text text-anchor="middle" x="242.0379" y="-864.6" font-family="Tahoma bold" font-size="16.00" fill="#000000">yaml</text>
</a>
</g>
</g>
<g id="clust6" class="cluster">
<title>cluster_github.com/spf13/viper</title>
<g id="a_clust6"><a xlink:href="/?f=github.com/spf13/viper" xlink:title="package: github.com/spf13/viper">
<polygon fill="#ffffe0" stroke="#000000" stroke-width=".8" points="392.1291,-364 392.1291,-992 522.3311,-992 522.3311,-364 392.1291,-364"/>
<text text-anchor="middle" x="457.2301" y="-973.6" font-family="Tahoma bold" font-size="16.00" fill="#000000">viper</text>
</a>
</g>
</g>
<g id="clust4" class="cluster">
<title>cluster_github.com/sirupsen/logrus</title>
<g id="a_clust4"><a xlink:href="/?f=github.com/sirupsen/logrus" xlink:title="package: github.com/sirupsen/logrus">
<polygon fill="#ffffe0" stroke="#000000" stroke-width=".8" points="193.047,-402 193.047,-584 291.0288,-584 291.0288,-402 193.047,-402"/>
<text text-anchor="middle" x="242.0379" y="-565.6" font-family="Tahoma bold" font-size="16.00" fill="#000000">logrus</text>
</a>
</g>
</g>
<g id="clust5" class="cluster">
<title>cluster_*github.com/sirupsen/logrus.Logger</title>
<g id="a_clust5"><a xlink:href="/?f=github.com/sirupsen/logrus" xlink:title="type: *github.com/sirupsen/logrus.Logger">
<path fill="#eed8ae" stroke="#000000" stroke-width=".5" d="M213.047,-410C213.047,-410 271.0288,-410 271.0288,-410 277.0288,-410 283.0288,-416 283.0288,-422 283.0288,-422 283.0288,-537 283.0288,-537 283.0288,-543 277.0288,-549 271.0288,-549 271.0288,-549 213.047,-549 213.047,-549 207.047,-549 201.047,-543 201.047,-537 201.047,-537 201.047,-422 201.047,-422 201.047,-416 207.047,-410 213.047,-410"/>
<text text-anchor="middle" x="242.0379" y="-418.5" font-family="Tahoma bold" font-size="15.00" fill="#222222">(*Logger)</text>
</a>
</g>
</g>
<g id="clust2" class="cluster">
<title>cluster_github.com/go&#45;i2p/logger</title>
<g id="a_clust2"><a xlink:href="/?f=github.com/go-i2p/logger" xlink:title="package: github.com/go&#45;i2p/logger">
<polygon fill="#ffffe0" stroke="#000000" stroke-width=".8" points="388.6354,-191 388.6354,-356 525.8248,-356 525.8248,-191 388.6354,-191"/>
<text text-anchor="middle" x="457.2301" y="-337.6" font-family="Tahoma bold" font-size="16.00" fill="#000000">logger</text>
</a>
</g>
</g>
<g id="clust3" class="cluster">
<title>cluster_*github.com/go&#45;i2p/logger.Logger</title>
<g id="a_clust3"><a xlink:href="/?f=github.com/go-i2p/logger" xlink:title="type: *github.com/go&#45;i2p/logger.Logger">
<path fill="#eed8ae" stroke="#000000" stroke-width=".5" d="M431.3549,-243C431.3549,-243 484.1053,-243 484.1053,-243 490.1053,-243 496.1053,-249 496.1053,-255 496.1053,-255 496.1053,-309 496.1053,-309 496.1053,-315 490.1053,-321 484.1053,-321 484.1053,-321 431.3549,-321 431.3549,-321 425.3549,-321 419.3549,-315 419.3549,-309 419.3549,-309 419.3549,-255 419.3549,-255 419.3549,-249 425.3549,-243 431.3549,-243"/>
<text text-anchor="middle" x="457.7301" y="-251.5" font-family="Tahoma bold" font-size="15.00" fill="#222222">(*Logger)</text>
</a>
</g>
</g>
<!-- github.com/go&#45;i2p/go&#45;i2p/lib/config.InitConfig -->
<g id="node1" class="node">
<title>github.com/go&#45;i2p/go&#45;i2p/lib/config.InitConfig</title>
<g id="a_node1"><a xlink:title="github.com/go&#45;i2p/go&#45;i2p/lib/config.InitConfig | defined in config.go:19&#10;at config.go:76: calling [github.com/go&#45;i2p/go&#45;i2p/lib/config.UpdateRouterConfig]&#10;at config.go:41: calling [github.com/go&#45;i2p/go&#45;i2p/lib/config.DefaultRouterConfig]&#10;at config.go:42: calling [github.com/go&#45;i2p/go&#45;i2p/lib/config.DefaultRouterConfig]&#10;at config.go:43: calling [github.com/go&#45;i2p/go&#45;i2p/lib/config.DefaultRouterConfig]&#10;at config.go:44: calling [github.com/go&#45;i2p/go&#45;i2p/lib/config.DefaultRouterConfig]&#10;at config.go:31: calling [(*github.com/sirupsen/logrus.Logger).Fatalf]&#10;at config.go:49: calling [(*github.com/sirupsen/logrus.Logger).Fatalf]&#10;at config.go:54: calling [(*github.com/sirupsen/logrus.Logger).Fatalf]&#10;at config.go:72: calling [github.com/spf13/viper.ConfigFileUsed]&#10;at config.go:25: calling [github.com/spf13/viper.SetConfigFile]&#10;at config.go:67: calling [github.com/go&#45;i2p/go&#45;i2p/lib/config.setDefaults]&#10;at config.go:69: calling [github.com/spf13/viper.ReadInConfig]&#10;at config.go:61: calling [github.com/spf13/viper.AddConfigPath]&#10;at config.go:57: calling [(*github.com/sirupsen/logrus.Logger).Debugf]&#10;at config.go:72: calling [(*github.com/sirupsen/logrus.Logger).Debugf]&#10;at config.go:63: calling [github.com/spf13/viper.SetConfigType]&#10;at config.go:47: calling [gopkg.in/yaml.v3.Marshal]&#10;at config.go:70: calling [(*github.com/go&#45;i2p/logger.Logger).Warnf]&#10;at config.go:62: calling [github.com/spf13/viper.SetConfigName]">
<path fill="#add8e6" stroke="#000000" stroke-width="1.5" d="M86.4951,-611C86.4951,-611 27.8345,-611 27.8345,-611 21.8345,-611 15.8345,-605 15.8345,-599 15.8345,-599 15.8345,-587 15.8345,-587 15.8345,-581 21.8345,-575 27.8345,-575 27.8345,-575 86.4951,-575 86.4951,-575 92.4951,-575 98.4951,-581 98.4951,-587 98.4951,-587 98.4951,-599 98.4951,-599 98.4951,-605 92.4951,-611 86.4951,-611"/>
<text text-anchor="middle" x="57.1648" y="-588.8" font-family="Verdana" font-size="14.00" fill="#000000">InitConfig</text>
</a>
</g>
</g>
<!-- github.com/go&#45;i2p/go&#45;i2p/lib/config.setDefaults -->
<g id="node2" class="node">
<title>github.com/go&#45;i2p/go&#45;i2p/lib/config.setDefaults</title>
<g id="a_node2"><a xlink:title="github.com/go&#45;i2p/go&#45;i2p/lib/config.setDefaults | defined in config.go:79&#10;at config.go:81: calling [github.com/spf13/viper.SetDefault]&#10;at config.go:82: calling [github.com/spf13/viper.SetDefault]&#10;at config.go:85: calling [github.com/spf13/viper.SetDefault]&#10;at config.go:88: calling [github.com/spf13/viper.SetDefault]&#10;at config.go:89: calling [github.com/spf13/viper.SetDefault]&#10;at config.go:81: calling [github.com/go&#45;i2p/go&#45;i2p/lib/config.DefaultRouterConfig]&#10;at config.go:82: calling [github.com/go&#45;i2p/go&#45;i2p/lib/config.DefaultRouterConfig]">
<path fill="#add8e6" stroke="#000000" stroke-width=".5" d="M273.5099,-313C273.5099,-313 210.5659,-313 210.5659,-313 204.5659,-313 198.5659,-307 198.5659,-301 198.5659,-301 198.5659,-289 198.5659,-289 198.5659,-283 204.5659,-277 210.5659,-277 210.5659,-277 273.5099,-277 273.5099,-277 279.5099,-277 285.5099,-283 285.5099,-289 285.5099,-289 285.5099,-301 285.5099,-301 285.5099,-307 279.5099,-313 273.5099,-313"/>
<text text-anchor="middle" x="242.0379" y="-290.8" font-family="Verdana" font-size="14.00" fill="#000000">setDefaults</text>
</a>
</g>
</g>
<!-- github.com/go&#45;i2p/go&#45;i2p/lib/config.InitConfig&#45;&gt;github.com/go&#45;i2p/go&#45;i2p/lib/config.setDefaults -->
<g id="edge12" class="edge">
<title>github.com/go&#45;i2p/go&#45;i2p/lib/config.InitConfig&#45;&gt;github.com/go&#45;i2p/go&#45;i2p/lib/config.setDefaults</title>
<g id="a_edge12"><a xlink:title="at config.go:67: calling [github.com/go&#45;i2p/go&#45;i2p/lib/config.setDefaults]">
<path fill="none" stroke="#000000" d="M60.2837,-574.979C69.7884,-521.9654 99.8539,-368.0065 134.3296,-332 148.5938,-317.1024 169.1175,-308.2023 188.4309,-302.8856"/>
<polygon fill="#000000" stroke="#000000" points="189.5166,-306.2224 198.3806,-300.4191 187.8322,-299.4281 189.5166,-306.2224"/>
</a>
</g>
</g>
<!-- github.com/go&#45;i2p/go&#45;i2p/lib/config.DefaultRouterConfig -->
<g id="node3" class="node">
<title>github.com/go&#45;i2p/go&#45;i2p/lib/config.DefaultRouterConfig</title>
<g id="a_node3"><a xlink:title="github.com/go&#45;i2p/go&#45;i2p/lib/config.DefaultRouterConfig | defined in router.go:44">
<path fill="#add8e6" stroke="#000000" stroke-width="1.5" d="M516.6979,-174C516.6979,-174 397.7623,-174 397.7623,-174 391.7623,-174 385.7623,-168 385.7623,-162 385.7623,-162 385.7623,-150 385.7623,-150 385.7623,-144 391.7623,-138 397.7623,-138 397.7623,-138 516.6979,-138 516.6979,-138 522.6979,-138 528.6979,-144 528.6979,-150 528.6979,-150 528.6979,-162 528.6979,-162 528.6979,-168 522.6979,-174 516.6979,-174"/>
<text text-anchor="middle" x="457.2301" y="-151.8" font-family="Verdana" font-size="14.00" fill="#000000">DefaultRouterConfig</text>
</a>
</g>
</g>
<!-- github.com/go&#45;i2p/go&#45;i2p/lib/config.InitConfig&#45;&gt;github.com/go&#45;i2p/go&#45;i2p/lib/config.DefaultRouterConfig -->
<g id="edge5" class="edge">
<title>github.com/go&#45;i2p/go&#45;i2p/lib/config.InitConfig&#45;&gt;github.com/go&#45;i2p/go&#45;i2p/lib/config.DefaultRouterConfig</title>
<g id="a_edge5"><a xlink:title="at config.go:41: calling [github.com/go&#45;i2p/go&#45;i2p/lib/config.DefaultRouterConfig]&#10;at config.go:42: calling [github.com/go&#45;i2p/go&#45;i2p/lib/config.DefaultRouterConfig]&#10;at config.go:43: calling [github.com/go&#45;i2p/go&#45;i2p/lib/config.DefaultRouterConfig]&#10;at config.go:44: calling [github.com/go&#45;i2p/go&#45;i2p/lib/config.DefaultRouterConfig]">
<path fill="none" stroke="#000000" d="M60.8993,-574.9681C74.2062,-512.4871 121.1951,-306.7929 171.3296,-265 230.3689,-215.7839 314.0043,-187.3812 375.5705,-171.9867"/>
<polygon fill="#000000" stroke="#000000" points="376.7513,-175.3016 385.6395,-169.5353 375.0954,-168.5002 376.7513,-175.3016"/>
</a>
</g>
</g>
<!-- github.com/go&#45;i2p/go&#45;i2p/lib/config.UpdateRouterConfig -->
<g id="node4" class="node">
<title>github.com/go&#45;i2p/go&#45;i2p/lib/config.UpdateRouterConfig</title>
<g id="a_node4"><a xlink:title="github.com/go&#45;i2p/go&#45;i2p/lib/config.UpdateRouterConfig | defined in config.go:92&#10;at config.go:94: calling [github.com/spf13/viper.GetString]&#10;at config.go:95: calling [github.com/spf13/viper.GetString]&#10;at config.go:99: calling [github.com/spf13/viper.GetString]&#10;at config.go:110: calling [github.com/spf13/viper.GetInt]&#10;at config.go:105: calling [(*github.com/go&#45;i2p/logger.Logger).Warnf]&#10;at config.go:104: calling [github.com/spf13/viper.UnmarshalKey]">
<path fill="#add8e6" stroke="#000000" stroke-width="1.5" d="M300.9551,-655C300.9551,-655 183.1207,-655 183.1207,-655 177.1207,-655 171.1207,-649 171.1207,-643 171.1207,-643 171.1207,-631 171.1207,-631 171.1207,-625 177.1207,-619 183.1207,-619 183.1207,-619 300.9551,-619 300.9551,-619 306.9551,-619 312.9551,-625 312.9551,-631 312.9551,-631 312.9551,-643 312.9551,-643 312.9551,-649 306.9551,-655 300.9551,-655"/>
<text text-anchor="middle" x="242.0379" y="-632.8" font-family="Verdana" font-size="14.00" fill="#000000">UpdateRouterConfig</text>
</a>
</g>
</g>
<!-- github.com/go&#45;i2p/go&#45;i2p/lib/config.InitConfig&#45;&gt;github.com/go&#45;i2p/go&#45;i2p/lib/config.UpdateRouterConfig -->
<g id="edge2" class="edge">
<title>github.com/go&#45;i2p/go&#45;i2p/lib/config.InitConfig&#45;&gt;github.com/go&#45;i2p/go&#45;i2p/lib/config.UpdateRouterConfig</title>
<g id="a_edge2"><a xlink:title="at config.go:76: calling [github.com/go&#45;i2p/go&#45;i2p/lib/config.UpdateRouterConfig]">
<path fill="none" stroke="#000000" d="M98.6539,-602.8745C117.2101,-607.2909 139.7498,-612.6553 161.4101,-617.8105"/>
<polygon fill="#000000" stroke="#000000" points="160.7441,-621.2497 171.2828,-620.1602 162.3649,-614.4399 160.7441,-621.2497"/>
</a>
</g>
</g>
<!-- (*github.com/go&#45;i2p/logger.Logger).Warnf -->
<g id="node10" class="node">
<title>(*github.com/go&#45;i2p/logger.Logger).Warnf</title>
<g id="a_node10"><a xlink:title="(*github.com/go&#45;i2p/logger.Logger).Warnf | defined in log.go:36">
<path fill="#ffe4b5" stroke="#000000" stroke-width="1.5" d="M474.981,-313C474.981,-313 439.4792,-313 439.4792,-313 433.4792,-313 427.4792,-307 427.4792,-301 427.4792,-301 427.4792,-289 427.4792,-289 427.4792,-283 433.4792,-277 439.4792,-277 439.4792,-277 474.981,-277 474.981,-277 480.981,-277 486.981,-283 486.981,-289 486.981,-289 486.981,-301 486.981,-301 486.981,-307 480.981,-313 474.981,-313"/>
<text text-anchor="middle" x="457.2301" y="-290.8" font-family="Verdana" font-size="14.00" fill="#000000">Warnf</text>
</a>
</g>
</g>
<!-- github.com/go&#45;i2p/go&#45;i2p/lib/config.InitConfig&#45;&gt;(*github.com/go&#45;i2p/logger.Logger).Warnf -->
<g id="edge21" class="edge">
<title>github.com/go&#45;i2p/go&#45;i2p/lib/config.InitConfig&#45;&gt;(*github.com/go&#45;i2p/logger.Logger).Warnf</title>
<g id="a_edge21"><a xlink:title="at config.go:70: calling [(*github.com/go&#45;i2p/logger.Logger).Warnf]">
<path fill="none" stroke="#8b4513" d="M60.8787,-574.9279C70.5959,-532.7388 101.0424,-427.7993 171.3296,-381 212.1617,-353.8128 348.9123,-319.8137 417.417,-303.939"/>
<polygon fill="#8b4513" stroke="#8b4513" points="418.4446,-307.2941 427.4052,-301.6409 416.875,-300.4723 418.4446,-307.2941"/>
</a>
</g>
</g>
<!-- (*github.com/sirupsen/logrus.Logger).Fatalf -->
<g id="node11" class="node">
<title>(*github.com/sirupsen/logrus.Logger).Fatalf</title>
<g id="a_node11"><a xlink:title="(*github.com/sirupsen/logrus.Logger).Fatalf | defined in logger.go:189">
<path fill="#ffe4b5" stroke="#000000" stroke-width="1.5" d="M258.1926,-480C258.1926,-480 225.8832,-480 225.8832,-480 219.8832,-480 213.8832,-474 213.8832,-468 213.8832,-468 213.8832,-456 213.8832,-456 213.8832,-450 219.8832,-444 225.8832,-444 225.8832,-444 258.1926,-444 258.1926,-444 264.1926,-444 270.1926,-450 270.1926,-456 270.1926,-456 270.1926,-468 270.1926,-468 270.1926,-474 264.1926,-480 258.1926,-480"/>
<text text-anchor="middle" x="242.0379" y="-457.8" font-family="Verdana" font-size="14.00" fill="#000000">Fatalf</text>
</a>
</g>
</g>
<!-- github.com/go&#45;i2p/go&#45;i2p/lib/config.InitConfig&#45;&gt;(*github.com/sirupsen/logrus.Logger).Fatalf -->
<g id="edge6" class="edge">
<title>github.com/go&#45;i2p/go&#45;i2p/lib/config.InitConfig&#45;&gt;(*github.com/sirupsen/logrus.Logger).Fatalf</title>
<g id="a_edge6"><a xlink:title="at config.go:31: calling [(*github.com/sirupsen/logrus.Logger).Fatalf]&#10;at config.go:49: calling [(*github.com/sirupsen/logrus.Logger).Fatalf]&#10;at config.go:54: calling [(*github.com/sirupsen/logrus.Logger).Fatalf]">
<path fill="none" stroke="#8b4513" d="M74.3623,-574.8621C95.5878,-553.2435 133.5286,-517.0307 171.3296,-493 181.5656,-486.4928 193.4002,-480.7125 204.4242,-475.9583"/>
<polygon fill="#8b4513" stroke="#8b4513" points="205.9466,-479.116 213.8427,-472.052 203.2648,-472.6501 205.9466,-479.116"/>
</a>
</g>
</g>
<!-- (*github.com/sirupsen/logrus.Logger).Debugf -->
<g id="node12" class="node">
<title>(*github.com/sirupsen/logrus.Logger).Debugf</title>
<g id="a_node12"><a xlink:title="(*github.com/sirupsen/logrus.Logger).Debugf | defined in logger.go:163">
<path fill="#ffe4b5" stroke="#000000" stroke-width="1.5" d="M263.0197,-541C263.0197,-541 221.0561,-541 221.0561,-541 215.0561,-541 209.0561,-535 209.0561,-529 209.0561,-529 209.0561,-517 209.0561,-517 209.0561,-511 215.0561,-505 221.0561,-505 221.0561,-505 263.0197,-505 263.0197,-505 269.0197,-505 275.0197,-511 275.0197,-517 275.0197,-517 275.0197,-529 275.0197,-529 275.0197,-535 269.0197,-541 263.0197,-541"/>
<text text-anchor="middle" x="242.0379" y="-518.8" font-family="Verdana" font-size="14.00" fill="#000000">Debugf</text>
</a>
</g>
</g>
<!-- github.com/go&#45;i2p/go&#45;i2p/lib/config.InitConfig&#45;&gt;(*github.com/sirupsen/logrus.Logger).Debugf -->
<g id="edge15" class="edge">
<title>github.com/go&#45;i2p/go&#45;i2p/lib/config.InitConfig&#45;&gt;(*github.com/sirupsen/logrus.Logger).Debugf</title>
<g id="a_edge15"><a xlink:title="at config.go:57: calling [(*github.com/sirupsen/logrus.Logger).Debugf]&#10;at config.go:72: calling [(*github.com/sirupsen/logrus.Logger).Debugf]">
<path fill="none" stroke="#8b4513" d="M97.4728,-574.9339C119.1598,-565.4988 146.4853,-554.0639 171.3296,-545 180.199,-541.7642 189.7985,-538.5744 198.9793,-535.6706"/>
<polygon fill="#8b4513" stroke="#8b4513" points="200.2116,-538.9528 208.7228,-532.6432 198.1346,-532.2681 200.2116,-538.9528"/>
</a>
</g>
</g>
<!-- github.com/spf13/viper.SetConfigFile -->
<g id="node13" class="node">
<title>github.com/spf13/viper.SetConfigFile</title>
<g id="a_node13"><a xlink:title="github.com/spf13/viper.SetConfigFile | defined in viper.go:509">
<path fill="#ffe4b5" stroke="#000000" stroke-width="1.5" d="M496.2851,-774C496.2851,-774 418.1751,-774 418.1751,-774 412.1751,-774 406.1751,-768 406.1751,-762 406.1751,-762 406.1751,-750 406.1751,-750 406.1751,-744 412.1751,-738 418.1751,-738 418.1751,-738 496.2851,-738 496.2851,-738 502.2851,-738 508.2851,-744 508.2851,-750 508.2851,-750 508.2851,-762 508.2851,-762 508.2851,-768 502.2851,-774 496.2851,-774"/>
<text text-anchor="middle" x="457.2301" y="-751.8" font-family="Verdana" font-size="14.00" fill="#000000">SetConfigFile</text>
</a>
</g>
</g>
<!-- github.com/go&#45;i2p/go&#45;i2p/lib/config.InitConfig&#45;&gt;github.com/spf13/viper.SetConfigFile -->
<g id="edge10" class="edge">
<title>github.com/go&#45;i2p/go&#45;i2p/lib/config.InitConfig&#45;&gt;github.com/spf13/viper.SetConfigFile</title>
<g id="a_edge10"><a xlink:title="at config.go:25: calling [github.com/spf13/viper.SetConfigFile]">
<path fill="none" stroke="#8b4513" d="M80.4933,-611.1796C102.7855,-627.8412 137.8571,-652.2451 171.3296,-668 191.9452,-677.7034 318.6528,-715.458 396.307,-738.2442"/>
<polygon fill="#8b4513" stroke="#8b4513" points="395.4087,-741.628 405.9895,-741.0823 397.3778,-734.9107 395.4087,-741.628"/>
</a>
</g>
</g>
<!-- github.com/spf13/viper.ReadInConfig -->
<g id="node15" class="node">
<title>github.com/spf13/viper.ReadInConfig</title>
<g id="a_node15"><a xlink:title="github.com/spf13/viper.ReadInConfig | defined in viper.go:1632">
<path fill="#ffe4b5" stroke="#000000" stroke-width="1.5" d="M497.0448,-835C497.0448,-835 417.4154,-835 417.4154,-835 411.4154,-835 405.4154,-829 405.4154,-823 405.4154,-823 405.4154,-811 405.4154,-811 405.4154,-805 411.4154,-799 417.4154,-799 417.4154,-799 497.0448,-799 497.0448,-799 503.0448,-799 509.0448,-805 509.0448,-811 509.0448,-811 509.0448,-823 509.0448,-823 509.0448,-829 503.0448,-835 497.0448,-835"/>
<text text-anchor="middle" x="457.2301" y="-812.8" font-family="Verdana" font-size="14.00" fill="#000000">ReadInConfig</text>
</a>
</g>
</g>
<!-- github.com/go&#45;i2p/go&#45;i2p/lib/config.InitConfig&#45;&gt;github.com/spf13/viper.ReadInConfig -->
<g id="edge13" class="edge">
<title>github.com/go&#45;i2p/go&#45;i2p/lib/config.InitConfig&#45;&gt;github.com/spf13/viper.ReadInConfig</title>
<g id="a_edge13"><a xlink:title="at config.go:69: calling [github.com/spf13/viper.ReadInConfig]">
<path fill="none" stroke="#8b4513" d="M72.3319,-611.0539C92.6366,-634.1324 130.8196,-673.863 171.3296,-697 243.3839,-738.1534 278.3696,-709.6821 349.7462,-752 368.9415,-763.3805 367.1334,-774.6899 385.7462,-787 389.6788,-789.6009 393.8736,-792.0518 398.1854,-794.3449"/>
<polygon fill="#8b4513" stroke="#8b4513" points="396.6437,-797.4872 407.1533,-798.828 399.7737,-791.2259 396.6437,-797.4872"/>
</a>
</g>
</g>
<!-- github.com/spf13/viper.AddConfigPath -->
<g id="node16" class="node">
<title>github.com/spf13/viper.AddConfigPath</title>
<g id="a_node16"><a xlink:title="github.com/spf13/viper.AddConfigPath | defined in viper.go:574">
<path fill="#ffe4b5" stroke="#000000" stroke-width="1.5" d="M501.1124,-896C501.1124,-896 413.3478,-896 413.3478,-896 407.3478,-896 401.3478,-890 401.3478,-884 401.3478,-884 401.3478,-872 401.3478,-872 401.3478,-866 407.3478,-860 413.3478,-860 413.3478,-860 501.1124,-860 501.1124,-860 507.1124,-860 513.1124,-866 513.1124,-872 513.1124,-872 513.1124,-884 513.1124,-884 513.1124,-890 507.1124,-896 501.1124,-896"/>
<text text-anchor="middle" x="457.2301" y="-873.8" font-family="Verdana" font-size="14.00" fill="#000000">AddConfigPath</text>
</a>
</g>
</g>
<!-- github.com/go&#45;i2p/go&#45;i2p/lib/config.InitConfig&#45;&gt;github.com/spf13/viper.AddConfigPath -->
<g id="edge14" class="edge">
<title>github.com/go&#45;i2p/go&#45;i2p/lib/config.InitConfig&#45;&gt;github.com/spf13/viper.AddConfigPath</title>
<g id="a_edge14"><a xlink:title="at config.go:61: calling [github.com/spf13/viper.AddConfigPath]">
<path fill="none" stroke="#8b4513" d="M68.5364,-611.1945C86.8449,-639.0334 125.484,-692.1087 171.3296,-722 241.0618,-767.4654 286.054,-725.3998 349.7462,-779 376.2114,-801.2719 360.2877,-824.584 385.7462,-848 388.3001,-850.349 391.0646,-852.5291 393.9714,-854.5506"/>
<polygon fill="#8b4513" stroke="#8b4513" points="392.1414,-857.5341 402.4833,-859.8358 395.834,-851.5873 392.1414,-857.5341"/>
</a>
</g>
</g>
<!-- github.com/spf13/viper.SetConfigName -->
<g id="node17" class="node">
<title>github.com/spf13/viper.SetConfigName</title>
<g id="a_node17"><a xlink:title="github.com/spf13/viper.SetConfigName | defined in viper.go:2174">
<path fill="#ffe4b5" stroke="#000000" stroke-width="1.5" d="M502.4323,-957C502.4323,-957 412.0279,-957 412.0279,-957 406.0279,-957 400.0279,-951 400.0279,-945 400.0279,-945 400.0279,-933 400.0279,-933 400.0279,-927 406.0279,-921 412.0279,-921 412.0279,-921 502.4323,-921 502.4323,-921 508.4323,-921 514.4323,-927 514.4323,-933 514.4323,-933 514.4323,-945 514.4323,-945 514.4323,-951 508.4323,-957 502.4323,-957"/>
<text text-anchor="middle" x="457.2301" y="-934.8" font-family="Verdana" font-size="14.00" fill="#000000">SetConfigName</text>
</a>
</g>
</g>
<!-- github.com/go&#45;i2p/go&#45;i2p/lib/config.InitConfig&#45;&gt;github.com/spf13/viper.SetConfigName -->
<g id="edge25" class="edge">
<title>github.com/go&#45;i2p/go&#45;i2p/lib/config.InitConfig&#45;&gt;github.com/spf13/viper.SetConfigName</title>
<g id="a_edge25"><a xlink:title="at config.go:62: calling [github.com/spf13/viper.SetConfigName]">
<path fill="none" stroke="#8b4513" d="M70.0672,-611.1574C85.2269,-632.3895 111.2451,-668.5125 134.3296,-699 150.3779,-720.1948 149.8188,-730.3779 171.3296,-746 225.514,-785.3513 260.2861,-756.3777 312.7462,-798 359.0016,-834.6995 340.3279,-871.2694 385.7462,-909 388.6611,-911.4215 391.7996,-913.6733 395.0771,-915.7634"/>
<polygon fill="#8b4513" stroke="#8b4513" points="393.6092,-918.9572 404.0199,-920.9237 397.1078,-912.8942 393.6092,-918.9572"/>
</a>
</g>
</g>
<!-- github.com/spf13/viper.SetConfigType -->
<g id="node18" class="node">
<title>github.com/spf13/viper.SetConfigType</title>
<g id="a_node18"><a xlink:title="github.com/spf13/viper.SetConfigType | defined in viper.go:2185">
<path fill="#ffe4b5" stroke="#000000" stroke-width="1.5" d="M499.7739,-469C499.7739,-469 414.6863,-469 414.6863,-469 408.6863,-469 402.6863,-463 402.6863,-457 402.6863,-457 402.6863,-445 402.6863,-445 402.6863,-439 408.6863,-433 414.6863,-433 414.6863,-433 499.7739,-433 499.7739,-433 505.7739,-433 511.7739,-439 511.7739,-445 511.7739,-445 511.7739,-457 511.7739,-457 511.7739,-463 505.7739,-469 499.7739,-469"/>
<text text-anchor="middle" x="457.2301" y="-446.8" font-family="Verdana" font-size="14.00" fill="#000000">SetConfigType</text>
</a>
</g>
</g>
<!-- github.com/go&#45;i2p/go&#45;i2p/lib/config.InitConfig&#45;&gt;github.com/spf13/viper.SetConfigType -->
<g id="edge19" class="edge">
<title>github.com/go&#45;i2p/go&#45;i2p/lib/config.InitConfig&#45;&gt;github.com/spf13/viper.SetConfigType</title>
<g id="a_edge19"><a xlink:title="at config.go:63: calling [github.com/spf13/viper.SetConfigType]">
<path fill="none" stroke="#8b4513" d="M61.6599,-574.9369C72.5967,-535.3689 104.7238,-441.581 171.3296,-404 226.0692,-373.1142 250.6699,-394.1573 312.7462,-404 343.8381,-408.9299 377.3414,-419.4778 404.2506,-429.3342"/>
<polygon fill="#8b4513" stroke="#8b4513" points="403.257,-432.6993 413.8495,-432.9225 405.7081,-426.1424 403.257,-432.6993"/>
</a>
</g>
</g>
<!-- github.com/spf13/viper.ConfigFileUsed -->
<g id="node22" class="node">
<title>github.com/spf13/viper.ConfigFileUsed</title>
<g id="a_node22"><a xlink:title="github.com/spf13/viper.ConfigFileUsed | defined in viper.go:569">
<path fill="#ffe4b5" stroke="#000000" stroke-width="1.5" d="M502.1629,-530C502.1629,-530 412.2973,-530 412.2973,-530 406.2973,-530 400.2973,-524 400.2973,-518 400.2973,-518 400.2973,-506 400.2973,-506 400.2973,-500 406.2973,-494 412.2973,-494 412.2973,-494 502.1629,-494 502.1629,-494 508.1629,-494 514.1629,-500 514.1629,-506 514.1629,-506 514.1629,-518 514.1629,-518 514.1629,-524 508.1629,-530 502.1629,-530"/>
<text text-anchor="middle" x="457.2301" y="-507.8" font-family="Verdana" font-size="14.00" fill="#000000">ConfigFileUsed</text>
</a>
</g>
</g>
<!-- github.com/go&#45;i2p/go&#45;i2p/lib/config.InitConfig&#45;&gt;github.com/spf13/viper.ConfigFileUsed -->
<g id="edge8" class="edge">
<title>github.com/go&#45;i2p/go&#45;i2p/lib/config.InitConfig&#45;&gt;github.com/spf13/viper.ConfigFileUsed</title>
<g id="a_edge8"><a xlink:title="at config.go:72: calling [github.com/spf13/viper.ConfigFileUsed]">
<path fill="none" stroke="#8b4513" d="M98.6619,-588.6615C149.5003,-582.927 238.0781,-571.5743 312.7462,-555 339.4743,-549.0671 368.4853,-540.8025 393.4501,-533.1026"/>
<polygon fill="#8b4513" stroke="#8b4513" points="394.6589,-536.3919 403.1631,-530.0729 392.5745,-529.7094 394.6589,-536.3919"/>
</a>
</g>
</g>
<!-- gopkg.in/yaml.v3.Marshal -->
<g id="node23" class="node">
<title>gopkg.in/yaml.v3.Marshal</title>
<g id="a_node23"><a xlink:title="gopkg.in/yaml.v3.Marshal | defined in yaml.go:218">
<path fill="#ffe4b5" stroke="#000000" stroke-width="1.5" d="M264.9076,-848C264.9076,-848 219.1682,-848 219.1682,-848 213.1682,-848 207.1682,-842 207.1682,-836 207.1682,-836 207.1682,-824 207.1682,-824 207.1682,-818 213.1682,-812 219.1682,-812 219.1682,-812 264.9076,-812 264.9076,-812 270.9076,-812 276.9076,-818 276.9076,-824 276.9076,-824 276.9076,-836 276.9076,-836 276.9076,-842 270.9076,-848 264.9076,-848"/>
<text text-anchor="middle" x="242.0379" y="-825.8" font-family="Verdana" font-size="14.00" fill="#000000">Marshal</text>
</a>
</g>
</g>
<!-- github.com/go&#45;i2p/go&#45;i2p/lib/config.InitConfig&#45;&gt;gopkg.in/yaml.v3.Marshal -->
<g id="edge20" class="edge">
<title>github.com/go&#45;i2p/go&#45;i2p/lib/config.InitConfig&#45;&gt;gopkg.in/yaml.v3.Marshal</title>
<g id="a_edge20"><a xlink:title="at config.go:47: calling [gopkg.in/yaml.v3.Marshal]">
<path fill="none" stroke="#8b4513" d="M59.297,-611.0549C64.7592,-649.5491 82.6661,-740.4543 134.3296,-793 150.9036,-809.857 175.4908,-819.0389 196.9907,-824.0379"/>
<polygon fill="#8b4513" stroke="#8b4513" points="196.425,-827.4952 206.9292,-826.1121 197.8552,-820.6429 196.425,-827.4952"/>
</a>
</g>
</g>
<!-- github.com/go&#45;i2p/go&#45;i2p/lib/config.setDefaults&#45;&gt;github.com/go&#45;i2p/go&#45;i2p/lib/config.DefaultRouterConfig -->
<g id="edge18" class="edge">
<title>github.com/go&#45;i2p/go&#45;i2p/lib/config.setDefaults&#45;&gt;github.com/go&#45;i2p/go&#45;i2p/lib/config.DefaultRouterConfig</title>
<g id="a_edge18"><a xlink:title="at config.go:81: calling [github.com/go&#45;i2p/go&#45;i2p/lib/config.DefaultRouterConfig]&#10;at config.go:82: calling [github.com/go&#45;i2p/go&#45;i2p/lib/config.DefaultRouterConfig]">
<path fill="none" stroke="#000000" d="M262.2172,-276.7238C288.9519,-253.1997 338.2853,-212.1336 385.7462,-185 389.712,-182.7327 393.8901,-180.5548 398.1534,-178.4827"/>
<polygon fill="#000000" stroke="#000000" points="399.9691,-181.499 407.5735,-174.1217 397.0284,-175.1467 399.9691,-181.499"/>
</a>
</g>
</g>
<!-- github.com/spf13/viper.SetDefault -->
<g id="node14" class="node">
<title>github.com/spf13/viper.SetDefault</title>
<g id="a_node14"><a xlink:title="github.com/spf13/viper.SetDefault | defined in viper.go:1596">
<path fill="#ffe4b5" stroke="#000000" stroke-width="1.5" d="M487.0956,-408C487.0956,-408 427.3646,-408 427.3646,-408 421.3646,-408 415.3646,-402 415.3646,-396 415.3646,-396 415.3646,-384 415.3646,-384 415.3646,-378 421.3646,-372 427.3646,-372 427.3646,-372 487.0956,-372 487.0956,-372 493.0956,-372 499.0956,-378 499.0956,-384 499.0956,-384 499.0956,-396 499.0956,-396 499.0956,-402 493.0956,-408 487.0956,-408"/>
<text text-anchor="middle" x="457.2301" y="-385.8" font-family="Verdana" font-size="14.00" fill="#000000">SetDefault</text>
</a>
</g>
</g>
<!-- github.com/go&#45;i2p/go&#45;i2p/lib/config.setDefaults&#45;&gt;github.com/spf13/viper.SetDefault -->
<g id="edge11" class="edge">
<title>github.com/go&#45;i2p/go&#45;i2p/lib/config.setDefaults&#45;&gt;github.com/spf13/viper.SetDefault</title>
<g id="a_edge11"><a xlink:title="at config.go:81: calling [github.com/spf13/viper.SetDefault]&#10;at config.go:82: calling [github.com/spf13/viper.SetDefault]&#10;at config.go:85: calling [github.com/spf13/viper.SetDefault]&#10;at config.go:88: calling [github.com/spf13/viper.SetDefault]&#10;at config.go:89: calling [github.com/spf13/viper.SetDefault]">
<path fill="none" stroke="#8b4513" d="M283.0204,-313.0924C318.3198,-328.6759 369.3895,-351.2214 407.1143,-367.8756"/>
<polygon fill="#8b4513" stroke="#8b4513" points="405.8384,-371.1382 416.4002,-371.975 408.6655,-364.7344 405.8384,-371.1382"/>
</a>
</g>
</g>
<!-- github.com/go&#45;i2p/go&#45;i2p/lib/config.UpdateRouterConfig&#45;&gt;(*github.com/go&#45;i2p/logger.Logger).Warnf -->
<g id="edge16" class="edge">
<title>github.com/go&#45;i2p/go&#45;i2p/lib/config.UpdateRouterConfig&#45;&gt;(*github.com/go&#45;i2p/logger.Logger).Warnf</title>
<g id="a_edge16"><a xlink:title="at config.go:105: calling [(*github.com/go&#45;i2p/logger.Logger).Warnf]">
<path fill="none" stroke="#8b4513" d="M260.995,-618.9556C276.601,-603.2612 298.4132,-579.2823 312.7462,-555 360.2096,-474.5896 332.8976,-434.9782 385.7462,-358 395.7483,-343.4312 409.8507,-330.0508 422.8896,-319.4039"/>
<polygon fill="#8b4513" stroke="#8b4513" points="425.1428,-322.0844 430.8245,-313.1418 420.8063,-316.5894 425.1428,-322.0844"/>
</a>
</g>
</g>
<!-- github.com/spf13/viper.GetString -->
<g id="node19" class="node">
<title>github.com/spf13/viper.GetString</title>
<g id="a_node19"><a xlink:title="github.com/spf13/viper.GetString | defined in viper.go:975">
<path fill="#ffe4b5" stroke="#000000" stroke-width="1.5" d="M484.6675,-713C484.6675,-713 429.7927,-713 429.7927,-713 423.7927,-713 417.7927,-707 417.7927,-701 417.7927,-701 417.7927,-689 417.7927,-689 417.7927,-683 423.7927,-677 429.7927,-677 429.7927,-677 484.6675,-677 484.6675,-677 490.6675,-677 496.6675,-683 496.6675,-689 496.6675,-689 496.6675,-701 496.6675,-701 496.6675,-707 490.6675,-713 484.6675,-713"/>
<text text-anchor="middle" x="457.2301" y="-690.8" font-family="Verdana" font-size="14.00" fill="#000000">GetString</text>
</a>
</g>
</g>
<!-- github.com/go&#45;i2p/go&#45;i2p/lib/config.UpdateRouterConfig&#45;&gt;github.com/spf13/viper.GetString -->
<g id="edge1" class="edge">
<title>github.com/go&#45;i2p/go&#45;i2p/lib/config.UpdateRouterConfig&#45;&gt;github.com/spf13/viper.GetString</title>
<g id="a_edge1"><a xlink:title="at config.go:94: calling [github.com/spf13/viper.GetString]&#10;at config.go:95: calling [github.com/spf13/viper.GetString]&#10;at config.go:99: calling [github.com/spf13/viper.GetString]">
<path fill="none" stroke="#8b4513" d="M308.9465,-655.0336C340.9528,-663.6602 378.5922,-673.805 407.9401,-681.715"/>
<polygon fill="#8b4513" stroke="#8b4513" points="407.3859,-685.1905 417.9522,-684.4136 409.2076,-678.4317 407.3859,-685.1905"/>
</a>
</g>
</g>
<!-- github.com/spf13/viper.UnmarshalKey -->
<g id="node20" class="node">
<title>github.com/spf13/viper.UnmarshalKey</title>
<g id="a_node20"><a xlink:title="github.com/spf13/viper.UnmarshalKey | defined in viper.go:1103">
<path fill="#ffe4b5" stroke="#000000" stroke-width="1.5" d="M499.4738,-591C499.4738,-591 414.9864,-591 414.9864,-591 408.9864,-591 402.9864,-585 402.9864,-579 402.9864,-579 402.9864,-567 402.9864,-567 402.9864,-561 408.9864,-555 414.9864,-555 414.9864,-555 499.4738,-555 499.4738,-555 505.4738,-555 511.4738,-561 511.4738,-567 511.4738,-567 511.4738,-579 511.4738,-579 511.4738,-585 505.4738,-591 499.4738,-591"/>
<text text-anchor="middle" x="457.2301" y="-568.8" font-family="Verdana" font-size="14.00" fill="#000000">UnmarshalKey</text>
</a>
</g>
</g>
<!-- github.com/go&#45;i2p/go&#45;i2p/lib/config.UpdateRouterConfig&#45;&gt;github.com/spf13/viper.UnmarshalKey -->
<g id="edge22" class="edge">
<title>github.com/go&#45;i2p/go&#45;i2p/lib/config.UpdateRouterConfig&#45;&gt;github.com/spf13/viper.UnmarshalKey</title>
<g id="a_edge22"><a xlink:title="at config.go:104: calling [github.com/spf13/viper.UnmarshalKey]">
<path fill="none" stroke="#8b4513" d="M302.8405,-618.9168C330.9686,-610.5513 364.3956,-600.6098 392.9411,-592.1201"/>
<polygon fill="#8b4513" stroke="#8b4513" points="394.2305,-595.3882 402.8178,-589.1827 392.2349,-588.6787 394.2305,-595.3882"/>
</a>
</g>
</g>
<!-- github.com/spf13/viper.GetInt -->
<g id="node21" class="node">
<title>github.com/spf13/viper.GetInt</title>
<g id="a_node21"><a xlink:title="github.com/spf13/viper.GetInt | defined in viper.go:989">
<path fill="#ffe4b5" stroke="#000000" stroke-width="1.5" d="M474.9936,-652C474.9936,-652 439.4666,-652 439.4666,-652 433.4666,-652 427.4666,-646 427.4666,-640 427.4666,-640 427.4666,-628 427.4666,-628 427.4666,-622 433.4666,-616 439.4666,-616 439.4666,-616 474.9936,-616 474.9936,-616 480.9936,-616 486.9936,-622 486.9936,-628 486.9936,-628 486.9936,-640 486.9936,-640 486.9936,-646 480.9936,-652 474.9936,-652"/>
<text text-anchor="middle" x="457.2301" y="-629.8" font-family="Verdana" font-size="14.00" fill="#000000">GetInt</text>
</a>
</g>
</g>
<!-- github.com/go&#45;i2p/go&#45;i2p/lib/config.UpdateRouterConfig&#45;&gt;github.com/spf13/viper.GetInt -->
<g id="edge7" class="edge">
<title>github.com/go&#45;i2p/go&#45;i2p/lib/config.UpdateRouterConfig&#45;&gt;github.com/spf13/viper.GetInt</title>
<g id="a_edge7"><a xlink:title="at config.go:110: calling [github.com/spf13/viper.GetInt]">
<path fill="none" stroke="#8b4513" d="M312.7979,-636.0135C347.3833,-635.5314 387.7433,-634.9687 416.9933,-634.5609"/>
<polygon fill="#8b4513" stroke="#8b4513" points="417.2854,-638.0573 427.2356,-634.4182 417.1877,-631.058 417.2854,-638.0573"/>
</a>
</g>
</g>
<!-- github.com/go&#45;i2p/go&#45;i2p/lib/config.defaultConfig -->
<g id="node5" class="node">
<title>github.com/go&#45;i2p/go&#45;i2p/lib/config.defaultConfig</title>
<g id="a_node5"><a xlink:title="github.com/go&#45;i2p/go&#45;i2p/lib/config.defaultConfig | defined in router.go:32&#10;at router.go:33: calling [github.com/go&#45;i2p/go&#45;i2p/lib/config.home]">
<path fill="#add8e6" stroke="#000000" stroke-width=".5" d="M495.9892,-113C495.9892,-113 418.471,-113 418.471,-113 412.471,-113 406.471,-107 406.471,-101 406.471,-101 406.471,-89 406.471,-89 406.471,-83 412.471,-77 418.471,-77 418.471,-77 495.9892,-77 495.9892,-77 501.9892,-77 507.9892,-83 507.9892,-89 507.9892,-89 507.9892,-101 507.9892,-101 507.9892,-107 501.9892,-113 495.9892,-113"/>
<text text-anchor="middle" x="457.2301" y="-90.8" font-family="Verdana" font-size="14.00" fill="#000000">defaultConfig</text>
</a>
</g>
</g>
<!-- github.com/go&#45;i2p/go&#45;i2p/lib/config.home -->
<g id="node6" class="node">
<title>github.com/go&#45;i2p/go&#45;i2p/lib/config.home</title>
<g id="a_node6"><a xlink:title="github.com/go&#45;i2p/go&#45;i2p/lib/config.home | defined in router.go:20">
<path fill="#add8e6" stroke="#000000" stroke-width=".5" d="M644.8719,-73C644.8719,-73 613.6613,-73 613.6613,-73 607.6613,-73 601.6613,-67 601.6613,-61 601.6613,-61 601.6613,-49 601.6613,-49 601.6613,-43 607.6613,-37 613.6613,-37 613.6613,-37 644.8719,-37 644.8719,-37 650.8719,-37 656.8719,-43 656.8719,-49 656.8719,-49 656.8719,-61 656.8719,-61 656.8719,-67 650.8719,-73 644.8719,-73"/>
<text text-anchor="middle" x="629.2666" y="-50.8" font-family="Verdana" font-size="14.00" fill="#000000">home</text>
</a>
</g>
</g>
<!-- github.com/go&#45;i2p/go&#45;i2p/lib/config.defaultConfig&#45;&gt;github.com/go&#45;i2p/go&#45;i2p/lib/config.home -->
<g id="edge9" class="edge">
<title>github.com/go&#45;i2p/go&#45;i2p/lib/config.defaultConfig&#45;&gt;github.com/go&#45;i2p/go&#45;i2p/lib/config.home</title>
<g id="a_edge9"><a xlink:title="at router.go:33: calling [github.com/go&#45;i2p/go&#45;i2p/lib/config.home]">
<path fill="none" stroke="#000000" d="M508.3809,-83.107C535.0739,-76.9006 567.1591,-69.4405 591.5644,-63.7661"/>
<polygon fill="#000000" stroke="#000000" points="592.568,-67.1262 601.5155,-61.4524 590.9826,-60.3081 592.568,-67.1262"/>
</a>
</g>
</g>
<!-- github.com/go&#45;i2p/go&#45;i2p/lib/config.init -->
<g id="node7" class="node">
<title>github.com/go&#45;i2p/go&#45;i2p/lib/config.init</title>
<g id="a_node7"><a xlink:title="github.com/go&#45;i2p/go&#45;i2p/lib/config.init | defined in .:0&#10;at netdb.go:15: calling [github.com/go&#45;i2p/go&#45;i2p/lib/config.defaultConfig]&#10;at router.go:41: calling [github.com/go&#45;i2p/go&#45;i2p/lib/config.defaultConfig]&#10;at router.go:40: calling [github.com/go&#45;i2p/go&#45;i2p/lib/config.defaultBase]&#10;at config.go:14: calling [github.com/go&#45;i2p/logger.GetGoI2PLogger]&#10;at router.go:48: calling [github.com/go&#45;i2p/go&#45;i2p/lib/config.DefaultRouterConfig]">
<path fill="#add8e6" stroke="#000000" stroke-width=".5" d="M257.0379,-150C257.0379,-150 227.0379,-150 227.0379,-150 221.0379,-150 215.0379,-144 215.0379,-138 215.0379,-138 215.0379,-126 215.0379,-126 215.0379,-120 221.0379,-114 227.0379,-114 227.0379,-114 257.0379,-114 257.0379,-114 263.0379,-114 269.0379,-120 269.0379,-126 269.0379,-126 269.0379,-138 269.0379,-138 269.0379,-144 263.0379,-150 257.0379,-150"/>
<text text-anchor="middle" x="242.0379" y="-127.8" font-family="Verdana" font-size="14.00" fill="#000000">init</text>
</a>
</g>
</g>
<!-- github.com/go&#45;i2p/go&#45;i2p/lib/config.init&#45;&gt;github.com/go&#45;i2p/go&#45;i2p/lib/config.DefaultRouterConfig -->
<g id="edge24" class="edge">
<title>github.com/go&#45;i2p/go&#45;i2p/lib/config.init&#45;&gt;github.com/go&#45;i2p/go&#45;i2p/lib/config.DefaultRouterConfig</title>
<g id="a_edge24"><a xlink:title="at router.go:48: calling [github.com/go&#45;i2p/go&#45;i2p/lib/config.DefaultRouterConfig]">
<path fill="none" stroke="#000000" d="M269.2921,-135.0396C295.9735,-138.0153 337.9688,-142.699 375.5004,-146.8848"/>
<polygon fill="#000000" stroke="#000000" points="375.1147,-150.3634 385.441,-147.9935 375.8906,-143.4066 375.1147,-150.3634"/>
</a>
</g>
</g>
<!-- github.com/go&#45;i2p/go&#45;i2p/lib/config.init&#45;&gt;github.com/go&#45;i2p/go&#45;i2p/lib/config.defaultConfig -->
<g id="edge3" class="edge">
<title>github.com/go&#45;i2p/go&#45;i2p/lib/config.init&#45;&gt;github.com/go&#45;i2p/go&#45;i2p/lib/config.defaultConfig</title>
<g id="a_edge3"><a xlink:title="at netdb.go:15: calling [github.com/go&#45;i2p/go&#45;i2p/lib/config.defaultConfig]&#10;at router.go:41: calling [github.com/go&#45;i2p/go&#45;i2p/lib/config.defaultConfig]">
<path fill="none" stroke="#000000" d="M269.2921,-127.3139C301.0545,-121.8527 354.5184,-112.6602 396.3196,-105.4729"/>
<polygon fill="#000000" stroke="#000000" points="397.1406,-108.8832 406.4029,-103.7392 395.9544,-101.9844 397.1406,-108.8832"/>
</a>
</g>
</g>
<!-- github.com/go&#45;i2p/go&#45;i2p/lib/config.defaultBase -->
<g id="node8" class="node">
<title>github.com/go&#45;i2p/go&#45;i2p/lib/config.defaultBase</title>
<g id="a_node8"><a xlink:title="github.com/go&#45;i2p/go&#45;i2p/lib/config.defaultBase | defined in router.go:28&#10;at router.go:29: calling [github.com/go&#45;i2p/go&#45;i2p/lib/config.home]">
<path fill="#add8e6" stroke="#000000" stroke-width=".5" d="M490.3115,-52C490.3115,-52 424.1487,-52 424.1487,-52 418.1487,-52 412.1487,-46 412.1487,-40 412.1487,-40 412.1487,-28 412.1487,-28 412.1487,-22 418.1487,-16 424.1487,-16 424.1487,-16 490.3115,-16 490.3115,-16 496.3115,-16 502.3115,-22 502.3115,-28 502.3115,-28 502.3115,-40 502.3115,-40 502.3115,-46 496.3115,-52 490.3115,-52"/>
<text text-anchor="middle" x="457.2301" y="-29.8" font-family="Verdana" font-size="14.00" fill="#000000">defaultBase</text>
</a>
</g>
</g>
<!-- github.com/go&#45;i2p/go&#45;i2p/lib/config.init&#45;&gt;github.com/go&#45;i2p/go&#45;i2p/lib/config.defaultBase -->
<g id="edge4" class="edge">
<title>github.com/go&#45;i2p/go&#45;i2p/lib/config.init&#45;&gt;github.com/go&#45;i2p/go&#45;i2p/lib/config.defaultBase</title>
<g id="a_edge4"><a xlink:title="at router.go:40: calling [github.com/go&#45;i2p/go&#45;i2p/lib/config.defaultBase]">
<path fill="none" stroke="#000000" d="M269.2195,-119.06C298.0428,-105.4012 344.9513,-83.3513 385.7462,-65 392.2768,-62.0623 399.1632,-59.0139 405.979,-56.0263"/>
<polygon fill="#000000" stroke="#000000" points="407.4247,-59.2142 415.1896,-52.006 404.6244,-52.7987 407.4247,-59.2142"/>
</a>
</g>
</g>
<!-- github.com/go&#45;i2p/logger.GetGoI2PLogger -->
<g id="node9" class="node">
<title>github.com/go&#45;i2p/logger.GetGoI2PLogger</title>
<g id="a_node9"><a xlink:title="github.com/go&#45;i2p/logger.GetGoI2PLogger | defined in log.go:120">
<path fill="#ffe4b5" stroke="#000000" stroke-width="1.5" d="M505.9196,-235C505.9196,-235 408.5406,-235 408.5406,-235 402.5406,-235 396.5406,-229 396.5406,-223 396.5406,-223 396.5406,-211 396.5406,-211 396.5406,-205 402.5406,-199 408.5406,-199 408.5406,-199 505.9196,-199 505.9196,-199 511.9196,-199 517.9196,-205 517.9196,-211 517.9196,-211 517.9196,-223 517.9196,-223 517.9196,-229 511.9196,-235 505.9196,-235"/>
<text text-anchor="middle" x="457.2301" y="-212.8" font-family="Verdana" font-size="14.00" fill="#000000">GetGoI2PLogger</text>
</a>
</g>
</g>
<!-- github.com/go&#45;i2p/go&#45;i2p/lib/config.init&#45;&gt;github.com/go&#45;i2p/logger.GetGoI2PLogger -->
<g id="edge17" class="edge">
<title>github.com/go&#45;i2p/go&#45;i2p/lib/config.init&#45;&gt;github.com/go&#45;i2p/logger.GetGoI2PLogger</title>
<g id="a_edge17"><a xlink:title="at config.go:14: calling [github.com/go&#45;i2p/logger.GetGoI2PLogger]">
<path fill="none" stroke="#8b4513" d="M269.2042,-145.0255C297.8196,-158.4804 344.3799,-179.6249 385.7462,-195 386.1874,-195.164 386.6305,-195.3277 387.0752,-195.4912"/>
<polygon fill="#8b4513" stroke="#8b4513" points="386.0215,-198.8311 396.6162,-198.8776 388.3629,-192.2343 386.0215,-198.8311"/>
</a>
</g>
</g>
<!-- github.com/go&#45;i2p/go&#45;i2p/lib/config.defaultBase&#45;&gt;github.com/go&#45;i2p/go&#45;i2p/lib/config.home -->
<g id="edge23" class="edge">
<title>github.com/go&#45;i2p/go&#45;i2p/lib/config.defaultBase&#45;&gt;github.com/go&#45;i2p/go&#45;i2p/lib/config.home</title>
<g id="a_edge23"><a xlink:title="at router.go:29: calling [github.com/go&#45;i2p/go&#45;i2p/lib/config.home]">
<path fill="none" stroke="#000000" d="M502.4307,-39.5175C530.203,-42.9076 565.3654,-47.1998 591.6199,-50.4046"/>
<polygon fill="#000000" stroke="#000000" points="591.2158,-53.8811 601.5663,-51.6187 592.0641,-46.9327 591.2158,-53.8811"/>
</a>
</g>
</g>
</g>
</svg>
