<?xml version="1.0" encoding="UTF-8" standalone="no"?>
<!DOCTYPE svg PUBLIC "-//W3C//DTD SVG 1.1//EN"
 "http://www.w3.org/Graphics/SVG/1.1/DTD/svg11.dtd">
<!-- Generated by graphviz version 2.40.1 (20161225.0304)
 -->
<!-- Title: gocallvis Pages: 1 -->
<svg width="673pt" height="840pt"
 viewBox="0.00 0.00 672.82 840.00" xmlns="http://www.w3.org/2000/svg" xmlns:xlink="http://www.w3.org/1999/xlink">
<g id="graph0" class="graph" transform="scale(1 1) rotate(0) translate(0 840)">
<title>gocallvis</title>
<polygon fill="#d3d3d3" stroke="transparent" points="0,0 0,-840 672.8192,-840 672.8192,0 0,0"/>
<g id="clust1" class="cluster">
<title>cluster_focus</title>
<polygon fill="#e6ecfa" stroke="#000000" stroke-width=".5" points="8,-8 8,-832 664.8192,-832 664.8192,-8 8,-8"/>
<text text-anchor="middle" x="336.4096" y="-811.8" font-family="Arial" font-size="18.00" fill="#000000">config</text>
</g>
<g id="clust3" class="cluster">
<title>cluster_*github.com/sirupsen/logrus.Logger</title>
<g id="a_clust3"><a xlink:title="type: *github.com/sirupsen/logrus.Logger">
<path fill="#eed8ae" stroke="#000000" stroke-width=".5" d="M213.047,-602C213.047,-602 271.0288,-602 271.0288,-602 277.0288,-602 283.0288,-608 283.0288,-614 283.0288,-614 283.0288,-729 283.0288,-729 283.0288,-735 277.0288,-741 271.0288,-741 271.0288,-741 213.047,-741 213.047,-741 207.047,-741 201.047,-735 201.047,-729 201.047,-729 201.047,-614 201.047,-614 201.047,-608 207.047,-602 213.047,-602"/>
<text text-anchor="middle" x="242.0379" y="-610.5" font-family="Arial" font-size="15.00" fill="#222222">(*Logger)</text>
</a>
</g>
</g>
<g id="clust2" class="cluster">
<title>cluster_*github.com/go&#45;i2p/logger.Logger</title>
<g id="a_clust2"><a xlink:title="type: *github.com/go&#45;i2p/logger.Logger">
<path fill="#eed8ae" stroke="#000000" stroke-width=".5" d="M430.3472,-182C430.3472,-182 484.113,-182 484.113,-182 490.113,-182 496.113,-188 496.113,-194 496.113,-194 496.113,-248 496.113,-248 496.113,-254 490.113,-260 484.113,-260 484.113,-260 430.3472,-260 430.3472,-260 424.3472,-260 418.3472,-254 418.3472,-248 418.3472,-248 418.3472,-194 418.3472,-194 418.3472,-188 424.3472,-182 430.3472,-182"/>
<text text-anchor="middle" x="457.2301" y="-190.5" font-family="Arial" font-size="15.00" fill="#222222">(*Logger)</text>
</a>
</g>
</g>
<!-- github.com/go&#45;i2p/go&#45;i2p/lib/config.defaultConfig -->
<g id="node1" class="node">
<title>github.com/go&#45;i2p/go&#45;i2p/lib/config.defaultConfig</title>
<g id="a_node1"><a xlink:title="github.com/go&#45;i2p/go&#45;i2p/lib/config.defaultConfig | defined in router.go:32&#10;at router.go:33: calling [github.com/go&#45;i2p/go&#45;i2p/lib/config.home]">
<path fill="#add8e6" stroke="#000000" stroke-width=".5" d="M495.9892,-672C495.9892,-672 418.471,-672 418.471,-672 412.471,-672 406.471,-666 406.471,-660 406.471,-660 406.471,-648 406.471,-648 406.471,-642 412.471,-636 418.471,-636 418.471,-636 495.9892,-636 495.9892,-636 501.9892,-636 507.9892,-642 507.9892,-648 507.9892,-648 507.9892,-660 507.9892,-660 507.9892,-666 501.9892,-672 495.9892,-672"/>
<text text-anchor="middle" x="457.2301" y="-649.8" font-family="Verdana" font-size="14.00" fill="#000000">defaultConfig</text>
</a>
</g>
</g>
<!-- github.com/go&#45;i2p/go&#45;i2p/lib/config.home -->
<g id="node2" class="node">
<title>github.com/go&#45;i2p/go&#45;i2p/lib/config.home</title>
<g id="a_node2"><a xlink:title="github.com/go&#45;i2p/go&#45;i2p/lib/config.home | defined in router.go:20">
<path fill="#add8e6" stroke="#000000" stroke-width=".5" d="M644.8719,-709C644.8719,-709 613.6613,-709 613.6613,-709 607.6613,-709 601.6613,-703 601.6613,-697 601.6613,-697 601.6613,-685 601.6613,-685 601.6613,-679 607.6613,-673 613.6613,-673 613.6613,-673 644.8719,-673 644.8719,-673 650.8719,-673 656.8719,-679 656.8719,-685 656.8719,-685 656.8719,-697 656.8719,-697 656.8719,-703 650.8719,-709 644.8719,-709"/>
<text text-anchor="middle" x="629.2666" y="-686.8" font-family="Verdana" font-size="14.00" fill="#000000">home</text>
</a>
</g>
</g>
<!-- github.com/go&#45;i2p/go&#45;i2p/lib/config.defaultConfig&#45;&gt;github.com/go&#45;i2p/go&#45;i2p/lib/config.home -->
<g id="edge7" class="edge">
<title>github.com/go&#45;i2p/go&#45;i2p/lib/config.defaultConfig&#45;&gt;github.com/go&#45;i2p/go&#45;i2p/lib/config.home</title>
<g id="a_edge7"><a xlink:title="at router.go:33: calling [github.com/go&#45;i2p/go&#45;i2p/lib/config.home]">
<path fill="none" stroke="#000000" d="M508.3809,-665.001C535.0739,-670.7419 567.1591,-677.6425 591.5644,-682.8914"/>
<polygon fill="#000000" stroke="#000000" points="591.0031,-686.3506 601.5155,-685.0315 592.475,-679.5071 591.0031,-686.3506"/>
</a>
</g>
</g>
<!-- github.com/go&#45;i2p/go&#45;i2p/lib/config.UpdateRouterConfig -->
<g id="node3" class="node">
<title>github.com/go&#45;i2p/go&#45;i2p/lib/config.UpdateRouterConfig</title>
<g id="a_node3"><a xlink:title="github.com/go&#45;i2p/go&#45;i2p/lib/config.UpdateRouterConfig | defined in config.go:92&#10;at config.go:94: calling [github.com/spf13/viper.GetString]&#10;at config.go:95: calling [github.com/spf13/viper.GetString]&#10;at config.go:99: calling [github.com/spf13/viper.GetString]&#10;at config.go:104: calling [github.com/spf13/viper.UnmarshalKey]&#10;at config.go:105: calling [(*github.com/go&#45;i2p/logger.Logger).Warnf]&#10;at config.go:110: calling [github.com/spf13/viper.GetInt]">
<path fill="#add8e6" stroke="#000000" stroke-width="1.5" d="M300.9551,-52C300.9551,-52 183.1207,-52 183.1207,-52 177.1207,-52 171.1207,-46 171.1207,-40 171.1207,-40 171.1207,-28 171.1207,-28 171.1207,-22 177.1207,-16 183.1207,-16 183.1207,-16 300.9551,-16 300.9551,-16 306.9551,-16 312.9551,-22 312.9551,-28 312.9551,-28 312.9551,-40 312.9551,-40 312.9551,-46 306.9551,-52 300.9551,-52"/>
<text text-anchor="middle" x="242.0379" y="-29.8" font-family="Verdana" font-size="14.00" fill="#000000">UpdateRouterConfig</text>
</a>
</g>
</g>
<!-- github.com/spf13/viper.GetString -->
<g id="node4" class="node">
<title>github.com/spf13/viper.GetString</title>
<g id="a_node4"><a xlink:title="github.com/spf13/viper.GetString | defined in viper.go:975">
<path fill="#ffe4b5" stroke="#000000" stroke-width="1.5" d="M484.6675,-52C484.6675,-52 429.7927,-52 429.7927,-52 423.7927,-52 417.7927,-46 417.7927,-40 417.7927,-40 417.7927,-28 417.7927,-28 417.7927,-22 423.7927,-16 429.7927,-16 429.7927,-16 484.6675,-16 484.6675,-16 490.6675,-16 496.6675,-22 496.6675,-28 496.6675,-28 496.6675,-40 496.6675,-40 496.6675,-46 490.6675,-52 484.6675,-52"/>
<text text-anchor="middle" x="457.2301" y="-38.2" font-family="Verdana" font-size="14.00" fill="#000000">viper</text>
<text text-anchor="middle" x="457.2301" y="-21.4" font-family="Verdana" font-size="14.00" fill="#000000">GetString</text>
</a>
</g>
</g>
<!-- github.com/go&#45;i2p/go&#45;i2p/lib/config.UpdateRouterConfig&#45;&gt;github.com/spf13/viper.GetString -->
<g id="edge1" class="edge">
<title>github.com/go&#45;i2p/go&#45;i2p/lib/config.UpdateRouterConfig&#45;&gt;github.com/spf13/viper.GetString</title>
<g id="a_edge1"><a xlink:title="at config.go:94: calling [github.com/spf13/viper.GetString]&#10;at config.go:95: calling [github.com/spf13/viper.GetString]&#10;at config.go:99: calling [github.com/spf13/viper.GetString]">
<path fill="none" stroke="#8b4513" d="M312.7979,-34C343.892,-34 379.6538,-34 407.813,-34"/>
<polygon fill="#8b4513" stroke="#8b4513" points="407.8207,-37.5001 417.8207,-34 407.8207,-30.5001 407.8207,-37.5001"/>
</a>
</g>
</g>
<!-- github.com/spf13/viper.UnmarshalKey -->
<g id="node5" class="node">
<title>github.com/spf13/viper.UnmarshalKey</title>
<g id="a_node5"><a xlink:title="github.com/spf13/viper.UnmarshalKey | defined in viper.go:1103">
<path fill="#ffe4b5" stroke="#000000" stroke-width="1.5" d="M499.4738,-113C499.4738,-113 414.9864,-113 414.9864,-113 408.9864,-113 402.9864,-107 402.9864,-101 402.9864,-101 402.9864,-89 402.9864,-89 402.9864,-83 408.9864,-77 414.9864,-77 414.9864,-77 499.4738,-77 499.4738,-77 505.4738,-77 511.4738,-83 511.4738,-89 511.4738,-89 511.4738,-101 511.4738,-101 511.4738,-107 505.4738,-113 499.4738,-113"/>
<text text-anchor="middle" x="457.2301" y="-99.2" font-family="Verdana" font-size="14.00" fill="#000000">viper</text>
<text text-anchor="middle" x="457.2301" y="-82.4" font-family="Verdana" font-size="14.00" fill="#000000">UnmarshalKey</text>
</a>
</g>
</g>
<!-- github.com/go&#45;i2p/go&#45;i2p/lib/config.UpdateRouterConfig&#45;&gt;github.com/spf13/viper.UnmarshalKey -->
<g id="edge15" class="edge">
<title>github.com/go&#45;i2p/go&#45;i2p/lib/config.UpdateRouterConfig&#45;&gt;github.com/spf13/viper.UnmarshalKey</title>
<g id="a_edge15"><a xlink:title="at config.go:104: calling [github.com/spf13/viper.UnmarshalKey]">
<path fill="none" stroke="#8b4513" d="M307.2809,-52.0688C321.2968,-55.9794 336.0198,-60.109 349.7462,-64 363.789,-67.9807 378.8504,-72.2959 393.1219,-76.4062"/>
<polygon fill="#8b4513" stroke="#8b4513" points="392.2755,-79.8046 402.8538,-79.2124 394.215,-73.0787 392.2755,-79.8046"/>
</a>
</g>
</g>
<!-- github.com/spf13/viper.GetInt -->
<g id="node6" class="node">
<title>github.com/spf13/viper.GetInt</title>
<g id="a_node6"><a xlink:title="github.com/spf13/viper.GetInt | defined in viper.go:989">
<path fill="#ffe4b5" stroke="#000000" stroke-width="1.5" d="M474.9936,-174C474.9936,-174 439.4666,-174 439.4666,-174 433.4666,-174 427.4666,-168 427.4666,-162 427.4666,-162 427.4666,-150 427.4666,-150 427.4666,-144 433.4666,-138 439.4666,-138 439.4666,-138 474.9936,-138 474.9936,-138 480.9936,-138 486.9936,-144 486.9936,-150 486.9936,-150 486.9936,-162 486.9936,-162 486.9936,-168 480.9936,-174 474.9936,-174"/>
<text text-anchor="middle" x="457.2301" y="-160.2" font-family="Verdana" font-size="14.00" fill="#000000">viper</text>
<text text-anchor="middle" x="457.2301" y="-143.4" font-family="Verdana" font-size="14.00" fill="#000000">GetInt</text>
</a>
</g>
</g>
<!-- github.com/go&#45;i2p/go&#45;i2p/lib/config.UpdateRouterConfig&#45;&gt;github.com/spf13/viper.GetInt -->
<g id="edge17" class="edge">
<title>github.com/go&#45;i2p/go&#45;i2p/lib/config.UpdateRouterConfig&#45;&gt;github.com/spf13/viper.GetInt</title>
<g id="a_edge17"><a xlink:title="at config.go:110: calling [github.com/spf13/viper.GetInt]">
<path fill="none" stroke="#8b4513" d="M276.9726,-52.1619C288.3923,-58.1305 301.1256,-64.8192 312.7462,-71 329.2501,-79.778 334.6796,-79.9353 349.7462,-91 367.7324,-104.2088 367.1334,-113.6899 385.7462,-126 395.6443,-132.5464 407.204,-138.1421 418.1066,-142.6655"/>
<polygon fill="#8b4513" stroke="#8b4513" points="416.8736,-145.9416 427.4602,-146.3614 419.4461,-139.4314 416.8736,-145.9416"/>
</a>
</g>
</g>
<!-- (*github.com/go&#45;i2p/logger.Logger).Warnf -->
<g id="node21" class="node">
<title>(*github.com/go&#45;i2p/logger.Logger).Warnf</title>
<g id="a_node21"><a xlink:title="(*github.com/go&#45;i2p/logger.Logger).Warnf | defined in log.go:36">
<path fill="#ffe4b5" stroke="#000000" stroke-width="1.5" d="M474.9964,-252C474.9964,-252 439.4638,-252 439.4638,-252 433.4638,-252 427.4638,-246 427.4638,-240 427.4638,-240 427.4638,-228 427.4638,-228 427.4638,-222 433.4638,-216 439.4638,-216 439.4638,-216 474.9964,-216 474.9964,-216 480.9964,-216 486.9964,-222 486.9964,-228 486.9964,-228 486.9964,-240 486.9964,-240 486.9964,-246 480.9964,-252 474.9964,-252"/>
<text text-anchor="middle" x="457.2301" y="-238.2" font-family="Verdana" font-size="14.00" fill="#000000">logger</text>
<text text-anchor="middle" x="457.2301" y="-221.4" font-family="Verdana" font-size="14.00" fill="#000000">Warnf</text>
</a>
</g>
</g>
<!-- github.com/go&#45;i2p/go&#45;i2p/lib/config.UpdateRouterConfig&#45;&gt;(*github.com/go&#45;i2p/logger.Logger).Warnf -->
<g id="edge16" class="edge">
<title>github.com/go&#45;i2p/go&#45;i2p/lib/config.UpdateRouterConfig&#45;&gt;(*github.com/go&#45;i2p/logger.Logger).Warnf</title>
<g id="a_edge16"><a xlink:title="at config.go:105: calling [(*github.com/go&#45;i2p/logger.Logger).Warnf]">
<path fill="none" stroke="#8b4513" d="M283.8855,-52.1808C293.8633,-57.494 304.1124,-63.8306 312.7462,-71 333.1991,-87.9836 336.6214,-94.8806 349.7462,-118 371.8323,-156.9048 353.0679,-181.4466 385.7462,-212 394.476,-220.1621 406.1686,-225.299 417.5652,-228.5308"/>
<polygon fill="#8b4513" stroke="#8b4513" points="416.8803,-231.9659 427.4222,-230.9087 418.5219,-225.1611 416.8803,-231.9659"/>
</a>
</g>
</g>
<!-- github.com/go&#45;i2p/go&#45;i2p/lib/config.init -->
<g id="node7" class="node">
<title>github.com/go&#45;i2p/go&#45;i2p/lib/config.init</title>
<g id="a_node7"><a xlink:title="github.com/go&#45;i2p/go&#45;i2p/lib/config.init | defined in .:0&#10;at netdb.go:15: calling [github.com/go&#45;i2p/go&#45;i2p/lib/config.defaultConfig]&#10;at router.go:41: calling [github.com/go&#45;i2p/go&#45;i2p/lib/config.defaultConfig]&#10;at router.go:40: calling [github.com/go&#45;i2p/go&#45;i2p/lib/config.defaultBase]&#10;at router.go:48: calling [github.com/go&#45;i2p/go&#45;i2p/lib/config.DefaultRouterConfig]&#10;at config.go:14: calling [github.com/go&#45;i2p/logger.GetGoI2PLogger]">
<path fill="#add8e6" stroke="#000000" stroke-width=".5" d="M257.0379,-794C257.0379,-794 227.0379,-794 227.0379,-794 221.0379,-794 215.0379,-788 215.0379,-782 215.0379,-782 215.0379,-770 215.0379,-770 215.0379,-764 221.0379,-758 227.0379,-758 227.0379,-758 257.0379,-758 257.0379,-758 263.0379,-758 269.0379,-764 269.0379,-770 269.0379,-770 269.0379,-782 269.0379,-782 269.0379,-788 263.0379,-794 257.0379,-794"/>
<text text-anchor="middle" x="242.0379" y="-771.8" font-family="Verdana" font-size="14.00" fill="#000000">init</text>
</a>
</g>
</g>
<!-- github.com/go&#45;i2p/go&#45;i2p/lib/config.init&#45;&gt;github.com/go&#45;i2p/go&#45;i2p/lib/config.defaultConfig -->
<g id="edge2" class="edge">
<title>github.com/go&#45;i2p/go&#45;i2p/lib/config.init&#45;&gt;github.com/go&#45;i2p/go&#45;i2p/lib/config.defaultConfig</title>
<g id="a_edge2"><a xlink:title="at netdb.go:15: calling [github.com/go&#45;i2p/go&#45;i2p/lib/config.defaultConfig]&#10;at router.go:41: calling [github.com/go&#45;i2p/go&#45;i2p/lib/config.defaultConfig]">
<path fill="none" stroke="#000000" d="M269.1861,-767.15C282.7582,-762.166 299.1448,-755.2766 312.7462,-747 349.1098,-724.8723 349.6053,-707.4897 385.7462,-685 390.4838,-682.0519 395.5506,-679.249 400.7175,-676.621"/>
<polygon fill="#000000" stroke="#000000" points="402.6036,-679.5964 410.0766,-672.0861 399.5512,-673.297 402.6036,-679.5964"/>
</a>
</g>
</g>
<!-- github.com/go&#45;i2p/logger.GetGoI2PLogger -->
<g id="node8" class="node">
<title>github.com/go&#45;i2p/logger.GetGoI2PLogger</title>
<g id="a_node8"><a xlink:title="github.com/go&#45;i2p/logger.GetGoI2PLogger | defined in log.go:120">
<path fill="#ffe4b5" stroke="#000000" stroke-width="1.5" d="M505.9196,-733C505.9196,-733 408.5406,-733 408.5406,-733 402.5406,-733 396.5406,-727 396.5406,-721 396.5406,-721 396.5406,-709 396.5406,-709 396.5406,-703 402.5406,-697 408.5406,-697 408.5406,-697 505.9196,-697 505.9196,-697 511.9196,-697 517.9196,-703 517.9196,-709 517.9196,-709 517.9196,-721 517.9196,-721 517.9196,-727 511.9196,-733 505.9196,-733"/>
<text text-anchor="middle" x="457.2301" y="-719.2" font-family="Verdana" font-size="14.00" fill="#000000">logger</text>
<text text-anchor="middle" x="457.2301" y="-702.4" font-family="Verdana" font-size="14.00" fill="#000000">GetGoI2PLogger</text>
</a>
</g>
</g>
<!-- github.com/go&#45;i2p/go&#45;i2p/lib/config.init&#45;&gt;github.com/go&#45;i2p/logger.GetGoI2PLogger -->
<g id="edge23" class="edge">
<title>github.com/go&#45;i2p/go&#45;i2p/lib/config.init&#45;&gt;github.com/go&#45;i2p/logger.GetGoI2PLogger</title>
<g id="a_edge23"><a xlink:title="at config.go:14: calling [github.com/go&#45;i2p/logger.GetGoI2PLogger]">
<path fill="none" stroke="#8b4513" d="M269.2921,-768.2743C298.6514,-759.9519 346.5527,-746.3735 386.646,-735.0083"/>
<polygon fill="#8b4513" stroke="#8b4513" points="387.723,-738.341 396.3894,-732.2464 385.8139,-731.6063 387.723,-738.341"/>
</a>
</g>
</g>
<!-- github.com/go&#45;i2p/go&#45;i2p/lib/config.defaultBase -->
<g id="node9" class="node">
<title>github.com/go&#45;i2p/go&#45;i2p/lib/config.defaultBase</title>
<g id="a_node9"><a xlink:title="github.com/go&#45;i2p/go&#45;i2p/lib/config.defaultBase | defined in router.go:28&#10;at router.go:29: calling [github.com/go&#45;i2p/go&#45;i2p/lib/config.home]">
<path fill="#add8e6" stroke="#000000" stroke-width=".5" d="M490.3115,-794C490.3115,-794 424.1487,-794 424.1487,-794 418.1487,-794 412.1487,-788 412.1487,-782 412.1487,-782 412.1487,-770 412.1487,-770 412.1487,-764 418.1487,-758 424.1487,-758 424.1487,-758 490.3115,-758 490.3115,-758 496.3115,-758 502.3115,-764 502.3115,-770 502.3115,-770 502.3115,-782 502.3115,-782 502.3115,-788 496.3115,-794 490.3115,-794"/>
<text text-anchor="middle" x="457.2301" y="-771.8" font-family="Verdana" font-size="14.00" fill="#000000">defaultBase</text>
</a>
</g>
</g>
<!-- github.com/go&#45;i2p/go&#45;i2p/lib/config.init&#45;&gt;github.com/go&#45;i2p/go&#45;i2p/lib/config.defaultBase -->
<g id="edge18" class="edge">
<title>github.com/go&#45;i2p/go&#45;i2p/lib/config.init&#45;&gt;github.com/go&#45;i2p/go&#45;i2p/lib/config.defaultBase</title>
<g id="a_edge18"><a xlink:title="at router.go:40: calling [github.com/go&#45;i2p/go&#45;i2p/lib/config.defaultBase]">
<path fill="none" stroke="#000000" d="M269.2921,-776C302.4127,-776 359.1306,-776 401.6157,-776"/>
<polygon fill="#000000" stroke="#000000" points="401.8132,-779.5001 411.8132,-776 401.8132,-772.5001 401.8132,-779.5001"/>
</a>
</g>
</g>
<!-- github.com/go&#45;i2p/go&#45;i2p/lib/config.DefaultRouterConfig -->
<g id="node10" class="node">
<title>github.com/go&#45;i2p/go&#45;i2p/lib/config.DefaultRouterConfig</title>
<g id="a_node10"><a xlink:title="github.com/go&#45;i2p/go&#45;i2p/lib/config.DefaultRouterConfig | defined in router.go:44">
<path fill="#add8e6" stroke="#000000" stroke-width="1.5" d="M516.6979,-611C516.6979,-611 397.7623,-611 397.7623,-611 391.7623,-611 385.7623,-605 385.7623,-599 385.7623,-599 385.7623,-587 385.7623,-587 385.7623,-581 391.7623,-575 397.7623,-575 397.7623,-575 516.6979,-575 516.6979,-575 522.6979,-575 528.6979,-581 528.6979,-587 528.6979,-587 528.6979,-599 528.6979,-599 528.6979,-605 522.6979,-611 516.6979,-611"/>
<text text-anchor="middle" x="457.2301" y="-588.8" font-family="Verdana" font-size="14.00" fill="#000000">DefaultRouterConfig</text>
</a>
</g>
</g>
<!-- github.com/go&#45;i2p/go&#45;i2p/lib/config.init&#45;&gt;github.com/go&#45;i2p/go&#45;i2p/lib/config.DefaultRouterConfig -->
<g id="edge19" class="edge">
<title>github.com/go&#45;i2p/go&#45;i2p/lib/config.init&#45;&gt;github.com/go&#45;i2p/go&#45;i2p/lib/config.DefaultRouterConfig</title>
<g id="a_edge19"><a xlink:title="at router.go:48: calling [github.com/go&#45;i2p/go&#45;i2p/lib/config.DefaultRouterConfig]">
<path fill="none" stroke="#000000" d="M269.1158,-769.3961C283.3142,-764.8915 300.2928,-757.7516 312.7462,-747 360.8639,-705.4576 338.0457,-666.0208 385.7462,-624 388.9435,-621.1834 392.4364,-618.5905 396.1035,-616.209"/>
<polygon fill="#000000" stroke="#000000" points="398.0701,-619.1131 404.9196,-611.03 394.5244,-613.0774 398.0701,-619.1131"/>
</a>
</g>
</g>
<!-- github.com/go&#45;i2p/go&#45;i2p/lib/config.defaultBase&#45;&gt;github.com/go&#45;i2p/go&#45;i2p/lib/config.home -->
<g id="edge8" class="edge">
<title>github.com/go&#45;i2p/go&#45;i2p/lib/config.defaultBase&#45;&gt;github.com/go&#45;i2p/go&#45;i2p/lib/config.home</title>
<g id="a_edge8"><a xlink:title="at router.go:29: calling [github.com/go&#45;i2p/go&#45;i2p/lib/config.home]">
<path fill="none" stroke="#000000" d="M502.1609,-757.978C511.0355,-754.1847 520.2263,-750.0889 528.714,-746 550.2814,-735.61 573.786,-722.8381 592.6433,-712.2179"/>
<polygon fill="#000000" stroke="#000000" points="594.5257,-715.1741 601.4984,-707.197 591.0731,-709.0848 594.5257,-715.1741"/>
</a>
</g>
</g>
<!-- github.com/go&#45;i2p/go&#45;i2p/lib/config.setDefaults -->
<g id="node11" class="node">
<title>github.com/go&#45;i2p/go&#45;i2p/lib/config.setDefaults</title>
<g id="a_node11"><a xlink:title="github.com/go&#45;i2p/go&#45;i2p/lib/config.setDefaults | defined in config.go:79&#10;at config.go:81: calling [github.com/spf13/viper.SetDefault]&#10;at config.go:82: calling [github.com/spf13/viper.SetDefault]&#10;at config.go:85: calling [github.com/spf13/viper.SetDefault]&#10;at config.go:88: calling [github.com/spf13/viper.SetDefault]&#10;at config.go:89: calling [github.com/spf13/viper.SetDefault]&#10;at config.go:81: calling [github.com/go&#45;i2p/go&#45;i2p/lib/config.DefaultRouterConfig]&#10;at config.go:82: calling [github.com/go&#45;i2p/go&#45;i2p/lib/config.DefaultRouterConfig]">
<path fill="#add8e6" stroke="#000000" stroke-width=".5" d="M273.5099,-140C273.5099,-140 210.5659,-140 210.5659,-140 204.5659,-140 198.5659,-134 198.5659,-128 198.5659,-128 198.5659,-116 198.5659,-116 198.5659,-110 204.5659,-104 210.5659,-104 210.5659,-104 273.5099,-104 273.5099,-104 279.5099,-104 285.5099,-110 285.5099,-116 285.5099,-116 285.5099,-128 285.5099,-128 285.5099,-134 279.5099,-140 273.5099,-140"/>
<text text-anchor="middle" x="242.0379" y="-117.8" font-family="Verdana" font-size="14.00" fill="#000000">setDefaults</text>
</a>
</g>
</g>
<!-- github.com/go&#45;i2p/go&#45;i2p/lib/config.setDefaults&#45;&gt;github.com/go&#45;i2p/go&#45;i2p/lib/config.DefaultRouterConfig -->
<g id="edge24" class="edge">
<title>github.com/go&#45;i2p/go&#45;i2p/lib/config.setDefaults&#45;&gt;github.com/go&#45;i2p/go&#45;i2p/lib/config.DefaultRouterConfig</title>
<g id="a_edge24"><a xlink:title="at config.go:81: calling [github.com/go&#45;i2p/go&#45;i2p/lib/config.DefaultRouterConfig]&#10;at config.go:82: calling [github.com/go&#45;i2p/go&#45;i2p/lib/config.DefaultRouterConfig]">
<path fill="none" stroke="#000000" d="M285.7551,-134.3874C295.6866,-138.9095 305.446,-144.9638 312.7462,-153 341.8,-184.9828 423.9374,-473.5016 449.5228,-565.1742"/>
<polygon fill="#000000" stroke="#000000" points="446.1684,-566.1755 452.2227,-574.8701 452.9119,-564.2977 446.1684,-566.1755"/>
</a>
</g>
</g>
<!-- github.com/spf13/viper.SetDefault -->
<g id="node12" class="node">
<title>github.com/spf13/viper.SetDefault</title>
<g id="a_node12"><a xlink:title="github.com/spf13/viper.SetDefault | defined in viper.go:1596">
<path fill="#ffe4b5" stroke="#000000" stroke-width="1.5" d="M487.0956,-313C487.0956,-313 427.3646,-313 427.3646,-313 421.3646,-313 415.3646,-307 415.3646,-301 415.3646,-301 415.3646,-289 415.3646,-289 415.3646,-283 421.3646,-277 427.3646,-277 427.3646,-277 487.0956,-277 487.0956,-277 493.0956,-277 499.0956,-283 499.0956,-289 499.0956,-289 499.0956,-301 499.0956,-301 499.0956,-307 493.0956,-313 487.0956,-313"/>
<text text-anchor="middle" x="457.2301" y="-299.2" font-family="Verdana" font-size="14.00" fill="#000000">viper</text>
<text text-anchor="middle" x="457.2301" y="-282.4" font-family="Verdana" font-size="14.00" fill="#000000">SetDefault</text>
</a>
</g>
</g>
<!-- github.com/go&#45;i2p/go&#45;i2p/lib/config.setDefaults&#45;&gt;github.com/spf13/viper.SetDefault -->
<g id="edge9" class="edge">
<title>github.com/go&#45;i2p/go&#45;i2p/lib/config.setDefaults&#45;&gt;github.com/spf13/viper.SetDefault</title>
<g id="a_edge9"><a xlink:title="at config.go:81: calling [github.com/spf13/viper.SetDefault]&#10;at config.go:82: calling [github.com/spf13/viper.SetDefault]&#10;at config.go:85: calling [github.com/spf13/viper.SetDefault]&#10;at config.go:88: calling [github.com/spf13/viper.SetDefault]&#10;at config.go:89: calling [github.com/spf13/viper.SetDefault]">
<path fill="none" stroke="#8b4513" d="M285.8764,-136.4613C295.3588,-140.8401 304.8871,-146.3101 312.7462,-153 358.2755,-191.7556 339.6829,-227.8806 385.7462,-266 391.7677,-270.983 398.7587,-275.2012 405.9643,-278.7444"/>
<polygon fill="#8b4513" stroke="#8b4513" points="404.5938,-281.9656 415.1493,-282.878 407.4666,-275.5823 404.5938,-281.9656"/>
</a>
</g>
</g>
<!-- github.com/go&#45;i2p/go&#45;i2p/lib/config.InitConfig -->
<g id="node13" class="node">
<title>github.com/go&#45;i2p/go&#45;i2p/lib/config.InitConfig</title>
<g id="a_node13"><a xlink:title="github.com/go&#45;i2p/go&#45;i2p/lib/config.InitConfig | defined in config.go:19&#10;at config.go:61: calling [github.com/spf13/viper.AddConfigPath]&#10;at config.go:31: calling [(*github.com/sirupsen/logrus.Logger).Fatalf]&#10;at config.go:49: calling [(*github.com/sirupsen/logrus.Logger).Fatalf]&#10;at config.go:54: calling [(*github.com/sirupsen/logrus.Logger).Fatalf]&#10;at config.go:41: calling [github.com/go&#45;i2p/go&#45;i2p/lib/config.DefaultRouterConfig]&#10;at config.go:42: calling [github.com/go&#45;i2p/go&#45;i2p/lib/config.DefaultRouterConfig]&#10;at config.go:43: calling [github.com/go&#45;i2p/go&#45;i2p/lib/config.DefaultRouterConfig]&#10;at config.go:44: calling [github.com/go&#45;i2p/go&#45;i2p/lib/config.DefaultRouterConfig]&#10;at config.go:57: calling [(*github.com/sirupsen/logrus.Logger).Debugf]&#10;at config.go:72: calling [(*github.com/sirupsen/logrus.Logger).Debugf]&#10;at config.go:67: calling [github.com/go&#45;i2p/go&#45;i2p/lib/config.setDefaults]&#10;at config.go:47: calling [gopkg.in/yaml.v3.Marshal]&#10;at config.go:70: calling [(*github.com/go&#45;i2p/logger.Logger).Warnf]&#10;at config.go:72: calling [github.com/spf13/viper.ConfigFileUsed]&#10;at config.go:63: calling [github.com/spf13/viper.SetConfigType]&#10;at config.go:25: calling [github.com/spf13/viper.SetConfigFile]&#10;at config.go:62: calling [github.com/spf13/viper.SetConfigName]&#10;at config.go:76: calling [github.com/go&#45;i2p/go&#45;i2p/lib/config.UpdateRouterConfig]&#10;at config.go:69: calling [github.com/spf13/viper.ReadInConfig]">
<path fill="#add8e6" stroke="#000000" stroke-width="1.5" d="M86.4951,-384C86.4951,-384 27.8345,-384 27.8345,-384 21.8345,-384 15.8345,-378 15.8345,-372 15.8345,-372 15.8345,-360 15.8345,-360 15.8345,-354 21.8345,-348 27.8345,-348 27.8345,-348 86.4951,-348 86.4951,-348 92.4951,-348 98.4951,-354 98.4951,-360 98.4951,-360 98.4951,-372 98.4951,-372 98.4951,-378 92.4951,-384 86.4951,-384"/>
<text text-anchor="middle" x="57.1648" y="-361.8" font-family="Verdana" font-size="14.00" fill="#000000">InitConfig</text>
</a>
</g>
</g>
<!-- github.com/go&#45;i2p/go&#45;i2p/lib/config.InitConfig&#45;&gt;github.com/go&#45;i2p/go&#45;i2p/lib/config.UpdateRouterConfig -->
<g id="edge22" class="edge">
<title>github.com/go&#45;i2p/go&#45;i2p/lib/config.InitConfig&#45;&gt;github.com/go&#45;i2p/go&#45;i2p/lib/config.UpdateRouterConfig</title>
<g id="a_edge22"><a xlink:title="at config.go:76: calling [github.com/go&#45;i2p/go&#45;i2p/lib/config.UpdateRouterConfig]">
<path fill="none" stroke="#000000" d="M59.6612,-347.7336C67.8983,-289.9377 95.897,-112.4308 134.3296,-71 142.0256,-62.7036 151.6642,-56.2674 161.9919,-51.2744"/>
<polygon fill="#000000" stroke="#000000" points="163.45,-54.457 171.2138,-47.2477 160.6487,-48.0419 163.45,-54.457"/>
</a>
</g>
</g>
<!-- github.com/go&#45;i2p/go&#45;i2p/lib/config.InitConfig&#45;&gt;github.com/go&#45;i2p/go&#45;i2p/lib/config.DefaultRouterConfig -->
<g id="edge5" class="edge">
<title>github.com/go&#45;i2p/go&#45;i2p/lib/config.InitConfig&#45;&gt;github.com/go&#45;i2p/go&#45;i2p/lib/config.DefaultRouterConfig</title>
<g id="a_edge5"><a xlink:title="at config.go:41: calling [github.com/go&#45;i2p/go&#45;i2p/lib/config.DefaultRouterConfig]&#10;at config.go:42: calling [github.com/go&#45;i2p/go&#45;i2p/lib/config.DefaultRouterConfig]&#10;at config.go:43: calling [github.com/go&#45;i2p/go&#45;i2p/lib/config.DefaultRouterConfig]&#10;at config.go:44: calling [github.com/go&#45;i2p/go&#45;i2p/lib/config.DefaultRouterConfig]">
<path fill="none" stroke="#000000" d="M60.5914,-384.1687C69.7579,-427.0742 99.2234,-534.4829 171.3296,-580 188.2431,-590.6767 296.989,-593.0655 375.3532,-593.3684"/>
<polygon fill="#000000" stroke="#000000" points="375.7038,-596.8693 385.7135,-593.3972 375.7233,-589.8693 375.7038,-596.8693"/>
</a>
</g>
</g>
<!-- github.com/go&#45;i2p/go&#45;i2p/lib/config.InitConfig&#45;&gt;github.com/go&#45;i2p/go&#45;i2p/lib/config.setDefaults -->
<g id="edge10" class="edge">
<title>github.com/go&#45;i2p/go&#45;i2p/lib/config.InitConfig&#45;&gt;github.com/go&#45;i2p/go&#45;i2p/lib/config.setDefaults</title>
<g id="a_edge10"><a xlink:title="at config.go:67: calling [github.com/go&#45;i2p/go&#45;i2p/lib/config.setDefaults]">
<path fill="none" stroke="#000000" d="M62.41,-347.7554C74.8624,-307.4311 109.8568,-209.808 171.3296,-153 176.6761,-148.0592 182.9367,-143.8195 189.4828,-140.2058"/>
<polygon fill="#000000" stroke="#000000" points="191.1647,-143.2777 198.5273,-135.6591 188.0206,-137.0235 191.1647,-143.2777"/>
</a>
</g>
</g>
<!-- github.com/spf13/viper.SetConfigFile -->
<g id="node14" class="node">
<title>github.com/spf13/viper.SetConfigFile</title>
<g id="a_node14"><a xlink:title="github.com/spf13/viper.SetConfigFile | defined in viper.go:509">
<path fill="#ffe4b5" stroke="#000000" stroke-width="1.5" d="M281.0929,-201C281.0929,-201 202.9829,-201 202.9829,-201 196.9829,-201 190.9829,-195 190.9829,-189 190.9829,-189 190.9829,-177 190.9829,-177 190.9829,-171 196.9829,-165 202.9829,-165 202.9829,-165 281.0929,-165 281.0929,-165 287.0929,-165 293.0929,-171 293.0929,-177 293.0929,-177 293.0929,-189 293.0929,-189 293.0929,-195 287.0929,-201 281.0929,-201"/>
<text text-anchor="middle" x="242.0379" y="-187.2" font-family="Verdana" font-size="14.00" fill="#000000">viper</text>
<text text-anchor="middle" x="242.0379" y="-170.4" font-family="Verdana" font-size="14.00" fill="#000000">SetConfigFile</text>
</a>
</g>
</g>
<!-- github.com/go&#45;i2p/go&#45;i2p/lib/config.InitConfig&#45;&gt;github.com/spf13/viper.SetConfigFile -->
<g id="edge20" class="edge">
<title>github.com/go&#45;i2p/go&#45;i2p/lib/config.InitConfig&#45;&gt;github.com/spf13/viper.SetConfigFile</title>
<g id="a_edge20"><a xlink:title="at config.go:25: calling [github.com/spf13/viper.SetConfigFile]">
<path fill="none" stroke="#8b4513" d="M66.7557,-347.6781C83.9212,-316.4408 122.6923,-252.5246 171.3296,-214 174.9135,-211.1613 178.7976,-208.5287 182.8383,-206.0977"/>
<polygon fill="#8b4513" stroke="#8b4513" points="184.8229,-208.9997 191.8786,-201.0961 181.4341,-202.8746 184.8229,-208.9997"/>
</a>
</g>
</g>
<!-- github.com/spf13/viper.ReadInConfig -->
<g id="node15" class="node">
<title>github.com/spf13/viper.ReadInConfig</title>
<g id="a_node15"><a xlink:title="github.com/spf13/viper.ReadInConfig | defined in viper.go:1632">
<path fill="#ffe4b5" stroke="#000000" stroke-width="1.5" d="M281.8526,-262C281.8526,-262 202.2232,-262 202.2232,-262 196.2232,-262 190.2232,-256 190.2232,-250 190.2232,-250 190.2232,-238 190.2232,-238 190.2232,-232 196.2232,-226 202.2232,-226 202.2232,-226 281.8526,-226 281.8526,-226 287.8526,-226 293.8526,-232 293.8526,-238 293.8526,-238 293.8526,-250 293.8526,-250 293.8526,-256 287.8526,-262 281.8526,-262"/>
<text text-anchor="middle" x="242.0379" y="-248.2" font-family="Verdana" font-size="14.00" fill="#000000">viper</text>
<text text-anchor="middle" x="242.0379" y="-231.4" font-family="Verdana" font-size="14.00" fill="#000000">ReadInConfig</text>
</a>
</g>
</g>
<!-- github.com/go&#45;i2p/go&#45;i2p/lib/config.InitConfig&#45;&gt;github.com/spf13/viper.ReadInConfig -->
<g id="edge25" class="edge">
<title>github.com/go&#45;i2p/go&#45;i2p/lib/config.InitConfig&#45;&gt;github.com/spf13/viper.ReadInConfig</title>
<g id="a_edge25"><a xlink:title="at config.go:69: calling [github.com/spf13/viper.ReadInConfig]">
<path fill="none" stroke="#8b4513" d="M76.6135,-347.8716C98.4485,-328.1682 135.5252,-296.6121 171.3296,-275 176.255,-272.027 181.5164,-269.1794 186.8628,-266.4989"/>
<polygon fill="#8b4513" stroke="#8b4513" points="188.4024,-269.6422 195.8962,-262.1527 185.3675,-263.3343 188.4024,-269.6422"/>
</a>
</g>
</g>
<!-- github.com/spf13/viper.AddConfigPath -->
<g id="node16" class="node">
<title>github.com/spf13/viper.AddConfigPath</title>
<g id="a_node16"><a xlink:title="github.com/spf13/viper.AddConfigPath | defined in viper.go:574">
<path fill="#ffe4b5" stroke="#000000" stroke-width="1.5" d="M285.9202,-323C285.9202,-323 198.1556,-323 198.1556,-323 192.1556,-323 186.1556,-317 186.1556,-311 186.1556,-311 186.1556,-299 186.1556,-299 186.1556,-293 192.1556,-287 198.1556,-287 198.1556,-287 285.9202,-287 285.9202,-287 291.9202,-287 297.9202,-293 297.9202,-299 297.9202,-299 297.9202,-311 297.9202,-311 297.9202,-317 291.9202,-323 285.9202,-323"/>
<text text-anchor="middle" x="242.0379" y="-309.2" font-family="Verdana" font-size="14.00" fill="#000000">viper</text>
<text text-anchor="middle" x="242.0379" y="-292.4" font-family="Verdana" font-size="14.00" fill="#000000">AddConfigPath</text>
</a>
</g>
</g>
<!-- github.com/go&#45;i2p/go&#45;i2p/lib/config.InitConfig&#45;&gt;github.com/spf13/viper.AddConfigPath -->
<g id="edge3" class="edge">
<title>github.com/go&#45;i2p/go&#45;i2p/lib/config.InitConfig&#45;&gt;github.com/spf13/viper.AddConfigPath</title>
<g id="a_edge3"><a xlink:title="at config.go:61: calling [github.com/spf13/viper.AddConfigPath]">
<path fill="none" stroke="#8b4513" d="M98.6539,-352.3104C121.9783,-344.6144 151.5964,-334.8417 177.8508,-326.1789"/>
<polygon fill="#8b4513" stroke="#8b4513" points="178.9537,-329.5007 187.3534,-323.0435 176.7603,-322.8532 178.9537,-329.5007"/>
</a>
</g>
</g>
<!-- github.com/spf13/viper.SetConfigName -->
<g id="node17" class="node">
<title>github.com/spf13/viper.SetConfigName</title>
<g id="a_node17"><a xlink:title="github.com/spf13/viper.SetConfigName | defined in viper.go:2174">
<path fill="#ffe4b5" stroke="#000000" stroke-width="1.5" d="M287.2401,-384C287.2401,-384 196.8357,-384 196.8357,-384 190.8357,-384 184.8357,-378 184.8357,-372 184.8357,-372 184.8357,-360 184.8357,-360 184.8357,-354 190.8357,-348 196.8357,-348 196.8357,-348 287.2401,-348 287.2401,-348 293.2401,-348 299.2401,-354 299.2401,-360 299.2401,-360 299.2401,-372 299.2401,-372 299.2401,-378 293.2401,-384 287.2401,-384"/>
<text text-anchor="middle" x="242.0379" y="-370.2" font-family="Verdana" font-size="14.00" fill="#000000">viper</text>
<text text-anchor="middle" x="242.0379" y="-353.4" font-family="Verdana" font-size="14.00" fill="#000000">SetConfigName</text>
</a>
</g>
</g>
<!-- github.com/go&#45;i2p/go&#45;i2p/lib/config.InitConfig&#45;&gt;github.com/spf13/viper.SetConfigName -->
<g id="edge21" class="edge">
<title>github.com/go&#45;i2p/go&#45;i2p/lib/config.InitConfig&#45;&gt;github.com/spf13/viper.SetConfigName</title>
<g id="a_edge21"><a xlink:title="at config.go:62: calling [github.com/spf13/viper.SetConfigName]">
<path fill="none" stroke="#8b4513" d="M98.6539,-366C121.0164,-366 149.1643,-366 174.5862,-366"/>
<polygon fill="#8b4513" stroke="#8b4513" points="174.9165,-369.5001 184.9165,-366 174.9164,-362.5001 174.9165,-369.5001"/>
</a>
</g>
</g>
<!-- github.com/spf13/viper.SetConfigType -->
<g id="node18" class="node">
<title>github.com/spf13/viper.SetConfigType</title>
<g id="a_node18"><a xlink:title="github.com/spf13/viper.SetConfigType | defined in viper.go:2185">
<path fill="#ffe4b5" stroke="#000000" stroke-width="1.5" d="M284.5817,-445C284.5817,-445 199.4941,-445 199.4941,-445 193.4941,-445 187.4941,-439 187.4941,-433 187.4941,-433 187.4941,-421 187.4941,-421 187.4941,-415 193.4941,-409 199.4941,-409 199.4941,-409 284.5817,-409 284.5817,-409 290.5817,-409 296.5817,-415 296.5817,-421 296.5817,-421 296.5817,-433 296.5817,-433 296.5817,-439 290.5817,-445 284.5817,-445"/>
<text text-anchor="middle" x="242.0379" y="-431.2" font-family="Verdana" font-size="14.00" fill="#000000">viper</text>
<text text-anchor="middle" x="242.0379" y="-414.4" font-family="Verdana" font-size="14.00" fill="#000000">SetConfigType</text>
</a>
</g>
</g>
<!-- github.com/go&#45;i2p/go&#45;i2p/lib/config.InitConfig&#45;&gt;github.com/spf13/viper.SetConfigType -->
<g id="edge14" class="edge">
<title>github.com/go&#45;i2p/go&#45;i2p/lib/config.InitConfig&#45;&gt;github.com/spf13/viper.SetConfigType</title>
<g id="a_edge14"><a xlink:title="at config.go:63: calling [github.com/spf13/viper.SetConfigType]">
<path fill="none" stroke="#8b4513" d="M98.6539,-379.6896C121.9783,-387.3856 151.5964,-397.1583 177.8508,-405.8211"/>
<polygon fill="#8b4513" stroke="#8b4513" points="176.7603,-409.1468 187.3534,-408.9565 178.9537,-402.4993 176.7603,-409.1468"/>
</a>
</g>
</g>
<!-- gopkg.in/yaml.v3.Marshal -->
<g id="node19" class="node">
<title>gopkg.in/yaml.v3.Marshal</title>
<g id="a_node19"><a xlink:title="gopkg.in/yaml.v3.Marshal | defined in yaml.go:218">
<path fill="#ffe4b5" stroke="#000000" stroke-width="1.5" d="M264.9076,-506C264.9076,-506 219.1682,-506 219.1682,-506 213.1682,-506 207.1682,-500 207.1682,-494 207.1682,-494 207.1682,-482 207.1682,-482 207.1682,-476 213.1682,-470 219.1682,-470 219.1682,-470 264.9076,-470 264.9076,-470 270.9076,-470 276.9076,-476 276.9076,-482 276.9076,-482 276.9076,-494 276.9076,-494 276.9076,-500 270.9076,-506 264.9076,-506"/>
<text text-anchor="middle" x="242.0379" y="-492.2" font-family="Verdana" font-size="14.00" fill="#000000">yaml</text>
<text text-anchor="middle" x="242.0379" y="-475.4" font-family="Verdana" font-size="14.00" fill="#000000">Marshal</text>
</a>
</g>
</g>
<!-- github.com/go&#45;i2p/go&#45;i2p/lib/config.InitConfig&#45;&gt;gopkg.in/yaml.v3.Marshal -->
<g id="edge11" class="edge">
<title>github.com/go&#45;i2p/go&#45;i2p/lib/config.InitConfig&#45;&gt;gopkg.in/yaml.v3.Marshal</title>
<g id="a_edge11"><a xlink:title="at config.go:47: calling [gopkg.in/yaml.v3.Marshal]">
<path fill="none" stroke="#8b4513" d="M76.1343,-384.065C97.8401,-404.0469 135.0821,-436.2831 171.3296,-458 179.5648,-462.9339 188.7601,-467.4654 197.7243,-471.4305"/>
<polygon fill="#8b4513" stroke="#8b4513" points="196.3604,-474.6538 206.9323,-475.3507 199.1024,-468.2132 196.3604,-474.6538"/>
</a>
</g>
</g>
<!-- github.com/spf13/viper.ConfigFileUsed -->
<g id="node20" class="node">
<title>github.com/spf13/viper.ConfigFileUsed</title>
<g id="a_node20"><a xlink:title="github.com/spf13/viper.ConfigFileUsed | defined in viper.go:569">
<path fill="#ffe4b5" stroke="#000000" stroke-width="1.5" d="M286.9707,-567C286.9707,-567 197.1051,-567 197.1051,-567 191.1051,-567 185.1051,-561 185.1051,-555 185.1051,-555 185.1051,-543 185.1051,-543 185.1051,-537 191.1051,-531 197.1051,-531 197.1051,-531 286.9707,-531 286.9707,-531 292.9707,-531 298.9707,-537 298.9707,-543 298.9707,-543 298.9707,-555 298.9707,-555 298.9707,-561 292.9707,-567 286.9707,-567"/>
<text text-anchor="middle" x="242.0379" y="-553.2" font-family="Verdana" font-size="14.00" fill="#000000">viper</text>
<text text-anchor="middle" x="242.0379" y="-536.4" font-family="Verdana" font-size="14.00" fill="#000000">ConfigFileUsed</text>
</a>
</g>
</g>
<!-- github.com/go&#45;i2p/go&#45;i2p/lib/config.InitConfig&#45;&gt;github.com/spf13/viper.ConfigFileUsed -->
<g id="edge13" class="edge">
<title>github.com/go&#45;i2p/go&#45;i2p/lib/config.InitConfig&#45;&gt;github.com/spf13/viper.ConfigFileUsed</title>
<g id="a_edge13"><a xlink:title="at config.go:72: calling [github.com/spf13/viper.ConfigFileUsed]">
<path fill="none" stroke="#8b4513" d="M66.4064,-384.0067C83.3121,-415.3611 122.0575,-480.3233 171.3296,-519 174.4846,-521.4766 177.8743,-523.7853 181.4,-525.9314"/>
<polygon fill="#8b4513" stroke="#8b4513" points="179.9481,-529.1289 190.3879,-530.9344 183.3526,-523.0126 179.9481,-529.1289"/>
</a>
</g>
</g>
<!-- github.com/go&#45;i2p/go&#45;i2p/lib/config.InitConfig&#45;&gt;(*github.com/go&#45;i2p/logger.Logger).Warnf -->
<g id="edge12" class="edge">
<title>github.com/go&#45;i2p/go&#45;i2p/lib/config.InitConfig&#45;&gt;(*github.com/go&#45;i2p/logger.Logger).Warnf</title>
<g id="a_edge12"><a xlink:title="at config.go:70: calling [(*github.com/go&#45;i2p/logger.Logger).Warnf]">
<path fill="none" stroke="#8b4513" d="M58.2342,-347.7257C62.3308,-296.5636 81.7139,-151.7442 171.3296,-92 223.6254,-57.1359 257.9583,-61.2001 312.7462,-92 367.1635,-122.5916 336.4839,-173.6553 385.7462,-212 394.8465,-219.0835 406.2361,-223.8999 417.2313,-227.1698"/>
<polygon fill="#8b4513" stroke="#8b4513" points="416.5811,-230.6173 427.1411,-229.7586 418.3504,-223.8446 416.5811,-230.6173"/>
</a>
</g>
</g>
<!-- (*github.com/sirupsen/logrus.Logger).Fatalf -->
<g id="node22" class="node">
<title>(*github.com/sirupsen/logrus.Logger).Fatalf</title>
<g id="a_node22"><a xlink:title="(*github.com/sirupsen/logrus.Logger).Fatalf | defined in logger.go:189">
<path fill="#ffe4b5" stroke="#000000" stroke-width="1.5" d="M259.5337,-733C259.5337,-733 224.5421,-733 224.5421,-733 218.5421,-733 212.5421,-727 212.5421,-721 212.5421,-721 212.5421,-709 212.5421,-709 212.5421,-703 218.5421,-697 224.5421,-697 224.5421,-697 259.5337,-697 259.5337,-697 265.5337,-697 271.5337,-703 271.5337,-709 271.5337,-709 271.5337,-721 271.5337,-721 271.5337,-727 265.5337,-733 259.5337,-733"/>
<text text-anchor="middle" x="242.0379" y="-719.2" font-family="Verdana" font-size="14.00" fill="#000000">logrus</text>
<text text-anchor="middle" x="242.0379" y="-702.4" font-family="Verdana" font-size="14.00" fill="#000000">Fatalf</text>
</a>
</g>
</g>
<!-- github.com/go&#45;i2p/go&#45;i2p/lib/config.InitConfig&#45;&gt;(*github.com/sirupsen/logrus.Logger).Fatalf -->
<g id="edge4" class="edge">
<title>github.com/go&#45;i2p/go&#45;i2p/lib/config.InitConfig&#45;&gt;(*github.com/sirupsen/logrus.Logger).Fatalf</title>
<g id="a_edge4"><a xlink:title="at config.go:31: calling [(*github.com/sirupsen/logrus.Logger).Fatalf]&#10;at config.go:49: calling [(*github.com/sirupsen/logrus.Logger).Fatalf]&#10;at config.go:54: calling [(*github.com/sirupsen/logrus.Logger).Fatalf]">
<path fill="none" stroke="#8b4513" d="M58.2044,-384.1411C62.2835,-438.0873 81.7586,-599.0854 171.3296,-685 180.1126,-693.4245 191.6201,-699.6551 202.793,-704.1854"/>
<polygon fill="#8b4513" stroke="#8b4513" points="201.8553,-707.5698 212.4488,-707.7413 204.2744,-701.0011 201.8553,-707.5698"/>
</a>
</g>
</g>
<!-- (*github.com/sirupsen/logrus.Logger).Debugf -->
<g id="node23" class="node">
<title>(*github.com/sirupsen/logrus.Logger).Debugf</title>
<g id="a_node23"><a xlink:title="(*github.com/sirupsen/logrus.Logger).Debugf | defined in logger.go:163">
<path fill="#ffe4b5" stroke="#000000" stroke-width="1.5" d="M263.0197,-672C263.0197,-672 221.0561,-672 221.0561,-672 215.0561,-672 209.0561,-666 209.0561,-660 209.0561,-660 209.0561,-648 209.0561,-648 209.0561,-642 215.0561,-636 221.0561,-636 221.0561,-636 263.0197,-636 263.0197,-636 269.0197,-636 275.0197,-642 275.0197,-648 275.0197,-648 275.0197,-660 275.0197,-660 275.0197,-666 269.0197,-672 263.0197,-672"/>
<text text-anchor="middle" x="242.0379" y="-658.2" font-family="Verdana" font-size="14.00" fill="#000000">logrus</text>
<text text-anchor="middle" x="242.0379" y="-641.4" font-family="Verdana" font-size="14.00" fill="#000000">Debugf</text>
</a>
</g>
</g>
<!-- github.com/go&#45;i2p/go&#45;i2p/lib/config.InitConfig&#45;&gt;(*github.com/sirupsen/logrus.Logger).Debugf -->
<g id="edge6" class="edge">
<title>github.com/go&#45;i2p/go&#45;i2p/lib/config.InitConfig&#45;&gt;(*github.com/sirupsen/logrus.Logger).Debugf</title>
<g id="a_edge6"><a xlink:title="at config.go:57: calling [(*github.com/sirupsen/logrus.Logger).Debugf]&#10;at config.go:72: calling [(*github.com/sirupsen/logrus.Logger).Debugf]">
<path fill="none" stroke="#8b4513" d="M59.7631,-384.1644C66.3637,-425.5229 86.7448,-528.6433 134.3296,-600 146.392,-618.0884 152.3268,-621.4366 171.3296,-632 179.9196,-636.7751 189.6845,-640.6601 199.1566,-643.7608"/>
<polygon fill="#8b4513" stroke="#8b4513" points="198.2743,-647.1507 208.8601,-646.7126 200.3116,-640.4537 198.2743,-647.1507"/>
</a>
</g>
</g>
</g>
</svg>
