<?xml version="1.0" encoding="UTF-8" standalone="no"?>
<!DOCTYPE svg PUBLIC "-//W3C//DTD SVG 1.1//EN"
 "http://www.w3.org/Graphics/SVG/1.1/DTD/svg11.dtd">
<!-- Generated by graphviz version 2.40.1 (20161225.0304)
 -->
<!-- Title: gocallvis Pages: 1 -->
<svg width="712pt" height="726pt"
 viewBox="0.00 0.00 712.47 726.00" xmlns="http://www.w3.org/2000/svg" xmlns:xlink="http://www.w3.org/1999/xlink">
<g id="graph0" class="graph" transform="scale(1 1) rotate(0) translate(0 726)">
<title>gocallvis</title>
<polygon fill="#d3d3d3" stroke="transparent" points="0,0 0,-726 712.4728,-726 712.4728,0 0,0"/>
<g id="clust1" class="cluster">
<title>cluster_focus</title>
<polygon fill="#e6ecfa" stroke="#000000" stroke-width=".5" points="8,-8 8,-718 704.4728,-718 704.4728,-8 8,-8"/>
<text text-anchor="middle" x="356.2364" y="-697.8" font-family="Arial" font-size="18.00" fill="#000000">config</text>
</g>
<g id="clust3" class="cluster">
<title>cluster_*github.com/sirupsen/logrus.Logger</title>
<g id="a_clust3"><a xlink:title="type: *github.com/sirupsen/logrus.Logger">
<path fill="#eed8ae" stroke="#000000" stroke-width=".5" d="M620.1025,-60C620.1025,-60 678.0843,-60 678.0843,-60 684.0843,-60 690.0843,-66 690.0843,-72 690.0843,-72 690.0843,-187 690.0843,-187 690.0843,-193 684.0843,-199 678.0843,-199 678.0843,-199 620.1025,-199 620.1025,-199 614.1025,-199 608.1025,-193 608.1025,-187 608.1025,-187 608.1025,-72 608.1025,-72 608.1025,-66 614.1025,-60 620.1025,-60"/>
<text text-anchor="middle" x="649.0934" y="-68.5" font-family="Arial" font-size="15.00" fill="#222222">(*Logger)</text>
</a>
</g>
</g>
<g id="clust2" class="cluster">
<title>cluster_*github.com/go&#45;i2p/logger.Logger</title>
<g id="a_clust2"><a xlink:title="type: *github.com/go&#45;i2p/logger.Logger">
<path fill="#eed8ae" stroke="#000000" stroke-width=".5" d="M430.3472,-602C430.3472,-602 484.113,-602 484.113,-602 490.113,-602 496.113,-608 496.113,-614 496.113,-614 496.113,-668 496.113,-668 496.113,-674 490.113,-680 484.113,-680 484.113,-680 430.3472,-680 430.3472,-680 424.3472,-680 418.3472,-674 418.3472,-668 418.3472,-668 418.3472,-614 418.3472,-614 418.3472,-608 424.3472,-602 430.3472,-602"/>
<text text-anchor="middle" x="457.2301" y="-610.5" font-family="Arial" font-size="15.00" fill="#222222">(*Logger)</text>
</a>
</g>
</g>
<!-- github.com/go&#45;i2p/go&#45;i2p/lib/config.BuildI2PDirPath -->
<g id="node1" class="node">
<title>github.com/go&#45;i2p/go&#45;i2p/lib/config.BuildI2PDirPath</title>
<g id="a_node1"><a xlink:title="github.com/go&#45;i2p/go&#45;i2p/lib/config.BuildI2PDirPath | defined in config.go:107&#10;at config.go:108: calling [github.com/go&#45;i2p/go&#45;i2p/lib/util.UserHome]">
<path fill="#add8e6" stroke="#000000" stroke-width="1.5" d="M504.3367,-52C504.3367,-52 410.1235,-52 410.1235,-52 404.1235,-52 398.1235,-46 398.1235,-40 398.1235,-40 398.1235,-28 398.1235,-28 398.1235,-22 404.1235,-16 410.1235,-16 410.1235,-16 504.3367,-16 504.3367,-16 510.3367,-16 516.3367,-22 516.3367,-28 516.3367,-28 516.3367,-40 516.3367,-40 516.3367,-46 510.3367,-52 504.3367,-52"/>
<text text-anchor="middle" x="457.2301" y="-29.8" font-family="Verdana" font-size="14.00" fill="#000000">BuildI2PDirPath</text>
</a>
</g>
</g>
<!-- github.com/go&#45;i2p/go&#45;i2p/lib/util.UserHome -->
<g id="node2" class="node">
<title>github.com/go&#45;i2p/go&#45;i2p/lib/util.UserHome</title>
<g id="a_node2"><a xlink:title="github.com/go&#45;i2p/go&#45;i2p/lib/util.UserHome | defined in home.go:8">
<path fill="#ffe4b5" stroke="#000000" stroke-width="1.5" d="M679.2324,-52C679.2324,-52 618.9544,-52 618.9544,-52 612.9544,-52 606.9544,-46 606.9544,-40 606.9544,-40 606.9544,-28 606.9544,-28 606.9544,-22 612.9544,-16 618.9544,-16 618.9544,-16 679.2324,-16 679.2324,-16 685.2324,-16 691.2324,-22 691.2324,-28 691.2324,-28 691.2324,-40 691.2324,-40 691.2324,-46 685.2324,-52 679.2324,-52"/>
<text text-anchor="middle" x="649.0934" y="-38.2" font-family="Verdana" font-size="14.00" fill="#000000">util</text>
<text text-anchor="middle" x="649.0934" y="-21.4" font-family="Verdana" font-size="14.00" fill="#000000">UserHome</text>
</a>
</g>
</g>
<!-- github.com/go&#45;i2p/go&#45;i2p/lib/config.BuildI2PDirPath&#45;&gt;github.com/go&#45;i2p/go&#45;i2p/lib/util.UserHome -->
<g id="edge1" class="edge">
<title>github.com/go&#45;i2p/go&#45;i2p/lib/config.BuildI2PDirPath&#45;&gt;github.com/go&#45;i2p/go&#45;i2p/lib/util.UserHome</title>
<g id="a_edge1"><a xlink:title="at config.go:108: calling [github.com/go&#45;i2p/go&#45;i2p/lib/util.UserHome]">
<path fill="none" stroke="#8b4513" d="M516.361,-34C541.988,-34 571.7449,-34 596.5809,-34"/>
<polygon fill="#8b4513" stroke="#8b4513" points="596.8973,-37.5001 606.8973,-34 596.8973,-30.5001 596.8973,-37.5001"/>
</a>
</g>
</g>
<!-- github.com/go&#45;i2p/go&#45;i2p/lib/config.defaultBase -->
<g id="node3" class="node">
<title>github.com/go&#45;i2p/go&#45;i2p/lib/config.defaultBase</title>
<g id="a_node3"><a xlink:title="github.com/go&#45;i2p/go&#45;i2p/lib/config.defaultBase | defined in router.go:19&#10;at router.go:20: calling [github.com/go&#45;i2p/go&#45;i2p/lib/config.BuildI2PDirPath]">
<path fill="#add8e6" stroke="#000000" stroke-width=".5" d="M275.1193,-113C275.1193,-113 208.9565,-113 208.9565,-113 202.9565,-113 196.9565,-107 196.9565,-101 196.9565,-101 196.9565,-89 196.9565,-89 196.9565,-83 202.9565,-77 208.9565,-77 208.9565,-77 275.1193,-77 275.1193,-77 281.1193,-77 287.1193,-83 287.1193,-89 287.1193,-89 287.1193,-101 287.1193,-101 287.1193,-107 281.1193,-113 275.1193,-113"/>
<text text-anchor="middle" x="242.0379" y="-90.8" font-family="Verdana" font-size="14.00" fill="#000000">defaultBase</text>
</a>
</g>
</g>
<!-- github.com/go&#45;i2p/go&#45;i2p/lib/config.defaultBase&#45;&gt;github.com/go&#45;i2p/go&#45;i2p/lib/config.BuildI2PDirPath -->
<g id="edge7" class="edge">
<title>github.com/go&#45;i2p/go&#45;i2p/lib/config.defaultBase&#45;&gt;github.com/go&#45;i2p/go&#45;i2p/lib/config.BuildI2PDirPath</title>
<g id="a_edge7"><a xlink:title="at router.go:20: calling [github.com/go&#45;i2p/go&#45;i2p/lib/config.BuildI2PDirPath]">
<path fill="none" stroke="#000000" d="M287.1727,-81.7477C306.1675,-76.207 328.5156,-69.7356 348.7462,-64 361.4802,-60.3897 375.0703,-56.5898 388.172,-52.9532"/>
<polygon fill="#000000" stroke="#000000" points="389.3709,-56.2529 398.0734,-50.21 387.5019,-49.507 389.3709,-56.2529"/>
</a>
</g>
</g>
<!-- github.com/go&#45;i2p/go&#45;i2p/lib/config.setDefaults -->
<g id="node4" class="node">
<title>github.com/go&#45;i2p/go&#45;i2p/lib/config.setDefaults</title>
<g id="a_node4"><a xlink:title="github.com/go&#45;i2p/go&#45;i2p/lib/config.setDefaults | defined in config.go:40&#10;at config.go:42: calling [github.com/spf13/viper.SetDefault]&#10;at config.go:43: calling [github.com/spf13/viper.SetDefault]&#10;at config.go:46: calling [github.com/spf13/viper.SetDefault]&#10;at config.go:49: calling [github.com/spf13/viper.SetDefault]&#10;at config.go:50: calling [github.com/spf13/viper.SetDefault]&#10;at config.go:42: calling [github.com/go&#45;i2p/go&#45;i2p/lib/config.DefaultRouterConfig]&#10;at config.go:43: calling [github.com/go&#45;i2p/go&#45;i2p/lib/config.DefaultRouterConfig]">
<path fill="#add8e6" stroke="#000000" stroke-width=".5" d="M273.5099,-533C273.5099,-533 210.5659,-533 210.5659,-533 204.5659,-533 198.5659,-527 198.5659,-521 198.5659,-521 198.5659,-509 198.5659,-509 198.5659,-503 204.5659,-497 210.5659,-497 210.5659,-497 273.5099,-497 273.5099,-497 279.5099,-497 285.5099,-503 285.5099,-509 285.5099,-509 285.5099,-521 285.5099,-521 285.5099,-527 279.5099,-533 273.5099,-533"/>
<text text-anchor="middle" x="242.0379" y="-510.8" font-family="Verdana" font-size="14.00" fill="#000000">setDefaults</text>
</a>
</g>
</g>
<!-- github.com/go&#45;i2p/go&#45;i2p/lib/config.DefaultRouterConfig -->
<g id="node5" class="node">
<title>github.com/go&#45;i2p/go&#45;i2p/lib/config.DefaultRouterConfig</title>
<g id="a_node5"><a xlink:title="github.com/go&#45;i2p/go&#45;i2p/lib/config.DefaultRouterConfig | defined in router.go:35">
<path fill="#add8e6" stroke="#000000" stroke-width="1.5" d="M516.6979,-350C516.6979,-350 397.7623,-350 397.7623,-350 391.7623,-350 385.7623,-344 385.7623,-338 385.7623,-338 385.7623,-326 385.7623,-326 385.7623,-320 391.7623,-314 397.7623,-314 397.7623,-314 516.6979,-314 516.6979,-314 522.6979,-314 528.6979,-320 528.6979,-326 528.6979,-326 528.6979,-338 528.6979,-338 528.6979,-344 522.6979,-350 516.6979,-350"/>
<text text-anchor="middle" x="457.2301" y="-327.8" font-family="Verdana" font-size="14.00" fill="#000000">DefaultRouterConfig</text>
</a>
</g>
</g>
<!-- github.com/go&#45;i2p/go&#45;i2p/lib/config.setDefaults&#45;&gt;github.com/go&#45;i2p/go&#45;i2p/lib/config.DefaultRouterConfig -->
<g id="edge28" class="edge">
<title>github.com/go&#45;i2p/go&#45;i2p/lib/config.setDefaults&#45;&gt;github.com/go&#45;i2p/go&#45;i2p/lib/config.DefaultRouterConfig</title>
<g id="a_edge28"><a xlink:title="at config.go:42: calling [github.com/go&#45;i2p/go&#45;i2p/lib/config.DefaultRouterConfig]&#10;at config.go:43: calling [github.com/go&#45;i2p/go&#45;i2p/lib/config.DefaultRouterConfig]">
<path fill="none" stroke="#000000" d="M285.6767,-501.5646C295.2737,-497.2836 304.902,-491.8304 312.7462,-485 360.3999,-443.5052 338.2573,-404.6833 385.7462,-363 388.9486,-360.1891 392.4452,-357.6006 396.1151,-355.2223"/>
<polygon fill="#000000" stroke="#000000" points="398.0809,-358.127 404.936,-350.0487 394.5394,-352.0889 398.0809,-358.127"/>
</a>
</g>
</g>
<!-- github.com/spf13/viper.SetDefault -->
<g id="node6" class="node">
<title>github.com/spf13/viper.SetDefault</title>
<g id="a_node6"><a xlink:title="github.com/spf13/viper.SetDefault | defined in viper.go:1596">
<path fill="#ffe4b5" stroke="#000000" stroke-width="1.5" d="M487.0956,-411C487.0956,-411 427.3646,-411 427.3646,-411 421.3646,-411 415.3646,-405 415.3646,-399 415.3646,-399 415.3646,-387 415.3646,-387 415.3646,-381 421.3646,-375 427.3646,-375 427.3646,-375 487.0956,-375 487.0956,-375 493.0956,-375 499.0956,-381 499.0956,-387 499.0956,-387 499.0956,-399 499.0956,-399 499.0956,-405 493.0956,-411 487.0956,-411"/>
<text text-anchor="middle" x="457.2301" y="-397.2" font-family="Verdana" font-size="14.00" fill="#000000">viper</text>
<text text-anchor="middle" x="457.2301" y="-380.4" font-family="Verdana" font-size="14.00" fill="#000000">SetDefault</text>
</a>
</g>
</g>
<!-- github.com/go&#45;i2p/go&#45;i2p/lib/config.setDefaults&#45;&gt;github.com/spf13/viper.SetDefault -->
<g id="edge8" class="edge">
<title>github.com/go&#45;i2p/go&#45;i2p/lib/config.setDefaults&#45;&gt;github.com/spf13/viper.SetDefault</title>
<g id="a_edge8"><a xlink:title="at config.go:42: calling [github.com/spf13/viper.SetDefault]&#10;at config.go:43: calling [github.com/spf13/viper.SetDefault]&#10;at config.go:46: calling [github.com/spf13/viper.SetDefault]&#10;at config.go:49: calling [github.com/spf13/viper.SetDefault]&#10;at config.go:50: calling [github.com/spf13/viper.SetDefault]">
<path fill="none" stroke="#8b4513" d="M285.671,-498.8748C294.8666,-494.8246 304.3268,-490.1466 312.7462,-485 348.8208,-462.9483 349.7593,-446.1945 385.7462,-424 391.9995,-420.1434 398.817,-416.5278 405.6778,-413.2247"/>
<polygon fill="#8b4513" stroke="#8b4513" points="407.396,-416.2866 415.0114,-408.9207 404.4647,-409.9299 407.396,-416.2866"/>
</a>
</g>
</g>
<!-- github.com/go&#45;i2p/go&#45;i2p/lib/config.UpdateRouterConfig -->
<g id="node7" class="node">
<title>github.com/go&#45;i2p/go&#45;i2p/lib/config.UpdateRouterConfig</title>
<g id="a_node7"><a xlink:title="github.com/go&#45;i2p/go&#45;i2p/lib/config.UpdateRouterConfig | defined in config.go:53&#10;at config.go:66: calling [(*github.com/go&#45;i2p/logger.Logger).Warnf]&#10;at config.go:71: calling [github.com/spf13/viper.GetInt]&#10;at config.go:65: calling [github.com/spf13/viper.UnmarshalKey]&#10;at config.go:55: calling [github.com/spf13/viper.GetString]&#10;at config.go:56: calling [github.com/spf13/viper.GetString]&#10;at config.go:60: calling [github.com/spf13/viper.GetString]">
<path fill="#add8e6" stroke="#000000" stroke-width="1.5" d="M300.9551,-594C300.9551,-594 183.1207,-594 183.1207,-594 177.1207,-594 171.1207,-588 171.1207,-582 171.1207,-582 171.1207,-570 171.1207,-570 171.1207,-564 177.1207,-558 183.1207,-558 183.1207,-558 300.9551,-558 300.9551,-558 306.9551,-558 312.9551,-564 312.9551,-570 312.9551,-570 312.9551,-582 312.9551,-582 312.9551,-588 306.9551,-594 300.9551,-594"/>
<text text-anchor="middle" x="242.0379" y="-571.8" font-family="Verdana" font-size="14.00" fill="#000000">UpdateRouterConfig</text>
</a>
</g>
</g>
<!-- github.com/spf13/viper.GetString -->
<g id="node8" class="node">
<title>github.com/spf13/viper.GetString</title>
<g id="a_node8"><a xlink:title="github.com/spf13/viper.GetString | defined in viper.go:975">
<path fill="#ffe4b5" stroke="#000000" stroke-width="1.5" d="M484.6675,-472C484.6675,-472 429.7927,-472 429.7927,-472 423.7927,-472 417.7927,-466 417.7927,-460 417.7927,-460 417.7927,-448 417.7927,-448 417.7927,-442 423.7927,-436 429.7927,-436 429.7927,-436 484.6675,-436 484.6675,-436 490.6675,-436 496.6675,-442 496.6675,-448 496.6675,-448 496.6675,-460 496.6675,-460 496.6675,-466 490.6675,-472 484.6675,-472"/>
<text text-anchor="middle" x="457.2301" y="-458.2" font-family="Verdana" font-size="14.00" fill="#000000">viper</text>
<text text-anchor="middle" x="457.2301" y="-441.4" font-family="Verdana" font-size="14.00" fill="#000000">GetString</text>
</a>
</g>
</g>
<!-- github.com/go&#45;i2p/go&#45;i2p/lib/config.UpdateRouterConfig&#45;&gt;github.com/spf13/viper.GetString -->
<g id="edge30" class="edge">
<title>github.com/go&#45;i2p/go&#45;i2p/lib/config.UpdateRouterConfig&#45;&gt;github.com/spf13/viper.GetString</title>
<g id="a_edge30"><a xlink:title="at config.go:55: calling [github.com/spf13/viper.GetString]&#10;at config.go:56: calling [github.com/spf13/viper.GetString]&#10;at config.go:60: calling [github.com/spf13/viper.GetString]">
<path fill="none" stroke="#8b4513" d="M290.1598,-557.8555C297.9074,-554.2951 305.6921,-550.312 312.7462,-546 348.8208,-523.9483 349.7593,-507.1945 385.7462,-485 392.9458,-480.5598 400.8932,-476.4391 408.7936,-472.7468"/>
<polygon fill="#8b4513" stroke="#8b4513" points="410.3084,-475.9034 417.9987,-468.6157 407.4423,-469.517 410.3084,-475.9034"/>
</a>
</g>
</g>
<!-- github.com/spf13/viper.UnmarshalKey -->
<g id="node9" class="node">
<title>github.com/spf13/viper.UnmarshalKey</title>
<g id="a_node9"><a xlink:title="github.com/spf13/viper.UnmarshalKey | defined in viper.go:1103">
<path fill="#ffe4b5" stroke="#000000" stroke-width="1.5" d="M499.4738,-533C499.4738,-533 414.9864,-533 414.9864,-533 408.9864,-533 402.9864,-527 402.9864,-521 402.9864,-521 402.9864,-509 402.9864,-509 402.9864,-503 408.9864,-497 414.9864,-497 414.9864,-497 499.4738,-497 499.4738,-497 505.4738,-497 511.4738,-503 511.4738,-509 511.4738,-509 511.4738,-521 511.4738,-521 511.4738,-527 505.4738,-533 499.4738,-533"/>
<text text-anchor="middle" x="457.2301" y="-519.2" font-family="Verdana" font-size="14.00" fill="#000000">viper</text>
<text text-anchor="middle" x="457.2301" y="-502.4" font-family="Verdana" font-size="14.00" fill="#000000">UnmarshalKey</text>
</a>
</g>
</g>
<!-- github.com/go&#45;i2p/go&#45;i2p/lib/config.UpdateRouterConfig&#45;&gt;github.com/spf13/viper.UnmarshalKey -->
<g id="edge15" class="edge">
<title>github.com/go&#45;i2p/go&#45;i2p/lib/config.UpdateRouterConfig&#45;&gt;github.com/spf13/viper.UnmarshalKey</title>
<g id="a_edge15"><a xlink:title="at config.go:65: calling [github.com/spf13/viper.UnmarshalKey]">
<path fill="none" stroke="#8b4513" d="M305.7292,-557.9456C333.2138,-550.1546 365.3119,-541.0558 392.8706,-533.2438"/>
<polygon fill="#8b4513" stroke="#8b4513" points="394.1351,-536.5234 402.8015,-530.4287 392.226,-529.7887 394.1351,-536.5234"/>
</a>
</g>
</g>
<!-- github.com/spf13/viper.GetInt -->
<g id="node10" class="node">
<title>github.com/spf13/viper.GetInt</title>
<g id="a_node10"><a xlink:title="github.com/spf13/viper.GetInt | defined in viper.go:989">
<path fill="#ffe4b5" stroke="#000000" stroke-width="1.5" d="M474.9936,-594C474.9936,-594 439.4666,-594 439.4666,-594 433.4666,-594 427.4666,-588 427.4666,-582 427.4666,-582 427.4666,-570 427.4666,-570 427.4666,-564 433.4666,-558 439.4666,-558 439.4666,-558 474.9936,-558 474.9936,-558 480.9936,-558 486.9936,-564 486.9936,-570 486.9936,-570 486.9936,-582 486.9936,-582 486.9936,-588 480.9936,-594 474.9936,-594"/>
<text text-anchor="middle" x="457.2301" y="-580.2" font-family="Verdana" font-size="14.00" fill="#000000">viper</text>
<text text-anchor="middle" x="457.2301" y="-563.4" font-family="Verdana" font-size="14.00" fill="#000000">GetInt</text>
</a>
</g>
</g>
<!-- github.com/go&#45;i2p/go&#45;i2p/lib/config.UpdateRouterConfig&#45;&gt;github.com/spf13/viper.GetInt -->
<g id="edge10" class="edge">
<title>github.com/go&#45;i2p/go&#45;i2p/lib/config.UpdateRouterConfig&#45;&gt;github.com/spf13/viper.GetInt</title>
<g id="a_edge10"><a xlink:title="at config.go:71: calling [github.com/spf13/viper.GetInt]">
<path fill="none" stroke="#8b4513" d="M312.7979,-576C347.3833,-576 387.7433,-576 416.9933,-576"/>
<polygon fill="#8b4513" stroke="#8b4513" points="417.2356,-579.5001 427.2356,-576 417.2356,-572.5001 417.2356,-579.5001"/>
</a>
</g>
</g>
<!-- (*github.com/go&#45;i2p/logger.Logger).Warnf -->
<g id="node24" class="node">
<title>(*github.com/go&#45;i2p/logger.Logger).Warnf</title>
<g id="a_node24"><a xlink:title="(*github.com/go&#45;i2p/logger.Logger).Warnf | defined in log.go:36">
<path fill="#ffe4b5" stroke="#000000" stroke-width="1.5" d="M474.9964,-672C474.9964,-672 439.4638,-672 439.4638,-672 433.4638,-672 427.4638,-666 427.4638,-660 427.4638,-660 427.4638,-648 427.4638,-648 427.4638,-642 433.4638,-636 439.4638,-636 439.4638,-636 474.9964,-636 474.9964,-636 480.9964,-636 486.9964,-642 486.9964,-648 486.9964,-648 486.9964,-660 486.9964,-660 486.9964,-666 480.9964,-672 474.9964,-672"/>
<text text-anchor="middle" x="457.2301" y="-658.2" font-family="Verdana" font-size="14.00" fill="#000000">logger</text>
<text text-anchor="middle" x="457.2301" y="-641.4" font-family="Verdana" font-size="14.00" fill="#000000">Warnf</text>
</a>
</g>
</g>
<!-- github.com/go&#45;i2p/go&#45;i2p/lib/config.UpdateRouterConfig&#45;&gt;(*github.com/go&#45;i2p/logger.Logger).Warnf -->
<g id="edge9" class="edge">
<title>github.com/go&#45;i2p/go&#45;i2p/lib/config.UpdateRouterConfig&#45;&gt;(*github.com/go&#45;i2p/logger.Logger).Warnf</title>
<g id="a_edge9"><a xlink:title="at config.go:66: calling [(*github.com/go&#45;i2p/logger.Logger).Warnf]">
<path fill="none" stroke="#8b4513" d="M286.0736,-594.1217C314.357,-605.5213 351.9873,-620.2452 385.7462,-632 395.9683,-635.5593 407.1128,-639.1333 417.4951,-642.335"/>
<polygon fill="#8b4513" stroke="#8b4513" points="416.5748,-645.7134 427.1607,-645.278 418.6138,-639.017 416.5748,-645.7134"/>
</a>
</g>
</g>
<!-- github.com/go&#45;i2p/go&#45;i2p/lib/config.InitConfig -->
<g id="node11" class="node">
<title>github.com/go&#45;i2p/go&#45;i2p/lib/config.InitConfig</title>
<g id="a_node11"><a xlink:title="github.com/go&#45;i2p/go&#45;i2p/lib/config.InitConfig | defined in config.go:19&#10;at config.go:31: calling [github.com/go&#45;i2p/go&#45;i2p/lib/config.setDefaults]&#10;at config.go:34: calling [github.com/go&#45;i2p/go&#45;i2p/lib/config.handleConfigFile]&#10;at config.go:26: calling [github.com/spf13/viper.SetConfigName]&#10;at config.go:22: calling [github.com/spf13/viper.SetConfigFile]&#10;at config.go:25: calling [github.com/go&#45;i2p/go&#45;i2p/lib/config.BuildI2PDirPath]&#10;at config.go:27: calling [github.com/spf13/viper.SetConfigType]&#10;at config.go:37: calling [github.com/go&#45;i2p/go&#45;i2p/lib/config.UpdateRouterConfig]&#10;at config.go:25: calling [github.com/spf13/viper.AddConfigPath]">
<path fill="#add8e6" stroke="#000000" stroke-width="1.5" d="M86.4951,-441C86.4951,-441 27.8345,-441 27.8345,-441 21.8345,-441 15.8345,-435 15.8345,-429 15.8345,-429 15.8345,-417 15.8345,-417 15.8345,-411 21.8345,-405 27.8345,-405 27.8345,-405 86.4951,-405 86.4951,-405 92.4951,-405 98.4951,-411 98.4951,-417 98.4951,-417 98.4951,-429 98.4951,-429 98.4951,-435 92.4951,-441 86.4951,-441"/>
<text text-anchor="middle" x="57.1648" y="-418.8" font-family="Verdana" font-size="14.00" fill="#000000">InitConfig</text>
</a>
</g>
</g>
<!-- github.com/go&#45;i2p/go&#45;i2p/lib/config.InitConfig&#45;&gt;github.com/go&#45;i2p/go&#45;i2p/lib/config.BuildI2PDirPath -->
<g id="edge13" class="edge">
<title>github.com/go&#45;i2p/go&#45;i2p/lib/config.InitConfig&#45;&gt;github.com/go&#45;i2p/go&#45;i2p/lib/config.BuildI2PDirPath</title>
<g id="a_edge13"><a xlink:title="at config.go:25: calling [github.com/go&#45;i2p/go&#45;i2p/lib/config.BuildI2PDirPath]">
<path fill="none" stroke="#000000" d="M61.4091,-404.9816C72.0915,-363.8726 104.1671,-262.9433 171.3296,-214 223.0424,-176.3153 262.2384,-226.285 312.7462,-187 342.5659,-163.8063 324.452,-138.9302 348.7462,-110 366.6827,-88.6407 391.9748,-70.4609 413.6262,-57.2424"/>
<polygon fill="#000000" stroke="#000000" points="415.5298,-60.1827 422.3394,-52.066 411.9545,-54.1646 415.5298,-60.1827"/>
</a>
</g>
</g>
<!-- github.com/go&#45;i2p/go&#45;i2p/lib/config.InitConfig&#45;&gt;github.com/go&#45;i2p/go&#45;i2p/lib/config.setDefaults -->
<g id="edge2" class="edge">
<title>github.com/go&#45;i2p/go&#45;i2p/lib/config.InitConfig&#45;&gt;github.com/go&#45;i2p/go&#45;i2p/lib/config.setDefaults</title>
<g id="a_edge2"><a xlink:title="at config.go:31: calling [github.com/go&#45;i2p/go&#45;i2p/lib/config.setDefaults]">
<path fill="none" stroke="#000000" d="M88.7247,-441.2041C111.4112,-454.0264 142.8884,-471.2829 171.3296,-485 177.0048,-487.7371 182.9938,-490.4858 188.9874,-493.1487"/>
<polygon fill="#000000" stroke="#000000" points="187.8007,-496.4497 198.3654,-497.2483 190.6047,-490.0357 187.8007,-496.4497"/>
</a>
</g>
</g>
<!-- github.com/go&#45;i2p/go&#45;i2p/lib/config.InitConfig&#45;&gt;github.com/go&#45;i2p/go&#45;i2p/lib/config.UpdateRouterConfig -->
<g id="edge25" class="edge">
<title>github.com/go&#45;i2p/go&#45;i2p/lib/config.InitConfig&#45;&gt;github.com/go&#45;i2p/go&#45;i2p/lib/config.UpdateRouterConfig</title>
<g id="a_edge25"><a xlink:title="at config.go:37: calling [github.com/go&#45;i2p/go&#45;i2p/lib/config.UpdateRouterConfig]">
<path fill="none" stroke="#000000" d="M70.0264,-441.1196C89.4009,-467.3031 128.4035,-515.8736 171.3296,-546 174.9896,-548.5686 178.9038,-550.9791 182.943,-553.2287"/>
<polygon fill="#000000" stroke="#000000" points="181.4466,-556.3953 191.9347,-557.8955 184.6713,-550.1823 181.4466,-556.3953"/>
</a>
</g>
</g>
<!-- github.com/spf13/viper.SetConfigFile -->
<g id="node12" class="node">
<title>github.com/spf13/viper.SetConfigFile</title>
<g id="a_node12"><a xlink:title="github.com/spf13/viper.SetConfigFile | defined in viper.go:509">
<path fill="#ffe4b5" stroke="#000000" stroke-width="1.5" d="M281.0929,-655C281.0929,-655 202.9829,-655 202.9829,-655 196.9829,-655 190.9829,-649 190.9829,-643 190.9829,-643 190.9829,-631 190.9829,-631 190.9829,-625 196.9829,-619 202.9829,-619 202.9829,-619 281.0929,-619 281.0929,-619 287.0929,-619 293.0929,-625 293.0929,-631 293.0929,-631 293.0929,-643 293.0929,-643 293.0929,-649 287.0929,-655 281.0929,-655"/>
<text text-anchor="middle" x="242.0379" y="-641.2" font-family="Verdana" font-size="14.00" fill="#000000">viper</text>
<text text-anchor="middle" x="242.0379" y="-624.4" font-family="Verdana" font-size="14.00" fill="#000000">SetConfigFile</text>
</a>
</g>
</g>
<!-- github.com/go&#45;i2p/go&#45;i2p/lib/config.InitConfig&#45;&gt;github.com/spf13/viper.SetConfigFile -->
<g id="edge11" class="edge">
<title>github.com/go&#45;i2p/go&#45;i2p/lib/config.InitConfig&#45;&gt;github.com/spf13/viper.SetConfigFile</title>
<g id="a_edge11"><a xlink:title="at config.go:22: calling [github.com/spf13/viper.SetConfigFile]">
<path fill="none" stroke="#8b4513" d="M64.039,-441.2389C78.5582,-477.5114 115.6576,-559.3065 171.3296,-607 174.5765,-609.7816 178.1193,-612.3371 181.8329,-614.6793"/>
<polygon fill="#8b4513" stroke="#8b4513" points="180.3283,-617.8504 190.7489,-619.7639 183.796,-611.7697 180.3283,-617.8504"/>
</a>
</g>
</g>
<!-- github.com/go&#45;i2p/go&#45;i2p/lib/config.handleConfigFile -->
<g id="node13" class="node">
<title>github.com/go&#45;i2p/go&#45;i2p/lib/config.handleConfigFile</title>
<g id="a_node13"><a xlink:title="github.com/go&#45;i2p/go&#45;i2p/lib/config.handleConfigFile | defined in config.go:91&#10;at config.go:97: calling [github.com/go&#45;i2p/go&#45;i2p/lib/config.createDefaultConfig]&#10;at config.go:92: calling [github.com/spf13/viper.ReadInConfig]&#10;at config.go:103: calling [github.com/spf13/viper.ConfigFileUsed]&#10;at config.go:100: calling [(*github.com/sirupsen/logrus.Logger).Fatalf]&#10;at config.go:95: calling [(*github.com/sirupsen/logrus.Logger).Fatalf]&#10;at config.go:103: calling [(*github.com/sirupsen/logrus.Logger).Debugf]&#10;at config.go:97: calling [github.com/go&#45;i2p/go&#45;i2p/lib/config.BuildI2PDirPath]">
<path fill="#add8e6" stroke="#000000" stroke-width=".5" d="M291.0239,-262C291.0239,-262 193.0519,-262 193.0519,-262 187.0519,-262 181.0519,-256 181.0519,-250 181.0519,-250 181.0519,-238 181.0519,-238 181.0519,-232 187.0519,-226 193.0519,-226 193.0519,-226 291.0239,-226 291.0239,-226 297.0239,-226 303.0239,-232 303.0239,-238 303.0239,-238 303.0239,-250 303.0239,-250 303.0239,-256 297.0239,-262 291.0239,-262"/>
<text text-anchor="middle" x="242.0379" y="-239.8" font-family="Verdana" font-size="14.00" fill="#000000">handleConfigFile</text>
</a>
</g>
</g>
<!-- github.com/go&#45;i2p/go&#45;i2p/lib/config.InitConfig&#45;&gt;github.com/go&#45;i2p/go&#45;i2p/lib/config.handleConfigFile -->
<g id="edge3" class="edge">
<title>github.com/go&#45;i2p/go&#45;i2p/lib/config.InitConfig&#45;&gt;github.com/go&#45;i2p/go&#45;i2p/lib/config.handleConfigFile</title>
<g id="a_edge3"><a xlink:title="at config.go:34: calling [github.com/go&#45;i2p/go&#45;i2p/lib/config.handleConfigFile]">
<path fill="none" stroke="#000000" d="M73.1208,-404.6798C94.5937,-380.3616 134.373,-336.4782 171.3296,-302 183.71,-290.4499 198.0457,-278.458 210.5593,-268.3966"/>
<polygon fill="#000000" stroke="#000000" points="212.8389,-271.0555 218.4805,-262.0877 208.4778,-265.58 212.8389,-271.0555"/>
</a>
</g>
</g>
<!-- github.com/spf13/viper.AddConfigPath -->
<g id="node18" class="node">
<title>github.com/spf13/viper.AddConfigPath</title>
<g id="a_node18"><a xlink:title="github.com/spf13/viper.AddConfigPath | defined in viper.go:574">
<path fill="#ffe4b5" stroke="#000000" stroke-width="1.5" d="M285.9202,-350C285.9202,-350 198.1556,-350 198.1556,-350 192.1556,-350 186.1556,-344 186.1556,-338 186.1556,-338 186.1556,-326 186.1556,-326 186.1556,-320 192.1556,-314 198.1556,-314 198.1556,-314 285.9202,-314 285.9202,-314 291.9202,-314 297.9202,-320 297.9202,-326 297.9202,-326 297.9202,-338 297.9202,-338 297.9202,-344 291.9202,-350 285.9202,-350"/>
<text text-anchor="middle" x="242.0379" y="-336.2" font-family="Verdana" font-size="14.00" fill="#000000">viper</text>
<text text-anchor="middle" x="242.0379" y="-319.4" font-family="Verdana" font-size="14.00" fill="#000000">AddConfigPath</text>
</a>
</g>
</g>
<!-- github.com/go&#45;i2p/go&#45;i2p/lib/config.InitConfig&#45;&gt;github.com/spf13/viper.AddConfigPath -->
<g id="edge26" class="edge">
<title>github.com/go&#45;i2p/go&#45;i2p/lib/config.InitConfig&#45;&gt;github.com/spf13/viper.AddConfigPath</title>
<g id="a_edge26"><a xlink:title="at config.go:25: calling [github.com/spf13/viper.AddConfigPath]">
<path fill="none" stroke="#8b4513" d="M90.3186,-404.7819C112.936,-392.5505 143.6884,-376.3022 171.3296,-363 177.4157,-360.0711 183.8455,-357.0941 190.2478,-354.2015"/>
<polygon fill="#8b4513" stroke="#8b4513" points="191.8623,-357.3136 199.5651,-350.0392 189.0071,-350.9224 191.8623,-357.3136"/>
</a>
</g>
</g>
<!-- github.com/spf13/viper.SetConfigName -->
<g id="node19" class="node">
<title>github.com/spf13/viper.SetConfigName</title>
<g id="a_node19"><a xlink:title="github.com/spf13/viper.SetConfigName | defined in viper.go:2174">
<path fill="#ffe4b5" stroke="#000000" stroke-width="1.5" d="M287.2401,-411C287.2401,-411 196.8357,-411 196.8357,-411 190.8357,-411 184.8357,-405 184.8357,-399 184.8357,-399 184.8357,-387 184.8357,-387 184.8357,-381 190.8357,-375 196.8357,-375 196.8357,-375 287.2401,-375 287.2401,-375 293.2401,-375 299.2401,-381 299.2401,-387 299.2401,-387 299.2401,-399 299.2401,-399 299.2401,-405 293.2401,-411 287.2401,-411"/>
<text text-anchor="middle" x="242.0379" y="-397.2" font-family="Verdana" font-size="14.00" fill="#000000">viper</text>
<text text-anchor="middle" x="242.0379" y="-380.4" font-family="Verdana" font-size="14.00" fill="#000000">SetConfigName</text>
</a>
</g>
</g>
<!-- github.com/go&#45;i2p/go&#45;i2p/lib/config.InitConfig&#45;&gt;github.com/spf13/viper.SetConfigName -->
<g id="edge4" class="edge">
<title>github.com/go&#45;i2p/go&#45;i2p/lib/config.InitConfig&#45;&gt;github.com/spf13/viper.SetConfigName</title>
<g id="a_edge4"><a xlink:title="at config.go:26: calling [github.com/spf13/viper.SetConfigName]">
<path fill="none" stroke="#8b4513" d="M98.6539,-416.2674C121.1158,-412.6224 149.4146,-408.0303 174.925,-403.8906"/>
<polygon fill="#8b4513" stroke="#8b4513" points="175.6062,-407.326 184.9165,-402.2693 174.4849,-400.4163 175.6062,-407.326"/>
</a>
</g>
</g>
<!-- github.com/spf13/viper.SetConfigType -->
<g id="node20" class="node">
<title>github.com/spf13/viper.SetConfigType</title>
<g id="a_node20"><a xlink:title="github.com/spf13/viper.SetConfigType | defined in viper.go:2185">
<path fill="#ffe4b5" stroke="#000000" stroke-width="1.5" d="M284.5817,-472C284.5817,-472 199.4941,-472 199.4941,-472 193.4941,-472 187.4941,-466 187.4941,-460 187.4941,-460 187.4941,-448 187.4941,-448 187.4941,-442 193.4941,-436 199.4941,-436 199.4941,-436 284.5817,-436 284.5817,-436 290.5817,-436 296.5817,-442 296.5817,-448 296.5817,-448 296.5817,-460 296.5817,-460 296.5817,-466 290.5817,-472 284.5817,-472"/>
<text text-anchor="middle" x="242.0379" y="-458.2" font-family="Verdana" font-size="14.00" fill="#000000">viper</text>
<text text-anchor="middle" x="242.0379" y="-441.4" font-family="Verdana" font-size="14.00" fill="#000000">SetConfigType</text>
</a>
</g>
</g>
<!-- github.com/go&#45;i2p/go&#45;i2p/lib/config.InitConfig&#45;&gt;github.com/spf13/viper.SetConfigType -->
<g id="edge14" class="edge">
<title>github.com/go&#45;i2p/go&#45;i2p/lib/config.InitConfig&#45;&gt;github.com/spf13/viper.SetConfigType</title>
<g id="a_edge14"><a xlink:title="at config.go:27: calling [github.com/spf13/viper.SetConfigType]">
<path fill="none" stroke="#8b4513" d="M98.6539,-429.957C121.7737,-433.8338 151.0773,-438.7475 177.1591,-443.121"/>
<polygon fill="#8b4513" stroke="#8b4513" points="176.9123,-446.6284 187.3534,-444.8304 178.0699,-439.7247 176.9123,-446.6284"/>
</a>
</g>
</g>
<!-- github.com/go&#45;i2p/go&#45;i2p/lib/config.handleConfigFile&#45;&gt;github.com/go&#45;i2p/go&#45;i2p/lib/config.BuildI2PDirPath -->
<g id="edge29" class="edge">
<title>github.com/go&#45;i2p/go&#45;i2p/lib/config.handleConfigFile&#45;&gt;github.com/go&#45;i2p/go&#45;i2p/lib/config.BuildI2PDirPath</title>
<g id="a_edge29"><a xlink:title="at config.go:97: calling [github.com/go&#45;i2p/go&#45;i2p/lib/config.BuildI2PDirPath]">
<path fill="none" stroke="#000000" d="M288.3615,-225.796C297.2835,-220.7205 305.9523,-214.4925 312.7462,-207 341.4081,-175.3909 327.3363,-154.9088 348.7462,-118 362.0857,-95.0039 365.2554,-87.9379 385.7462,-71 391.8805,-65.9293 398.8235,-61.2835 405.9116,-57.1245"/>
<polygon fill="#000000" stroke="#000000" points="407.8756,-60.0373 414.9176,-52.1214 404.4762,-53.9181 407.8756,-60.0373"/>
</a>
</g>
</g>
<!-- github.com/spf13/viper.ReadInConfig -->
<g id="node14" class="node">
<title>github.com/spf13/viper.ReadInConfig</title>
<g id="a_node14"><a xlink:title="github.com/spf13/viper.ReadInConfig | defined in viper.go:1632">
<path fill="#ffe4b5" stroke="#000000" stroke-width="1.5" d="M497.0448,-228C497.0448,-228 417.4154,-228 417.4154,-228 411.4154,-228 405.4154,-222 405.4154,-216 405.4154,-216 405.4154,-204 405.4154,-204 405.4154,-198 411.4154,-192 417.4154,-192 417.4154,-192 497.0448,-192 497.0448,-192 503.0448,-192 509.0448,-198 509.0448,-204 509.0448,-204 509.0448,-216 509.0448,-216 509.0448,-222 503.0448,-228 497.0448,-228"/>
<text text-anchor="middle" x="457.2301" y="-214.2" font-family="Verdana" font-size="14.00" fill="#000000">viper</text>
<text text-anchor="middle" x="457.2301" y="-197.4" font-family="Verdana" font-size="14.00" fill="#000000">ReadInConfig</text>
</a>
</g>
</g>
<!-- github.com/go&#45;i2p/go&#45;i2p/lib/config.handleConfigFile&#45;&gt;github.com/spf13/viper.ReadInConfig -->
<g id="edge22" class="edge">
<title>github.com/go&#45;i2p/go&#45;i2p/lib/config.handleConfigFile&#45;&gt;github.com/spf13/viper.ReadInConfig</title>
<g id="a_edge22"><a xlink:title="at config.go:92: calling [github.com/spf13/viper.ReadInConfig]">
<path fill="none" stroke="#8b4513" d="M303.1277,-234.3479C332.0275,-229.7818 366.4701,-224.3399 395.4565,-219.7601"/>
<polygon fill="#8b4513" stroke="#8b4513" points="396.1325,-223.1968 405.4637,-218.179 395.04,-216.2826 396.1325,-223.1968"/>
</a>
</g>
</g>
<!-- github.com/spf13/viper.ConfigFileUsed -->
<g id="node15" class="node">
<title>github.com/spf13/viper.ConfigFileUsed</title>
<g id="a_node15"><a xlink:title="github.com/spf13/viper.ConfigFileUsed | defined in viper.go:569">
<path fill="#ffe4b5" stroke="#000000" stroke-width="1.5" d="M502.1629,-289C502.1629,-289 412.2973,-289 412.2973,-289 406.2973,-289 400.2973,-283 400.2973,-277 400.2973,-277 400.2973,-265 400.2973,-265 400.2973,-259 406.2973,-253 412.2973,-253 412.2973,-253 502.1629,-253 502.1629,-253 508.1629,-253 514.1629,-259 514.1629,-265 514.1629,-265 514.1629,-277 514.1629,-277 514.1629,-283 508.1629,-289 502.1629,-289"/>
<text text-anchor="middle" x="457.2301" y="-275.2" font-family="Verdana" font-size="14.00" fill="#000000">viper</text>
<text text-anchor="middle" x="457.2301" y="-258.4" font-family="Verdana" font-size="14.00" fill="#000000">ConfigFileUsed</text>
</a>
</g>
</g>
<!-- github.com/go&#45;i2p/go&#45;i2p/lib/config.handleConfigFile&#45;&gt;github.com/spf13/viper.ConfigFileUsed -->
<g id="edge23" class="edge">
<title>github.com/go&#45;i2p/go&#45;i2p/lib/config.handleConfigFile&#45;&gt;github.com/spf13/viper.ConfigFileUsed</title>
<g id="a_edge23"><a xlink:title="at config.go:103: calling [github.com/spf13/viper.ConfigFileUsed]">
<path fill="none" stroke="#8b4513" d="M303.1277,-251.6649C330.352,-255.0807 362.4949,-259.1137 390.3619,-262.6101"/>
<polygon fill="#8b4513" stroke="#8b4513" points="390.0602,-266.0996 400.4182,-263.8719 390.9318,-259.1541 390.0602,-266.0996"/>
</a>
</g>
</g>
<!-- github.com/go&#45;i2p/go&#45;i2p/lib/config.createDefaultConfig -->
<g id="node16" class="node">
<title>github.com/go&#45;i2p/go&#45;i2p/lib/config.createDefaultConfig</title>
<g id="a_node16"><a xlink:title="github.com/go&#45;i2p/go&#45;i2p/lib/config.createDefaultConfig | defined in config.go:76&#10;at config.go:88: calling [(*github.com/sirupsen/logrus.Logger).Debugf]&#10;at config.go:80: calling [(*github.com/sirupsen/logrus.Logger).Fatalf]&#10;at config.go:85: calling [(*github.com/sirupsen/logrus.Logger).Fatalf]&#10;at config.go:84: calling [github.com/spf13/viper.WriteConfig]">
<path fill="#add8e6" stroke="#000000" stroke-width=".5" d="M514.5054,-167C514.5054,-167 399.9548,-167 399.9548,-167 393.9548,-167 387.9548,-161 387.9548,-155 387.9548,-155 387.9548,-143 387.9548,-143 387.9548,-137 393.9548,-131 399.9548,-131 399.9548,-131 514.5054,-131 514.5054,-131 520.5054,-131 526.5054,-137 526.5054,-143 526.5054,-143 526.5054,-155 526.5054,-155 526.5054,-161 520.5054,-167 514.5054,-167"/>
<text text-anchor="middle" x="457.2301" y="-144.8" font-family="Verdana" font-size="14.00" fill="#000000">createDefaultConfig</text>
</a>
</g>
</g>
<!-- github.com/go&#45;i2p/go&#45;i2p/lib/config.handleConfigFile&#45;&gt;github.com/go&#45;i2p/go&#45;i2p/lib/config.createDefaultConfig -->
<g id="edge20" class="edge">
<title>github.com/go&#45;i2p/go&#45;i2p/lib/config.handleConfigFile&#45;&gt;github.com/go&#45;i2p/go&#45;i2p/lib/config.createDefaultConfig</title>
<g id="a_edge20"><a xlink:title="at config.go:97: calling [github.com/go&#45;i2p/go&#45;i2p/lib/config.createDefaultConfig]">
<path fill="none" stroke="#000000" d="M282.2553,-225.9631C311.0439,-213.0827 350.7414,-195.3844 385.7462,-180 392.3019,-177.1188 399.2031,-174.1036 406.0265,-171.133"/>
<polygon fill="#000000" stroke="#000000" points="407.4675,-174.3231 415.2432,-167.1267 404.6769,-167.9034 407.4675,-174.3231"/>
</a>
</g>
</g>
<!-- (*github.com/sirupsen/logrus.Logger).Debugf -->
<g id="node25" class="node">
<title>(*github.com/sirupsen/logrus.Logger).Debugf</title>
<g id="a_node25"><a xlink:title="(*github.com/sirupsen/logrus.Logger).Debugf | defined in logger.go:163">
<path fill="#ffe4b5" stroke="#000000" stroke-width="1.5" d="M670.0752,-191C670.0752,-191 628.1116,-191 628.1116,-191 622.1116,-191 616.1116,-185 616.1116,-179 616.1116,-179 616.1116,-167 616.1116,-167 616.1116,-161 622.1116,-155 628.1116,-155 628.1116,-155 670.0752,-155 670.0752,-155 676.0752,-155 682.0752,-161 682.0752,-167 682.0752,-167 682.0752,-179 682.0752,-179 682.0752,-185 676.0752,-191 670.0752,-191"/>
<text text-anchor="middle" x="649.0934" y="-177.2" font-family="Verdana" font-size="14.00" fill="#000000">logrus</text>
<text text-anchor="middle" x="649.0934" y="-160.4" font-family="Verdana" font-size="14.00" fill="#000000">Debugf</text>
</a>
</g>
</g>
<!-- github.com/go&#45;i2p/go&#45;i2p/lib/config.handleConfigFile&#45;&gt;(*github.com/sirupsen/logrus.Logger).Debugf -->
<g id="edge27" class="edge">
<title>github.com/go&#45;i2p/go&#45;i2p/lib/config.handleConfigFile&#45;&gt;(*github.com/sirupsen/logrus.Logger).Debugf</title>
<g id="a_edge27"><a xlink:title="at config.go:103: calling [(*github.com/sirupsen/logrus.Logger).Debugf]">
<path fill="none" stroke="#8b4513" d="M286.0987,-225.8469C295.5707,-220.6621 305.0386,-214.3759 312.7462,-207 335.7673,-184.9696 327.2099,-168.484 348.7462,-145 362.3305,-130.1872 366.583,-125.0598 385.7462,-119 446.3306,-99.8421 466.5798,-105.7022 528.714,-119 557.062,-125.067 586.803,-138.3336 609.631,-150.1982"/>
<polygon fill="#8b4513" stroke="#8b4513" points="608.1793,-153.3904 618.6512,-154.9999 611.4686,-147.2113 608.1793,-153.3904"/>
</a>
</g>
</g>
<!-- (*github.com/sirupsen/logrus.Logger).Fatalf -->
<g id="node26" class="node">
<title>(*github.com/sirupsen/logrus.Logger).Fatalf</title>
<g id="a_node26"><a xlink:title="(*github.com/sirupsen/logrus.Logger).Fatalf | defined in logger.go:189">
<path fill="#ffe4b5" stroke="#000000" stroke-width="1.5" d="M666.5892,-130C666.5892,-130 631.5976,-130 631.5976,-130 625.5976,-130 619.5976,-124 619.5976,-118 619.5976,-118 619.5976,-106 619.5976,-106 619.5976,-100 625.5976,-94 631.5976,-94 631.5976,-94 666.5892,-94 666.5892,-94 672.5892,-94 678.5892,-100 678.5892,-106 678.5892,-106 678.5892,-118 678.5892,-118 678.5892,-124 672.5892,-130 666.5892,-130"/>
<text text-anchor="middle" x="649.0934" y="-116.2" font-family="Verdana" font-size="14.00" fill="#000000">logrus</text>
<text text-anchor="middle" x="649.0934" y="-99.4" font-family="Verdana" font-size="14.00" fill="#000000">Fatalf</text>
</a>
</g>
</g>
<!-- github.com/go&#45;i2p/go&#45;i2p/lib/config.handleConfigFile&#45;&gt;(*github.com/sirupsen/logrus.Logger).Fatalf -->
<g id="edge24" class="edge">
<title>github.com/go&#45;i2p/go&#45;i2p/lib/config.handleConfigFile&#45;&gt;(*github.com/sirupsen/logrus.Logger).Fatalf</title>
<g id="a_edge24"><a xlink:title="at config.go:100: calling [(*github.com/sirupsen/logrus.Logger).Fatalf]&#10;at config.go:95: calling [(*github.com/sirupsen/logrus.Logger).Fatalf]">
<path fill="none" stroke="#8b4513" d="M283.3884,-225.8597C293.4847,-220.5095 303.9136,-214.1454 312.7462,-207 352.2535,-175.0392 340.0426,-141.2149 385.7462,-119 458.2456,-83.7607 555.7433,-93.7263 609.4531,-103.3551"/>
<polygon fill="#8b4513" stroke="#8b4513" points="609.116,-106.8531 619.5908,-105.2629 610.4106,-99.9738 609.116,-106.8531"/>
</a>
</g>
</g>
<!-- github.com/spf13/viper.WriteConfig -->
<g id="node17" class="node">
<title>github.com/spf13/viper.WriteConfig</title>
<g id="a_node17"><a xlink:title="github.com/spf13/viper.WriteConfig | defined in viper.go:1718">
<path fill="#ffe4b5" stroke="#000000" stroke-width="1.5" d="M684.3525,-252C684.3525,-252 613.8343,-252 613.8343,-252 607.8343,-252 601.8343,-246 601.8343,-240 601.8343,-240 601.8343,-228 601.8343,-228 601.8343,-222 607.8343,-216 613.8343,-216 613.8343,-216 684.3525,-216 684.3525,-216 690.3525,-216 696.3525,-222 696.3525,-228 696.3525,-228 696.3525,-240 696.3525,-240 696.3525,-246 690.3525,-252 684.3525,-252"/>
<text text-anchor="middle" x="649.0934" y="-238.2" font-family="Verdana" font-size="14.00" fill="#000000">viper</text>
<text text-anchor="middle" x="649.0934" y="-221.4" font-family="Verdana" font-size="14.00" fill="#000000">WriteConfig</text>
</a>
</g>
</g>
<!-- github.com/go&#45;i2p/go&#45;i2p/lib/config.createDefaultConfig&#45;&gt;github.com/spf13/viper.WriteConfig -->
<g id="edge19" class="edge">
<title>github.com/go&#45;i2p/go&#45;i2p/lib/config.createDefaultConfig&#45;&gt;github.com/spf13/viper.WriteConfig</title>
<g id="a_edge19"><a xlink:title="at config.go:84: calling [github.com/spf13/viper.WriteConfig]">
<path fill="none" stroke="#8b4513" d="M499.2253,-167.1078C508.9199,-171.3169 519.1841,-175.7963 528.714,-180 552.1727,-190.3477 578.1317,-201.9704 599.9195,-211.7748"/>
<polygon fill="#8b4513" stroke="#8b4513" points="598.7413,-215.0827 609.2965,-215.998 601.6159,-208.7001 598.7413,-215.0827"/>
</a>
</g>
</g>
<!-- github.com/go&#45;i2p/go&#45;i2p/lib/config.createDefaultConfig&#45;&gt;(*github.com/sirupsen/logrus.Logger).Debugf -->
<g id="edge12" class="edge">
<title>github.com/go&#45;i2p/go&#45;i2p/lib/config.createDefaultConfig&#45;&gt;(*github.com/sirupsen/logrus.Logger).Debugf</title>
<g id="a_edge12"><a xlink:title="at config.go:88: calling [(*github.com/sirupsen/logrus.Logger).Debugf]">
<path fill="none" stroke="#8b4513" d="M526.4972,-157.6646C553.0515,-160.9862 582.5668,-164.6782 605.9821,-167.6072"/>
<polygon fill="#8b4513" stroke="#8b4513" points="605.59,-171.0854 615.9471,-168.8538 606.4589,-164.1395 605.59,-171.0854"/>
</a>
</g>
</g>
<!-- github.com/go&#45;i2p/go&#45;i2p/lib/config.createDefaultConfig&#45;&gt;(*github.com/sirupsen/logrus.Logger).Fatalf -->
<g id="edge16" class="edge">
<title>github.com/go&#45;i2p/go&#45;i2p/lib/config.createDefaultConfig&#45;&gt;(*github.com/sirupsen/logrus.Logger).Fatalf</title>
<g id="a_edge16"><a xlink:title="at config.go:80: calling [(*github.com/sirupsen/logrus.Logger).Fatalf]&#10;at config.go:85: calling [(*github.com/sirupsen/logrus.Logger).Fatalf]">
<path fill="none" stroke="#8b4513" d="M526.4972,-135.6422C554.3605,-130.2688 585.4839,-124.2668 609.3993,-119.6548"/>
<polygon fill="#8b4513" stroke="#8b4513" points="610.3527,-123.0355 619.509,-117.7052 609.0272,-116.1622 610.3527,-123.0355"/>
</a>
</g>
</g>
<!-- github.com/go&#45;i2p/go&#45;i2p/lib/config.defaultConfig -->
<g id="node21" class="node">
<title>github.com/go&#45;i2p/go&#45;i2p/lib/config.defaultConfig</title>
<g id="a_node21"><a xlink:title="github.com/go&#45;i2p/go&#45;i2p/lib/config.defaultConfig | defined in router.go:23&#10;at router.go:24: calling [github.com/go&#45;i2p/go&#45;i2p/lib/config.BuildI2PDirPath]">
<path fill="#add8e6" stroke="#000000" stroke-width=".5" d="M280.797,-52C280.797,-52 203.2788,-52 203.2788,-52 197.2788,-52 191.2788,-46 191.2788,-40 191.2788,-40 191.2788,-28 191.2788,-28 191.2788,-22 197.2788,-16 203.2788,-16 203.2788,-16 280.797,-16 280.797,-16 286.797,-16 292.797,-22 292.797,-28 292.797,-28 292.797,-40 292.797,-40 292.797,-46 286.797,-52 280.797,-52"/>
<text text-anchor="middle" x="242.0379" y="-29.8" font-family="Verdana" font-size="14.00" fill="#000000">defaultConfig</text>
</a>
</g>
</g>
<!-- github.com/go&#45;i2p/go&#45;i2p/lib/config.defaultConfig&#45;&gt;github.com/go&#45;i2p/go&#45;i2p/lib/config.BuildI2PDirPath -->
<g id="edge17" class="edge">
<title>github.com/go&#45;i2p/go&#45;i2p/lib/config.defaultConfig&#45;&gt;github.com/go&#45;i2p/go&#45;i2p/lib/config.BuildI2PDirPath</title>
<g id="a_edge17"><a xlink:title="at router.go:24: calling [github.com/go&#45;i2p/go&#45;i2p/lib/config.BuildI2PDirPath]">
<path fill="none" stroke="#000000" d="M293.0354,-34C321.2866,-34 356.8153,-34 387.5917,-34"/>
<polygon fill="#000000" stroke="#000000" points="387.8293,-37.5001 397.8293,-34 387.8292,-30.5001 387.8293,-37.5001"/>
</a>
</g>
</g>
<!-- github.com/go&#45;i2p/go&#45;i2p/lib/config.init -->
<g id="node22" class="node">
<title>github.com/go&#45;i2p/go&#45;i2p/lib/config.init</title>
<g id="a_node22"><a xlink:title="github.com/go&#45;i2p/go&#45;i2p/lib/config.init | defined in .:0&#10;at router.go:31: calling [github.com/go&#45;i2p/go&#45;i2p/lib/config.defaultBase]&#10;at router.go:39: calling [github.com/go&#45;i2p/go&#45;i2p/lib/config.DefaultRouterConfig]&#10;at config.go:14: calling [github.com/go&#45;i2p/logger.GetGoI2PLogger]&#10;at netdb.go:15: calling [github.com/go&#45;i2p/go&#45;i2p/lib/config.defaultConfig]&#10;at router.go:32: calling [github.com/go&#45;i2p/go&#45;i2p/lib/config.defaultConfig]">
<path fill="#add8e6" stroke="#000000" stroke-width=".5" d="M72.1648,-139C72.1648,-139 42.1648,-139 42.1648,-139 36.1648,-139 30.1648,-133 30.1648,-127 30.1648,-127 30.1648,-115 30.1648,-115 30.1648,-109 36.1648,-103 42.1648,-103 42.1648,-103 72.1648,-103 72.1648,-103 78.1648,-103 84.1648,-109 84.1648,-115 84.1648,-115 84.1648,-127 84.1648,-127 84.1648,-133 78.1648,-139 72.1648,-139"/>
<text text-anchor="middle" x="57.1648" y="-116.8" font-family="Verdana" font-size="14.00" fill="#000000">init</text>
</a>
</g>
</g>
<!-- github.com/go&#45;i2p/go&#45;i2p/lib/config.init&#45;&gt;github.com/go&#45;i2p/go&#45;i2p/lib/config.defaultBase -->
<g id="edge5" class="edge">
<title>github.com/go&#45;i2p/go&#45;i2p/lib/config.init&#45;&gt;github.com/go&#45;i2p/go&#45;i2p/lib/config.defaultBase</title>
<g id="a_edge5"><a xlink:title="at router.go:31: calling [github.com/go&#45;i2p/go&#45;i2p/lib/config.defaultBase]">
<path fill="none" stroke="#000000" d="M84.4435,-117.1636C111.2046,-113.4 152.7903,-107.5515 186.5246,-102.8072"/>
<polygon fill="#000000" stroke="#000000" points="187.3016,-106.2325 196.7167,-101.3738 186.3267,-99.3007 187.3016,-106.2325"/>
</a>
</g>
</g>
<!-- github.com/go&#45;i2p/go&#45;i2p/lib/config.init&#45;&gt;github.com/go&#45;i2p/go&#45;i2p/lib/config.DefaultRouterConfig -->
<g id="edge6" class="edge">
<title>github.com/go&#45;i2p/go&#45;i2p/lib/config.init&#45;&gt;github.com/go&#45;i2p/go&#45;i2p/lib/config.DefaultRouterConfig</title>
<g id="a_edge6"><a xlink:title="at router.go:39: calling [github.com/go&#45;i2p/go&#45;i2p/lib/config.DefaultRouterConfig]">
<path fill="none" stroke="#000000" d="M65.0959,-139.2043C80.4423,-172.1072 117.4972,-241.1927 171.3296,-275 225.5171,-309.0303 249.9928,-289.4953 312.7462,-302 333.1505,-306.0659 355.1492,-310.5712 375.6774,-314.8279"/>
<polygon fill="#000000" stroke="#000000" points="375.1203,-318.2869 385.6233,-316.8946 376.5445,-311.4333 375.1203,-318.2869"/>
</a>
</g>
</g>
<!-- github.com/go&#45;i2p/go&#45;i2p/lib/config.init&#45;&gt;github.com/go&#45;i2p/go&#45;i2p/lib/config.defaultConfig -->
<g id="edge21" class="edge">
<title>github.com/go&#45;i2p/go&#45;i2p/lib/config.init&#45;&gt;github.com/go&#45;i2p/go&#45;i2p/lib/config.defaultConfig</title>
<g id="a_edge21"><a xlink:title="at netdb.go:15: calling [github.com/go&#45;i2p/go&#45;i2p/lib/config.defaultConfig]&#10;at router.go:32: calling [github.com/go&#45;i2p/go&#45;i2p/lib/config.defaultConfig]">
<path fill="none" stroke="#000000" d="M84.2267,-107.3192C107.2606,-95.7727 141.2936,-78.943 171.3296,-65 177.5376,-62.1182 184.0822,-59.1527 190.5822,-56.2515"/>
<polygon fill="#000000" stroke="#000000" points="192.3052,-59.3162 200.0291,-52.0641 189.4686,-52.9167 192.3052,-59.3162"/>
</a>
</g>
</g>
<!-- github.com/go&#45;i2p/logger.GetGoI2PLogger -->
<g id="node23" class="node">
<title>github.com/go&#45;i2p/logger.GetGoI2PLogger</title>
<g id="a_node23"><a xlink:title="github.com/go&#45;i2p/logger.GetGoI2PLogger | defined in log.go:120">
<path fill="#ffe4b5" stroke="#000000" stroke-width="1.5" d="M290.7274,-174C290.7274,-174 193.3484,-174 193.3484,-174 187.3484,-174 181.3484,-168 181.3484,-162 181.3484,-162 181.3484,-150 181.3484,-150 181.3484,-144 187.3484,-138 193.3484,-138 193.3484,-138 290.7274,-138 290.7274,-138 296.7274,-138 302.7274,-144 302.7274,-150 302.7274,-150 302.7274,-162 302.7274,-162 302.7274,-168 296.7274,-174 290.7274,-174"/>
<text text-anchor="middle" x="242.0379" y="-160.2" font-family="Verdana" font-size="14.00" fill="#000000">logger</text>
<text text-anchor="middle" x="242.0379" y="-143.4" font-family="Verdana" font-size="14.00" fill="#000000">GetGoI2PLogger</text>
</a>
</g>
</g>
<!-- github.com/go&#45;i2p/go&#45;i2p/lib/config.init&#45;&gt;github.com/go&#45;i2p/logger.GetGoI2PLogger -->
<g id="edge18" class="edge">
<title>github.com/go&#45;i2p/go&#45;i2p/lib/config.init&#45;&gt;github.com/go&#45;i2p/logger.GetGoI2PLogger</title>
<g id="a_edge18"><a xlink:title="at config.go:14: calling [github.com/go&#45;i2p/logger.GetGoI2PLogger]">
<path fill="none" stroke="#8b4513" d="M84.4435,-126.1644C107.2741,-130.4866 140.8943,-136.8516 171.2242,-142.5936"/>
<polygon fill="#8b4513" stroke="#8b4513" points="170.887,-146.0919 181.3635,-144.5132 172.1891,-139.214 170.887,-146.0919"/>
</a>
</g>
</g>
</g>
</svg>
