<?xml version="1.0" encoding="UTF-8" standalone="no"?>
<!DOCTYPE svg PUBLIC "-//W3C//DTD SVG 1.1//EN"
 "http://www.w3.org/Graphics/SVG/1.1/DTD/svg11.dtd">
<!-- Generated by graphviz version 2.40.1 (20161225.0304)
 -->
<!-- Title: gocallvis Pages: 1 -->
<svg width="673pt" height="848pt"
 viewBox="0.00 0.00 672.82 848.00" xmlns="http://www.w3.org/2000/svg" xmlns:xlink="http://www.w3.org/1999/xlink">
<g id="graph0" class="graph" transform="scale(1 1) rotate(0) translate(0 848)">
<title>gocallvis</title>
<polygon fill="#d3d3d3" stroke="transparent" points="0,0 0,-848 672.8192,-848 672.8192,0 0,0"/>
<g id="clust1" class="cluster">
<title>cluster_focus</title>
<polygon fill="#e6ecfa" stroke="#000000" stroke-width=".5" points="8,-8 8,-840 664.8192,-840 664.8192,-8 8,-8"/>
<text text-anchor="middle" x="336.4096" y="-819.8" font-family="Arial" font-size="18.00" fill="#000000">config</text>
</g>
<g id="clust3" class="cluster">
<title>cluster_*github.com/sirupsen/logrus.Logger</title>
<g id="a_clust3"><a xlink:title="type: *github.com/sirupsen/logrus.Logger">
<path fill="#eed8ae" stroke="#000000" stroke-width=".5" d="M213.047,-663C213.047,-663 271.0288,-663 271.0288,-663 277.0288,-663 283.0288,-669 283.0288,-675 283.0288,-675 283.0288,-790 283.0288,-790 283.0288,-796 277.0288,-802 271.0288,-802 271.0288,-802 213.047,-802 213.047,-802 207.047,-802 201.047,-796 201.047,-790 201.047,-790 201.047,-675 201.047,-675 201.047,-669 207.047,-663 213.047,-663"/>
<text text-anchor="middle" x="242.0379" y="-671.5" font-family="Arial" font-size="15.00" fill="#222222">(*Logger)</text>
</a>
</g>
</g>
<g id="clust2" class="cluster">
<title>cluster_*github.com/go&#45;i2p/logger.Logger</title>
<g id="a_clust2"><a xlink:title="type: *github.com/go&#45;i2p/logger.Logger">
<path fill="#eed8ae" stroke="#000000" stroke-width=".5" d="M430.3472,-602C430.3472,-602 484.113,-602 484.113,-602 490.113,-602 496.113,-608 496.113,-614 496.113,-614 496.113,-668 496.113,-668 496.113,-674 490.113,-680 484.113,-680 484.113,-680 430.3472,-680 430.3472,-680 424.3472,-680 418.3472,-674 418.3472,-668 418.3472,-668 418.3472,-614 418.3472,-614 418.3472,-608 424.3472,-602 430.3472,-602"/>
<text text-anchor="middle" x="457.2301" y="-610.5" font-family="Arial" font-size="15.00" fill="#222222">(*Logger)</text>
</a>
</g>
</g>
<!-- github.com/go&#45;i2p/go&#45;i2p/lib/config.InitConfig -->
<g id="node1" class="node">
<title>github.com/go&#45;i2p/go&#45;i2p/lib/config.InitConfig</title>
<g id="a_node1"><a xlink:title="github.com/go&#45;i2p/go&#45;i2p/lib/config.InitConfig | defined in config.go:19&#10;at config.go:72: calling [github.com/spf13/viper.ConfigFileUsed]&#10;at config.go:62: calling [github.com/spf13/viper.SetConfigName]&#10;at config.go:70: calling [(*github.com/go&#45;i2p/logger.Logger).Warnf]&#10;at config.go:61: calling [github.com/spf13/viper.AddConfigPath]&#10;at config.go:63: calling [github.com/spf13/viper.SetConfigType]&#10;at config.go:41: calling [github.com/go&#45;i2p/go&#45;i2p/lib/config.DefaultRouterConfig]&#10;at config.go:42: calling [github.com/go&#45;i2p/go&#45;i2p/lib/config.DefaultRouterConfig]&#10;at config.go:43: calling [github.com/go&#45;i2p/go&#45;i2p/lib/config.DefaultRouterConfig]&#10;at config.go:44: calling [github.com/go&#45;i2p/go&#45;i2p/lib/config.DefaultRouterConfig]&#10;at config.go:76: calling [github.com/go&#45;i2p/go&#45;i2p/lib/config.UpdateRouterConfig]&#10;at config.go:25: calling [github.com/spf13/viper.SetConfigFile]&#10;at config.go:69: calling [github.com/spf13/viper.ReadInConfig]&#10;at config.go:31: calling [(*github.com/sirupsen/logrus.Logger).Fatalf]&#10;at config.go:49: calling [(*github.com/sirupsen/logrus.Logger).Fatalf]&#10;at config.go:54: calling [(*github.com/sirupsen/logrus.Logger).Fatalf]&#10;at config.go:67: calling [github.com/go&#45;i2p/go&#45;i2p/lib/config.setDefaults]&#10;at config.go:47: calling [gopkg.in/yaml.v3.Marshal]&#10;at config.go:57: calling [(*github.com/sirupsen/logrus.Logger).Debugf]&#10;at config.go:72: calling [(*github.com/sirupsen/logrus.Logger).Debugf]">
<path fill="#add8e6" stroke="#000000" stroke-width="1.5" d="M86.4951,-445C86.4951,-445 27.8345,-445 27.8345,-445 21.8345,-445 15.8345,-439 15.8345,-433 15.8345,-433 15.8345,-421 15.8345,-421 15.8345,-415 21.8345,-409 27.8345,-409 27.8345,-409 86.4951,-409 86.4951,-409 92.4951,-409 98.4951,-415 98.4951,-421 98.4951,-421 98.4951,-433 98.4951,-433 98.4951,-439 92.4951,-445 86.4951,-445"/>
<text text-anchor="middle" x="57.1648" y="-422.8" font-family="Verdana" font-size="14.00" fill="#000000">InitConfig</text>
</a>
</g>
</g>
<!-- github.com/spf13/viper.SetConfigFile -->
<g id="node2" class="node">
<title>github.com/spf13/viper.SetConfigFile</title>
<g id="a_node2"><a xlink:title="github.com/spf13/viper.SetConfigFile | defined in viper.go:509">
<path fill="#ffe4b5" stroke="#000000" stroke-width="1.5" d="M281.0929,-113C281.0929,-113 202.9829,-113 202.9829,-113 196.9829,-113 190.9829,-107 190.9829,-101 190.9829,-101 190.9829,-89 190.9829,-89 190.9829,-83 196.9829,-77 202.9829,-77 202.9829,-77 281.0929,-77 281.0929,-77 287.0929,-77 293.0929,-83 293.0929,-89 293.0929,-89 293.0929,-101 293.0929,-101 293.0929,-107 287.0929,-113 281.0929,-113"/>
<text text-anchor="middle" x="242.0379" y="-99.2" font-family="Verdana" font-size="14.00" fill="#000000">viper</text>
<text text-anchor="middle" x="242.0379" y="-82.4" font-family="Verdana" font-size="14.00" fill="#000000">SetConfigFile</text>
</a>
</g>
</g>
<!-- github.com/go&#45;i2p/go&#45;i2p/lib/config.InitConfig&#45;&gt;github.com/spf13/viper.SetConfigFile -->
<g id="edge17" class="edge">
<title>github.com/go&#45;i2p/go&#45;i2p/lib/config.InitConfig&#45;&gt;github.com/spf13/viper.SetConfigFile</title>
<g id="a_edge17"><a xlink:title="at config.go:25: calling [github.com/spf13/viper.SetConfigFile]">
<path fill="none" stroke="#8b4513" d="M59.6612,-408.7336C67.8983,-350.9377 95.897,-173.4308 134.3296,-132 146.5817,-118.7921 163.757,-110.299 180.7987,-104.8377"/>
<polygon fill="#8b4513" stroke="#8b4513" points="182.1403,-108.0935 190.779,-101.9597 180.2007,-101.3675 182.1403,-108.0935"/>
</a>
</g>
</g>
<!-- github.com/go&#45;i2p/go&#45;i2p/lib/config.setDefaults -->
<g id="node3" class="node">
<title>github.com/go&#45;i2p/go&#45;i2p/lib/config.setDefaults</title>
<g id="a_node3"><a xlink:title="github.com/go&#45;i2p/go&#45;i2p/lib/config.setDefaults | defined in config.go:79&#10;at config.go:81: calling [github.com/spf13/viper.SetDefault]&#10;at config.go:82: calling [github.com/spf13/viper.SetDefault]&#10;at config.go:85: calling [github.com/spf13/viper.SetDefault]&#10;at config.go:88: calling [github.com/spf13/viper.SetDefault]&#10;at config.go:89: calling [github.com/spf13/viper.SetDefault]&#10;at config.go:81: calling [github.com/go&#45;i2p/go&#45;i2p/lib/config.DefaultRouterConfig]&#10;at config.go:82: calling [github.com/go&#45;i2p/go&#45;i2p/lib/config.DefaultRouterConfig]">
<path fill="#add8e6" stroke="#000000" stroke-width=".5" d="M273.5099,-201C273.5099,-201 210.5659,-201 210.5659,-201 204.5659,-201 198.5659,-195 198.5659,-189 198.5659,-189 198.5659,-177 198.5659,-177 198.5659,-171 204.5659,-165 210.5659,-165 210.5659,-165 273.5099,-165 273.5099,-165 279.5099,-165 285.5099,-171 285.5099,-177 285.5099,-177 285.5099,-189 285.5099,-189 285.5099,-195 279.5099,-201 273.5099,-201"/>
<text text-anchor="middle" x="242.0379" y="-178.8" font-family="Verdana" font-size="14.00" fill="#000000">setDefaults</text>
</a>
</g>
</g>
<!-- github.com/go&#45;i2p/go&#45;i2p/lib/config.InitConfig&#45;&gt;github.com/go&#45;i2p/go&#45;i2p/lib/config.setDefaults -->
<g id="edge22" class="edge">
<title>github.com/go&#45;i2p/go&#45;i2p/lib/config.InitConfig&#45;&gt;github.com/go&#45;i2p/go&#45;i2p/lib/config.setDefaults</title>
<g id="a_edge22"><a xlink:title="at config.go:67: calling [github.com/go&#45;i2p/go&#45;i2p/lib/config.setDefaults]">
<path fill="none" stroke="#000000" d="M62.41,-408.7554C74.8624,-368.4311 109.8568,-270.808 171.3296,-214 176.6761,-209.0592 182.9367,-204.8195 189.4828,-201.2058"/>
<polygon fill="#000000" stroke="#000000" points="191.1647,-204.2777 198.5273,-196.6591 188.0206,-198.0235 191.1647,-204.2777"/>
</a>
</g>
</g>
<!-- github.com/go&#45;i2p/go&#45;i2p/lib/config.DefaultRouterConfig -->
<g id="node4" class="node">
<title>github.com/go&#45;i2p/go&#45;i2p/lib/config.DefaultRouterConfig</title>
<g id="a_node4"><a xlink:title="github.com/go&#45;i2p/go&#45;i2p/lib/config.DefaultRouterConfig | defined in router.go:44">
<path fill="#add8e6" stroke="#000000" stroke-width="1.5" d="M516.6979,-235C516.6979,-235 397.7623,-235 397.7623,-235 391.7623,-235 385.7623,-229 385.7623,-223 385.7623,-223 385.7623,-211 385.7623,-211 385.7623,-205 391.7623,-199 397.7623,-199 397.7623,-199 516.6979,-199 516.6979,-199 522.6979,-199 528.6979,-205 528.6979,-211 528.6979,-211 528.6979,-223 528.6979,-223 528.6979,-229 522.6979,-235 516.6979,-235"/>
<text text-anchor="middle" x="457.2301" y="-212.8" font-family="Verdana" font-size="14.00" fill="#000000">DefaultRouterConfig</text>
</a>
</g>
</g>
<!-- github.com/go&#45;i2p/go&#45;i2p/lib/config.InitConfig&#45;&gt;github.com/go&#45;i2p/go&#45;i2p/lib/config.DefaultRouterConfig -->
<g id="edge12" class="edge">
<title>github.com/go&#45;i2p/go&#45;i2p/lib/config.InitConfig&#45;&gt;github.com/go&#45;i2p/go&#45;i2p/lib/config.DefaultRouterConfig</title>
<g id="a_edge12"><a xlink:title="at config.go:41: calling [github.com/go&#45;i2p/go&#45;i2p/lib/config.DefaultRouterConfig]&#10;at config.go:42: calling [github.com/go&#45;i2p/go&#45;i2p/lib/config.DefaultRouterConfig]&#10;at config.go:43: calling [github.com/go&#45;i2p/go&#45;i2p/lib/config.DefaultRouterConfig]&#10;at config.go:44: calling [github.com/go&#45;i2p/go&#45;i2p/lib/config.DefaultRouterConfig]">
<path fill="none" stroke="#000000" d="M58.2342,-408.7257C62.3308,-357.5636 81.7139,-212.7442 171.3296,-153 251.6114,-99.4785 297.5124,-147.955 385.7462,-187 391.5616,-189.5734 397.6655,-192.2189 403.7533,-194.8221"/>
<polygon fill="#000000" stroke="#000000" points="402.6903,-198.1732 413.2628,-198.8617 405.4272,-191.7304 402.6903,-198.1732"/>
</a>
</g>
</g>
<!-- github.com/spf13/viper.ReadInConfig -->
<g id="node6" class="node">
<title>github.com/spf13/viper.ReadInConfig</title>
<g id="a_node6"><a xlink:title="github.com/spf13/viper.ReadInConfig | defined in viper.go:1632">
<path fill="#ffe4b5" stroke="#000000" stroke-width="1.5" d="M281.8526,-262C281.8526,-262 202.2232,-262 202.2232,-262 196.2232,-262 190.2232,-256 190.2232,-250 190.2232,-250 190.2232,-238 190.2232,-238 190.2232,-232 196.2232,-226 202.2232,-226 202.2232,-226 281.8526,-226 281.8526,-226 287.8526,-226 293.8526,-232 293.8526,-238 293.8526,-238 293.8526,-250 293.8526,-250 293.8526,-256 287.8526,-262 281.8526,-262"/>
<text text-anchor="middle" x="242.0379" y="-248.2" font-family="Verdana" font-size="14.00" fill="#000000">viper</text>
<text text-anchor="middle" x="242.0379" y="-231.4" font-family="Verdana" font-size="14.00" fill="#000000">ReadInConfig</text>
</a>
</g>
</g>
<!-- github.com/go&#45;i2p/go&#45;i2p/lib/config.InitConfig&#45;&gt;github.com/spf13/viper.ReadInConfig -->
<g id="edge18" class="edge">
<title>github.com/go&#45;i2p/go&#45;i2p/lib/config.InitConfig&#45;&gt;github.com/spf13/viper.ReadInConfig</title>
<g id="a_edge18"><a xlink:title="at config.go:69: calling [github.com/spf13/viper.ReadInConfig]">
<path fill="none" stroke="#8b4513" d="M66.7557,-408.6781C83.9212,-377.4408 122.6923,-313.5246 171.3296,-275 174.9135,-272.1613 178.7976,-269.5287 182.8383,-267.0977"/>
<polygon fill="#8b4513" stroke="#8b4513" points="184.8229,-269.9997 191.8786,-262.0961 181.4341,-263.8746 184.8229,-269.9997"/>
</a>
</g>
</g>
<!-- github.com/spf13/viper.AddConfigPath -->
<g id="node7" class="node">
<title>github.com/spf13/viper.AddConfigPath</title>
<g id="a_node7"><a xlink:title="github.com/spf13/viper.AddConfigPath | defined in viper.go:574">
<path fill="#ffe4b5" stroke="#000000" stroke-width="1.5" d="M285.9202,-323C285.9202,-323 198.1556,-323 198.1556,-323 192.1556,-323 186.1556,-317 186.1556,-311 186.1556,-311 186.1556,-299 186.1556,-299 186.1556,-293 192.1556,-287 198.1556,-287 198.1556,-287 285.9202,-287 285.9202,-287 291.9202,-287 297.9202,-293 297.9202,-299 297.9202,-299 297.9202,-311 297.9202,-311 297.9202,-317 291.9202,-323 285.9202,-323"/>
<text text-anchor="middle" x="242.0379" y="-309.2" font-family="Verdana" font-size="14.00" fill="#000000">viper</text>
<text text-anchor="middle" x="242.0379" y="-292.4" font-family="Verdana" font-size="14.00" fill="#000000">AddConfigPath</text>
</a>
</g>
</g>
<!-- github.com/go&#45;i2p/go&#45;i2p/lib/config.InitConfig&#45;&gt;github.com/spf13/viper.AddConfigPath -->
<g id="edge10" class="edge">
<title>github.com/go&#45;i2p/go&#45;i2p/lib/config.InitConfig&#45;&gt;github.com/spf13/viper.AddConfigPath</title>
<g id="a_edge10"><a xlink:title="at config.go:61: calling [github.com/spf13/viper.AddConfigPath]">
<path fill="none" stroke="#8b4513" d="M76.6135,-408.8716C98.4485,-389.1682 135.5252,-357.6121 171.3296,-336 176.255,-333.027 181.5164,-330.1794 186.8628,-327.4989"/>
<polygon fill="#8b4513" stroke="#8b4513" points="188.4024,-330.6422 195.8962,-323.1527 185.3675,-324.3343 188.4024,-330.6422"/>
</a>
</g>
</g>
<!-- github.com/spf13/viper.SetConfigName -->
<g id="node8" class="node">
<title>github.com/spf13/viper.SetConfigName</title>
<g id="a_node8"><a xlink:title="github.com/spf13/viper.SetConfigName | defined in viper.go:2174">
<path fill="#ffe4b5" stroke="#000000" stroke-width="1.5" d="M287.2401,-384C287.2401,-384 196.8357,-384 196.8357,-384 190.8357,-384 184.8357,-378 184.8357,-372 184.8357,-372 184.8357,-360 184.8357,-360 184.8357,-354 190.8357,-348 196.8357,-348 196.8357,-348 287.2401,-348 287.2401,-348 293.2401,-348 299.2401,-354 299.2401,-360 299.2401,-360 299.2401,-372 299.2401,-372 299.2401,-378 293.2401,-384 287.2401,-384"/>
<text text-anchor="middle" x="242.0379" y="-370.2" font-family="Verdana" font-size="14.00" fill="#000000">viper</text>
<text text-anchor="middle" x="242.0379" y="-353.4" font-family="Verdana" font-size="14.00" fill="#000000">SetConfigName</text>
</a>
</g>
</g>
<!-- github.com/go&#45;i2p/go&#45;i2p/lib/config.InitConfig&#45;&gt;github.com/spf13/viper.SetConfigName -->
<g id="edge6" class="edge">
<title>github.com/go&#45;i2p/go&#45;i2p/lib/config.InitConfig&#45;&gt;github.com/spf13/viper.SetConfigName</title>
<g id="a_edge6"><a xlink:title="at config.go:62: calling [github.com/spf13/viper.SetConfigName]">
<path fill="none" stroke="#8b4513" d="M98.6539,-413.3104C121.9783,-405.6144 151.5964,-395.8417 177.8508,-387.1789"/>
<polygon fill="#8b4513" stroke="#8b4513" points="178.9537,-390.5007 187.3534,-384.0435 176.7603,-383.8532 178.9537,-390.5007"/>
</a>
</g>
</g>
<!-- github.com/spf13/viper.SetConfigType -->
<g id="node9" class="node">
<title>github.com/spf13/viper.SetConfigType</title>
<g id="a_node9"><a xlink:title="github.com/spf13/viper.SetConfigType | defined in viper.go:2185">
<path fill="#ffe4b5" stroke="#000000" stroke-width="1.5" d="M284.5817,-445C284.5817,-445 199.4941,-445 199.4941,-445 193.4941,-445 187.4941,-439 187.4941,-433 187.4941,-433 187.4941,-421 187.4941,-421 187.4941,-415 193.4941,-409 199.4941,-409 199.4941,-409 284.5817,-409 284.5817,-409 290.5817,-409 296.5817,-415 296.5817,-421 296.5817,-421 296.5817,-433 296.5817,-433 296.5817,-439 290.5817,-445 284.5817,-445"/>
<text text-anchor="middle" x="242.0379" y="-431.2" font-family="Verdana" font-size="14.00" fill="#000000">viper</text>
<text text-anchor="middle" x="242.0379" y="-414.4" font-family="Verdana" font-size="14.00" fill="#000000">SetConfigType</text>
</a>
</g>
</g>
<!-- github.com/go&#45;i2p/go&#45;i2p/lib/config.InitConfig&#45;&gt;github.com/spf13/viper.SetConfigType -->
<g id="edge11" class="edge">
<title>github.com/go&#45;i2p/go&#45;i2p/lib/config.InitConfig&#45;&gt;github.com/spf13/viper.SetConfigType</title>
<g id="a_edge11"><a xlink:title="at config.go:63: calling [github.com/spf13/viper.SetConfigType]">
<path fill="none" stroke="#8b4513" d="M98.6539,-427C121.7737,-427 151.0773,-427 177.1591,-427"/>
<polygon fill="#8b4513" stroke="#8b4513" points="177.3534,-430.5001 187.3534,-427 177.3534,-423.5001 177.3534,-430.5001"/>
</a>
</g>
</g>
<!-- gopkg.in/yaml.v3.Marshal -->
<g id="node10" class="node">
<title>gopkg.in/yaml.v3.Marshal</title>
<g id="a_node10"><a xlink:title="gopkg.in/yaml.v3.Marshal | defined in yaml.go:218">
<path fill="#ffe4b5" stroke="#000000" stroke-width="1.5" d="M264.9076,-506C264.9076,-506 219.1682,-506 219.1682,-506 213.1682,-506 207.1682,-500 207.1682,-494 207.1682,-494 207.1682,-482 207.1682,-482 207.1682,-476 213.1682,-470 219.1682,-470 219.1682,-470 264.9076,-470 264.9076,-470 270.9076,-470 276.9076,-476 276.9076,-482 276.9076,-482 276.9076,-494 276.9076,-494 276.9076,-500 270.9076,-506 264.9076,-506"/>
<text text-anchor="middle" x="242.0379" y="-492.2" font-family="Verdana" font-size="14.00" fill="#000000">yaml</text>
<text text-anchor="middle" x="242.0379" y="-475.4" font-family="Verdana" font-size="14.00" fill="#000000">Marshal</text>
</a>
</g>
</g>
<!-- github.com/go&#45;i2p/go&#45;i2p/lib/config.InitConfig&#45;&gt;gopkg.in/yaml.v3.Marshal -->
<g id="edge23" class="edge">
<title>github.com/go&#45;i2p/go&#45;i2p/lib/config.InitConfig&#45;&gt;gopkg.in/yaml.v3.Marshal</title>
<g id="a_edge23"><a xlink:title="at config.go:47: calling [gopkg.in/yaml.v3.Marshal]">
<path fill="none" stroke="#8b4513" d="M98.6539,-440.6896C127.9217,-450.3467 167.0992,-463.2735 197.1058,-473.1744"/>
<polygon fill="#8b4513" stroke="#8b4513" points="196.3096,-476.5972 206.9028,-476.4069 198.503,-469.9497 196.3096,-476.5972"/>
</a>
</g>
</g>
<!-- github.com/go&#45;i2p/go&#45;i2p/lib/config.UpdateRouterConfig -->
<g id="node11" class="node">
<title>github.com/go&#45;i2p/go&#45;i2p/lib/config.UpdateRouterConfig</title>
<g id="a_node11"><a xlink:title="github.com/go&#45;i2p/go&#45;i2p/lib/config.UpdateRouterConfig | defined in config.go:92&#10;at config.go:110: calling [github.com/spf13/viper.GetInt]&#10;at config.go:104: calling [github.com/spf13/viper.UnmarshalKey]&#10;at config.go:105: calling [(*github.com/go&#45;i2p/logger.Logger).Warnf]&#10;at config.go:94: calling [github.com/spf13/viper.GetString]&#10;at config.go:95: calling [github.com/spf13/viper.GetString]&#10;at config.go:99: calling [github.com/spf13/viper.GetString]">
<path fill="#add8e6" stroke="#000000" stroke-width="1.5" d="M300.9551,-567C300.9551,-567 183.1207,-567 183.1207,-567 177.1207,-567 171.1207,-561 171.1207,-555 171.1207,-555 171.1207,-543 171.1207,-543 171.1207,-537 177.1207,-531 183.1207,-531 183.1207,-531 300.9551,-531 300.9551,-531 306.9551,-531 312.9551,-537 312.9551,-543 312.9551,-543 312.9551,-555 312.9551,-555 312.9551,-561 306.9551,-567 300.9551,-567"/>
<text text-anchor="middle" x="242.0379" y="-544.8" font-family="Verdana" font-size="14.00" fill="#000000">UpdateRouterConfig</text>
</a>
</g>
</g>
<!-- github.com/go&#45;i2p/go&#45;i2p/lib/config.InitConfig&#45;&gt;github.com/go&#45;i2p/go&#45;i2p/lib/config.UpdateRouterConfig -->
<g id="edge15" class="edge">
<title>github.com/go&#45;i2p/go&#45;i2p/lib/config.InitConfig&#45;&gt;github.com/go&#45;i2p/go&#45;i2p/lib/config.UpdateRouterConfig</title>
<g id="a_edge15"><a xlink:title="at config.go:76: calling [github.com/go&#45;i2p/go&#45;i2p/lib/config.UpdateRouterConfig]">
<path fill="none" stroke="#000000" d="M76.1343,-445.065C97.8401,-465.0469 135.0821,-497.2831 171.3296,-519 175.7211,-521.6311 180.3856,-524.1477 185.1426,-526.525"/>
<polygon fill="#000000" stroke="#000000" points="183.824,-529.7738 194.3568,-530.9185 186.8368,-523.4553 183.824,-529.7738"/>
</a>
</g>
</g>
<!-- github.com/spf13/viper.ConfigFileUsed -->
<g id="node15" class="node">
<title>github.com/spf13/viper.ConfigFileUsed</title>
<g id="a_node15"><a xlink:title="github.com/spf13/viper.ConfigFileUsed | defined in viper.go:569">
<path fill="#ffe4b5" stroke="#000000" stroke-width="1.5" d="M286.9707,-628C286.9707,-628 197.1051,-628 197.1051,-628 191.1051,-628 185.1051,-622 185.1051,-616 185.1051,-616 185.1051,-604 185.1051,-604 185.1051,-598 191.1051,-592 197.1051,-592 197.1051,-592 286.9707,-592 286.9707,-592 292.9707,-592 298.9707,-598 298.9707,-604 298.9707,-604 298.9707,-616 298.9707,-616 298.9707,-622 292.9707,-628 286.9707,-628"/>
<text text-anchor="middle" x="242.0379" y="-614.2" font-family="Verdana" font-size="14.00" fill="#000000">viper</text>
<text text-anchor="middle" x="242.0379" y="-597.4" font-family="Verdana" font-size="14.00" fill="#000000">ConfigFileUsed</text>
</a>
</g>
</g>
<!-- github.com/go&#45;i2p/go&#45;i2p/lib/config.InitConfig&#45;&gt;github.com/spf13/viper.ConfigFileUsed -->
<g id="edge1" class="edge">
<title>github.com/go&#45;i2p/go&#45;i2p/lib/config.InitConfig&#45;&gt;github.com/spf13/viper.ConfigFileUsed</title>
<g id="a_edge1"><a xlink:title="at config.go:72: calling [github.com/spf13/viper.ConfigFileUsed]">
<path fill="none" stroke="#8b4513" d="M66.4064,-445.0067C83.3121,-476.3611 122.0575,-541.3233 171.3296,-580 174.4846,-582.4766 177.8743,-584.7853 181.4,-586.9314"/>
<polygon fill="#8b4513" stroke="#8b4513" points="179.9481,-590.1289 190.3879,-591.9344 183.3526,-584.0126 179.9481,-590.1289"/>
</a>
</g>
</g>
<!-- (*github.com/go&#45;i2p/logger.Logger).Warnf -->
<g id="node21" class="node">
<title>(*github.com/go&#45;i2p/logger.Logger).Warnf</title>
<g id="a_node21"><a xlink:title="(*github.com/go&#45;i2p/logger.Logger).Warnf | defined in log.go:36">
<path fill="#ffe4b5" stroke="#000000" stroke-width="1.5" d="M474.9964,-672C474.9964,-672 439.4638,-672 439.4638,-672 433.4638,-672 427.4638,-666 427.4638,-660 427.4638,-660 427.4638,-648 427.4638,-648 427.4638,-642 433.4638,-636 439.4638,-636 439.4638,-636 474.9964,-636 474.9964,-636 480.9964,-636 486.9964,-642 486.9964,-648 486.9964,-648 486.9964,-660 486.9964,-660 486.9964,-666 480.9964,-672 474.9964,-672"/>
<text text-anchor="middle" x="457.2301" y="-658.2" font-family="Verdana" font-size="14.00" fill="#000000">logger</text>
<text text-anchor="middle" x="457.2301" y="-641.4" font-family="Verdana" font-size="14.00" fill="#000000">Warnf</text>
</a>
</g>
</g>
<!-- github.com/go&#45;i2p/go&#45;i2p/lib/config.InitConfig&#45;&gt;(*github.com/go&#45;i2p/logger.Logger).Warnf -->
<g id="edge7" class="edge">
<title>github.com/go&#45;i2p/go&#45;i2p/lib/config.InitConfig&#45;&gt;(*github.com/go&#45;i2p/logger.Logger).Warnf</title>
<g id="a_edge7"><a xlink:title="at config.go:70: calling [(*github.com/go&#45;i2p/logger.Logger).Warnf]">
<path fill="none" stroke="#8b4513" d="M60.5914,-445.1687C69.7579,-488.0742 99.2234,-595.4829 171.3296,-641 191.553,-653.766 343.0676,-654.6831 416.953,-654.3531"/>
<polygon fill="#8b4513" stroke="#8b4513" points="417.2853,-657.8514 427.2659,-654.2966 417.2469,-650.8515 417.2853,-657.8514"/>
</a>
</g>
</g>
<!-- (*github.com/sirupsen/logrus.Logger).Fatalf -->
<g id="node22" class="node">
<title>(*github.com/sirupsen/logrus.Logger).Fatalf</title>
<g id="a_node22"><a xlink:title="(*github.com/sirupsen/logrus.Logger).Fatalf | defined in logger.go:189">
<path fill="#ffe4b5" stroke="#000000" stroke-width="1.5" d="M259.5337,-794C259.5337,-794 224.5421,-794 224.5421,-794 218.5421,-794 212.5421,-788 212.5421,-782 212.5421,-782 212.5421,-770 212.5421,-770 212.5421,-764 218.5421,-758 224.5421,-758 224.5421,-758 259.5337,-758 259.5337,-758 265.5337,-758 271.5337,-764 271.5337,-770 271.5337,-770 271.5337,-782 271.5337,-782 271.5337,-788 265.5337,-794 259.5337,-794"/>
<text text-anchor="middle" x="242.0379" y="-780.2" font-family="Verdana" font-size="14.00" fill="#000000">logrus</text>
<text text-anchor="middle" x="242.0379" y="-763.4" font-family="Verdana" font-size="14.00" fill="#000000">Fatalf</text>
</a>
</g>
</g>
<!-- github.com/go&#45;i2p/go&#45;i2p/lib/config.InitConfig&#45;&gt;(*github.com/sirupsen/logrus.Logger).Fatalf -->
<g id="edge19" class="edge">
<title>github.com/go&#45;i2p/go&#45;i2p/lib/config.InitConfig&#45;&gt;(*github.com/sirupsen/logrus.Logger).Fatalf</title>
<g id="a_edge19"><a xlink:title="at config.go:31: calling [(*github.com/sirupsen/logrus.Logger).Fatalf]&#10;at config.go:49: calling [(*github.com/sirupsen/logrus.Logger).Fatalf]&#10;at config.go:54: calling [(*github.com/sirupsen/logrus.Logger).Fatalf]">
<path fill="none" stroke="#8b4513" d="M58.2044,-445.1411C62.2835,-499.0873 81.7586,-660.0854 171.3296,-746 180.1126,-754.4245 191.6201,-760.6551 202.793,-765.1854"/>
<polygon fill="#8b4513" stroke="#8b4513" points="201.8553,-768.5698 212.4488,-768.7413 204.2744,-762.0011 201.8553,-768.5698"/>
</a>
</g>
</g>
<!-- (*github.com/sirupsen/logrus.Logger).Debugf -->
<g id="node23" class="node">
<title>(*github.com/sirupsen/logrus.Logger).Debugf</title>
<g id="a_node23"><a xlink:title="(*github.com/sirupsen/logrus.Logger).Debugf | defined in logger.go:163">
<path fill="#ffe4b5" stroke="#000000" stroke-width="1.5" d="M263.0197,-733C263.0197,-733 221.0561,-733 221.0561,-733 215.0561,-733 209.0561,-727 209.0561,-721 209.0561,-721 209.0561,-709 209.0561,-709 209.0561,-703 215.0561,-697 221.0561,-697 221.0561,-697 263.0197,-697 263.0197,-697 269.0197,-697 275.0197,-703 275.0197,-709 275.0197,-709 275.0197,-721 275.0197,-721 275.0197,-727 269.0197,-733 263.0197,-733"/>
<text text-anchor="middle" x="242.0379" y="-719.2" font-family="Verdana" font-size="14.00" fill="#000000">logrus</text>
<text text-anchor="middle" x="242.0379" y="-702.4" font-family="Verdana" font-size="14.00" fill="#000000">Debugf</text>
</a>
</g>
</g>
<!-- github.com/go&#45;i2p/go&#45;i2p/lib/config.InitConfig&#45;&gt;(*github.com/sirupsen/logrus.Logger).Debugf -->
<g id="edge24" class="edge">
<title>github.com/go&#45;i2p/go&#45;i2p/lib/config.InitConfig&#45;&gt;(*github.com/sirupsen/logrus.Logger).Debugf</title>
<g id="a_edge24"><a xlink:title="at config.go:57: calling [(*github.com/sirupsen/logrus.Logger).Debugf]&#10;at config.go:72: calling [(*github.com/sirupsen/logrus.Logger).Debugf]">
<path fill="none" stroke="#8b4513" d="M59.7631,-445.1644C66.3637,-486.5229 86.7448,-589.6433 134.3296,-661 146.392,-679.0884 152.3268,-682.4366 171.3296,-693 179.9196,-697.7751 189.6845,-701.6601 199.1566,-704.7608"/>
<polygon fill="#8b4513" stroke="#8b4513" points="198.2743,-708.1507 208.8601,-707.7126 200.3116,-701.4537 198.2743,-708.1507"/>
</a>
</g>
</g>
<!-- github.com/go&#45;i2p/go&#45;i2p/lib/config.setDefaults&#45;&gt;github.com/go&#45;i2p/go&#45;i2p/lib/config.DefaultRouterConfig -->
<g id="edge9" class="edge">
<title>github.com/go&#45;i2p/go&#45;i2p/lib/config.setDefaults&#45;&gt;github.com/go&#45;i2p/go&#45;i2p/lib/config.DefaultRouterConfig</title>
<g id="a_edge9"><a xlink:title="at config.go:81: calling [github.com/go&#45;i2p/go&#45;i2p/lib/config.DefaultRouterConfig]&#10;at config.go:82: calling [github.com/go&#45;i2p/go&#45;i2p/lib/config.DefaultRouterConfig]">
<path fill="none" stroke="#000000" d="M285.5853,-189.8804C311.2942,-193.9424 344.6737,-199.2163 375.1536,-204.0321"/>
<polygon fill="#000000" stroke="#000000" points="374.9402,-207.5417 385.3639,-205.6453 376.0327,-200.6274 374.9402,-207.5417"/>
</a>
</g>
</g>
<!-- github.com/spf13/viper.SetDefault -->
<g id="node5" class="node">
<title>github.com/spf13/viper.SetDefault</title>
<g id="a_node5"><a xlink:title="github.com/spf13/viper.SetDefault | defined in viper.go:1596">
<path fill="#ffe4b5" stroke="#000000" stroke-width="1.5" d="M487.0956,-296C487.0956,-296 427.3646,-296 427.3646,-296 421.3646,-296 415.3646,-290 415.3646,-284 415.3646,-284 415.3646,-272 415.3646,-272 415.3646,-266 421.3646,-260 427.3646,-260 427.3646,-260 487.0956,-260 487.0956,-260 493.0956,-260 499.0956,-266 499.0956,-272 499.0956,-272 499.0956,-284 499.0956,-284 499.0956,-290 493.0956,-296 487.0956,-296"/>
<text text-anchor="middle" x="457.2301" y="-282.2" font-family="Verdana" font-size="14.00" fill="#000000">viper</text>
<text text-anchor="middle" x="457.2301" y="-265.4" font-family="Verdana" font-size="14.00" fill="#000000">SetDefault</text>
</a>
</g>
</g>
<!-- github.com/go&#45;i2p/go&#45;i2p/lib/config.setDefaults&#45;&gt;github.com/spf13/viper.SetDefault -->
<g id="edge5" class="edge">
<title>github.com/go&#45;i2p/go&#45;i2p/lib/config.setDefaults&#45;&gt;github.com/spf13/viper.SetDefault</title>
<g id="a_edge5"><a xlink:title="at config.go:81: calling [github.com/spf13/viper.SetDefault]&#10;at config.go:82: calling [github.com/spf13/viper.SetDefault]&#10;at config.go:85: calling [github.com/spf13/viper.SetDefault]&#10;at config.go:88: calling [github.com/spf13/viper.SetDefault]&#10;at config.go:89: calling [github.com/spf13/viper.SetDefault]">
<path fill="none" stroke="#8b4513" d="M283.6095,-201.0383C293.1974,-205.2506 303.3415,-209.7489 312.7462,-214 345.36,-228.742 353.0167,-233.5166 385.7462,-248 392.1136,-250.8177 398.8267,-253.7217 405.4859,-256.5621"/>
<polygon fill="#8b4513" stroke="#8b4513" points="404.5842,-259.9812 415.1572,-260.6606 407.3156,-253.5361 404.5842,-259.9812"/>
</a>
</g>
</g>
<!-- github.com/spf13/viper.GetString -->
<g id="node12" class="node">
<title>github.com/spf13/viper.GetString</title>
<g id="a_node12"><a xlink:title="github.com/spf13/viper.GetString | defined in viper.go:975">
<path fill="#ffe4b5" stroke="#000000" stroke-width="1.5" d="M484.6675,-472C484.6675,-472 429.7927,-472 429.7927,-472 423.7927,-472 417.7927,-466 417.7927,-460 417.7927,-460 417.7927,-448 417.7927,-448 417.7927,-442 423.7927,-436 429.7927,-436 429.7927,-436 484.6675,-436 484.6675,-436 490.6675,-436 496.6675,-442 496.6675,-448 496.6675,-448 496.6675,-460 496.6675,-460 496.6675,-466 490.6675,-472 484.6675,-472"/>
<text text-anchor="middle" x="457.2301" y="-458.2" font-family="Verdana" font-size="14.00" fill="#000000">viper</text>
<text text-anchor="middle" x="457.2301" y="-441.4" font-family="Verdana" font-size="14.00" fill="#000000">GetString</text>
</a>
</g>
</g>
<!-- github.com/go&#45;i2p/go&#45;i2p/lib/config.UpdateRouterConfig&#45;&gt;github.com/spf13/viper.GetString -->
<g id="edge20" class="edge">
<title>github.com/go&#45;i2p/go&#45;i2p/lib/config.UpdateRouterConfig&#45;&gt;github.com/spf13/viper.GetString</title>
<g id="a_edge20"><a xlink:title="at config.go:94: calling [github.com/spf13/viper.GetString]&#10;at config.go:95: calling [github.com/spf13/viper.GetString]&#10;at config.go:99: calling [github.com/spf13/viper.GetString]">
<path fill="none" stroke="#8b4513" d="M285.1417,-530.9925C294.2808,-527.0961 303.8521,-522.9566 312.7462,-519 345.4473,-504.4527 353.103,-499.6768 385.7462,-485 393.114,-481.6874 400.9343,-478.2333 408.5951,-474.884"/>
<polygon fill="#8b4513" stroke="#8b4513" points="410.0483,-478.0687 417.8193,-470.8672 407.2535,-471.6508 410.0483,-478.0687"/>
</a>
</g>
</g>
<!-- github.com/spf13/viper.UnmarshalKey -->
<g id="node13" class="node">
<title>github.com/spf13/viper.UnmarshalKey</title>
<g id="a_node13"><a xlink:title="github.com/spf13/viper.UnmarshalKey | defined in viper.go:1103">
<path fill="#ffe4b5" stroke="#000000" stroke-width="1.5" d="M499.4738,-533C499.4738,-533 414.9864,-533 414.9864,-533 408.9864,-533 402.9864,-527 402.9864,-521 402.9864,-521 402.9864,-509 402.9864,-509 402.9864,-503 408.9864,-497 414.9864,-497 414.9864,-497 499.4738,-497 499.4738,-497 505.4738,-497 511.4738,-503 511.4738,-509 511.4738,-509 511.4738,-521 511.4738,-521 511.4738,-527 505.4738,-533 499.4738,-533"/>
<text text-anchor="middle" x="457.2301" y="-519.2" font-family="Verdana" font-size="14.00" fill="#000000">viper</text>
<text text-anchor="middle" x="457.2301" y="-502.4" font-family="Verdana" font-size="14.00" fill="#000000">UnmarshalKey</text>
</a>
</g>
</g>
<!-- github.com/go&#45;i2p/go&#45;i2p/lib/config.UpdateRouterConfig&#45;&gt;github.com/spf13/viper.UnmarshalKey -->
<g id="edge13" class="edge">
<title>github.com/go&#45;i2p/go&#45;i2p/lib/config.UpdateRouterConfig&#45;&gt;github.com/spf13/viper.UnmarshalKey</title>
<g id="a_edge13"><a xlink:title="at config.go:104: calling [github.com/spf13/viper.UnmarshalKey]">
<path fill="none" stroke="#8b4513" d="M312.7979,-537.82C338.5302,-533.7544 367.4592,-529.1836 392.6306,-525.2066"/>
<polygon fill="#8b4513" stroke="#8b4513" points="393.4713,-528.6173 402.8026,-523.5995 392.3788,-521.703 393.4713,-528.6173"/>
</a>
</g>
</g>
<!-- github.com/spf13/viper.GetInt -->
<g id="node14" class="node">
<title>github.com/spf13/viper.GetInt</title>
<g id="a_node14"><a xlink:title="github.com/spf13/viper.GetInt | defined in viper.go:989">
<path fill="#ffe4b5" stroke="#000000" stroke-width="1.5" d="M474.9936,-594C474.9936,-594 439.4666,-594 439.4666,-594 433.4666,-594 427.4666,-588 427.4666,-582 427.4666,-582 427.4666,-570 427.4666,-570 427.4666,-564 433.4666,-558 439.4666,-558 439.4666,-558 474.9936,-558 474.9936,-558 480.9936,-558 486.9936,-564 486.9936,-570 486.9936,-570 486.9936,-582 486.9936,-582 486.9936,-588 480.9936,-594 474.9936,-594"/>
<text text-anchor="middle" x="457.2301" y="-580.2" font-family="Verdana" font-size="14.00" fill="#000000">viper</text>
<text text-anchor="middle" x="457.2301" y="-563.4" font-family="Verdana" font-size="14.00" fill="#000000">GetInt</text>
</a>
</g>
</g>
<!-- github.com/go&#45;i2p/go&#45;i2p/lib/config.UpdateRouterConfig&#45;&gt;github.com/spf13/viper.GetInt -->
<g id="edge8" class="edge">
<title>github.com/go&#45;i2p/go&#45;i2p/lib/config.UpdateRouterConfig&#45;&gt;github.com/spf13/viper.GetInt</title>
<g id="a_edge8"><a xlink:title="at config.go:110: calling [github.com/spf13/viper.GetInt]">
<path fill="none" stroke="#8b4513" d="M312.7979,-557.8782C347.3833,-562.2176 387.7433,-567.2815 416.9933,-570.9515"/>
<polygon fill="#8b4513" stroke="#8b4513" points="416.8776,-574.4644 427.2356,-572.2366 417.7491,-567.5188 416.8776,-574.4644"/>
</a>
</g>
</g>
<!-- github.com/go&#45;i2p/go&#45;i2p/lib/config.UpdateRouterConfig&#45;&gt;(*github.com/go&#45;i2p/logger.Logger).Warnf -->
<g id="edge14" class="edge">
<title>github.com/go&#45;i2p/go&#45;i2p/lib/config.UpdateRouterConfig&#45;&gt;(*github.com/go&#45;i2p/logger.Logger).Warnf</title>
<g id="a_edge14"><a xlink:title="at config.go:105: calling [(*github.com/go&#45;i2p/logger.Logger).Warnf]">
<path fill="none" stroke="#8b4513" d="M287.2284,-567.1523C295.8575,-571.0805 304.7021,-575.4362 312.7462,-580 347.3927,-599.6568 350.0307,-614.36 385.7462,-632 395.6276,-636.8804 406.8143,-640.943 417.3547,-644.1935"/>
<polygon fill="#8b4513" stroke="#8b4513" points="416.6188,-647.6245 427.1986,-647.0614 418.5767,-640.9039 416.6188,-647.6245"/>
</a>
</g>
</g>
<!-- github.com/go&#45;i2p/go&#45;i2p/lib/config.defaultBase -->
<g id="node16" class="node">
<title>github.com/go&#45;i2p/go&#45;i2p/lib/config.defaultBase</title>
<g id="a_node16"><a xlink:title="github.com/go&#45;i2p/go&#45;i2p/lib/config.defaultBase | defined in router.go:28&#10;at router.go:29: calling [github.com/go&#45;i2p/go&#45;i2p/lib/config.home]">
<path fill="#add8e6" stroke="#000000" stroke-width=".5" d="M490.3115,-52C490.3115,-52 424.1487,-52 424.1487,-52 418.1487,-52 412.1487,-46 412.1487,-40 412.1487,-40 412.1487,-28 412.1487,-28 412.1487,-22 418.1487,-16 424.1487,-16 424.1487,-16 490.3115,-16 490.3115,-16 496.3115,-16 502.3115,-22 502.3115,-28 502.3115,-28 502.3115,-40 502.3115,-40 502.3115,-46 496.3115,-52 490.3115,-52"/>
<text text-anchor="middle" x="457.2301" y="-29.8" font-family="Verdana" font-size="14.00" fill="#000000">defaultBase</text>
</a>
</g>
</g>
<!-- github.com/go&#45;i2p/go&#45;i2p/lib/config.home -->
<g id="node17" class="node">
<title>github.com/go&#45;i2p/go&#45;i2p/lib/config.home</title>
<g id="a_node17"><a xlink:title="github.com/go&#45;i2p/go&#45;i2p/lib/config.home | defined in router.go:20">
<path fill="#add8e6" stroke="#000000" stroke-width=".5" d="M644.8719,-73C644.8719,-73 613.6613,-73 613.6613,-73 607.6613,-73 601.6613,-67 601.6613,-61 601.6613,-61 601.6613,-49 601.6613,-49 601.6613,-43 607.6613,-37 613.6613,-37 613.6613,-37 644.8719,-37 644.8719,-37 650.8719,-37 656.8719,-43 656.8719,-49 656.8719,-49 656.8719,-61 656.8719,-61 656.8719,-67 650.8719,-73 644.8719,-73"/>
<text text-anchor="middle" x="629.2666" y="-50.8" font-family="Verdana" font-size="14.00" fill="#000000">home</text>
</a>
</g>
</g>
<!-- github.com/go&#45;i2p/go&#45;i2p/lib/config.defaultBase&#45;&gt;github.com/go&#45;i2p/go&#45;i2p/lib/config.home -->
<g id="edge2" class="edge">
<title>github.com/go&#45;i2p/go&#45;i2p/lib/config.defaultBase&#45;&gt;github.com/go&#45;i2p/go&#45;i2p/lib/config.home</title>
<g id="a_edge2"><a xlink:title="at router.go:29: calling [github.com/go&#45;i2p/go&#45;i2p/lib/config.home]">
<path fill="none" stroke="#000000" d="M502.4307,-39.5175C530.203,-42.9076 565.3654,-47.1998 591.6199,-50.4046"/>
<polygon fill="#000000" stroke="#000000" points="591.2158,-53.8811 601.5663,-51.6187 592.0641,-46.9327 591.2158,-53.8811"/>
</a>
</g>
</g>
<!-- github.com/go&#45;i2p/go&#45;i2p/lib/config.defaultConfig -->
<g id="node18" class="node">
<title>github.com/go&#45;i2p/go&#45;i2p/lib/config.defaultConfig</title>
<g id="a_node18"><a xlink:title="github.com/go&#45;i2p/go&#45;i2p/lib/config.defaultConfig | defined in router.go:32&#10;at router.go:33: calling [github.com/go&#45;i2p/go&#45;i2p/lib/config.home]">
<path fill="#add8e6" stroke="#000000" stroke-width=".5" d="M495.9892,-113C495.9892,-113 418.471,-113 418.471,-113 412.471,-113 406.471,-107 406.471,-101 406.471,-101 406.471,-89 406.471,-89 406.471,-83 412.471,-77 418.471,-77 418.471,-77 495.9892,-77 495.9892,-77 501.9892,-77 507.9892,-83 507.9892,-89 507.9892,-89 507.9892,-101 507.9892,-101 507.9892,-107 501.9892,-113 495.9892,-113"/>
<text text-anchor="middle" x="457.2301" y="-90.8" font-family="Verdana" font-size="14.00" fill="#000000">defaultConfig</text>
</a>
</g>
</g>
<!-- github.com/go&#45;i2p/go&#45;i2p/lib/config.defaultConfig&#45;&gt;github.com/go&#45;i2p/go&#45;i2p/lib/config.home -->
<g id="edge25" class="edge">
<title>github.com/go&#45;i2p/go&#45;i2p/lib/config.defaultConfig&#45;&gt;github.com/go&#45;i2p/go&#45;i2p/lib/config.home</title>
<g id="a_edge25"><a xlink:title="at router.go:33: calling [github.com/go&#45;i2p/go&#45;i2p/lib/config.home]">
<path fill="none" stroke="#000000" d="M508.3809,-83.107C535.0739,-76.9006 567.1591,-69.4405 591.5644,-63.7661"/>
<polygon fill="#000000" stroke="#000000" points="592.568,-67.1262 601.5155,-61.4524 590.9826,-60.3081 592.568,-67.1262"/>
</a>
</g>
</g>
<!-- github.com/go&#45;i2p/go&#45;i2p/lib/config.init -->
<g id="node19" class="node">
<title>github.com/go&#45;i2p/go&#45;i2p/lib/config.init</title>
<g id="a_node19"><a xlink:title="github.com/go&#45;i2p/go&#45;i2p/lib/config.init | defined in .:0&#10;at config.go:14: calling [github.com/go&#45;i2p/logger.GetGoI2PLogger]&#10;at netdb.go:15: calling [github.com/go&#45;i2p/go&#45;i2p/lib/config.defaultConfig]&#10;at router.go:41: calling [github.com/go&#45;i2p/go&#45;i2p/lib/config.defaultConfig]&#10;at router.go:40: calling [github.com/go&#45;i2p/go&#45;i2p/lib/config.defaultBase]&#10;at router.go:48: calling [github.com/go&#45;i2p/go&#45;i2p/lib/config.DefaultRouterConfig]">
<path fill="#add8e6" stroke="#000000" stroke-width=".5" d="M257.0379,-52C257.0379,-52 227.0379,-52 227.0379,-52 221.0379,-52 215.0379,-46 215.0379,-40 215.0379,-40 215.0379,-28 215.0379,-28 215.0379,-22 221.0379,-16 227.0379,-16 227.0379,-16 257.0379,-16 257.0379,-16 263.0379,-16 269.0379,-22 269.0379,-28 269.0379,-28 269.0379,-40 269.0379,-40 269.0379,-46 263.0379,-52 257.0379,-52"/>
<text text-anchor="middle" x="242.0379" y="-29.8" font-family="Verdana" font-size="14.00" fill="#000000">init</text>
</a>
</g>
</g>
<!-- github.com/go&#45;i2p/go&#45;i2p/lib/config.init&#45;&gt;github.com/go&#45;i2p/go&#45;i2p/lib/config.DefaultRouterConfig -->
<g id="edge21" class="edge">
<title>github.com/go&#45;i2p/go&#45;i2p/lib/config.init&#45;&gt;github.com/go&#45;i2p/go&#45;i2p/lib/config.DefaultRouterConfig</title>
<g id="a_edge21"><a xlink:title="at router.go:48: calling [github.com/go&#45;i2p/go&#45;i2p/lib/config.DefaultRouterConfig]">
<path fill="none" stroke="#000000" d="M269.1031,-41.4613C283.2977,-46.3943 300.2769,-54.0109 312.7462,-65 360.1517,-106.7781 338.0115,-145.5984 385.7462,-187 388.555,-189.4361 391.59,-191.6958 394.7696,-193.7888"/>
<polygon fill="#000000" stroke="#000000" points="393.0815,-196.8568 403.4683,-198.9463 396.6516,-190.8356 393.0815,-196.8568"/>
</a>
</g>
</g>
<!-- github.com/go&#45;i2p/go&#45;i2p/lib/config.init&#45;&gt;github.com/go&#45;i2p/go&#45;i2p/lib/config.defaultBase -->
<g id="edge16" class="edge">
<title>github.com/go&#45;i2p/go&#45;i2p/lib/config.init&#45;&gt;github.com/go&#45;i2p/go&#45;i2p/lib/config.defaultBase</title>
<g id="a_edge16"><a xlink:title="at router.go:40: calling [github.com/go&#45;i2p/go&#45;i2p/lib/config.defaultBase]">
<path fill="none" stroke="#000000" d="M269.2921,-34C302.4127,-34 359.1306,-34 401.6157,-34"/>
<polygon fill="#000000" stroke="#000000" points="401.8132,-37.5001 411.8132,-34 401.8132,-30.5001 401.8132,-37.5001"/>
</a>
</g>
</g>
<!-- github.com/go&#45;i2p/go&#45;i2p/lib/config.init&#45;&gt;github.com/go&#45;i2p/go&#45;i2p/lib/config.defaultConfig -->
<g id="edge4" class="edge">
<title>github.com/go&#45;i2p/go&#45;i2p/lib/config.init&#45;&gt;github.com/go&#45;i2p/go&#45;i2p/lib/config.defaultConfig</title>
<g id="a_edge4"><a xlink:title="at netdb.go:15: calling [github.com/go&#45;i2p/go&#45;i2p/lib/config.defaultConfig]&#10;at router.go:41: calling [github.com/go&#45;i2p/go&#45;i2p/lib/config.defaultConfig]">
<path fill="none" stroke="#000000" d="M269.2921,-41.7257C301.1216,-50.7483 354.7445,-65.9487 396.5846,-77.809"/>
<polygon fill="#000000" stroke="#000000" points="395.8274,-81.2322 406.4029,-80.5921 397.7365,-74.4975 395.8274,-81.2322"/>
</a>
</g>
</g>
<!-- github.com/go&#45;i2p/logger.GetGoI2PLogger -->
<g id="node20" class="node">
<title>github.com/go&#45;i2p/logger.GetGoI2PLogger</title>
<g id="a_node20"><a xlink:title="github.com/go&#45;i2p/logger.GetGoI2PLogger | defined in log.go:120">
<path fill="#ffe4b5" stroke="#000000" stroke-width="1.5" d="M505.9196,-174C505.9196,-174 408.5406,-174 408.5406,-174 402.5406,-174 396.5406,-168 396.5406,-162 396.5406,-162 396.5406,-150 396.5406,-150 396.5406,-144 402.5406,-138 408.5406,-138 408.5406,-138 505.9196,-138 505.9196,-138 511.9196,-138 517.9196,-144 517.9196,-150 517.9196,-150 517.9196,-162 517.9196,-162 517.9196,-168 511.9196,-174 505.9196,-174"/>
<text text-anchor="middle" x="457.2301" y="-160.2" font-family="Verdana" font-size="14.00" fill="#000000">logger</text>
<text text-anchor="middle" x="457.2301" y="-143.4" font-family="Verdana" font-size="14.00" fill="#000000">GetGoI2PLogger</text>
</a>
</g>
</g>
<!-- github.com/go&#45;i2p/go&#45;i2p/lib/config.init&#45;&gt;github.com/go&#45;i2p/logger.GetGoI2PLogger -->
<g id="edge3" class="edge">
<title>github.com/go&#45;i2p/go&#45;i2p/lib/config.init&#45;&gt;github.com/go&#45;i2p/logger.GetGoI2PLogger</title>
<g id="a_edge3"><a xlink:title="at config.go:14: calling [github.com/go&#45;i2p/logger.GetGoI2PLogger]">
<path fill="none" stroke="#8b4513" d="M269.1253,-43.7794C282.6818,-49.1885 299.0729,-56.5294 312.7462,-65 348.6887,-87.2663 349.6286,-104.0189 385.7462,-126 390.09,-128.6436 394.7086,-131.1603 399.4263,-133.5301"/>
<polygon fill="#8b4513" stroke="#8b4513" points="398.0428,-136.748 408.5747,-137.9007 401.0603,-130.4317 398.0428,-136.748"/>
</a>
</g>
</g>
</g>
</svg>
