<?xml version="1.0" encoding="UTF-8" standalone="no"?>
<!DOCTYPE svg PUBLIC "-//W3C//DTD SVG 1.1//EN"
 "http://www.w3.org/Graphics/SVG/1.1/DTD/svg11.dtd">
<!-- Generated by graphviz version 2.40.1 (20161225.0304)
 -->
<!-- Title: gocallvis Pages: 1 -->
<svg width="641pt" height="595pt"
 viewBox="0.00 0.00 641.49 595.00" xmlns="http://www.w3.org/2000/svg" xmlns:xlink="http://www.w3.org/1999/xlink">
<g id="graph0" class="graph" transform="scale(1 1) rotate(0) translate(0 595)">
<title>gocallvis</title>
<polygon fill="#d3d3d3" stroke="transparent" points="0,0 0,-595 641.4896,-595 641.4896,0 0,0"/>
<g id="clust1" class="cluster">
<title>cluster_focus</title>
<polygon fill="#e6ecfa" stroke="#000000" stroke-width=".5" points="0,-8 0,-587 633.4896,-587 633.4896,-8 0,-8"/>
<text text-anchor="middle" x="316.7448" y="-566.8" font-family="Arial" font-size="18.00" fill="#000000">aes</text>
</g>
<g id="clust6" class="cluster">
<title>cluster_*github.com/sirupsen/logrus.Logger</title>
<g id="a_clust6"><a xlink:title="type: *github.com/sirupsen/logrus.Logger">
<path fill="#eed8ae" stroke="#000000" stroke-width=".5" d="M547.7196,-438C547.7196,-438 602.0408,-438 602.0408,-438 608.0408,-438 614.0408,-444 614.0408,-450 614.0408,-450 614.0408,-504 614.0408,-504 614.0408,-510 608.0408,-516 602.0408,-516 602.0408,-516 547.7196,-516 547.7196,-516 541.7196,-516 535.7196,-510 535.7196,-504 535.7196,-504 535.7196,-450 535.7196,-450 535.7196,-444 541.7196,-438 547.7196,-438"/>
<text text-anchor="middle" x="574.8802" y="-446.5" font-family="Arial" font-size="15.00" fill="#222222">(*Logger)</text>
</a>
</g>
</g>
<g id="clust5" class="cluster">
<title>cluster_*github.com/go&#45;i2p/logger.Logger</title>
<g id="a_clust5"><a xlink:title="type: *github.com/go&#45;i2p/logger.Logger">
<path fill="#eed8ae" stroke="#000000" stroke-width=".5" d="M535.2708,-157C535.2708,-157 613.4896,-157 613.4896,-157 619.4896,-157 625.4896,-163 625.4896,-169 625.4896,-169 625.4896,-406 625.4896,-406 625.4896,-412 619.4896,-418 613.4896,-418 613.4896,-418 535.2708,-418 535.2708,-418 529.2708,-418 523.2708,-412 523.2708,-406 523.2708,-406 523.2708,-169 523.2708,-169 523.2708,-163 529.2708,-157 535.2708,-157"/>
<text text-anchor="middle" x="574.3802" y="-165.5" font-family="Arial" font-size="15.00" fill="#222222">(*Logger)</text>
</a>
</g>
</g>
<g id="clust4" class="cluster">
<title>cluster_*github.com/go&#45;i2p/go&#45;i2p/lib/crypto/aes.AESSymmetricKey</title>
<g id="a_clust4"><a xlink:title="type: *github.com/go&#45;i2p/go&#45;i2p/lib/crypto/aes.AESSymmetricKey">
<path fill="#b0c4de" stroke="#000000" stroke-width=".5" d="M304.8654,-452C304.8654,-452 438.4868,-452 438.4868,-452 444.4868,-452 450.4868,-458 450.4868,-464 450.4868,-464 450.4868,-518 450.4868,-518 450.4868,-524 444.4868,-530 438.4868,-530 438.4868,-530 304.8654,-530 304.8654,-530 298.8654,-530 292.8654,-524 292.8654,-518 292.8654,-518 292.8654,-464 292.8654,-464 292.8654,-458 298.8654,-452 304.8654,-452"/>
<text text-anchor="middle" x="371.6761" y="-460.5" font-family="Arial" font-size="15.00" fill="#222222">(*AESSymmetricKey)</text>
</a>
</g>
</g>
<g id="clust3" class="cluster">
<title>cluster_*github.com/go&#45;i2p/go&#45;i2p/lib/crypto/aes.AESSymmetricEncrypter</title>
<g id="a_clust3"><a xlink:title="type: *github.com/go&#45;i2p/go&#45;i2p/lib/crypto/aes.AESSymmetricEncrypter">
<path fill="#b0c4de" stroke="#000000" stroke-width=".5" d="M20.3843,-231C20.3843,-231 192.6971,-231 192.6971,-231 198.6971,-231 204.6971,-237 204.6971,-243 204.6971,-243 204.6971,-358 204.6971,-358 204.6971,-364 198.6971,-370 192.6971,-370 192.6971,-370 20.3843,-370 20.3843,-370 14.3843,-370 8.3843,-364 8.3843,-358 8.3843,-358 8.3843,-243 8.3843,-243 8.3843,-237 14.3843,-231 20.3843,-231"/>
<text text-anchor="middle" x="106.5407" y="-239.5" font-family="Arial" font-size="15.00" fill="#222222">(*AESSymmetricEncrypter)</text>
</a>
</g>
</g>
<g id="clust2" class="cluster">
<title>cluster_*github.com/go&#45;i2p/go&#45;i2p/lib/crypto/aes.AESSymmetricDecrypter</title>
<g id="a_clust2"><a xlink:title="type: *github.com/go&#45;i2p/go&#45;i2p/lib/crypto/aes.AESSymmetricDecrypter">
<path fill="#b0c4de" stroke="#000000" stroke-width=".5" d="M20,-73C20,-73 193.0814,-73 193.0814,-73 199.0814,-73 205.0814,-79 205.0814,-85 205.0814,-85 205.0814,-200 205.0814,-200 205.0814,-206 199.0814,-212 193.0814,-212 193.0814,-212 20,-212 20,-212 14,-212 8,-206 8,-200 8,-200 8,-85 8,-85 8,-79 14,-73 20,-73"/>
<text text-anchor="middle" x="106.5407" y="-81.5" font-family="Arial" font-size="15.00" fill="#222222">(*AESSymmetricDecrypter)</text>
</a>
</g>
</g>
<!-- github.com/samber/oops.Errorf -->
<g id="node1" class="node">
<title>github.com/samber/oops.Errorf</title>
<g id="a_node1"><a xlink:title="github.com/samber/oops.Errorf | defined in oops.go:34">
<path fill="#ffe4b5" stroke="#000000" stroke-width="1.5" d="M591.5755,-126C591.5755,-126 557.1849,-126 557.1849,-126 551.1849,-126 545.1849,-120 545.1849,-114 545.1849,-114 545.1849,-102 545.1849,-102 545.1849,-96 551.1849,-90 557.1849,-90 557.1849,-90 591.5755,-90 591.5755,-90 597.5755,-90 603.5755,-96 603.5755,-102 603.5755,-102 603.5755,-114 603.5755,-114 603.5755,-120 597.5755,-126 591.5755,-126"/>
<text text-anchor="middle" x="574.3802" y="-112.2" font-family="Verdana" font-size="14.00" fill="#000000">oops</text>
<text text-anchor="middle" x="574.3802" y="-95.4" font-family="Verdana" font-size="14.00" fill="#000000">Errorf</text>
</a>
</g>
</g>
<!-- github.com/go&#45;i2p/go&#45;i2p/lib/crypto/aes.pkcs7Unpad -->
<g id="node2" class="node">
<title>github.com/go&#45;i2p/go&#45;i2p/lib/crypto/aes.pkcs7Unpad</title>
<g id="a_node2"><a xlink:title="github.com/go&#45;i2p/go&#45;i2p/lib/crypto/aes.pkcs7Unpad | defined in aes_pkcs.go:25&#10;at aes_pkcs.go:31: calling [github.com/samber/oops.Errorf]&#10;at aes_pkcs.go:36: calling [github.com/samber/oops.Errorf]&#10;at aes_pkcs.go:42: calling [github.com/samber/oops.Errorf]&#10;at aes_pkcs.go:26: calling [(*github.com/go&#45;i2p/logger.Logger).WithField]&#10;at aes_pkcs.go:35: calling [(*github.com/go&#45;i2p/logger.Logger).WithField]&#10;at aes_pkcs.go:47: calling [(*github.com/go&#45;i2p/logger.Logger).WithField]&#10;at aes_pkcs.go:30: calling [(*github.com/go&#45;i2p/logger.Logger).Error]&#10;at aes_pkcs.go:35: calling [(*github.com/go&#45;i2p/logger.Logger).Error]&#10;at aes_pkcs.go:41: calling [(*github.com/go&#45;i2p/logger.Logger).Error]&#10;at aes_pkcs.go:26: calling [(*github.com/sirupsen/logrus.Logger).Debug]&#10;at aes_pkcs.go:47: calling [(*github.com/sirupsen/logrus.Logger).Debug]">
<path fill="#add8e6" stroke="#000000" stroke-width=".5" d="M406.6565,-275C406.6565,-275 336.6957,-275 336.6957,-275 330.6957,-275 324.6957,-269 324.6957,-263 324.6957,-263 324.6957,-251 324.6957,-251 324.6957,-245 330.6957,-239 336.6957,-239 336.6957,-239 406.6565,-239 406.6565,-239 412.6565,-239 418.6565,-245 418.6565,-251 418.6565,-251 418.6565,-263 418.6565,-263 418.6565,-269 412.6565,-275 406.6565,-275"/>
<text text-anchor="middle" x="371.6761" y="-252.8" font-family="Verdana" font-size="14.00" fill="#000000">pkcs7Unpad</text>
</a>
</g>
</g>
<!-- github.com/go&#45;i2p/go&#45;i2p/lib/crypto/aes.pkcs7Unpad&#45;&gt;github.com/samber/oops.Errorf -->
<g id="edge3" class="edge">
<title>github.com/go&#45;i2p/go&#45;i2p/lib/crypto/aes.pkcs7Unpad&#45;&gt;github.com/samber/oops.Errorf</title>
<g id="a_edge3"><a xlink:title="at aes_pkcs.go:31: calling [github.com/samber/oops.Errorf]&#10;at aes_pkcs.go:36: calling [github.com/samber/oops.Errorf]&#10;at aes_pkcs.go:42: calling [github.com/samber/oops.Errorf]">
<path fill="none" stroke="#8b4513" d="M396.5316,-238.7297C432.9512,-211.959 500.8768,-162.0295 541.4233,-132.2253"/>
<polygon fill="#8b4513" stroke="#8b4513" points="543.6543,-134.9293 549.6388,-126.1865 539.5084,-129.2891 543.6543,-134.9293"/>
</a>
</g>
</g>
<!-- (*github.com/go&#45;i2p/logger.Logger).WithField -->
<g id="node11" class="node">
<title>(*github.com/go&#45;i2p/logger.Logger).WithField</title>
<g id="a_node11"><a xlink:title="(*github.com/go&#45;i2p/logger.Logger).WithField | defined in log.go:54">
<path fill="#ffe4b5" stroke="#000000" stroke-width="1.5" d="M602.6547,-349C602.6547,-349 546.1057,-349 546.1057,-349 540.1057,-349 534.1057,-343 534.1057,-337 534.1057,-337 534.1057,-325 534.1057,-325 534.1057,-319 540.1057,-313 546.1057,-313 546.1057,-313 602.6547,-313 602.6547,-313 608.6547,-313 614.6547,-319 614.6547,-325 614.6547,-325 614.6547,-337 614.6547,-337 614.6547,-343 608.6547,-349 602.6547,-349"/>
<text text-anchor="middle" x="574.3802" y="-335.2" font-family="Verdana" font-size="14.00" fill="#000000">logger</text>
<text text-anchor="middle" x="574.3802" y="-318.4" font-family="Verdana" font-size="14.00" fill="#000000">WithField</text>
</a>
</g>
</g>
<!-- github.com/go&#45;i2p/go&#45;i2p/lib/crypto/aes.pkcs7Unpad&#45;&gt;(*github.com/go&#45;i2p/logger.Logger).WithField -->
<g id="edge7" class="edge">
<title>github.com/go&#45;i2p/go&#45;i2p/lib/crypto/aes.pkcs7Unpad&#45;&gt;(*github.com/go&#45;i2p/logger.Logger).WithField</title>
<g id="a_edge7"><a xlink:title="at aes_pkcs.go:26: calling [(*github.com/go&#45;i2p/logger.Logger).WithField]&#10;at aes_pkcs.go:35: calling [(*github.com/go&#45;i2p/logger.Logger).WithField]&#10;at aes_pkcs.go:47: calling [(*github.com/go&#45;i2p/logger.Logger).WithField]">
<path fill="none" stroke="#8b4513" d="M418.69,-274.1631C450.2751,-285.6937 491.8562,-300.8735 524.1007,-312.6447"/>
<polygon fill="#8b4513" stroke="#8b4513" points="523.1925,-316.0391 533.7864,-316.1807 525.593,-309.4636 523.1925,-316.0391"/>
</a>
</g>
</g>
<!-- (*github.com/go&#45;i2p/logger.Logger).Error -->
<g id="node12" class="node">
<title>(*github.com/go&#45;i2p/logger.Logger).Error</title>
<g id="a_node12"><a xlink:title="(*github.com/go&#45;i2p/logger.Logger).Error | defined in log.go:42">
<path fill="#ffe4b5" stroke="#000000" stroke-width="1.5" d="M592.1465,-288C592.1465,-288 556.6139,-288 556.6139,-288 550.6139,-288 544.6139,-282 544.6139,-276 544.6139,-276 544.6139,-264 544.6139,-264 544.6139,-258 550.6139,-252 556.6139,-252 556.6139,-252 592.1465,-252 592.1465,-252 598.1465,-252 604.1465,-258 604.1465,-264 604.1465,-264 604.1465,-276 604.1465,-276 604.1465,-282 598.1465,-288 592.1465,-288"/>
<text text-anchor="middle" x="574.3802" y="-274.2" font-family="Verdana" font-size="14.00" fill="#000000">logger</text>
<text text-anchor="middle" x="574.3802" y="-257.4" font-family="Verdana" font-size="14.00" fill="#000000">Error</text>
</a>
</g>
</g>
<!-- github.com/go&#45;i2p/go&#45;i2p/lib/crypto/aes.pkcs7Unpad&#45;&gt;(*github.com/go&#45;i2p/logger.Logger).Error -->
<g id="edge12" class="edge">
<title>github.com/go&#45;i2p/go&#45;i2p/lib/crypto/aes.pkcs7Unpad&#45;&gt;(*github.com/go&#45;i2p/logger.Logger).Error</title>
<g id="a_edge12"><a xlink:title="at aes_pkcs.go:30: calling [(*github.com/go&#45;i2p/logger.Logger).Error]&#10;at aes_pkcs.go:35: calling [(*github.com/go&#45;i2p/logger.Logger).Error]&#10;at aes_pkcs.go:41: calling [(*github.com/go&#45;i2p/logger.Logger).Error]">
<path fill="none" stroke="#8b4513" d="M418.69,-260.0151C453.7271,-262.2622 501.0646,-265.2981 534.313,-267.4304"/>
<polygon fill="#8b4513" stroke="#8b4513" points="534.3759,-270.9415 544.5794,-268.0888 534.824,-263.9559 534.3759,-270.9415"/>
</a>
</g>
</g>
<!-- (*github.com/sirupsen/logrus.Logger).Debug -->
<g id="node15" class="node">
<title>(*github.com/sirupsen/logrus.Logger).Debug</title>
<g id="a_node15"><a xlink:title="(*github.com/sirupsen/logrus.Logger).Debug | defined in logger.go:221">
<path fill="#ffe4b5" stroke="#000000" stroke-width="1.5" d="M593.2022,-508C593.2022,-508 555.5582,-508 555.5582,-508 549.5582,-508 543.5582,-502 543.5582,-496 543.5582,-496 543.5582,-484 543.5582,-484 543.5582,-478 549.5582,-472 555.5582,-472 555.5582,-472 593.2022,-472 593.2022,-472 599.2022,-472 605.2022,-478 605.2022,-484 605.2022,-484 605.2022,-496 605.2022,-496 605.2022,-502 599.2022,-508 593.2022,-508"/>
<text text-anchor="middle" x="574.3802" y="-494.2" font-family="Verdana" font-size="14.00" fill="#000000">logrus</text>
<text text-anchor="middle" x="574.3802" y="-477.4" font-family="Verdana" font-size="14.00" fill="#000000">Debug</text>
</a>
</g>
</g>
<!-- github.com/go&#45;i2p/go&#45;i2p/lib/crypto/aes.pkcs7Unpad&#45;&gt;(*github.com/sirupsen/logrus.Logger).Debug -->
<g id="edge19" class="edge">
<title>github.com/go&#45;i2p/go&#45;i2p/lib/crypto/aes.pkcs7Unpad&#45;&gt;(*github.com/sirupsen/logrus.Logger).Debug</title>
<g id="a_edge19"><a xlink:title="at aes_pkcs.go:26: calling [(*github.com/sirupsen/logrus.Logger).Debug]&#10;at aes_pkcs.go:47: calling [(*github.com/sirupsen/logrus.Logger).Debug]">
<path fill="none" stroke="#8b4513" d="M387.582,-275.2831C423.4022,-316.457 510.4834,-416.5532 551.8472,-464.0992"/>
<polygon fill="#8b4513" stroke="#8b4513" points="549.3441,-466.5545 558.5482,-471.8018 554.6252,-461.96 549.3441,-466.5545"/>
</a>
</g>
</g>
<!-- github.com/go&#45;i2p/go&#45;i2p/lib/crypto/aes.init -->
<g id="node3" class="node">
<title>github.com/go&#45;i2p/go&#45;i2p/lib/crypto/aes.init</title>
<g id="a_node3"><a xlink:title="github.com/go&#45;i2p/go&#45;i2p/lib/crypto/aes.init | defined in .:0&#10;at aes_decrypter.go:11: calling [github.com/go&#45;i2p/logger.GetGoI2PLogger]">
<path fill="#add8e6" stroke="#000000" stroke-width=".5" d="M121.0407,-52C121.0407,-52 91.0407,-52 91.0407,-52 85.0407,-52 79.0407,-46 79.0407,-40 79.0407,-40 79.0407,-28 79.0407,-28 79.0407,-22 85.0407,-16 91.0407,-16 91.0407,-16 121.0407,-16 121.0407,-16 127.0407,-16 133.0407,-22 133.0407,-28 133.0407,-28 133.0407,-40 133.0407,-40 133.0407,-46 127.0407,-52 121.0407,-52"/>
<text text-anchor="middle" x="106.0407" y="-29.8" font-family="Verdana" font-size="14.00" fill="#000000">init</text>
</a>
</g>
</g>
<!-- github.com/go&#45;i2p/logger.GetGoI2PLogger -->
<g id="node4" class="node">
<title>github.com/go&#45;i2p/logger.GetGoI2PLogger</title>
<g id="a_node4"><a xlink:title="github.com/go&#45;i2p/logger.GetGoI2PLogger | defined in log.go:120">
<path fill="#ffe4b5" stroke="#000000" stroke-width="1.5" d="M420.3656,-52C420.3656,-52 322.9866,-52 322.9866,-52 316.9866,-52 310.9866,-46 310.9866,-40 310.9866,-40 310.9866,-28 310.9866,-28 310.9866,-22 316.9866,-16 322.9866,-16 322.9866,-16 420.3656,-16 420.3656,-16 426.3656,-16 432.3656,-22 432.3656,-28 432.3656,-28 432.3656,-40 432.3656,-40 432.3656,-46 426.3656,-52 420.3656,-52"/>
<text text-anchor="middle" x="371.6761" y="-38.2" font-family="Verdana" font-size="14.00" fill="#000000">logger</text>
<text text-anchor="middle" x="371.6761" y="-21.4" font-family="Verdana" font-size="14.00" fill="#000000">GetGoI2PLogger</text>
</a>
</g>
</g>
<!-- github.com/go&#45;i2p/go&#45;i2p/lib/crypto/aes.init&#45;&gt;github.com/go&#45;i2p/logger.GetGoI2PLogger -->
<g id="edge13" class="edge">
<title>github.com/go&#45;i2p/go&#45;i2p/lib/crypto/aes.init&#45;&gt;github.com/go&#45;i2p/logger.GetGoI2PLogger</title>
<g id="a_edge13"><a xlink:title="at aes_decrypter.go:11: calling [github.com/go&#45;i2p/logger.GetGoI2PLogger]">
<path fill="none" stroke="#8b4513" d="M133.4678,-34C172.652,-34 245.9923,-34 300.9876,-34"/>
<polygon fill="#8b4513" stroke="#8b4513" points="301.0306,-37.5001 311.0305,-34 301.0305,-30.5001 301.0306,-37.5001"/>
</a>
</g>
</g>
<!-- github.com/go&#45;i2p/go&#45;i2p/lib/crypto/aes.pkcs7Pad -->
<g id="node5" class="node">
<title>github.com/go&#45;i2p/go&#45;i2p/lib/crypto/aes.pkcs7Pad</title>
<g id="a_node5"><a xlink:title="github.com/go&#45;i2p/go&#45;i2p/lib/crypto/aes.pkcs7Pad | defined in aes_pkcs.go:11&#10;at aes_pkcs.go:21: calling [(*github.com/go&#45;i2p/logger.Logger).WithField]&#10;at aes_pkcs.go:12: calling [(*github.com/go&#45;i2p/logger.Logger).WithFields]&#10;at aes_pkcs.go:15: calling [(*github.com/sirupsen/logrus.Logger).Debug]&#10;at aes_pkcs.go:21: calling [(*github.com/sirupsen/logrus.Logger).Debug]">
<path fill="#add8e6" stroke="#000000" stroke-width=".5" d="M398.3333,-444C398.3333,-444 345.0189,-444 345.0189,-444 339.0189,-444 333.0189,-438 333.0189,-432 333.0189,-432 333.0189,-420 333.0189,-420 333.0189,-414 339.0189,-408 345.0189,-408 345.0189,-408 398.3333,-408 398.3333,-408 404.3333,-408 410.3333,-414 410.3333,-420 410.3333,-420 410.3333,-432 410.3333,-432 410.3333,-438 404.3333,-444 398.3333,-444"/>
<text text-anchor="middle" x="371.6761" y="-421.8" font-family="Verdana" font-size="14.00" fill="#000000">pkcs7Pad</text>
</a>
</g>
</g>
<!-- github.com/go&#45;i2p/go&#45;i2p/lib/crypto/aes.pkcs7Pad&#45;&gt;(*github.com/go&#45;i2p/logger.Logger).WithField -->
<g id="edge9" class="edge">
<title>github.com/go&#45;i2p/go&#45;i2p/lib/crypto/aes.pkcs7Pad&#45;&gt;(*github.com/go&#45;i2p/logger.Logger).WithField</title>
<g id="a_edge9"><a xlink:title="at aes_pkcs.go:21: calling [(*github.com/go&#45;i2p/logger.Logger).WithField]">
<path fill="none" stroke="#8b4513" d="M410.3529,-419.3666C435.7355,-413.8558 468.9736,-404.3743 495.2708,-389 510.1951,-380.2747 509.5737,-372.5476 523.2708,-362 526.5546,-359.4713 530.0577,-356.9771 533.6318,-354.5681"/>
<polygon fill="#8b4513" stroke="#8b4513" points="535.5414,-357.5013 542.0303,-349.126 531.7348,-351.6268 535.5414,-357.5013"/>
</a>
</g>
</g>
<!-- (*github.com/go&#45;i2p/logger.Logger).WithFields -->
<g id="node14" class="node">
<title>(*github.com/go&#45;i2p/logger.Logger).WithFields</title>
<g id="a_node14"><a xlink:title="(*github.com/go&#45;i2p/logger.Logger).WithFields | defined in log.go:60">
<path fill="#ffe4b5" stroke="#000000" stroke-width="1.5" d="M605.5993,-410C605.5993,-410 543.1611,-410 543.1611,-410 537.1611,-410 531.1611,-404 531.1611,-398 531.1611,-398 531.1611,-386 531.1611,-386 531.1611,-380 537.1611,-374 543.1611,-374 543.1611,-374 605.5993,-374 605.5993,-374 611.5993,-374 617.5993,-380 617.5993,-386 617.5993,-386 617.5993,-398 617.5993,-398 617.5993,-404 611.5993,-410 605.5993,-410"/>
<text text-anchor="middle" x="574.3802" y="-396.2" font-family="Verdana" font-size="14.00" fill="#000000">logger</text>
<text text-anchor="middle" x="574.3802" y="-379.4" font-family="Verdana" font-size="14.00" fill="#000000">WithFields</text>
</a>
</g>
</g>
<!-- github.com/go&#45;i2p/go&#45;i2p/lib/crypto/aes.pkcs7Pad&#45;&gt;(*github.com/go&#45;i2p/logger.Logger).WithFields -->
<g id="edge16" class="edge">
<title>github.com/go&#45;i2p/go&#45;i2p/lib/crypto/aes.pkcs7Pad&#45;&gt;(*github.com/go&#45;i2p/logger.Logger).WithFields</title>
<g id="a_edge16"><a xlink:title="at aes_pkcs.go:12: calling [(*github.com/go&#45;i2p/logger.Logger).WithFields]">
<path fill="none" stroke="#8b4513" d="M410.3736,-424.9918C434.8808,-423.8315 467.1418,-421.3411 495.2708,-416 503.6826,-414.4028 512.4699,-412.2467 521.001,-409.8789"/>
<polygon fill="#8b4513" stroke="#8b4513" points="522.2288,-413.1672 530.8601,-407.0229 520.2811,-406.4436 522.2288,-413.1672"/>
</a>
</g>
</g>
<!-- github.com/go&#45;i2p/go&#45;i2p/lib/crypto/aes.pkcs7Pad&#45;&gt;(*github.com/sirupsen/logrus.Logger).Debug -->
<g id="edge21" class="edge">
<title>github.com/go&#45;i2p/go&#45;i2p/lib/crypto/aes.pkcs7Pad&#45;&gt;(*github.com/sirupsen/logrus.Logger).Debug</title>
<g id="a_edge21"><a xlink:title="at aes_pkcs.go:15: calling [(*github.com/sirupsen/logrus.Logger).Debug]&#10;at aes_pkcs.go:21: calling [(*github.com/sirupsen/logrus.Logger).Debug]">
<path fill="none" stroke="#8b4513" d="M410.6447,-435.2761C423.5044,-438.7591 437.7671,-443.0823 450.4868,-448 470.7995,-455.8533 473.8518,-462.4274 494.2708,-470 506.7849,-474.641 520.7933,-478.5518 533.5535,-481.6495"/>
<polygon fill="#8b4513" stroke="#8b4513" points="532.9337,-485.0988 543.4669,-483.958 534.5213,-478.2812 532.9337,-485.0988"/>
</a>
</g>
</g>
<!-- (*github.com/go&#45;i2p/go&#45;i2p/lib/crypto/aes.AESSymmetricDecrypter).Decrypt -->
<g id="node6" class="node">
<title>(*github.com/go&#45;i2p/go&#45;i2p/lib/crypto/aes.AESSymmetricDecrypter).Decrypt</title>
<g id="a_node6"><a xlink:title="(*github.com/go&#45;i2p/go&#45;i2p/lib/crypto/aes.AESSymmetricDecrypter).Decrypt | defined in aes_decrypter.go:20&#10;at aes_decrypter.go:25: calling [(*github.com/go&#45;i2p/logger.Logger).WithError]&#10;at aes_decrypter.go:40: calling [(*github.com/go&#45;i2p/logger.Logger).WithError]&#10;at aes_decrypter.go:31: calling [github.com/samber/oops.Errorf]&#10;at aes_decrypter.go:25: calling [(*github.com/go&#45;i2p/logger.Logger).Error]&#10;at aes_decrypter.go:30: calling [(*github.com/go&#45;i2p/logger.Logger).Error]&#10;at aes_decrypter.go:40: calling [(*github.com/go&#45;i2p/logger.Logger).Error]&#10;at aes_decrypter.go:38: calling [github.com/go&#45;i2p/go&#45;i2p/lib/crypto/aes.pkcs7Unpad]&#10;at aes_decrypter.go:21: calling [(*github.com/go&#45;i2p/logger.Logger).WithField]&#10;at aes_decrypter.go:44: calling [(*github.com/go&#45;i2p/logger.Logger).WithField]&#10;at aes_decrypter.go:21: calling [(*github.com/sirupsen/logrus.Logger).Debug]&#10;at aes_decrypter.go:44: calling [(*github.com/sirupsen/logrus.Logger).Debug]">
<path fill="#add8e6" stroke="#000000" stroke-width="1.5" d="M128.6278,-204C128.6278,-204 83.4536,-204 83.4536,-204 77.4536,-204 71.4536,-198 71.4536,-192 71.4536,-192 71.4536,-180 71.4536,-180 71.4536,-174 77.4536,-168 83.4536,-168 83.4536,-168 128.6278,-168 128.6278,-168 134.6278,-168 140.6278,-174 140.6278,-180 140.6278,-180 140.6278,-192 140.6278,-192 140.6278,-198 134.6278,-204 128.6278,-204"/>
<text text-anchor="middle" x="106.0407" y="-181.8" font-family="Verdana" font-size="14.00" fill="#000000">Decrypt</text>
</a>
</g>
</g>
<!-- (*github.com/go&#45;i2p/go&#45;i2p/lib/crypto/aes.AESSymmetricDecrypter).Decrypt&#45;&gt;github.com/samber/oops.Errorf -->
<g id="edge2" class="edge">
<title>(*github.com/go&#45;i2p/go&#45;i2p/lib/crypto/aes.AESSymmetricDecrypter).Decrypt&#45;&gt;github.com/samber/oops.Errorf</title>
<g id="a_edge2"><a xlink:title="at aes_decrypter.go:31: calling [github.com/samber/oops.Errorf]">
<path fill="none" stroke="#8b4513" d="M140.7237,-177.7731C160.0866,-172.6208 184.4021,-165.2094 205.0814,-156 225.4828,-146.9143 226.783,-136.7187 248.0814,-130 347.6386,-98.594 472.5047,-100.9522 534.9702,-104.7749"/>
<polygon fill="#8b4513" stroke="#8b4513" points="534.9593,-108.2817 545.1678,-105.4469 535.4196,-101.2969 534.9593,-108.2817"/>
</a>
</g>
</g>
<!-- (*github.com/go&#45;i2p/go&#45;i2p/lib/crypto/aes.AESSymmetricDecrypter).Decrypt&#45;&gt;github.com/go&#45;i2p/go&#45;i2p/lib/crypto/aes.pkcs7Unpad -->
<g id="edge10" class="edge">
<title>(*github.com/go&#45;i2p/go&#45;i2p/lib/crypto/aes.AESSymmetricDecrypter).Decrypt&#45;&gt;github.com/go&#45;i2p/go&#45;i2p/lib/crypto/aes.pkcs7Unpad</title>
<g id="a_edge10"><a xlink:title="at aes_decrypter.go:38: calling [github.com/go&#45;i2p/go&#45;i2p/lib/crypto/aes.pkcs7Unpad]">
<path fill="none" stroke="#000000" d="M140.7679,-195.282C184.8951,-207.0765 261.6605,-227.5946 314.4865,-241.7141"/>
<polygon fill="#000000" stroke="#000000" points="313.8221,-245.1594 324.3868,-244.3603 315.6297,-238.3968 313.8221,-245.1594"/>
</a>
</g>
</g>
<!-- (*github.com/go&#45;i2p/go&#45;i2p/lib/crypto/aes.AESSymmetricDecrypter).Decrypt&#45;&gt;(*github.com/go&#45;i2p/logger.Logger).WithField -->
<g id="edge17" class="edge">
<title>(*github.com/go&#45;i2p/go&#45;i2p/lib/crypto/aes.AESSymmetricDecrypter).Decrypt&#45;&gt;(*github.com/go&#45;i2p/logger.Logger).WithField</title>
<g id="a_edge17"><a xlink:title="at aes_decrypter.go:21: calling [(*github.com/go&#45;i2p/logger.Logger).WithField]&#10;at aes_decrypter.go:44: calling [(*github.com/go&#45;i2p/logger.Logger).WithField]">
<path fill="none" stroke="#8b4513" d="M140.9971,-195.3701C160.9026,-201.7434 185.6628,-211.4934 205.0814,-225 253.0858,-258.3893 239.8211,-298.3916 292.8654,-323 313.1721,-332.4207 448.4937,-332.4568 523.8803,-331.7142"/>
<polygon fill="#8b4513" stroke="#8b4513" points="524.1396,-335.2117 534.1016,-331.6051 524.0648,-328.2121 524.1396,-335.2117"/>
</a>
</g>
</g>
<!-- (*github.com/go&#45;i2p/go&#45;i2p/lib/crypto/aes.AESSymmetricDecrypter).Decrypt&#45;&gt;(*github.com/go&#45;i2p/logger.Logger).Error -->
<g id="edge6" class="edge">
<title>(*github.com/go&#45;i2p/go&#45;i2p/lib/crypto/aes.AESSymmetricDecrypter).Decrypt&#45;&gt;(*github.com/go&#45;i2p/logger.Logger).Error</title>
<g id="a_edge6"><a xlink:title="at aes_decrypter.go:25: calling [(*github.com/go&#45;i2p/logger.Logger).Error]&#10;at aes_decrypter.go:30: calling [(*github.com/go&#45;i2p/logger.Logger).Error]&#10;at aes_decrypter.go:40: calling [(*github.com/go&#45;i2p/logger.Logger).Error]">
<path fill="none" stroke="#8b4513" d="M140.8134,-182.6586C225.0251,-175.2524 437.2454,-160.8957 495.2708,-198 514.1715,-210.086 506.9599,-224.5966 523.2708,-240 527.0543,-243.5729 531.3377,-246.9051 535.7759,-249.9521"/>
<polygon fill="#8b4513" stroke="#8b4513" points="534.0954,-253.0313 544.4108,-255.4487 537.8544,-247.1262 534.0954,-253.0313"/>
</a>
</g>
</g>
<!-- (*github.com/go&#45;i2p/logger.Logger).WithError -->
<g id="node13" class="node">
<title>(*github.com/go&#45;i2p/logger.Logger).WithError</title>
<g id="a_node13"><a xlink:title="(*github.com/go&#45;i2p/logger.Logger).WithError | defined in log.go:66">
<path fill="#ffe4b5" stroke="#000000" stroke-width="1.5" d="M602.9117,-227C602.9117,-227 545.8487,-227 545.8487,-227 539.8487,-227 533.8487,-221 533.8487,-215 533.8487,-215 533.8487,-203 533.8487,-203 533.8487,-197 539.8487,-191 545.8487,-191 545.8487,-191 602.9117,-191 602.9117,-191 608.9117,-191 614.9117,-197 614.9117,-203 614.9117,-203 614.9117,-215 614.9117,-215 614.9117,-221 608.9117,-227 602.9117,-227"/>
<text text-anchor="middle" x="574.3802" y="-213.2" font-family="Verdana" font-size="14.00" fill="#000000">logger</text>
<text text-anchor="middle" x="574.3802" y="-196.4" font-family="Verdana" font-size="14.00" fill="#000000">WithError</text>
</a>
</g>
</g>
<!-- (*github.com/go&#45;i2p/go&#45;i2p/lib/crypto/aes.AESSymmetricDecrypter).Decrypt&#45;&gt;(*github.com/go&#45;i2p/logger.Logger).WithError -->
<g id="edge1" class="edge">
<title>(*github.com/go&#45;i2p/go&#45;i2p/lib/crypto/aes.AESSymmetricDecrypter).Decrypt&#45;&gt;(*github.com/go&#45;i2p/logger.Logger).WithError</title>
<g id="a_edge1"><a xlink:title="at aes_decrypter.go:25: calling [(*github.com/go&#45;i2p/logger.Logger).WithError]&#10;at aes_decrypter.go:40: calling [(*github.com/go&#45;i2p/logger.Logger).WithError]">
<path fill="none" stroke="#8b4513" d="M140.7603,-176.6065C159.9182,-171.1435 184.0248,-163.808 205.0814,-156 224.6716,-148.7358 227.6383,-141.3153 248.0814,-137 300.337,-125.9696 446.2197,-168.052 524.0171,-192.5518"/>
<polygon fill="#8b4513" stroke="#8b4513" points="523.0228,-195.9082 533.613,-195.5933 525.1379,-189.2354 523.0228,-195.9082"/>
</a>
</g>
</g>
<!-- (*github.com/go&#45;i2p/go&#45;i2p/lib/crypto/aes.AESSymmetricDecrypter).Decrypt&#45;&gt;(*github.com/sirupsen/logrus.Logger).Debug -->
<g id="edge22" class="edge">
<title>(*github.com/go&#45;i2p/go&#45;i2p/lib/crypto/aes.AESSymmetricDecrypter).Decrypt&#45;&gt;(*github.com/sirupsen/logrus.Logger).Debug</title>
<g id="a_edge22"><a xlink:title="at aes_decrypter.go:21: calling [(*github.com/sirupsen/logrus.Logger).Debug]&#10;at aes_decrypter.go:44: calling [(*github.com/sirupsen/logrus.Logger).Debug]">
<path fill="none" stroke="#8b4513" d="M140.7133,-194.2043C161.0021,-200.262 186.2478,-210.086 205.0814,-225 231.371,-245.8183 226.8958,-261.0055 248.0814,-287 266.3098,-309.3661 268.5264,-318.5039 292.8654,-334 355.2099,-373.6936 392.6151,-341.0294 450.4868,-387 479.5159,-410.0594 465.8946,-434.1417 494.2708,-458 505.6166,-467.5394 520.164,-474.4857 533.7414,-479.4182"/>
<polygon fill="#8b4513" stroke="#8b4513" points="532.8027,-482.7951 543.3967,-482.6622 535.0321,-476.1596 532.8027,-482.7951"/>
</a>
</g>
</g>
<!-- (*github.com/go&#45;i2p/go&#45;i2p/lib/crypto/aes.AESSymmetricDecrypter).DecryptNoPadding -->
<g id="node7" class="node">
<title>(*github.com/go&#45;i2p/go&#45;i2p/lib/crypto/aes.AESSymmetricDecrypter).DecryptNoPadding</title>
<g id="a_node7"><a xlink:title="(*github.com/go&#45;i2p/go&#45;i2p/lib/crypto/aes.AESSymmetricDecrypter).DecryptNoPadding | defined in aes_decrypter.go:49&#10;at aes_decrypter.go:51: calling [github.com/samber/oops.Errorf]">
<path fill="#add8e6" stroke="#000000" stroke-width="1.5" d="M160.1221,-143C160.1221,-143 51.9593,-143 51.9593,-143 45.9593,-143 39.9593,-137 39.9593,-131 39.9593,-131 39.9593,-119 39.9593,-119 39.9593,-113 45.9593,-107 51.9593,-107 51.9593,-107 160.1221,-107 160.1221,-107 166.1221,-107 172.1221,-113 172.1221,-119 172.1221,-119 172.1221,-131 172.1221,-131 172.1221,-137 166.1221,-143 160.1221,-143"/>
<text text-anchor="middle" x="106.0407" y="-120.8" font-family="Verdana" font-size="14.00" fill="#000000">DecryptNoPadding</text>
</a>
</g>
</g>
<!-- (*github.com/go&#45;i2p/go&#45;i2p/lib/crypto/aes.AESSymmetricDecrypter).DecryptNoPadding&#45;&gt;github.com/samber/oops.Errorf -->
<g id="edge18" class="edge">
<title>(*github.com/go&#45;i2p/go&#45;i2p/lib/crypto/aes.AESSymmetricDecrypter).DecryptNoPadding&#45;&gt;github.com/samber/oops.Errorf</title>
<g id="a_edge18"><a xlink:title="at aes_decrypter.go:51: calling [github.com/samber/oops.Errorf]">
<path fill="none" stroke="#8b4513" d="M172.282,-110.8894C196.0915,-106.2207 223.2065,-101.3648 248.0814,-98 356.8686,-83.2845 384.583,-82.4481 494.2708,-78 508.3423,-77.4294 522.981,-81.3979 535.836,-86.621"/>
<polygon fill="#8b4513" stroke="#8b4513" points="534.719,-89.9542 545.2796,-90.8053 537.5547,-83.5543 534.719,-89.9542"/>
</a>
</g>
</g>
<!-- (*github.com/go&#45;i2p/go&#45;i2p/lib/crypto/aes.AESSymmetricEncrypter).EncryptNoPadding -->
<g id="node8" class="node">
<title>(*github.com/go&#45;i2p/go&#45;i2p/lib/crypto/aes.AESSymmetricEncrypter).EncryptNoPadding</title>
<g id="a_node8"><a xlink:title="(*github.com/go&#45;i2p/go&#45;i2p/lib/crypto/aes.AESSymmetricEncrypter).EncryptNoPadding | defined in aes_encrypter.go:36&#10;at aes_encrypter.go:38: calling [github.com/samber/oops.Errorf]">
<path fill="#add8e6" stroke="#000000" stroke-width="1.5" d="M159.8539,-301C159.8539,-301 52.2275,-301 52.2275,-301 46.2275,-301 40.2275,-295 40.2275,-289 40.2275,-289 40.2275,-277 40.2275,-277 40.2275,-271 46.2275,-265 52.2275,-265 52.2275,-265 159.8539,-265 159.8539,-265 165.8539,-265 171.8539,-271 171.8539,-277 171.8539,-277 171.8539,-289 171.8539,-289 171.8539,-295 165.8539,-301 159.8539,-301"/>
<text text-anchor="middle" x="106.0407" y="-278.8" font-family="Verdana" font-size="14.00" fill="#000000">EncryptNoPadding</text>
</a>
</g>
</g>
<!-- (*github.com/go&#45;i2p/go&#45;i2p/lib/crypto/aes.AESSymmetricEncrypter).EncryptNoPadding&#45;&gt;github.com/samber/oops.Errorf -->
<g id="edge11" class="edge">
<title>(*github.com/go&#45;i2p/go&#45;i2p/lib/crypto/aes.AESSymmetricEncrypter).EncryptNoPadding&#45;&gt;github.com/samber/oops.Errorf</title>
<g id="a_edge11"><a xlink:title="at aes_encrypter.go:38: calling [github.com/samber/oops.Errorf]">
<path fill="none" stroke="#8b4513" d="M145.7548,-264.91C183.3218,-248.0574 241.4497,-222.6484 292.8654,-203 378.3695,-170.3248 480.6024,-137.3016 535.2868,-120.1134"/>
<polygon fill="#8b4513" stroke="#8b4513" points="536.4336,-123.4219 544.9295,-117.0919 534.3405,-116.7422 536.4336,-123.4219"/>
</a>
</g>
</g>
<!-- (*github.com/go&#45;i2p/go&#45;i2p/lib/crypto/aes.AESSymmetricEncrypter).Encrypt -->
<g id="node9" class="node">
<title>(*github.com/go&#45;i2p/go&#45;i2p/lib/crypto/aes.AESSymmetricEncrypter).Encrypt</title>
<g id="a_node9"><a xlink:title="(*github.com/go&#45;i2p/go&#45;i2p/lib/crypto/aes.AESSymmetricEncrypter).Encrypt | defined in aes_encrypter.go:17&#10;at aes_encrypter.go:22: calling [(*github.com/go&#45;i2p/logger.Logger).Error]&#10;at aes_encrypter.go:26: calling [github.com/go&#45;i2p/go&#45;i2p/lib/crypto/aes.pkcs7Pad]&#10;at aes_encrypter.go:18: calling [(*github.com/sirupsen/logrus.Logger).Debug]&#10;at aes_encrypter.go:31: calling [(*github.com/sirupsen/logrus.Logger).Debug]&#10;at aes_encrypter.go:22: calling [(*github.com/go&#45;i2p/logger.Logger).WithError]&#10;at aes_encrypter.go:18: calling [(*github.com/go&#45;i2p/logger.Logger).WithField]&#10;at aes_encrypter.go:31: calling [(*github.com/go&#45;i2p/logger.Logger).WithField]">
<path fill="#add8e6" stroke="#000000" stroke-width="1.5" d="M128.3598,-362C128.3598,-362 83.7216,-362 83.7216,-362 77.7216,-362 71.7216,-356 71.7216,-350 71.7216,-350 71.7216,-338 71.7216,-338 71.7216,-332 77.7216,-326 83.7216,-326 83.7216,-326 128.3598,-326 128.3598,-326 134.3598,-326 140.3598,-332 140.3598,-338 140.3598,-338 140.3598,-350 140.3598,-350 140.3598,-356 134.3598,-362 128.3598,-362"/>
<text text-anchor="middle" x="106.0407" y="-339.8" font-family="Verdana" font-size="14.00" fill="#000000">Encrypt</text>
</a>
</g>
</g>
<!-- (*github.com/go&#45;i2p/go&#45;i2p/lib/crypto/aes.AESSymmetricEncrypter).Encrypt&#45;&gt;github.com/go&#45;i2p/go&#45;i2p/lib/crypto/aes.pkcs7Pad -->
<g id="edge5" class="edge">
<title>(*github.com/go&#45;i2p/go&#45;i2p/lib/crypto/aes.AESSymmetricEncrypter).Encrypt&#45;&gt;github.com/go&#45;i2p/go&#45;i2p/lib/crypto/aes.pkcs7Pad</title>
<g id="a_edge5"><a xlink:title="at aes_encrypter.go:26: calling [github.com/go&#45;i2p/go&#45;i2p/lib/crypto/aes.pkcs7Pad]">
<path fill="none" stroke="#000000" d="M140.2241,-354.5522C186.6932,-368.8969 270.0657,-394.6335 323.0413,-410.9867"/>
<polygon fill="#000000" stroke="#000000" points="322.2997,-414.4207 332.8872,-414.0261 324.3645,-407.7321 322.2997,-414.4207"/>
</a>
</g>
</g>
<!-- (*github.com/go&#45;i2p/go&#45;i2p/lib/crypto/aes.AESSymmetricEncrypter).Encrypt&#45;&gt;(*github.com/go&#45;i2p/logger.Logger).WithField -->
<g id="edge20" class="edge">
<title>(*github.com/go&#45;i2p/go&#45;i2p/lib/crypto/aes.AESSymmetricEncrypter).Encrypt&#45;&gt;(*github.com/go&#45;i2p/logger.Logger).WithField</title>
<g id="a_edge20"><a xlink:title="at aes_encrypter.go:18: calling [(*github.com/go&#45;i2p/logger.Logger).WithField]&#10;at aes_encrypter.go:31: calling [(*github.com/go&#45;i2p/logger.Logger).WithField]">
<path fill="none" stroke="#8b4513" d="M140.4144,-343.5214C208.2708,-342.5066 364.2298,-339.827 495.2708,-335 504.4547,-334.6617 514.2346,-334.2274 523.6737,-333.7704"/>
<polygon fill="#8b4513" stroke="#8b4513" points="523.9244,-337.2623 533.7379,-333.2689 523.576,-330.271 523.9244,-337.2623"/>
</a>
</g>
</g>
<!-- (*github.com/go&#45;i2p/go&#45;i2p/lib/crypto/aes.AESSymmetricEncrypter).Encrypt&#45;&gt;(*github.com/go&#45;i2p/logger.Logger).Error -->
<g id="edge4" class="edge">
<title>(*github.com/go&#45;i2p/go&#45;i2p/lib/crypto/aes.AESSymmetricEncrypter).Encrypt&#45;&gt;(*github.com/go&#45;i2p/logger.Logger).Error</title>
<g id="a_edge4"><a xlink:title="at aes_encrypter.go:22: calling [(*github.com/go&#45;i2p/logger.Logger).Error]">
<path fill="none" stroke="#8b4513" d="M140.3842,-340.0037C202.4797,-332.6027 337.4752,-315.7087 450.4868,-296 478.7143,-291.0772 510.324,-284.4251 534.5497,-279.0819"/>
<polygon fill="#8b4513" stroke="#8b4513" points="535.4467,-282.468 544.4487,-276.8809 533.9274,-275.6349 535.4467,-282.468"/>
</a>
</g>
</g>
<!-- (*github.com/go&#45;i2p/go&#45;i2p/lib/crypto/aes.AESSymmetricEncrypter).Encrypt&#45;&gt;(*github.com/go&#45;i2p/logger.Logger).WithError -->
<g id="edge15" class="edge">
<title>(*github.com/go&#45;i2p/go&#45;i2p/lib/crypto/aes.AESSymmetricEncrypter).Encrypt&#45;&gt;(*github.com/go&#45;i2p/logger.Logger).WithError</title>
<g id="a_edge15"><a xlink:title="at aes_encrypter.go:22: calling [(*github.com/go&#45;i2p/logger.Logger).WithError]">
<path fill="none" stroke="#8b4513" d="M140.5019,-338.2956C160.4757,-333.8732 185.4711,-326.352 205.0814,-314 254.0013,-283.1866 240.1326,-241.7039 292.8654,-218 333.8947,-199.5569 450.3329,-217.0353 495.2708,-215 504.4661,-214.5835 514.2515,-213.9756 523.6924,-213.3046"/>
<polygon fill="#8b4513" stroke="#8b4513" points="524.0437,-216.7883 533.7573,-212.5578 523.5257,-209.8075 524.0437,-216.7883"/>
</a>
</g>
</g>
<!-- (*github.com/go&#45;i2p/go&#45;i2p/lib/crypto/aes.AESSymmetricEncrypter).Encrypt&#45;&gt;(*github.com/sirupsen/logrus.Logger).Debug -->
<g id="edge14" class="edge">
<title>(*github.com/go&#45;i2p/go&#45;i2p/lib/crypto/aes.AESSymmetricEncrypter).Encrypt&#45;&gt;(*github.com/sirupsen/logrus.Logger).Debug</title>
<g id="a_edge14"><a xlink:title="at aes_encrypter.go:18: calling [(*github.com/sirupsen/logrus.Logger).Debug]&#10;at aes_encrypter.go:31: calling [(*github.com/sirupsen/logrus.Logger).Debug]">
<path fill="none" stroke="#8b4513" d="M112.3885,-362.2016C127.9235,-403.5419 172.2263,-503.9473 248.0814,-543 342.4321,-591.5748 470.7167,-542.3292 534.6919,-511.2309"/>
<polygon fill="#8b4513" stroke="#8b4513" points="536.2481,-514.366 543.6525,-506.7881 533.1386,-508.0945 536.2481,-514.366"/>
</a>
</g>
</g>
<!-- (*github.com/go&#45;i2p/go&#45;i2p/lib/crypto/aes.AESSymmetricKey).NewEncrypter -->
<g id="node10" class="node">
<title>(*github.com/go&#45;i2p/go&#45;i2p/lib/crypto/aes.AESSymmetricKey).NewEncrypter</title>
<g id="a_node10"><a xlink:title="(*github.com/go&#45;i2p/go&#45;i2p/lib/crypto/aes.AESSymmetricKey).NewEncrypter | defined in aes_key.go:12&#10;at aes_key.go:13: calling [(*github.com/sirupsen/logrus.Logger).Debug]">
<path fill="#add8e6" stroke="#000000" stroke-width="1.5" d="M412.2982,-522C412.2982,-522 331.054,-522 331.054,-522 325.054,-522 319.054,-516 319.054,-510 319.054,-510 319.054,-498 319.054,-498 319.054,-492 325.054,-486 331.054,-486 331.054,-486 412.2982,-486 412.2982,-486 418.2982,-486 424.2982,-492 424.2982,-498 424.2982,-498 424.2982,-510 424.2982,-510 424.2982,-516 418.2982,-522 412.2982,-522"/>
<text text-anchor="middle" x="371.6761" y="-499.8" font-family="Verdana" font-size="14.00" fill="#000000">NewEncrypter</text>
</a>
</g>
</g>
<!-- (*github.com/go&#45;i2p/go&#45;i2p/lib/crypto/aes.AESSymmetricKey).NewEncrypter&#45;&gt;(*github.com/sirupsen/logrus.Logger).Debug -->
<g id="edge8" class="edge">
<title>(*github.com/go&#45;i2p/go&#45;i2p/lib/crypto/aes.AESSymmetricKey).NewEncrypter&#45;&gt;(*github.com/sirupsen/logrus.Logger).Debug</title>
<g id="a_edge8"><a xlink:title="at aes_key.go:13: calling [(*github.com/sirupsen/logrus.Logger).Debug]">
<path fill="none" stroke="#8b4513" d="M424.4643,-512.0485C446.4321,-514.1979 472.155,-515.1544 495.2708,-512 507.9608,-510.2683 521.4874,-507.0424 533.7003,-503.5844"/>
<polygon fill="#8b4513" stroke="#8b4513" points="535.0079,-506.8476 543.603,-500.6528 533.0208,-500.1355 535.0079,-506.8476"/>
</a>
</g>
</g>
</g>
</svg>
