<?xml version="1.0" encoding="UTF-8" standalone="no"?>
<!DOCTYPE svg PUBLIC "-//W3C//DTD SVG 1.1//EN"
 "http://www.w3.org/Graphics/SVG/1.1/DTD/svg11.dtd">
<!-- Generated by graphviz version 2.40.1 (20161225.0304)
 -->
<!-- Title: gocallvis Pages: 1 -->
<svg width="365pt" height="722pt"
 viewBox="0.00 0.00 364.72 722.00" xmlns="http://www.w3.org/2000/svg" xmlns:xlink="http://www.w3.org/1999/xlink">
<g id="graph0" class="graph" transform="scale(1 1) rotate(0) translate(0 722)">
<title>gocallvis</title>
<polygon fill="#d3d3d3" stroke="transparent" points="0,0 0,-722 364.7182,-722 364.7182,0 0,0"/>
<g id="clust1" class="cluster">
<title>cluster_focus</title>
<polygon fill="#e6ecfa" stroke="#000000" stroke-width=".5" points="0,-8 0,-714 356.7182,-714 356.7182,-8 0,-8"/>
<text text-anchor="middle" x="178.3591" y="-693.8" font-family="Arial" font-size="18.00" fill="#000000">bootstrap</text>
</g>
<g id="clust5" class="cluster">
<title>cluster_github.com/go&#45;i2p/go&#45;i2p/lib/netdb/reseed.Reseed</title>
<g id="a_clust5"><a xlink:title="type: github.com/go&#45;i2p/go&#45;i2p/lib/netdb/reseed.Reseed">
<path fill="#eed8ae" stroke="#000000" stroke-width=".5" d="M242.0218,-598C242.0218,-598 334.2252,-598 334.2252,-598 340.2252,-598 346.2252,-604 346.2252,-610 346.2252,-610 346.2252,-664 346.2252,-664 346.2252,-670 340.2252,-676 334.2252,-676 334.2252,-676 242.0218,-676 242.0218,-676 236.0218,-676 230.0218,-670 230.0218,-664 230.0218,-664 230.0218,-610 230.0218,-610 230.0218,-604 236.0218,-598 242.0218,-598"/>
<text text-anchor="middle" x="288.1235" y="-606.5" font-family="Arial" font-size="15.00" fill="#222222">(Reseed)</text>
</a>
</g>
</g>
<g id="clust4" class="cluster">
<title>cluster_*github.com/sirupsen/logrus.Logger</title>
<g id="a_clust4"><a xlink:title="type: *github.com/sirupsen/logrus.Logger">
<path fill="#eed8ae" stroke="#000000" stroke-width=".5" d="M261.4629,-451C261.4629,-451 315.7841,-451 315.7841,-451 321.7841,-451 327.7841,-457 327.7841,-463 327.7841,-463 327.7841,-578 327.7841,-578 327.7841,-584 321.7841,-590 315.7841,-590 315.7841,-590 261.4629,-590 261.4629,-590 255.4629,-590 249.4629,-584 249.4629,-578 249.4629,-578 249.4629,-463 249.4629,-463 249.4629,-457 255.4629,-451 261.4629,-451"/>
<text text-anchor="middle" x="288.6235" y="-459.5" font-family="Arial" font-size="15.00" fill="#222222">(*Logger)</text>
</a>
</g>
</g>
<g id="clust3" class="cluster">
<title>cluster_*github.com/go&#45;i2p/logger.Logger</title>
<g id="a_clust3"><a xlink:title="type: *github.com/go&#45;i2p/logger.Logger">
<path fill="#eed8ae" stroke="#000000" stroke-width=".5" d="M249.0141,-182C249.0141,-182 327.2329,-182 327.2329,-182 333.2329,-182 339.2329,-188 339.2329,-194 339.2329,-194 339.2329,-431 339.2329,-431 339.2329,-437 333.2329,-443 327.2329,-443 327.2329,-443 249.0141,-443 249.0141,-443 243.0141,-443 237.0141,-437 237.0141,-431 237.0141,-431 237.0141,-194 237.0141,-194 237.0141,-188 243.0141,-182 249.0141,-182"/>
<text text-anchor="middle" x="288.1235" y="-190.5" font-family="Arial" font-size="15.00" fill="#222222">(*Logger)</text>
</a>
</g>
</g>
<g id="clust2" class="cluster">
<title>cluster_*github.com/go&#45;i2p/go&#45;i2p/lib/bootstrap.ReseedBootstrap</title>
<g id="a_clust2"><a xlink:title="type: *github.com/go&#45;i2p/go&#45;i2p/lib/bootstrap.ReseedBootstrap">
<path fill="#b0c4de" stroke="#000000" stroke-width=".5" d="M20,-304C20,-304 143.5288,-304 143.5288,-304 149.5288,-304 155.5288,-310 155.5288,-316 155.5288,-316 155.5288,-370 155.5288,-370 155.5288,-376 149.5288,-382 143.5288,-382 143.5288,-382 20,-382 20,-382 14,-382 8,-376 8,-370 8,-370 8,-316 8,-316 8,-310 14,-304 20,-304"/>
<text text-anchor="middle" x="81.7644" y="-312.5" font-family="Arial" font-size="15.00" fill="#222222">(*ReseedBootstrap)</text>
</a>
</g>
</g>
<!-- github.com/samber/oops.Errorf -->
<g id="node1" class="node">
<title>github.com/samber/oops.Errorf</title>
<g id="a_node1"><a xlink:title="github.com/samber/oops.Errorf | defined in oops.go:34">
<path fill="#ffe4b5" stroke="#000000" stroke-width="1.5" d="M305.3188,-113C305.3188,-113 270.9282,-113 270.9282,-113 264.9282,-113 258.9282,-107 258.9282,-101 258.9282,-101 258.9282,-89 258.9282,-89 258.9282,-83 264.9282,-77 270.9282,-77 270.9282,-77 305.3188,-77 305.3188,-77 311.3188,-77 317.3188,-83 317.3188,-89 317.3188,-89 317.3188,-101 317.3188,-101 317.3188,-107 311.3188,-113 305.3188,-113"/>
<text text-anchor="middle" x="288.1235" y="-99.2" font-family="Verdana" font-size="14.00" fill="#000000">oops</text>
<text text-anchor="middle" x="288.1235" y="-82.4" font-family="Verdana" font-size="14.00" fill="#000000">Errorf</text>
</a>
</g>
</g>
<!-- github.com/go&#45;i2p/go&#45;i2p/lib/netdb/reseed.NewReseed -->
<g id="node2" class="node">
<title>github.com/go&#45;i2p/go&#45;i2p/lib/netdb/reseed.NewReseed</title>
<g id="a_node2"><a xlink:title="github.com/go&#45;i2p/go&#45;i2p/lib/netdb/reseed.NewReseed | defined in new.go:10">
<path fill="#ffe4b5" stroke="#000000" stroke-width="1.5" d="M321.4764,-174C321.4764,-174 254.7706,-174 254.7706,-174 248.7706,-174 242.7706,-168 242.7706,-162 242.7706,-162 242.7706,-150 242.7706,-150 242.7706,-144 248.7706,-138 254.7706,-138 254.7706,-138 321.4764,-138 321.4764,-138 327.4764,-138 333.4764,-144 333.4764,-150 333.4764,-150 333.4764,-162 333.4764,-162 333.4764,-168 327.4764,-174 321.4764,-174"/>
<text text-anchor="middle" x="288.1235" y="-160.2" font-family="Verdana" font-size="14.00" fill="#000000">reseed</text>
<text text-anchor="middle" x="288.1235" y="-143.4" font-family="Verdana" font-size="14.00" fill="#000000">NewReseed</text>
</a>
</g>
</g>
<!-- github.com/go&#45;i2p/go&#45;i2p/lib/bootstrap.init -->
<g id="node3" class="node">
<title>github.com/go&#45;i2p/go&#45;i2p/lib/bootstrap.init</title>
<g id="a_node3"><a xlink:title="github.com/go&#45;i2p/go&#45;i2p/lib/bootstrap.init | defined in .:0&#10;at reseed_bootstrap.go:15: calling [github.com/go&#45;i2p/logger.GetGoI2PLogger]">
<path fill="#add8e6" stroke="#000000" stroke-width=".5" d="M96.2644,-52C96.2644,-52 66.2644,-52 66.2644,-52 60.2644,-52 54.2644,-46 54.2644,-40 54.2644,-40 54.2644,-28 54.2644,-28 54.2644,-22 60.2644,-16 66.2644,-16 66.2644,-16 96.2644,-16 96.2644,-16 102.2644,-16 108.2644,-22 108.2644,-28 108.2644,-28 108.2644,-40 108.2644,-40 108.2644,-46 102.2644,-52 96.2644,-52"/>
<text text-anchor="middle" x="81.2644" y="-29.8" font-family="Verdana" font-size="14.00" fill="#000000">init</text>
</a>
</g>
</g>
<!-- github.com/go&#45;i2p/logger.GetGoI2PLogger -->
<g id="node4" class="node">
<title>github.com/go&#45;i2p/logger.GetGoI2PLogger</title>
<g id="a_node4"><a xlink:title="github.com/go&#45;i2p/logger.GetGoI2PLogger | defined in log.go:120">
<path fill="#ffe4b5" stroke="#000000" stroke-width="1.5" d="M336.813,-52C336.813,-52 239.434,-52 239.434,-52 233.434,-52 227.434,-46 227.434,-40 227.434,-40 227.434,-28 227.434,-28 227.434,-22 233.434,-16 239.434,-16 239.434,-16 336.813,-16 336.813,-16 342.813,-16 348.813,-22 348.813,-28 348.813,-28 348.813,-40 348.813,-40 348.813,-46 342.813,-52 336.813,-52"/>
<text text-anchor="middle" x="288.1235" y="-38.2" font-family="Verdana" font-size="14.00" fill="#000000">logger</text>
<text text-anchor="middle" x="288.1235" y="-21.4" font-family="Verdana" font-size="14.00" fill="#000000">GetGoI2PLogger</text>
</a>
</g>
</g>
<!-- github.com/go&#45;i2p/go&#45;i2p/lib/bootstrap.init&#45;&gt;github.com/go&#45;i2p/logger.GetGoI2PLogger -->
<g id="edge10" class="edge">
<title>github.com/go&#45;i2p/go&#45;i2p/lib/bootstrap.init&#45;&gt;github.com/go&#45;i2p/logger.GetGoI2PLogger</title>
<g id="a_edge10"><a xlink:title="at reseed_bootstrap.go:15: calling [github.com/go&#45;i2p/logger.GetGoI2PLogger]">
<path fill="none" stroke="#8b4513" d="M108.3076,-34C135.736,-34 179.3573,-34 216.7663,-34"/>
<polygon fill="#8b4513" stroke="#8b4513" points="217.1342,-37.5001 227.1342,-34 217.1341,-30.5001 217.1342,-37.5001"/>
</a>
</g>
</g>
<!-- (*github.com/go&#45;i2p/go&#45;i2p/lib/bootstrap.ReseedBootstrap).GetPeers -->
<g id="node5" class="node">
<title>(*github.com/go&#45;i2p/go&#45;i2p/lib/bootstrap.ReseedBootstrap).GetPeers</title>
<g id="a_node5"><a xlink:title="(*github.com/go&#45;i2p/go&#45;i2p/lib/bootstrap.ReseedBootstrap).GetPeers | defined in reseed_bootstrap.go:32&#10;at reseed_bootstrap.go:40: calling [github.com/samber/oops.Errorf]&#10;at reseed_bootstrap.go:53: calling [github.com/samber/oops.Errorf]&#10;at reseed_bootstrap.go:73: calling [github.com/samber/oops.Errorf]&#10;at reseed_bootstrap.go:43: calling [(*github.com/go&#45;i2p/logger.Logger).WithField]&#10;at reseed_bootstrap.go:52: calling [(*github.com/go&#45;i2p/logger.Logger).WithField]&#10;at reseed_bootstrap.go:43: calling [(*github.com/sirupsen/logrus.Logger).Debug]&#10;at reseed_bootstrap.go:52: calling [(*github.com/go&#45;i2p/logger.Logger).WithError]&#10;at reseed_bootstrap.go:52: calling [(*github.com/go&#45;i2p/logger.Logger).Warn]&#10;at reseed_bootstrap.go:63: calling [(*github.com/sirupsen/logrus.Logger).Info]&#10;at reseed_bootstrap.go:46: calling [github.com/go&#45;i2p/go&#45;i2p/lib/netdb/reseed.NewReseed]&#10;at reseed_bootstrap.go:49: calling [(github.com/go&#45;i2p/go&#45;i2p/lib/netdb/reseed.Reseed).SingleReseed]&#10;at reseed_bootstrap.go:59: calling [(*github.com/go&#45;i2p/logger.Logger).WithFields]">
<path fill="#add8e6" stroke="#000000" stroke-width="1.5" d="M106.2947,-374C106.2947,-374 56.2341,-374 56.2341,-374 50.2341,-374 44.2341,-368 44.2341,-362 44.2341,-362 44.2341,-350 44.2341,-350 44.2341,-344 50.2341,-338 56.2341,-338 56.2341,-338 106.2947,-338 106.2947,-338 112.2947,-338 118.2947,-344 118.2947,-350 118.2947,-350 118.2947,-362 118.2947,-362 118.2947,-368 112.2947,-374 106.2947,-374"/>
<text text-anchor="middle" x="81.2644" y="-351.8" font-family="Verdana" font-size="14.00" fill="#000000">GetPeers</text>
</a>
</g>
</g>
<!-- (*github.com/go&#45;i2p/go&#45;i2p/lib/bootstrap.ReseedBootstrap).GetPeers&#45;&gt;github.com/samber/oops.Errorf -->
<g id="edge1" class="edge">
<title>(*github.com/go&#45;i2p/go&#45;i2p/lib/bootstrap.ReseedBootstrap).GetPeers&#45;&gt;github.com/samber/oops.Errorf</title>
<g id="a_edge1"><a xlink:title="at reseed_bootstrap.go:40: calling [github.com/samber/oops.Errorf]&#10;at reseed_bootstrap.go:53: calling [github.com/samber/oops.Errorf]&#10;at reseed_bootstrap.go:73: calling [github.com/samber/oops.Errorf]">
<path fill="none" stroke="#8b4513" d="M118.4074,-352.073C131.5385,-349.0001 145.5161,-343.5697 155.5288,-334 190.8891,-300.2044 195.4391,-162.9154 227.5288,-126 233.5557,-119.0668 241.5102,-113.4857 249.6658,-109.0748"/>
<polygon fill="#8b4513" stroke="#8b4513" points="251.4166,-112.115 258.8672,-104.5824 248.3454,-105.8247 251.4166,-112.115"/>
</a>
</g>
</g>
<!-- (*github.com/go&#45;i2p/go&#45;i2p/lib/bootstrap.ReseedBootstrap).GetPeers&#45;&gt;github.com/go&#45;i2p/go&#45;i2p/lib/netdb/reseed.NewReseed -->
<g id="edge7" class="edge">
<title>(*github.com/go&#45;i2p/go&#45;i2p/lib/bootstrap.ReseedBootstrap).GetPeers&#45;&gt;github.com/go&#45;i2p/go&#45;i2p/lib/netdb/reseed.NewReseed</title>
<g id="a_edge7"><a xlink:title="at reseed_bootstrap.go:46: calling [github.com/go&#45;i2p/go&#45;i2p/lib/netdb/reseed.NewReseed]">
<path fill="none" stroke="#8b4513" d="M118.6751,-351.3434C131.5313,-348.1844 145.2575,-342.8857 155.5288,-334 213.2793,-284.0401 171.3098,-229.6772 227.5288,-178 229.4394,-176.2438 231.5009,-174.6252 233.6705,-173.1338"/>
<polygon fill="#8b4513" stroke="#8b4513" points="235.6115,-176.0535 242.4829,-167.9892 232.0823,-170.0083 235.6115,-176.0535"/>
</a>
</g>
</g>
<!-- (*github.com/go&#45;i2p/logger.Logger).WithField -->
<g id="node6" class="node">
<title>(*github.com/go&#45;i2p/logger.Logger).WithField</title>
<g id="a_node6"><a xlink:title="(*github.com/go&#45;i2p/logger.Logger).WithField | defined in log.go:54">
<path fill="#ffe4b5" stroke="#000000" stroke-width="1.5" d="M316.398,-252C316.398,-252 259.849,-252 259.849,-252 253.849,-252 247.849,-246 247.849,-240 247.849,-240 247.849,-228 247.849,-228 247.849,-222 253.849,-216 259.849,-216 259.849,-216 316.398,-216 316.398,-216 322.398,-216 328.398,-222 328.398,-228 328.398,-228 328.398,-240 328.398,-240 328.398,-246 322.398,-252 316.398,-252"/>
<text text-anchor="middle" x="288.1235" y="-238.2" font-family="Verdana" font-size="14.00" fill="#000000">logger</text>
<text text-anchor="middle" x="288.1235" y="-221.4" font-family="Verdana" font-size="14.00" fill="#000000">WithField</text>
</a>
</g>
</g>
<!-- (*github.com/go&#45;i2p/go&#45;i2p/lib/bootstrap.ReseedBootstrap).GetPeers&#45;&gt;(*github.com/go&#45;i2p/logger.Logger).WithField -->
<g id="edge2" class="edge">
<title>(*github.com/go&#45;i2p/go&#45;i2p/lib/bootstrap.ReseedBootstrap).GetPeers&#45;&gt;(*github.com/go&#45;i2p/logger.Logger).WithField</title>
<g id="a_edge2"><a xlink:title="at reseed_bootstrap.go:43: calling [(*github.com/go&#45;i2p/logger.Logger).WithField]&#10;at reseed_bootstrap.go:52: calling [(*github.com/go&#45;i2p/logger.Logger).WithField]">
<path fill="none" stroke="#8b4513" d="M118.5683,-348.6617C130.8549,-345.2944 144.2489,-340.5496 155.5288,-334 193.8581,-311.7444 191.4175,-290.6986 227.5288,-265 231.4159,-262.2337 235.5842,-259.5689 239.8482,-257.0424"/>
<polygon fill="#8b4513" stroke="#8b4513" points="241.6859,-260.0242 248.6757,-252.0623 238.2464,-253.9275 241.6859,-260.0242"/>
</a>
</g>
</g>
<!-- (*github.com/go&#45;i2p/logger.Logger).WithError -->
<g id="node7" class="node">
<title>(*github.com/go&#45;i2p/logger.Logger).WithError</title>
<g id="a_node7"><a xlink:title="(*github.com/go&#45;i2p/logger.Logger).WithError | defined in log.go:66">
<path fill="#ffe4b5" stroke="#000000" stroke-width="1.5" d="M316.655,-313C316.655,-313 259.592,-313 259.592,-313 253.592,-313 247.592,-307 247.592,-301 247.592,-301 247.592,-289 247.592,-289 247.592,-283 253.592,-277 259.592,-277 259.592,-277 316.655,-277 316.655,-277 322.655,-277 328.655,-283 328.655,-289 328.655,-289 328.655,-301 328.655,-301 328.655,-307 322.655,-313 316.655,-313"/>
<text text-anchor="middle" x="288.1235" y="-299.2" font-family="Verdana" font-size="14.00" fill="#000000">logger</text>
<text text-anchor="middle" x="288.1235" y="-282.4" font-family="Verdana" font-size="14.00" fill="#000000">WithError</text>
</a>
</g>
</g>
<!-- (*github.com/go&#45;i2p/go&#45;i2p/lib/bootstrap.ReseedBootstrap).GetPeers&#45;&gt;(*github.com/go&#45;i2p/logger.Logger).WithError -->
<g id="edge4" class="edge">
<title>(*github.com/go&#45;i2p/go&#45;i2p/lib/bootstrap.ReseedBootstrap).GetPeers&#45;&gt;(*github.com/go&#45;i2p/logger.Logger).WithError</title>
<g id="a_edge4"><a xlink:title="at reseed_bootstrap.go:52: calling [(*github.com/go&#45;i2p/logger.Logger).WithError]">
<path fill="none" stroke="#8b4513" d="M118.725,-344.9534C151.9288,-335.162 200.7001,-320.78 237.3948,-309.9592"/>
<polygon fill="#8b4513" stroke="#8b4513" points="238.7997,-313.194 247.4014,-307.0084 236.8198,-306.4798 238.7997,-313.194"/>
</a>
</g>
</g>
<!-- (*github.com/go&#45;i2p/logger.Logger).Warn -->
<g id="node8" class="node">
<title>(*github.com/go&#45;i2p/logger.Logger).Warn</title>
<g id="a_node8"><a xlink:title="(*github.com/go&#45;i2p/logger.Logger).Warn | defined in log.go:30">
<path fill="#ffe4b5" stroke="#000000" stroke-width="1.5" d="M305.8898,-374C305.8898,-374 270.3572,-374 270.3572,-374 264.3572,-374 258.3572,-368 258.3572,-362 258.3572,-362 258.3572,-350 258.3572,-350 258.3572,-344 264.3572,-338 270.3572,-338 270.3572,-338 305.8898,-338 305.8898,-338 311.8898,-338 317.8898,-344 317.8898,-350 317.8898,-350 317.8898,-362 317.8898,-362 317.8898,-368 311.8898,-374 305.8898,-374"/>
<text text-anchor="middle" x="288.1235" y="-360.2" font-family="Verdana" font-size="14.00" fill="#000000">logger</text>
<text text-anchor="middle" x="288.1235" y="-343.4" font-family="Verdana" font-size="14.00" fill="#000000">Warn</text>
</a>
</g>
</g>
<!-- (*github.com/go&#45;i2p/go&#45;i2p/lib/bootstrap.ReseedBootstrap).GetPeers&#45;&gt;(*github.com/go&#45;i2p/logger.Logger).Warn -->
<g id="edge5" class="edge">
<title>(*github.com/go&#45;i2p/go&#45;i2p/lib/bootstrap.ReseedBootstrap).GetPeers&#45;&gt;(*github.com/go&#45;i2p/logger.Logger).Warn</title>
<g id="a_edge5"><a xlink:title="at reseed_bootstrap.go:52: calling [(*github.com/go&#45;i2p/logger.Logger).Warn]">
<path fill="none" stroke="#8b4513" d="M118.725,-356C155.3343,-356 210.8683,-356 248.2746,-356"/>
<polygon fill="#8b4513" stroke="#8b4513" points="248.3136,-359.5001 258.3136,-356 248.3135,-352.5001 248.3136,-359.5001"/>
</a>
</g>
</g>
<!-- (*github.com/go&#45;i2p/logger.Logger).WithFields -->
<g id="node9" class="node">
<title>(*github.com/go&#45;i2p/logger.Logger).WithFields</title>
<g id="a_node9"><a xlink:title="(*github.com/go&#45;i2p/logger.Logger).WithFields | defined in log.go:60">
<path fill="#ffe4b5" stroke="#000000" stroke-width="1.5" d="M319.3426,-435C319.3426,-435 256.9044,-435 256.9044,-435 250.9044,-435 244.9044,-429 244.9044,-423 244.9044,-423 244.9044,-411 244.9044,-411 244.9044,-405 250.9044,-399 256.9044,-399 256.9044,-399 319.3426,-399 319.3426,-399 325.3426,-399 331.3426,-405 331.3426,-411 331.3426,-411 331.3426,-423 331.3426,-423 331.3426,-429 325.3426,-435 319.3426,-435"/>
<text text-anchor="middle" x="288.1235" y="-421.2" font-family="Verdana" font-size="14.00" fill="#000000">logger</text>
<text text-anchor="middle" x="288.1235" y="-404.4" font-family="Verdana" font-size="14.00" fill="#000000">WithFields</text>
</a>
</g>
</g>
<!-- (*github.com/go&#45;i2p/go&#45;i2p/lib/bootstrap.ReseedBootstrap).GetPeers&#45;&gt;(*github.com/go&#45;i2p/logger.Logger).WithFields -->
<g id="edge9" class="edge">
<title>(*github.com/go&#45;i2p/go&#45;i2p/lib/bootstrap.ReseedBootstrap).GetPeers&#45;&gt;(*github.com/go&#45;i2p/logger.Logger).WithFields</title>
<g id="a_edge9"><a xlink:title="at reseed_bootstrap.go:59: calling [(*github.com/go&#45;i2p/logger.Logger).WithFields]">
<path fill="none" stroke="#8b4513" d="M118.725,-367.0466C151.1839,-376.6183 198.5195,-390.577 234.9071,-401.3072"/>
<polygon fill="#8b4513" stroke="#8b4513" points="234.2768,-404.7703 244.8585,-404.2417 236.2568,-398.0561 234.2768,-404.7703"/>
</a>
</g>
</g>
<!-- (*github.com/sirupsen/logrus.Logger).Debug -->
<g id="node10" class="node">
<title>(*github.com/sirupsen/logrus.Logger).Debug</title>
<g id="a_node10"><a xlink:title="(*github.com/sirupsen/logrus.Logger).Debug | defined in logger.go:221">
<path fill="#ffe4b5" stroke="#000000" stroke-width="1.5" d="M306.9455,-521C306.9455,-521 269.3015,-521 269.3015,-521 263.3015,-521 257.3015,-515 257.3015,-509 257.3015,-509 257.3015,-497 257.3015,-497 257.3015,-491 263.3015,-485 269.3015,-485 269.3015,-485 306.9455,-485 306.9455,-485 312.9455,-485 318.9455,-491 318.9455,-497 318.9455,-497 318.9455,-509 318.9455,-509 318.9455,-515 312.9455,-521 306.9455,-521"/>
<text text-anchor="middle" x="288.1235" y="-507.2" font-family="Verdana" font-size="14.00" fill="#000000">logrus</text>
<text text-anchor="middle" x="288.1235" y="-490.4" font-family="Verdana" font-size="14.00" fill="#000000">Debug</text>
</a>
</g>
</g>
<!-- (*github.com/go&#45;i2p/go&#45;i2p/lib/bootstrap.ReseedBootstrap).GetPeers&#45;&gt;(*github.com/sirupsen/logrus.Logger).Debug -->
<g id="edge3" class="edge">
<title>(*github.com/go&#45;i2p/go&#45;i2p/lib/bootstrap.ReseedBootstrap).GetPeers&#45;&gt;(*github.com/sirupsen/logrus.Logger).Debug</title>
<g id="a_edge3"><a xlink:title="at reseed_bootstrap.go:43: calling [(*github.com/sirupsen/logrus.Logger).Debug]">
<path fill="none" stroke="#8b4513" d="M106.6294,-374.0251C143.6948,-400.3648 212.738,-449.4289 254.1541,-478.8604"/>
<polygon fill="#8b4513" stroke="#8b4513" points="252.3722,-481.8878 262.551,-484.8275 256.427,-476.1818 252.3722,-481.8878"/>
</a>
</g>
</g>
<!-- (*github.com/sirupsen/logrus.Logger).Info -->
<g id="node11" class="node">
<title>(*github.com/sirupsen/logrus.Logger).Info</title>
<g id="a_node11"><a xlink:title="(*github.com/sirupsen/logrus.Logger).Info | defined in logger.go:225">
<path fill="#ffe4b5" stroke="#000000" stroke-width="1.5" d="M305.6193,-582C305.6193,-582 270.6277,-582 270.6277,-582 264.6277,-582 258.6277,-576 258.6277,-570 258.6277,-570 258.6277,-558 258.6277,-558 258.6277,-552 264.6277,-546 270.6277,-546 270.6277,-546 305.6193,-546 305.6193,-546 311.6193,-546 317.6193,-552 317.6193,-558 317.6193,-558 317.6193,-570 317.6193,-570 317.6193,-576 311.6193,-582 305.6193,-582"/>
<text text-anchor="middle" x="288.1235" y="-568.2" font-family="Verdana" font-size="14.00" fill="#000000">logrus</text>
<text text-anchor="middle" x="288.1235" y="-551.4" font-family="Verdana" font-size="14.00" fill="#000000">Info</text>
</a>
</g>
</g>
<!-- (*github.com/go&#45;i2p/go&#45;i2p/lib/bootstrap.ReseedBootstrap).GetPeers&#45;&gt;(*github.com/sirupsen/logrus.Logger).Info -->
<g id="edge6" class="edge">
<title>(*github.com/go&#45;i2p/go&#45;i2p/lib/bootstrap.ReseedBootstrap).GetPeers&#45;&gt;(*github.com/sirupsen/logrus.Logger).Info</title>
<g id="a_edge6"><a xlink:title="at reseed_bootstrap.go:63: calling [(*github.com/sirupsen/logrus.Logger).Info]">
<path fill="none" stroke="#8b4513" d="M92.3256,-374.0399C114.3749,-408.7975 166.9292,-485.8578 227.5288,-534 234.1285,-539.243 241.7932,-543.9051 249.4061,-547.8995"/>
<polygon fill="#8b4513" stroke="#8b4513" points="248.0753,-551.1458 258.5915,-552.435 251.1745,-544.8692 248.0753,-551.1458"/>
</a>
</g>
</g>
<!-- (github.com/go&#45;i2p/go&#45;i2p/lib/netdb/reseed.Reseed).SingleReseed -->
<g id="node12" class="node">
<title>(github.com/go&#45;i2p/go&#45;i2p/lib/netdb/reseed.Reseed).SingleReseed</title>
<g id="a_node12"><a xlink:title="(github.com/go&#45;i2p/go&#45;i2p/lib/netdb/reseed.Reseed).SingleReseed | defined in reseed.go:31">
<path fill="#ffe4b5" stroke="#000000" stroke-width="1.5" d="M326.3271,-668C326.3271,-668 249.9199,-668 249.9199,-668 243.9199,-668 237.9199,-662 237.9199,-656 237.9199,-656 237.9199,-644 237.9199,-644 237.9199,-638 243.9199,-632 249.9199,-632 249.9199,-632 326.3271,-632 326.3271,-632 332.3271,-632 338.3271,-638 338.3271,-644 338.3271,-644 338.3271,-656 338.3271,-656 338.3271,-662 332.3271,-668 326.3271,-668"/>
<text text-anchor="middle" x="288.1235" y="-654.2" font-family="Verdana" font-size="14.00" fill="#000000">reseed</text>
<text text-anchor="middle" x="288.1235" y="-637.4" font-family="Verdana" font-size="14.00" fill="#000000">SingleReseed</text>
</a>
</g>
</g>
<!-- (*github.com/go&#45;i2p/go&#45;i2p/lib/bootstrap.ReseedBootstrap).GetPeers&#45;&gt;(github.com/go&#45;i2p/go&#45;i2p/lib/netdb/reseed.Reseed).SingleReseed -->
<g id="edge8" class="edge">
<title>(*github.com/go&#45;i2p/go&#45;i2p/lib/bootstrap.ReseedBootstrap).GetPeers&#45;&gt;(github.com/go&#45;i2p/go&#45;i2p/lib/netdb/reseed.Reseed).SingleReseed</title>
<g id="a_edge8"><a xlink:title="at reseed_bootstrap.go:49: calling [(github.com/go&#45;i2p/go&#45;i2p/lib/netdb/reseed.Reseed).SingleReseed]">
<path fill="none" stroke="#8b4513" d="M89.919,-374.0435C110.3702,-415.6822 164.7136,-520.678 227.5288,-596 236.2167,-606.4176 246.9389,-616.6363 256.9371,-625.3325"/>
<polygon fill="#8b4513" stroke="#8b4513" points="254.8567,-628.1572 264.7475,-631.9549 259.3837,-622.8181 254.8567,-628.1572"/>
</a>
</g>
</g>
</g>
</svg>
