<?xml version="1.0" encoding="UTF-8" standalone="no"?>
<!DOCTYPE svg PUBLIC "-//W3C//DTD SVG 1.1//EN"
 "http://www.w3.org/Graphics/SVG/1.1/DTD/svg11.dtd">
<!-- Generated by graphviz version 2.40.1 (20161225.0304)
 -->
<!-- Title: gocallvis Pages: 1 -->
<svg width="698pt" height="621pt"
 viewBox="0.00 0.00 697.87 621.00" xmlns="http://www.w3.org/2000/svg" xmlns:xlink="http://www.w3.org/1999/xlink">
<g id="graph0" class="graph" transform="scale(1 1) rotate(0) translate(0 621)">
<title>gocallvis</title>
<polygon fill="#d3d3d3" stroke="transparent" points="0,0 0,-621 697.8712,-621 697.8712,0 0,0"/>
<g id="clust1" class="cluster">
<title>cluster_focus</title>
<polygon fill="#e6ecfa" stroke="#000000" stroke-width=".5" points="8,-8 8,-613 689.8712,-613 689.8712,-8 8,-8"/>
<text text-anchor="middle" x="348.9356" y="-592.8" font-family="Arial" font-size="18.00" fill="#000000">chacha20</text>
</g>
<g id="clust5" class="cluster">
<title>cluster_*github.com/sirupsen/logrus.Logger</title>
<g id="a_clust5"><a xlink:title="type: *github.com/sirupsen/logrus.Logger">
<path fill="#eed8ae" stroke="#000000" stroke-width=".5" d="M393.8185,-295C393.8185,-295 448.1397,-295 448.1397,-295 454.1397,-295 460.1397,-301 460.1397,-307 460.1397,-307 460.1397,-361 460.1397,-361 460.1397,-367 454.1397,-373 448.1397,-373 448.1397,-373 393.8185,-373 393.8185,-373 387.8185,-373 381.8185,-367 381.8185,-361 381.8185,-361 381.8185,-307 381.8185,-307 381.8185,-301 387.8185,-295 393.8185,-295"/>
<text text-anchor="middle" x="420.9791" y="-303.5" font-family="Arial" font-size="15.00" fill="#222222">(*Logger)</text>
</a>
</g>
</g>
<g id="clust4" class="cluster">
<title>cluster_*github.com/go&#45;i2p/logger.Logger</title>
<g id="a_clust4"><a xlink:title="type: *github.com/go&#45;i2p/logger.Logger">
<path fill="#eed8ae" stroke="#000000" stroke-width=".5" d="M383.714,-87C383.714,-87 457.2442,-87 457.2442,-87 463.2442,-87 469.2442,-93 469.2442,-99 469.2442,-99 469.2442,-275 469.2442,-275 469.2442,-281 463.2442,-287 457.2442,-287 457.2442,-287 383.714,-287 383.714,-287 377.714,-287 371.714,-281 371.714,-275 371.714,-275 371.714,-99 371.714,-99 371.714,-93 377.714,-87 383.714,-87"/>
<text text-anchor="middle" x="420.4791" y="-95.5" font-family="Arial" font-size="15.00" fill="#222222">(*Logger)</text>
</a>
</g>
</g>
<g id="clust3" class="cluster">
<title>cluster_*github.com/go&#45;i2p/go&#45;i2p/lib/crypto/chacha20.ChaCha20PolyEncrypter</title>
<g id="a_clust3"><a xlink:title="type: *github.com/go&#45;i2p/go&#45;i2p/lib/crypto/chacha20.ChaCha20PolyEncrypter">
<path fill="#b0c4de" stroke="#000000" stroke-width=".5" d="M28.3843,-356C28.3843,-356 275.8921,-356 275.8921,-356 281.8921,-356 287.8921,-362 287.8921,-368 287.8921,-368 287.8921,-422 287.8921,-422 287.8921,-428 281.8921,-434 275.8921,-434 275.8921,-434 28.3843,-434 28.3843,-434 22.3843,-434 16.3843,-428 16.3843,-422 16.3843,-422 16.3843,-368 16.3843,-368 16.3843,-362 22.3843,-356 28.3843,-356"/>
<text text-anchor="middle" x="152.1382" y="-364.5" font-family="Arial" font-size="15.00" fill="#222222">(*ChaCha20PolyEncrypter)</text>
</a>
</g>
</g>
<g id="clust2" class="cluster">
<title>cluster_*github.com/go&#45;i2p/go&#45;i2p/lib/crypto/chacha20.ChaCha20PolyDecrypter</title>
<g id="a_clust2"><a xlink:title="type: *github.com/go&#45;i2p/go&#45;i2p/lib/crypto/chacha20.ChaCha20PolyDecrypter">
<path fill="#b0c4de" stroke="#000000" stroke-width=".5" d="M28,-179C28,-179 276.2764,-179 276.2764,-179 282.2764,-179 288.2764,-185 288.2764,-191 288.2764,-191 288.2764,-245 288.2764,-245 288.2764,-251 282.2764,-257 276.2764,-257 276.2764,-257 28,-257 28,-257 22,-257 16,-251 16,-245 16,-245 16,-191 16,-191 16,-185 22,-179 28,-179"/>
<text text-anchor="middle" x="152.1382" y="-187.5" font-family="Arial" font-size="15.00" fill="#222222">(*ChaCha20PolyDecrypter)</text>
</a>
</g>
</g>
<!-- github.com/go&#45;i2p/go&#45;i2p/lib/crypto/chacha20.GenerateKey -->
<g id="node1" class="node">
<title>github.com/go&#45;i2p/go&#45;i2p/lib/crypto/chacha20.GenerateKey</title>
<g id="a_node1"><a xlink:title="github.com/go&#45;i2p/go&#45;i2p/lib/crypto/chacha20.GenerateKey | defined in chacha20_key.go:12&#10;at chacha20_key.go:16: calling [github.com/samber/oops.Errorf]">
<path fill="#add8e6" stroke="#000000" stroke-width="1.5" d="M457.3166,-575C457.3166,-575 383.6416,-575 383.6416,-575 377.6416,-575 371.6416,-569 371.6416,-563 371.6416,-563 371.6416,-551 371.6416,-551 371.6416,-545 377.6416,-539 383.6416,-539 383.6416,-539 457.3166,-539 457.3166,-539 463.3166,-539 469.3166,-545 469.3166,-551 469.3166,-551 469.3166,-563 469.3166,-563 469.3166,-569 463.3166,-575 457.3166,-575"/>
<text text-anchor="middle" x="420.4791" y="-552.8" font-family="Verdana" font-size="14.00" fill="#000000">GenerateKey</text>
</a>
</g>
</g>
<!-- github.com/samber/oops.Errorf -->
<g id="node2" class="node">
<title>github.com/samber/oops.Errorf</title>
<g id="a_node2"><a xlink:title="github.com/samber/oops.Errorf | defined in oops.go:34">
<path fill="#ffe4b5" stroke="#000000" stroke-width="1.5" d="M638.4718,-487C638.4718,-487 604.0812,-487 604.0812,-487 598.0812,-487 592.0812,-481 592.0812,-475 592.0812,-475 592.0812,-463 592.0812,-463 592.0812,-457 598.0812,-451 604.0812,-451 604.0812,-451 638.4718,-451 638.4718,-451 644.4718,-451 650.4718,-457 650.4718,-463 650.4718,-463 650.4718,-475 650.4718,-475 650.4718,-481 644.4718,-487 638.4718,-487"/>
<text text-anchor="middle" x="621.2765" y="-473.2" font-family="Verdana" font-size="14.00" fill="#000000">oops</text>
<text text-anchor="middle" x="621.2765" y="-456.4" font-family="Verdana" font-size="14.00" fill="#000000">Errorf</text>
</a>
</g>
</g>
<!-- github.com/go&#45;i2p/go&#45;i2p/lib/crypto/chacha20.GenerateKey&#45;&gt;github.com/samber/oops.Errorf -->
<g id="edge15" class="edge">
<title>github.com/go&#45;i2p/go&#45;i2p/lib/crypto/chacha20.GenerateKey&#45;&gt;github.com/samber/oops.Errorf</title>
<g id="a_edge15"><a xlink:title="at chacha20_key.go:16: calling [github.com/samber/oops.Errorf]">
<path fill="none" stroke="#8b4513" d="M469.5568,-541.2105C487.1592,-535.12 507.0144,-527.7521 524.6818,-520 544.3498,-511.3701 565.5214,-500.3939 583.0167,-490.8367"/>
<polygon fill="#8b4513" stroke="#8b4513" points="584.7386,-493.8841 591.803,-485.9882 581.3566,-487.7553 584.7386,-493.8841"/>
</a>
</g>
</g>
<!-- github.com/go&#45;i2p/go&#45;i2p/lib/crypto/chacha20.NewRandomNonce -->
<g id="node3" class="node">
<title>github.com/go&#45;i2p/go&#45;i2p/lib/crypto/chacha20.NewRandomNonce</title>
<g id="a_node3"><a xlink:title="github.com/go&#45;i2p/go&#45;i2p/lib/crypto/chacha20.NewRandomNonce | defined in chacha20.go:36&#10;at chacha20.go:40: calling [github.com/samber/oops.Errorf]">
<path fill="#add8e6" stroke="#000000" stroke-width="1.5" d="M475.8851,-487C475.8851,-487 365.0731,-487 365.0731,-487 359.0731,-487 353.0731,-481 353.0731,-475 353.0731,-475 353.0731,-463 353.0731,-463 353.0731,-457 359.0731,-451 365.0731,-451 365.0731,-451 475.8851,-451 475.8851,-451 481.8851,-451 487.8851,-457 487.8851,-463 487.8851,-463 487.8851,-475 487.8851,-475 487.8851,-481 481.8851,-487 475.8851,-487"/>
<text text-anchor="middle" x="420.4791" y="-464.8" font-family="Verdana" font-size="14.00" fill="#000000">NewRandomNonce</text>
</a>
</g>
</g>
<!-- github.com/go&#45;i2p/go&#45;i2p/lib/crypto/chacha20.NewRandomNonce&#45;&gt;github.com/samber/oops.Errorf -->
<g id="edge3" class="edge">
<title>github.com/go&#45;i2p/go&#45;i2p/lib/crypto/chacha20.NewRandomNonce&#45;&gt;github.com/samber/oops.Errorf</title>
<g id="a_edge3"><a xlink:title="at chacha20.go:40: calling [github.com/samber/oops.Errorf]">
<path fill="none" stroke="#8b4513" d="M487.9003,-469C519.1812,-469 555.2667,-469 582.009,-469"/>
<polygon fill="#8b4513" stroke="#8b4513" points="582.1317,-472.5001 592.1317,-469 582.1316,-465.5001 582.1317,-472.5001"/>
</a>
</g>
</g>
<!-- golang.org/x/crypto/chacha20poly1305.New -->
<g id="node4" class="node">
<title>golang.org/x/crypto/chacha20poly1305.New</title>
<g id="a_node4"><a xlink:title="golang.org/x/crypto/chacha20poly1305.New | defined in chacha20poly1305.go:40">
<path fill="#ffe4b5" stroke="#000000" stroke-width="1.5" d="M473.2283,-426C473.2283,-426 367.7299,-426 367.7299,-426 361.7299,-426 355.7299,-420 355.7299,-414 355.7299,-414 355.7299,-402 355.7299,-402 355.7299,-396 361.7299,-390 367.7299,-390 367.7299,-390 473.2283,-390 473.2283,-390 479.2283,-390 485.2283,-396 485.2283,-402 485.2283,-402 485.2283,-414 485.2283,-414 485.2283,-420 479.2283,-426 473.2283,-426"/>
<text text-anchor="middle" x="420.4791" y="-412.2" font-family="Verdana" font-size="14.00" fill="#000000">chacha20poly1305</text>
<text text-anchor="middle" x="420.4791" y="-395.4" font-family="Verdana" font-size="14.00" fill="#000000">New</text>
</a>
</g>
</g>
<!-- github.com/go&#45;i2p/go&#45;i2p/lib/crypto/chacha20.init -->
<g id="node5" class="node">
<title>github.com/go&#45;i2p/go&#45;i2p/lib/crypto/chacha20.init</title>
<g id="a_node5"><a xlink:title="github.com/go&#45;i2p/go&#45;i2p/lib/crypto/chacha20.init | defined in .:0&#10;at chacha20.go:22: calling [github.com/samber/oops.Errorf]&#10;at chacha20.go:23: calling [github.com/samber/oops.Errorf]&#10;at chacha20.go:24: calling [github.com/samber/oops.Errorf]&#10;at chacha20.go:25: calling [github.com/samber/oops.Errorf]&#10;at chacha20.go:26: calling [github.com/samber/oops.Errorf]&#10;at chacha20.go:11: calling [github.com/go&#45;i2p/logger.GetGoI2PLogger]">
<path fill="#add8e6" stroke="#000000" stroke-width=".5" d="M435.4791,-52C435.4791,-52 405.4791,-52 405.4791,-52 399.4791,-52 393.4791,-46 393.4791,-40 393.4791,-40 393.4791,-28 393.4791,-28 393.4791,-22 399.4791,-16 405.4791,-16 405.4791,-16 435.4791,-16 435.4791,-16 441.4791,-16 447.4791,-22 447.4791,-28 447.4791,-28 447.4791,-40 447.4791,-40 447.4791,-46 441.4791,-52 435.4791,-52"/>
<text text-anchor="middle" x="420.4791" y="-29.8" font-family="Verdana" font-size="14.00" fill="#000000">init</text>
</a>
</g>
</g>
<!-- github.com/go&#45;i2p/go&#45;i2p/lib/crypto/chacha20.init&#45;&gt;github.com/samber/oops.Errorf -->
<g id="edge5" class="edge">
<title>github.com/go&#45;i2p/go&#45;i2p/lib/crypto/chacha20.init&#45;&gt;github.com/samber/oops.Errorf</title>
<g id="a_edge5"><a xlink:title="at chacha20.go:22: calling [github.com/samber/oops.Errorf]&#10;at chacha20.go:23: calling [github.com/samber/oops.Errorf]&#10;at chacha20.go:24: calling [github.com/samber/oops.Errorf]&#10;at chacha20.go:25: calling [github.com/samber/oops.Errorf]&#10;at chacha20.go:26: calling [github.com/samber/oops.Errorf]">
<path fill="none" stroke="#8b4513" d="M447.4943,-36.485C471.1951,-40.1158 504.8818,-49.0458 524.6818,-71 574.6993,-126.4593 607.6722,-358.8947 617.8941,-440.5167"/>
<polygon fill="#8b4513" stroke="#8b4513" points="614.436,-441.0721 619.1329,-450.5689 621.3835,-440.2159 614.436,-441.0721"/>
</a>
</g>
</g>
<!-- github.com/go&#45;i2p/logger.GetGoI2PLogger -->
<g id="node6" class="node">
<title>github.com/go&#45;i2p/logger.GetGoI2PLogger</title>
<g id="a_node6"><a xlink:title="github.com/go&#45;i2p/logger.GetGoI2PLogger | defined in log.go:120">
<path fill="#ffe4b5" stroke="#000000" stroke-width="1.5" d="M669.966,-52C669.966,-52 572.587,-52 572.587,-52 566.587,-52 560.587,-46 560.587,-40 560.587,-40 560.587,-28 560.587,-28 560.587,-22 566.587,-16 572.587,-16 572.587,-16 669.966,-16 669.966,-16 675.966,-16 681.966,-22 681.966,-28 681.966,-28 681.966,-40 681.966,-40 681.966,-46 675.966,-52 669.966,-52"/>
<text text-anchor="middle" x="621.2765" y="-38.2" font-family="Verdana" font-size="14.00" fill="#000000">logger</text>
<text text-anchor="middle" x="621.2765" y="-21.4" font-family="Verdana" font-size="14.00" fill="#000000">GetGoI2PLogger</text>
</a>
</g>
</g>
<!-- github.com/go&#45;i2p/go&#45;i2p/lib/crypto/chacha20.init&#45;&gt;github.com/go&#45;i2p/logger.GetGoI2PLogger -->
<g id="edge14" class="edge">
<title>github.com/go&#45;i2p/go&#45;i2p/lib/crypto/chacha20.init&#45;&gt;github.com/go&#45;i2p/logger.GetGoI2PLogger</title>
<g id="a_edge14"><a xlink:title="at chacha20.go:11: calling [github.com/go&#45;i2p/logger.GetGoI2PLogger]">
<path fill="none" stroke="#8b4513" d="M447.5595,-34C473.7686,-34 514.6346,-34 550.1471,-34"/>
<polygon fill="#8b4513" stroke="#8b4513" points="550.4879,-37.5001 560.4879,-34 550.4878,-30.5001 550.4879,-37.5001"/>
</a>
</g>
</g>
<!-- (*github.com/go&#45;i2p/go&#45;i2p/lib/crypto/chacha20.ChaCha20PolyDecrypter).DecryptWithAd -->
<g id="node7" class="node">
<title>(*github.com/go&#45;i2p/go&#45;i2p/lib/crypto/chacha20.ChaCha20PolyDecrypter).DecryptWithAd</title>
<g id="a_node7"><a xlink:title="(*github.com/go&#45;i2p/go&#45;i2p/lib/crypto/chacha20.ChaCha20PolyDecrypter).DecryptWithAd | defined in chacha20_decrypter.go:20&#10;at chacha20_decrypter.go:25: calling [github.com/samber/oops.Errorf]&#10;at chacha20_decrypter.go:31: calling [github.com/samber/oops.Errorf]&#10;at chacha20_decrypter.go:29: calling [golang.org/x/crypto/chacha20poly1305.New]&#10;at chacha20_decrypter.go:41: calling [(*github.com/go&#45;i2p/logger.Logger).WithError]&#10;at chacha20_decrypter.go:21: calling [(*github.com/sirupsen/logrus.Logger).Debug]&#10;at chacha20_decrypter.go:45: calling [(*github.com/sirupsen/logrus.Logger).Debug]&#10;at chacha20_decrypter.go:41: calling [(*github.com/go&#45;i2p/logger.Logger).Error]&#10;at chacha20_decrypter.go:21: calling [(*github.com/go&#45;i2p/logger.Logger).WithField]&#10;at chacha20_decrypter.go:45: calling [(*github.com/go&#45;i2p/logger.Logger).WithField]">
<path fill="#add8e6" stroke="#000000" stroke-width="1.5" d="M268.3713,-249C268.3713,-249 177.9921,-249 177.9921,-249 171.9921,-249 165.9921,-243 165.9921,-237 165.9921,-237 165.9921,-225 165.9921,-225 165.9921,-219 171.9921,-213 177.9921,-213 177.9921,-213 268.3713,-213 268.3713,-213 274.3713,-213 280.3713,-219 280.3713,-225 280.3713,-225 280.3713,-237 280.3713,-237 280.3713,-243 274.3713,-249 268.3713,-249"/>
<text text-anchor="middle" x="223.1817" y="-226.8" font-family="Verdana" font-size="14.00" fill="#000000">DecryptWithAd</text>
</a>
</g>
</g>
<!-- (*github.com/go&#45;i2p/go&#45;i2p/lib/crypto/chacha20.ChaCha20PolyDecrypter).DecryptWithAd&#45;&gt;github.com/samber/oops.Errorf -->
<g id="edge6" class="edge">
<title>(*github.com/go&#45;i2p/go&#45;i2p/lib/crypto/chacha20.ChaCha20PolyDecrypter).DecryptWithAd&#45;&gt;github.com/samber/oops.Errorf</title>
<g id="a_edge6"><a xlink:title="at chacha20_decrypter.go:25: calling [github.com/samber/oops.Errorf]&#10;at chacha20_decrypter.go:31: calling [github.com/samber/oops.Errorf]">
<path fill="none" stroke="#8b4513" d="M232.2882,-212.9513C250.1761,-179.7867 293.4323,-110.0735 353.2764,-83 380.4891,-70.689 463.3522,-65.6749 487.6818,-83 548.4928,-126.3034 599.6423,-359.476 615.8886,-440.9111"/>
<polygon fill="#8b4513" stroke="#8b4513" points="612.4958,-441.7969 617.8635,-450.9313 619.3637,-440.4432 612.4958,-441.7969"/>
</a>
</g>
</g>
<!-- (*github.com/go&#45;i2p/go&#45;i2p/lib/crypto/chacha20.ChaCha20PolyDecrypter).DecryptWithAd&#45;&gt;golang.org/x/crypto/chacha20poly1305.New -->
<g id="edge7" class="edge">
<title>(*github.com/go&#45;i2p/go&#45;i2p/lib/crypto/chacha20.ChaCha20PolyDecrypter).DecryptWithAd&#45;&gt;golang.org/x/crypto/chacha20poly1305.New</title>
<g id="a_edge7"><a xlink:title="at chacha20_decrypter.go:29: calling [golang.org/x/crypto/chacha20poly1305.New]">
<path fill="none" stroke="#8b4513" d="M235.1623,-249.2618C255.9652,-279.7533 301.5297,-341.3862 353.2764,-379 356.1383,-381.0803 359.1727,-383.0511 362.3082,-384.9117"/>
<polygon fill="#8b4513" stroke="#8b4513" points="360.9004,-388.1312 371.3528,-389.8626 364.2615,-381.9909 360.9004,-388.1312"/>
</a>
</g>
</g>
<!-- (*github.com/go&#45;i2p/logger.Logger).WithField -->
<g id="node11" class="node">
<title>(*github.com/go&#45;i2p/logger.Logger).WithField</title>
<g id="a_node11"><a xlink:title="(*github.com/go&#45;i2p/logger.Logger).WithField | defined in log.go:54">
<path fill="#ffe4b5" stroke="#000000" stroke-width="1.5" d="M448.7536,-279C448.7536,-279 392.2046,-279 392.2046,-279 386.2046,-279 380.2046,-273 380.2046,-267 380.2046,-267 380.2046,-255 380.2046,-255 380.2046,-249 386.2046,-243 392.2046,-243 392.2046,-243 448.7536,-243 448.7536,-243 454.7536,-243 460.7536,-249 460.7536,-255 460.7536,-255 460.7536,-267 460.7536,-267 460.7536,-273 454.7536,-279 448.7536,-279"/>
<text text-anchor="middle" x="420.4791" y="-265.2" font-family="Verdana" font-size="14.00" fill="#000000">logger</text>
<text text-anchor="middle" x="420.4791" y="-248.4" font-family="Verdana" font-size="14.00" fill="#000000">WithField</text>
</a>
</g>
</g>
<!-- (*github.com/go&#45;i2p/go&#45;i2p/lib/crypto/chacha20.ChaCha20PolyDecrypter).DecryptWithAd&#45;&gt;(*github.com/go&#45;i2p/logger.Logger).WithField -->
<g id="edge16" class="edge">
<title>(*github.com/go&#45;i2p/go&#45;i2p/lib/crypto/chacha20.ChaCha20PolyDecrypter).DecryptWithAd&#45;&gt;(*github.com/go&#45;i2p/logger.Logger).WithField</title>
<g id="a_edge16"><a xlink:title="at chacha20_decrypter.go:21: calling [(*github.com/go&#45;i2p/logger.Logger).WithField]&#10;at chacha20_decrypter.go:45: calling [(*github.com/go&#45;i2p/logger.Logger).WithField]">
<path fill="none" stroke="#8b4513" d="M280.5133,-239.7175C308.7614,-244.0128 342.5263,-249.1469 369.815,-253.2963"/>
<polygon fill="#8b4513" stroke="#8b4513" points="369.519,-256.7914 379.9315,-254.8345 370.5713,-249.871 369.519,-256.7914"/>
</a>
</g>
</g>
<!-- (*github.com/go&#45;i2p/logger.Logger).WithError -->
<g id="node12" class="node">
<title>(*github.com/go&#45;i2p/logger.Logger).WithError</title>
<g id="a_node12"><a xlink:title="(*github.com/go&#45;i2p/logger.Logger).WithError | defined in log.go:66">
<path fill="#ffe4b5" stroke="#000000" stroke-width="1.5" d="M449.0106,-157C449.0106,-157 391.9476,-157 391.9476,-157 385.9476,-157 379.9476,-151 379.9476,-145 379.9476,-145 379.9476,-133 379.9476,-133 379.9476,-127 385.9476,-121 391.9476,-121 391.9476,-121 449.0106,-121 449.0106,-121 455.0106,-121 461.0106,-127 461.0106,-133 461.0106,-133 461.0106,-145 461.0106,-145 461.0106,-151 455.0106,-157 449.0106,-157"/>
<text text-anchor="middle" x="420.4791" y="-143.2" font-family="Verdana" font-size="14.00" fill="#000000">logger</text>
<text text-anchor="middle" x="420.4791" y="-126.4" font-family="Verdana" font-size="14.00" fill="#000000">WithError</text>
</a>
</g>
</g>
<!-- (*github.com/go&#45;i2p/go&#45;i2p/lib/crypto/chacha20.ChaCha20PolyDecrypter).DecryptWithAd&#45;&gt;(*github.com/go&#45;i2p/logger.Logger).WithError -->
<g id="edge8" class="edge">
<title>(*github.com/go&#45;i2p/go&#45;i2p/lib/crypto/chacha20.ChaCha20PolyDecrypter).DecryptWithAd&#45;&gt;(*github.com/go&#45;i2p/logger.Logger).WithError</title>
<g id="a_edge8"><a xlink:title="at chacha20_decrypter.go:41: calling [(*github.com/go&#45;i2p/logger.Logger).WithError]">
<path fill="none" stroke="#8b4513" d="M261.5765,-212.9203C287.4653,-200.7485 322.4017,-184.3594 353.2764,-170 359.3036,-167.1968 365.6393,-164.2606 371.9126,-161.3596"/>
<polygon fill="#8b4513" stroke="#8b4513" points="373.4057,-164.5254 381.0159,-157.1541 370.4699,-158.1707 373.4057,-164.5254"/>
</a>
</g>
</g>
<!-- (*github.com/go&#45;i2p/logger.Logger).Error -->
<g id="node13" class="node">
<title>(*github.com/go&#45;i2p/logger.Logger).Error</title>
<g id="a_node13"><a xlink:title="(*github.com/go&#45;i2p/logger.Logger).Error | defined in log.go:42">
<path fill="#ffe4b5" stroke="#000000" stroke-width="1.5" d="M438.2454,-218C438.2454,-218 402.7128,-218 402.7128,-218 396.7128,-218 390.7128,-212 390.7128,-206 390.7128,-206 390.7128,-194 390.7128,-194 390.7128,-188 396.7128,-182 402.7128,-182 402.7128,-182 438.2454,-182 438.2454,-182 444.2454,-182 450.2454,-188 450.2454,-194 450.2454,-194 450.2454,-206 450.2454,-206 450.2454,-212 444.2454,-218 438.2454,-218"/>
<text text-anchor="middle" x="420.4791" y="-204.2" font-family="Verdana" font-size="14.00" fill="#000000">logger</text>
<text text-anchor="middle" x="420.4791" y="-187.4" font-family="Verdana" font-size="14.00" fill="#000000">Error</text>
</a>
</g>
</g>
<!-- (*github.com/go&#45;i2p/go&#45;i2p/lib/crypto/chacha20.ChaCha20PolyDecrypter).DecryptWithAd&#45;&gt;(*github.com/go&#45;i2p/logger.Logger).Error -->
<g id="edge13" class="edge">
<title>(*github.com/go&#45;i2p/go&#45;i2p/lib/crypto/chacha20.ChaCha20PolyDecrypter).DecryptWithAd&#45;&gt;(*github.com/go&#45;i2p/logger.Logger).Error</title>
<g id="a_edge13"><a xlink:title="at chacha20_decrypter.go:41: calling [(*github.com/go&#45;i2p/logger.Logger).Error]">
<path fill="none" stroke="#8b4513" d="M280.5133,-221.9919C312.5337,-216.9607 351.6428,-210.8158 380.3725,-206.3017"/>
<polygon fill="#8b4513" stroke="#8b4513" points="381.1197,-209.7273 390.4552,-204.7175 380.0331,-202.8121 381.1197,-209.7273"/>
</a>
</g>
</g>
<!-- (*github.com/sirupsen/logrus.Logger).Debug -->
<g id="node14" class="node">
<title>(*github.com/sirupsen/logrus.Logger).Debug</title>
<g id="a_node14"><a xlink:title="(*github.com/sirupsen/logrus.Logger).Debug | defined in logger.go:221">
<path fill="#ffe4b5" stroke="#000000" stroke-width="1.5" d="M439.3011,-365C439.3011,-365 401.6571,-365 401.6571,-365 395.6571,-365 389.6571,-359 389.6571,-353 389.6571,-353 389.6571,-341 389.6571,-341 389.6571,-335 395.6571,-329 401.6571,-329 401.6571,-329 439.3011,-329 439.3011,-329 445.3011,-329 451.3011,-335 451.3011,-341 451.3011,-341 451.3011,-353 451.3011,-353 451.3011,-359 445.3011,-365 439.3011,-365"/>
<text text-anchor="middle" x="420.4791" y="-351.2" font-family="Verdana" font-size="14.00" fill="#000000">logrus</text>
<text text-anchor="middle" x="420.4791" y="-334.4" font-family="Verdana" font-size="14.00" fill="#000000">Debug</text>
</a>
</g>
</g>
<!-- (*github.com/go&#45;i2p/go&#45;i2p/lib/crypto/chacha20.ChaCha20PolyDecrypter).DecryptWithAd&#45;&gt;(*github.com/sirupsen/logrus.Logger).Debug -->
<g id="edge12" class="edge">
<title>(*github.com/go&#45;i2p/go&#45;i2p/lib/crypto/chacha20.ChaCha20PolyDecrypter).DecryptWithAd&#45;&gt;(*github.com/sirupsen/logrus.Logger).Debug</title>
<g id="a_edge12"><a xlink:title="at chacha20_decrypter.go:21: calling [(*github.com/sirupsen/logrus.Logger).Debug]&#10;at chacha20_decrypter.go:45: calling [(*github.com/sirupsen/logrus.Logger).Debug]">
<path fill="none" stroke="#8b4513" d="M254.0094,-249.125C288.2236,-269.2411 343.5338,-301.7604 380.9176,-323.74"/>
<polygon fill="#8b4513" stroke="#8b4513" points="379.1485,-326.76 389.5429,-328.8112 382.6964,-320.7257 379.1485,-326.76"/>
</a>
</g>
</g>
<!-- (*github.com/go&#45;i2p/go&#45;i2p/lib/crypto/chacha20.ChaCha20PolyDecrypter).Decrypt -->
<g id="node8" class="node">
<title>(*github.com/go&#45;i2p/go&#45;i2p/lib/crypto/chacha20.ChaCha20PolyDecrypter).Decrypt</title>
<g id="a_node8"><a xlink:title="(*github.com/go&#45;i2p/go&#45;i2p/lib/crypto/chacha20.ChaCha20PolyDecrypter).Decrypt | defined in chacha20_decrypter.go:15&#10;at chacha20_decrypter.go:16: calling [(*github.com/go&#45;i2p/go&#45;i2p/lib/crypto/chacha20.ChaCha20PolyDecrypter).DecryptWithAd]">
<path fill="#add8e6" stroke="#000000" stroke-width="1.5" d="M81.1306,-249C81.1306,-249 35.9564,-249 35.9564,-249 29.9564,-249 23.9564,-243 23.9564,-237 23.9564,-237 23.9564,-225 23.9564,-225 23.9564,-219 29.9564,-213 35.9564,-213 35.9564,-213 81.1306,-213 81.1306,-213 87.1306,-213 93.1306,-219 93.1306,-225 93.1306,-225 93.1306,-237 93.1306,-237 93.1306,-243 87.1306,-249 81.1306,-249"/>
<text text-anchor="middle" x="58.5435" y="-226.8" font-family="Verdana" font-size="14.00" fill="#000000">Decrypt</text>
</a>
</g>
</g>
<!-- (*github.com/go&#45;i2p/go&#45;i2p/lib/crypto/chacha20.ChaCha20PolyDecrypter).Decrypt&#45;&gt;(*github.com/go&#45;i2p/go&#45;i2p/lib/crypto/chacha20.ChaCha20PolyDecrypter).DecryptWithAd -->
<g id="edge17" class="edge">
<title>(*github.com/go&#45;i2p/go&#45;i2p/lib/crypto/chacha20.ChaCha20PolyDecrypter).Decrypt&#45;&gt;(*github.com/go&#45;i2p/go&#45;i2p/lib/crypto/chacha20.ChaCha20PolyDecrypter).DecryptWithAd</title>
<g id="a_edge17"><a xlink:title="at chacha20_decrypter.go:16: calling [(*github.com/go&#45;i2p/go&#45;i2p/lib/crypto/chacha20.ChaCha20PolyDecrypter).DecryptWithAd]">
<path fill="none" stroke="#000000" d="M93.459,-231C111.6303,-231 134.4765,-231 155.913,-231"/>
<polygon fill="#000000" stroke="#000000" points="155.9675,-234.5001 165.9675,-231 155.9675,-227.5001 155.9675,-234.5001"/>
</a>
</g>
</g>
<!-- (*github.com/go&#45;i2p/go&#45;i2p/lib/crypto/chacha20.ChaCha20PolyEncrypter).EncryptWithAd -->
<g id="node9" class="node">
<title>(*github.com/go&#45;i2p/go&#45;i2p/lib/crypto/chacha20.ChaCha20PolyEncrypter).EncryptWithAd</title>
<g id="a_node9"><a xlink:title="(*github.com/go&#45;i2p/go&#45;i2p/lib/crypto/chacha20.ChaCha20PolyEncrypter).EncryptWithAd | defined in chacha20_encrypter.go:21&#10;at chacha20_encrypter.go:27: calling [github.com/samber/oops.Errorf]&#10;at chacha20_encrypter.go:31: calling [github.com/go&#45;i2p/go&#45;i2p/lib/crypto/chacha20.NewRandomNonce]&#10;at chacha20_encrypter.go:25: calling [golang.org/x/crypto/chacha20poly1305.New]&#10;at chacha20_encrypter.go:22: calling [(*github.com/go&#45;i2p/logger.Logger).WithField]&#10;at chacha20_encrypter.go:44: calling [(*github.com/go&#45;i2p/logger.Logger).WithField]&#10;at chacha20_encrypter.go:22: calling [(*github.com/sirupsen/logrus.Logger).Debug]&#10;at chacha20_encrypter.go:44: calling [(*github.com/sirupsen/logrus.Logger).Debug]">
<path fill="#add8e6" stroke="#000000" stroke-width="1.5" d="M268.1033,-426C268.1033,-426 178.2601,-426 178.2601,-426 172.2601,-426 166.2601,-420 166.2601,-414 166.2601,-414 166.2601,-402 166.2601,-402 166.2601,-396 172.2601,-390 178.2601,-390 178.2601,-390 268.1033,-390 268.1033,-390 274.1033,-390 280.1033,-396 280.1033,-402 280.1033,-402 280.1033,-414 280.1033,-414 280.1033,-420 274.1033,-426 268.1033,-426"/>
<text text-anchor="middle" x="223.1817" y="-403.8" font-family="Verdana" font-size="14.00" fill="#000000">EncryptWithAd</text>
</a>
</g>
</g>
<!-- (*github.com/go&#45;i2p/go&#45;i2p/lib/crypto/chacha20.ChaCha20PolyEncrypter).EncryptWithAd&#45;&gt;github.com/samber/oops.Errorf -->
<g id="edge1" class="edge">
<title>(*github.com/go&#45;i2p/go&#45;i2p/lib/crypto/chacha20.ChaCha20PolyEncrypter).EncryptWithAd&#45;&gt;github.com/samber/oops.Errorf</title>
<g id="a_edge1"><a xlink:title="at chacha20_encrypter.go:27: calling [github.com/samber/oops.Errorf]">
<path fill="none" stroke="#8b4513" d="M240.9573,-426.1699C264.2907,-448.5849 307.6683,-485.5029 353.2764,-500 431.9038,-524.9928 529.2122,-500.9148 582.2677,-483.4621"/>
<polygon fill="#8b4513" stroke="#8b4513" points="583.6059,-486.7043 591.9575,-480.1851 581.3633,-480.0732 583.6059,-486.7043"/>
</a>
</g>
</g>
<!-- (*github.com/go&#45;i2p/go&#45;i2p/lib/crypto/chacha20.ChaCha20PolyEncrypter).EncryptWithAd&#45;&gt;github.com/go&#45;i2p/go&#45;i2p/lib/crypto/chacha20.NewRandomNonce -->
<g id="edge2" class="edge">
<title>(*github.com/go&#45;i2p/go&#45;i2p/lib/crypto/chacha20.ChaCha20PolyEncrypter).EncryptWithAd&#45;&gt;github.com/go&#45;i2p/go&#45;i2p/lib/crypto/chacha20.NewRandomNonce</title>
<g id="a_edge2"><a xlink:title="at chacha20_encrypter.go:31: calling [github.com/go&#45;i2p/go&#45;i2p/lib/crypto/chacha20.NewRandomNonce]">
<path fill="none" stroke="#000000" d="M279.9836,-425.5619C302.5957,-432.5531 328.8087,-440.6575 352.4253,-447.9593"/>
<polygon fill="#000000" stroke="#000000" points="351.4351,-451.3165 362.0228,-450.9266 353.5028,-444.6289 351.4351,-451.3165"/>
</a>
</g>
</g>
<!-- (*github.com/go&#45;i2p/go&#45;i2p/lib/crypto/chacha20.ChaCha20PolyEncrypter).EncryptWithAd&#45;&gt;golang.org/x/crypto/chacha20poly1305.New -->
<g id="edge4" class="edge">
<title>(*github.com/go&#45;i2p/go&#45;i2p/lib/crypto/chacha20.ChaCha20PolyEncrypter).EncryptWithAd&#45;&gt;golang.org/x/crypto/chacha20poly1305.New</title>
<g id="a_edge4"><a xlink:title="at chacha20_encrypter.go:25: calling [golang.org/x/crypto/chacha20poly1305.New]">
<path fill="none" stroke="#8b4513" d="M279.9836,-408C300.3265,-408 323.5838,-408 345.2431,-408"/>
<polygon fill="#8b4513" stroke="#8b4513" points="345.3955,-411.5001 355.3955,-408 345.3955,-404.5001 345.3955,-411.5001"/>
</a>
</g>
</g>
<!-- (*github.com/go&#45;i2p/go&#45;i2p/lib/crypto/chacha20.ChaCha20PolyEncrypter).EncryptWithAd&#45;&gt;(*github.com/go&#45;i2p/logger.Logger).WithField -->
<g id="edge9" class="edge">
<title>(*github.com/go&#45;i2p/go&#45;i2p/lib/crypto/chacha20.ChaCha20PolyEncrypter).EncryptWithAd&#45;&gt;(*github.com/go&#45;i2p/logger.Logger).WithField</title>
<g id="a_edge9"><a xlink:title="at chacha20_encrypter.go:22: calling [(*github.com/go&#45;i2p/logger.Logger).WithField]&#10;at chacha20_encrypter.go:44: calling [(*github.com/go&#45;i2p/logger.Logger).WithField]">
<path fill="none" stroke="#8b4513" d="M239.261,-389.7509C262.3895,-364.3878 307.3418,-318.3024 353.2764,-289 358.6609,-285.5651 364.5381,-282.3953 370.5037,-279.5198"/>
<polygon fill="#8b4513" stroke="#8b4513" points="372.2404,-282.5749 379.8928,-275.2475 369.3412,-276.2035 372.2404,-282.5749"/>
</a>
</g>
</g>
<!-- (*github.com/go&#45;i2p/go&#45;i2p/lib/crypto/chacha20.ChaCha20PolyEncrypter).EncryptWithAd&#45;&gt;(*github.com/sirupsen/logrus.Logger).Debug -->
<g id="edge10" class="edge">
<title>(*github.com/go&#45;i2p/go&#45;i2p/lib/crypto/chacha20.ChaCha20PolyEncrypter).EncryptWithAd&#45;&gt;(*github.com/sirupsen/logrus.Logger).Debug</title>
<g id="a_edge10"><a xlink:title="at chacha20_encrypter.go:22: calling [(*github.com/sirupsen/logrus.Logger).Debug]&#10;at chacha20_encrypter.go:44: calling [(*github.com/sirupsen/logrus.Logger).Debug]">
<path fill="none" stroke="#8b4513" d="M279.9836,-390.4381C311.959,-380.552 351.1347,-368.4397 379.9872,-359.5192"/>
<polygon fill="#8b4513" stroke="#8b4513" points="381.2135,-362.8036 389.7335,-356.5059 379.1458,-356.1159 381.2135,-362.8036"/>
</a>
</g>
</g>
<!-- (*github.com/go&#45;i2p/go&#45;i2p/lib/crypto/chacha20.ChaCha20PolyEncrypter).Encrypt -->
<g id="node10" class="node">
<title>(*github.com/go&#45;i2p/go&#45;i2p/lib/crypto/chacha20.ChaCha20PolyEncrypter).Encrypt</title>
<g id="a_node10"><a xlink:title="(*github.com/go&#45;i2p/go&#45;i2p/lib/crypto/chacha20.ChaCha20PolyEncrypter).Encrypt | defined in chacha20_encrypter.go:15&#10;at chacha20_encrypter.go:16: calling [(*github.com/go&#45;i2p/go&#45;i2p/lib/crypto/chacha20.ChaCha20PolyEncrypter).EncryptWithAd]">
<path fill="#add8e6" stroke="#000000" stroke-width="1.5" d="M80.8626,-426C80.8626,-426 36.2244,-426 36.2244,-426 30.2244,-426 24.2244,-420 24.2244,-414 24.2244,-414 24.2244,-402 24.2244,-402 24.2244,-396 30.2244,-390 36.2244,-390 36.2244,-390 80.8626,-390 80.8626,-390 86.8626,-390 92.8626,-396 92.8626,-402 92.8626,-402 92.8626,-414 92.8626,-414 92.8626,-420 86.8626,-426 80.8626,-426"/>
<text text-anchor="middle" x="58.5435" y="-403.8" font-family="Verdana" font-size="14.00" fill="#000000">Encrypt</text>
</a>
</g>
</g>
<!-- (*github.com/go&#45;i2p/go&#45;i2p/lib/crypto/chacha20.ChaCha20PolyEncrypter).Encrypt&#45;&gt;(*github.com/go&#45;i2p/go&#45;i2p/lib/crypto/chacha20.ChaCha20PolyEncrypter).EncryptWithAd -->
<g id="edge11" class="edge">
<title>(*github.com/go&#45;i2p/go&#45;i2p/lib/crypto/chacha20.ChaCha20PolyEncrypter).Encrypt&#45;&gt;(*github.com/go&#45;i2p/go&#45;i2p/lib/crypto/chacha20.ChaCha20PolyEncrypter).EncryptWithAd</title>
<g id="a_edge11"><a xlink:title="at chacha20_encrypter.go:16: calling [(*github.com/go&#45;i2p/go&#45;i2p/lib/crypto/chacha20.ChaCha20PolyEncrypter).EncryptWithAd]">
<path fill="none" stroke="#000000" d="M93.0571,-408C111.3721,-408 134.5186,-408 156.1948,-408"/>
<polygon fill="#000000" stroke="#000000" points="156.3578,-411.5001 166.3578,-408 156.3578,-404.5001 156.3578,-411.5001"/>
</a>
</g>
</g>
</g>
</svg>
