<?xml version="1.0" encoding="UTF-8" standalone="no"?>
<!DOCTYPE svg PUBLIC "-//W3C//DTD SVG 1.1//EN"
 "http://www.w3.org/Graphics/SVG/1.1/DTD/svg11.dtd">
<!-- Generated by graphviz version 2.40.1 (20161225.0304)
 -->
<!-- Title: gocallvis Pages: 1 -->
<svg width="712pt" height="735pt"
 viewBox="0.00 0.00 712.47 735.00" xmlns="http://www.w3.org/2000/svg" xmlns:xlink="http://www.w3.org/1999/xlink">
<g id="graph0" class="graph" transform="scale(1 1) rotate(0) translate(0 735)">
<title>gocallvis</title>
<polygon fill="#d3d3d3" stroke="transparent" points="0,0 0,-735 712.4728,-735 712.4728,0 0,0"/>
<g id="clust1" class="cluster">
<title>cluster_focus</title>
<polygon fill="#e6ecfa" stroke="#000000" stroke-width=".5" points="8,-8 8,-727 704.4728,-727 704.4728,-8 8,-8"/>
<text text-anchor="middle" x="356.2364" y="-706.8" font-family="Arial" font-size="18.00" fill="#000000">config</text>
</g>
<g id="clust3" class="cluster">
<title>cluster_*github.com/sirupsen/logrus.Logger</title>
<g id="a_clust3"><a xlink:title="type: *github.com/sirupsen/logrus.Logger">
<path fill="#eed8ae" stroke="#000000" stroke-width=".5" d="M620.1025,-250C620.1025,-250 678.0843,-250 678.0843,-250 684.0843,-250 690.0843,-256 690.0843,-262 690.0843,-262 690.0843,-377 690.0843,-377 690.0843,-383 684.0843,-389 678.0843,-389 678.0843,-389 620.1025,-389 620.1025,-389 614.1025,-389 608.1025,-383 608.1025,-377 608.1025,-377 608.1025,-262 608.1025,-262 608.1025,-256 614.1025,-250 620.1025,-250"/>
<text text-anchor="middle" x="649.0934" y="-258.5" font-family="Arial" font-size="15.00" fill="#222222">(*Logger)</text>
</a>
</g>
</g>
<g id="clust2" class="cluster">
<title>cluster_*github.com/go&#45;i2p/logger.Logger</title>
<g id="a_clust2"><a xlink:title="type: *github.com/go&#45;i2p/logger.Logger">
<path fill="#eed8ae" stroke="#000000" stroke-width=".5" d="M430.3472,-16C430.3472,-16 484.113,-16 484.113,-16 490.113,-16 496.113,-22 496.113,-28 496.113,-28 496.113,-82 496.113,-82 496.113,-88 490.113,-94 484.113,-94 484.113,-94 430.3472,-94 430.3472,-94 424.3472,-94 418.3472,-88 418.3472,-82 418.3472,-82 418.3472,-28 418.3472,-28 418.3472,-22 424.3472,-16 430.3472,-16"/>
<text text-anchor="middle" x="457.2301" y="-24.5" font-family="Arial" font-size="15.00" fill="#222222">(*Logger)</text>
</a>
</g>
</g>
<!-- github.com/go&#45;i2p/go&#45;i2p/lib/config.createDefaultConfig -->
<g id="node1" class="node">
<title>github.com/go&#45;i2p/go&#45;i2p/lib/config.createDefaultConfig</title>
<g id="a_node1"><a xlink:title="github.com/go&#45;i2p/go&#45;i2p/lib/config.createDefaultConfig | defined in config.go:76&#10;at config.go:84: calling [github.com/spf13/viper.WriteConfig]&#10;at config.go:80: calling [(*github.com/sirupsen/logrus.Logger).Fatalf]&#10;at config.go:85: calling [(*github.com/sirupsen/logrus.Logger).Fatalf]&#10;at config.go:88: calling [(*github.com/sirupsen/logrus.Logger).Debugf]">
<path fill="#add8e6" stroke="#000000" stroke-width=".5" d="M514.5054,-330C514.5054,-330 399.9548,-330 399.9548,-330 393.9548,-330 387.9548,-324 387.9548,-318 387.9548,-318 387.9548,-306 387.9548,-306 387.9548,-300 393.9548,-294 399.9548,-294 399.9548,-294 514.5054,-294 514.5054,-294 520.5054,-294 526.5054,-300 526.5054,-306 526.5054,-306 526.5054,-318 526.5054,-318 526.5054,-324 520.5054,-330 514.5054,-330"/>
<text text-anchor="middle" x="457.2301" y="-307.8" font-family="Verdana" font-size="14.00" fill="#000000">createDefaultConfig</text>
</a>
</g>
</g>
<!-- github.com/spf13/viper.WriteConfig -->
<g id="node2" class="node">
<title>github.com/spf13/viper.WriteConfig</title>
<g id="a_node2"><a xlink:title="github.com/spf13/viper.WriteConfig | defined in viper.go:1718">
<path fill="#ffe4b5" stroke="#000000" stroke-width="1.5" d="M684.3525,-242C684.3525,-242 613.8343,-242 613.8343,-242 607.8343,-242 601.8343,-236 601.8343,-230 601.8343,-230 601.8343,-218 601.8343,-218 601.8343,-212 607.8343,-206 613.8343,-206 613.8343,-206 684.3525,-206 684.3525,-206 690.3525,-206 696.3525,-212 696.3525,-218 696.3525,-218 696.3525,-230 696.3525,-230 696.3525,-236 690.3525,-242 684.3525,-242"/>
<text text-anchor="middle" x="649.0934" y="-228.2" font-family="Verdana" font-size="14.00" fill="#000000">viper</text>
<text text-anchor="middle" x="649.0934" y="-211.4" font-family="Verdana" font-size="14.00" fill="#000000">WriteConfig</text>
</a>
</g>
</g>
<!-- github.com/go&#45;i2p/go&#45;i2p/lib/config.createDefaultConfig&#45;&gt;github.com/spf13/viper.WriteConfig -->
<g id="edge1" class="edge">
<title>github.com/go&#45;i2p/go&#45;i2p/lib/config.createDefaultConfig&#45;&gt;github.com/spf13/viper.WriteConfig</title>
<g id="a_edge1"><a xlink:title="at config.go:84: calling [github.com/spf13/viper.WriteConfig]">
<path fill="none" stroke="#8b4513" d="M501.6461,-293.8532C510.6486,-290.0369 520.0191,-285.964 528.714,-282 558.9297,-268.2246 567.6899,-262.5653 600.5878,-246.597"/>
<polygon fill="#8b4513" stroke="#8b4513" points="602.5267,-249.5481 610.0181,-242.0561 599.4897,-243.2412 602.5267,-249.5481"/>
</a>
</g>
</g>
<!-- (*github.com/sirupsen/logrus.Logger).Fatalf -->
<g id="node25" class="node">
<title>(*github.com/sirupsen/logrus.Logger).Fatalf</title>
<g id="a_node25"><a xlink:title="(*github.com/sirupsen/logrus.Logger).Fatalf | defined in logger.go:189">
<path fill="#ffe4b5" stroke="#000000" stroke-width="1.5" d="M666.5892,-381C666.5892,-381 631.5976,-381 631.5976,-381 625.5976,-381 619.5976,-375 619.5976,-369 619.5976,-369 619.5976,-357 619.5976,-357 619.5976,-351 625.5976,-345 631.5976,-345 631.5976,-345 666.5892,-345 666.5892,-345 672.5892,-345 678.5892,-351 678.5892,-357 678.5892,-357 678.5892,-369 678.5892,-369 678.5892,-375 672.5892,-381 666.5892,-381"/>
<text text-anchor="middle" x="649.0934" y="-367.2" font-family="Verdana" font-size="14.00" fill="#000000">logrus</text>
<text text-anchor="middle" x="649.0934" y="-350.4" font-family="Verdana" font-size="14.00" fill="#000000">Fatalf</text>
</a>
</g>
</g>
<!-- github.com/go&#45;i2p/go&#45;i2p/lib/config.createDefaultConfig&#45;&gt;(*github.com/sirupsen/logrus.Logger).Fatalf -->
<g id="edge8" class="edge">
<title>github.com/go&#45;i2p/go&#45;i2p/lib/config.createDefaultConfig&#45;&gt;(*github.com/sirupsen/logrus.Logger).Fatalf</title>
<g id="a_edge8"><a xlink:title="at config.go:80: calling [(*github.com/sirupsen/logrus.Logger).Fatalf]&#10;at config.go:85: calling [(*github.com/sirupsen/logrus.Logger).Fatalf]">
<path fill="none" stroke="#8b4513" d="M525.1439,-330.0525C553.4412,-337.5743 585.3036,-346.0438 609.6374,-352.512"/>
<polygon fill="#8b4513" stroke="#8b4513" points="609.0093,-355.9666 619.5729,-355.153 610.8077,-349.2015 609.0093,-355.9666"/>
</a>
</g>
</g>
<!-- (*github.com/sirupsen/logrus.Logger).Debugf -->
<g id="node26" class="node">
<title>(*github.com/sirupsen/logrus.Logger).Debugf</title>
<g id="a_node26"><a xlink:title="(*github.com/sirupsen/logrus.Logger).Debugf | defined in logger.go:163">
<path fill="#ffe4b5" stroke="#000000" stroke-width="1.5" d="M670.0752,-320C670.0752,-320 628.1116,-320 628.1116,-320 622.1116,-320 616.1116,-314 616.1116,-308 616.1116,-308 616.1116,-296 616.1116,-296 616.1116,-290 622.1116,-284 628.1116,-284 628.1116,-284 670.0752,-284 670.0752,-284 676.0752,-284 682.0752,-290 682.0752,-296 682.0752,-296 682.0752,-308 682.0752,-308 682.0752,-314 676.0752,-320 670.0752,-320"/>
<text text-anchor="middle" x="649.0934" y="-306.2" font-family="Verdana" font-size="14.00" fill="#000000">logrus</text>
<text text-anchor="middle" x="649.0934" y="-289.4" font-family="Verdana" font-size="14.00" fill="#000000">Debugf</text>
</a>
</g>
</g>
<!-- github.com/go&#45;i2p/go&#45;i2p/lib/config.createDefaultConfig&#45;&gt;(*github.com/sirupsen/logrus.Logger).Debugf -->
<g id="edge10" class="edge">
<title>github.com/go&#45;i2p/go&#45;i2p/lib/config.createDefaultConfig&#45;&gt;(*github.com/sirupsen/logrus.Logger).Debugf</title>
<g id="a_edge10"><a xlink:title="at config.go:88: calling [(*github.com/sirupsen/logrus.Logger).Debugf]">
<path fill="none" stroke="#8b4513" d="M526.4972,-308.3898C552.9324,-307.012 582.3021,-305.4812 605.6667,-304.2634"/>
<polygon fill="#8b4513" stroke="#8b4513" points="606.1428,-307.7434 615.9471,-303.7276 605.7784,-300.7529 606.1428,-307.7434"/>
</a>
</g>
</g>
<!-- github.com/go&#45;i2p/go&#45;i2p/lib/config.BuildI2PDirPath -->
<g id="node3" class="node">
<title>github.com/go&#45;i2p/go&#45;i2p/lib/config.BuildI2PDirPath</title>
<g id="a_node3"><a xlink:title="github.com/go&#45;i2p/go&#45;i2p/lib/config.BuildI2PDirPath | defined in config.go:107&#10;at config.go:108: calling [github.com/go&#45;i2p/go&#45;i2p/lib/util.UserHome]">
<path fill="#add8e6" stroke="#000000" stroke-width="1.5" d="M504.3367,-689C504.3367,-689 410.1235,-689 410.1235,-689 404.1235,-689 398.1235,-683 398.1235,-677 398.1235,-677 398.1235,-665 398.1235,-665 398.1235,-659 404.1235,-653 410.1235,-653 410.1235,-653 504.3367,-653 504.3367,-653 510.3367,-653 516.3367,-659 516.3367,-665 516.3367,-665 516.3367,-677 516.3367,-677 516.3367,-683 510.3367,-689 504.3367,-689"/>
<text text-anchor="middle" x="457.2301" y="-666.8" font-family="Verdana" font-size="14.00" fill="#000000">BuildI2PDirPath</text>
</a>
</g>
</g>
<!-- github.com/go&#45;i2p/go&#45;i2p/lib/util.UserHome -->
<g id="node4" class="node">
<title>github.com/go&#45;i2p/go&#45;i2p/lib/util.UserHome</title>
<g id="a_node4"><a xlink:title="github.com/go&#45;i2p/go&#45;i2p/lib/util.UserHome | defined in home.go:8">
<path fill="#ffe4b5" stroke="#000000" stroke-width="1.5" d="M679.2324,-689C679.2324,-689 618.9544,-689 618.9544,-689 612.9544,-689 606.9544,-683 606.9544,-677 606.9544,-677 606.9544,-665 606.9544,-665 606.9544,-659 612.9544,-653 618.9544,-653 618.9544,-653 679.2324,-653 679.2324,-653 685.2324,-653 691.2324,-659 691.2324,-665 691.2324,-665 691.2324,-677 691.2324,-677 691.2324,-683 685.2324,-689 679.2324,-689"/>
<text text-anchor="middle" x="649.0934" y="-675.2" font-family="Verdana" font-size="14.00" fill="#000000">util</text>
<text text-anchor="middle" x="649.0934" y="-658.4" font-family="Verdana" font-size="14.00" fill="#000000">UserHome</text>
</a>
</g>
</g>
<!-- github.com/go&#45;i2p/go&#45;i2p/lib/config.BuildI2PDirPath&#45;&gt;github.com/go&#45;i2p/go&#45;i2p/lib/util.UserHome -->
<g id="edge17" class="edge">
<title>github.com/go&#45;i2p/go&#45;i2p/lib/config.BuildI2PDirPath&#45;&gt;github.com/go&#45;i2p/go&#45;i2p/lib/util.UserHome</title>
<g id="a_edge17"><a xlink:title="at config.go:108: calling [github.com/go&#45;i2p/go&#45;i2p/lib/util.UserHome]">
<path fill="none" stroke="#8b4513" d="M516.361,-671C541.988,-671 571.7449,-671 596.5809,-671"/>
<polygon fill="#8b4513" stroke="#8b4513" points="596.8973,-674.5001 606.8973,-671 596.8973,-667.5001 596.8973,-674.5001"/>
</a>
</g>
</g>
<!-- github.com/go&#45;i2p/go&#45;i2p/lib/config.UpdateRouterConfig -->
<g id="node5" class="node">
<title>github.com/go&#45;i2p/go&#45;i2p/lib/config.UpdateRouterConfig</title>
<g id="a_node5"><a xlink:title="github.com/go&#45;i2p/go&#45;i2p/lib/config.UpdateRouterConfig | defined in config.go:53&#10;at config.go:71: calling [github.com/spf13/viper.GetInt]&#10;at config.go:66: calling [(*github.com/go&#45;i2p/logger.Logger).Warnf]&#10;at config.go:65: calling [github.com/spf13/viper.UnmarshalKey]&#10;at config.go:55: calling [github.com/spf13/viper.GetString]&#10;at config.go:56: calling [github.com/spf13/viper.GetString]&#10;at config.go:60: calling [github.com/spf13/viper.GetString]">
<path fill="#add8e6" stroke="#000000" stroke-width="1.5" d="M300.9551,-208C300.9551,-208 183.1207,-208 183.1207,-208 177.1207,-208 171.1207,-202 171.1207,-196 171.1207,-196 171.1207,-184 171.1207,-184 171.1207,-178 177.1207,-172 183.1207,-172 183.1207,-172 300.9551,-172 300.9551,-172 306.9551,-172 312.9551,-178 312.9551,-184 312.9551,-184 312.9551,-196 312.9551,-196 312.9551,-202 306.9551,-208 300.9551,-208"/>
<text text-anchor="middle" x="242.0379" y="-185.8" font-family="Verdana" font-size="14.00" fill="#000000">UpdateRouterConfig</text>
</a>
</g>
</g>
<!-- github.com/spf13/viper.GetString -->
<g id="node6" class="node">
<title>github.com/spf13/viper.GetString</title>
<g id="a_node6"><a xlink:title="github.com/spf13/viper.GetString | defined in viper.go:975">
<path fill="#ffe4b5" stroke="#000000" stroke-width="1.5" d="M484.6675,-208C484.6675,-208 429.7927,-208 429.7927,-208 423.7927,-208 417.7927,-202 417.7927,-196 417.7927,-196 417.7927,-184 417.7927,-184 417.7927,-178 423.7927,-172 429.7927,-172 429.7927,-172 484.6675,-172 484.6675,-172 490.6675,-172 496.6675,-178 496.6675,-184 496.6675,-184 496.6675,-196 496.6675,-196 496.6675,-202 490.6675,-208 484.6675,-208"/>
<text text-anchor="middle" x="457.2301" y="-194.2" font-family="Verdana" font-size="14.00" fill="#000000">viper</text>
<text text-anchor="middle" x="457.2301" y="-177.4" font-family="Verdana" font-size="14.00" fill="#000000">GetString</text>
</a>
</g>
</g>
<!-- github.com/go&#45;i2p/go&#45;i2p/lib/config.UpdateRouterConfig&#45;&gt;github.com/spf13/viper.GetString -->
<g id="edge25" class="edge">
<title>github.com/go&#45;i2p/go&#45;i2p/lib/config.UpdateRouterConfig&#45;&gt;github.com/spf13/viper.GetString</title>
<g id="a_edge25"><a xlink:title="at config.go:55: calling [github.com/spf13/viper.GetString]&#10;at config.go:56: calling [github.com/spf13/viper.GetString]&#10;at config.go:60: calling [github.com/spf13/viper.GetString]">
<path fill="none" stroke="#8b4513" d="M312.7979,-190C343.892,-190 379.6538,-190 407.813,-190"/>
<polygon fill="#8b4513" stroke="#8b4513" points="407.8207,-193.5001 417.8207,-190 407.8207,-186.5001 407.8207,-193.5001"/>
</a>
</g>
</g>
<!-- github.com/spf13/viper.UnmarshalKey -->
<g id="node7" class="node">
<title>github.com/spf13/viper.UnmarshalKey</title>
<g id="a_node7"><a xlink:title="github.com/spf13/viper.UnmarshalKey | defined in viper.go:1103">
<path fill="#ffe4b5" stroke="#000000" stroke-width="1.5" d="M499.4738,-147C499.4738,-147 414.9864,-147 414.9864,-147 408.9864,-147 402.9864,-141 402.9864,-135 402.9864,-135 402.9864,-123 402.9864,-123 402.9864,-117 408.9864,-111 414.9864,-111 414.9864,-111 499.4738,-111 499.4738,-111 505.4738,-111 511.4738,-117 511.4738,-123 511.4738,-123 511.4738,-135 511.4738,-135 511.4738,-141 505.4738,-147 499.4738,-147"/>
<text text-anchor="middle" x="457.2301" y="-133.2" font-family="Verdana" font-size="14.00" fill="#000000">viper</text>
<text text-anchor="middle" x="457.2301" y="-116.4" font-family="Verdana" font-size="14.00" fill="#000000">UnmarshalKey</text>
</a>
</g>
</g>
<!-- github.com/go&#45;i2p/go&#45;i2p/lib/config.UpdateRouterConfig&#45;&gt;github.com/spf13/viper.UnmarshalKey -->
<g id="edge23" class="edge">
<title>github.com/go&#45;i2p/go&#45;i2p/lib/config.UpdateRouterConfig&#45;&gt;github.com/spf13/viper.UnmarshalKey</title>
<g id="a_edge23"><a xlink:title="at config.go:65: calling [github.com/spf13/viper.UnmarshalKey]">
<path fill="none" stroke="#8b4513" d="M305.7292,-171.9456C333.2138,-164.1546 365.3119,-155.0558 392.8706,-147.2438"/>
<polygon fill="#8b4513" stroke="#8b4513" points="394.1351,-150.5234 402.8015,-144.4287 392.226,-143.7887 394.1351,-150.5234"/>
</a>
</g>
</g>
<!-- github.com/spf13/viper.GetInt -->
<g id="node8" class="node">
<title>github.com/spf13/viper.GetInt</title>
<g id="a_node8"><a xlink:title="github.com/spf13/viper.GetInt | defined in viper.go:989">
<path fill="#ffe4b5" stroke="#000000" stroke-width="1.5" d="M474.9936,-269C474.9936,-269 439.4666,-269 439.4666,-269 433.4666,-269 427.4666,-263 427.4666,-257 427.4666,-257 427.4666,-245 427.4666,-245 427.4666,-239 433.4666,-233 439.4666,-233 439.4666,-233 474.9936,-233 474.9936,-233 480.9936,-233 486.9936,-239 486.9936,-245 486.9936,-245 486.9936,-257 486.9936,-257 486.9936,-263 480.9936,-269 474.9936,-269"/>
<text text-anchor="middle" x="457.2301" y="-255.2" font-family="Verdana" font-size="14.00" fill="#000000">viper</text>
<text text-anchor="middle" x="457.2301" y="-238.4" font-family="Verdana" font-size="14.00" fill="#000000">GetInt</text>
</a>
</g>
</g>
<!-- github.com/go&#45;i2p/go&#45;i2p/lib/config.UpdateRouterConfig&#45;&gt;github.com/spf13/viper.GetInt -->
<g id="edge11" class="edge">
<title>github.com/go&#45;i2p/go&#45;i2p/lib/config.UpdateRouterConfig&#45;&gt;github.com/spf13/viper.GetInt</title>
<g id="a_edge11"><a xlink:title="at config.go:71: calling [github.com/spf13/viper.GetInt]">
<path fill="none" stroke="#8b4513" d="M305.7292,-208.0544C341.9629,-218.3255 386.2147,-230.8694 417.5134,-239.7416"/>
<polygon fill="#8b4513" stroke="#8b4513" points="416.6181,-243.1257 427.1936,-242.4856 418.5272,-236.391 416.6181,-243.1257"/>
</a>
</g>
</g>
<!-- (*github.com/go&#45;i2p/logger.Logger).Warnf -->
<g id="node24" class="node">
<title>(*github.com/go&#45;i2p/logger.Logger).Warnf</title>
<g id="a_node24"><a xlink:title="(*github.com/go&#45;i2p/logger.Logger).Warnf | defined in log.go:36">
<path fill="#ffe4b5" stroke="#000000" stroke-width="1.5" d="M474.9964,-86C474.9964,-86 439.4638,-86 439.4638,-86 433.4638,-86 427.4638,-80 427.4638,-74 427.4638,-74 427.4638,-62 427.4638,-62 427.4638,-56 433.4638,-50 439.4638,-50 439.4638,-50 474.9964,-50 474.9964,-50 480.9964,-50 486.9964,-56 486.9964,-62 486.9964,-62 486.9964,-74 486.9964,-74 486.9964,-80 480.9964,-86 474.9964,-86"/>
<text text-anchor="middle" x="457.2301" y="-72.2" font-family="Verdana" font-size="14.00" fill="#000000">logger</text>
<text text-anchor="middle" x="457.2301" y="-55.4" font-family="Verdana" font-size="14.00" fill="#000000">Warnf</text>
</a>
</g>
</g>
<!-- github.com/go&#45;i2p/go&#45;i2p/lib/config.UpdateRouterConfig&#45;&gt;(*github.com/go&#45;i2p/logger.Logger).Warnf -->
<g id="edge18" class="edge">
<title>github.com/go&#45;i2p/go&#45;i2p/lib/config.UpdateRouterConfig&#45;&gt;(*github.com/go&#45;i2p/logger.Logger).Warnf</title>
<g id="a_edge18"><a xlink:title="at config.go:66: calling [(*github.com/go&#45;i2p/logger.Logger).Warnf]">
<path fill="none" stroke="#8b4513" d="M291.1674,-171.9155C298.6333,-168.3911 306.0662,-164.4037 312.7462,-160 350.2754,-135.2594 346.9966,-112.7818 385.7462,-90 395.5161,-84.256 406.9335,-79.8715 417.7393,-76.5871"/>
<polygon fill="#8b4513" stroke="#8b4513" points="418.7415,-79.9411 427.4262,-73.8726 416.8527,-73.2007 418.7415,-79.9411"/>
</a>
</g>
</g>
<!-- github.com/go&#45;i2p/go&#45;i2p/lib/config.defaultConfig -->
<g id="node9" class="node">
<title>github.com/go&#45;i2p/go&#45;i2p/lib/config.defaultConfig</title>
<g id="a_node9"><a xlink:title="github.com/go&#45;i2p/go&#45;i2p/lib/config.defaultConfig | defined in router.go:23&#10;at router.go:24: calling [github.com/go&#45;i2p/go&#45;i2p/lib/config.BuildI2PDirPath]">
<path fill="#add8e6" stroke="#000000" stroke-width=".5" d="M280.797,-567C280.797,-567 203.2788,-567 203.2788,-567 197.2788,-567 191.2788,-561 191.2788,-555 191.2788,-555 191.2788,-543 191.2788,-543 191.2788,-537 197.2788,-531 203.2788,-531 203.2788,-531 280.797,-531 280.797,-531 286.797,-531 292.797,-537 292.797,-543 292.797,-543 292.797,-555 292.797,-555 292.797,-561 286.797,-567 280.797,-567"/>
<text text-anchor="middle" x="242.0379" y="-544.8" font-family="Verdana" font-size="14.00" fill="#000000">defaultConfig</text>
</a>
</g>
</g>
<!-- github.com/go&#45;i2p/go&#45;i2p/lib/config.defaultConfig&#45;&gt;github.com/go&#45;i2p/go&#45;i2p/lib/config.BuildI2PDirPath -->
<g id="edge2" class="edge">
<title>github.com/go&#45;i2p/go&#45;i2p/lib/config.defaultConfig&#45;&gt;github.com/go&#45;i2p/go&#45;i2p/lib/config.BuildI2PDirPath</title>
<g id="a_edge2"><a xlink:title="at router.go:24: calling [github.com/go&#45;i2p/go&#45;i2p/lib/config.BuildI2PDirPath]">
<path fill="none" stroke="#000000" d="M288.2681,-567.0078C296.6305,-570.8933 305.112,-575.2706 312.7462,-580 348.6887,-602.2663 349.6286,-619.0189 385.7462,-641 390.09,-643.6436 394.7086,-646.1603 399.4263,-648.5301"/>
<polygon fill="#000000" stroke="#000000" points="398.0428,-651.748 408.5747,-652.9007 401.0603,-645.4317 398.0428,-651.748"/>
</a>
</g>
</g>
<!-- github.com/go&#45;i2p/go&#45;i2p/lib/config.defaultBase -->
<g id="node10" class="node">
<title>github.com/go&#45;i2p/go&#45;i2p/lib/config.defaultBase</title>
<g id="a_node10"><a xlink:title="github.com/go&#45;i2p/go&#45;i2p/lib/config.defaultBase | defined in router.go:19&#10;at router.go:20: calling [github.com/go&#45;i2p/go&#45;i2p/lib/config.BuildI2PDirPath]">
<path fill="#add8e6" stroke="#000000" stroke-width=".5" d="M275.1193,-628C275.1193,-628 208.9565,-628 208.9565,-628 202.9565,-628 196.9565,-622 196.9565,-616 196.9565,-616 196.9565,-604 196.9565,-604 196.9565,-598 202.9565,-592 208.9565,-592 208.9565,-592 275.1193,-592 275.1193,-592 281.1193,-592 287.1193,-598 287.1193,-604 287.1193,-604 287.1193,-616 287.1193,-616 287.1193,-622 281.1193,-628 275.1193,-628"/>
<text text-anchor="middle" x="242.0379" y="-605.8" font-family="Verdana" font-size="14.00" fill="#000000">defaultBase</text>
</a>
</g>
</g>
<!-- github.com/go&#45;i2p/go&#45;i2p/lib/config.defaultBase&#45;&gt;github.com/go&#45;i2p/go&#45;i2p/lib/config.BuildI2PDirPath -->
<g id="edge26" class="edge">
<title>github.com/go&#45;i2p/go&#45;i2p/lib/config.defaultBase&#45;&gt;github.com/go&#45;i2p/go&#45;i2p/lib/config.BuildI2PDirPath</title>
<g id="a_edge26"><a xlink:title="at router.go:20: calling [github.com/go&#45;i2p/go&#45;i2p/lib/config.BuildI2PDirPath]">
<path fill="none" stroke="#000000" d="M287.1492,-622.7876C316.4261,-631.0866 355.1484,-642.0632 388.2492,-651.4461"/>
<polygon fill="#000000" stroke="#000000" points="387.2972,-654.8141 397.8727,-654.1741 389.2063,-648.0795 387.2972,-654.8141"/>
</a>
</g>
</g>
<!-- github.com/go&#45;i2p/go&#45;i2p/lib/config.init -->
<g id="node11" class="node">
<title>github.com/go&#45;i2p/go&#45;i2p/lib/config.init</title>
<g id="a_node11"><a xlink:title="github.com/go&#45;i2p/go&#45;i2p/lib/config.init | defined in .:0&#10;at router.go:39: calling [github.com/go&#45;i2p/go&#45;i2p/lib/config.DefaultRouterConfig]&#10;at router.go:31: calling [github.com/go&#45;i2p/go&#45;i2p/lib/config.defaultBase]&#10;at config.go:14: calling [github.com/go&#45;i2p/logger.GetGoI2PLogger]&#10;at netdb.go:15: calling [github.com/go&#45;i2p/go&#45;i2p/lib/config.defaultConfig]&#10;at router.go:32: calling [github.com/go&#45;i2p/go&#45;i2p/lib/config.defaultConfig]">
<path fill="#add8e6" stroke="#000000" stroke-width=".5" d="M72.1648,-597C72.1648,-597 42.1648,-597 42.1648,-597 36.1648,-597 30.1648,-591 30.1648,-585 30.1648,-585 30.1648,-573 30.1648,-573 30.1648,-567 36.1648,-561 42.1648,-561 42.1648,-561 72.1648,-561 72.1648,-561 78.1648,-561 84.1648,-567 84.1648,-573 84.1648,-573 84.1648,-585 84.1648,-585 84.1648,-591 78.1648,-597 72.1648,-597"/>
<text text-anchor="middle" x="57.1648" y="-574.8" font-family="Verdana" font-size="14.00" fill="#000000">init</text>
</a>
</g>
</g>
<!-- github.com/go&#45;i2p/go&#45;i2p/lib/config.init&#45;&gt;github.com/go&#45;i2p/go&#45;i2p/lib/config.defaultConfig -->
<g id="edge28" class="edge">
<title>github.com/go&#45;i2p/go&#45;i2p/lib/config.init&#45;&gt;github.com/go&#45;i2p/go&#45;i2p/lib/config.defaultConfig</title>
<g id="a_edge28"><a xlink:title="at netdb.go:15: calling [github.com/go&#45;i2p/go&#45;i2p/lib/config.defaultConfig]&#10;at router.go:32: calling [github.com/go&#45;i2p/go&#45;i2p/lib/config.defaultConfig]">
<path fill="none" stroke="#000000" d="M84.4435,-574.5734C109.8392,-570.4523 148.5854,-564.1649 181.3029,-558.8557"/>
<polygon fill="#000000" stroke="#000000" points="181.9313,-562.2996 191.2416,-557.2429 180.81,-555.39 181.9313,-562.2996"/>
</a>
</g>
</g>
<!-- github.com/go&#45;i2p/go&#45;i2p/lib/config.init&#45;&gt;github.com/go&#45;i2p/go&#45;i2p/lib/config.defaultBase -->
<g id="edge12" class="edge">
<title>github.com/go&#45;i2p/go&#45;i2p/lib/config.init&#45;&gt;github.com/go&#45;i2p/go&#45;i2p/lib/config.defaultBase</title>
<g id="a_edge12"><a xlink:title="at router.go:31: calling [github.com/go&#45;i2p/go&#45;i2p/lib/config.defaultBase]">
<path fill="none" stroke="#000000" d="M84.4435,-583.5742C111.2046,-588.0615 152.7903,-595.0347 186.5246,-600.6914"/>
<polygon fill="#000000" stroke="#000000" points="186.2756,-604.1984 196.7167,-602.4004 187.4332,-597.2948 186.2756,-604.1984"/>
</a>
</g>
</g>
<!-- github.com/go&#45;i2p/logger.GetGoI2PLogger -->
<g id="node12" class="node">
<title>github.com/go&#45;i2p/logger.GetGoI2PLogger</title>
<g id="a_node12"><a xlink:title="github.com/go&#45;i2p/logger.GetGoI2PLogger | defined in log.go:120">
<path fill="#ffe4b5" stroke="#000000" stroke-width="1.5" d="M290.7274,-689C290.7274,-689 193.3484,-689 193.3484,-689 187.3484,-689 181.3484,-683 181.3484,-677 181.3484,-677 181.3484,-665 181.3484,-665 181.3484,-659 187.3484,-653 193.3484,-653 193.3484,-653 290.7274,-653 290.7274,-653 296.7274,-653 302.7274,-659 302.7274,-665 302.7274,-665 302.7274,-677 302.7274,-677 302.7274,-683 296.7274,-689 290.7274,-689"/>
<text text-anchor="middle" x="242.0379" y="-675.2" font-family="Verdana" font-size="14.00" fill="#000000">logger</text>
<text text-anchor="middle" x="242.0379" y="-658.4" font-family="Verdana" font-size="14.00" fill="#000000">GetGoI2PLogger</text>
</a>
</g>
</g>
<!-- github.com/go&#45;i2p/go&#45;i2p/lib/config.init&#45;&gt;github.com/go&#45;i2p/logger.GetGoI2PLogger -->
<g id="edge27" class="edge">
<title>github.com/go&#45;i2p/go&#45;i2p/lib/config.init&#45;&gt;github.com/go&#45;i2p/logger.GetGoI2PLogger</title>
<g id="a_edge27"><a xlink:title="at config.go:14: calling [github.com/go&#45;i2p/logger.GetGoI2PLogger]">
<path fill="none" stroke="#8b4513" d="M84.4615,-594.7883C107.3516,-607.7931 141.06,-626.4011 171.3296,-641 176.7158,-643.5977 182.3846,-646.2059 188.0718,-648.7412"/>
<polygon fill="#8b4513" stroke="#8b4513" points="187.0498,-652.1146 197.6137,-652.9243 189.8604,-645.7037 187.0498,-652.1146"/>
</a>
</g>
</g>
<!-- github.com/go&#45;i2p/go&#45;i2p/lib/config.DefaultRouterConfig -->
<g id="node13" class="node">
<title>github.com/go&#45;i2p/go&#45;i2p/lib/config.DefaultRouterConfig</title>
<g id="a_node13"><a xlink:title="github.com/go&#45;i2p/go&#45;i2p/lib/config.DefaultRouterConfig | defined in router.go:35">
<path fill="#add8e6" stroke="#000000" stroke-width="1.5" d="M516.6979,-628C516.6979,-628 397.7623,-628 397.7623,-628 391.7623,-628 385.7623,-622 385.7623,-616 385.7623,-616 385.7623,-604 385.7623,-604 385.7623,-598 391.7623,-592 397.7623,-592 397.7623,-592 516.6979,-592 516.6979,-592 522.6979,-592 528.6979,-598 528.6979,-604 528.6979,-604 528.6979,-616 528.6979,-616 528.6979,-622 522.6979,-628 516.6979,-628"/>
<text text-anchor="middle" x="457.2301" y="-605.8" font-family="Verdana" font-size="14.00" fill="#000000">DefaultRouterConfig</text>
</a>
</g>
</g>
<!-- github.com/go&#45;i2p/go&#45;i2p/lib/config.init&#45;&gt;github.com/go&#45;i2p/go&#45;i2p/lib/config.DefaultRouterConfig -->
<g id="edge3" class="edge">
<title>github.com/go&#45;i2p/go&#45;i2p/lib/config.init&#45;&gt;github.com/go&#45;i2p/go&#45;i2p/lib/config.DefaultRouterConfig</title>
<g id="a_edge3"><a xlink:title="at router.go:39: calling [github.com/go&#45;i2p/go&#45;i2p/lib/config.DefaultRouterConfig]">
<path fill="none" stroke="#000000" d="M82.9038,-560.7971C105.1307,-546.2632 138.7215,-527.0469 171.3296,-519 232.3508,-503.9415 253.6628,-497.5639 312.7462,-519 352.4918,-533.4202 349.6286,-558.0189 385.7462,-580 390.09,-582.6436 394.7086,-585.1603 399.4263,-587.5301"/>
<polygon fill="#000000" stroke="#000000" points="398.0428,-590.748 408.5747,-591.9007 401.0603,-584.4317 398.0428,-590.748"/>
</a>
</g>
</g>
<!-- github.com/go&#45;i2p/go&#45;i2p/lib/config.InitConfig -->
<g id="node14" class="node">
<title>github.com/go&#45;i2p/go&#45;i2p/lib/config.InitConfig</title>
<g id="a_node14"><a xlink:title="github.com/go&#45;i2p/go&#45;i2p/lib/config.InitConfig | defined in config.go:19&#10;at config.go:27: calling [github.com/spf13/viper.SetConfigType]&#10;at config.go:25: calling [github.com/go&#45;i2p/go&#45;i2p/lib/config.BuildI2PDirPath]&#10;at config.go:31: calling [github.com/go&#45;i2p/go&#45;i2p/lib/config.setDefaults]&#10;at config.go:37: calling [github.com/go&#45;i2p/go&#45;i2p/lib/config.UpdateRouterConfig]&#10;at config.go:26: calling [github.com/spf13/viper.SetConfigName]&#10;at config.go:34: calling [github.com/go&#45;i2p/go&#45;i2p/lib/config.handleConfigFile]&#10;at config.go:25: calling [github.com/spf13/viper.AddConfigPath]&#10;at config.go:22: calling [github.com/spf13/viper.SetConfigFile]">
<path fill="#add8e6" stroke="#000000" stroke-width="1.5" d="M86.4951,-304C86.4951,-304 27.8345,-304 27.8345,-304 21.8345,-304 15.8345,-298 15.8345,-292 15.8345,-292 15.8345,-280 15.8345,-280 15.8345,-274 21.8345,-268 27.8345,-268 27.8345,-268 86.4951,-268 86.4951,-268 92.4951,-268 98.4951,-274 98.4951,-280 98.4951,-280 98.4951,-292 98.4951,-292 98.4951,-298 92.4951,-304 86.4951,-304"/>
<text text-anchor="middle" x="57.1648" y="-281.8" font-family="Verdana" font-size="14.00" fill="#000000">InitConfig</text>
</a>
</g>
</g>
<!-- github.com/go&#45;i2p/go&#45;i2p/lib/config.InitConfig&#45;&gt;github.com/go&#45;i2p/go&#45;i2p/lib/config.BuildI2PDirPath -->
<g id="edge7" class="edge">
<title>github.com/go&#45;i2p/go&#45;i2p/lib/config.InitConfig&#45;&gt;github.com/go&#45;i2p/go&#45;i2p/lib/config.BuildI2PDirPath</title>
<g id="a_edge7"><a xlink:title="at config.go:25: calling [github.com/go&#45;i2p/go&#45;i2p/lib/config.BuildI2PDirPath]">
<path fill="none" stroke="#000000" d="M64.1444,-304.1857C78.7299,-339.91 115.7614,-419.7039 171.3296,-465 223.4776,-507.5081 261.2099,-475.7523 312.7462,-519 361.1491,-559.6183 338.0115,-599.5984 385.7462,-641 388.555,-643.4361 391.59,-645.6958 394.7696,-647.7888"/>
<polygon fill="#000000" stroke="#000000" points="393.0815,-650.8568 403.4683,-652.9463 396.6516,-644.8356 393.0815,-650.8568"/>
</a>
</g>
</g>
<!-- github.com/go&#45;i2p/go&#45;i2p/lib/config.InitConfig&#45;&gt;github.com/go&#45;i2p/go&#45;i2p/lib/config.UpdateRouterConfig -->
<g id="edge15" class="edge">
<title>github.com/go&#45;i2p/go&#45;i2p/lib/config.InitConfig&#45;&gt;github.com/go&#45;i2p/go&#45;i2p/lib/config.UpdateRouterConfig</title>
<g id="a_edge15"><a xlink:title="at config.go:37: calling [github.com/go&#45;i2p/go&#45;i2p/lib/config.UpdateRouterConfig]">
<path fill="none" stroke="#000000" d="M87.2225,-267.742C109.9763,-254.2029 142.1833,-235.6364 171.3296,-221 177.0679,-218.1184 183.1347,-215.2297 189.2061,-212.4375"/>
<polygon fill="#000000" stroke="#000000" points="191.0335,-215.4524 198.704,-208.1439 188.1501,-209.0739 191.0335,-215.4524"/>
</a>
</g>
</g>
<!-- github.com/spf13/viper.SetConfigFile -->
<g id="node15" class="node">
<title>github.com/spf13/viper.SetConfigFile</title>
<g id="a_node15"><a xlink:title="github.com/spf13/viper.SetConfigFile | defined in viper.go:509">
<path fill="#ffe4b5" stroke="#000000" stroke-width="1.5" d="M281.0929,-391C281.0929,-391 202.9829,-391 202.9829,-391 196.9829,-391 190.9829,-385 190.9829,-379 190.9829,-379 190.9829,-367 190.9829,-367 190.9829,-361 196.9829,-355 202.9829,-355 202.9829,-355 281.0929,-355 281.0929,-355 287.0929,-355 293.0929,-361 293.0929,-367 293.0929,-367 293.0929,-379 293.0929,-379 293.0929,-385 287.0929,-391 281.0929,-391"/>
<text text-anchor="middle" x="242.0379" y="-377.2" font-family="Verdana" font-size="14.00" fill="#000000">viper</text>
<text text-anchor="middle" x="242.0379" y="-360.4" font-family="Verdana" font-size="14.00" fill="#000000">SetConfigFile</text>
</a>
</g>
</g>
<!-- github.com/go&#45;i2p/go&#45;i2p/lib/config.InitConfig&#45;&gt;github.com/spf13/viper.SetConfigFile -->
<g id="edge24" class="edge">
<title>github.com/go&#45;i2p/go&#45;i2p/lib/config.InitConfig&#45;&gt;github.com/spf13/viper.SetConfigFile</title>
<g id="a_edge24"><a xlink:title="at config.go:22: calling [github.com/spf13/viper.SetConfigFile]">
<path fill="none" stroke="#8b4513" d="M91.8703,-304.0262C114.3573,-315.5322 144.3734,-330.5666 171.3296,-343 176.9716,-345.6023 182.9022,-348.2512 188.8293,-350.8434"/>
<polygon fill="#8b4513" stroke="#8b4513" points="187.5312,-354.0953 198.0987,-354.8555 190.3118,-347.6712 187.5312,-354.0953"/>
</a>
</g>
</g>
<!-- github.com/go&#45;i2p/go&#45;i2p/lib/config.setDefaults -->
<g id="node16" class="node">
<title>github.com/go&#45;i2p/go&#45;i2p/lib/config.setDefaults</title>
<g id="a_node16"><a xlink:title="github.com/go&#45;i2p/go&#45;i2p/lib/config.setDefaults | defined in config.go:40&#10;at config.go:42: calling [github.com/go&#45;i2p/go&#45;i2p/lib/config.DefaultRouterConfig]&#10;at config.go:43: calling [github.com/go&#45;i2p/go&#45;i2p/lib/config.DefaultRouterConfig]&#10;at config.go:42: calling [github.com/spf13/viper.SetDefault]&#10;at config.go:43: calling [github.com/spf13/viper.SetDefault]&#10;at config.go:46: calling [github.com/spf13/viper.SetDefault]&#10;at config.go:49: calling [github.com/spf13/viper.SetDefault]&#10;at config.go:50: calling [github.com/spf13/viper.SetDefault]">
<path fill="#add8e6" stroke="#000000" stroke-width=".5" d="M273.5099,-330C273.5099,-330 210.5659,-330 210.5659,-330 204.5659,-330 198.5659,-324 198.5659,-318 198.5659,-318 198.5659,-306 198.5659,-306 198.5659,-300 204.5659,-294 210.5659,-294 210.5659,-294 273.5099,-294 273.5099,-294 279.5099,-294 285.5099,-300 285.5099,-306 285.5099,-306 285.5099,-318 285.5099,-318 285.5099,-324 279.5099,-330 273.5099,-330"/>
<text text-anchor="middle" x="242.0379" y="-307.8" font-family="Verdana" font-size="14.00" fill="#000000">setDefaults</text>
</a>
</g>
</g>
<!-- github.com/go&#45;i2p/go&#45;i2p/lib/config.InitConfig&#45;&gt;github.com/go&#45;i2p/go&#45;i2p/lib/config.setDefaults -->
<g id="edge9" class="edge">
<title>github.com/go&#45;i2p/go&#45;i2p/lib/config.InitConfig&#45;&gt;github.com/go&#45;i2p/go&#45;i2p/lib/config.setDefaults</title>
<g id="a_edge9"><a xlink:title="at config.go:31: calling [github.com/go&#45;i2p/go&#45;i2p/lib/config.setDefaults]">
<path fill="none" stroke="#000000" d="M98.6539,-291.8349C125.1072,-295.5552 159.656,-300.4141 188.2117,-304.43"/>
<polygon fill="#000000" stroke="#000000" points="188.045,-307.941 198.435,-305.8678 189.0199,-301.0092 188.045,-307.941"/>
</a>
</g>
</g>
<!-- github.com/go&#45;i2p/go&#45;i2p/lib/config.handleConfigFile -->
<g id="node18" class="node">
<title>github.com/go&#45;i2p/go&#45;i2p/lib/config.handleConfigFile</title>
<g id="a_node18"><a xlink:title="github.com/go&#45;i2p/go&#45;i2p/lib/config.handleConfigFile | defined in config.go:91&#10;at config.go:100: calling [(*github.com/sirupsen/logrus.Logger).Fatalf]&#10;at config.go:95: calling [(*github.com/sirupsen/logrus.Logger).Fatalf]&#10;at config.go:92: calling [github.com/spf13/viper.ReadInConfig]&#10;at config.go:103: calling [(*github.com/sirupsen/logrus.Logger).Debugf]&#10;at config.go:97: calling [github.com/go&#45;i2p/go&#45;i2p/lib/config.BuildI2PDirPath]&#10;at config.go:103: calling [github.com/spf13/viper.ConfigFileUsed]&#10;at config.go:97: calling [github.com/go&#45;i2p/go&#45;i2p/lib/config.createDefaultConfig]">
<path fill="#add8e6" stroke="#000000" stroke-width=".5" d="M291.0239,-269C291.0239,-269 193.0519,-269 193.0519,-269 187.0519,-269 181.0519,-263 181.0519,-257 181.0519,-257 181.0519,-245 181.0519,-245 181.0519,-239 187.0519,-233 193.0519,-233 193.0519,-233 291.0239,-233 291.0239,-233 297.0239,-233 303.0239,-239 303.0239,-245 303.0239,-245 303.0239,-257 303.0239,-257 303.0239,-263 297.0239,-269 291.0239,-269"/>
<text text-anchor="middle" x="242.0379" y="-246.8" font-family="Verdana" font-size="14.00" fill="#000000">handleConfigFile</text>
</a>
</g>
</g>
<!-- github.com/go&#45;i2p/go&#45;i2p/lib/config.InitConfig&#45;&gt;github.com/go&#45;i2p/go&#45;i2p/lib/config.handleConfigFile -->
<g id="edge21" class="edge">
<title>github.com/go&#45;i2p/go&#45;i2p/lib/config.InitConfig&#45;&gt;github.com/go&#45;i2p/go&#45;i2p/lib/config.handleConfigFile</title>
<g id="a_edge21"><a xlink:title="at config.go:34: calling [github.com/go&#45;i2p/go&#45;i2p/lib/config.handleConfigFile]">
<path fill="none" stroke="#000000" d="M98.6539,-278.1453C119.9872,-274.1065 146.5855,-269.071 171.0596,-264.4375"/>
<polygon fill="#000000" stroke="#000000" points="171.8608,-267.8481 181.0352,-262.549 170.5587,-260.9703 171.8608,-267.8481"/>
</a>
</g>
</g>
<!-- github.com/spf13/viper.AddConfigPath -->
<g id="node21" class="node">
<title>github.com/spf13/viper.AddConfigPath</title>
<g id="a_node21"><a xlink:title="github.com/spf13/viper.AddConfigPath | defined in viper.go:574">
<path fill="#ffe4b5" stroke="#000000" stroke-width="1.5" d="M285.9202,-452C285.9202,-452 198.1556,-452 198.1556,-452 192.1556,-452 186.1556,-446 186.1556,-440 186.1556,-440 186.1556,-428 186.1556,-428 186.1556,-422 192.1556,-416 198.1556,-416 198.1556,-416 285.9202,-416 285.9202,-416 291.9202,-416 297.9202,-422 297.9202,-428 297.9202,-428 297.9202,-440 297.9202,-440 297.9202,-446 291.9202,-452 285.9202,-452"/>
<text text-anchor="middle" x="242.0379" y="-438.2" font-family="Verdana" font-size="14.00" fill="#000000">viper</text>
<text text-anchor="middle" x="242.0379" y="-421.4" font-family="Verdana" font-size="14.00" fill="#000000">AddConfigPath</text>
</a>
</g>
</g>
<!-- github.com/go&#45;i2p/go&#45;i2p/lib/config.InitConfig&#45;&gt;github.com/spf13/viper.AddConfigPath -->
<g id="edge22" class="edge">
<title>github.com/go&#45;i2p/go&#45;i2p/lib/config.InitConfig&#45;&gt;github.com/spf13/viper.AddConfigPath</title>
<g id="a_edge22"><a xlink:title="at config.go:25: calling [github.com/spf13/viper.AddConfigPath]">
<path fill="none" stroke="#8b4513" d="M70.8516,-304.1906C90.6449,-329.4532 129.4988,-375.2844 171.3296,-404 175.0795,-406.5742 179.0855,-408.995 183.2126,-411.2576"/>
<polygon fill="#8b4513" stroke="#8b4513" points="181.8927,-414.5139 192.3889,-415.9563 185.0831,-408.2832 181.8927,-414.5139"/>
</a>
</g>
</g>
<!-- github.com/spf13/viper.SetConfigName -->
<g id="node22" class="node">
<title>github.com/spf13/viper.SetConfigName</title>
<g id="a_node22"><a xlink:title="github.com/spf13/viper.SetConfigName | defined in viper.go:2174">
<path fill="#ffe4b5" stroke="#000000" stroke-width="1.5" d="M287.2401,-86C287.2401,-86 196.8357,-86 196.8357,-86 190.8357,-86 184.8357,-80 184.8357,-74 184.8357,-74 184.8357,-62 184.8357,-62 184.8357,-56 190.8357,-50 196.8357,-50 196.8357,-50 287.2401,-50 287.2401,-50 293.2401,-50 299.2401,-56 299.2401,-62 299.2401,-62 299.2401,-74 299.2401,-74 299.2401,-80 293.2401,-86 287.2401,-86"/>
<text text-anchor="middle" x="242.0379" y="-72.2" font-family="Verdana" font-size="14.00" fill="#000000">viper</text>
<text text-anchor="middle" x="242.0379" y="-55.4" font-family="Verdana" font-size="14.00" fill="#000000">SetConfigName</text>
</a>
</g>
</g>
<!-- github.com/go&#45;i2p/go&#45;i2p/lib/config.InitConfig&#45;&gt;github.com/spf13/viper.SetConfigName -->
<g id="edge16" class="edge">
<title>github.com/go&#45;i2p/go&#45;i2p/lib/config.InitConfig&#45;&gt;github.com/spf13/viper.SetConfigName</title>
<g id="a_edge16"><a xlink:title="at config.go:26: calling [github.com/spf13/viper.SetConfigName]">
<path fill="none" stroke="#8b4513" d="M63.8954,-267.8005C78.2769,-231.1789 115.322,-147.9182 171.3296,-99 174.5096,-96.2225 177.9776,-93.6592 181.6145,-91.2994"/>
<polygon fill="#8b4513" stroke="#8b4513" points="183.5083,-94.2461 190.3514,-86.1575 179.9579,-88.2133 183.5083,-94.2461"/>
</a>
</g>
</g>
<!-- github.com/spf13/viper.SetConfigType -->
<g id="node23" class="node">
<title>github.com/spf13/viper.SetConfigType</title>
<g id="a_node23"><a xlink:title="github.com/spf13/viper.SetConfigType | defined in viper.go:2185">
<path fill="#ffe4b5" stroke="#000000" stroke-width="1.5" d="M284.5817,-147C284.5817,-147 199.4941,-147 199.4941,-147 193.4941,-147 187.4941,-141 187.4941,-135 187.4941,-135 187.4941,-123 187.4941,-123 187.4941,-117 193.4941,-111 199.4941,-111 199.4941,-111 284.5817,-111 284.5817,-111 290.5817,-111 296.5817,-117 296.5817,-123 296.5817,-123 296.5817,-135 296.5817,-135 296.5817,-141 290.5817,-147 284.5817,-147"/>
<text text-anchor="middle" x="242.0379" y="-133.2" font-family="Verdana" font-size="14.00" fill="#000000">viper</text>
<text text-anchor="middle" x="242.0379" y="-116.4" font-family="Verdana" font-size="14.00" fill="#000000">SetConfigType</text>
</a>
</g>
</g>
<!-- github.com/go&#45;i2p/go&#45;i2p/lib/config.InitConfig&#45;&gt;github.com/spf13/viper.SetConfigType -->
<g id="edge5" class="edge">
<title>github.com/go&#45;i2p/go&#45;i2p/lib/config.InitConfig&#45;&gt;github.com/spf13/viper.SetConfigType</title>
<g id="a_edge5"><a xlink:title="at config.go:27: calling [github.com/spf13/viper.SetConfigType]">
<path fill="none" stroke="#8b4513" d="M69.6542,-267.9301C88.8514,-241.276 127.9666,-191.2139 171.3296,-160 175.4396,-157.0415 179.8766,-154.281 184.4544,-151.7246"/>
<polygon fill="#8b4513" stroke="#8b4513" points="186.1392,-154.7933 193.3828,-147.0615 182.8986,-148.5886 186.1392,-154.7933"/>
</a>
</g>
</g>
<!-- github.com/go&#45;i2p/go&#45;i2p/lib/config.setDefaults&#45;&gt;github.com/go&#45;i2p/go&#45;i2p/lib/config.DefaultRouterConfig -->
<g id="edge14" class="edge">
<title>github.com/go&#45;i2p/go&#45;i2p/lib/config.setDefaults&#45;&gt;github.com/go&#45;i2p/go&#45;i2p/lib/config.DefaultRouterConfig</title>
<g id="a_edge14"><a xlink:title="at config.go:42: calling [github.com/go&#45;i2p/go&#45;i2p/lib/config.DefaultRouterConfig]&#10;at config.go:43: calling [github.com/go&#45;i2p/go&#45;i2p/lib/config.DefaultRouterConfig]">
<path fill="none" stroke="#000000" d="M285.8597,-324.2933C295.7885,-328.8177 305.5205,-334.8967 312.7462,-343 349.4225,-384.1313 348.7454,-539.1603 385.7462,-580 387.6947,-582.1507 389.8221,-584.1519 392.0845,-586.0136"/>
<polygon fill="#000000" stroke="#000000" points="390.0575,-588.8669 400.2324,-591.82 394.1199,-583.1662 390.0575,-588.8669"/>
</a>
</g>
</g>
<!-- github.com/spf13/viper.SetDefault -->
<g id="node17" class="node">
<title>github.com/spf13/viper.SetDefault</title>
<g id="a_node17"><a xlink:title="github.com/spf13/viper.SetDefault | defined in viper.go:1596">
<path fill="#ffe4b5" stroke="#000000" stroke-width="1.5" d="M487.0956,-567C487.0956,-567 427.3646,-567 427.3646,-567 421.3646,-567 415.3646,-561 415.3646,-555 415.3646,-555 415.3646,-543 415.3646,-543 415.3646,-537 421.3646,-531 427.3646,-531 427.3646,-531 487.0956,-531 487.0956,-531 493.0956,-531 499.0956,-537 499.0956,-543 499.0956,-543 499.0956,-555 499.0956,-555 499.0956,-561 493.0956,-567 487.0956,-567"/>
<text text-anchor="middle" x="457.2301" y="-553.2" font-family="Verdana" font-size="14.00" fill="#000000">viper</text>
<text text-anchor="middle" x="457.2301" y="-536.4" font-family="Verdana" font-size="14.00" fill="#000000">SetDefault</text>
</a>
</g>
</g>
<!-- github.com/go&#45;i2p/go&#45;i2p/lib/config.setDefaults&#45;&gt;github.com/spf13/viper.SetDefault -->
<g id="edge19" class="edge">
<title>github.com/go&#45;i2p/go&#45;i2p/lib/config.setDefaults&#45;&gt;github.com/spf13/viper.SetDefault</title>
<g id="a_edge19"><a xlink:title="at config.go:42: calling [github.com/spf13/viper.SetDefault]&#10;at config.go:43: calling [github.com/spf13/viper.SetDefault]&#10;at config.go:46: calling [github.com/spf13/viper.SetDefault]&#10;at config.go:49: calling [github.com/spf13/viper.SetDefault]&#10;at config.go:50: calling [github.com/spf13/viper.SetDefault]">
<path fill="none" stroke="#8b4513" d="M285.6244,-325.0294C295.4438,-329.5187 305.1846,-335.3971 312.7462,-343 370.4433,-401.0118 329.948,-452.1596 385.7462,-512 391.5685,-518.2441 398.683,-523.6151 406.1414,-528.1742"/>
<polygon fill="#8b4513" stroke="#8b4513" points="404.5665,-531.304 414.9981,-533.1569 407.9988,-525.2033 404.5665,-531.304"/>
</a>
</g>
</g>
<!-- github.com/go&#45;i2p/go&#45;i2p/lib/config.handleConfigFile&#45;&gt;github.com/go&#45;i2p/go&#45;i2p/lib/config.createDefaultConfig -->
<g id="edge30" class="edge">
<title>github.com/go&#45;i2p/go&#45;i2p/lib/config.handleConfigFile&#45;&gt;github.com/go&#45;i2p/go&#45;i2p/lib/config.createDefaultConfig</title>
<g id="a_edge30"><a xlink:title="at config.go:97: calling [github.com/go&#45;i2p/go&#45;i2p/lib/config.createDefaultConfig]">
<path fill="none" stroke="#000000" d="M303.1277,-268.317C328.1391,-275.4069 357.3021,-283.6737 383.4868,-291.0962"/>
<polygon fill="#000000" stroke="#000000" points="382.7861,-294.5354 393.3616,-293.8954 384.6952,-287.8007 382.7861,-294.5354"/>
</a>
</g>
</g>
<!-- github.com/go&#45;i2p/go&#45;i2p/lib/config.handleConfigFile&#45;&gt;github.com/go&#45;i2p/go&#45;i2p/lib/config.BuildI2PDirPath -->
<g id="edge20" class="edge">
<title>github.com/go&#45;i2p/go&#45;i2p/lib/config.handleConfigFile&#45;&gt;github.com/go&#45;i2p/go&#45;i2p/lib/config.BuildI2PDirPath</title>
<g id="a_edge20"><a xlink:title="at config.go:97: calling [github.com/go&#45;i2p/go&#45;i2p/lib/config.BuildI2PDirPath]">
<path fill="none" stroke="#000000" d="M297.8748,-269.0032C303.4844,-272.5994 308.6209,-276.8894 312.7462,-282 363.8802,-345.348 334.1124,-578.0587 385.7462,-641 387.4268,-643.0486 389.2716,-644.9596 391.2456,-646.7419"/>
<polygon fill="#000000" stroke="#000000" points="389.3554,-649.7026 399.4247,-652.9981 393.6082,-644.1426 389.3554,-649.7026"/>
</a>
</g>
</g>
<!-- github.com/spf13/viper.ReadInConfig -->
<g id="node19" class="node">
<title>github.com/spf13/viper.ReadInConfig</title>
<g id="a_node19"><a xlink:title="github.com/spf13/viper.ReadInConfig | defined in viper.go:1632">
<path fill="#ffe4b5" stroke="#000000" stroke-width="1.5" d="M497.0448,-418C497.0448,-418 417.4154,-418 417.4154,-418 411.4154,-418 405.4154,-412 405.4154,-406 405.4154,-406 405.4154,-394 405.4154,-394 405.4154,-388 411.4154,-382 417.4154,-382 417.4154,-382 497.0448,-382 497.0448,-382 503.0448,-382 509.0448,-388 509.0448,-394 509.0448,-394 509.0448,-406 509.0448,-406 509.0448,-412 503.0448,-418 497.0448,-418"/>
<text text-anchor="middle" x="457.2301" y="-404.2" font-family="Verdana" font-size="14.00" fill="#000000">viper</text>
<text text-anchor="middle" x="457.2301" y="-387.4" font-family="Verdana" font-size="14.00" fill="#000000">ReadInConfig</text>
</a>
</g>
</g>
<!-- github.com/go&#45;i2p/go&#45;i2p/lib/config.handleConfigFile&#45;&gt;github.com/spf13/viper.ReadInConfig -->
<g id="edge6" class="edge">
<title>github.com/go&#45;i2p/go&#45;i2p/lib/config.handleConfigFile&#45;&gt;github.com/spf13/viper.ReadInConfig</title>
<g id="a_edge6"><a xlink:title="at config.go:92: calling [github.com/spf13/viper.ReadInConfig]">
<path fill="none" stroke="#8b4513" d="M290.7042,-269.046C298.3863,-272.8098 306.008,-277.136 312.7462,-282 352.0409,-310.3649 347.3857,-333.3839 385.7462,-363 392.2015,-367.9838 399.4285,-372.6182 406.74,-376.8034"/>
<polygon fill="#8b4513" stroke="#8b4513" points="405.5404,-380.1362 415.9945,-381.857 408.8953,-373.9925 405.5404,-380.1362"/>
</a>
</g>
</g>
<!-- github.com/spf13/viper.ConfigFileUsed -->
<g id="node20" class="node">
<title>github.com/spf13/viper.ConfigFileUsed</title>
<g id="a_node20"><a xlink:title="github.com/spf13/viper.ConfigFileUsed | defined in viper.go:569">
<path fill="#ffe4b5" stroke="#000000" stroke-width="1.5" d="M502.1629,-479C502.1629,-479 412.2973,-479 412.2973,-479 406.2973,-479 400.2973,-473 400.2973,-467 400.2973,-467 400.2973,-455 400.2973,-455 400.2973,-449 406.2973,-443 412.2973,-443 412.2973,-443 502.1629,-443 502.1629,-443 508.1629,-443 514.1629,-449 514.1629,-455 514.1629,-455 514.1629,-467 514.1629,-467 514.1629,-473 508.1629,-479 502.1629,-479"/>
<text text-anchor="middle" x="457.2301" y="-465.2" font-family="Verdana" font-size="14.00" fill="#000000">viper</text>
<text text-anchor="middle" x="457.2301" y="-448.4" font-family="Verdana" font-size="14.00" fill="#000000">ConfigFileUsed</text>
</a>
</g>
</g>
<!-- github.com/go&#45;i2p/go&#45;i2p/lib/config.handleConfigFile&#45;&gt;github.com/spf13/viper.ConfigFileUsed -->
<g id="edge29" class="edge">
<title>github.com/go&#45;i2p/go&#45;i2p/lib/config.handleConfigFile&#45;&gt;github.com/spf13/viper.ConfigFileUsed</title>
<g id="a_edge29"><a xlink:title="at config.go:103: calling [github.com/spf13/viper.ConfigFileUsed]">
<path fill="none" stroke="#8b4513" d="M294.8749,-269.0888C301.3538,-272.7167 307.5209,-276.9915 312.7462,-282 365.9835,-333.0276 332.1067,-380.3954 385.7462,-431 388.2702,-433.3811 391.0107,-435.587 393.8987,-437.6286"/>
<polygon fill="#8b4513" stroke="#8b4513" points="392.0421,-440.5956 402.3704,-442.9569 395.769,-434.6701 392.0421,-440.5956"/>
</a>
</g>
</g>
<!-- github.com/go&#45;i2p/go&#45;i2p/lib/config.handleConfigFile&#45;&gt;(*github.com/sirupsen/logrus.Logger).Fatalf -->
<g id="edge4" class="edge">
<title>github.com/go&#45;i2p/go&#45;i2p/lib/config.handleConfigFile&#45;&gt;(*github.com/sirupsen/logrus.Logger).Fatalf</title>
<g id="a_edge4"><a xlink:title="at config.go:100: calling [(*github.com/sirupsen/logrus.Logger).Fatalf]&#10;at config.go:95: calling [(*github.com/sirupsen/logrus.Logger).Fatalf]">
<path fill="none" stroke="#8b4513" d="M288.2681,-269.0078C296.6305,-272.8933 305.112,-277.2706 312.7462,-282 348.6887,-304.2663 346.5755,-327.0842 385.7462,-343 460.2172,-373.259 556.1927,-371.4538 609.2948,-367.3099"/>
<polygon fill="#8b4513" stroke="#8b4513" points="609.6563,-370.7919 619.3245,-366.4587 609.0643,-363.817 609.6563,-370.7919"/>
</a>
</g>
</g>
<!-- github.com/go&#45;i2p/go&#45;i2p/lib/config.handleConfigFile&#45;&gt;(*github.com/sirupsen/logrus.Logger).Debugf -->
<g id="edge13" class="edge">
<title>github.com/go&#45;i2p/go&#45;i2p/lib/config.handleConfigFile&#45;&gt;(*github.com/sirupsen/logrus.Logger).Debugf</title>
<g id="a_edge13"><a xlink:title="at config.go:103: calling [(*github.com/sirupsen/logrus.Logger).Debugf]">
<path fill="none" stroke="#8b4513" d="M296.5193,-269.1421C302.5087,-272.7299 308.1062,-276.98 312.7462,-282 346.2813,-318.2814 345.482,-463.369 385.7462,-492 437.5303,-528.8225 475.2252,-526.2992 528.714,-492 594.1711,-450.0263 550.9746,-391.9231 601.714,-333 603.6383,-330.7654 605.7622,-328.6288 608.0125,-326.5979"/>
<polygon fill="#8b4513" stroke="#8b4513" points="610.4635,-329.1174 616.0444,-320.1116 606.0655,-323.6715 610.4635,-329.1174"/>
</a>
</g>
</g>
</g>
</svg>
