<?xml version="1.0" encoding="UTF-8" standalone="no"?>
<!DOCTYPE svg PUBLIC "-//W3C//DTD SVG 1.1//EN"
 "http://www.w3.org/Graphics/SVG/1.1/DTD/svg11.dtd">
<!-- Generated by graphviz version 2.40.1 (20161225.0304)
 -->
<!-- Title: gocallvis Pages: 1 -->
<svg width="712pt" height="726pt"
 viewBox="0.00 0.00 712.47 726.00" xmlns="http://www.w3.org/2000/svg" xmlns:xlink="http://www.w3.org/1999/xlink">
<g id="graph0" class="graph" transform="scale(1 1) rotate(0) translate(0 726)">
<title>gocallvis</title>
<polygon fill="#d3d3d3" stroke="transparent" points="0,0 0,-726 712.4728,-726 712.4728,0 0,0"/>
<g id="clust1" class="cluster">
<title>cluster_focus</title>
<polygon fill="#e6ecfa" stroke="#000000" stroke-width=".5" points="8,-8 8,-718 704.4728,-718 704.4728,-8 8,-8"/>
<text text-anchor="middle" x="356.2364" y="-697.8" font-family="Arial" font-size="18.00" fill="#000000">config</text>
</g>
<g id="clust3" class="cluster">
<title>cluster_*github.com/sirupsen/logrus.Logger</title>
<g id="a_clust3"><a xlink:title="type: *github.com/sirupsen/logrus.Logger">
<path fill="#eed8ae" stroke="#000000" stroke-width=".5" d="M620.1025,-307C620.1025,-307 678.0843,-307 678.0843,-307 684.0843,-307 690.0843,-313 690.0843,-319 690.0843,-319 690.0843,-434 690.0843,-434 690.0843,-440 684.0843,-446 678.0843,-446 678.0843,-446 620.1025,-446 620.1025,-446 614.1025,-446 608.1025,-440 608.1025,-434 608.1025,-434 608.1025,-319 608.1025,-319 608.1025,-313 614.1025,-307 620.1025,-307"/>
<text text-anchor="middle" x="649.0934" y="-315.5" font-family="Arial" font-size="15.00" fill="#222222">(*Logger)</text>
</a>
</g>
</g>
<g id="clust2" class="cluster">
<title>cluster_*github.com/go&#45;i2p/logger.Logger</title>
<g id="a_clust2"><a xlink:title="type: *github.com/go&#45;i2p/logger.Logger">
<path fill="#eed8ae" stroke="#000000" stroke-width=".5" d="M430.3472,-602C430.3472,-602 484.113,-602 484.113,-602 490.113,-602 496.113,-608 496.113,-614 496.113,-614 496.113,-668 496.113,-668 496.113,-674 490.113,-680 484.113,-680 484.113,-680 430.3472,-680 430.3472,-680 424.3472,-680 418.3472,-674 418.3472,-668 418.3472,-668 418.3472,-614 418.3472,-614 418.3472,-608 424.3472,-602 430.3472,-602"/>
<text text-anchor="middle" x="457.2301" y="-610.5" font-family="Arial" font-size="15.00" fill="#222222">(*Logger)</text>
</a>
</g>
</g>
<!-- github.com/go&#45;i2p/go&#45;i2p/lib/config.BuildI2PDirPath -->
<g id="node1" class="node">
<title>github.com/go&#45;i2p/go&#45;i2p/lib/config.BuildI2PDirPath</title>
<g id="a_node1"><a xlink:title="github.com/go&#45;i2p/go&#45;i2p/lib/config.BuildI2PDirPath | defined in config.go:107&#10;at config.go:108: calling [github.com/go&#45;i2p/go&#45;i2p/lib/util.UserHome]">
<path fill="#add8e6" stroke="#000000" stroke-width="1.5" d="M504.3367,-52C504.3367,-52 410.1235,-52 410.1235,-52 404.1235,-52 398.1235,-46 398.1235,-40 398.1235,-40 398.1235,-28 398.1235,-28 398.1235,-22 404.1235,-16 410.1235,-16 410.1235,-16 504.3367,-16 504.3367,-16 510.3367,-16 516.3367,-22 516.3367,-28 516.3367,-28 516.3367,-40 516.3367,-40 516.3367,-46 510.3367,-52 504.3367,-52"/>
<text text-anchor="middle" x="457.2301" y="-29.8" font-family="Verdana" font-size="14.00" fill="#000000">BuildI2PDirPath</text>
</a>
</g>
</g>
<!-- github.com/go&#45;i2p/go&#45;i2p/lib/util.UserHome -->
<g id="node2" class="node">
<title>github.com/go&#45;i2p/go&#45;i2p/lib/util.UserHome</title>
<g id="a_node2"><a xlink:title="github.com/go&#45;i2p/go&#45;i2p/lib/util.UserHome | defined in home.go:8">
<path fill="#ffe4b5" stroke="#000000" stroke-width="1.5" d="M679.2324,-52C679.2324,-52 618.9544,-52 618.9544,-52 612.9544,-52 606.9544,-46 606.9544,-40 606.9544,-40 606.9544,-28 606.9544,-28 606.9544,-22 612.9544,-16 618.9544,-16 618.9544,-16 679.2324,-16 679.2324,-16 685.2324,-16 691.2324,-22 691.2324,-28 691.2324,-28 691.2324,-40 691.2324,-40 691.2324,-46 685.2324,-52 679.2324,-52"/>
<text text-anchor="middle" x="649.0934" y="-38.2" font-family="Verdana" font-size="14.00" fill="#000000">util</text>
<text text-anchor="middle" x="649.0934" y="-21.4" font-family="Verdana" font-size="14.00" fill="#000000">UserHome</text>
</a>
</g>
</g>
<!-- github.com/go&#45;i2p/go&#45;i2p/lib/config.BuildI2PDirPath&#45;&gt;github.com/go&#45;i2p/go&#45;i2p/lib/util.UserHome -->
<g id="edge1" class="edge">
<title>github.com/go&#45;i2p/go&#45;i2p/lib/config.BuildI2PDirPath&#45;&gt;github.com/go&#45;i2p/go&#45;i2p/lib/util.UserHome</title>
<g id="a_edge1"><a xlink:title="at config.go:108: calling [github.com/go&#45;i2p/go&#45;i2p/lib/util.UserHome]">
<path fill="none" stroke="#8b4513" d="M516.361,-34C541.988,-34 571.7449,-34 596.5809,-34"/>
<polygon fill="#8b4513" stroke="#8b4513" points="596.8973,-37.5001 606.8973,-34 596.8973,-30.5001 596.8973,-37.5001"/>
</a>
</g>
</g>
<!-- github.com/go&#45;i2p/go&#45;i2p/lib/config.defaultConfig -->
<g id="node3" class="node">
<title>github.com/go&#45;i2p/go&#45;i2p/lib/config.defaultConfig</title>
<g id="a_node3"><a xlink:title="github.com/go&#45;i2p/go&#45;i2p/lib/config.defaultConfig | defined in router.go:23&#10;at router.go:24: calling [github.com/go&#45;i2p/go&#45;i2p/lib/config.BuildI2PDirPath]">
<path fill="#add8e6" stroke="#000000" stroke-width=".5" d="M280.797,-52C280.797,-52 203.2788,-52 203.2788,-52 197.2788,-52 191.2788,-46 191.2788,-40 191.2788,-40 191.2788,-28 191.2788,-28 191.2788,-22 197.2788,-16 203.2788,-16 203.2788,-16 280.797,-16 280.797,-16 286.797,-16 292.797,-22 292.797,-28 292.797,-28 292.797,-40 292.797,-40 292.797,-46 286.797,-52 280.797,-52"/>
<text text-anchor="middle" x="242.0379" y="-29.8" font-family="Verdana" font-size="14.00" fill="#000000">defaultConfig</text>
</a>
</g>
</g>
<!-- github.com/go&#45;i2p/go&#45;i2p/lib/config.defaultConfig&#45;&gt;github.com/go&#45;i2p/go&#45;i2p/lib/config.BuildI2PDirPath -->
<g id="edge18" class="edge">
<title>github.com/go&#45;i2p/go&#45;i2p/lib/config.defaultConfig&#45;&gt;github.com/go&#45;i2p/go&#45;i2p/lib/config.BuildI2PDirPath</title>
<g id="a_edge18"><a xlink:title="at router.go:24: calling [github.com/go&#45;i2p/go&#45;i2p/lib/config.BuildI2PDirPath]">
<path fill="none" stroke="#000000" d="M293.0354,-34C321.2866,-34 356.8153,-34 387.5917,-34"/>
<polygon fill="#000000" stroke="#000000" points="387.8293,-37.5001 397.8293,-34 387.8292,-30.5001 387.8293,-37.5001"/>
</a>
</g>
</g>
<!-- github.com/go&#45;i2p/go&#45;i2p/lib/config.createDefaultConfig -->
<g id="node4" class="node">
<title>github.com/go&#45;i2p/go&#45;i2p/lib/config.createDefaultConfig</title>
<g id="a_node4"><a xlink:title="github.com/go&#45;i2p/go&#45;i2p/lib/config.createDefaultConfig | defined in config.go:76&#10;at config.go:88: calling [(*github.com/sirupsen/logrus.Logger).Debugf]&#10;at config.go:84: calling [github.com/spf13/viper.WriteConfig]&#10;at config.go:80: calling [(*github.com/sirupsen/logrus.Logger).Fatalf]&#10;at config.go:85: calling [(*github.com/sirupsen/logrus.Logger).Fatalf]">
<path fill="#add8e6" stroke="#000000" stroke-width=".5" d="M514.5054,-384C514.5054,-384 399.9548,-384 399.9548,-384 393.9548,-384 387.9548,-378 387.9548,-372 387.9548,-372 387.9548,-360 387.9548,-360 387.9548,-354 393.9548,-348 399.9548,-348 399.9548,-348 514.5054,-348 514.5054,-348 520.5054,-348 526.5054,-354 526.5054,-360 526.5054,-360 526.5054,-372 526.5054,-372 526.5054,-378 520.5054,-384 514.5054,-384"/>
<text text-anchor="middle" x="457.2301" y="-361.8" font-family="Verdana" font-size="14.00" fill="#000000">createDefaultConfig</text>
</a>
</g>
</g>
<!-- github.com/spf13/viper.WriteConfig -->
<g id="node5" class="node">
<title>github.com/spf13/viper.WriteConfig</title>
<g id="a_node5"><a xlink:title="github.com/spf13/viper.WriteConfig | defined in viper.go:1718">
<path fill="#ffe4b5" stroke="#000000" stroke-width="1.5" d="M684.3525,-299C684.3525,-299 613.8343,-299 613.8343,-299 607.8343,-299 601.8343,-293 601.8343,-287 601.8343,-287 601.8343,-275 601.8343,-275 601.8343,-269 607.8343,-263 613.8343,-263 613.8343,-263 684.3525,-263 684.3525,-263 690.3525,-263 696.3525,-269 696.3525,-275 696.3525,-275 696.3525,-287 696.3525,-287 696.3525,-293 690.3525,-299 684.3525,-299"/>
<text text-anchor="middle" x="649.0934" y="-285.2" font-family="Verdana" font-size="14.00" fill="#000000">viper</text>
<text text-anchor="middle" x="649.0934" y="-268.4" font-family="Verdana" font-size="14.00" fill="#000000">WriteConfig</text>
</a>
</g>
</g>
<!-- github.com/go&#45;i2p/go&#45;i2p/lib/config.createDefaultConfig&#45;&gt;github.com/spf13/viper.WriteConfig -->
<g id="edge13" class="edge">
<title>github.com/go&#45;i2p/go&#45;i2p/lib/config.createDefaultConfig&#45;&gt;github.com/spf13/viper.WriteConfig</title>
<g id="a_edge13"><a xlink:title="at config.go:84: calling [github.com/spf13/viper.WriteConfig]">
<path fill="none" stroke="#8b4513" d="M497.9194,-347.9737C527.4267,-334.9012 567.5118,-317.1426 598.9909,-303.1966"/>
<polygon fill="#8b4513" stroke="#8b4513" points="600.7376,-306.251 608.4628,-299.0003 597.9021,-299.8509 600.7376,-306.251"/>
</a>
</g>
</g>
<!-- (*github.com/sirupsen/logrus.Logger).Fatalf -->
<g id="node25" class="node">
<title>(*github.com/sirupsen/logrus.Logger).Fatalf</title>
<g id="a_node25"><a xlink:title="(*github.com/sirupsen/logrus.Logger).Fatalf | defined in logger.go:189">
<path fill="#ffe4b5" stroke="#000000" stroke-width="1.5" d="M666.5892,-377C666.5892,-377 631.5976,-377 631.5976,-377 625.5976,-377 619.5976,-371 619.5976,-365 619.5976,-365 619.5976,-353 619.5976,-353 619.5976,-347 625.5976,-341 631.5976,-341 631.5976,-341 666.5892,-341 666.5892,-341 672.5892,-341 678.5892,-347 678.5892,-353 678.5892,-353 678.5892,-365 678.5892,-365 678.5892,-371 672.5892,-377 666.5892,-377"/>
<text text-anchor="middle" x="649.0934" y="-363.2" font-family="Verdana" font-size="14.00" fill="#000000">logrus</text>
<text text-anchor="middle" x="649.0934" y="-346.4" font-family="Verdana" font-size="14.00" fill="#000000">Fatalf</text>
</a>
</g>
</g>
<!-- github.com/go&#45;i2p/go&#45;i2p/lib/config.createDefaultConfig&#45;&gt;(*github.com/sirupsen/logrus.Logger).Fatalf -->
<g id="edge26" class="edge">
<title>github.com/go&#45;i2p/go&#45;i2p/lib/config.createDefaultConfig&#45;&gt;(*github.com/sirupsen/logrus.Logger).Fatalf</title>
<g id="a_edge26"><a xlink:title="at config.go:80: calling [(*github.com/sirupsen/logrus.Logger).Fatalf]&#10;at config.go:85: calling [(*github.com/sirupsen/logrus.Logger).Fatalf]">
<path fill="none" stroke="#8b4513" d="M526.4972,-363.4728C554.3605,-362.4563 585.4839,-361.3207 609.3993,-360.4482"/>
<polygon fill="#8b4513" stroke="#8b4513" points="609.6433,-363.9417 619.509,-360.0794 609.388,-356.9464 609.6433,-363.9417"/>
</a>
</g>
</g>
<!-- (*github.com/sirupsen/logrus.Logger).Debugf -->
<g id="node26" class="node">
<title>(*github.com/sirupsen/logrus.Logger).Debugf</title>
<g id="a_node26"><a xlink:title="(*github.com/sirupsen/logrus.Logger).Debugf | defined in logger.go:163">
<path fill="#ffe4b5" stroke="#000000" stroke-width="1.5" d="M670.0752,-438C670.0752,-438 628.1116,-438 628.1116,-438 622.1116,-438 616.1116,-432 616.1116,-426 616.1116,-426 616.1116,-414 616.1116,-414 616.1116,-408 622.1116,-402 628.1116,-402 628.1116,-402 670.0752,-402 670.0752,-402 676.0752,-402 682.0752,-408 682.0752,-414 682.0752,-414 682.0752,-426 682.0752,-426 682.0752,-432 676.0752,-438 670.0752,-438"/>
<text text-anchor="middle" x="649.0934" y="-424.2" font-family="Verdana" font-size="14.00" fill="#000000">logrus</text>
<text text-anchor="middle" x="649.0934" y="-407.4" font-family="Verdana" font-size="14.00" fill="#000000">Debugf</text>
</a>
</g>
</g>
<!-- github.com/go&#45;i2p/go&#45;i2p/lib/config.createDefaultConfig&#45;&gt;(*github.com/sirupsen/logrus.Logger).Debugf -->
<g id="edge5" class="edge">
<title>github.com/go&#45;i2p/go&#45;i2p/lib/config.createDefaultConfig&#45;&gt;(*github.com/sirupsen/logrus.Logger).Debugf</title>
<g id="a_edge5"><a xlink:title="at config.go:88: calling [(*github.com/sirupsen/logrus.Logger).Debugf]">
<path fill="none" stroke="#8b4513" d="M521.3845,-384.0563C549.2466,-391.8981 581.1403,-400.8746 606.0853,-407.8953"/>
<polygon fill="#8b4513" stroke="#8b4513" points="605.3971,-411.3376 615.9714,-410.6778 607.2937,-404.5994 605.3971,-411.3376"/>
</a>
</g>
</g>
<!-- github.com/go&#45;i2p/go&#45;i2p/lib/config.InitConfig -->
<g id="node6" class="node">
<title>github.com/go&#45;i2p/go&#45;i2p/lib/config.InitConfig</title>
<g id="a_node6"><a xlink:title="github.com/go&#45;i2p/go&#45;i2p/lib/config.InitConfig | defined in config.go:19&#10;at config.go:22: calling [github.com/spf13/viper.SetConfigFile]&#10;at config.go:26: calling [github.com/spf13/viper.SetConfigName]&#10;at config.go:31: calling [github.com/go&#45;i2p/go&#45;i2p/lib/config.setDefaults]&#10;at config.go:34: calling [github.com/go&#45;i2p/go&#45;i2p/lib/config.handleConfigFile]&#10;at config.go:27: calling [github.com/spf13/viper.SetConfigType]&#10;at config.go:25: calling [github.com/go&#45;i2p/go&#45;i2p/lib/config.BuildI2PDirPath]&#10;at config.go:37: calling [github.com/go&#45;i2p/go&#45;i2p/lib/config.UpdateRouterConfig]&#10;at config.go:25: calling [github.com/spf13/viper.AddConfigPath]">
<path fill="#add8e6" stroke="#000000" stroke-width="1.5" d="M86.4951,-441C86.4951,-441 27.8345,-441 27.8345,-441 21.8345,-441 15.8345,-435 15.8345,-429 15.8345,-429 15.8345,-417 15.8345,-417 15.8345,-411 21.8345,-405 27.8345,-405 27.8345,-405 86.4951,-405 86.4951,-405 92.4951,-405 98.4951,-411 98.4951,-417 98.4951,-417 98.4951,-429 98.4951,-429 98.4951,-435 92.4951,-441 86.4951,-441"/>
<text text-anchor="middle" x="57.1648" y="-418.8" font-family="Verdana" font-size="14.00" fill="#000000">InitConfig</text>
</a>
</g>
</g>
<!-- github.com/go&#45;i2p/go&#45;i2p/lib/config.InitConfig&#45;&gt;github.com/go&#45;i2p/go&#45;i2p/lib/config.BuildI2PDirPath -->
<g id="edge19" class="edge">
<title>github.com/go&#45;i2p/go&#45;i2p/lib/config.InitConfig&#45;&gt;github.com/go&#45;i2p/go&#45;i2p/lib/config.BuildI2PDirPath</title>
<g id="a_edge19"><a xlink:title="at config.go:25: calling [github.com/go&#45;i2p/go&#45;i2p/lib/config.BuildI2PDirPath]">
<path fill="none" stroke="#000000" d="M62.9937,-404.7782C75.9399,-367.4562 110.8221,-282.3605 171.3296,-241 224.1546,-204.8909 261.8825,-252.8231 312.7462,-214 371.3649,-169.2577 332.4071,-115.9211 385.7462,-65 388.6356,-62.2415 391.8097,-59.707 395.1642,-57.3814"/>
<polygon fill="#000000" stroke="#000000" points="397.1573,-60.2639 403.8152,-52.0224 393.471,-54.3132 397.1573,-60.2639"/>
</a>
</g>
</g>
<!-- github.com/spf13/viper.SetConfigFile -->
<g id="node7" class="node">
<title>github.com/spf13/viper.SetConfigFile</title>
<g id="a_node7"><a xlink:title="github.com/spf13/viper.SetConfigFile | defined in viper.go:509">
<path fill="#ffe4b5" stroke="#000000" stroke-width="1.5" d="M281.0929,-289C281.0929,-289 202.9829,-289 202.9829,-289 196.9829,-289 190.9829,-283 190.9829,-277 190.9829,-277 190.9829,-265 190.9829,-265 190.9829,-259 196.9829,-253 202.9829,-253 202.9829,-253 281.0929,-253 281.0929,-253 287.0929,-253 293.0929,-259 293.0929,-265 293.0929,-265 293.0929,-277 293.0929,-277 293.0929,-283 287.0929,-289 281.0929,-289"/>
<text text-anchor="middle" x="242.0379" y="-275.2" font-family="Verdana" font-size="14.00" fill="#000000">viper</text>
<text text-anchor="middle" x="242.0379" y="-258.4" font-family="Verdana" font-size="14.00" fill="#000000">SetConfigFile</text>
</a>
</g>
</g>
<!-- github.com/go&#45;i2p/go&#45;i2p/lib/config.InitConfig&#45;&gt;github.com/spf13/viper.SetConfigFile -->
<g id="edge2" class="edge">
<title>github.com/go&#45;i2p/go&#45;i2p/lib/config.InitConfig&#45;&gt;github.com/spf13/viper.SetConfigFile</title>
<g id="a_edge2"><a xlink:title="at config.go:22: calling [github.com/spf13/viper.SetConfigFile]">
<path fill="none" stroke="#8b4513" d="M70.467,-404.8267C90.0913,-379.0708 129.0691,-331.7776 171.3296,-302 175.4693,-299.0831 179.9271,-296.352 184.5191,-293.8153"/>
<polygon fill="#8b4513" stroke="#8b4513" points="186.1979,-296.8874 193.4666,-289.1792 182.9775,-290.6722 186.1979,-296.8874"/>
</a>
</g>
</g>
<!-- github.com/go&#45;i2p/go&#45;i2p/lib/config.setDefaults -->
<g id="node8" class="node">
<title>github.com/go&#45;i2p/go&#45;i2p/lib/config.setDefaults</title>
<g id="a_node8"><a xlink:title="github.com/go&#45;i2p/go&#45;i2p/lib/config.setDefaults | defined in config.go:40&#10;at config.go:42: calling [github.com/go&#45;i2p/go&#45;i2p/lib/config.DefaultRouterConfig]&#10;at config.go:43: calling [github.com/go&#45;i2p/go&#45;i2p/lib/config.DefaultRouterConfig]&#10;at config.go:42: calling [github.com/spf13/viper.SetDefault]&#10;at config.go:43: calling [github.com/spf13/viper.SetDefault]&#10;at config.go:46: calling [github.com/spf13/viper.SetDefault]&#10;at config.go:49: calling [github.com/spf13/viper.SetDefault]&#10;at config.go:50: calling [github.com/spf13/viper.SetDefault]">
<path fill="#add8e6" stroke="#000000" stroke-width=".5" d="M273.5099,-350C273.5099,-350 210.5659,-350 210.5659,-350 204.5659,-350 198.5659,-344 198.5659,-338 198.5659,-338 198.5659,-326 198.5659,-326 198.5659,-320 204.5659,-314 210.5659,-314 210.5659,-314 273.5099,-314 273.5099,-314 279.5099,-314 285.5099,-320 285.5099,-326 285.5099,-326 285.5099,-338 285.5099,-338 285.5099,-344 279.5099,-350 273.5099,-350"/>
<text text-anchor="middle" x="242.0379" y="-327.8" font-family="Verdana" font-size="14.00" fill="#000000">setDefaults</text>
</a>
</g>
</g>
<!-- github.com/go&#45;i2p/go&#45;i2p/lib/config.InitConfig&#45;&gt;github.com/go&#45;i2p/go&#45;i2p/lib/config.setDefaults -->
<g id="edge14" class="edge">
<title>github.com/go&#45;i2p/go&#45;i2p/lib/config.InitConfig&#45;&gt;github.com/go&#45;i2p/go&#45;i2p/lib/config.setDefaults</title>
<g id="a_edge14"><a xlink:title="at config.go:31: calling [github.com/go&#45;i2p/go&#45;i2p/lib/config.setDefaults]">
<path fill="none" stroke="#000000" d="M90.3186,-404.7819C112.936,-392.5505 143.6884,-376.3022 171.3296,-363 177.4157,-360.0711 183.8455,-357.0941 190.2478,-354.2015"/>
<polygon fill="#000000" stroke="#000000" points="191.8623,-357.3136 199.5651,-350.0392 189.0071,-350.9224 191.8623,-357.3136"/>
</a>
</g>
</g>
<!-- github.com/go&#45;i2p/go&#45;i2p/lib/config.handleConfigFile -->
<g id="node11" class="node">
<title>github.com/go&#45;i2p/go&#45;i2p/lib/config.handleConfigFile</title>
<g id="a_node11"><a xlink:title="github.com/go&#45;i2p/go&#45;i2p/lib/config.handleConfigFile | defined in config.go:91&#10;at config.go:103: calling [github.com/spf13/viper.ConfigFileUsed]&#10;at config.go:97: calling [github.com/go&#45;i2p/go&#45;i2p/lib/config.createDefaultConfig]&#10;at config.go:92: calling [github.com/spf13/viper.ReadInConfig]&#10;at config.go:103: calling [(*github.com/sirupsen/logrus.Logger).Debugf]&#10;at config.go:100: calling [(*github.com/sirupsen/logrus.Logger).Fatalf]&#10;at config.go:95: calling [(*github.com/sirupsen/logrus.Logger).Fatalf]&#10;at config.go:97: calling [github.com/go&#45;i2p/go&#45;i2p/lib/config.BuildI2PDirPath]">
<path fill="#add8e6" stroke="#000000" stroke-width=".5" d="M291.0239,-411C291.0239,-411 193.0519,-411 193.0519,-411 187.0519,-411 181.0519,-405 181.0519,-399 181.0519,-399 181.0519,-387 181.0519,-387 181.0519,-381 187.0519,-375 193.0519,-375 193.0519,-375 291.0239,-375 291.0239,-375 297.0239,-375 303.0239,-381 303.0239,-387 303.0239,-387 303.0239,-399 303.0239,-399 303.0239,-405 297.0239,-411 291.0239,-411"/>
<text text-anchor="middle" x="242.0379" y="-388.8" font-family="Verdana" font-size="14.00" fill="#000000">handleConfigFile</text>
</a>
</g>
</g>
<!-- github.com/go&#45;i2p/go&#45;i2p/lib/config.InitConfig&#45;&gt;github.com/go&#45;i2p/go&#45;i2p/lib/config.handleConfigFile -->
<g id="edge16" class="edge">
<title>github.com/go&#45;i2p/go&#45;i2p/lib/config.InitConfig&#45;&gt;github.com/go&#45;i2p/go&#45;i2p/lib/config.handleConfigFile</title>
<g id="a_edge16"><a xlink:title="at config.go:34: calling [github.com/go&#45;i2p/go&#45;i2p/lib/config.handleConfigFile]">
<path fill="none" stroke="#000000" d="M98.6539,-416.2674C119.9872,-412.8056 146.5855,-408.4894 171.0596,-404.5179"/>
<polygon fill="#000000" stroke="#000000" points="171.725,-407.9558 181.0352,-402.8991 170.6037,-401.0462 171.725,-407.9558"/>
</a>
</g>
</g>
<!-- github.com/go&#45;i2p/go&#45;i2p/lib/config.UpdateRouterConfig -->
<g id="node14" class="node">
<title>github.com/go&#45;i2p/go&#45;i2p/lib/config.UpdateRouterConfig</title>
<g id="a_node14"><a xlink:title="github.com/go&#45;i2p/go&#45;i2p/lib/config.UpdateRouterConfig | defined in config.go:53&#10;at config.go:65: calling [github.com/spf13/viper.UnmarshalKey]&#10;at config.go:71: calling [github.com/spf13/viper.GetInt]&#10;at config.go:66: calling [(*github.com/go&#45;i2p/logger.Logger).Warnf]&#10;at config.go:55: calling [github.com/spf13/viper.GetString]&#10;at config.go:56: calling [github.com/spf13/viper.GetString]&#10;at config.go:60: calling [github.com/spf13/viper.GetString]">
<path fill="#add8e6" stroke="#000000" stroke-width="1.5" d="M300.9551,-472C300.9551,-472 183.1207,-472 183.1207,-472 177.1207,-472 171.1207,-466 171.1207,-460 171.1207,-460 171.1207,-448 171.1207,-448 171.1207,-442 177.1207,-436 183.1207,-436 183.1207,-436 300.9551,-436 300.9551,-436 306.9551,-436 312.9551,-442 312.9551,-448 312.9551,-448 312.9551,-460 312.9551,-460 312.9551,-466 306.9551,-472 300.9551,-472"/>
<text text-anchor="middle" x="242.0379" y="-449.8" font-family="Verdana" font-size="14.00" fill="#000000">UpdateRouterConfig</text>
</a>
</g>
</g>
<!-- github.com/go&#45;i2p/go&#45;i2p/lib/config.InitConfig&#45;&gt;github.com/go&#45;i2p/go&#45;i2p/lib/config.UpdateRouterConfig -->
<g id="edge24" class="edge">
<title>github.com/go&#45;i2p/go&#45;i2p/lib/config.InitConfig&#45;&gt;github.com/go&#45;i2p/go&#45;i2p/lib/config.UpdateRouterConfig</title>
<g id="a_edge24"><a xlink:title="at config.go:37: calling [github.com/go&#45;i2p/go&#45;i2p/lib/config.UpdateRouterConfig]">
<path fill="none" stroke="#000000" d="M98.6539,-429.957C117.2101,-433.0686 139.7498,-436.8481 161.4101,-440.4801"/>
<polygon fill="#000000" stroke="#000000" points="160.8417,-443.9336 171.2828,-442.1356 161.9993,-437.03 160.8417,-443.9336"/>
</a>
</g>
</g>
<!-- github.com/spf13/viper.AddConfigPath -->
<g id="node18" class="node">
<title>github.com/spf13/viper.AddConfigPath</title>
<g id="a_node18"><a xlink:title="github.com/spf13/viper.AddConfigPath | defined in viper.go:574">
<path fill="#ffe4b5" stroke="#000000" stroke-width="1.5" d="M285.9202,-533C285.9202,-533 198.1556,-533 198.1556,-533 192.1556,-533 186.1556,-527 186.1556,-521 186.1556,-521 186.1556,-509 186.1556,-509 186.1556,-503 192.1556,-497 198.1556,-497 198.1556,-497 285.9202,-497 285.9202,-497 291.9202,-497 297.9202,-503 297.9202,-509 297.9202,-509 297.9202,-521 297.9202,-521 297.9202,-527 291.9202,-533 285.9202,-533"/>
<text text-anchor="middle" x="242.0379" y="-519.2" font-family="Verdana" font-size="14.00" fill="#000000">viper</text>
<text text-anchor="middle" x="242.0379" y="-502.4" font-family="Verdana" font-size="14.00" fill="#000000">AddConfigPath</text>
</a>
</g>
</g>
<!-- github.com/go&#45;i2p/go&#45;i2p/lib/config.InitConfig&#45;&gt;github.com/spf13/viper.AddConfigPath -->
<g id="edge25" class="edge">
<title>github.com/go&#45;i2p/go&#45;i2p/lib/config.InitConfig&#45;&gt;github.com/spf13/viper.AddConfigPath</title>
<g id="a_edge25"><a xlink:title="at config.go:25: calling [github.com/spf13/viper.AddConfigPath]">
<path fill="none" stroke="#8b4513" d="M88.7247,-441.2041C111.4112,-454.0264 142.8884,-471.2829 171.3296,-485 176.7158,-487.5977 182.3846,-490.2059 188.0718,-492.7412"/>
<polygon fill="#8b4513" stroke="#8b4513" points="187.0498,-496.1146 197.6137,-496.9243 189.8604,-489.7037 187.0498,-496.1146"/>
</a>
</g>
</g>
<!-- github.com/spf13/viper.SetConfigName -->
<g id="node19" class="node">
<title>github.com/spf13/viper.SetConfigName</title>
<g id="a_node19"><a xlink:title="github.com/spf13/viper.SetConfigName | defined in viper.go:2174">
<path fill="#ffe4b5" stroke="#000000" stroke-width="1.5" d="M287.2401,-594C287.2401,-594 196.8357,-594 196.8357,-594 190.8357,-594 184.8357,-588 184.8357,-582 184.8357,-582 184.8357,-570 184.8357,-570 184.8357,-564 190.8357,-558 196.8357,-558 196.8357,-558 287.2401,-558 287.2401,-558 293.2401,-558 299.2401,-564 299.2401,-570 299.2401,-570 299.2401,-582 299.2401,-582 299.2401,-588 293.2401,-594 287.2401,-594"/>
<text text-anchor="middle" x="242.0379" y="-580.2" font-family="Verdana" font-size="14.00" fill="#000000">viper</text>
<text text-anchor="middle" x="242.0379" y="-563.4" font-family="Verdana" font-size="14.00" fill="#000000">SetConfigName</text>
</a>
</g>
</g>
<!-- github.com/go&#45;i2p/go&#45;i2p/lib/config.InitConfig&#45;&gt;github.com/spf13/viper.SetConfigName -->
<g id="edge7" class="edge">
<title>github.com/go&#45;i2p/go&#45;i2p/lib/config.InitConfig&#45;&gt;github.com/spf13/viper.SetConfigName</title>
<g id="a_edge7"><a xlink:title="at config.go:26: calling [github.com/spf13/viper.SetConfigName]">
<path fill="none" stroke="#8b4513" d="M70.0264,-441.1196C89.4009,-467.3031 128.4035,-515.8736 171.3296,-546 174.9896,-548.5686 178.9038,-550.9791 182.943,-553.2287"/>
<polygon fill="#8b4513" stroke="#8b4513" points="181.4466,-556.3953 191.9347,-557.8955 184.6713,-550.1823 181.4466,-556.3953"/>
</a>
</g>
</g>
<!-- github.com/spf13/viper.SetConfigType -->
<g id="node20" class="node">
<title>github.com/spf13/viper.SetConfigType</title>
<g id="a_node20"><a xlink:title="github.com/spf13/viper.SetConfigType | defined in viper.go:2185">
<path fill="#ffe4b5" stroke="#000000" stroke-width="1.5" d="M284.5817,-655C284.5817,-655 199.4941,-655 199.4941,-655 193.4941,-655 187.4941,-649 187.4941,-643 187.4941,-643 187.4941,-631 187.4941,-631 187.4941,-625 193.4941,-619 199.4941,-619 199.4941,-619 284.5817,-619 284.5817,-619 290.5817,-619 296.5817,-625 296.5817,-631 296.5817,-631 296.5817,-643 296.5817,-643 296.5817,-649 290.5817,-655 284.5817,-655"/>
<text text-anchor="middle" x="242.0379" y="-641.2" font-family="Verdana" font-size="14.00" fill="#000000">viper</text>
<text text-anchor="middle" x="242.0379" y="-624.4" font-family="Verdana" font-size="14.00" fill="#000000">SetConfigType</text>
</a>
</g>
</g>
<!-- github.com/go&#45;i2p/go&#45;i2p/lib/config.InitConfig&#45;&gt;github.com/spf13/viper.SetConfigType -->
<g id="edge17" class="edge">
<title>github.com/go&#45;i2p/go&#45;i2p/lib/config.InitConfig&#45;&gt;github.com/spf13/viper.SetConfigType</title>
<g id="a_edge17"><a xlink:title="at config.go:27: calling [github.com/spf13/viper.SetConfigType]">
<path fill="none" stroke="#8b4513" d="M64.039,-441.2389C78.5582,-477.5114 115.6576,-559.3065 171.3296,-607 174.181,-609.4427 177.2605,-611.711 180.4834,-613.8137"/>
<polygon fill="#8b4513" stroke="#8b4513" points="178.8983,-616.942 189.2916,-618.9989 182.4495,-610.9097 178.8983,-616.942"/>
</a>
</g>
</g>
<!-- github.com/go&#45;i2p/go&#45;i2p/lib/config.DefaultRouterConfig -->
<g id="node9" class="node">
<title>github.com/go&#45;i2p/go&#45;i2p/lib/config.DefaultRouterConfig</title>
<g id="a_node9"><a xlink:title="github.com/go&#45;i2p/go&#45;i2p/lib/config.DefaultRouterConfig | defined in router.go:35">
<path fill="#add8e6" stroke="#000000" stroke-width="1.5" d="M516.6979,-113C516.6979,-113 397.7623,-113 397.7623,-113 391.7623,-113 385.7623,-107 385.7623,-101 385.7623,-101 385.7623,-89 385.7623,-89 385.7623,-83 391.7623,-77 397.7623,-77 397.7623,-77 516.6979,-77 516.6979,-77 522.6979,-77 528.6979,-83 528.6979,-89 528.6979,-89 528.6979,-101 528.6979,-101 528.6979,-107 522.6979,-113 516.6979,-113"/>
<text text-anchor="middle" x="457.2301" y="-90.8" font-family="Verdana" font-size="14.00" fill="#000000">DefaultRouterConfig</text>
</a>
</g>
</g>
<!-- github.com/go&#45;i2p/go&#45;i2p/lib/config.setDefaults&#45;&gt;github.com/go&#45;i2p/go&#45;i2p/lib/config.DefaultRouterConfig -->
<g id="edge3" class="edge">
<title>github.com/go&#45;i2p/go&#45;i2p/lib/config.setDefaults&#45;&gt;github.com/go&#45;i2p/go&#45;i2p/lib/config.DefaultRouterConfig</title>
<g id="a_edge3"><a xlink:title="at config.go:42: calling [github.com/go&#45;i2p/go&#45;i2p/lib/config.DefaultRouterConfig]&#10;at config.go:43: calling [github.com/go&#45;i2p/go&#45;i2p/lib/config.DefaultRouterConfig]">
<path fill="none" stroke="#000000" d="M285.6936,-319.6974C295.5109,-315.3437 305.2334,-309.5738 312.7462,-302 372.3842,-241.8779 326.3469,-186.358 385.7462,-126 388.3673,-123.3366 391.2552,-120.887 394.3216,-118.6361"/>
<polygon fill="#000000" stroke="#000000" points="396.3161,-121.5142 402.7954,-113.1315 392.5028,-115.644 396.3161,-121.5142"/>
</a>
</g>
</g>
<!-- github.com/spf13/viper.SetDefault -->
<g id="node10" class="node">
<title>github.com/spf13/viper.SetDefault</title>
<g id="a_node10"><a xlink:title="github.com/spf13/viper.SetDefault | defined in viper.go:1596">
<path fill="#ffe4b5" stroke="#000000" stroke-width="1.5" d="M487.0956,-174C487.0956,-174 427.3646,-174 427.3646,-174 421.3646,-174 415.3646,-168 415.3646,-162 415.3646,-162 415.3646,-150 415.3646,-150 415.3646,-144 421.3646,-138 427.3646,-138 427.3646,-138 487.0956,-138 487.0956,-138 493.0956,-138 499.0956,-144 499.0956,-150 499.0956,-150 499.0956,-162 499.0956,-162 499.0956,-168 493.0956,-174 487.0956,-174"/>
<text text-anchor="middle" x="457.2301" y="-160.2" font-family="Verdana" font-size="14.00" fill="#000000">viper</text>
<text text-anchor="middle" x="457.2301" y="-143.4" font-family="Verdana" font-size="14.00" fill="#000000">SetDefault</text>
</a>
</g>
</g>
<!-- github.com/go&#45;i2p/go&#45;i2p/lib/config.setDefaults&#45;&gt;github.com/spf13/viper.SetDefault -->
<g id="edge15" class="edge">
<title>github.com/go&#45;i2p/go&#45;i2p/lib/config.setDefaults&#45;&gt;github.com/spf13/viper.SetDefault</title>
<g id="a_edge15"><a xlink:title="at config.go:42: calling [github.com/spf13/viper.SetDefault]&#10;at config.go:43: calling [github.com/spf13/viper.SetDefault]&#10;at config.go:46: calling [github.com/spf13/viper.SetDefault]&#10;at config.go:49: calling [github.com/spf13/viper.SetDefault]&#10;at config.go:50: calling [github.com/spf13/viper.SetDefault]">
<path fill="none" stroke="#8b4513" d="M285.5469,-318.4137C295.1493,-314.1388 304.8125,-308.7263 312.7462,-302 358.923,-262.8504 339.7249,-226.3323 385.7462,-187 391.7474,-181.871 398.7274,-177.4695 405.928,-173.7303"/>
<polygon fill="#8b4513" stroke="#8b4513" points="407.5957,-176.8125 415.1098,-169.3433 404.5779,-170.4965 407.5957,-176.8125"/>
</a>
</g>
</g>
<!-- github.com/go&#45;i2p/go&#45;i2p/lib/config.handleConfigFile&#45;&gt;github.com/go&#45;i2p/go&#45;i2p/lib/config.BuildI2PDirPath -->
<g id="edge27" class="edge">
<title>github.com/go&#45;i2p/go&#45;i2p/lib/config.handleConfigFile&#45;&gt;github.com/go&#45;i2p/go&#45;i2p/lib/config.BuildI2PDirPath</title>
<g id="a_edge27"><a xlink:title="at config.go:97: calling [github.com/go&#45;i2p/go&#45;i2p/lib/config.BuildI2PDirPath]">
<path fill="none" stroke="#000000" d="M298.6941,-374.9898C303.9424,-371.634 308.7716,-367.6722 312.7462,-363 356.9234,-311.0681 341.7752,-117.1066 385.7462,-65 387.8836,-62.4672 390.2666,-60.1352 392.8286,-57.9889"/>
<polygon fill="#000000" stroke="#000000" points="394.9322,-60.787 400.9852,-52.0914 390.8307,-55.1144 394.9322,-60.787"/>
</a>
</g>
</g>
<!-- github.com/go&#45;i2p/go&#45;i2p/lib/config.handleConfigFile&#45;&gt;github.com/go&#45;i2p/go&#45;i2p/lib/config.createDefaultConfig -->
<g id="edge6" class="edge">
<title>github.com/go&#45;i2p/go&#45;i2p/lib/config.handleConfigFile&#45;&gt;github.com/go&#45;i2p/go&#45;i2p/lib/config.createDefaultConfig</title>
<g id="a_edge6"><a xlink:title="at config.go:97: calling [github.com/go&#45;i2p/go&#45;i2p/lib/config.createDefaultConfig]">
<path fill="none" stroke="#000000" d="M303.1277,-385.3351C326.3898,-382.4164 353.243,-379.0472 377.9513,-375.947"/>
<polygon fill="#000000" stroke="#000000" points="378.5405,-379.4007 388.027,-374.6829 377.669,-372.4551 378.5405,-379.4007"/>
</a>
</g>
</g>
<!-- github.com/spf13/viper.ReadInConfig -->
<g id="node12" class="node">
<title>github.com/spf13/viper.ReadInConfig</title>
<g id="a_node12"><a xlink:title="github.com/spf13/viper.ReadInConfig | defined in viper.go:1632">
<path fill="#ffe4b5" stroke="#000000" stroke-width="1.5" d="M497.0448,-235C497.0448,-235 417.4154,-235 417.4154,-235 411.4154,-235 405.4154,-229 405.4154,-223 405.4154,-223 405.4154,-211 405.4154,-211 405.4154,-205 411.4154,-199 417.4154,-199 417.4154,-199 497.0448,-199 497.0448,-199 503.0448,-199 509.0448,-205 509.0448,-211 509.0448,-211 509.0448,-223 509.0448,-223 509.0448,-229 503.0448,-235 497.0448,-235"/>
<text text-anchor="middle" x="457.2301" y="-221.2" font-family="Verdana" font-size="14.00" fill="#000000">viper</text>
<text text-anchor="middle" x="457.2301" y="-204.4" font-family="Verdana" font-size="14.00" fill="#000000">ReadInConfig</text>
</a>
</g>
</g>
<!-- github.com/go&#45;i2p/go&#45;i2p/lib/config.handleConfigFile&#45;&gt;github.com/spf13/viper.ReadInConfig -->
<g id="edge10" class="edge">
<title>github.com/go&#45;i2p/go&#45;i2p/lib/config.handleConfigFile&#45;&gt;github.com/spf13/viper.ReadInConfig</title>
<g id="a_edge10"><a xlink:title="at config.go:92: calling [github.com/spf13/viper.ReadInConfig]">
<path fill="none" stroke="#8b4513" d="M294.7398,-374.9468C301.166,-371.5343 307.3554,-367.5704 312.7462,-363 358.923,-323.8504 339.7249,-287.3323 385.7462,-248 389.1348,-245.1039 392.8355,-242.4397 396.7118,-239.9957"/>
<polygon fill="#8b4513" stroke="#8b4513" points="398.4959,-243.0074 405.4252,-234.9927 395.0103,-236.9369 398.4959,-243.0074"/>
</a>
</g>
</g>
<!-- github.com/spf13/viper.ConfigFileUsed -->
<g id="node13" class="node">
<title>github.com/spf13/viper.ConfigFileUsed</title>
<g id="a_node13"><a xlink:title="github.com/spf13/viper.ConfigFileUsed | defined in viper.go:569">
<path fill="#ffe4b5" stroke="#000000" stroke-width="1.5" d="M502.1629,-296C502.1629,-296 412.2973,-296 412.2973,-296 406.2973,-296 400.2973,-290 400.2973,-284 400.2973,-284 400.2973,-272 400.2973,-272 400.2973,-266 406.2973,-260 412.2973,-260 412.2973,-260 502.1629,-260 502.1629,-260 508.1629,-260 514.1629,-266 514.1629,-272 514.1629,-272 514.1629,-284 514.1629,-284 514.1629,-290 508.1629,-296 502.1629,-296"/>
<text text-anchor="middle" x="457.2301" y="-282.2" font-family="Verdana" font-size="14.00" fill="#000000">viper</text>
<text text-anchor="middle" x="457.2301" y="-265.4" font-family="Verdana" font-size="14.00" fill="#000000">ConfigFileUsed</text>
</a>
</g>
</g>
<!-- github.com/go&#45;i2p/go&#45;i2p/lib/config.handleConfigFile&#45;&gt;github.com/spf13/viper.ConfigFileUsed -->
<g id="edge4" class="edge">
<title>github.com/go&#45;i2p/go&#45;i2p/lib/config.handleConfigFile&#45;&gt;github.com/spf13/viper.ConfigFileUsed</title>
<g id="a_edge4"><a xlink:title="at config.go:103: calling [github.com/spf13/viper.ConfigFileUsed]">
<path fill="none" stroke="#8b4513" d="M289.2805,-374.9824C297.2891,-371.3593 305.3877,-367.3229 312.7462,-363 330.2233,-352.7328 331.7724,-346.0794 348.7462,-335 364.3997,-324.7824 369.2228,-323.7412 385.7462,-315 394.4556,-310.3926 403.79,-305.5165 412.7445,-300.8691"/>
<polygon fill="#8b4513" stroke="#8b4513" points="414.6259,-303.8363 421.8964,-296.1297 411.4069,-297.6204 414.6259,-303.8363"/>
</a>
</g>
</g>
<!-- github.com/go&#45;i2p/go&#45;i2p/lib/config.handleConfigFile&#45;&gt;(*github.com/sirupsen/logrus.Logger).Fatalf -->
<g id="edge22" class="edge">
<title>github.com/go&#45;i2p/go&#45;i2p/lib/config.handleConfigFile&#45;&gt;(*github.com/sirupsen/logrus.Logger).Fatalf</title>
<g id="a_edge22"><a xlink:title="at config.go:100: calling [(*github.com/sirupsen/logrus.Logger).Fatalf]&#10;at config.go:95: calling [(*github.com/sirupsen/logrus.Logger).Fatalf]">
<path fill="none" stroke="#8b4513" d="M285.2482,-374.9069C323.6923,-358.9677 375.3986,-337.9772 385.7462,-336 464.1405,-321.0206 557.5538,-337.0068 609.4034,-348.8001"/>
<polygon fill="#8b4513" stroke="#8b4513" points="608.668,-352.2225 619.2023,-351.0925 610.2625,-345.4065 608.668,-352.2225"/>
</a>
</g>
</g>
<!-- github.com/go&#45;i2p/go&#45;i2p/lib/config.handleConfigFile&#45;&gt;(*github.com/sirupsen/logrus.Logger).Debugf -->
<g id="edge21" class="edge">
<title>github.com/go&#45;i2p/go&#45;i2p/lib/config.handleConfigFile&#45;&gt;(*github.com/sirupsen/logrus.Logger).Debugf</title>
<g id="a_edge21"><a xlink:title="at config.go:103: calling [(*github.com/sirupsen/logrus.Logger).Debugf]">
<path fill="none" stroke="#8b4513" d="M303.419,-397.0714C386.6124,-402.5896 533.0948,-412.3058 605.7339,-417.124"/>
<polygon fill="#8b4513" stroke="#8b4513" points="605.6893,-420.6286 615.899,-417.7982 606.1526,-413.644 605.6893,-420.6286"/>
</a>
</g>
</g>
<!-- github.com/spf13/viper.GetString -->
<g id="node15" class="node">
<title>github.com/spf13/viper.GetString</title>
<g id="a_node15"><a xlink:title="github.com/spf13/viper.GetString | defined in viper.go:975">
<path fill="#ffe4b5" stroke="#000000" stroke-width="1.5" d="M484.6675,-472C484.6675,-472 429.7927,-472 429.7927,-472 423.7927,-472 417.7927,-466 417.7927,-460 417.7927,-460 417.7927,-448 417.7927,-448 417.7927,-442 423.7927,-436 429.7927,-436 429.7927,-436 484.6675,-436 484.6675,-436 490.6675,-436 496.6675,-442 496.6675,-448 496.6675,-448 496.6675,-460 496.6675,-460 496.6675,-466 490.6675,-472 484.6675,-472"/>
<text text-anchor="middle" x="457.2301" y="-458.2" font-family="Verdana" font-size="14.00" fill="#000000">viper</text>
<text text-anchor="middle" x="457.2301" y="-441.4" font-family="Verdana" font-size="14.00" fill="#000000">GetString</text>
</a>
</g>
</g>
<!-- github.com/go&#45;i2p/go&#45;i2p/lib/config.UpdateRouterConfig&#45;&gt;github.com/spf13/viper.GetString -->
<g id="edge28" class="edge">
<title>github.com/go&#45;i2p/go&#45;i2p/lib/config.UpdateRouterConfig&#45;&gt;github.com/spf13/viper.GetString</title>
<g id="a_edge28"><a xlink:title="at config.go:55: calling [github.com/spf13/viper.GetString]&#10;at config.go:56: calling [github.com/spf13/viper.GetString]&#10;at config.go:60: calling [github.com/spf13/viper.GetString]">
<path fill="none" stroke="#8b4513" d="M312.7979,-454C343.892,-454 379.6538,-454 407.813,-454"/>
<polygon fill="#8b4513" stroke="#8b4513" points="407.8207,-457.5001 417.8207,-454 407.8207,-450.5001 407.8207,-457.5001"/>
</a>
</g>
</g>
<!-- github.com/spf13/viper.UnmarshalKey -->
<g id="node16" class="node">
<title>github.com/spf13/viper.UnmarshalKey</title>
<g id="a_node16"><a xlink:title="github.com/spf13/viper.UnmarshalKey | defined in viper.go:1103">
<path fill="#ffe4b5" stroke="#000000" stroke-width="1.5" d="M499.4738,-533C499.4738,-533 414.9864,-533 414.9864,-533 408.9864,-533 402.9864,-527 402.9864,-521 402.9864,-521 402.9864,-509 402.9864,-509 402.9864,-503 408.9864,-497 414.9864,-497 414.9864,-497 499.4738,-497 499.4738,-497 505.4738,-497 511.4738,-503 511.4738,-509 511.4738,-509 511.4738,-521 511.4738,-521 511.4738,-527 505.4738,-533 499.4738,-533"/>
<text text-anchor="middle" x="457.2301" y="-519.2" font-family="Verdana" font-size="14.00" fill="#000000">viper</text>
<text text-anchor="middle" x="457.2301" y="-502.4" font-family="Verdana" font-size="14.00" fill="#000000">UnmarshalKey</text>
</a>
</g>
</g>
<!-- github.com/go&#45;i2p/go&#45;i2p/lib/config.UpdateRouterConfig&#45;&gt;github.com/spf13/viper.UnmarshalKey -->
<g id="edge11" class="edge">
<title>github.com/go&#45;i2p/go&#45;i2p/lib/config.UpdateRouterConfig&#45;&gt;github.com/spf13/viper.UnmarshalKey</title>
<g id="a_edge11"><a xlink:title="at config.go:65: calling [github.com/spf13/viper.UnmarshalKey]">
<path fill="none" stroke="#8b4513" d="M305.7292,-472.0544C333.2138,-479.8454 365.3119,-488.9442 392.8706,-496.7562"/>
<polygon fill="#8b4513" stroke="#8b4513" points="392.226,-500.2113 402.8015,-499.5713 394.1351,-493.4766 392.226,-500.2113"/>
</a>
</g>
</g>
<!-- github.com/spf13/viper.GetInt -->
<g id="node17" class="node">
<title>github.com/spf13/viper.GetInt</title>
<g id="a_node17"><a xlink:title="github.com/spf13/viper.GetInt | defined in viper.go:989">
<path fill="#ffe4b5" stroke="#000000" stroke-width="1.5" d="M474.9936,-594C474.9936,-594 439.4666,-594 439.4666,-594 433.4666,-594 427.4666,-588 427.4666,-582 427.4666,-582 427.4666,-570 427.4666,-570 427.4666,-564 433.4666,-558 439.4666,-558 439.4666,-558 474.9936,-558 474.9936,-558 480.9936,-558 486.9936,-564 486.9936,-570 486.9936,-570 486.9936,-582 486.9936,-582 486.9936,-588 480.9936,-594 474.9936,-594"/>
<text text-anchor="middle" x="457.2301" y="-580.2" font-family="Verdana" font-size="14.00" fill="#000000">viper</text>
<text text-anchor="middle" x="457.2301" y="-563.4" font-family="Verdana" font-size="14.00" fill="#000000">GetInt</text>
</a>
</g>
</g>
<!-- github.com/go&#45;i2p/go&#45;i2p/lib/config.UpdateRouterConfig&#45;&gt;github.com/spf13/viper.GetInt -->
<g id="edge12" class="edge">
<title>github.com/go&#45;i2p/go&#45;i2p/lib/config.UpdateRouterConfig&#45;&gt;github.com/spf13/viper.GetInt</title>
<g id="a_edge12"><a xlink:title="at config.go:71: calling [github.com/spf13/viper.GetInt]">
<path fill="none" stroke="#8b4513" d="M288.2681,-472.0078C296.6305,-475.8933 305.112,-480.2706 312.7462,-485 348.6887,-507.2663 349.6286,-524.0189 385.7462,-546 395.693,-552.0536 407.081,-557.4419 417.8001,-561.9232"/>
<polygon fill="#8b4513" stroke="#8b4513" points="416.8115,-565.2978 427.3955,-565.7767 419.4202,-558.8021 416.8115,-565.2978"/>
</a>
</g>
</g>
<!-- (*github.com/go&#45;i2p/logger.Logger).Warnf -->
<g id="node24" class="node">
<title>(*github.com/go&#45;i2p/logger.Logger).Warnf</title>
<g id="a_node24"><a xlink:title="(*github.com/go&#45;i2p/logger.Logger).Warnf | defined in log.go:36">
<path fill="#ffe4b5" stroke="#000000" stroke-width="1.5" d="M474.9964,-672C474.9964,-672 439.4638,-672 439.4638,-672 433.4638,-672 427.4638,-666 427.4638,-660 427.4638,-660 427.4638,-648 427.4638,-648 427.4638,-642 433.4638,-636 439.4638,-636 439.4638,-636 474.9964,-636 474.9964,-636 480.9964,-636 486.9964,-642 486.9964,-648 486.9964,-648 486.9964,-660 486.9964,-660 486.9964,-666 480.9964,-672 474.9964,-672"/>
<text text-anchor="middle" x="457.2301" y="-658.2" font-family="Verdana" font-size="14.00" fill="#000000">logger</text>
<text text-anchor="middle" x="457.2301" y="-641.4" font-family="Verdana" font-size="14.00" fill="#000000">Warnf</text>
</a>
</g>
</g>
<!-- github.com/go&#45;i2p/go&#45;i2p/lib/config.UpdateRouterConfig&#45;&gt;(*github.com/go&#45;i2p/logger.Logger).Warnf -->
<g id="edge23" class="edge">
<title>github.com/go&#45;i2p/go&#45;i2p/lib/config.UpdateRouterConfig&#45;&gt;(*github.com/go&#45;i2p/logger.Logger).Warnf</title>
<g id="a_edge23"><a xlink:title="at config.go:66: calling [(*github.com/go&#45;i2p/logger.Logger).Warnf]">
<path fill="none" stroke="#8b4513" d="M294.8498,-472.115C301.3327,-475.7388 307.5075,-480.0056 312.7462,-485 365.5431,-535.3347 330.1529,-584.7721 385.7462,-632 394.6108,-639.5307 406.0242,-644.4849 417.1173,-647.7436"/>
<polygon fill="#8b4513" stroke="#8b4513" points="416.5788,-651.2178 427.1325,-650.285 418.3005,-644.4329 416.5788,-651.2178"/>
</a>
</g>
</g>
<!-- github.com/go&#45;i2p/go&#45;i2p/lib/config.defaultBase -->
<g id="node21" class="node">
<title>github.com/go&#45;i2p/go&#45;i2p/lib/config.defaultBase</title>
<g id="a_node21"><a xlink:title="github.com/go&#45;i2p/go&#45;i2p/lib/config.defaultBase | defined in router.go:19&#10;at router.go:20: calling [github.com/go&#45;i2p/go&#45;i2p/lib/config.BuildI2PDirPath]">
<path fill="#add8e6" stroke="#000000" stroke-width=".5" d="M275.1193,-113C275.1193,-113 208.9565,-113 208.9565,-113 202.9565,-113 196.9565,-107 196.9565,-101 196.9565,-101 196.9565,-89 196.9565,-89 196.9565,-83 202.9565,-77 208.9565,-77 208.9565,-77 275.1193,-77 275.1193,-77 281.1193,-77 287.1193,-83 287.1193,-89 287.1193,-89 287.1193,-101 287.1193,-101 287.1193,-107 281.1193,-113 275.1193,-113"/>
<text text-anchor="middle" x="242.0379" y="-90.8" font-family="Verdana" font-size="14.00" fill="#000000">defaultBase</text>
</a>
</g>
</g>
<!-- github.com/go&#45;i2p/go&#45;i2p/lib/config.defaultBase&#45;&gt;github.com/go&#45;i2p/go&#45;i2p/lib/config.BuildI2PDirPath -->
<g id="edge29" class="edge">
<title>github.com/go&#45;i2p/go&#45;i2p/lib/config.defaultBase&#45;&gt;github.com/go&#45;i2p/go&#45;i2p/lib/config.BuildI2PDirPath</title>
<g id="a_edge29"><a xlink:title="at router.go:20: calling [github.com/go&#45;i2p/go&#45;i2p/lib/config.BuildI2PDirPath]">
<path fill="none" stroke="#000000" d="M287.1492,-82.2124C316.4261,-73.9134 355.1484,-62.9368 388.2492,-53.5539"/>
<polygon fill="#000000" stroke="#000000" points="389.2063,-56.9205 397.8727,-50.8259 387.2972,-50.1859 389.2063,-56.9205"/>
</a>
</g>
</g>
<!-- github.com/go&#45;i2p/go&#45;i2p/lib/config.init -->
<g id="node22" class="node">
<title>github.com/go&#45;i2p/go&#45;i2p/lib/config.init</title>
<g id="a_node22"><a xlink:title="github.com/go&#45;i2p/go&#45;i2p/lib/config.init | defined in .:0&#10;at netdb.go:15: calling [github.com/go&#45;i2p/go&#45;i2p/lib/config.defaultConfig]&#10;at router.go:32: calling [github.com/go&#45;i2p/go&#45;i2p/lib/config.defaultConfig]&#10;at router.go:31: calling [github.com/go&#45;i2p/go&#45;i2p/lib/config.defaultBase]&#10;at router.go:39: calling [github.com/go&#45;i2p/go&#45;i2p/lib/config.DefaultRouterConfig]&#10;at config.go:14: calling [github.com/go&#45;i2p/logger.GetGoI2PLogger]">
<path fill="#add8e6" stroke="#000000" stroke-width=".5" d="M72.1648,-139C72.1648,-139 42.1648,-139 42.1648,-139 36.1648,-139 30.1648,-133 30.1648,-127 30.1648,-127 30.1648,-115 30.1648,-115 30.1648,-109 36.1648,-103 42.1648,-103 42.1648,-103 72.1648,-103 72.1648,-103 78.1648,-103 84.1648,-109 84.1648,-115 84.1648,-115 84.1648,-127 84.1648,-127 84.1648,-133 78.1648,-139 72.1648,-139"/>
<text text-anchor="middle" x="57.1648" y="-116.8" font-family="Verdana" font-size="14.00" fill="#000000">init</text>
</a>
</g>
</g>
<!-- github.com/go&#45;i2p/go&#45;i2p/lib/config.init&#45;&gt;github.com/go&#45;i2p/go&#45;i2p/lib/config.defaultConfig -->
<g id="edge8" class="edge">
<title>github.com/go&#45;i2p/go&#45;i2p/lib/config.init&#45;&gt;github.com/go&#45;i2p/go&#45;i2p/lib/config.defaultConfig</title>
<g id="a_edge8"><a xlink:title="at netdb.go:15: calling [github.com/go&#45;i2p/go&#45;i2p/lib/config.defaultConfig]&#10;at router.go:32: calling [github.com/go&#45;i2p/go&#45;i2p/lib/config.defaultConfig]">
<path fill="none" stroke="#000000" d="M84.2267,-107.3192C107.2606,-95.7727 141.2936,-78.943 171.3296,-65 177.5376,-62.1182 184.0822,-59.1527 190.5822,-56.2515"/>
<polygon fill="#000000" stroke="#000000" points="192.3052,-59.3162 200.0291,-52.0641 189.4686,-52.9167 192.3052,-59.3162"/>
</a>
</g>
</g>
<!-- github.com/go&#45;i2p/go&#45;i2p/lib/config.init&#45;&gt;github.com/go&#45;i2p/go&#45;i2p/lib/config.DefaultRouterConfig -->
<g id="edge20" class="edge">
<title>github.com/go&#45;i2p/go&#45;i2p/lib/config.init&#45;&gt;github.com/go&#45;i2p/go&#45;i2p/lib/config.DefaultRouterConfig</title>
<g id="a_edge20"><a xlink:title="at router.go:39: calling [github.com/go&#45;i2p/go&#45;i2p/lib/config.DefaultRouterConfig]">
<path fill="none" stroke="#000000" d="M84.3729,-122.5269C107.496,-123.7441 141.5778,-125.3488 171.3296,-126 234.1664,-127.3754 250.245,-132.6296 312.7462,-126 333.9992,-123.7457 356.7203,-119.6758 377.7034,-115.2106"/>
<polygon fill="#000000" stroke="#000000" points="378.5061,-118.6179 387.5292,-113.0651 377.0128,-111.779 378.5061,-118.6179"/>
</a>
</g>
</g>
<!-- github.com/go&#45;i2p/go&#45;i2p/lib/config.init&#45;&gt;github.com/go&#45;i2p/go&#45;i2p/lib/config.defaultBase -->
<g id="edge9" class="edge">
<title>github.com/go&#45;i2p/go&#45;i2p/lib/config.init&#45;&gt;github.com/go&#45;i2p/go&#45;i2p/lib/config.defaultBase</title>
<g id="a_edge9"><a xlink:title="at router.go:31: calling [github.com/go&#45;i2p/go&#45;i2p/lib/config.defaultBase]">
<path fill="none" stroke="#000000" d="M84.4435,-117.1636C111.2046,-113.4 152.7903,-107.5515 186.5246,-102.8072"/>
<polygon fill="#000000" stroke="#000000" points="187.3016,-106.2325 196.7167,-101.3738 186.3267,-99.3007 187.3016,-106.2325"/>
</a>
</g>
</g>
<!-- github.com/go&#45;i2p/logger.GetGoI2PLogger -->
<g id="node23" class="node">
<title>github.com/go&#45;i2p/logger.GetGoI2PLogger</title>
<g id="a_node23"><a xlink:title="github.com/go&#45;i2p/logger.GetGoI2PLogger | defined in log.go:120">
<path fill="#ffe4b5" stroke="#000000" stroke-width="1.5" d="M290.7274,-201C290.7274,-201 193.3484,-201 193.3484,-201 187.3484,-201 181.3484,-195 181.3484,-189 181.3484,-189 181.3484,-177 181.3484,-177 181.3484,-171 187.3484,-165 193.3484,-165 193.3484,-165 290.7274,-165 290.7274,-165 296.7274,-165 302.7274,-171 302.7274,-177 302.7274,-177 302.7274,-189 302.7274,-189 302.7274,-195 296.7274,-201 290.7274,-201"/>
<text text-anchor="middle" x="242.0379" y="-187.2" font-family="Verdana" font-size="14.00" fill="#000000">logger</text>
<text text-anchor="middle" x="242.0379" y="-170.4" font-family="Verdana" font-size="14.00" fill="#000000">GetGoI2PLogger</text>
</a>
</g>
</g>
<!-- github.com/go&#45;i2p/go&#45;i2p/lib/config.init&#45;&gt;github.com/go&#45;i2p/logger.GetGoI2PLogger -->
<g id="edge30" class="edge">
<title>github.com/go&#45;i2p/go&#45;i2p/lib/config.init&#45;&gt;github.com/go&#45;i2p/logger.GetGoI2PLogger</title>
<g id="a_edge30"><a xlink:title="at config.go:14: calling [github.com/go&#45;i2p/logger.GetGoI2PLogger]">
<path fill="none" stroke="#8b4513" d="M84.4435,-130.1483C109.111,-138.421 146.3744,-150.9178 178.4741,-161.6829"/>
<polygon fill="#8b4513" stroke="#8b4513" points="177.6567,-165.1003 188.2506,-164.9616 179.8824,-158.4636 177.6567,-165.1003"/>
</a>
</g>
</g>
</g>
</svg>
