<?xml version="1.0" encoding="UTF-8" standalone="no"?>
<!DOCTYPE svg PUBLIC "-//W3C//DTD SVG 1.1//EN"
 "http://www.w3.org/Graphics/SVG/1.1/DTD/svg11.dtd">
<!-- Generated by graphviz version 2.40.1 (20161225.0304)
 -->
<!-- Title: gocallvis Pages: 1 -->
<svg width="712pt" height="726pt"
 viewBox="0.00 0.00 712.47 726.00" xmlns="http://www.w3.org/2000/svg" xmlns:xlink="http://www.w3.org/1999/xlink">
<g id="graph0" class="graph" transform="scale(1 1) rotate(0) translate(0 726)">
<title>gocallvis</title>
<polygon fill="#d3d3d3" stroke="transparent" points="0,0 0,-726 712.4728,-726 712.4728,0 0,0"/>
<g id="clust1" class="cluster">
<title>cluster_focus</title>
<polygon fill="#e6ecfa" stroke="#000000" stroke-width=".5" points="8,-8 8,-718 704.4728,-718 704.4728,-8 8,-8"/>
<text text-anchor="middle" x="356.2364" y="-697.8" font-family="Arial" font-size="18.00" fill="#000000">config</text>
</g>
<g id="clust3" class="cluster">
<title>cluster_*github.com/sirupsen/logrus.Logger</title>
<g id="a_clust3"><a xlink:title="type: *github.com/sirupsen/logrus.Logger">
<path fill="#eed8ae" stroke="#000000" stroke-width=".5" d="M620.1025,-157C620.1025,-157 678.0843,-157 678.0843,-157 684.0843,-157 690.0843,-163 690.0843,-169 690.0843,-169 690.0843,-284 690.0843,-284 690.0843,-290 684.0843,-296 678.0843,-296 678.0843,-296 620.1025,-296 620.1025,-296 614.1025,-296 608.1025,-290 608.1025,-284 608.1025,-284 608.1025,-169 608.1025,-169 608.1025,-163 614.1025,-157 620.1025,-157"/>
<text text-anchor="middle" x="649.0934" y="-165.5" font-family="Arial" font-size="15.00" fill="#222222">(*Logger)</text>
</a>
</g>
</g>
<g id="clust2" class="cluster">
<title>cluster_*github.com/go&#45;i2p/logger.Logger</title>
<g id="a_clust2"><a xlink:title="type: *github.com/go&#45;i2p/logger.Logger">
<path fill="#eed8ae" stroke="#000000" stroke-width=".5" d="M430.3472,-602C430.3472,-602 484.113,-602 484.113,-602 490.113,-602 496.113,-608 496.113,-614 496.113,-614 496.113,-668 496.113,-668 496.113,-674 490.113,-680 484.113,-680 484.113,-680 430.3472,-680 430.3472,-680 424.3472,-680 418.3472,-674 418.3472,-668 418.3472,-668 418.3472,-614 418.3472,-614 418.3472,-608 424.3472,-602 430.3472,-602"/>
<text text-anchor="middle" x="457.2301" y="-610.5" font-family="Arial" font-size="15.00" fill="#222222">(*Logger)</text>
</a>
</g>
</g>
<!-- github.com/go&#45;i2p/go&#45;i2p/lib/config.BuildI2PDirPath -->
<g id="node1" class="node">
<title>github.com/go&#45;i2p/go&#45;i2p/lib/config.BuildI2PDirPath</title>
<g id="a_node1"><a xlink:title="github.com/go&#45;i2p/go&#45;i2p/lib/config.BuildI2PDirPath | defined in config.go:107&#10;at config.go:108: calling [github.com/go&#45;i2p/go&#45;i2p/lib/util.UserHome]">
<path fill="#add8e6" stroke="#000000" stroke-width="1.5" d="M504.3367,-174C504.3367,-174 410.1235,-174 410.1235,-174 404.1235,-174 398.1235,-168 398.1235,-162 398.1235,-162 398.1235,-150 398.1235,-150 398.1235,-144 404.1235,-138 410.1235,-138 410.1235,-138 504.3367,-138 504.3367,-138 510.3367,-138 516.3367,-144 516.3367,-150 516.3367,-150 516.3367,-162 516.3367,-162 516.3367,-168 510.3367,-174 504.3367,-174"/>
<text text-anchor="middle" x="457.2301" y="-151.8" font-family="Verdana" font-size="14.00" fill="#000000">BuildI2PDirPath</text>
</a>
</g>
</g>
<!-- github.com/go&#45;i2p/go&#45;i2p/lib/util.UserHome -->
<g id="node2" class="node">
<title>github.com/go&#45;i2p/go&#45;i2p/lib/util.UserHome</title>
<g id="a_node2"><a xlink:title="github.com/go&#45;i2p/go&#45;i2p/lib/util.UserHome | defined in home.go:8">
<path fill="#ffe4b5" stroke="#000000" stroke-width="1.5" d="M679.2324,-149C679.2324,-149 618.9544,-149 618.9544,-149 612.9544,-149 606.9544,-143 606.9544,-137 606.9544,-137 606.9544,-125 606.9544,-125 606.9544,-119 612.9544,-113 618.9544,-113 618.9544,-113 679.2324,-113 679.2324,-113 685.2324,-113 691.2324,-119 691.2324,-125 691.2324,-125 691.2324,-137 691.2324,-137 691.2324,-143 685.2324,-149 679.2324,-149"/>
<text text-anchor="middle" x="649.0934" y="-135.2" font-family="Verdana" font-size="14.00" fill="#000000">util</text>
<text text-anchor="middle" x="649.0934" y="-118.4" font-family="Verdana" font-size="14.00" fill="#000000">UserHome</text>
</a>
</g>
</g>
<!-- github.com/go&#45;i2p/go&#45;i2p/lib/config.BuildI2PDirPath&#45;&gt;github.com/go&#45;i2p/go&#45;i2p/lib/util.UserHome -->
<g id="edge23" class="edge">
<title>github.com/go&#45;i2p/go&#45;i2p/lib/config.BuildI2PDirPath&#45;&gt;github.com/go&#45;i2p/go&#45;i2p/lib/util.UserHome</title>
<g id="a_edge23"><a xlink:title="at config.go:108: calling [github.com/go&#45;i2p/go&#45;i2p/lib/util.UserHome]">
<path fill="none" stroke="#8b4513" d="M516.361,-148.2952C542.1024,-144.941 572.0106,-141.044 596.9133,-137.7991"/>
<polygon fill="#8b4513" stroke="#8b4513" points="597.4334,-141.261 606.8973,-136.4982 596.5289,-134.3197 597.4334,-141.261"/>
</a>
</g>
</g>
<!-- github.com/go&#45;i2p/go&#45;i2p/lib/config.handleConfigFile -->
<g id="node3" class="node">
<title>github.com/go&#45;i2p/go&#45;i2p/lib/config.handleConfigFile</title>
<g id="a_node3"><a xlink:title="github.com/go&#45;i2p/go&#45;i2p/lib/config.handleConfigFile | defined in config.go:91&#10;at config.go:92: calling [github.com/spf13/viper.ReadInConfig]&#10;at config.go:103: calling [github.com/spf13/viper.ConfigFileUsed]&#10;at config.go:100: calling [(*github.com/sirupsen/logrus.Logger).Fatalf]&#10;at config.go:95: calling [(*github.com/sirupsen/logrus.Logger).Fatalf]&#10;at config.go:97: calling [github.com/go&#45;i2p/go&#45;i2p/lib/config.BuildI2PDirPath]&#10;at config.go:97: calling [github.com/go&#45;i2p/go&#45;i2p/lib/config.createDefaultConfig]&#10;at config.go:103: calling [(*github.com/sirupsen/logrus.Logger).Debugf]">
<path fill="#add8e6" stroke="#000000" stroke-width=".5" d="M291.0239,-533C291.0239,-533 193.0519,-533 193.0519,-533 187.0519,-533 181.0519,-527 181.0519,-521 181.0519,-521 181.0519,-509 181.0519,-509 181.0519,-503 187.0519,-497 193.0519,-497 193.0519,-497 291.0239,-497 291.0239,-497 297.0239,-497 303.0239,-503 303.0239,-509 303.0239,-509 303.0239,-521 303.0239,-521 303.0239,-527 297.0239,-533 291.0239,-533"/>
<text text-anchor="middle" x="242.0379" y="-510.8" font-family="Verdana" font-size="14.00" fill="#000000">handleConfigFile</text>
</a>
</g>
</g>
<!-- github.com/go&#45;i2p/go&#45;i2p/lib/config.handleConfigFile&#45;&gt;github.com/go&#45;i2p/go&#45;i2p/lib/config.BuildI2PDirPath -->
<g id="edge13" class="edge">
<title>github.com/go&#45;i2p/go&#45;i2p/lib/config.handleConfigFile&#45;&gt;github.com/go&#45;i2p/go&#45;i2p/lib/config.BuildI2PDirPath</title>
<g id="a_edge13"><a xlink:title="at config.go:97: calling [github.com/go&#45;i2p/go&#45;i2p/lib/config.BuildI2PDirPath]">
<path fill="none" stroke="#000000" d="M291.6175,-496.8823C299.7575,-491.9013 307.2995,-485.6873 312.7462,-478 377.1362,-387.1217 298.8243,-329.5627 348.7462,-230 360.0124,-207.531 381.6954,-190.6903 402.7333,-178.7974"/>
<polygon fill="#000000" stroke="#000000" points="404.5188,-181.8115 411.6779,-174.0014 401.2109,-175.6424 404.5188,-181.8115"/>
</a>
</g>
</g>
<!-- github.com/spf13/viper.ReadInConfig -->
<g id="node4" class="node">
<title>github.com/spf13/viper.ReadInConfig</title>
<g id="a_node4"><a xlink:title="github.com/spf13/viper.ReadInConfig | defined in viper.go:1632">
<path fill="#ffe4b5" stroke="#000000" stroke-width="1.5" d="M497.0448,-350C497.0448,-350 417.4154,-350 417.4154,-350 411.4154,-350 405.4154,-344 405.4154,-338 405.4154,-338 405.4154,-326 405.4154,-326 405.4154,-320 411.4154,-314 417.4154,-314 417.4154,-314 497.0448,-314 497.0448,-314 503.0448,-314 509.0448,-320 509.0448,-326 509.0448,-326 509.0448,-338 509.0448,-338 509.0448,-344 503.0448,-350 497.0448,-350"/>
<text text-anchor="middle" x="457.2301" y="-336.2" font-family="Verdana" font-size="14.00" fill="#000000">viper</text>
<text text-anchor="middle" x="457.2301" y="-319.4" font-family="Verdana" font-size="14.00" fill="#000000">ReadInConfig</text>
</a>
</g>
</g>
<!-- github.com/go&#45;i2p/go&#45;i2p/lib/config.handleConfigFile&#45;&gt;github.com/spf13/viper.ReadInConfig -->
<g id="edge10" class="edge">
<title>github.com/go&#45;i2p/go&#45;i2p/lib/config.handleConfigFile&#45;&gt;github.com/spf13/viper.ReadInConfig</title>
<g id="a_edge10"><a xlink:title="at config.go:92: calling [github.com/spf13/viper.ReadInConfig]">
<path fill="none" stroke="#8b4513" d="M285.5176,-496.8223C295.1212,-491.6086 304.7923,-485.3159 312.7462,-478 357.3034,-437.0165 339.7249,-402.3323 385.7462,-363 389.1348,-360.1039 392.8355,-357.4397 396.7118,-354.9957"/>
<polygon fill="#8b4513" stroke="#8b4513" points="398.4959,-358.0074 405.4252,-349.9927 395.0103,-351.9369 398.4959,-358.0074"/>
</a>
</g>
</g>
<!-- github.com/spf13/viper.ConfigFileUsed -->
<g id="node5" class="node">
<title>github.com/spf13/viper.ConfigFileUsed</title>
<g id="a_node5"><a xlink:title="github.com/spf13/viper.ConfigFileUsed | defined in viper.go:569">
<path fill="#ffe4b5" stroke="#000000" stroke-width="1.5" d="M502.1629,-411C502.1629,-411 412.2973,-411 412.2973,-411 406.2973,-411 400.2973,-405 400.2973,-399 400.2973,-399 400.2973,-387 400.2973,-387 400.2973,-381 406.2973,-375 412.2973,-375 412.2973,-375 502.1629,-375 502.1629,-375 508.1629,-375 514.1629,-381 514.1629,-387 514.1629,-387 514.1629,-399 514.1629,-399 514.1629,-405 508.1629,-411 502.1629,-411"/>
<text text-anchor="middle" x="457.2301" y="-397.2" font-family="Verdana" font-size="14.00" fill="#000000">viper</text>
<text text-anchor="middle" x="457.2301" y="-380.4" font-family="Verdana" font-size="14.00" fill="#000000">ConfigFileUsed</text>
</a>
</g>
</g>
<!-- github.com/go&#45;i2p/go&#45;i2p/lib/config.handleConfigFile&#45;&gt;github.com/spf13/viper.ConfigFileUsed -->
<g id="edge11" class="edge">
<title>github.com/go&#45;i2p/go&#45;i2p/lib/config.handleConfigFile&#45;&gt;github.com/spf13/viper.ConfigFileUsed</title>
<g id="a_edge11"><a xlink:title="at config.go:103: calling [github.com/spf13/viper.ConfigFileUsed]">
<path fill="none" stroke="#8b4513" d="M279.3425,-496.852C290.3014,-491.156 302.1781,-484.6182 312.7462,-478 346.9492,-456.5805 350.7852,-444.1587 385.7462,-424 390.8511,-421.0565 396.2886,-418.2171 401.7976,-415.5316"/>
<polygon fill="#8b4513" stroke="#8b4513" points="403.5275,-418.586 411.0904,-411.1662 400.5512,-412.2502 403.5275,-418.586"/>
</a>
</g>
</g>
<!-- github.com/go&#45;i2p/go&#45;i2p/lib/config.createDefaultConfig -->
<g id="node6" class="node">
<title>github.com/go&#45;i2p/go&#45;i2p/lib/config.createDefaultConfig</title>
<g id="a_node6"><a xlink:title="github.com/go&#45;i2p/go&#45;i2p/lib/config.createDefaultConfig | defined in config.go:76&#10;at config.go:80: calling [(*github.com/sirupsen/logrus.Logger).Fatalf]&#10;at config.go:85: calling [(*github.com/sirupsen/logrus.Logger).Fatalf]&#10;at config.go:84: calling [github.com/spf13/viper.WriteConfig]&#10;at config.go:88: calling [(*github.com/sirupsen/logrus.Logger).Debugf]">
<path fill="#add8e6" stroke="#000000" stroke-width=".5" d="M514.5054,-262C514.5054,-262 399.9548,-262 399.9548,-262 393.9548,-262 387.9548,-256 387.9548,-250 387.9548,-250 387.9548,-238 387.9548,-238 387.9548,-232 393.9548,-226 399.9548,-226 399.9548,-226 514.5054,-226 514.5054,-226 520.5054,-226 526.5054,-232 526.5054,-238 526.5054,-238 526.5054,-250 526.5054,-250 526.5054,-256 520.5054,-262 514.5054,-262"/>
<text text-anchor="middle" x="457.2301" y="-239.8" font-family="Verdana" font-size="14.00" fill="#000000">createDefaultConfig</text>
</a>
</g>
</g>
<!-- github.com/go&#45;i2p/go&#45;i2p/lib/config.handleConfigFile&#45;&gt;github.com/go&#45;i2p/go&#45;i2p/lib/config.createDefaultConfig -->
<g id="edge25" class="edge">
<title>github.com/go&#45;i2p/go&#45;i2p/lib/config.handleConfigFile&#45;&gt;github.com/go&#45;i2p/go&#45;i2p/lib/config.createDefaultConfig</title>
<g id="a_edge25"><a xlink:title="at config.go:97: calling [github.com/go&#45;i2p/go&#45;i2p/lib/config.createDefaultConfig]">
<path fill="none" stroke="#000000" d="M291.0142,-496.9249C299.3127,-491.9228 307.0671,-485.6902 312.7462,-478 364.8414,-407.4567 292.2177,-351.0433 348.7462,-284 356.8122,-274.4337 367.3823,-267.1544 378.7588,-261.6157"/>
<polygon fill="#000000" stroke="#000000" points="380.2813,-264.7696 388.0229,-257.5365 377.4604,-258.3632 380.2813,-264.7696"/>
</a>
</g>
</g>
<!-- (*github.com/sirupsen/logrus.Logger).Debugf -->
<g id="node25" class="node">
<title>(*github.com/sirupsen/logrus.Logger).Debugf</title>
<g id="a_node25"><a xlink:title="(*github.com/sirupsen/logrus.Logger).Debugf | defined in logger.go:163">
<path fill="#ffe4b5" stroke="#000000" stroke-width="1.5" d="M670.0752,-227C670.0752,-227 628.1116,-227 628.1116,-227 622.1116,-227 616.1116,-221 616.1116,-215 616.1116,-215 616.1116,-203 616.1116,-203 616.1116,-197 622.1116,-191 628.1116,-191 628.1116,-191 670.0752,-191 670.0752,-191 676.0752,-191 682.0752,-197 682.0752,-203 682.0752,-203 682.0752,-215 682.0752,-215 682.0752,-221 676.0752,-227 670.0752,-227"/>
<text text-anchor="middle" x="649.0934" y="-213.2" font-family="Verdana" font-size="14.00" fill="#000000">logrus</text>
<text text-anchor="middle" x="649.0934" y="-196.4" font-family="Verdana" font-size="14.00" fill="#000000">Debugf</text>
</a>
</g>
</g>
<!-- github.com/go&#45;i2p/go&#45;i2p/lib/config.handleConfigFile&#45;&gt;(*github.com/sirupsen/logrus.Logger).Debugf -->
<g id="edge27" class="edge">
<title>github.com/go&#45;i2p/go&#45;i2p/lib/config.handleConfigFile&#45;&gt;(*github.com/sirupsen/logrus.Logger).Debugf</title>
<g id="a_edge27"><a xlink:title="at config.go:103: calling [(*github.com/sirupsen/logrus.Logger).Debugf]">
<path fill="none" stroke="#8b4513" d="M284.5169,-496.9746C295.2075,-490.5503 305.6476,-482.2885 312.7462,-472 380.4216,-373.9127 283.096,-274.5313 385.7462,-214 421.7528,-192.7674 540.6408,-199.3113 605.667,-204.7873"/>
<polygon fill="#8b4513" stroke="#8b4513" points="605.7369,-208.3065 616.0027,-205.687 606.3439,-201.3329 605.7369,-208.3065"/>
</a>
</g>
</g>
<!-- (*github.com/sirupsen/logrus.Logger).Fatalf -->
<g id="node26" class="node">
<title>(*github.com/sirupsen/logrus.Logger).Fatalf</title>
<g id="a_node26"><a xlink:title="(*github.com/sirupsen/logrus.Logger).Fatalf | defined in logger.go:189">
<path fill="#ffe4b5" stroke="#000000" stroke-width="1.5" d="M666.5892,-288C666.5892,-288 631.5976,-288 631.5976,-288 625.5976,-288 619.5976,-282 619.5976,-276 619.5976,-276 619.5976,-264 619.5976,-264 619.5976,-258 625.5976,-252 631.5976,-252 631.5976,-252 666.5892,-252 666.5892,-252 672.5892,-252 678.5892,-258 678.5892,-264 678.5892,-264 678.5892,-276 678.5892,-276 678.5892,-282 672.5892,-288 666.5892,-288"/>
<text text-anchor="middle" x="649.0934" y="-274.2" font-family="Verdana" font-size="14.00" fill="#000000">logrus</text>
<text text-anchor="middle" x="649.0934" y="-257.4" font-family="Verdana" font-size="14.00" fill="#000000">Fatalf</text>
</a>
</g>
</g>
<!-- github.com/go&#45;i2p/go&#45;i2p/lib/config.handleConfigFile&#45;&gt;(*github.com/sirupsen/logrus.Logger).Fatalf -->
<g id="edge12" class="edge">
<title>github.com/go&#45;i2p/go&#45;i2p/lib/config.handleConfigFile&#45;&gt;(*github.com/sirupsen/logrus.Logger).Fatalf</title>
<g id="a_edge12"><a xlink:title="at config.go:100: calling [(*github.com/sirupsen/logrus.Logger).Fatalf]&#10;at config.go:95: calling [(*github.com/sirupsen/logrus.Logger).Fatalf]">
<path fill="none" stroke="#8b4513" d="M287.9441,-496.9579C296.9982,-491.8477 305.8259,-485.5647 312.7462,-478 369.9062,-415.5173 318.2933,-353.2003 385.7462,-302 403.1931,-288.7569 540.1312,-277.5253 609.3377,-272.6286"/>
<polygon fill="#8b4513" stroke="#8b4513" points="609.7025,-276.1117 619.435,-271.9251 609.2159,-269.1287 609.7025,-276.1117"/>
</a>
</g>
</g>
<!-- github.com/spf13/viper.WriteConfig -->
<g id="node7" class="node">
<title>github.com/spf13/viper.WriteConfig</title>
<g id="a_node7"><a xlink:title="github.com/spf13/viper.WriteConfig | defined in viper.go:1718">
<path fill="#ffe4b5" stroke="#000000" stroke-width="1.5" d="M684.3525,-349C684.3525,-349 613.8343,-349 613.8343,-349 607.8343,-349 601.8343,-343 601.8343,-337 601.8343,-337 601.8343,-325 601.8343,-325 601.8343,-319 607.8343,-313 613.8343,-313 613.8343,-313 684.3525,-313 684.3525,-313 690.3525,-313 696.3525,-319 696.3525,-325 696.3525,-325 696.3525,-337 696.3525,-337 696.3525,-343 690.3525,-349 684.3525,-349"/>
<text text-anchor="middle" x="649.0934" y="-335.2" font-family="Verdana" font-size="14.00" fill="#000000">viper</text>
<text text-anchor="middle" x="649.0934" y="-318.4" font-family="Verdana" font-size="14.00" fill="#000000">WriteConfig</text>
</a>
</g>
</g>
<!-- github.com/go&#45;i2p/go&#45;i2p/lib/config.createDefaultConfig&#45;&gt;github.com/spf13/viper.WriteConfig -->
<g id="edge14" class="edge">
<title>github.com/go&#45;i2p/go&#45;i2p/lib/config.createDefaultConfig&#45;&gt;github.com/spf13/viper.WriteConfig</title>
<g id="a_edge14"><a xlink:title="at config.go:84: calling [github.com/spf13/viper.WriteConfig]">
<path fill="none" stroke="#8b4513" d="M496.9843,-262.0265C526.9544,-275.6163 568.219,-294.3277 600.2079,-308.833"/>
<polygon fill="#8b4513" stroke="#8b4513" points="598.8373,-312.0544 609.3901,-312.9966 601.7281,-305.6792 598.8373,-312.0544"/>
</a>
</g>
</g>
<!-- github.com/go&#45;i2p/go&#45;i2p/lib/config.createDefaultConfig&#45;&gt;(*github.com/sirupsen/logrus.Logger).Debugf -->
<g id="edge24" class="edge">
<title>github.com/go&#45;i2p/go&#45;i2p/lib/config.createDefaultConfig&#45;&gt;(*github.com/sirupsen/logrus.Logger).Debugf</title>
<g id="a_edge24"><a xlink:title="at config.go:88: calling [(*github.com/sirupsen/logrus.Logger).Debugf]">
<path fill="none" stroke="#8b4513" d="M526.4972,-231.3642C553.0515,-226.5201 582.5668,-221.1359 605.9821,-216.8644"/>
<polygon fill="#8b4513" stroke="#8b4513" points="606.7376,-220.2845 615.9471,-215.0466 605.4813,-213.3981 606.7376,-220.2845"/>
</a>
</g>
</g>
<!-- github.com/go&#45;i2p/go&#45;i2p/lib/config.createDefaultConfig&#45;&gt;(*github.com/sirupsen/logrus.Logger).Fatalf -->
<g id="edge1" class="edge">
<title>github.com/go&#45;i2p/go&#45;i2p/lib/config.createDefaultConfig&#45;&gt;(*github.com/sirupsen/logrus.Logger).Fatalf</title>
<g id="a_edge1"><a xlink:title="at config.go:80: calling [(*github.com/sirupsen/logrus.Logger).Fatalf]&#10;at config.go:85: calling [(*github.com/sirupsen/logrus.Logger).Fatalf]">
<path fill="none" stroke="#8b4513" d="M526.4972,-253.3866C554.3605,-257.1625 585.4839,-261.3801 609.3993,-264.6209"/>
<polygon fill="#8b4513" stroke="#8b4513" points="609.1296,-268.1163 619.509,-265.9909 610.0696,-261.1797 609.1296,-268.1163"/>
</a>
</g>
</g>
<!-- github.com/go&#45;i2p/go&#45;i2p/lib/config.UpdateRouterConfig -->
<g id="node8" class="node">
<title>github.com/go&#45;i2p/go&#45;i2p/lib/config.UpdateRouterConfig</title>
<g id="a_node8"><a xlink:title="github.com/go&#45;i2p/go&#45;i2p/lib/config.UpdateRouterConfig | defined in config.go:53&#10;at config.go:55: calling [github.com/spf13/viper.GetString]&#10;at config.go:56: calling [github.com/spf13/viper.GetString]&#10;at config.go:60: calling [github.com/spf13/viper.GetString]&#10;at config.go:66: calling [(*github.com/go&#45;i2p/logger.Logger).Warnf]&#10;at config.go:71: calling [github.com/spf13/viper.GetInt]&#10;at config.go:65: calling [github.com/spf13/viper.UnmarshalKey]">
<path fill="#add8e6" stroke="#000000" stroke-width="1.5" d="M300.9551,-594C300.9551,-594 183.1207,-594 183.1207,-594 177.1207,-594 171.1207,-588 171.1207,-582 171.1207,-582 171.1207,-570 171.1207,-570 171.1207,-564 177.1207,-558 183.1207,-558 183.1207,-558 300.9551,-558 300.9551,-558 306.9551,-558 312.9551,-564 312.9551,-570 312.9551,-570 312.9551,-582 312.9551,-582 312.9551,-588 306.9551,-594 300.9551,-594"/>
<text text-anchor="middle" x="242.0379" y="-571.8" font-family="Verdana" font-size="14.00" fill="#000000">UpdateRouterConfig</text>
</a>
</g>
</g>
<!-- github.com/spf13/viper.GetString -->
<g id="node9" class="node">
<title>github.com/spf13/viper.GetString</title>
<g id="a_node9"><a xlink:title="github.com/spf13/viper.GetString | defined in viper.go:975">
<path fill="#ffe4b5" stroke="#000000" stroke-width="1.5" d="M484.6675,-533C484.6675,-533 429.7927,-533 429.7927,-533 423.7927,-533 417.7927,-527 417.7927,-521 417.7927,-521 417.7927,-509 417.7927,-509 417.7927,-503 423.7927,-497 429.7927,-497 429.7927,-497 484.6675,-497 484.6675,-497 490.6675,-497 496.6675,-503 496.6675,-509 496.6675,-509 496.6675,-521 496.6675,-521 496.6675,-527 490.6675,-533 484.6675,-533"/>
<text text-anchor="middle" x="457.2301" y="-519.2" font-family="Verdana" font-size="14.00" fill="#000000">viper</text>
<text text-anchor="middle" x="457.2301" y="-502.4" font-family="Verdana" font-size="14.00" fill="#000000">GetString</text>
</a>
</g>
</g>
<!-- github.com/go&#45;i2p/go&#45;i2p/lib/config.UpdateRouterConfig&#45;&gt;github.com/spf13/viper.GetString -->
<g id="edge2" class="edge">
<title>github.com/go&#45;i2p/go&#45;i2p/lib/config.UpdateRouterConfig&#45;&gt;github.com/spf13/viper.GetString</title>
<g id="a_edge2"><a xlink:title="at config.go:55: calling [github.com/spf13/viper.GetString]&#10;at config.go:56: calling [github.com/spf13/viper.GetString]&#10;at config.go:60: calling [github.com/spf13/viper.GetString]">
<path fill="none" stroke="#8b4513" d="M305.7292,-557.9456C338.3543,-548.6974 377.4798,-537.6066 407.7972,-529.0126"/>
<polygon fill="#8b4513" stroke="#8b4513" points="409.0526,-532.2947 417.7189,-526.2001 407.1435,-525.5601 409.0526,-532.2947"/>
</a>
</g>
</g>
<!-- github.com/spf13/viper.UnmarshalKey -->
<g id="node10" class="node">
<title>github.com/spf13/viper.UnmarshalKey</title>
<g id="a_node10"><a xlink:title="github.com/spf13/viper.UnmarshalKey | defined in viper.go:1103">
<path fill="#ffe4b5" stroke="#000000" stroke-width="1.5" d="M499.4738,-594C499.4738,-594 414.9864,-594 414.9864,-594 408.9864,-594 402.9864,-588 402.9864,-582 402.9864,-582 402.9864,-570 402.9864,-570 402.9864,-564 408.9864,-558 414.9864,-558 414.9864,-558 499.4738,-558 499.4738,-558 505.4738,-558 511.4738,-564 511.4738,-570 511.4738,-570 511.4738,-582 511.4738,-582 511.4738,-588 505.4738,-594 499.4738,-594"/>
<text text-anchor="middle" x="457.2301" y="-580.2" font-family="Verdana" font-size="14.00" fill="#000000">viper</text>
<text text-anchor="middle" x="457.2301" y="-563.4" font-family="Verdana" font-size="14.00" fill="#000000">UnmarshalKey</text>
</a>
</g>
</g>
<!-- github.com/go&#45;i2p/go&#45;i2p/lib/config.UpdateRouterConfig&#45;&gt;github.com/spf13/viper.UnmarshalKey -->
<g id="edge28" class="edge">
<title>github.com/go&#45;i2p/go&#45;i2p/lib/config.UpdateRouterConfig&#45;&gt;github.com/spf13/viper.UnmarshalKey</title>
<g id="a_edge28"><a xlink:title="at config.go:65: calling [github.com/spf13/viper.UnmarshalKey]">
<path fill="none" stroke="#8b4513" d="M312.7979,-576C338.5302,-576 367.4592,-576 392.6306,-576"/>
<polygon fill="#8b4513" stroke="#8b4513" points="392.8026,-579.5001 402.8026,-576 392.8025,-572.5001 392.8026,-579.5001"/>
</a>
</g>
</g>
<!-- github.com/spf13/viper.GetInt -->
<g id="node11" class="node">
<title>github.com/spf13/viper.GetInt</title>
<g id="a_node11"><a xlink:title="github.com/spf13/viper.GetInt | defined in viper.go:989">
<path fill="#ffe4b5" stroke="#000000" stroke-width="1.5" d="M474.9936,-472C474.9936,-472 439.4666,-472 439.4666,-472 433.4666,-472 427.4666,-466 427.4666,-460 427.4666,-460 427.4666,-448 427.4666,-448 427.4666,-442 433.4666,-436 439.4666,-436 439.4666,-436 474.9936,-436 474.9936,-436 480.9936,-436 486.9936,-442 486.9936,-448 486.9936,-448 486.9936,-460 486.9936,-460 486.9936,-466 480.9936,-472 474.9936,-472"/>
<text text-anchor="middle" x="457.2301" y="-458.2" font-family="Verdana" font-size="14.00" fill="#000000">viper</text>
<text text-anchor="middle" x="457.2301" y="-441.4" font-family="Verdana" font-size="14.00" fill="#000000">GetInt</text>
</a>
</g>
</g>
<!-- github.com/go&#45;i2p/go&#45;i2p/lib/config.UpdateRouterConfig&#45;&gt;github.com/spf13/viper.GetInt -->
<g id="edge7" class="edge">
<title>github.com/go&#45;i2p/go&#45;i2p/lib/config.UpdateRouterConfig&#45;&gt;github.com/spf13/viper.GetInt</title>
<g id="a_edge7"><a xlink:title="at config.go:71: calling [github.com/spf13/viper.GetInt]">
<path fill="none" stroke="#8b4513" d="M290.1598,-557.8555C297.9074,-554.2951 305.6921,-550.312 312.7462,-546 348.8208,-523.9483 349.7593,-507.1945 385.7462,-485 395.8089,-478.794 407.3325,-473.2123 418.1466,-468.5519"/>
<polygon fill="#8b4513" stroke="#8b4513" points="419.5217,-471.7708 427.4128,-464.7011 416.8353,-465.3067 419.5217,-471.7708"/>
</a>
</g>
</g>
<!-- (*github.com/go&#45;i2p/logger.Logger).Warnf -->
<g id="node24" class="node">
<title>(*github.com/go&#45;i2p/logger.Logger).Warnf</title>
<g id="a_node24"><a xlink:title="(*github.com/go&#45;i2p/logger.Logger).Warnf | defined in log.go:36">
<path fill="#ffe4b5" stroke="#000000" stroke-width="1.5" d="M474.9964,-672C474.9964,-672 439.4638,-672 439.4638,-672 433.4638,-672 427.4638,-666 427.4638,-660 427.4638,-660 427.4638,-648 427.4638,-648 427.4638,-642 433.4638,-636 439.4638,-636 439.4638,-636 474.9964,-636 474.9964,-636 480.9964,-636 486.9964,-642 486.9964,-648 486.9964,-648 486.9964,-660 486.9964,-660 486.9964,-666 480.9964,-672 474.9964,-672"/>
<text text-anchor="middle" x="457.2301" y="-658.2" font-family="Verdana" font-size="14.00" fill="#000000">logger</text>
<text text-anchor="middle" x="457.2301" y="-641.4" font-family="Verdana" font-size="14.00" fill="#000000">Warnf</text>
</a>
</g>
</g>
<!-- github.com/go&#45;i2p/go&#45;i2p/lib/config.UpdateRouterConfig&#45;&gt;(*github.com/go&#45;i2p/logger.Logger).Warnf -->
<g id="edge3" class="edge">
<title>github.com/go&#45;i2p/go&#45;i2p/lib/config.UpdateRouterConfig&#45;&gt;(*github.com/go&#45;i2p/logger.Logger).Warnf</title>
<g id="a_edge3"><a xlink:title="at config.go:66: calling [(*github.com/go&#45;i2p/logger.Logger).Warnf]">
<path fill="none" stroke="#8b4513" d="M286.0736,-594.1217C314.357,-605.5213 351.9873,-620.2452 385.7462,-632 395.9683,-635.5593 407.1128,-639.1333 417.4951,-642.335"/>
<polygon fill="#8b4513" stroke="#8b4513" points="416.5748,-645.7134 427.1607,-645.278 418.6138,-639.017 416.5748,-645.7134"/>
</a>
</g>
</g>
<!-- github.com/go&#45;i2p/go&#45;i2p/lib/config.InitConfig -->
<g id="node12" class="node">
<title>github.com/go&#45;i2p/go&#45;i2p/lib/config.InitConfig</title>
<g id="a_node12"><a xlink:title="github.com/go&#45;i2p/go&#45;i2p/lib/config.InitConfig | defined in config.go:19&#10;at config.go:37: calling [github.com/go&#45;i2p/go&#45;i2p/lib/config.UpdateRouterConfig]&#10;at config.go:22: calling [github.com/spf13/viper.SetConfigFile]&#10;at config.go:25: calling [github.com/spf13/viper.AddConfigPath]&#10;at config.go:26: calling [github.com/spf13/viper.SetConfigName]&#10;at config.go:34: calling [github.com/go&#45;i2p/go&#45;i2p/lib/config.handleConfigFile]&#10;at config.go:25: calling [github.com/go&#45;i2p/go&#45;i2p/lib/config.BuildI2PDirPath]&#10;at config.go:27: calling [github.com/spf13/viper.SetConfigType]&#10;at config.go:31: calling [github.com/go&#45;i2p/go&#45;i2p/lib/config.setDefaults]">
<path fill="#add8e6" stroke="#000000" stroke-width="1.5" d="M86.4951,-471C86.4951,-471 27.8345,-471 27.8345,-471 21.8345,-471 15.8345,-465 15.8345,-459 15.8345,-459 15.8345,-447 15.8345,-447 15.8345,-441 21.8345,-435 27.8345,-435 27.8345,-435 86.4951,-435 86.4951,-435 92.4951,-435 98.4951,-441 98.4951,-447 98.4951,-447 98.4951,-459 98.4951,-459 98.4951,-465 92.4951,-471 86.4951,-471"/>
<text text-anchor="middle" x="57.1648" y="-448.8" font-family="Verdana" font-size="14.00" fill="#000000">InitConfig</text>
</a>
</g>
</g>
<!-- github.com/go&#45;i2p/go&#45;i2p/lib/config.InitConfig&#45;&gt;github.com/go&#45;i2p/go&#45;i2p/lib/config.BuildI2PDirPath -->
<g id="edge21" class="edge">
<title>github.com/go&#45;i2p/go&#45;i2p/lib/config.InitConfig&#45;&gt;github.com/go&#45;i2p/go&#45;i2p/lib/config.BuildI2PDirPath</title>
<g id="a_edge21"><a xlink:title="at config.go:25: calling [github.com/go&#45;i2p/go&#45;i2p/lib/config.BuildI2PDirPath]">
<path fill="none" stroke="#000000" d="M98.5677,-460.1907C162.6369,-470.2938 281.6736,-484.6578 312.7462,-458 392.6073,-389.4857 297.1007,-315.6774 348.7462,-224 359.9102,-204.1826 379.4823,-189.3432 398.957,-178.6686"/>
<polygon fill="#000000" stroke="#000000" points="400.5971,-181.7608 407.8675,-174.0542 397.378,-175.5449 400.5971,-181.7608"/>
</a>
</g>
</g>
<!-- github.com/go&#45;i2p/go&#45;i2p/lib/config.InitConfig&#45;&gt;github.com/go&#45;i2p/go&#45;i2p/lib/config.handleConfigFile -->
<g id="edge20" class="edge">
<title>github.com/go&#45;i2p/go&#45;i2p/lib/config.InitConfig&#45;&gt;github.com/go&#45;i2p/go&#45;i2p/lib/config.handleConfigFile</title>
<g id="a_edge20"><a xlink:title="at config.go:34: calling [github.com/go&#45;i2p/go&#45;i2p/lib/config.handleConfigFile]">
<path fill="none" stroke="#000000" d="M98.6539,-466.914C122.1679,-474.7998 152.0784,-484.8307 178.4905,-493.6884"/>
<polygon fill="#000000" stroke="#000000" points="177.4507,-497.0312 188.0446,-496.8925 179.6765,-490.3945 177.4507,-497.0312"/>
</a>
</g>
</g>
<!-- github.com/go&#45;i2p/go&#45;i2p/lib/config.InitConfig&#45;&gt;github.com/go&#45;i2p/go&#45;i2p/lib/config.UpdateRouterConfig -->
<g id="edge4" class="edge">
<title>github.com/go&#45;i2p/go&#45;i2p/lib/config.InitConfig&#45;&gt;github.com/go&#45;i2p/go&#45;i2p/lib/config.UpdateRouterConfig</title>
<g id="a_edge4"><a xlink:title="at config.go:37: calling [github.com/go&#45;i2p/go&#45;i2p/lib/config.UpdateRouterConfig]">
<path fill="none" stroke="#000000" d="M76.098,-471.2787C97.7713,-491.4933 134.9843,-524.0936 171.3296,-546 175.7141,-548.6427 180.3738,-551.1674 185.1274,-553.5502"/>
<polygon fill="#000000" stroke="#000000" points="183.8054,-556.7975 194.3373,-557.951 186.8235,-550.4815 183.8054,-556.7975"/>
</a>
</g>
</g>
<!-- github.com/spf13/viper.SetConfigFile -->
<g id="node13" class="node">
<title>github.com/spf13/viper.SetConfigFile</title>
<g id="a_node13"><a xlink:title="github.com/spf13/viper.SetConfigFile | defined in viper.go:509">
<path fill="#ffe4b5" stroke="#000000" stroke-width="1.5" d="M281.0929,-655C281.0929,-655 202.9829,-655 202.9829,-655 196.9829,-655 190.9829,-649 190.9829,-643 190.9829,-643 190.9829,-631 190.9829,-631 190.9829,-625 196.9829,-619 202.9829,-619 202.9829,-619 281.0929,-619 281.0929,-619 287.0929,-619 293.0929,-625 293.0929,-631 293.0929,-631 293.0929,-643 293.0929,-643 293.0929,-649 287.0929,-655 281.0929,-655"/>
<text text-anchor="middle" x="242.0379" y="-641.2" font-family="Verdana" font-size="14.00" fill="#000000">viper</text>
<text text-anchor="middle" x="242.0379" y="-624.4" font-family="Verdana" font-size="14.00" fill="#000000">SetConfigFile</text>
</a>
</g>
</g>
<!-- github.com/go&#45;i2p/go&#45;i2p/lib/config.InitConfig&#45;&gt;github.com/spf13/viper.SetConfigFile -->
<g id="edge8" class="edge">
<title>github.com/go&#45;i2p/go&#45;i2p/lib/config.InitConfig&#45;&gt;github.com/spf13/viper.SetConfigFile</title>
<g id="a_edge8"><a xlink:title="at config.go:22: calling [github.com/spf13/viper.SetConfigFile]">
<path fill="none" stroke="#8b4513" d="M66.3763,-471.1271C83.2355,-502.6906 121.911,-568.0836 171.3296,-607 174.6297,-609.5988 178.1882,-612.0122 181.8916,-614.2466"/>
<polygon fill="#8b4513" stroke="#8b4513" points="180.297,-617.3643 190.7423,-619.1381 183.6831,-611.2377 180.297,-617.3643"/>
</a>
</g>
</g>
<!-- github.com/go&#45;i2p/go&#45;i2p/lib/config.setDefaults -->
<g id="node14" class="node">
<title>github.com/go&#45;i2p/go&#45;i2p/lib/config.setDefaults</title>
<g id="a_node14"><a xlink:title="github.com/go&#45;i2p/go&#45;i2p/lib/config.setDefaults | defined in config.go:40&#10;at config.go:42: calling [github.com/go&#45;i2p/go&#45;i2p/lib/config.DefaultRouterConfig]&#10;at config.go:43: calling [github.com/go&#45;i2p/go&#45;i2p/lib/config.DefaultRouterConfig]&#10;at config.go:42: calling [github.com/spf13/viper.SetDefault]&#10;at config.go:43: calling [github.com/spf13/viper.SetDefault]&#10;at config.go:46: calling [github.com/spf13/viper.SetDefault]&#10;at config.go:49: calling [github.com/spf13/viper.SetDefault]&#10;at config.go:50: calling [github.com/spf13/viper.SetDefault]">
<path fill="#add8e6" stroke="#000000" stroke-width=".5" d="M273.5099,-201C273.5099,-201 210.5659,-201 210.5659,-201 204.5659,-201 198.5659,-195 198.5659,-189 198.5659,-189 198.5659,-177 198.5659,-177 198.5659,-171 204.5659,-165 210.5659,-165 210.5659,-165 273.5099,-165 273.5099,-165 279.5099,-165 285.5099,-171 285.5099,-177 285.5099,-177 285.5099,-189 285.5099,-189 285.5099,-195 279.5099,-201 273.5099,-201"/>
<text text-anchor="middle" x="242.0379" y="-178.8" font-family="Verdana" font-size="14.00" fill="#000000">setDefaults</text>
</a>
</g>
</g>
<!-- github.com/go&#45;i2p/go&#45;i2p/lib/config.InitConfig&#45;&gt;github.com/go&#45;i2p/go&#45;i2p/lib/config.setDefaults -->
<g id="edge29" class="edge">
<title>github.com/go&#45;i2p/go&#45;i2p/lib/config.InitConfig&#45;&gt;github.com/go&#45;i2p/go&#45;i2p/lib/config.setDefaults</title>
<g id="a_edge29"><a xlink:title="at config.go:31: calling [github.com/go&#45;i2p/go&#45;i2p/lib/config.setDefaults]">
<path fill="none" stroke="#000000" d="M61.1946,-434.8583C71.7722,-391.1669 104.261,-278.927 171.3296,-214 176.5601,-208.9365 182.7539,-204.6262 189.2667,-200.9774"/>
<polygon fill="#000000" stroke="#000000" points="190.95,-204.0482 198.2852,-196.4032 187.7836,-197.8053 190.95,-204.0482"/>
</a>
</g>
</g>
<!-- github.com/spf13/viper.AddConfigPath -->
<g id="node17" class="node">
<title>github.com/spf13/viper.AddConfigPath</title>
<g id="a_node17"><a xlink:title="github.com/spf13/viper.AddConfigPath | defined in viper.go:574">
<path fill="#ffe4b5" stroke="#000000" stroke-width="1.5" d="M285.9202,-323C285.9202,-323 198.1556,-323 198.1556,-323 192.1556,-323 186.1556,-317 186.1556,-311 186.1556,-311 186.1556,-299 186.1556,-299 186.1556,-293 192.1556,-287 198.1556,-287 198.1556,-287 285.9202,-287 285.9202,-287 291.9202,-287 297.9202,-293 297.9202,-299 297.9202,-299 297.9202,-311 297.9202,-311 297.9202,-317 291.9202,-323 285.9202,-323"/>
<text text-anchor="middle" x="242.0379" y="-309.2" font-family="Verdana" font-size="14.00" fill="#000000">viper</text>
<text text-anchor="middle" x="242.0379" y="-292.4" font-family="Verdana" font-size="14.00" fill="#000000">AddConfigPath</text>
</a>
</g>
</g>
<!-- github.com/go&#45;i2p/go&#45;i2p/lib/config.InitConfig&#45;&gt;github.com/spf13/viper.AddConfigPath -->
<g id="edge16" class="edge">
<title>github.com/go&#45;i2p/go&#45;i2p/lib/config.InitConfig&#45;&gt;github.com/spf13/viper.AddConfigPath</title>
<g id="a_edge16"><a xlink:title="at config.go:25: calling [github.com/spf13/viper.AddConfigPath]">
<path fill="none" stroke="#8b4513" d="M71.2702,-434.6182C91.2612,-409.5752 130.0248,-364.5882 171.3296,-336 175.5608,-333.0715 180.1131,-330.3242 184.795,-327.7695"/>
<polygon fill="#8b4513" stroke="#8b4513" points="186.6062,-330.7742 193.9081,-323.0974 183.4126,-324.5451 186.6062,-330.7742"/>
</a>
</g>
</g>
<!-- github.com/spf13/viper.SetConfigName -->
<g id="node18" class="node">
<title>github.com/spf13/viper.SetConfigName</title>
<g id="a_node18"><a xlink:title="github.com/spf13/viper.SetConfigName | defined in viper.go:2174">
<path fill="#ffe4b5" stroke="#000000" stroke-width="1.5" d="M287.2401,-384C287.2401,-384 196.8357,-384 196.8357,-384 190.8357,-384 184.8357,-378 184.8357,-372 184.8357,-372 184.8357,-360 184.8357,-360 184.8357,-354 190.8357,-348 196.8357,-348 196.8357,-348 287.2401,-348 287.2401,-348 293.2401,-348 299.2401,-354 299.2401,-360 299.2401,-360 299.2401,-372 299.2401,-372 299.2401,-378 293.2401,-384 287.2401,-384"/>
<text text-anchor="middle" x="242.0379" y="-370.2" font-family="Verdana" font-size="14.00" fill="#000000">viper</text>
<text text-anchor="middle" x="242.0379" y="-353.4" font-family="Verdana" font-size="14.00" fill="#000000">SetConfigName</text>
</a>
</g>
</g>
<!-- github.com/go&#45;i2p/go&#45;i2p/lib/config.InitConfig&#45;&gt;github.com/spf13/viper.SetConfigName -->
<g id="edge17" class="edge">
<title>github.com/go&#45;i2p/go&#45;i2p/lib/config.InitConfig&#45;&gt;github.com/spf13/viper.SetConfigName</title>
<g id="a_edge17"><a xlink:title="at config.go:26: calling [github.com/spf13/viper.SetConfigName]">
<path fill="none" stroke="#8b4513" d="M92.9682,-434.9483C115.371,-423.7751 144.8979,-409.2699 171.3296,-397 177.5376,-394.1182 184.0822,-391.1527 190.5822,-388.2515"/>
<polygon fill="#8b4513" stroke="#8b4513" points="192.3052,-391.3162 200.0291,-384.0641 189.4686,-384.9167 192.3052,-391.3162"/>
</a>
</g>
</g>
<!-- github.com/spf13/viper.SetConfigType -->
<g id="node19" class="node">
<title>github.com/spf13/viper.SetConfigType</title>
<g id="a_node19"><a xlink:title="github.com/spf13/viper.SetConfigType | defined in viper.go:2185">
<path fill="#ffe4b5" stroke="#000000" stroke-width="1.5" d="M284.5817,-445C284.5817,-445 199.4941,-445 199.4941,-445 193.4941,-445 187.4941,-439 187.4941,-433 187.4941,-433 187.4941,-421 187.4941,-421 187.4941,-415 193.4941,-409 199.4941,-409 199.4941,-409 284.5817,-409 284.5817,-409 290.5817,-409 296.5817,-415 296.5817,-421 296.5817,-421 296.5817,-433 296.5817,-433 296.5817,-439 290.5817,-445 284.5817,-445"/>
<text text-anchor="middle" x="242.0379" y="-431.2" font-family="Verdana" font-size="14.00" fill="#000000">viper</text>
<text text-anchor="middle" x="242.0379" y="-414.4" font-family="Verdana" font-size="14.00" fill="#000000">SetConfigType</text>
</a>
</g>
</g>
<!-- github.com/go&#45;i2p/go&#45;i2p/lib/config.InitConfig&#45;&gt;github.com/spf13/viper.SetConfigType -->
<g id="edge26" class="edge">
<title>github.com/go&#45;i2p/go&#45;i2p/lib/config.InitConfig&#45;&gt;github.com/spf13/viper.SetConfigType</title>
<g id="a_edge26"><a xlink:title="at config.go:27: calling [github.com/spf13/viper.SetConfigType]">
<path fill="none" stroke="#8b4513" d="M98.6539,-447.1651C121.7737,-443.9136 151.0773,-439.7924 177.1591,-436.1244"/>
<polygon fill="#8b4513" stroke="#8b4513" points="177.9383,-439.5493 187.3534,-434.6907 176.9634,-432.6175 177.9383,-439.5493"/>
</a>
</g>
</g>
<!-- github.com/go&#45;i2p/go&#45;i2p/lib/config.DefaultRouterConfig -->
<g id="node15" class="node">
<title>github.com/go&#45;i2p/go&#45;i2p/lib/config.DefaultRouterConfig</title>
<g id="a_node15"><a xlink:title="github.com/go&#45;i2p/go&#45;i2p/lib/config.DefaultRouterConfig | defined in router.go:35">
<path fill="#add8e6" stroke="#000000" stroke-width="1.5" d="M516.6979,-52C516.6979,-52 397.7623,-52 397.7623,-52 391.7623,-52 385.7623,-46 385.7623,-40 385.7623,-40 385.7623,-28 385.7623,-28 385.7623,-22 391.7623,-16 397.7623,-16 397.7623,-16 516.6979,-16 516.6979,-16 522.6979,-16 528.6979,-22 528.6979,-28 528.6979,-28 528.6979,-40 528.6979,-40 528.6979,-46 522.6979,-52 516.6979,-52"/>
<text text-anchor="middle" x="457.2301" y="-29.8" font-family="Verdana" font-size="14.00" fill="#000000">DefaultRouterConfig</text>
</a>
</g>
</g>
<!-- github.com/go&#45;i2p/go&#45;i2p/lib/config.setDefaults&#45;&gt;github.com/go&#45;i2p/go&#45;i2p/lib/config.DefaultRouterConfig -->
<g id="edge9" class="edge">
<title>github.com/go&#45;i2p/go&#45;i2p/lib/config.setDefaults&#45;&gt;github.com/go&#45;i2p/go&#45;i2p/lib/config.DefaultRouterConfig</title>
<g id="a_edge9"><a xlink:title="at config.go:42: calling [github.com/go&#45;i2p/go&#45;i2p/lib/config.DefaultRouterConfig]&#10;at config.go:43: calling [github.com/go&#45;i2p/go&#45;i2p/lib/config.DefaultRouterConfig]">
<path fill="none" stroke="#000000" d="M285.6924,-168.3361C295.0812,-164.1526 304.616,-159.0505 312.7462,-153 353.5127,-122.6616 345.1003,-95.4997 385.7462,-65 389.6007,-62.1076 393.7668,-59.42 398.083,-56.936"/>
<polygon fill="#000000" stroke="#000000" points="399.9274,-59.919 407.1019,-52.1231 396.6317,-53.7433 399.9274,-59.919"/>
</a>
</g>
</g>
<!-- github.com/spf13/viper.SetDefault -->
<g id="node16" class="node">
<title>github.com/spf13/viper.SetDefault</title>
<g id="a_node16"><a xlink:title="github.com/spf13/viper.SetDefault | defined in viper.go:1596">
<path fill="#ffe4b5" stroke="#000000" stroke-width="1.5" d="M487.0956,-113C487.0956,-113 427.3646,-113 427.3646,-113 421.3646,-113 415.3646,-107 415.3646,-101 415.3646,-101 415.3646,-89 415.3646,-89 415.3646,-83 421.3646,-77 427.3646,-77 427.3646,-77 487.0956,-77 487.0956,-77 493.0956,-77 499.0956,-83 499.0956,-89 499.0956,-89 499.0956,-101 499.0956,-101 499.0956,-107 493.0956,-113 487.0956,-113"/>
<text text-anchor="middle" x="457.2301" y="-99.2" font-family="Verdana" font-size="14.00" fill="#000000">viper</text>
<text text-anchor="middle" x="457.2301" y="-82.4" font-family="Verdana" font-size="14.00" fill="#000000">SetDefault</text>
</a>
</g>
</g>
<!-- github.com/go&#45;i2p/go&#45;i2p/lib/config.setDefaults&#45;&gt;github.com/spf13/viper.SetDefault -->
<g id="edge15" class="edge">
<title>github.com/go&#45;i2p/go&#45;i2p/lib/config.setDefaults&#45;&gt;github.com/spf13/viper.SetDefault</title>
<g id="a_edge15"><a xlink:title="at config.go:42: calling [github.com/spf13/viper.SetDefault]&#10;at config.go:43: calling [github.com/spf13/viper.SetDefault]&#10;at config.go:46: calling [github.com/spf13/viper.SetDefault]&#10;at config.go:49: calling [github.com/spf13/viper.SetDefault]&#10;at config.go:50: calling [github.com/spf13/viper.SetDefault]">
<path fill="none" stroke="#8b4513" d="M285.5853,-165.1919C320.3085,-150.9923 369.024,-131.0707 405.6897,-116.0767"/>
<polygon fill="#8b4513" stroke="#8b4513" points="407.2809,-119.2075 415.212,-112.1827 404.6312,-112.7283 407.2809,-119.2075"/>
</a>
</g>
</g>
<!-- github.com/go&#45;i2p/go&#45;i2p/lib/config.init -->
<g id="node20" class="node">
<title>github.com/go&#45;i2p/go&#45;i2p/lib/config.init</title>
<g id="a_node20"><a xlink:title="github.com/go&#45;i2p/go&#45;i2p/lib/config.init | defined in .:0&#10;at netdb.go:15: calling [github.com/go&#45;i2p/go&#45;i2p/lib/config.defaultConfig]&#10;at router.go:32: calling [github.com/go&#45;i2p/go&#45;i2p/lib/config.defaultConfig]&#10;at router.go:39: calling [github.com/go&#45;i2p/go&#45;i2p/lib/config.DefaultRouterConfig]&#10;at router.go:31: calling [github.com/go&#45;i2p/go&#45;i2p/lib/config.defaultBase]&#10;at config.go:14: calling [github.com/go&#45;i2p/logger.GetGoI2PLogger]">
<path fill="#add8e6" stroke="#000000" stroke-width=".5" d="M72.1648,-110C72.1648,-110 42.1648,-110 42.1648,-110 36.1648,-110 30.1648,-104 30.1648,-98 30.1648,-98 30.1648,-86 30.1648,-86 30.1648,-80 36.1648,-74 42.1648,-74 42.1648,-74 72.1648,-74 72.1648,-74 78.1648,-74 84.1648,-80 84.1648,-86 84.1648,-86 84.1648,-98 84.1648,-98 84.1648,-104 78.1648,-110 72.1648,-110"/>
<text text-anchor="middle" x="57.1648" y="-87.8" font-family="Verdana" font-size="14.00" fill="#000000">init</text>
</a>
</g>
</g>
<!-- github.com/go&#45;i2p/go&#45;i2p/lib/config.init&#45;&gt;github.com/go&#45;i2p/go&#45;i2p/lib/config.DefaultRouterConfig -->
<g id="edge6" class="edge">
<title>github.com/go&#45;i2p/go&#45;i2p/lib/config.init&#45;&gt;github.com/go&#45;i2p/go&#45;i2p/lib/config.DefaultRouterConfig</title>
<g id="a_edge6"><a xlink:title="at router.go:39: calling [github.com/go&#45;i2p/go&#45;i2p/lib/config.DefaultRouterConfig]">
<path fill="none" stroke="#000000" d="M81.9294,-73.7955C104.0846,-58.7152 138.102,-38.4404 171.3296,-30 238.5028,-12.9369 317.4441,-15.6753 375.3375,-21.6917"/>
<polygon fill="#000000" stroke="#000000" points="375.2093,-25.1985 385.5308,-22.8073 375.9709,-18.2401 375.2093,-25.1985"/>
</a>
</g>
</g>
<!-- github.com/go&#45;i2p/logger.GetGoI2PLogger -->
<g id="node21" class="node">
<title>github.com/go&#45;i2p/logger.GetGoI2PLogger</title>
<g id="a_node21"><a xlink:title="github.com/go&#45;i2p/logger.GetGoI2PLogger | defined in log.go:120">
<path fill="#ffe4b5" stroke="#000000" stroke-width="1.5" d="M290.7274,-79C290.7274,-79 193.3484,-79 193.3484,-79 187.3484,-79 181.3484,-73 181.3484,-67 181.3484,-67 181.3484,-55 181.3484,-55 181.3484,-49 187.3484,-43 193.3484,-43 193.3484,-43 290.7274,-43 290.7274,-43 296.7274,-43 302.7274,-49 302.7274,-55 302.7274,-55 302.7274,-67 302.7274,-67 302.7274,-73 296.7274,-79 290.7274,-79"/>
<text text-anchor="middle" x="242.0379" y="-65.2" font-family="Verdana" font-size="14.00" fill="#000000">logger</text>
<text text-anchor="middle" x="242.0379" y="-48.4" font-family="Verdana" font-size="14.00" fill="#000000">GetGoI2PLogger</text>
</a>
</g>
</g>
<!-- github.com/go&#45;i2p/go&#45;i2p/lib/config.init&#45;&gt;github.com/go&#45;i2p/logger.GetGoI2PLogger -->
<g id="edge19" class="edge">
<title>github.com/go&#45;i2p/go&#45;i2p/lib/config.init&#45;&gt;github.com/go&#45;i2p/logger.GetGoI2PLogger</title>
<g id="a_edge19"><a xlink:title="at config.go:14: calling [github.com/go&#45;i2p/logger.GetGoI2PLogger]">
<path fill="none" stroke="#8b4513" d="M84.4435,-87.4258C107.2741,-83.5975 140.8943,-77.96 171.2242,-72.8742"/>
<polygon fill="#8b4513" stroke="#8b4513" points="172.0801,-76.2797 181.3635,-71.174 170.9224,-69.376 172.0801,-76.2797"/>
</a>
</g>
</g>
<!-- github.com/go&#45;i2p/go&#45;i2p/lib/config.defaultConfig -->
<g id="node22" class="node">
<title>github.com/go&#45;i2p/go&#45;i2p/lib/config.defaultConfig</title>
<g id="a_node22"><a xlink:title="github.com/go&#45;i2p/go&#45;i2p/lib/config.defaultConfig | defined in router.go:23&#10;at router.go:24: calling [github.com/go&#45;i2p/go&#45;i2p/lib/config.BuildI2PDirPath]">
<path fill="#add8e6" stroke="#000000" stroke-width=".5" d="M280.797,-140C280.797,-140 203.2788,-140 203.2788,-140 197.2788,-140 191.2788,-134 191.2788,-128 191.2788,-128 191.2788,-116 191.2788,-116 191.2788,-110 197.2788,-104 203.2788,-104 203.2788,-104 280.797,-104 280.797,-104 286.797,-104 292.797,-110 292.797,-116 292.797,-116 292.797,-128 292.797,-128 292.797,-134 286.797,-140 280.797,-140"/>
<text text-anchor="middle" x="242.0379" y="-117.8" font-family="Verdana" font-size="14.00" fill="#000000">defaultConfig</text>
</a>
</g>
</g>
<!-- github.com/go&#45;i2p/go&#45;i2p/lib/config.init&#45;&gt;github.com/go&#45;i2p/go&#45;i2p/lib/config.defaultConfig -->
<g id="edge5" class="edge">
<title>github.com/go&#45;i2p/go&#45;i2p/lib/config.init&#45;&gt;github.com/go&#45;i2p/go&#45;i2p/lib/config.defaultConfig</title>
<g id="a_edge5"><a xlink:title="at netdb.go:15: calling [github.com/go&#45;i2p/go&#45;i2p/lib/config.defaultConfig]&#10;at router.go:32: calling [github.com/go&#45;i2p/go&#45;i2p/lib/config.defaultConfig]">
<path fill="none" stroke="#000000" d="M84.4435,-96.4266C109.8392,-100.5477 148.5854,-106.8351 181.3029,-112.1443"/>
<polygon fill="#000000" stroke="#000000" points="180.81,-115.61 191.2416,-113.7571 181.9313,-108.7004 180.81,-115.61"/>
</a>
</g>
</g>
<!-- github.com/go&#45;i2p/go&#45;i2p/lib/config.defaultBase -->
<g id="node23" class="node">
<title>github.com/go&#45;i2p/go&#45;i2p/lib/config.defaultBase</title>
<g id="a_node23"><a xlink:title="github.com/go&#45;i2p/go&#45;i2p/lib/config.defaultBase | defined in router.go:19&#10;at router.go:20: calling [github.com/go&#45;i2p/go&#45;i2p/lib/config.BuildI2PDirPath]">
<path fill="#add8e6" stroke="#000000" stroke-width=".5" d="M275.1193,-262C275.1193,-262 208.9565,-262 208.9565,-262 202.9565,-262 196.9565,-256 196.9565,-250 196.9565,-250 196.9565,-238 196.9565,-238 196.9565,-232 202.9565,-226 208.9565,-226 208.9565,-226 275.1193,-226 275.1193,-226 281.1193,-226 287.1193,-232 287.1193,-238 287.1193,-238 287.1193,-250 287.1193,-250 287.1193,-256 281.1193,-262 275.1193,-262"/>
<text text-anchor="middle" x="242.0379" y="-239.8" font-family="Verdana" font-size="14.00" fill="#000000">defaultBase</text>
</a>
</g>
</g>
<!-- github.com/go&#45;i2p/go&#45;i2p/lib/config.init&#45;&gt;github.com/go&#45;i2p/go&#45;i2p/lib/config.defaultBase -->
<g id="edge18" class="edge">
<title>github.com/go&#45;i2p/go&#45;i2p/lib/config.init&#45;&gt;github.com/go&#45;i2p/go&#45;i2p/lib/config.defaultBase</title>
<g id="a_edge18"><a xlink:title="at router.go:31: calling [github.com/go&#45;i2p/go&#45;i2p/lib/config.defaultBase]">
<path fill="none" stroke="#000000" d="M70.3851,-110.4C89.9098,-136.4618 128.7674,-184.2581 171.3296,-214 176.4226,-217.5589 182.004,-220.8161 187.7273,-223.7636"/>
<polygon fill="#000000" stroke="#000000" points="186.261,-226.9422 196.788,-228.1391 189.3051,-220.6387 186.261,-226.9422"/>
</a>
</g>
</g>
<!-- github.com/go&#45;i2p/go&#45;i2p/lib/config.defaultConfig&#45;&gt;github.com/go&#45;i2p/go&#45;i2p/lib/config.BuildI2PDirPath -->
<g id="edge30" class="edge">
<title>github.com/go&#45;i2p/go&#45;i2p/lib/config.defaultConfig&#45;&gt;github.com/go&#45;i2p/go&#45;i2p/lib/config.BuildI2PDirPath</title>
<g id="a_edge30"><a xlink:title="at router.go:24: calling [github.com/go&#45;i2p/go&#45;i2p/lib/config.BuildI2PDirPath]">
<path fill="none" stroke="#000000" d="M293.0354,-130.0575C321.2866,-134.5212 356.8153,-140.1346 387.5917,-144.9972"/>
<polygon fill="#000000" stroke="#000000" points="387.4056,-148.5112 397.8293,-146.6148 388.498,-141.5969 387.4056,-148.5112"/>
</a>
</g>
</g>
<!-- github.com/go&#45;i2p/go&#45;i2p/lib/config.defaultBase&#45;&gt;github.com/go&#45;i2p/go&#45;i2p/lib/config.BuildI2PDirPath -->
<g id="edge22" class="edge">
<title>github.com/go&#45;i2p/go&#45;i2p/lib/config.defaultBase&#45;&gt;github.com/go&#45;i2p/go&#45;i2p/lib/config.BuildI2PDirPath</title>
<g id="a_edge22"><a xlink:title="at router.go:20: calling [github.com/go&#45;i2p/go&#45;i2p/lib/config.BuildI2PDirPath]">
<path fill="none" stroke="#000000" d="M287.2617,-228.1017C296.0666,-224.1112 304.9688,-219.3992 312.7462,-214 331.8569,-200.7329 328.3004,-187.0997 348.7462,-176 360.8001,-169.4561 374.6,-165.0083 388.2256,-161.996"/>
<polygon fill="#000000" stroke="#000000" points="388.9572,-165.4192 398.0889,-160.0468 387.6,-158.552 388.9572,-165.4192"/>
</a>
</g>
</g>
</g>
</svg>
