<?xml version="1.0" encoding="UTF-8" standalone="no"?>
<!DOCTYPE svg PUBLIC "-//W3C//DTD SVG 1.1//EN"
 "http://www.w3.org/Graphics/SVG/1.1/DTD/svg11.dtd">
<!-- Generated by graphviz version 2.40.1 (20161225.0304)
 -->
<!-- Title: gocallvis Pages: 1 -->
<svg width="357pt" height="609pt"
 viewBox="0.00 0.00 356.94 609.00" xmlns="http://www.w3.org/2000/svg" xmlns:xlink="http://www.w3.org/1999/xlink">
<g id="graph0" class="graph" transform="scale(1 1) rotate(0) translate(0 609)">
<title>gocallvis</title>
<polygon fill="#d3d3d3" stroke="transparent" points="0,0 0,-609 356.9356,-609 356.9356,0 0,0"/>
<g id="clust1" class="cluster">
<title>cluster_focus</title>
<polygon fill="#e6ecfa" stroke="#000000" stroke-width=".5" points="8,-8 8,-601 348.9356,-601 348.9356,-8 8,-8"/>
<text text-anchor="middle" x="178.4678" y="-580.8" font-family="Arial" font-size="18.00" fill="#000000">destination</text>
</g>
<g id="clust6" class="cluster">
<title>cluster_github.com/go&#45;i2p/go&#45;i2p/lib/common/destination.Destination</title>
<g id="a_clust6"><a xlink:title="type: github.com/go&#45;i2p/go&#45;i2p/lib/common/destination.Destination">
<path fill="#b0c4de" stroke="#000000" stroke-width=".5" d="M28,-295C28,-295 131.0814,-295 131.0814,-295 137.0814,-295 143.0814,-301 143.0814,-307 143.0814,-307 143.0814,-422 143.0814,-422 143.0814,-428 137.0814,-434 131.0814,-434 131.0814,-434 28,-434 28,-434 22,-434 16,-428 16,-422 16,-422 16,-307 16,-307 16,-301 22,-295 28,-295"/>
<text text-anchor="middle" x="79.5407" y="-303.5" font-family="Arial" font-size="15.00" fill="#222222">(Destination)</text>
</a>
</g>
</g>
<g id="clust5" class="cluster">
<title>cluster_*github.com/sirupsen/logrus.Logger</title>
<g id="a_clust5"><a xlink:title="type: *github.com/sirupsen/logrus.Logger">
<path fill="#eed8ae" stroke="#000000" stroke-width=".5" d="M249.4047,-121C249.4047,-121 303.7259,-121 303.7259,-121 309.7259,-121 315.7259,-127 315.7259,-133 315.7259,-133 315.7259,-187 315.7259,-187 315.7259,-193 309.7259,-199 303.7259,-199 303.7259,-199 249.4047,-199 249.4047,-199 243.4047,-199 237.4047,-193 237.4047,-187 237.4047,-187 237.4047,-133 237.4047,-133 237.4047,-127 243.4047,-121 249.4047,-121"/>
<text text-anchor="middle" x="276.5653" y="-129.5" font-family="Arial" font-size="15.00" fill="#222222">(*Logger)</text>
</a>
</g>
</g>
<g id="clust4" class="cluster">
<title>cluster_*github.com/go&#45;i2p/logger.Logger</title>
<g id="a_clust4"><a xlink:title="type: *github.com/go&#45;i2p/logger.Logger">
<path fill="#eed8ae" stroke="#000000" stroke-width=".5" d="M236.9559,-260C236.9559,-260 315.1747,-260 315.1747,-260 321.1747,-260 327.1747,-266 327.1747,-272 327.1747,-272 327.1747,-326 327.1747,-326 327.1747,-332 321.1747,-338 315.1747,-338 315.1747,-338 236.9559,-338 236.9559,-338 230.9559,-338 224.9559,-332 224.9559,-326 224.9559,-326 224.9559,-272 224.9559,-272 224.9559,-266 230.9559,-260 236.9559,-260"/>
<text text-anchor="middle" x="276.0653" y="-268.5" font-family="Arial" font-size="15.00" fill="#222222">(*Logger)</text>
</a>
</g>
</g>
<g id="clust3" class="cluster">
<title>cluster_*github.com/go&#45;i2p/go&#45;i2p/lib/common/keys_and_cert.KeysAndCert</title>
<g id="a_clust3"><a xlink:title="type: *github.com/go&#45;i2p/go&#45;i2p/lib/common/keys_and_cert.KeysAndCert">
<path fill="#eed8ae" stroke="#000000" stroke-width=".5" d="M227.6382,-432C227.6382,-432 324.4924,-432 324.4924,-432 330.4924,-432 336.4924,-438 336.4924,-444 336.4924,-444 336.4924,-498 336.4924,-498 336.4924,-504 330.4924,-510 324.4924,-510 324.4924,-510 227.6382,-510 227.6382,-510 221.6382,-510 215.6382,-504 215.6382,-498 215.6382,-498 215.6382,-444 215.6382,-444 215.6382,-438 221.6382,-432 227.6382,-432"/>
<text text-anchor="middle" x="276.0653" y="-440.5" font-family="Arial" font-size="15.00" fill="#222222">(*KeysAndCert)</text>
</a>
</g>
</g>
<g id="clust2" class="cluster">
<title>cluster_*github.com/go&#45;i2p/go&#45;i2p/lib/common/certificate.Certificate</title>
<g id="a_clust2"><a xlink:title="type: *github.com/go&#45;i2p/go&#45;i2p/lib/common/certificate.Certificate">
<path fill="#eed8ae" stroke="#000000" stroke-width=".5" d="M239.087,-346C239.087,-346 314.0436,-346 314.0436,-346 320.0436,-346 326.0436,-352 326.0436,-358 326.0436,-358 326.0436,-412 326.0436,-412 326.0436,-418 320.0436,-424 314.0436,-424 314.0436,-424 239.087,-424 239.087,-424 233.087,-424 227.087,-418 227.087,-412 227.087,-412 227.087,-358 227.087,-358 227.087,-352 233.087,-346 239.087,-346"/>
<text text-anchor="middle" x="276.5653" y="-354.5" font-family="Arial" font-size="15.00" fill="#222222">(*Certificate)</text>
</a>
</g>
</g>
<!-- github.com/go&#45;i2p/go&#45;i2p/lib/common/base64.EncodeToString -->
<g id="node1" class="node">
<title>github.com/go&#45;i2p/go&#45;i2p/lib/common/base64.EncodeToString</title>
<g id="a_node1"><a xlink:title="github.com/go&#45;i2p/go&#45;i2p/lib/common/base64.EncodeToString | defined in base64.go:16">
<path fill="#ffe4b5" stroke="#000000" stroke-width="1.5" d="M321.8244,-563C321.8244,-563 230.3062,-563 230.3062,-563 224.3062,-563 218.3062,-557 218.3062,-551 218.3062,-551 218.3062,-539 218.3062,-539 218.3062,-533 224.3062,-527 230.3062,-527 230.3062,-527 321.8244,-527 321.8244,-527 327.8244,-527 333.8244,-533 333.8244,-539 333.8244,-539 333.8244,-551 333.8244,-551 333.8244,-557 327.8244,-563 321.8244,-563"/>
<text text-anchor="middle" x="276.0653" y="-549.2" font-family="Verdana" font-size="14.00" fill="#000000">base64</text>
<text text-anchor="middle" x="276.0653" y="-532.4" font-family="Verdana" font-size="14.00" fill="#000000">EncodeToString</text>
</a>
</g>
</g>
<!-- github.com/go&#45;i2p/go&#45;i2p/lib/common/destination.init -->
<g id="node2" class="node">
<title>github.com/go&#45;i2p/go&#45;i2p/lib/common/destination.init</title>
<g id="a_node2"><a xlink:title="github.com/go&#45;i2p/go&#45;i2p/lib/common/destination.init | defined in .:0&#10;at destination.go:17: calling [github.com/go&#45;i2p/logger.GetGoI2PLogger]">
<path fill="#add8e6" stroke="#000000" stroke-width=".5" d="M94.5407,-52C94.5407,-52 64.5407,-52 64.5407,-52 58.5407,-52 52.5407,-46 52.5407,-40 52.5407,-40 52.5407,-28 52.5407,-28 52.5407,-22 58.5407,-16 64.5407,-16 64.5407,-16 94.5407,-16 94.5407,-16 100.5407,-16 106.5407,-22 106.5407,-28 106.5407,-28 106.5407,-40 106.5407,-40 106.5407,-46 100.5407,-52 94.5407,-52"/>
<text text-anchor="middle" x="79.5407" y="-29.8" font-family="Verdana" font-size="14.00" fill="#000000">init</text>
</a>
</g>
</g>
<!-- github.com/go&#45;i2p/logger.GetGoI2PLogger -->
<g id="node3" class="node">
<title>github.com/go&#45;i2p/logger.GetGoI2PLogger</title>
<g id="a_node3"><a xlink:title="github.com/go&#45;i2p/logger.GetGoI2PLogger | defined in log.go:120">
<path fill="#ffe4b5" stroke="#000000" stroke-width="1.5" d="M324.7548,-52C324.7548,-52 227.3758,-52 227.3758,-52 221.3758,-52 215.3758,-46 215.3758,-40 215.3758,-40 215.3758,-28 215.3758,-28 215.3758,-22 221.3758,-16 227.3758,-16 227.3758,-16 324.7548,-16 324.7548,-16 330.7548,-16 336.7548,-22 336.7548,-28 336.7548,-28 336.7548,-40 336.7548,-40 336.7548,-46 330.7548,-52 324.7548,-52"/>
<text text-anchor="middle" x="276.0653" y="-38.2" font-family="Verdana" font-size="14.00" fill="#000000">logger</text>
<text text-anchor="middle" x="276.0653" y="-21.4" font-family="Verdana" font-size="14.00" fill="#000000">GetGoI2PLogger</text>
</a>
</g>
</g>
<!-- github.com/go&#45;i2p/go&#45;i2p/lib/common/destination.init&#45;&gt;github.com/go&#45;i2p/logger.GetGoI2PLogger -->
<g id="edge14" class="edge">
<title>github.com/go&#45;i2p/go&#45;i2p/lib/common/destination.init&#45;&gt;github.com/go&#45;i2p/logger.GetGoI2PLogger</title>
<g id="a_edge14"><a xlink:title="at destination.go:17: calling [github.com/go&#45;i2p/logger.GetGoI2PLogger]">
<path fill="none" stroke="#8b4513" d="M106.8666,-34C132.1954,-34 170.9888,-34 205.043,-34"/>
<polygon fill="#8b4513" stroke="#8b4513" points="205.4392,-37.5001 215.4392,-34 205.4392,-30.5001 205.4392,-37.5001"/>
</a>
</g>
</g>
<!-- github.com/go&#45;i2p/go&#45;i2p/lib/common/base32.EncodeToString -->
<g id="node4" class="node">
<title>github.com/go&#45;i2p/go&#45;i2p/lib/common/base32.EncodeToString</title>
<g id="a_node4"><a xlink:title="github.com/go&#45;i2p/go&#45;i2p/lib/common/base32.EncodeToString | defined in base32.go:16">
<path fill="#ffe4b5" stroke="#000000" stroke-width="1.5" d="M321.8244,-252C321.8244,-252 230.3062,-252 230.3062,-252 224.3062,-252 218.3062,-246 218.3062,-240 218.3062,-240 218.3062,-228 218.3062,-228 218.3062,-222 224.3062,-216 230.3062,-216 230.3062,-216 321.8244,-216 321.8244,-216 327.8244,-216 333.8244,-222 333.8244,-228 333.8244,-228 333.8244,-240 333.8244,-240 333.8244,-246 327.8244,-252 321.8244,-252"/>
<text text-anchor="middle" x="276.0653" y="-238.2" font-family="Verdana" font-size="14.00" fill="#000000">base32</text>
<text text-anchor="middle" x="276.0653" y="-221.4" font-family="Verdana" font-size="14.00" fill="#000000">EncodeToString</text>
</a>
</g>
</g>
<!-- github.com/go&#45;i2p/go&#45;i2p/lib/common/destination.ReadDestination -->
<g id="node5" class="node">
<title>github.com/go&#45;i2p/go&#45;i2p/lib/common/destination.ReadDestination</title>
<g id="a_node5"><a xlink:title="github.com/go&#45;i2p/go&#45;i2p/lib/common/destination.ReadDestination | defined in destination.go:72&#10;at destination.go:77: calling [github.com/go&#45;i2p/go&#45;i2p/lib/common/keys_and_cert.ReadKeysAndCert]&#10;at destination.go:73: calling [(*github.com/go&#45;i2p/logger.Logger).WithFields]&#10;at destination.go:82: calling [(*github.com/go&#45;i2p/logger.Logger).WithFields]&#10;at destination.go:75: calling [(*github.com/sirupsen/logrus.Logger).Debug]&#10;at destination.go:84: calling [(*github.com/sirupsen/logrus.Logger).Debug]">
<path fill="#add8e6" stroke="#000000" stroke-width="1.5" d="M126.3497,-191C126.3497,-191 32.7317,-191 32.7317,-191 26.7317,-191 20.7317,-185 20.7317,-179 20.7317,-179 20.7317,-167 20.7317,-167 20.7317,-161 26.7317,-155 32.7317,-155 32.7317,-155 126.3497,-155 126.3497,-155 132.3497,-155 138.3497,-161 138.3497,-167 138.3497,-167 138.3497,-179 138.3497,-179 138.3497,-185 132.3497,-191 126.3497,-191"/>
<text text-anchor="middle" x="79.5407" y="-168.8" font-family="Verdana" font-size="14.00" fill="#000000">ReadDestination</text>
</a>
</g>
</g>
<!-- github.com/go&#45;i2p/go&#45;i2p/lib/common/keys_and_cert.ReadKeysAndCert -->
<g id="node6" class="node">
<title>github.com/go&#45;i2p/go&#45;i2p/lib/common/keys_and_cert.ReadKeysAndCert</title>
<g id="a_node6"><a xlink:title="github.com/go&#45;i2p/go&#45;i2p/lib/common/keys_and_cert.ReadKeysAndCert | defined in keys_and_cert.go:145">
<path fill="#ffe4b5" stroke="#000000" stroke-width="1.5" d="M328.8062,-113C328.8062,-113 223.3244,-113 223.3244,-113 217.3244,-113 211.3244,-107 211.3244,-101 211.3244,-101 211.3244,-89 211.3244,-89 211.3244,-83 217.3244,-77 223.3244,-77 223.3244,-77 328.8062,-77 328.8062,-77 334.8062,-77 340.8062,-83 340.8062,-89 340.8062,-89 340.8062,-101 340.8062,-101 340.8062,-107 334.8062,-113 328.8062,-113"/>
<text text-anchor="middle" x="276.0653" y="-99.2" font-family="Verdana" font-size="14.00" fill="#000000">keys_and_cert</text>
<text text-anchor="middle" x="276.0653" y="-82.4" font-family="Verdana" font-size="14.00" fill="#000000">ReadKeysAndCert</text>
</a>
</g>
</g>
<!-- github.com/go&#45;i2p/go&#45;i2p/lib/common/destination.ReadDestination&#45;&gt;github.com/go&#45;i2p/go&#45;i2p/lib/common/keys_and_cert.ReadKeysAndCert -->
<g id="edge3" class="edge">
<title>github.com/go&#45;i2p/go&#45;i2p/lib/common/destination.ReadDestination&#45;&gt;github.com/go&#45;i2p/go&#45;i2p/lib/common/keys_and_cert.ReadKeysAndCert</title>
<g id="a_edge3"><a xlink:title="at destination.go:77: calling [github.com/go&#45;i2p/go&#45;i2p/lib/common/keys_and_cert.ReadKeysAndCert]">
<path fill="none" stroke="#8b4513" d="M119.8466,-154.9251C145.7433,-143.5438 180.215,-128.8228 211.195,-117 211.5179,-116.8768 211.8418,-116.7535 212.1667,-116.6302"/>
<polygon fill="#8b4513" stroke="#8b4513" points="213.6372,-119.8181 221.8003,-113.0642 211.2071,-113.2534 213.6372,-119.8181"/>
</a>
</g>
</g>
<!-- (*github.com/go&#45;i2p/logger.Logger).WithFields -->
<g id="node9" class="node">
<title>(*github.com/go&#45;i2p/logger.Logger).WithFields</title>
<g id="a_node9"><a xlink:title="(*github.com/go&#45;i2p/logger.Logger).WithFields | defined in log.go:60">
<path fill="#ffe4b5" stroke="#000000" stroke-width="1.5" d="M307.2844,-330C307.2844,-330 244.8462,-330 244.8462,-330 238.8462,-330 232.8462,-324 232.8462,-318 232.8462,-318 232.8462,-306 232.8462,-306 232.8462,-300 238.8462,-294 244.8462,-294 244.8462,-294 307.2844,-294 307.2844,-294 313.2844,-294 319.2844,-300 319.2844,-306 319.2844,-306 319.2844,-318 319.2844,-318 319.2844,-324 313.2844,-330 307.2844,-330"/>
<text text-anchor="middle" x="276.0653" y="-316.2" font-family="Verdana" font-size="14.00" fill="#000000">logger</text>
<text text-anchor="middle" x="276.0653" y="-299.4" font-family="Verdana" font-size="14.00" fill="#000000">WithFields</text>
</a>
</g>
</g>
<!-- github.com/go&#45;i2p/go&#45;i2p/lib/common/destination.ReadDestination&#45;&gt;(*github.com/go&#45;i2p/logger.Logger).WithFields -->
<g id="edge10" class="edge">
<title>github.com/go&#45;i2p/go&#45;i2p/lib/common/destination.ReadDestination&#45;&gt;(*github.com/go&#45;i2p/logger.Logger).WithFields</title>
<g id="a_edge10"><a xlink:title="at destination.go:73: calling [(*github.com/go&#45;i2p/logger.Logger).WithFields]&#10;at destination.go:82: calling [(*github.com/go&#45;i2p/logger.Logger).WithFields]">
<path fill="none" stroke="#8b4513" d="M95.6552,-191.3454C118.8737,-216.761 164.144,-262.6371 211.195,-290 215.0581,-292.2466 219.1849,-294.3077 223.4146,-296.1894"/>
<polygon fill="#8b4513" stroke="#8b4513" points="222.196,-299.4724 232.7765,-300.0243 224.8495,-292.9948 222.196,-299.4724"/>
</a>
</g>
</g>
<!-- (*github.com/sirupsen/logrus.Logger).Debug -->
<g id="node10" class="node">
<title>(*github.com/sirupsen/logrus.Logger).Debug</title>
<g id="a_node10"><a xlink:title="(*github.com/sirupsen/logrus.Logger).Debug | defined in logger.go:221">
<path fill="#ffe4b5" stroke="#000000" stroke-width="1.5" d="M294.8873,-191C294.8873,-191 257.2433,-191 257.2433,-191 251.2433,-191 245.2433,-185 245.2433,-179 245.2433,-179 245.2433,-167 245.2433,-167 245.2433,-161 251.2433,-155 257.2433,-155 257.2433,-155 294.8873,-155 294.8873,-155 300.8873,-155 306.8873,-161 306.8873,-167 306.8873,-167 306.8873,-179 306.8873,-179 306.8873,-185 300.8873,-191 294.8873,-191"/>
<text text-anchor="middle" x="276.0653" y="-177.2" font-family="Verdana" font-size="14.00" fill="#000000">logrus</text>
<text text-anchor="middle" x="276.0653" y="-160.4" font-family="Verdana" font-size="14.00" fill="#000000">Debug</text>
</a>
</g>
</g>
<!-- github.com/go&#45;i2p/go&#45;i2p/lib/common/destination.ReadDestination&#45;&gt;(*github.com/sirupsen/logrus.Logger).Debug -->
<g id="edge11" class="edge">
<title>github.com/go&#45;i2p/go&#45;i2p/lib/common/destination.ReadDestination&#45;&gt;(*github.com/sirupsen/logrus.Logger).Debug</title>
<g id="a_edge11"><a xlink:title="at destination.go:75: calling [(*github.com/sirupsen/logrus.Logger).Debug]&#10;at destination.go:84: calling [(*github.com/sirupsen/logrus.Logger).Debug]">
<path fill="none" stroke="#8b4513" d="M138.2384,-173C169.429,-173 207.0043,-173 235.0381,-173"/>
<polygon fill="#8b4513" stroke="#8b4513" points="235.282,-176.5001 245.282,-173 235.2819,-169.5001 235.282,-176.5001"/>
</a>
</g>
</g>
<!-- (*github.com/go&#45;i2p/go&#45;i2p/lib/common/certificate.Certificate).Bytes -->
<g id="node7" class="node">
<title>(*github.com/go&#45;i2p/go&#45;i2p/lib/common/certificate.Certificate).Bytes</title>
<g id="a_node7"><a xlink:title="(*github.com/go&#45;i2p/go&#45;i2p/lib/common/certificate.Certificate).Bytes | defined in certificate.go:100">
<path fill="#ffe4b5" stroke="#000000" stroke-width="1.5" d="M304.0219,-416C304.0219,-416 248.1087,-416 248.1087,-416 242.1087,-416 236.1087,-410 236.1087,-404 236.1087,-404 236.1087,-392 236.1087,-392 236.1087,-386 242.1087,-380 248.1087,-380 248.1087,-380 304.0219,-380 304.0219,-380 310.0219,-380 316.0219,-386 316.0219,-392 316.0219,-392 316.0219,-404 316.0219,-404 316.0219,-410 310.0219,-416 304.0219,-416"/>
<text text-anchor="middle" x="276.0653" y="-402.2" font-family="Verdana" font-size="14.00" fill="#000000">certificate</text>
<text text-anchor="middle" x="276.0653" y="-385.4" font-family="Verdana" font-size="14.00" fill="#000000">Bytes</text>
</a>
</g>
</g>
<!-- (*github.com/go&#45;i2p/go&#45;i2p/lib/common/keys_and_cert.KeysAndCert).Certificate -->
<g id="node8" class="node">
<title>(*github.com/go&#45;i2p/go&#45;i2p/lib/common/keys_and_cert.KeysAndCert).Certificate</title>
<g id="a_node8"><a xlink:title="(*github.com/go&#45;i2p/go&#45;i2p/lib/common/keys_and_cert.KeysAndCert).Certificate | defined in keys_and_cert.go:139">
<path fill="#ffe4b5" stroke="#000000" stroke-width="1.5" d="M316.4196,-502C316.4196,-502 235.711,-502 235.711,-502 229.711,-502 223.711,-496 223.711,-490 223.711,-490 223.711,-478 223.711,-478 223.711,-472 229.711,-466 235.711,-466 235.711,-466 316.4196,-466 316.4196,-466 322.4196,-466 328.4196,-472 328.4196,-478 328.4196,-478 328.4196,-490 328.4196,-490 328.4196,-496 322.4196,-502 316.4196,-502"/>
<text text-anchor="middle" x="276.0653" y="-488.2" font-family="Verdana" font-size="14.00" fill="#000000">keys_and_cert</text>
<text text-anchor="middle" x="276.0653" y="-471.4" font-family="Verdana" font-size="14.00" fill="#000000">Certificate</text>
</a>
</g>
</g>
<!-- (github.com/go&#45;i2p/go&#45;i2p/lib/common/destination.Destination).Base64 -->
<g id="node11" class="node">
<title>(github.com/go&#45;i2p/go&#45;i2p/lib/common/destination.Destination).Base64</title>
<g id="a_node11"><a xlink:title="(github.com/go&#45;i2p/go&#45;i2p/lib/common/destination.Destination).Base64 | defined in destination.go:55&#10;at destination.go:56: calling [(*github.com/sirupsen/logrus.Logger).Debug]&#10;at destination.go:64: calling [(*github.com/sirupsen/logrus.Logger).Debug]&#10;at destination.go:58: calling [(*github.com/go&#45;i2p/go&#45;i2p/lib/common/keys_and_cert.KeysAndCert).Certificate]&#10;at destination.go:62: calling [(*github.com/go&#45;i2p/logger.Logger).WithFields]&#10;at destination.go:59: calling [(*github.com/go&#45;i2p/go&#45;i2p/lib/common/certificate.Certificate).Bytes]&#10;at destination.go:60: calling [github.com/go&#45;i2p/go&#45;i2p/lib/common/base64.EncodeToString]">
<path fill="#add8e6" stroke="#000000" stroke-width="1.5" d="M100.2514,-426C100.2514,-426 58.83,-426 58.83,-426 52.83,-426 46.83,-420 46.83,-414 46.83,-414 46.83,-402 46.83,-402 46.83,-396 52.83,-390 58.83,-390 58.83,-390 100.2514,-390 100.2514,-390 106.2514,-390 112.2514,-396 112.2514,-402 112.2514,-402 112.2514,-414 112.2514,-414 112.2514,-420 106.2514,-426 100.2514,-426"/>
<text text-anchor="middle" x="79.5407" y="-403.8" font-family="Verdana" font-size="14.00" fill="#000000">Base64</text>
</a>
</g>
</g>
<!-- (github.com/go&#45;i2p/go&#45;i2p/lib/common/destination.Destination).Base64&#45;&gt;github.com/go&#45;i2p/go&#45;i2p/lib/common/base64.EncodeToString -->
<g id="edge13" class="edge">
<title>(github.com/go&#45;i2p/go&#45;i2p/lib/common/destination.Destination).Base64&#45;&gt;github.com/go&#45;i2p/go&#45;i2p/lib/common/base64.EncodeToString</title>
<g id="a_edge13"><a xlink:title="at destination.go:60: calling [github.com/go&#45;i2p/go&#45;i2p/lib/common/base64.EncodeToString]">
<path fill="none" stroke="#8b4513" d="M98.3658,-426.2155C122.8623,-449.2395 167.6924,-489.1061 211.195,-516 214.7364,-518.1894 218.4716,-520.3055 222.2878,-522.3296"/>
<polygon fill="#8b4513" stroke="#8b4513" points="220.7827,-525.4905 231.2865,-526.8769 223.9399,-519.2429 220.7827,-525.4905"/>
</a>
</g>
</g>
<!-- (github.com/go&#45;i2p/go&#45;i2p/lib/common/destination.Destination).Base64&#45;&gt;(*github.com/go&#45;i2p/go&#45;i2p/lib/common/certificate.Certificate).Bytes -->
<g id="edge12" class="edge">
<title>(github.com/go&#45;i2p/go&#45;i2p/lib/common/destination.Destination).Base64&#45;&gt;(*github.com/go&#45;i2p/go&#45;i2p/lib/common/certificate.Certificate).Bytes</title>
<g id="a_edge12"><a xlink:title="at destination.go:59: calling [(*github.com/go&#45;i2p/go&#45;i2p/lib/common/certificate.Certificate).Bytes]">
<path fill="none" stroke="#8b4513" d="M112.1879,-418.8431C130.6228,-423.6963 154.1242,-427.7712 175.195,-425 192.0147,-422.7879 210.016,-418.5853 226.0877,-414.143"/>
<polygon fill="#8b4513" stroke="#8b4513" points="227.1646,-417.4754 235.8175,-411.3617 225.2406,-410.745 227.1646,-417.4754"/>
</a>
</g>
</g>
<!-- (github.com/go&#45;i2p/go&#45;i2p/lib/common/destination.Destination).Base64&#45;&gt;(*github.com/go&#45;i2p/go&#45;i2p/lib/common/keys_and_cert.KeysAndCert).Certificate -->
<g id="edge5" class="edge">
<title>(github.com/go&#45;i2p/go&#45;i2p/lib/common/destination.Destination).Base64&#45;&gt;(*github.com/go&#45;i2p/go&#45;i2p/lib/common/keys_and_cert.KeysAndCert).Certificate</title>
<g id="a_edge5"><a xlink:title="at destination.go:58: calling [(*github.com/go&#45;i2p/go&#45;i2p/lib/common/keys_and_cert.KeysAndCert).Certificate]">
<path fill="none" stroke="#8b4513" d="M112.4345,-420.7207C141.699,-432.0378 185.1203,-448.8298 219.8807,-462.2723"/>
<polygon fill="#8b4513" stroke="#8b4513" points="218.8469,-465.6251 229.4362,-465.9676 221.3718,-459.0963 218.8469,-465.6251"/>
</a>
</g>
</g>
<!-- (github.com/go&#45;i2p/go&#45;i2p/lib/common/destination.Destination).Base64&#45;&gt;(*github.com/go&#45;i2p/logger.Logger).WithFields -->
<g id="edge6" class="edge">
<title>(github.com/go&#45;i2p/go&#45;i2p/lib/common/destination.Destination).Base64&#45;&gt;(*github.com/go&#45;i2p/logger.Logger).WithFields</title>
<g id="a_edge6"><a xlink:title="at destination.go:62: calling [(*github.com/go&#45;i2p/logger.Logger).WithFields]">
<path fill="none" stroke="#8b4513" d="M112.4292,-411.4826C132.0464,-411.9602 156.6597,-409.6138 175.195,-398 200.9047,-381.8908 188.214,-359.8083 211.195,-340 215.0451,-336.6814 219.3484,-333.7036 223.8574,-331.0431"/>
<polygon fill="#8b4513" stroke="#8b4513" points="225.5446,-334.1099 232.7168,-326.3118 222.247,-327.9353 225.5446,-334.1099"/>
</a>
</g>
</g>
<!-- (github.com/go&#45;i2p/go&#45;i2p/lib/common/destination.Destination).Base64&#45;&gt;(*github.com/sirupsen/logrus.Logger).Debug -->
<g id="edge4" class="edge">
<title>(github.com/go&#45;i2p/go&#45;i2p/lib/common/destination.Destination).Base64&#45;&gt;(*github.com/sirupsen/logrus.Logger).Debug</title>
<g id="a_edge4"><a xlink:title="at destination.go:56: calling [(*github.com/sirupsen/logrus.Logger).Debug]&#10;at destination.go:64: calling [(*github.com/sirupsen/logrus.Logger).Debug]">
<path fill="none" stroke="#8b4513" d="M112.3758,-398.1648C123.3279,-393.5268 134.8287,-386.9839 143.0814,-378 201.7913,-314.0883 148.9351,-255.4587 211.195,-195 217.9616,-188.4291 226.762,-183.8181 235.6865,-180.5832"/>
<polygon fill="#8b4513" stroke="#8b4513" points="236.8188,-183.8965 245.3289,-177.5856 234.7406,-177.2121 236.8188,-183.8965"/>
</a>
</g>
</g>
<!-- (github.com/go&#45;i2p/go&#45;i2p/lib/common/destination.Destination).Base32Address -->
<g id="node12" class="node">
<title>(github.com/go&#45;i2p/go&#45;i2p/lib/common/destination.Destination).Base32Address</title>
<g id="a_node12"><a xlink:title="(github.com/go&#45;i2p/go&#45;i2p/lib/common/destination.Destination).Base32Address | defined in destination.go:38&#10;at destination.go:39: calling [(*github.com/sirupsen/logrus.Logger).Debug]&#10;at destination.go:49: calling [(*github.com/sirupsen/logrus.Logger).Debug]&#10;at destination.go:47: calling [(*github.com/go&#45;i2p/logger.Logger).WithFields]&#10;at destination.go:41: calling [(*github.com/go&#45;i2p/go&#45;i2p/lib/common/keys_and_cert.KeysAndCert).Certificate]&#10;at destination.go:42: calling [(*github.com/go&#45;i2p/go&#45;i2p/lib/common/certificate.Certificate).Bytes]&#10;at destination.go:44: calling [github.com/go&#45;i2p/go&#45;i2p/lib/common/base32.EncodeToString]">
<path fill="#add8e6" stroke="#000000" stroke-width="1.5" d="M123.1221,-365C123.1221,-365 35.9593,-365 35.9593,-365 29.9593,-365 23.9593,-359 23.9593,-353 23.9593,-353 23.9593,-341 23.9593,-341 23.9593,-335 29.9593,-329 35.9593,-329 35.9593,-329 123.1221,-329 123.1221,-329 129.1221,-329 135.1221,-335 135.1221,-341 135.1221,-341 135.1221,-353 135.1221,-353 135.1221,-359 129.1221,-365 123.1221,-365"/>
<text text-anchor="middle" x="79.5407" y="-342.8" font-family="Verdana" font-size="14.00" fill="#000000">Base32Address</text>
</a>
</g>
</g>
<!-- (github.com/go&#45;i2p/go&#45;i2p/lib/common/destination.Destination).Base32Address&#45;&gt;github.com/go&#45;i2p/go&#45;i2p/lib/common/base32.EncodeToString -->
<g id="edge9" class="edge">
<title>(github.com/go&#45;i2p/go&#45;i2p/lib/common/destination.Destination).Base32Address&#45;&gt;github.com/go&#45;i2p/go&#45;i2p/lib/common/base32.EncodeToString</title>
<g id="a_edge9"><a xlink:title="at destination.go:44: calling [github.com/go&#45;i2p/go&#45;i2p/lib/common/base32.EncodeToString]">
<path fill="none" stroke="#8b4513" d="M135.3517,-329.3908C138.0203,-328.0191 140.6127,-326.5566 143.0814,-325 176.9686,-303.632 175.1512,-282.1226 209.631,-257.6621"/>
<polygon fill="#8b4513" stroke="#8b4513" points="211.6947,-260.4935 218.1081,-252.0603 207.8355,-254.6534 211.6947,-260.4935"/>
</a>
</g>
</g>
<!-- (github.com/go&#45;i2p/go&#45;i2p/lib/common/destination.Destination).Base32Address&#45;&gt;(*github.com/go&#45;i2p/go&#45;i2p/lib/common/certificate.Certificate).Bytes -->
<g id="edge8" class="edge">
<title>(github.com/go&#45;i2p/go&#45;i2p/lib/common/destination.Destination).Base32Address&#45;&gt;(*github.com/go&#45;i2p/go&#45;i2p/lib/common/certificate.Certificate).Bytes</title>
<g id="a_edge8"><a xlink:title="at destination.go:42: calling [(*github.com/go&#45;i2p/go&#45;i2p/lib/common/certificate.Certificate).Bytes]">
<path fill="none" stroke="#8b4513" d="M135.1378,-350.1402C148.3907,-351.6214 162.3985,-353.799 175.195,-357 193.2842,-361.5249 212.4093,-368.65 229.0864,-375.6996"/>
<polygon fill="#8b4513" stroke="#8b4513" points="228.0292,-379.056 238.5963,-379.8214 230.8129,-372.6333 228.0292,-379.056"/>
</a>
</g>
</g>
<!-- (github.com/go&#45;i2p/go&#45;i2p/lib/common/destination.Destination).Base32Address&#45;&gt;(*github.com/go&#45;i2p/go&#45;i2p/lib/common/keys_and_cert.KeysAndCert).Certificate -->
<g id="edge7" class="edge">
<title>(github.com/go&#45;i2p/go&#45;i2p/lib/common/destination.Destination).Base32Address&#45;&gt;(*github.com/go&#45;i2p/go&#45;i2p/lib/common/keys_and_cert.KeysAndCert).Certificate</title>
<g id="a_edge7"><a xlink:title="at destination.go:41: calling [(*github.com/go&#45;i2p/go&#45;i2p/lib/common/keys_and_cert.KeysAndCert).Certificate]">
<path fill="none" stroke="#8b4513" d="M119.9234,-365.0468C127.7753,-369.014 135.8175,-373.4111 143.0814,-378 163.9636,-391.1922 214.3577,-432.4214 246.7655,-459.4025"/>
<polygon fill="#8b4513" stroke="#8b4513" points="244.6676,-462.2104 254.5883,-465.9293 249.1521,-456.8354 244.6676,-462.2104"/>
</a>
</g>
</g>
<!-- (github.com/go&#45;i2p/go&#45;i2p/lib/common/destination.Destination).Base32Address&#45;&gt;(*github.com/go&#45;i2p/logger.Logger).WithFields -->
<g id="edge2" class="edge">
<title>(github.com/go&#45;i2p/go&#45;i2p/lib/common/destination.Destination).Base32Address&#45;&gt;(*github.com/go&#45;i2p/logger.Logger).WithFields</title>
<g id="a_edge2"><a xlink:title="at destination.go:47: calling [(*github.com/go&#45;i2p/logger.Logger).WithFields]">
<path fill="none" stroke="#8b4513" d="M135.0927,-336.9958C147.9322,-334.6911 161.5384,-332.2547 174.195,-330 190.0047,-327.1835 207.1979,-324.1387 222.8796,-321.3685"/>
<polygon fill="#8b4513" stroke="#8b4513" points="223.6975,-324.7783 232.9366,-319.5929 222.4804,-317.8849 223.6975,-324.7783"/>
</a>
</g>
</g>
<!-- (github.com/go&#45;i2p/go&#45;i2p/lib/common/destination.Destination).Base32Address&#45;&gt;(*github.com/sirupsen/logrus.Logger).Debug -->
<g id="edge1" class="edge">
<title>(github.com/go&#45;i2p/go&#45;i2p/lib/common/destination.Destination).Base32Address&#45;&gt;(*github.com/sirupsen/logrus.Logger).Debug</title>
<g id="a_edge1"><a xlink:title="at destination.go:39: calling [(*github.com/sirupsen/logrus.Logger).Debug]&#10;at destination.go:49: calling [(*github.com/sirupsen/logrus.Logger).Debug]">
<path fill="none" stroke="#8b4513" d="M135.2387,-330.9936C138.0332,-329.2017 140.674,-327.2111 143.0814,-325 168.1559,-301.9697 158.3099,-285.1129 174.195,-255 188.8126,-227.2898 186.6888,-214.5186 211.195,-195 218.2916,-189.3477 226.9195,-185.1105 235.5357,-181.9469"/>
<polygon fill="#8b4513" stroke="#8b4513" points="236.7484,-185.2331 245.1766,-178.8131 234.5844,-178.5759 236.7484,-185.2331"/>
</a>
</g>
</g>
</g>
</svg>
