<?xml version="1.0" encoding="UTF-8" standalone="no"?>
<!DOCTYPE svg PUBLIC "-//W3C//DTD SVG 1.1//EN"
 "http://www.w3.org/Graphics/SVG/1.1/DTD/svg11.dtd">
<!-- Generated by graphviz version 2.40.1 (20161225.0304)
 -->
<!-- Title: gocallvis Pages: 1 -->
<svg width="546pt" height="712pt"
 viewBox="0.00 0.00 545.58 712.00" xmlns="http://www.w3.org/2000/svg" xmlns:xlink="http://www.w3.org/1999/xlink">
<g id="graph0" class="graph" transform="scale(1 1) rotate(0) translate(0 712)">
<title>gocallvis</title>
<polygon fill="#d3d3d3" stroke="transparent" points="0,0 0,-712 545.5752,-712 545.5752,0 0,0"/>
<g id="clust1" class="cluster">
<title>cluster_focus</title>
<polygon fill="#e6ecfa" stroke="#000000" stroke-width=".5" points="0,-8 0,-704 537.5752,-704 537.5752,-8 0,-8"/>
<text text-anchor="middle" x="268.7876" y="-683.8" font-family="Arial" font-size="18.00" fill="#000000">dsa</text>
</g>
<g id="clust7" class="cluster">
<title>cluster_github.com/go&#45;i2p/go&#45;i2p/lib/crypto/dsa.DSAPublicKey</title>
<g id="a_clust7"><a xlink:title="type: github.com/go&#45;i2p/go&#45;i2p/lib/crypto/dsa.DSAPublicKey">
<path fill="#b0c4de" stroke="#000000" stroke-width=".5" d="M23.1248,-583C23.1248,-583 121.8514,-583 121.8514,-583 127.8514,-583 133.8514,-589 133.8514,-595 133.8514,-595 133.8514,-649 133.8514,-649 133.8514,-655 127.8514,-661 121.8514,-661 121.8514,-661 23.1248,-661 23.1248,-661 17.1248,-661 11.1248,-655 11.1248,-649 11.1248,-649 11.1248,-595 11.1248,-595 11.1248,-589 17.1248,-583 23.1248,-583"/>
<text text-anchor="middle" x="72.4881" y="-591.5" font-family="Arial" font-size="15.00" fill="#222222">(DSAPublicKey)</text>
</a>
</g>
</g>
<g id="clust6" class="cluster">
<title>cluster_github.com/go&#45;i2p/go&#45;i2p/lib/crypto/dsa.DSAPrivateKey</title>
<g id="a_clust6"><a xlink:title="type: github.com/go&#45;i2p/go&#45;i2p/lib/crypto/dsa.DSAPrivateKey">
<path fill="#b0c4de" stroke="#000000" stroke-width=".5" d="M20,-356C20,-356 124.9762,-356 124.9762,-356 130.9762,-356 136.9762,-362 136.9762,-368 136.9762,-368 136.9762,-544 136.9762,-544 136.9762,-550 130.9762,-556 124.9762,-556 124.9762,-556 20,-556 20,-556 14,-556 8,-550 8,-544 8,-544 8,-368 8,-368 8,-362 14,-356 20,-356"/>
<text text-anchor="middle" x="72.4881" y="-364.5" font-family="Arial" font-size="15.00" fill="#222222">(DSAPrivateKey)</text>
</a>
</g>
</g>
<g id="clust5" class="cluster">
<title>cluster_*github.com/sirupsen/logrus.Logger</title>
<g id="a_clust5"><a xlink:title="type: *github.com/sirupsen/logrus.Logger">
<path fill="#eed8ae" stroke="#000000" stroke-width=".5" d="M451.8052,-478C451.8052,-478 506.1264,-478 506.1264,-478 512.1264,-478 518.1264,-484 518.1264,-490 518.1264,-490 518.1264,-544 518.1264,-544 518.1264,-550 512.1264,-556 506.1264,-556 506.1264,-556 451.8052,-556 451.8052,-556 445.8052,-556 439.8052,-550 439.8052,-544 439.8052,-544 439.8052,-490 439.8052,-490 439.8052,-484 445.8052,-478 451.8052,-478"/>
<text text-anchor="middle" x="478.9658" y="-486.5" font-family="Arial" font-size="15.00" fill="#222222">(*Logger)</text>
</a>
</g>
</g>
<g id="clust4" class="cluster">
<title>cluster_*github.com/go&#45;i2p/logger.Logger</title>
<g id="a_clust4"><a xlink:title="type: *github.com/go&#45;i2p/logger.Logger">
<path fill="#eed8ae" stroke="#000000" stroke-width=".5" d="M439.3564,-52C439.3564,-52 517.5752,-52 517.5752,-52 523.5752,-52 529.5752,-58 529.5752,-64 529.5752,-64 529.5752,-362 529.5752,-362 529.5752,-368 523.5752,-374 517.5752,-374 517.5752,-374 439.3564,-374 439.3564,-374 433.3564,-374 427.3564,-368 427.3564,-362 427.3564,-362 427.3564,-64 427.3564,-64 427.3564,-58 433.3564,-52 439.3564,-52"/>
<text text-anchor="middle" x="478.4658" y="-60.5" font-family="Arial" font-size="15.00" fill="#222222">(*Logger)</text>
</a>
</g>
</g>
<g id="clust3" class="cluster">
<title>cluster_*github.com/go&#45;i2p/go&#45;i2p/lib/crypto/dsa.DSAVerifier</title>
<g id="a_clust3"><a xlink:title="type: *github.com/go&#45;i2p/go&#45;i2p/lib/crypto/dsa.DSAVerifier">
<path fill="#b0c4de" stroke="#000000" stroke-width=".5" d="M46.2216,-185C46.2216,-185 330.7533,-185 330.7533,-185 336.7533,-185 342.7533,-191 342.7533,-197 342.7533,-197 342.7533,-251 342.7533,-251 342.7533,-257 336.7533,-263 330.7533,-263 330.7533,-263 46.2216,-263 46.2216,-263 40.2216,-263 34.2216,-257 34.2216,-251 34.2216,-251 34.2216,-197 34.2216,-197 34.2216,-191 40.2216,-185 46.2216,-185"/>
<text text-anchor="middle" x="188.4874" y="-193.5" font-family="Arial" font-size="15.00" fill="#222222">(*DSAVerifier)</text>
</a>
</g>
</g>
<g id="clust2" class="cluster">
<title>cluster_*github.com/go&#45;i2p/go&#45;i2p/lib/crypto/dsa.DSASigner</title>
<g id="a_clust2"><a xlink:title="type: *github.com/go&#45;i2p/go&#45;i2p/lib/crypto/dsa.DSASigner">
<path fill="#b0c4de" stroke="#000000" stroke-width=".5" d="M49.4881,-70C49.4881,-70 325.3234,-70 325.3234,-70 331.3234,-70 337.3234,-76 337.3234,-82 337.3234,-82 337.3234,-136 337.3234,-136 337.3234,-142 331.3234,-148 325.3234,-148 325.3234,-148 49.4881,-148 49.4881,-148 43.4881,-148 37.4881,-142 37.4881,-136 37.4881,-136 37.4881,-82 37.4881,-82 37.4881,-76 43.4881,-70 49.4881,-70"/>
<text text-anchor="middle" x="187.4058" y="-78.5" font-family="Arial" font-size="15.00" fill="#222222">(*DSASigner)</text>
</a>
</g>
</g>
<!-- github.com/go&#45;i2p/go&#45;i2p/lib/crypto/dsa.createDSAPrivkey -->
<g id="node1" class="node">
<title>github.com/go&#45;i2p/go&#45;i2p/lib/crypto/dsa.createDSAPrivkey</title>
<g id="a_node1"><a xlink:title="github.com/go&#45;i2p/go&#45;i2p/lib/crypto/dsa.createDSAPrivkey | defined in dsa.go:40&#10;at dsa.go:54: calling [(*github.com/go&#45;i2p/logger.Logger).Warn]&#10;at dsa.go:41: calling [(*github.com/sirupsen/logrus.Logger).Debug]&#10;at dsa.go:52: calling [(*github.com/sirupsen/logrus.Logger).Debug]">
<path fill="#add8e6" stroke="#000000" stroke-width=".5" d="M342.5577,-524C342.5577,-524 237.6501,-524 237.6501,-524 231.6501,-524 225.6501,-518 225.6501,-512 225.6501,-512 225.6501,-500 225.6501,-500 225.6501,-494 231.6501,-488 237.6501,-488 237.6501,-488 342.5577,-488 342.5577,-488 348.5577,-488 354.5577,-494 354.5577,-500 354.5577,-500 354.5577,-512 354.5577,-512 354.5577,-518 348.5577,-524 342.5577,-524"/>
<text text-anchor="middle" x="290.1039" y="-501.8" font-family="Verdana" font-size="14.00" fill="#000000">createDSAPrivkey</text>
</a>
</g>
</g>
<!-- (*github.com/go&#45;i2p/logger.Logger).Warn -->
<g id="node10" class="node">
<title>(*github.com/go&#45;i2p/logger.Logger).Warn</title>
<g id="a_node10"><a xlink:title="(*github.com/go&#45;i2p/logger.Logger).Warn | defined in log.go:30">
<path fill="#ffe4b5" stroke="#000000" stroke-width="1.5" d="M496.2321,-366C496.2321,-366 460.6995,-366 460.6995,-366 454.6995,-366 448.6995,-360 448.6995,-354 448.6995,-354 448.6995,-342 448.6995,-342 448.6995,-336 454.6995,-330 460.6995,-330 460.6995,-330 496.2321,-330 496.2321,-330 502.2321,-330 508.2321,-336 508.2321,-342 508.2321,-342 508.2321,-354 508.2321,-354 508.2321,-360 502.2321,-366 496.2321,-366"/>
<text text-anchor="middle" x="478.4658" y="-352.2" font-family="Verdana" font-size="14.00" fill="#000000">logger</text>
<text text-anchor="middle" x="478.4658" y="-335.4" font-family="Verdana" font-size="14.00" fill="#000000">Warn</text>
</a>
</g>
</g>
<!-- github.com/go&#45;i2p/go&#45;i2p/lib/crypto/dsa.createDSAPrivkey&#45;&gt;(*github.com/go&#45;i2p/logger.Logger).Warn -->
<g id="edge26" class="edge">
<title>github.com/go&#45;i2p/go&#45;i2p/lib/crypto/dsa.createDSAPrivkey&#45;&gt;(*github.com/go&#45;i2p/logger.Logger).Warn</title>
<g id="a_edge26"><a xlink:title="at dsa.go:54: calling [(*github.com/go&#45;i2p/logger.Logger).Warn]">
<path fill="none" stroke="#8b4513" d="M354.749,-501.5034C370.4207,-498.0554 386.3799,-492.3449 399.3564,-483 436.194,-456.4718 458.6479,-407.0524 469.7997,-375.9312"/>
<polygon fill="#8b4513" stroke="#8b4513" points="473.2247,-376.7326 473.1528,-366.138 466.6022,-374.4651 473.2247,-376.7326"/>
</a>
</g>
</g>
<!-- (*github.com/sirupsen/logrus.Logger).Debug -->
<g id="node15" class="node">
<title>(*github.com/sirupsen/logrus.Logger).Debug</title>
<g id="a_node15"><a xlink:title="(*github.com/sirupsen/logrus.Logger).Debug | defined in logger.go:221">
<path fill="#ffe4b5" stroke="#000000" stroke-width="1.5" d="M497.2878,-548C497.2878,-548 459.6438,-548 459.6438,-548 453.6438,-548 447.6438,-542 447.6438,-536 447.6438,-536 447.6438,-524 447.6438,-524 447.6438,-518 453.6438,-512 459.6438,-512 459.6438,-512 497.2878,-512 497.2878,-512 503.2878,-512 509.2878,-518 509.2878,-524 509.2878,-524 509.2878,-536 509.2878,-536 509.2878,-542 503.2878,-548 497.2878,-548"/>
<text text-anchor="middle" x="478.4658" y="-534.2" font-family="Verdana" font-size="14.00" fill="#000000">logrus</text>
<text text-anchor="middle" x="478.4658" y="-517.4" font-family="Verdana" font-size="14.00" fill="#000000">Debug</text>
</a>
</g>
</g>
<!-- github.com/go&#45;i2p/go&#45;i2p/lib/crypto/dsa.createDSAPrivkey&#45;&gt;(*github.com/sirupsen/logrus.Logger).Debug -->
<g id="edge31" class="edge">
<title>github.com/go&#45;i2p/go&#45;i2p/lib/crypto/dsa.createDSAPrivkey&#45;&gt;(*github.com/sirupsen/logrus.Logger).Debug</title>
<g id="a_edge31"><a xlink:title="at dsa.go:41: calling [(*github.com/sirupsen/logrus.Logger).Debug]&#10;at dsa.go:52: calling [(*github.com/sirupsen/logrus.Logger).Debug]">
<path fill="none" stroke="#8b4513" d="M330.3434,-524.0213C350.6616,-531.4093 375.9169,-538.035 399.3564,-537 411.8396,-536.4488 425.3984,-535.4106 437.707,-534.2993"/>
<polygon fill="#8b4513" stroke="#8b4513" points="438.0736,-537.7804 447.7011,-533.3577 437.4169,-530.8112 438.0736,-537.7804"/>
</a>
</g>
</g>
<!-- github.com/go&#45;i2p/go&#45;i2p/lib/crypto/dsa.init -->
<g id="node2" class="node">
<title>github.com/go&#45;i2p/go&#45;i2p/lib/crypto/dsa.init</title>
<g id="a_node2"><a xlink:title="github.com/go&#45;i2p/go&#45;i2p/lib/crypto/dsa.init | defined in .:0&#10;at dsa.go:11: calling [github.com/go&#45;i2p/logger.GetGoI2PLogger]">
<path fill="#add8e6" stroke="#000000" stroke-width=".5" d="M87.4881,-52C87.4881,-52 57.4881,-52 57.4881,-52 51.4881,-52 45.4881,-46 45.4881,-40 45.4881,-40 45.4881,-28 45.4881,-28 45.4881,-22 51.4881,-16 57.4881,-16 57.4881,-16 87.4881,-16 87.4881,-16 93.4881,-16 99.4881,-22 99.4881,-28 99.4881,-28 99.4881,-40 99.4881,-40 99.4881,-46 93.4881,-52 87.4881,-52"/>
<text text-anchor="middle" x="72.4881" y="-29.8" font-family="Verdana" font-size="14.00" fill="#000000">init</text>
</a>
</g>
</g>
<!-- github.com/go&#45;i2p/logger.GetGoI2PLogger -->
<g id="node3" class="node">
<title>github.com/go&#45;i2p/logger.GetGoI2PLogger</title>
<g id="a_node3"><a xlink:title="github.com/go&#45;i2p/logger.GetGoI2PLogger | defined in log.go:120">
<path fill="#ffe4b5" stroke="#000000" stroke-width="1.5" d="M338.7934,-52C338.7934,-52 241.4144,-52 241.4144,-52 235.4144,-52 229.4144,-46 229.4144,-40 229.4144,-40 229.4144,-28 229.4144,-28 229.4144,-22 235.4144,-16 241.4144,-16 241.4144,-16 338.7934,-16 338.7934,-16 344.7934,-16 350.7934,-22 350.7934,-28 350.7934,-28 350.7934,-40 350.7934,-40 350.7934,-46 344.7934,-52 338.7934,-52"/>
<text text-anchor="middle" x="290.1039" y="-38.2" font-family="Verdana" font-size="14.00" fill="#000000">logger</text>
<text text-anchor="middle" x="290.1039" y="-21.4" font-family="Verdana" font-size="14.00" fill="#000000">GetGoI2PLogger</text>
</a>
</g>
</g>
<!-- github.com/go&#45;i2p/go&#45;i2p/lib/crypto/dsa.init&#45;&gt;github.com/go&#45;i2p/logger.GetGoI2PLogger -->
<g id="edge1" class="edge">
<title>github.com/go&#45;i2p/go&#45;i2p/lib/crypto/dsa.init&#45;&gt;github.com/go&#45;i2p/logger.GetGoI2PLogger</title>
<g id="a_edge1"><a xlink:title="at dsa.go:11: calling [github.com/go&#45;i2p/logger.GetGoI2PLogger]">
<path fill="none" stroke="#8b4513" d="M99.6093,-34C129.3344,-34 178.2272,-34 219.0358,-34"/>
<polygon fill="#8b4513" stroke="#8b4513" points="219.2202,-37.5001 229.2201,-34 219.2201,-30.5001 219.2202,-37.5001"/>
</a>
</g>
</g>
<!-- github.com/go&#45;i2p/go&#45;i2p/lib/crypto/dsa.createDSAPublicKey -->
<g id="node4" class="node">
<title>github.com/go&#45;i2p/go&#45;i2p/lib/crypto/dsa.createDSAPublicKey</title>
<g id="a_node4"><a xlink:title="github.com/go&#45;i2p/go&#45;i2p/lib/crypto/dsa.createDSAPublicKey | defined in dsa.go:31&#10;at dsa.go:32: calling [(*github.com/sirupsen/logrus.Logger).Debug]">
<path fill="#add8e6" stroke="#000000" stroke-width=".5" d="M350.1097,-639C350.1097,-639 230.0981,-639 230.0981,-639 224.0981,-639 218.0981,-633 218.0981,-627 218.0981,-627 218.0981,-615 218.0981,-615 218.0981,-609 224.0981,-603 230.0981,-603 230.0981,-603 350.1097,-603 350.1097,-603 356.1097,-603 362.1097,-609 362.1097,-615 362.1097,-615 362.1097,-627 362.1097,-627 362.1097,-633 356.1097,-639 350.1097,-639"/>
<text text-anchor="middle" x="290.1039" y="-616.8" font-family="Verdana" font-size="14.00" fill="#000000">createDSAPublicKey</text>
</a>
</g>
</g>
<!-- github.com/go&#45;i2p/go&#45;i2p/lib/crypto/dsa.createDSAPublicKey&#45;&gt;(*github.com/sirupsen/logrus.Logger).Debug -->
<g id="edge28" class="edge">
<title>github.com/go&#45;i2p/go&#45;i2p/lib/crypto/dsa.createDSAPublicKey&#45;&gt;(*github.com/sirupsen/logrus.Logger).Debug</title>
<g id="a_edge28"><a xlink:title="at dsa.go:32: calling [(*github.com/sirupsen/logrus.Logger).Debug]">
<path fill="none" stroke="#8b4513" d="M362.2421,-627.2055C375.0276,-626.0408 387.9028,-623.2945 399.3564,-618 427.0948,-605.1777 449.3074,-577.5453 463.0507,-556.643"/>
<polygon fill="#8b4513" stroke="#8b4513" points="466.0284,-558.4826 468.4135,-548.1596 460.1116,-554.7421 466.0284,-558.4826"/>
</a>
</g>
</g>
<!-- github.com/go&#45;i2p/go&#45;i2p/lib/crypto/dsa.generateDSA -->
<g id="node5" class="node">
<title>github.com/go&#45;i2p/go&#45;i2p/lib/crypto/dsa.generateDSA</title>
<g id="a_node5"><a xlink:title="github.com/go&#45;i2p/go&#45;i2p/lib/crypto/dsa.generateDSA | defined in dsa.go:14&#10;at dsa.go:15: calling [(*github.com/sirupsen/logrus.Logger).Debug]&#10;at dsa.go:25: calling [(*github.com/sirupsen/logrus.Logger).Debug]&#10;at dsa.go:23: calling [(*github.com/go&#45;i2p/logger.Logger).WithError]&#10;at dsa.go:23: calling [(*github.com/go&#45;i2p/logger.Logger).Error]">
<path fill="#add8e6" stroke="#000000" stroke-width=".5" d="M328.0101,-382C328.0101,-382 252.1977,-382 252.1977,-382 246.1977,-382 240.1977,-376 240.1977,-370 240.1977,-370 240.1977,-358 240.1977,-358 240.1977,-352 246.1977,-346 252.1977,-346 252.1977,-346 328.0101,-346 328.0101,-346 334.0101,-346 340.0101,-352 340.0101,-358 340.0101,-358 340.0101,-370 340.0101,-370 340.0101,-376 334.0101,-382 328.0101,-382"/>
<text text-anchor="middle" x="290.1039" y="-359.8" font-family="Verdana" font-size="14.00" fill="#000000">generateDSA</text>
</a>
</g>
</g>
<!-- (*github.com/go&#45;i2p/logger.Logger).Error -->
<g id="node11" class="node">
<title>(*github.com/go&#45;i2p/logger.Logger).Error</title>
<g id="a_node11"><a xlink:title="(*github.com/go&#45;i2p/logger.Logger).Error | defined in log.go:42">
<path fill="#ffe4b5" stroke="#000000" stroke-width="1.5" d="M496.2321,-305C496.2321,-305 460.6995,-305 460.6995,-305 454.6995,-305 448.6995,-299 448.6995,-293 448.6995,-293 448.6995,-281 448.6995,-281 448.6995,-275 454.6995,-269 460.6995,-269 460.6995,-269 496.2321,-269 496.2321,-269 502.2321,-269 508.2321,-275 508.2321,-281 508.2321,-281 508.2321,-293 508.2321,-293 508.2321,-299 502.2321,-305 496.2321,-305"/>
<text text-anchor="middle" x="478.4658" y="-291.2" font-family="Verdana" font-size="14.00" fill="#000000">logger</text>
<text text-anchor="middle" x="478.4658" y="-274.4" font-family="Verdana" font-size="14.00" fill="#000000">Error</text>
</a>
</g>
</g>
<!-- github.com/go&#45;i2p/go&#45;i2p/lib/crypto/dsa.generateDSA&#45;&gt;(*github.com/go&#45;i2p/logger.Logger).Error -->
<g id="edge21" class="edge">
<title>github.com/go&#45;i2p/go&#45;i2p/lib/crypto/dsa.generateDSA&#45;&gt;(*github.com/go&#45;i2p/logger.Logger).Error</title>
<g id="a_edge21"><a xlink:title="at dsa.go:23: calling [(*github.com/go&#45;i2p/logger.Logger).Error]">
<path fill="none" stroke="#8b4513" d="M339.8622,-363.6977C359.3269,-361.8361 381.2727,-357.4754 399.3564,-348 415.5115,-339.5351 413.2039,-329.5042 427.3564,-318 431.3312,-314.769 435.6733,-311.6314 440.0933,-308.6714"/>
<polygon fill="#8b4513" stroke="#8b4513" points="442.076,-311.558 448.613,-303.2202 438.3033,-305.6617 442.076,-311.558"/>
</a>
</g>
</g>
<!-- (*github.com/go&#45;i2p/logger.Logger).WithError -->
<g id="node13" class="node">
<title>(*github.com/go&#45;i2p/logger.Logger).WithError</title>
<g id="a_node13"><a xlink:title="(*github.com/go&#45;i2p/logger.Logger).WithError | defined in log.go:66">
<path fill="#ffe4b5" stroke="#000000" stroke-width="1.5" d="M506.9973,-244C506.9973,-244 449.9343,-244 449.9343,-244 443.9343,-244 437.9343,-238 437.9343,-232 437.9343,-232 437.9343,-220 437.9343,-220 437.9343,-214 443.9343,-208 449.9343,-208 449.9343,-208 506.9973,-208 506.9973,-208 512.9973,-208 518.9973,-214 518.9973,-220 518.9973,-220 518.9973,-232 518.9973,-232 518.9973,-238 512.9973,-244 506.9973,-244"/>
<text text-anchor="middle" x="478.4658" y="-230.2" font-family="Verdana" font-size="14.00" fill="#000000">logger</text>
<text text-anchor="middle" x="478.4658" y="-213.4" font-family="Verdana" font-size="14.00" fill="#000000">WithError</text>
</a>
</g>
</g>
<!-- github.com/go&#45;i2p/go&#45;i2p/lib/crypto/dsa.generateDSA&#45;&gt;(*github.com/go&#45;i2p/logger.Logger).WithError -->
<g id="edge6" class="edge">
<title>github.com/go&#45;i2p/go&#45;i2p/lib/crypto/dsa.generateDSA&#45;&gt;(*github.com/go&#45;i2p/logger.Logger).WithError</title>
<g id="a_edge6"><a xlink:title="at dsa.go:23: calling [(*github.com/go&#45;i2p/logger.Logger).WithError]">
<path fill="none" stroke="#8b4513" d="M339.865,-353.3491C360.3566,-346.8654 383.0607,-336.6966 399.3564,-321 421.7175,-299.4609 406.9076,-280.3623 427.3564,-257 429.3429,-254.7305 431.537,-252.5768 433.866,-250.5418"/>
<polygon fill="#8b4513" stroke="#8b4513" points="436.4381,-252.9766 442.1988,-244.0846 432.1504,-247.4434 436.4381,-252.9766"/>
</a>
</g>
</g>
<!-- github.com/go&#45;i2p/go&#45;i2p/lib/crypto/dsa.generateDSA&#45;&gt;(*github.com/sirupsen/logrus.Logger).Debug -->
<g id="edge5" class="edge">
<title>github.com/go&#45;i2p/go&#45;i2p/lib/crypto/dsa.generateDSA&#45;&gt;(*github.com/sirupsen/logrus.Logger).Debug</title>
<g id="a_edge5"><a xlink:title="at dsa.go:15: calling [(*github.com/sirupsen/logrus.Logger).Debug]&#10;at dsa.go:25: calling [(*github.com/sirupsen/logrus.Logger).Debug]">
<path fill="none" stroke="#8b4513" d="M310.6205,-382.0809C344.4474,-411.892 411.9816,-471.4086 450.2706,-505.1521"/>
<polygon fill="#8b4513" stroke="#8b4513" points="448.158,-507.9555 457.9745,-511.9414 452.7862,-502.7038 448.158,-507.9555"/>
</a>
</g>
</g>
<!-- (*github.com/go&#45;i2p/go&#45;i2p/lib/crypto/dsa.DSASigner).Sign -->
<g id="node6" class="node">
<title>(*github.com/go&#45;i2p/go&#45;i2p/lib/crypto/dsa.DSASigner).Sign</title>
<g id="a_node6"><a xlink:title="(*github.com/go&#45;i2p/go&#45;i2p/lib/crypto/dsa.DSASigner).Sign | defined in dsa_signer.go:14&#10;at dsa_signer.go:15: calling [(*github.com/sirupsen/logrus.Logger).Debug]&#10;at dsa_signer.go:17: calling [(*github.com/go&#45;i2p/go&#45;i2p/lib/crypto/dsa.DSASigner).SignHash]&#10;at dsa_signer.go:15: calling [(*github.com/go&#45;i2p/logger.Logger).WithField]">
<path fill="#add8e6" stroke="#000000" stroke-width="1.5" d="M87.4881,-140C87.4881,-140 57.4881,-140 57.4881,-140 51.4881,-140 45.4881,-134 45.4881,-128 45.4881,-128 45.4881,-116 45.4881,-116 45.4881,-110 51.4881,-104 57.4881,-104 57.4881,-104 87.4881,-104 87.4881,-104 93.4881,-104 99.4881,-110 99.4881,-116 99.4881,-116 99.4881,-128 99.4881,-128 99.4881,-134 93.4881,-140 87.4881,-140"/>
<text text-anchor="middle" x="72.4881" y="-117.8" font-family="Verdana" font-size="14.00" fill="#000000">Sign</text>
</a>
</g>
</g>
<!-- (*github.com/go&#45;i2p/go&#45;i2p/lib/crypto/dsa.DSASigner).SignHash -->
<g id="node7" class="node">
<title>(*github.com/go&#45;i2p/go&#45;i2p/lib/crypto/dsa.DSASigner).SignHash</title>
<g id="a_node7"><a xlink:title="(*github.com/go&#45;i2p/go&#45;i2p/lib/crypto/dsa.DSASigner).SignHash | defined in dsa_signer.go:21&#10;at dsa_signer.go:35: calling [(*github.com/go&#45;i2p/logger.Logger).Error]&#10;at dsa_signer.go:35: calling [(*github.com/go&#45;i2p/logger.Logger).WithError]&#10;at dsa_signer.go:22: calling [(*github.com/sirupsen/logrus.Logger).Debug]&#10;at dsa_signer.go:33: calling [(*github.com/sirupsen/logrus.Logger).Debug]&#10;at dsa_signer.go:22: calling [(*github.com/go&#45;i2p/logger.Logger).WithField]&#10;at dsa_signer.go:33: calling [(*github.com/go&#45;i2p/logger.Logger).WithField]">
<path fill="#add8e6" stroke="#000000" stroke-width="1.5" d="M317.5441,-140C317.5441,-140 262.6637,-140 262.6637,-140 256.6637,-140 250.6637,-134 250.6637,-128 250.6637,-128 250.6637,-116 250.6637,-116 250.6637,-110 256.6637,-104 262.6637,-104 262.6637,-104 317.5441,-104 317.5441,-104 323.5441,-104 329.5441,-110 329.5441,-116 329.5441,-116 329.5441,-128 329.5441,-128 329.5441,-134 323.5441,-140 317.5441,-140"/>
<text text-anchor="middle" x="290.1039" y="-117.8" font-family="Verdana" font-size="14.00" fill="#000000">SignHash</text>
</a>
</g>
</g>
<!-- (*github.com/go&#45;i2p/go&#45;i2p/lib/crypto/dsa.DSASigner).Sign&#45;&gt;(*github.com/go&#45;i2p/go&#45;i2p/lib/crypto/dsa.DSASigner).SignHash -->
<g id="edge13" class="edge">
<title>(*github.com/go&#45;i2p/go&#45;i2p/lib/crypto/dsa.DSASigner).Sign&#45;&gt;(*github.com/go&#45;i2p/go&#45;i2p/lib/crypto/dsa.DSASigner).SignHash</title>
<g id="a_edge13"><a xlink:title="at dsa_signer.go:17: calling [(*github.com/go&#45;i2p/go&#45;i2p/lib/crypto/dsa.DSASigner).SignHash]">
<path fill="none" stroke="#000000" d="M99.6093,-122C134.8399,-122 196.9958,-122 240.7056,-122"/>
<polygon fill="#000000" stroke="#000000" points="240.8391,-125.5001 250.8391,-122 240.839,-118.5001 240.8391,-125.5001"/>
</a>
</g>
</g>
<!-- (*github.com/go&#45;i2p/logger.Logger).WithField -->
<g id="node14" class="node">
<title>(*github.com/go&#45;i2p/logger.Logger).WithField</title>
<g id="a_node14"><a xlink:title="(*github.com/go&#45;i2p/logger.Logger).WithField | defined in log.go:54">
<path fill="#ffe4b5" stroke="#000000" stroke-width="1.5" d="M506.7403,-122C506.7403,-122 450.1913,-122 450.1913,-122 444.1913,-122 438.1913,-116 438.1913,-110 438.1913,-110 438.1913,-98 438.1913,-98 438.1913,-92 444.1913,-86 450.1913,-86 450.1913,-86 506.7403,-86 506.7403,-86 512.7403,-86 518.7403,-92 518.7403,-98 518.7403,-98 518.7403,-110 518.7403,-110 518.7403,-116 512.7403,-122 506.7403,-122"/>
<text text-anchor="middle" x="478.4658" y="-108.2" font-family="Verdana" font-size="14.00" fill="#000000">logger</text>
<text text-anchor="middle" x="478.4658" y="-91.4" font-family="Verdana" font-size="14.00" fill="#000000">WithField</text>
</a>
</g>
</g>
<!-- (*github.com/go&#45;i2p/go&#45;i2p/lib/crypto/dsa.DSASigner).Sign&#45;&gt;(*github.com/go&#45;i2p/logger.Logger).WithField -->
<g id="edge18" class="edge">
<title>(*github.com/go&#45;i2p/go&#45;i2p/lib/crypto/dsa.DSASigner).Sign&#45;&gt;(*github.com/go&#45;i2p/logger.Logger).WithField</title>
<g id="a_edge18"><a xlink:title="at dsa_signer.go:15: calling [(*github.com/go&#45;i2p/logger.Logger).WithField]">
<path fill="none" stroke="#8b4513" d="M99.7039,-115.7654C128.8272,-109.2389 176.4339,-98.9872 217.8514,-92 281.7261,-81.2243 299.8026,-89.8258 362.3564,-73 379.0948,-68.4977 381.3597,-61.3993 398.3564,-58 418.9234,-53.8866 439.3836,-65.9812 454.4786,-78.7971"/>
<polygon fill="#8b4513" stroke="#8b4513" points="452.5267,-81.753 462.2793,-85.8929 457.237,-76.5748 452.5267,-81.753"/>
</a>
</g>
</g>
<!-- (*github.com/go&#45;i2p/go&#45;i2p/lib/crypto/dsa.DSASigner).Sign&#45;&gt;(*github.com/sirupsen/logrus.Logger).Debug -->
<g id="edge7" class="edge">
<title>(*github.com/go&#45;i2p/go&#45;i2p/lib/crypto/dsa.DSASigner).Sign&#45;&gt;(*github.com/sirupsen/logrus.Logger).Debug</title>
<g id="a_edge7"><a xlink:title="at dsa_signer.go:15: calling [(*github.com/sirupsen/logrus.Logger).Debug]">
<path fill="none" stroke="#8b4513" d="M99.4938,-128.0303C128.641,-134.4753 176.4535,-144.8637 217.8514,-153 281.8822,-165.5846 313.2118,-136.0684 362.3564,-179 433.0644,-240.7689 397.7706,-290.8951 427.3564,-380 441.4707,-422.5086 458.3035,-471.616 468.6888,-501.7369"/>
<polygon fill="#8b4513" stroke="#8b4513" points="465.5071,-503.2464 472.0782,-511.5573 472.1241,-500.9626 465.5071,-503.2464"/>
</a>
</g>
</g>
<!-- (*github.com/go&#45;i2p/go&#45;i2p/lib/crypto/dsa.DSASigner).SignHash&#45;&gt;(*github.com/go&#45;i2p/logger.Logger).Error -->
<g id="edge12" class="edge">
<title>(*github.com/go&#45;i2p/go&#45;i2p/lib/crypto/dsa.DSASigner).SignHash&#45;&gt;(*github.com/go&#45;i2p/logger.Logger).Error</title>
<g id="a_edge12"><a xlink:title="at dsa_signer.go:35: calling [(*github.com/go&#45;i2p/logger.Logger).Error]">
<path fill="none" stroke="#8b4513" d="M329.5746,-108.6879C352.389,-103.6457 380.264,-102.37 399.3564,-118 448.119,-157.9195 390.7714,-205.6882 427.3564,-257 430.8003,-261.8301 435.2853,-266.0063 440.1679,-269.5781"/>
<polygon fill="#8b4513" stroke="#8b4513" points="438.3419,-272.565 448.6467,-275.0273 442.1265,-266.6763 438.3419,-272.565"/>
</a>
</g>
</g>
<!-- (*github.com/go&#45;i2p/go&#45;i2p/lib/crypto/dsa.DSASigner).SignHash&#45;&gt;(*github.com/go&#45;i2p/logger.Logger).WithError -->
<g id="edge19" class="edge">
<title>(*github.com/go&#45;i2p/go&#45;i2p/lib/crypto/dsa.DSASigner).SignHash&#45;&gt;(*github.com/go&#45;i2p/logger.Logger).WithError</title>
<g id="a_edge19"><a xlink:title="at dsa_signer.go:35: calling [(*github.com/go&#45;i2p/logger.Logger).WithError]">
<path fill="none" stroke="#8b4513" d="M329.1999,-103.9592C355.8553,-92.9424 388.2557,-82.4716 399.3564,-91 437.6557,-120.4245 398.1157,-157.5601 427.3564,-196 428.7482,-197.8297 430.2864,-199.5685 431.9349,-201.2184"/>
<polygon fill="#8b4513" stroke="#8b4513" points="429.8762,-204.0627 439.7562,-207.8887 434.4186,-198.7366 429.8762,-204.0627"/>
</a>
</g>
</g>
<!-- (*github.com/go&#45;i2p/go&#45;i2p/lib/crypto/dsa.DSASigner).SignHash&#45;&gt;(*github.com/go&#45;i2p/logger.Logger).WithField -->
<g id="edge30" class="edge">
<title>(*github.com/go&#45;i2p/go&#45;i2p/lib/crypto/dsa.DSASigner).SignHash&#45;&gt;(*github.com/go&#45;i2p/logger.Logger).WithField</title>
<g id="a_edge30"><a xlink:title="at dsa_signer.go:22: calling [(*github.com/go&#45;i2p/logger.Logger).WithField]&#10;at dsa_signer.go:33: calling [(*github.com/go&#45;i2p/logger.Logger).WithField]">
<path fill="none" stroke="#8b4513" d="M326.3243,-103.9416C337.9066,-98.0366 350.735,-91.359 362.3564,-85 378.6061,-76.1085 380.4751,-68.8342 398.3564,-64 417.349,-58.8654 437.1423,-68.5844 452.3026,-79.7251"/>
<polygon fill="#8b4513" stroke="#8b4513" points="450.1974,-82.5224 460.2138,-85.9754 454.5369,-77.0298 450.1974,-82.5224"/>
</a>
</g>
</g>
<!-- (*github.com/go&#45;i2p/go&#45;i2p/lib/crypto/dsa.DSASigner).SignHash&#45;&gt;(*github.com/sirupsen/logrus.Logger).Debug -->
<g id="edge25" class="edge">
<title>(*github.com/go&#45;i2p/go&#45;i2p/lib/crypto/dsa.DSASigner).SignHash&#45;&gt;(*github.com/sirupsen/logrus.Logger).Debug</title>
<g id="a_edge25"><a xlink:title="at dsa_signer.go:22: calling [(*github.com/sirupsen/logrus.Logger).Debug]&#10;at dsa_signer.go:33: calling [(*github.com/sirupsen/logrus.Logger).Debug]">
<path fill="none" stroke="#8b4513" d="M329.5986,-135.9051C341.356,-141.5879 353.4606,-149.1839 362.3564,-159 431.1082,-234.8642 399.7818,-281.4007 427.3564,-380 439.4198,-423.1355 456.8103,-472.0724 467.8734,-501.9862"/>
<polygon fill="#8b4513" stroke="#8b4513" points="464.7333,-503.5834 471.5035,-511.733 471.2931,-501.1402 464.7333,-503.5834"/>
</a>
</g>
</g>
<!-- (*github.com/go&#45;i2p/go&#45;i2p/lib/crypto/dsa.DSAVerifier).Verify -->
<g id="node8" class="node">
<title>(*github.com/go&#45;i2p/go&#45;i2p/lib/crypto/dsa.DSAVerifier).Verify</title>
<g id="a_node8"><a xlink:title="(*github.com/go&#45;i2p/go&#45;i2p/lib/crypto/dsa.DSAVerifier).Verify | defined in dsa_verifier.go:17&#10;at dsa_verifier.go:18: calling [(*github.com/go&#45;i2p/logger.Logger).WithFields]&#10;at dsa_verifier.go:21: calling [(*github.com/sirupsen/logrus.Logger).Debug]&#10;at dsa_verifier.go:23: calling [(*github.com/go&#45;i2p/go&#45;i2p/lib/crypto/dsa.DSAVerifier).VerifyHash]">
<path fill="#add8e6" stroke="#000000" stroke-width="1.5" d="M90.5229,-255C90.5229,-255 54.4533,-255 54.4533,-255 48.4533,-255 42.4533,-249 42.4533,-243 42.4533,-243 42.4533,-231 42.4533,-231 42.4533,-225 48.4533,-219 54.4533,-219 54.4533,-219 90.5229,-219 90.5229,-219 96.5229,-219 102.5229,-225 102.5229,-231 102.5229,-231 102.5229,-243 102.5229,-243 102.5229,-249 96.5229,-255 90.5229,-255"/>
<text text-anchor="middle" x="72.4881" y="-232.8" font-family="Verdana" font-size="14.00" fill="#000000">Verify</text>
</a>
</g>
</g>
<!-- (*github.com/go&#45;i2p/go&#45;i2p/lib/crypto/dsa.DSAVerifier).VerifyHash -->
<g id="node9" class="node">
<title>(*github.com/go&#45;i2p/go&#45;i2p/lib/crypto/dsa.DSAVerifier).VerifyHash</title>
<g id="a_node9"><a xlink:title="(*github.com/go&#45;i2p/go&#45;i2p/lib/crypto/dsa.DSAVerifier).VerifyHash | defined in dsa_verifier.go:28&#10;at dsa_verifier.go:29: calling [(*github.com/go&#45;i2p/logger.Logger).WithFields]&#10;at dsa_verifier.go:45: calling [(*github.com/go&#45;i2p/logger.Logger).Error]&#10;at dsa_verifier.go:32: calling [(*github.com/sirupsen/logrus.Logger).Debug]&#10;at dsa_verifier.go:38: calling [(*github.com/sirupsen/logrus.Logger).Debug]&#10;at dsa_verifier.go:41: calling [(*github.com/go&#45;i2p/logger.Logger).Warn]">
<path fill="#add8e6" stroke="#000000" stroke-width="1.5" d="M322.9032,-255C322.9032,-255 257.3046,-255 257.3046,-255 251.3046,-255 245.3046,-249 245.3046,-243 245.3046,-243 245.3046,-231 245.3046,-231 245.3046,-225 251.3046,-219 257.3046,-219 257.3046,-219 322.9032,-219 322.9032,-219 328.9032,-219 334.9032,-225 334.9032,-231 334.9032,-231 334.9032,-243 334.9032,-243 334.9032,-249 328.9032,-255 322.9032,-255"/>
<text text-anchor="middle" x="290.1039" y="-232.8" font-family="Verdana" font-size="14.00" fill="#000000">VerifyHash</text>
</a>
</g>
</g>
<!-- (*github.com/go&#45;i2p/go&#45;i2p/lib/crypto/dsa.DSAVerifier).Verify&#45;&gt;(*github.com/go&#45;i2p/go&#45;i2p/lib/crypto/dsa.DSAVerifier).VerifyHash -->
<g id="edge16" class="edge">
<title>(*github.com/go&#45;i2p/go&#45;i2p/lib/crypto/dsa.DSAVerifier).Verify&#45;&gt;(*github.com/go&#45;i2p/go&#45;i2p/lib/crypto/dsa.DSAVerifier).VerifyHash</title>
<g id="a_edge16"><a xlink:title="at dsa_verifier.go:23: calling [(*github.com/go&#45;i2p/go&#45;i2p/lib/crypto/dsa.DSAVerifier).VerifyHash]">
<path fill="none" stroke="#000000" d="M102.7466,-237C136.9481,-237 193.3204,-237 235.3116,-237"/>
<polygon fill="#000000" stroke="#000000" points="235.3847,-240.5001 245.3847,-237 235.3846,-233.5001 235.3847,-240.5001"/>
</a>
</g>
</g>
<!-- (*github.com/go&#45;i2p/logger.Logger).WithFields -->
<g id="node12" class="node">
<title>(*github.com/go&#45;i2p/logger.Logger).WithFields</title>
<g id="a_node12"><a xlink:title="(*github.com/go&#45;i2p/logger.Logger).WithFields | defined in log.go:60">
<path fill="#ffe4b5" stroke="#000000" stroke-width="1.5" d="M509.6849,-183C509.6849,-183 447.2467,-183 447.2467,-183 441.2467,-183 435.2467,-177 435.2467,-171 435.2467,-171 435.2467,-159 435.2467,-159 435.2467,-153 441.2467,-147 447.2467,-147 447.2467,-147 509.6849,-147 509.6849,-147 515.6849,-147 521.6849,-153 521.6849,-159 521.6849,-159 521.6849,-171 521.6849,-171 521.6849,-177 515.6849,-183 509.6849,-183"/>
<text text-anchor="middle" x="478.4658" y="-169.2" font-family="Verdana" font-size="14.00" fill="#000000">logger</text>
<text text-anchor="middle" x="478.4658" y="-152.4" font-family="Verdana" font-size="14.00" fill="#000000">WithFields</text>
</a>
</g>
</g>
<!-- (*github.com/go&#45;i2p/go&#45;i2p/lib/crypto/dsa.DSAVerifier).Verify&#45;&gt;(*github.com/go&#45;i2p/logger.Logger).WithFields -->
<g id="edge3" class="edge">
<title>(*github.com/go&#45;i2p/go&#45;i2p/lib/crypto/dsa.DSAVerifier).Verify&#45;&gt;(*github.com/go&#45;i2p/logger.Logger).WithFields</title>
<g id="a_edge3"><a xlink:title="at dsa_verifier.go:18: calling [(*github.com/go&#45;i2p/logger.Logger).WithFields]">
<path fill="none" stroke="#8b4513" d="M102.7596,-230.3501C132.1116,-223.9976 177.9337,-214.332 217.8514,-207 289.2676,-193.8824 372.1092,-180.9143 424.8792,-172.9351"/>
<polygon fill="#8b4513" stroke="#8b4513" points="425.653,-176.3581 435.0199,-171.4072 424.61,-169.4363 425.653,-176.3581"/>
</a>
</g>
</g>
<!-- (*github.com/go&#45;i2p/go&#45;i2p/lib/crypto/dsa.DSAVerifier).Verify&#45;&gt;(*github.com/sirupsen/logrus.Logger).Debug -->
<g id="edge4" class="edge">
<title>(*github.com/go&#45;i2p/go&#45;i2p/lib/crypto/dsa.DSAVerifier).Verify&#45;&gt;(*github.com/sirupsen/logrus.Logger).Debug</title>
<g id="a_edge4"><a xlink:title="at dsa_verifier.go:21: calling [(*github.com/sirupsen/logrus.Logger).Debug]">
<path fill="none" stroke="#8b4513" d="M102.7886,-243.6962C132.1619,-250.132 177.9992,-260.0288 217.8514,-268 281.9183,-280.8145 310.2766,-255.5479 362.3564,-295 397.9561,-321.968 447.223,-445.7326 468.2708,-502.006"/>
<polygon fill="#8b4513" stroke="#8b4513" points="465.1033,-503.5311 471.8628,-511.6895 471.6664,-501.0965 465.1033,-503.5311"/>
</a>
</g>
</g>
<!-- (*github.com/go&#45;i2p/go&#45;i2p/lib/crypto/dsa.DSAVerifier).VerifyHash&#45;&gt;(*github.com/go&#45;i2p/logger.Logger).Warn -->
<g id="edge24" class="edge">
<title>(*github.com/go&#45;i2p/go&#45;i2p/lib/crypto/dsa.DSAVerifier).VerifyHash&#45;&gt;(*github.com/go&#45;i2p/logger.Logger).Warn</title>
<g id="a_edge24"><a xlink:title="at dsa_verifier.go:41: calling [(*github.com/go&#45;i2p/logger.Logger).Warn]">
<path fill="none" stroke="#8b4513" d="M334.7627,-248.3222C355.7941,-255.1471 380.3676,-265.4032 399.3564,-280 415.9887,-292.7854 411.7697,-303.9589 427.3564,-318 431.2228,-321.483 435.5564,-324.7608 440.0218,-327.7784"/>
<polygon fill="#8b4513" stroke="#8b4513" points="438.3586,-330.8675 448.6829,-333.2465 442.0956,-324.9484 438.3586,-330.8675"/>
</a>
</g>
</g>
<!-- (*github.com/go&#45;i2p/go&#45;i2p/lib/crypto/dsa.DSAVerifier).VerifyHash&#45;&gt;(*github.com/go&#45;i2p/logger.Logger).Error -->
<g id="edge9" class="edge">
<title>(*github.com/go&#45;i2p/go&#45;i2p/lib/crypto/dsa.DSAVerifier).VerifyHash&#45;&gt;(*github.com/go&#45;i2p/logger.Logger).Error</title>
<g id="a_edge9"><a xlink:title="at dsa_verifier.go:45: calling [(*github.com/go&#45;i2p/logger.Logger).Error]">
<path fill="none" stroke="#8b4513" d="M334.7906,-222.5642C355.2403,-218.4145 379.322,-217.0988 399.3564,-226 416.323,-233.5382 412.961,-245.2755 427.3564,-257 431.2941,-260.2071 435.6134,-263.2928 440.0207,-266.1846"/>
<polygon fill="#8b4513" stroke="#8b4513" points="438.1899,-269.1676 448.5275,-271.4877 441.893,-263.2273 438.1899,-269.1676"/>
</a>
</g>
</g>
<!-- (*github.com/go&#45;i2p/go&#45;i2p/lib/crypto/dsa.DSAVerifier).VerifyHash&#45;&gt;(*github.com/go&#45;i2p/logger.Logger).WithFields -->
<g id="edge8" class="edge">
<title>(*github.com/go&#45;i2p/go&#45;i2p/lib/crypto/dsa.DSAVerifier).VerifyHash&#45;&gt;(*github.com/go&#45;i2p/logger.Logger).WithFields</title>
<g id="a_edge8"><a xlink:title="at dsa_verifier.go:29: calling [(*github.com/go&#45;i2p/logger.Logger).WithFields]">
<path fill="none" stroke="#8b4513" d="M335.2213,-219.7542C362.5031,-209.3259 397.4056,-195.9847 425.9278,-185.0823"/>
<polygon fill="#8b4513" stroke="#8b4513" points="427.2446,-188.326 435.3357,-181.4862 424.7452,-181.7874 427.2446,-188.326"/>
</a>
</g>
</g>
<!-- (*github.com/go&#45;i2p/go&#45;i2p/lib/crypto/dsa.DSAVerifier).VerifyHash&#45;&gt;(*github.com/sirupsen/logrus.Logger).Debug -->
<g id="edge20" class="edge">
<title>(*github.com/go&#45;i2p/go&#45;i2p/lib/crypto/dsa.DSAVerifier).VerifyHash&#45;&gt;(*github.com/sirupsen/logrus.Logger).Debug</title>
<g id="a_edge20"><a xlink:title="at dsa_verifier.go:32: calling [(*github.com/sirupsen/logrus.Logger).Debug]&#10;at dsa_verifier.go:38: calling [(*github.com/sirupsen/logrus.Logger).Debug]">
<path fill="none" stroke="#8b4513" d="M327.3238,-255.2124C339.6222,-262.5649 352.631,-271.9482 362.3564,-283 421.5565,-350.2746 456.656,-452.9544 470.9545,-502.0109"/>
<polygon fill="#8b4513" stroke="#8b4513" points="467.6668,-503.246 473.7673,-511.9082 474.4002,-501.3323 467.6668,-503.246"/>
</a>
</g>
</g>
<!-- (github.com/go&#45;i2p/go&#45;i2p/lib/crypto/dsa.DSAPrivateKey).NewSigner -->
<g id="node16" class="node">
<title>(github.com/go&#45;i2p/go&#45;i2p/lib/crypto/dsa.DSAPrivateKey).NewSigner</title>
<g id="a_node16"><a xlink:title="(github.com/go&#45;i2p/go&#45;i2p/lib/crypto/dsa.DSAPrivateKey).NewSigner | defined in dsa_private_key.go:12&#10;at dsa_private_key.go:13: calling [(*github.com/sirupsen/logrus.Logger).Debug]&#10;at dsa_private_key.go:15: calling [github.com/go&#45;i2p/go&#45;i2p/lib/crypto/dsa.createDSAPrivkey]">
<path fill="#add8e6" stroke="#000000" stroke-width="1.5" d="M103.9643,-548C103.9643,-548 41.0119,-548 41.0119,-548 35.0119,-548 29.0119,-542 29.0119,-536 29.0119,-536 29.0119,-524 29.0119,-524 29.0119,-518 35.0119,-512 41.0119,-512 41.0119,-512 103.9643,-512 103.9643,-512 109.9643,-512 115.9643,-518 115.9643,-524 115.9643,-524 115.9643,-536 115.9643,-536 115.9643,-542 109.9643,-548 103.9643,-548"/>
<text text-anchor="middle" x="72.4881" y="-525.8" font-family="Verdana" font-size="14.00" fill="#000000">NewSigner</text>
</a>
</g>
</g>
<!-- (github.com/go&#45;i2p/go&#45;i2p/lib/crypto/dsa.DSAPrivateKey).NewSigner&#45;&gt;github.com/go&#45;i2p/go&#45;i2p/lib/crypto/dsa.createDSAPrivkey -->
<g id="edge32" class="edge">
<title>(github.com/go&#45;i2p/go&#45;i2p/lib/crypto/dsa.DSAPrivateKey).NewSigner&#45;&gt;github.com/go&#45;i2p/go&#45;i2p/lib/crypto/dsa.createDSAPrivkey</title>
<g id="a_edge32"><a xlink:title="at dsa_private_key.go:15: calling [github.com/go&#45;i2p/go&#45;i2p/lib/crypto/dsa.createDSAPrivkey]">
<path fill="none" stroke="#000000" d="M116.0029,-525.2009C144.4417,-522.0645 182.3238,-517.8866 215.4884,-514.2291"/>
<polygon fill="#000000" stroke="#000000" points="216.0577,-517.6876 225.6137,-513.1124 215.2903,-510.7298 216.0577,-517.6876"/>
</a>
</g>
</g>
<!-- (github.com/go&#45;i2p/go&#45;i2p/lib/crypto/dsa.DSAPrivateKey).NewSigner&#45;&gt;(*github.com/sirupsen/logrus.Logger).Debug -->
<g id="edge14" class="edge">
<title>(github.com/go&#45;i2p/go&#45;i2p/lib/crypto/dsa.DSAPrivateKey).NewSigner&#45;&gt;(*github.com/sirupsen/logrus.Logger).Debug</title>
<g id="a_edge14"><a xlink:title="at dsa_private_key.go:13: calling [(*github.com/sirupsen/logrus.Logger).Debug]">
<path fill="none" stroke="#8b4513" d="M116.0131,-541.9783C135.7047,-547.104 159.3391,-552.8509 180.8514,-557 260.8083,-572.4215 282.4056,-566.547 362.3564,-582 378.9728,-585.2116 383.337,-596.4589 399.3564,-591 420.2716,-583.8727 439.9629,-568.7308 454.4681,-555.317"/>
<polygon fill="#8b4513" stroke="#8b4513" points="457.1862,-557.559 461.9679,-548.1046 452.334,-552.5136 457.1862,-557.559"/>
</a>
</g>
</g>
<!-- (github.com/go&#45;i2p/go&#45;i2p/lib/crypto/dsa.DSAPrivateKey).Public -->
<g id="node17" class="node">
<title>(github.com/go&#45;i2p/go&#45;i2p/lib/crypto/dsa.DSAPrivateKey).Public</title>
<g id="a_node17"><a xlink:title="(github.com/go&#45;i2p/go&#45;i2p/lib/crypto/dsa.DSAPrivateKey).Public | defined in dsa_private_key.go:20&#10;at dsa_private_key.go:21: calling [github.com/go&#45;i2p/go&#45;i2p/lib/crypto/dsa.createDSAPrivkey]&#10;at dsa_private_key.go:27: calling [(*github.com/sirupsen/logrus.Logger).Debug]&#10;at dsa_private_key.go:23: calling [(*github.com/go&#45;i2p/logger.Logger).Error]">
<path fill="#add8e6" stroke="#000000" stroke-width="1.5" d="M90.2669,-487C90.2669,-487 54.7093,-487 54.7093,-487 48.7093,-487 42.7093,-481 42.7093,-475 42.7093,-475 42.7093,-463 42.7093,-463 42.7093,-457 48.7093,-451 54.7093,-451 54.7093,-451 90.2669,-451 90.2669,-451 96.2669,-451 102.2669,-457 102.2669,-463 102.2669,-463 102.2669,-475 102.2669,-475 102.2669,-481 96.2669,-487 90.2669,-487"/>
<text text-anchor="middle" x="72.4881" y="-464.8" font-family="Verdana" font-size="14.00" fill="#000000">Public</text>
</a>
</g>
</g>
<!-- (github.com/go&#45;i2p/go&#45;i2p/lib/crypto/dsa.DSAPrivateKey).Public&#45;&gt;github.com/go&#45;i2p/go&#45;i2p/lib/crypto/dsa.createDSAPrivkey -->
<g id="edge2" class="edge">
<title>(github.com/go&#45;i2p/go&#45;i2p/lib/crypto/dsa.DSAPrivateKey).Public&#45;&gt;github.com/go&#45;i2p/go&#45;i2p/lib/crypto/dsa.createDSAPrivkey</title>
<g id="a_edge2"><a xlink:title="at dsa_private_key.go:21: calling [github.com/go&#45;i2p/go&#45;i2p/lib/crypto/dsa.createDSAPrivkey]">
<path fill="none" stroke="#000000" d="M102.2904,-474.0671C131.2484,-478.9907 176.4049,-486.6684 215.1825,-493.2615"/>
<polygon fill="#000000" stroke="#000000" points="214.964,-496.7745 225.4092,-495.0003 216.1374,-489.8736 214.964,-496.7745"/>
</a>
</g>
</g>
<!-- (github.com/go&#45;i2p/go&#45;i2p/lib/crypto/dsa.DSAPrivateKey).Public&#45;&gt;(*github.com/go&#45;i2p/logger.Logger).Error -->
<g id="edge23" class="edge">
<title>(github.com/go&#45;i2p/go&#45;i2p/lib/crypto/dsa.DSAPrivateKey).Public&#45;&gt;(*github.com/go&#45;i2p/logger.Logger).Error</title>
<g id="a_edge23"><a xlink:title="at dsa_private_key.go:23: calling [(*github.com/go&#45;i2p/logger.Logger).Error]">
<path fill="none" stroke="#8b4513" d="M102.3189,-468.976C174.4647,-468.2966 355.6635,-462.6847 399.3564,-424 435.839,-391.6992 398.182,-357.0279 427.3564,-318 430.8991,-313.2608 435.3989,-309.0949 440.2538,-305.4821"/>
<polygon fill="#8b4513" stroke="#8b4513" points="442.2477,-308.3596 448.6532,-299.9204 438.383,-302.5231 442.2477,-308.3596"/>
</a>
</g>
</g>
<!-- (github.com/go&#45;i2p/go&#45;i2p/lib/crypto/dsa.DSAPrivateKey).Public&#45;&gt;(*github.com/sirupsen/logrus.Logger).Debug -->
<g id="edge15" class="edge">
<title>(github.com/go&#45;i2p/go&#45;i2p/lib/crypto/dsa.DSAPrivateKey).Public&#45;&gt;(*github.com/sirupsen/logrus.Logger).Debug</title>
<g id="a_edge15"><a xlink:title="at dsa_private_key.go:27: calling [(*github.com/sirupsen/logrus.Logger).Debug]">
<path fill="none" stroke="#8b4513" d="M102.2736,-480.6885C113.6318,-485.806 126.3838,-492.3887 136.9762,-500 159.6603,-516.2999 155.485,-533.3039 180.8514,-545 217.5597,-561.9257 323.8273,-544.7734 362.3564,-557 380.592,-562.7868 380.9554,-584.2371 399.3564,-579 416.8565,-574.0193 434.27,-563.9371 448.2861,-554.2062"/>
<polygon fill="#8b4513" stroke="#8b4513" points="450.4871,-556.934 456.5444,-548.2415 446.3885,-551.2594 450.4871,-556.934"/>
</a>
</g>
</g>
<!-- (github.com/go&#45;i2p/go&#45;i2p/lib/crypto/dsa.DSAPrivateKey).Generate -->
<g id="node18" class="node">
<title>(github.com/go&#45;i2p/go&#45;i2p/lib/crypto/dsa.DSAPrivateKey).Generate</title>
<g id="a_node18"><a xlink:title="(github.com/go&#45;i2p/go&#45;i2p/lib/crypto/dsa.DSAPrivateKey).Generate | defined in dsa_public_key.go:26&#10;at dsa_public_key.go:27: calling [(*github.com/sirupsen/logrus.Logger).Debug]&#10;at dsa_public_key.go:33: calling [(*github.com/sirupsen/logrus.Logger).Debug]&#10;at dsa_public_key.go:29: calling [github.com/go&#45;i2p/go&#45;i2p/lib/crypto/dsa.generateDSA]&#10;at dsa_public_key.go:35: calling [(*github.com/go&#45;i2p/logger.Logger).WithError]&#10;at dsa_public_key.go:35: calling [(*github.com/go&#45;i2p/logger.Logger).Error]">
<path fill="#add8e6" stroke="#000000" stroke-width="1.5" d="M97.5059,-426C97.5059,-426 47.4703,-426 47.4703,-426 41.4703,-426 35.4703,-420 35.4703,-414 35.4703,-414 35.4703,-402 35.4703,-402 35.4703,-396 41.4703,-390 47.4703,-390 47.4703,-390 97.5059,-390 97.5059,-390 103.5059,-390 109.5059,-396 109.5059,-402 109.5059,-402 109.5059,-414 109.5059,-414 109.5059,-420 103.5059,-426 97.5059,-426"/>
<text text-anchor="middle" x="72.4881" y="-403.8" font-family="Verdana" font-size="14.00" fill="#000000">Generate</text>
</a>
</g>
</g>
<!-- (github.com/go&#45;i2p/go&#45;i2p/lib/crypto/dsa.DSAPrivateKey).Generate&#45;&gt;github.com/go&#45;i2p/go&#45;i2p/lib/crypto/dsa.generateDSA -->
<g id="edge11" class="edge">
<title>(github.com/go&#45;i2p/go&#45;i2p/lib/crypto/dsa.DSAPrivateKey).Generate&#45;&gt;github.com/go&#45;i2p/go&#45;i2p/lib/crypto/dsa.generateDSA</title>
<g id="a_edge11"><a xlink:title="at dsa_public_key.go:29: calling [github.com/go&#45;i2p/go&#45;i2p/lib/crypto/dsa.generateDSA]">
<path fill="none" stroke="#000000" d="M109.8976,-400.4361C142.9176,-393.7598 191.644,-383.9077 230.1061,-376.131"/>
<polygon fill="#000000" stroke="#000000" points="231.0448,-379.5121 240.1528,-374.0997 229.6575,-372.651 231.0448,-379.5121"/>
</a>
</g>
</g>
<!-- (github.com/go&#45;i2p/go&#45;i2p/lib/crypto/dsa.DSAPrivateKey).Generate&#45;&gt;(*github.com/go&#45;i2p/logger.Logger).Error -->
<g id="edge22" class="edge">
<title>(github.com/go&#45;i2p/go&#45;i2p/lib/crypto/dsa.DSAPrivateKey).Generate&#45;&gt;(*github.com/go&#45;i2p/logger.Logger).Error</title>
<g id="a_edge22"><a xlink:title="at dsa_public_key.go:35: calling [(*github.com/go&#45;i2p/logger.Logger).Error]">
<path fill="none" stroke="#8b4513" d="M109.6216,-411.5896C190.4143,-419.0361 376.7466,-434.102 399.3564,-417 435.8249,-389.4153 399.6617,-354.385 427.3564,-318 430.8134,-313.4582 435.1441,-309.4371 439.8135,-305.9225"/>
<polygon fill="#8b4513" stroke="#8b4513" points="442.0977,-308.6058 448.4686,-300.1404 438.2091,-302.7852 442.0977,-308.6058"/>
</a>
</g>
</g>
<!-- (github.com/go&#45;i2p/go&#45;i2p/lib/crypto/dsa.DSAPrivateKey).Generate&#45;&gt;(*github.com/go&#45;i2p/logger.Logger).WithError -->
<g id="edge17" class="edge">
<title>(github.com/go&#45;i2p/go&#45;i2p/lib/crypto/dsa.DSAPrivateKey).Generate&#45;&gt;(*github.com/go&#45;i2p/logger.Logger).WithError</title>
<g id="a_edge17"><a xlink:title="at dsa_public_key.go:35: calling [(*github.com/go&#45;i2p/logger.Logger).WithError]">
<path fill="none" stroke="#8b4513" d="M90.86,-389.6755C111.2344,-370.3043 145.8676,-340.1008 180.8514,-322 255.4902,-283.3816 282.5688,-295.3869 362.3564,-269 384.2033,-261.7749 408.0814,-253.0736 428.472,-245.394"/>
<polygon fill="#8b4513" stroke="#8b4513" points="429.7638,-248.6474 437.8756,-241.8321 427.2841,-242.1013 429.7638,-248.6474"/>
</a>
</g>
</g>
<!-- (github.com/go&#45;i2p/go&#45;i2p/lib/crypto/dsa.DSAPrivateKey).Generate&#45;&gt;(*github.com/sirupsen/logrus.Logger).Debug -->
<g id="edge10" class="edge">
<title>(github.com/go&#45;i2p/go&#45;i2p/lib/crypto/dsa.DSAPrivateKey).Generate&#45;&gt;(*github.com/sirupsen/logrus.Logger).Debug</title>
<g id="a_edge10"><a xlink:title="at dsa_public_key.go:27: calling [(*github.com/sirupsen/logrus.Logger).Debug]&#10;at dsa_public_key.go:33: calling [(*github.com/sirupsen/logrus.Logger).Debug]">
<path fill="none" stroke="#8b4513" d="M109.585,-413.5924C130.5043,-416.7171 157.1259,-420.6455 180.8514,-424 197.2819,-426.3231 201.3491,-427.2584 217.8514,-429 233.865,-430.69 349.2797,-430.6036 362.3564,-440 395.6734,-463.9403 364.8769,-501.2875 398.3564,-525 409.593,-532.9585 424.0904,-535.5182 437.6572,-535.6611"/>
<polygon fill="#8b4513" stroke="#8b4513" points="437.8938,-539.1555 447.781,-535.3487 437.6778,-532.1589 437.8938,-539.1555"/>
</a>
</g>
</g>
<!-- (github.com/go&#45;i2p/go&#45;i2p/lib/crypto/dsa.DSAPublicKey).NewVerifier -->
<g id="node19" class="node">
<title>(github.com/go&#45;i2p/go&#45;i2p/lib/crypto/dsa.DSAPublicKey).NewVerifier</title>
<g id="a_node19"><a xlink:title="(github.com/go&#45;i2p/go&#45;i2p/lib/crypto/dsa.DSAPublicKey).NewVerifier | defined in dsa_public_key.go:18&#10;at dsa_public_key.go:19: calling [(*github.com/sirupsen/logrus.Logger).Debug]&#10;at dsa_public_key.go:21: calling [github.com/go&#45;i2p/go&#45;i2p/lib/crypto/dsa.createDSAPublicKey]">
<path fill="#add8e6" stroke="#000000" stroke-width="1.5" d="M107.7151,-653C107.7151,-653 37.2611,-653 37.2611,-653 31.2611,-653 25.2611,-647 25.2611,-641 25.2611,-641 25.2611,-629 25.2611,-629 25.2611,-623 31.2611,-617 37.2611,-617 37.2611,-617 107.7151,-617 107.7151,-617 113.7151,-617 119.7151,-623 119.7151,-629 119.7151,-629 119.7151,-641 119.7151,-641 119.7151,-647 113.7151,-653 107.7151,-653"/>
<text text-anchor="middle" x="72.4881" y="-630.8" font-family="Verdana" font-size="14.00" fill="#000000">NewVerifier</text>
</a>
</g>
</g>
<!-- (github.com/go&#45;i2p/go&#45;i2p/lib/crypto/dsa.DSAPublicKey).NewVerifier&#45;&gt;github.com/go&#45;i2p/go&#45;i2p/lib/crypto/dsa.createDSAPublicKey -->
<g id="edge29" class="edge">
<title>(github.com/go&#45;i2p/go&#45;i2p/lib/crypto/dsa.DSAPublicKey).NewVerifier&#45;&gt;github.com/go&#45;i2p/go&#45;i2p/lib/crypto/dsa.createDSAPublicKey</title>
<g id="a_edge29"><a xlink:title="at dsa_public_key.go:21: calling [github.com/go&#45;i2p/go&#45;i2p/lib/crypto/dsa.createDSAPublicKey]">
<path fill="none" stroke="#000000" d="M119.9759,-631.9449C145.5943,-630.2968 177.9464,-628.2155 207.5431,-626.3114"/>
<polygon fill="#000000" stroke="#000000" points="208.1267,-629.7812 217.8813,-625.6463 207.6772,-622.7957 208.1267,-629.7812"/>
</a>
</g>
</g>
<!-- (github.com/go&#45;i2p/go&#45;i2p/lib/crypto/dsa.DSAPublicKey).NewVerifier&#45;&gt;(*github.com/sirupsen/logrus.Logger).Debug -->
<g id="edge27" class="edge">
<title>(github.com/go&#45;i2p/go&#45;i2p/lib/crypto/dsa.DSAPublicKey).NewVerifier&#45;&gt;(*github.com/sirupsen/logrus.Logger).Debug</title>
<g id="a_edge27"><a xlink:title="at dsa_public_key.go:19: calling [(*github.com/sirupsen/logrus.Logger).Debug]">
<path fill="none" stroke="#8b4513" d="M116.8183,-653.0778C182.9908,-676.9851 309.4316,-710.5441 399.3564,-660 437.8436,-638.3675 459.7935,-589.5828 470.3964,-558.3121"/>
<polygon fill="#8b4513" stroke="#8b4513" points="473.8404,-559.0345 473.5646,-548.4432 467.1754,-556.8947 473.8404,-559.0345"/>
</a>
</g>
</g>
</g>
</svg>
