<?xml version="1.0" encoding="UTF-8" standalone="no"?>
<!DOCTYPE svg PUBLIC "-//W3C//DTD SVG 1.1//EN"
 "http://www.w3.org/Graphics/SVG/1.1/DTD/svg11.dtd">
<!-- Generated by graphviz version 2.40.1 (20161225.0304)
 -->
<!-- Title: gocallvis Pages: 1 -->
<svg width="293pt" height="184pt"
 viewBox="0.00 0.00 293.42 184.00" xmlns="http://www.w3.org/2000/svg" xmlns:xlink="http://www.w3.org/1999/xlink">
<g id="graph0" class="graph" transform="scale(1 1) rotate(0) translate(0 184)">
<title>gocallvis</title>
<polygon fill="#d3d3d3" stroke="transparent" points="0,0 0,-184 293.4152,-184 293.4152,0 0,0"/>
<g id="clust1" class="cluster">
<title>cluster_focus</title>
<polygon fill="#e6ecfa" stroke="#000000" stroke-width=".5" points="8,-8 8,-176 285.4152,-176 285.4152,-8 8,-8"/>
<text text-anchor="middle" x="146.7076" y="-155.8" font-family="Arial" font-size="18.00" fill="#000000">exportable</text>
</g>
<g id="clust2" class="cluster">
<title>cluster_*github.com/go&#45;i2p/go&#45;i2p/lib/common/keys_and_cert.KeysAndCert</title>
<g id="a_clust2"><a xlink:title="type: *github.com/go&#45;i2p/go&#45;i2p/lib/common/keys_and_cert.KeysAndCert">
<path fill="#eed8ae" stroke="#000000" stroke-width=".5" d="M161.7805,-60C161.7805,-60 258.6347,-60 258.6347,-60 264.6347,-60 270.6347,-66 270.6347,-72 270.6347,-72 270.6347,-126 270.6347,-126 270.6347,-132 264.6347,-138 258.6347,-138 258.6347,-138 161.7805,-138 161.7805,-138 155.7805,-138 149.7805,-132 149.7805,-126 149.7805,-126 149.7805,-72 149.7805,-72 149.7805,-66 155.7805,-60 161.7805,-60"/>
<text text-anchor="middle" x="210.2076" y="-68.5" font-family="Arial" font-size="15.00" fill="#222222">(*KeysAndCert)</text>
</a>
</g>
</g>
<!-- github.com/go&#45;i2p/go&#45;i2p/lib/common/fuzz/router_identity.Fuzz -->
<g id="node1" class="node">
<title>github.com/go&#45;i2p/go&#45;i2p/lib/common/fuzz/router_identity.Fuzz</title>
<g id="a_node1"><a xlink:title="github.com/go&#45;i2p/go&#45;i2p/lib/common/fuzz/router_identity.Fuzz | defined in fuzz.go:5&#10;at fuzz.go:7: calling [(*github.com/go&#45;i2p/go&#45;i2p/lib/common/keys_and_cert.KeysAndCert).Certificate]&#10;at fuzz.go:6: calling [github.com/go&#45;i2p/go&#45;i2p/lib/common/router_identity.ReadRouterIdentity]">
<path fill="#add8e6" stroke="#000000" stroke-width="1.5" d="M58,-65C58,-65 28,-65 28,-65 22,-65 16,-59 16,-53 16,-53 16,-41 16,-41 16,-35 22,-29 28,-29 28,-29 58,-29 58,-29 64,-29 70,-35 70,-41 70,-41 70,-53 70,-53 70,-59 64,-65 58,-65"/>
<text text-anchor="middle" x="43" y="-42.8" font-family="Verdana" font-size="14.00" fill="#000000">Fuzz</text>
</a>
</g>
</g>
<!-- github.com/go&#45;i2p/go&#45;i2p/lib/common/router_identity.ReadRouterIdentity -->
<g id="node2" class="node">
<title>github.com/go&#45;i2p/go&#45;i2p/lib/common/router_identity.ReadRouterIdentity</title>
<g id="a_node2"><a xlink:title="github.com/go&#45;i2p/go&#45;i2p/lib/common/router_identity.ReadRouterIdentity | defined in router_identity.go:37">
<path fill="#ffe4b5" stroke="#000000" stroke-width="1.5" d="M265.6234,-52C265.6234,-52 154.7918,-52 154.7918,-52 148.7918,-52 142.7918,-46 142.7918,-40 142.7918,-40 142.7918,-28 142.7918,-28 142.7918,-22 148.7918,-16 154.7918,-16 154.7918,-16 265.6234,-16 265.6234,-16 271.6234,-16 277.6234,-22 277.6234,-28 277.6234,-28 277.6234,-40 277.6234,-40 277.6234,-46 271.6234,-52 265.6234,-52"/>
<text text-anchor="middle" x="210.2076" y="-38.2" font-family="Verdana" font-size="14.00" fill="#000000">router_identity</text>
<text text-anchor="middle" x="210.2076" y="-21.4" font-family="Verdana" font-size="14.00" fill="#000000">ReadRouterIdentity</text>
</a>
</g>
</g>
<!-- github.com/go&#45;i2p/go&#45;i2p/lib/common/fuzz/router_identity.Fuzz&#45;&gt;github.com/go&#45;i2p/go&#45;i2p/lib/common/router_identity.ReadRouterIdentity -->
<g id="edge2" class="edge">
<title>github.com/go&#45;i2p/go&#45;i2p/lib/common/fuzz/router_identity.Fuzz&#45;&gt;github.com/go&#45;i2p/go&#45;i2p/lib/common/router_identity.ReadRouterIdentity</title>
<g id="a_edge2"><a xlink:title="at fuzz.go:6: calling [github.com/go&#45;i2p/go&#45;i2p/lib/common/router_identity.ReadRouterIdentity]">
<path fill="none" stroke="#8b4513" d="M70.2369,-44.8824C87.33,-43.5534 110.3072,-41.767 132.6983,-40.0262"/>
<polygon fill="#8b4513" stroke="#8b4513" points="133.223,-43.496 142.9216,-39.2313 132.6803,-36.5171 133.223,-43.496"/>
</a>
</g>
</g>
<!-- (*github.com/go&#45;i2p/go&#45;i2p/lib/common/keys_and_cert.KeysAndCert).Certificate -->
<g id="node3" class="node">
<title>(*github.com/go&#45;i2p/go&#45;i2p/lib/common/keys_and_cert.KeysAndCert).Certificate</title>
<g id="a_node3"><a xlink:title="(*github.com/go&#45;i2p/go&#45;i2p/lib/common/keys_and_cert.KeysAndCert).Certificate | defined in keys_and_cert.go:139">
<path fill="#ffe4b5" stroke="#000000" stroke-width="1.5" d="M250.5619,-130C250.5619,-130 169.8533,-130 169.8533,-130 163.8533,-130 157.8533,-124 157.8533,-118 157.8533,-118 157.8533,-106 157.8533,-106 157.8533,-100 163.8533,-94 169.8533,-94 169.8533,-94 250.5619,-94 250.5619,-94 256.5619,-94 262.5619,-100 262.5619,-106 262.5619,-106 262.5619,-118 262.5619,-118 262.5619,-124 256.5619,-130 250.5619,-130"/>
<text text-anchor="middle" x="210.2076" y="-116.2" font-family="Verdana" font-size="14.00" fill="#000000">keys_and_cert</text>
<text text-anchor="middle" x="210.2076" y="-99.4" font-family="Verdana" font-size="14.00" fill="#000000">Certificate</text>
</a>
</g>
</g>
<!-- github.com/go&#45;i2p/go&#45;i2p/lib/common/fuzz/router_identity.Fuzz&#45;&gt;(*github.com/go&#45;i2p/go&#45;i2p/lib/common/keys_and_cert.KeysAndCert).Certificate -->
<g id="edge1" class="edge">
<title>github.com/go&#45;i2p/go&#45;i2p/lib/common/fuzz/router_identity.Fuzz&#45;&gt;(*github.com/go&#45;i2p/go&#45;i2p/lib/common/keys_and_cert.KeysAndCert).Certificate</title>
<g id="a_edge1"><a xlink:title="at fuzz.go:7: calling [(*github.com/go&#45;i2p/go&#45;i2p/lib/common/keys_and_cert.KeysAndCert).Certificate]">
<path fill="none" stroke="#8b4513" d="M70.3186,-59.5347C90.2689,-68.4946 118.0733,-80.5827 143,-90 144.6187,-90.6115 146.2628,-91.2224 147.9247,-91.8308"/>
<polygon fill="#8b4513" stroke="#8b4513" points="146.9887,-95.2129 157.5834,-95.2765 149.3408,-88.6199 146.9887,-95.2129"/>
</a>
</g>
</g>
</g>
</svg>
