<?xml version="1.0" encoding="UTF-8" standalone="no"?>
<!DOCTYPE svg PUBLIC "-//W3C//DTD SVG 1.1//EN"
 "http://www.w3.org/Graphics/SVG/1.1/DTD/svg11.dtd">
<!-- Generated by graphviz version 2.40.1 (20161225.0304)
 -->
<!-- Title: gocallvis Pages: 1 -->
<svg width="272pt" height="306pt"
 viewBox="0.00 0.00 271.84 306.00" xmlns="http://www.w3.org/2000/svg" xmlns:xlink="http://www.w3.org/1999/xlink">
<g id="graph0" class="graph" transform="scale(1 1) rotate(0) translate(0 306)">
<title>gocallvis</title>
<polygon fill="#d3d3d3" stroke="transparent" points="0,0 0,-306 271.8444,-306 271.8444,0 0,0"/>
<g id="clust1" class="cluster">
<title>cluster_focus</title>
<polygon fill="#e6ecfa" stroke="#000000" stroke-width=".5" points="8,-8 8,-298 263.8444,-298 263.8444,-8 8,-8"/>
<text text-anchor="middle" x="135.9222" y="-277.8" font-family="Arial" font-size="18.00" fill="#000000">exportable</text>
</g>
<g id="clust2" class="cluster">
<title>cluster_*github.com/go&#45;i2p/go&#45;i2p/lib/common/certificate.Certificate</title>
<g id="a_clust2"><a xlink:title="type: *github.com/go&#45;i2p/go&#45;i2p/lib/common/certificate.Certificate">
<path fill="#eed8ae" stroke="#000000" stroke-width=".5" d="M162.9439,-60C162.9439,-60 237.9005,-60 237.9005,-60 243.9005,-60 249.9005,-66 249.9005,-72 249.9005,-72 249.9005,-248 249.9005,-248 249.9005,-254 243.9005,-260 237.9005,-260 237.9005,-260 162.9439,-260 162.9439,-260 156.9439,-260 150.9439,-254 150.9439,-248 150.9439,-248 150.9439,-72 150.9439,-72 150.9439,-66 156.9439,-60 162.9439,-60"/>
<text text-anchor="middle" x="200.4222" y="-68.5" font-family="Arial" font-size="15.00" fill="#222222">(*Certificate)</text>
</a>
</g>
</g>
<!-- github.com/go&#45;i2p/go&#45;i2p/lib/common/fuzz/certificate.Fuzz -->
<g id="node1" class="node">
<title>github.com/go&#45;i2p/go&#45;i2p/lib/common/fuzz/certificate.Fuzz</title>
<g id="a_node1"><a xlink:title="github.com/go&#45;i2p/go&#45;i2p/lib/common/fuzz/certificate.Fuzz | defined in fuzz.go:5&#10;at fuzz.go:6: calling [github.com/go&#45;i2p/go&#45;i2p/lib/common/certificate.ReadCertificate]&#10;at fuzz.go:7: calling [(*github.com/go&#45;i2p/go&#45;i2p/lib/common/certificate.Certificate).Data]&#10;at fuzz.go:8: calling [(*github.com/go&#45;i2p/go&#45;i2p/lib/common/certificate.Certificate).Length]&#10;at fuzz.go:9: calling [(*github.com/go&#45;i2p/go&#45;i2p/lib/common/certificate.Certificate).Type]">
<path fill="#add8e6" stroke="#000000" stroke-width="1.5" d="M58,-160C58,-160 28,-160 28,-160 22,-160 16,-154 16,-148 16,-148 16,-136 16,-136 16,-130 22,-124 28,-124 28,-124 58,-124 58,-124 64,-124 70,-130 70,-136 70,-136 70,-148 70,-148 70,-154 64,-160 58,-160"/>
<text text-anchor="middle" x="43" y="-137.8" font-family="Verdana" font-size="14.00" fill="#000000">Fuzz</text>
</a>
</g>
</g>
<!-- github.com/go&#45;i2p/go&#45;i2p/lib/common/certificate.ReadCertificate -->
<g id="node2" class="node">
<title>github.com/go&#45;i2p/go&#45;i2p/lib/common/certificate.ReadCertificate</title>
<g id="a_node2"><a xlink:title="github.com/go&#45;i2p/go&#45;i2p/lib/common/certificate.ReadCertificate | defined in certificate.go:201">
<path fill="#ffe4b5" stroke="#000000" stroke-width="1.5" d="M243.7667,-52C243.7667,-52 156.0777,-52 156.0777,-52 150.0777,-52 144.0777,-46 144.0777,-40 144.0777,-40 144.0777,-28 144.0777,-28 144.0777,-22 150.0777,-16 156.0777,-16 156.0777,-16 243.7667,-16 243.7667,-16 249.7667,-16 255.7667,-22 255.7667,-28 255.7667,-28 255.7667,-40 255.7667,-40 255.7667,-46 249.7667,-52 243.7667,-52"/>
<text text-anchor="middle" x="199.9222" y="-38.2" font-family="Verdana" font-size="14.00" fill="#000000">certificate</text>
<text text-anchor="middle" x="199.9222" y="-21.4" font-family="Verdana" font-size="14.00" fill="#000000">ReadCertificate</text>
</a>
</g>
</g>
<!-- github.com/go&#45;i2p/go&#45;i2p/lib/common/fuzz/certificate.Fuzz&#45;&gt;github.com/go&#45;i2p/go&#45;i2p/lib/common/certificate.ReadCertificate -->
<g id="edge1" class="edge">
<title>github.com/go&#45;i2p/go&#45;i2p/lib/common/fuzz/certificate.Fuzz&#45;&gt;github.com/go&#45;i2p/go&#45;i2p/lib/common/certificate.ReadCertificate</title>
<g id="a_edge1"><a xlink:title="at fuzz.go:6: calling [github.com/go&#45;i2p/go&#45;i2p/lib/common/certificate.ReadCertificate]">
<path fill="none" stroke="#8b4513" d="M60.5563,-123.8395C78.2431,-106.2965 107.1045,-79.6361 142.3601,-57.393"/>
<polygon fill="#8b4513" stroke="#8b4513" points="144.2536,-60.3376 150.9601,-52.1355 140.6025,-54.3652 144.2536,-60.3376"/>
</a>
</g>
</g>
<!-- (*github.com/go&#45;i2p/go&#45;i2p/lib/common/certificate.Certificate).Data -->
<g id="node3" class="node">
<title>(*github.com/go&#45;i2p/go&#45;i2p/lib/common/certificate.Certificate).Data</title>
<g id="a_node3"><a xlink:title="(*github.com/go&#45;i2p/go&#45;i2p/lib/common/certificate.Certificate).Data | defined in certificate.go:134">
<path fill="#ffe4b5" stroke="#000000" stroke-width="1.5" d="M227.8788,-130C227.8788,-130 171.9656,-130 171.9656,-130 165.9656,-130 159.9656,-124 159.9656,-118 159.9656,-118 159.9656,-106 159.9656,-106 159.9656,-100 165.9656,-94 171.9656,-94 171.9656,-94 227.8788,-94 227.8788,-94 233.8788,-94 239.8788,-100 239.8788,-106 239.8788,-106 239.8788,-118 239.8788,-118 239.8788,-124 233.8788,-130 227.8788,-130"/>
<text text-anchor="middle" x="199.9222" y="-116.2" font-family="Verdana" font-size="14.00" fill="#000000">certificate</text>
<text text-anchor="middle" x="199.9222" y="-99.4" font-family="Verdana" font-size="14.00" fill="#000000">Data</text>
</a>
</g>
</g>
<!-- github.com/go&#45;i2p/go&#45;i2p/lib/common/fuzz/certificate.Fuzz&#45;&gt;(*github.com/go&#45;i2p/go&#45;i2p/lib/common/certificate.Certificate).Data -->
<g id="edge2" class="edge">
<title>github.com/go&#45;i2p/go&#45;i2p/lib/common/fuzz/certificate.Fuzz&#45;&gt;(*github.com/go&#45;i2p/go&#45;i2p/lib/common/certificate.Certificate).Data</title>
<g id="a_edge2"><a xlink:title="at fuzz.go:7: calling [(*github.com/go&#45;i2p/go&#45;i2p/lib/common/certificate.Certificate).Data]">
<path fill="none" stroke="#8b4513" d="M70.3338,-136.7744C92.2913,-132.5766 123.7111,-126.5699 150.1132,-121.5224"/>
<polygon fill="#8b4513" stroke="#8b4513" points="150.7913,-124.9562 159.9562,-119.6406 149.4768,-118.0807 150.7913,-124.9562"/>
</a>
</g>
</g>
<!-- (*github.com/go&#45;i2p/go&#45;i2p/lib/common/certificate.Certificate).Length -->
<g id="node4" class="node">
<title>(*github.com/go&#45;i2p/go&#45;i2p/lib/common/certificate.Certificate).Length</title>
<g id="a_node4"><a xlink:title="(*github.com/go&#45;i2p/go&#45;i2p/lib/common/certificate.Certificate).Length | defined in certificate.go:125">
<path fill="#ffe4b5" stroke="#000000" stroke-width="1.5" d="M227.8788,-191C227.8788,-191 171.9656,-191 171.9656,-191 165.9656,-191 159.9656,-185 159.9656,-179 159.9656,-179 159.9656,-167 159.9656,-167 159.9656,-161 165.9656,-155 171.9656,-155 171.9656,-155 227.8788,-155 227.8788,-155 233.8788,-155 239.8788,-161 239.8788,-167 239.8788,-167 239.8788,-179 239.8788,-179 239.8788,-185 233.8788,-191 227.8788,-191"/>
<text text-anchor="middle" x="199.9222" y="-177.2" font-family="Verdana" font-size="14.00" fill="#000000">certificate</text>
<text text-anchor="middle" x="199.9222" y="-160.4" font-family="Verdana" font-size="14.00" fill="#000000">Length</text>
</a>
</g>
</g>
<!-- github.com/go&#45;i2p/go&#45;i2p/lib/common/fuzz/certificate.Fuzz&#45;&gt;(*github.com/go&#45;i2p/go&#45;i2p/lib/common/certificate.Certificate).Length -->
<g id="edge3" class="edge">
<title>github.com/go&#45;i2p/go&#45;i2p/lib/common/fuzz/certificate.Fuzz&#45;&gt;(*github.com/go&#45;i2p/go&#45;i2p/lib/common/certificate.Certificate).Length</title>
<g id="a_edge3"><a xlink:title="at fuzz.go:8: calling [(*github.com/go&#45;i2p/go&#45;i2p/lib/common/certificate.Certificate).Length]">
<path fill="none" stroke="#8b4513" d="M70.3338,-147.3998C92.2913,-151.7375 123.7111,-157.9445 150.1132,-163.1602"/>
<polygon fill="#8b4513" stroke="#8b4513" points="149.4674,-166.6002 159.9562,-165.1047 150.8241,-159.7329 149.4674,-166.6002"/>
</a>
</g>
</g>
<!-- (*github.com/go&#45;i2p/go&#45;i2p/lib/common/certificate.Certificate).Type -->
<g id="node5" class="node">
<title>(*github.com/go&#45;i2p/go&#45;i2p/lib/common/certificate.Certificate).Type</title>
<g id="a_node5"><a xlink:title="(*github.com/go&#45;i2p/go&#45;i2p/lib/common/certificate.Certificate).Type | defined in certificate.go:116">
<path fill="#ffe4b5" stroke="#000000" stroke-width="1.5" d="M227.8788,-252C227.8788,-252 171.9656,-252 171.9656,-252 165.9656,-252 159.9656,-246 159.9656,-240 159.9656,-240 159.9656,-228 159.9656,-228 159.9656,-222 165.9656,-216 171.9656,-216 171.9656,-216 227.8788,-216 227.8788,-216 233.8788,-216 239.8788,-222 239.8788,-228 239.8788,-228 239.8788,-240 239.8788,-240 239.8788,-246 233.8788,-252 227.8788,-252"/>
<text text-anchor="middle" x="199.9222" y="-238.2" font-family="Verdana" font-size="14.00" fill="#000000">certificate</text>
<text text-anchor="middle" x="199.9222" y="-221.4" font-family="Verdana" font-size="14.00" fill="#000000">Type</text>
</a>
</g>
</g>
<!-- github.com/go&#45;i2p/go&#45;i2p/lib/common/fuzz/certificate.Fuzz&#45;&gt;(*github.com/go&#45;i2p/go&#45;i2p/lib/common/certificate.Certificate).Type -->
<g id="edge4" class="edge">
<title>github.com/go&#45;i2p/go&#45;i2p/lib/common/fuzz/certificate.Fuzz&#45;&gt;(*github.com/go&#45;i2p/go&#45;i2p/lib/common/certificate.Certificate).Type</title>
<g id="a_edge4"><a xlink:title="at fuzz.go:9: calling [(*github.com/go&#45;i2p/go&#45;i2p/lib/common/certificate.Certificate).Type]">
<path fill="none" stroke="#8b4513" d="M70.1769,-159.2759C90.3621,-171.9616 118.6668,-189.4457 144,-204 148.084,-206.3463 152.3634,-208.7456 156.6592,-211.1147"/>
<polygon fill="#8b4513" stroke="#8b4513" points="154.9879,-214.1898 165.4424,-215.9086 158.3415,-208.0455 154.9879,-214.1898"/>
</a>
</g>
</g>
</g>
</svg>
