<?xml version="1.0" encoding="UTF-8" standalone="no"?>
<!DOCTYPE svg PUBLIC "-//W3C//DTD SVG 1.1//EN"
 "http://www.w3.org/Graphics/SVG/1.1/DTD/svg11.dtd">
<!-- Generated by graphviz version 2.40.1 (20161225.0304)
 -->
<!-- Title: gocallvis Pages: 1 -->
<svg width="318pt" height="98pt"
 viewBox="0.00 0.00 317.50 98.00" xmlns="http://www.w3.org/2000/svg" xmlns:xlink="http://www.w3.org/1999/xlink">
<g id="graph0" class="graph" transform="scale(1 1) rotate(0) translate(0 98)">
<title>gocallvis</title>
<polygon fill="#d3d3d3" stroke="transparent" points="0,0 0,-98 317.505,-98 317.505,0 0,0"/>
<g id="clust1" class="cluster">
<title>cluster_focus</title>
<polygon fill="#e6ecfa" stroke="#000000" stroke-width=".5" points="8,-8 8,-90 309.505,-90 309.505,-8 8,-8"/>
<text text-anchor="middle" x="158.7525" y="-69.8" font-family="Arial" font-size="18.00" fill="#000000">exportable</text>
</g>
<!-- github.com/go&#45;i2p/go&#45;i2p/lib/i2np/fuzz/header.Fuzz -->
<g id="node1" class="node">
<title>github.com/go&#45;i2p/go&#45;i2p/lib/i2np/fuzz/header.Fuzz</title>
<g id="a_node1"><a xlink:title="github.com/go&#45;i2p/go&#45;i2p/lib/i2np/fuzz/header.Fuzz | defined in fuzz.go:5&#10;at fuzz.go:6: calling [github.com/go&#45;i2p/go&#45;i2p/lib/i2np.ReadI2NPNTCPHeader]">
<path fill="#add8e6" stroke="#000000" stroke-width="1.5" d="M58,-52C58,-52 28,-52 28,-52 22,-52 16,-46 16,-40 16,-40 16,-28 16,-28 16,-22 22,-16 28,-16 28,-16 58,-16 58,-16 64,-16 70,-22 70,-28 70,-28 70,-40 70,-40 70,-46 64,-52 58,-52"/>
<text text-anchor="middle" x="43" y="-29.8" font-family="Verdana" font-size="14.00" fill="#000000">Fuzz</text>
</a>
</g>
</g>
<!-- github.com/go&#45;i2p/go&#45;i2p/lib/i2np.ReadI2NPNTCPHeader -->
<g id="node2" class="node">
<title>github.com/go&#45;i2p/go&#45;i2p/lib/i2np.ReadI2NPNTCPHeader</title>
<g id="a_node2"><a xlink:title="github.com/go&#45;i2p/go&#45;i2p/lib/i2np.ReadI2NPNTCPHeader | defined in header.go:97">
<path fill="#ffe4b5" stroke="#000000" stroke-width="1.5" d="M289.2583,-52C289.2583,-52 155.2467,-52 155.2467,-52 149.2467,-52 143.2467,-46 143.2467,-40 143.2467,-40 143.2467,-28 143.2467,-28 143.2467,-22 149.2467,-16 155.2467,-16 155.2467,-16 289.2583,-16 289.2583,-16 295.2583,-16 301.2583,-22 301.2583,-28 301.2583,-28 301.2583,-40 301.2583,-40 301.2583,-46 295.2583,-52 289.2583,-52"/>
<text text-anchor="middle" x="222.2525" y="-38.2" font-family="Verdana" font-size="14.00" fill="#000000">i2np</text>
<text text-anchor="middle" x="222.2525" y="-21.4" font-family="Verdana" font-size="14.00" fill="#000000">ReadI2NPNTCPHeader</text>
</a>
</g>
</g>
<!-- github.com/go&#45;i2p/go&#45;i2p/lib/i2np/fuzz/header.Fuzz&#45;&gt;github.com/go&#45;i2p/go&#45;i2p/lib/i2np.ReadI2NPNTCPHeader -->
<g id="edge1" class="edge">
<title>github.com/go&#45;i2p/go&#45;i2p/lib/i2np/fuzz/header.Fuzz&#45;&gt;github.com/go&#45;i2p/go&#45;i2p/lib/i2np.ReadI2NPNTCPHeader</title>
<g id="a_edge1"><a xlink:title="at fuzz.go:6: calling [github.com/go&#45;i2p/go&#45;i2p/lib/i2np.ReadI2NPNTCPHeader]">
<path fill="none" stroke="#8b4513" d="M70.2246,-34C87.2023,-34 110.1106,-34 132.9875,-34"/>
<polygon fill="#8b4513" stroke="#8b4513" points="133.1223,-37.5001 143.1222,-34 133.1222,-30.5001 133.1223,-37.5001"/>
</a>
</g>
</g>
</g>
</svg>
