<?xml version="1.0" encoding="UTF-8" standalone="no"?>
<!DOCTYPE svg PUBLIC "-//W3C//DTD SVG 1.1//EN"
 "http://www.w3.org/Graphics/SVG/1.1/DTD/svg11.dtd">
<!-- Generated by graphviz version 2.40.1 (20161225.0304)
 -->
<!-- Title: gocallvis Pages: 1 -->
<svg width="257pt" height="245pt"
 viewBox="0.00 0.00 257.22 245.00" xmlns="http://www.w3.org/2000/svg" xmlns:xlink="http://www.w3.org/1999/xlink">
<g id="graph0" class="graph" transform="scale(1 1) rotate(0) translate(0 245)">
<title>gocallvis</title>
<polygon fill="#d3d3d3" stroke="transparent" points="0,0 0,-245 257.2202,-245 257.2202,0 0,0"/>
<g id="clust1" class="cluster">
<title>cluster_focus</title>
<polygon fill="#e6ecfa" stroke="#000000" stroke-width=".5" points="8,-8 8,-237 249.2202,-237 249.2202,-8 8,-8"/>
<text text-anchor="middle" x="128.6101" y="-216.8" font-family="Arial" font-size="18.00" fill="#000000">exportable</text>
</g>
<g id="clust2" class="cluster">
<title>cluster_github.com/go&#45;i2p/go&#45;i2p/lib/common/data.I2PString</title>
<g id="a_clust2"><a xlink:title="type: github.com/go&#45;i2p/go&#45;i2p/lib/common/data.I2PString">
<path fill="#eed8ae" stroke="#000000" stroke-width=".5" d="M162.7812,-60C162.7812,-60 226.439,-60 226.439,-60 232.439,-60 238.439,-66 238.439,-72 238.439,-72 238.439,-187 238.439,-187 238.439,-193 232.439,-199 226.439,-199 226.439,-199 162.7812,-199 162.7812,-199 156.7812,-199 150.7812,-193 150.7812,-187 150.7812,-187 150.7812,-72 150.7812,-72 150.7812,-66 156.7812,-60 162.7812,-60"/>
<text text-anchor="middle" x="194.6101" y="-68.5" font-family="Arial" font-size="15.00" fill="#222222">(I2PString)</text>
</a>
</g>
</g>
<!-- github.com/go&#45;i2p/go&#45;i2p/lib/common/fuzz/string.Fuzz -->
<g id="node1" class="node">
<title>github.com/go&#45;i2p/go&#45;i2p/lib/common/fuzz/string.Fuzz</title>
<g id="a_node1"><a xlink:title="github.com/go&#45;i2p/go&#45;i2p/lib/common/fuzz/string.Fuzz | defined in fuzz.go:5&#10;at fuzz.go:8: calling [(github.com/go&#45;i2p/go&#45;i2p/lib/common/data.I2PString).Length]&#10;at fuzz.go:11: calling [(github.com/go&#45;i2p/go&#45;i2p/lib/common/data.I2PString).Length]&#10;at fuzz.go:9: calling [github.com/go&#45;i2p/go&#45;i2p/lib/common/data.ToI2PString]&#10;at fuzz.go:7: calling [(github.com/go&#45;i2p/go&#45;i2p/lib/common/data.I2PString).Data]&#10;at fuzz.go:10: calling [(github.com/go&#45;i2p/go&#45;i2p/lib/common/data.I2PString).Data]">
<path fill="#add8e6" stroke="#000000" stroke-width="1.5" d="M58,-130C58,-130 28,-130 28,-130 22,-130 16,-124 16,-118 16,-118 16,-106 16,-106 16,-100 22,-94 28,-94 28,-94 58,-94 58,-94 64,-94 70,-100 70,-106 70,-106 70,-118 70,-118 70,-124 64,-130 58,-130"/>
<text text-anchor="middle" x="43" y="-107.8" font-family="Verdana" font-size="14.00" fill="#000000">Fuzz</text>
</a>
</g>
</g>
<!-- github.com/go&#45;i2p/go&#45;i2p/lib/common/data.ToI2PString -->
<g id="node2" class="node">
<title>github.com/go&#45;i2p/go&#45;i2p/lib/common/data.ToI2PString</title>
<g id="a_node2"><a xlink:title="github.com/go&#45;i2p/go&#45;i2p/lib/common/data.ToI2PString | defined in string.go:114">
<path fill="#ffe4b5" stroke="#000000" stroke-width="1.5" d="M229.3306,-52C229.3306,-52 159.8896,-52 159.8896,-52 153.8896,-52 147.8896,-46 147.8896,-40 147.8896,-40 147.8896,-28 147.8896,-28 147.8896,-22 153.8896,-16 159.8896,-16 159.8896,-16 229.3306,-16 229.3306,-16 235.3306,-16 241.3306,-22 241.3306,-28 241.3306,-28 241.3306,-40 241.3306,-40 241.3306,-46 235.3306,-52 229.3306,-52"/>
<text text-anchor="middle" x="194.6101" y="-38.2" font-family="Verdana" font-size="14.00" fill="#000000">data</text>
<text text-anchor="middle" x="194.6101" y="-21.4" font-family="Verdana" font-size="14.00" fill="#000000">ToI2PString</text>
</a>
</g>
</g>
<!-- github.com/go&#45;i2p/go&#45;i2p/lib/common/fuzz/string.Fuzz&#45;&gt;github.com/go&#45;i2p/go&#45;i2p/lib/common/data.ToI2PString -->
<g id="edge2" class="edge">
<title>github.com/go&#45;i2p/go&#45;i2p/lib/common/fuzz/string.Fuzz&#45;&gt;github.com/go&#45;i2p/go&#45;i2p/lib/common/data.ToI2PString</title>
<g id="a_edge2"><a xlink:title="at fuzz.go:9: calling [github.com/go&#45;i2p/go&#45;i2p/lib/common/data.ToI2PString]">
<path fill="none" stroke="#8b4513" d="M70.0043,-97.129C89.2049,-86.6594 115.8894,-72.3156 146.6535,-56.7465"/>
<polygon fill="#8b4513" stroke="#8b4513" points="148.5211,-59.7249 155.8799,-52.1027 145.374,-53.4722 148.5211,-59.7249"/>
</a>
</g>
</g>
<!-- (github.com/go&#45;i2p/go&#45;i2p/lib/common/data.I2PString).Data -->
<g id="node3" class="node">
<title>(github.com/go&#45;i2p/go&#45;i2p/lib/common/data.I2PString).Data</title>
<g id="a_node3"><a xlink:title="(github.com/go&#45;i2p/go&#45;i2p/lib/common/data.I2PString).Data | defined in string.go:73">
<path fill="#ffe4b5" stroke="#000000" stroke-width="1.5" d="M209.6101,-130C209.6101,-130 179.6101,-130 179.6101,-130 173.6101,-130 167.6101,-124 167.6101,-118 167.6101,-118 167.6101,-106 167.6101,-106 167.6101,-100 173.6101,-94 179.6101,-94 179.6101,-94 209.6101,-94 209.6101,-94 215.6101,-94 221.6101,-100 221.6101,-106 221.6101,-106 221.6101,-118 221.6101,-118 221.6101,-124 215.6101,-130 209.6101,-130"/>
<text text-anchor="middle" x="194.6101" y="-116.2" font-family="Verdana" font-size="14.00" fill="#000000">data</text>
<text text-anchor="middle" x="194.6101" y="-99.4" font-family="Verdana" font-size="14.00" fill="#000000">Data</text>
</a>
</g>
</g>
<!-- github.com/go&#45;i2p/go&#45;i2p/lib/common/fuzz/string.Fuzz&#45;&gt;(github.com/go&#45;i2p/go&#45;i2p/lib/common/data.I2PString).Data -->
<g id="edge3" class="edge">
<title>github.com/go&#45;i2p/go&#45;i2p/lib/common/fuzz/string.Fuzz&#45;&gt;(github.com/go&#45;i2p/go&#45;i2p/lib/common/data.I2PString).Data</title>
<g id="a_edge3"><a xlink:title="at fuzz.go:7: calling [(github.com/go&#45;i2p/go&#45;i2p/lib/common/data.I2PString).Data]&#10;at fuzz.go:10: calling [(github.com/go&#45;i2p/go&#45;i2p/lib/common/data.I2PString).Data]">
<path fill="none" stroke="#8b4513" d="M70.1048,-112C94.3917,-112 130.2444,-112 157.2471,-112"/>
<polygon fill="#8b4513" stroke="#8b4513" points="157.4848,-115.5001 167.4848,-112 157.4847,-108.5001 157.4848,-115.5001"/>
</a>
</g>
</g>
<!-- (github.com/go&#45;i2p/go&#45;i2p/lib/common/data.I2PString).Length -->
<g id="node4" class="node">
<title>(github.com/go&#45;i2p/go&#45;i2p/lib/common/data.I2PString).Length</title>
<g id="a_node4"><a xlink:title="(github.com/go&#45;i2p/go&#45;i2p/lib/common/data.I2PString).Length | defined in string.go:31">
<path fill="#ffe4b5" stroke="#000000" stroke-width="1.5" d="M214.2688,-191C214.2688,-191 174.9514,-191 174.9514,-191 168.9514,-191 162.9514,-185 162.9514,-179 162.9514,-179 162.9514,-167 162.9514,-167 162.9514,-161 168.9514,-155 174.9514,-155 174.9514,-155 214.2688,-155 214.2688,-155 220.2688,-155 226.2688,-161 226.2688,-167 226.2688,-167 226.2688,-179 226.2688,-179 226.2688,-185 220.2688,-191 214.2688,-191"/>
<text text-anchor="middle" x="194.6101" y="-177.2" font-family="Verdana" font-size="14.00" fill="#000000">data</text>
<text text-anchor="middle" x="194.6101" y="-160.4" font-family="Verdana" font-size="14.00" fill="#000000">Length</text>
</a>
</g>
</g>
<!-- github.com/go&#45;i2p/go&#45;i2p/lib/common/fuzz/string.Fuzz&#45;&gt;(github.com/go&#45;i2p/go&#45;i2p/lib/common/data.I2PString).Length -->
<g id="edge1" class="edge">
<title>github.com/go&#45;i2p/go&#45;i2p/lib/common/fuzz/string.Fuzz&#45;&gt;(github.com/go&#45;i2p/go&#45;i2p/lib/common/data.I2PString).Length</title>
<g id="a_edge1"><a xlink:title="at fuzz.go:8: calling [(github.com/go&#45;i2p/go&#45;i2p/lib/common/data.I2PString).Length]&#10;at fuzz.go:11: calling [(github.com/go&#45;i2p/go&#45;i2p/lib/common/data.I2PString).Length]">
<path fill="none" stroke="#8b4513" d="M70.1048,-122.9056C93.2412,-132.2144 126.8736,-145.7464 153.3522,-156.4"/>
<polygon fill="#8b4513" stroke="#8b4513" points="152.1674,-159.6959 162.7511,-160.1816 154.7804,-153.2018 152.1674,-159.6959"/>
</a>
</g>
</g>
</g>
</svg>
