<?xml version="1.0" encoding="UTF-8" standalone="no"?>
<!DOCTYPE svg PUBLIC "-//W3C//DTD SVG 1.1//EN"
 "http://www.w3.org/Graphics/SVG/1.1/DTD/svg11.dtd">
<!-- Generated by graphviz version 2.40.1 (20161225.0304)
 -->
<!-- Title: gocallvis Pages: 1 -->
<svg width="374pt" height="306pt"
 viewBox="0.00 0.00 374.02 306.00" xmlns="http://www.w3.org/2000/svg" xmlns:xlink="http://www.w3.org/1999/xlink">
<g id="graph0" class="graph" transform="scale(1 1) rotate(0) translate(0 306)">
<title>gocallvis</title>
<polygon fill="#d3d3d3" stroke="transparent" points="0,0 0,-306 374.0184,-306 374.0184,0 0,0"/>
<g id="clust1" class="cluster">
<title>cluster_focus</title>
<polygon fill="#e6ecfa" stroke="#000000" stroke-width=".5" points="8,-8 8,-298 366.0184,-298 366.0184,-8 8,-8"/>
<text text-anchor="middle" x="187.0092" y="-277.8" font-family="Arial" font-size="18.00" fill="#000000">handshake</text>
</g>
<g id="clust2" class="cluster">
<title>cluster_*github.com/go&#45;i2p/go&#45;i2p/lib/transport/ntcp/handshake.HandshakeState</title>
<g id="a_clust2"><a xlink:title="type: *github.com/go&#45;i2p/go&#45;i2p/lib/transport/ntcp/handshake.HandshakeState">
<path fill="#b0c4de" stroke="#000000" stroke-width=".5" d="M28,-60C28,-60 160.6326,-60 160.6326,-60 166.6326,-60 172.6326,-66 172.6326,-72 172.6326,-72 172.6326,-248 172.6326,-248 172.6326,-254 166.6326,-260 160.6326,-260 160.6326,-260 28,-260 28,-260 22,-260 16,-254 16,-248 16,-248 16,-72 16,-72 16,-66 22,-60 28,-60"/>
<text text-anchor="middle" x="94.3163" y="-68.5" font-family="Arial" font-size="15.00" fill="#222222">(*HandshakeState)</text>
</a>
</g>
</g>
<!-- github.com/samber/oops.Errorf -->
<g id="node1" class="node">
<title>github.com/samber/oops.Errorf</title>
<g id="a_node1"><a xlink:title="github.com/samber/oops.Errorf | defined in oops.go:34">
<path fill="#ffe4b5" stroke="#000000" stroke-width="1.5" d="M315.0208,-167C315.0208,-167 280.6302,-167 280.6302,-167 274.6302,-167 268.6302,-161 268.6302,-155 268.6302,-155 268.6302,-143 268.6302,-143 268.6302,-137 274.6302,-131 280.6302,-131 280.6302,-131 315.0208,-131 315.0208,-131 321.0208,-131 327.0208,-137 327.0208,-143 327.0208,-143 327.0208,-155 327.0208,-155 327.0208,-161 321.0208,-167 315.0208,-167"/>
<text text-anchor="middle" x="297.8255" y="-153.2" font-family="Verdana" font-size="14.00" fill="#000000">oops</text>
<text text-anchor="middle" x="297.8255" y="-136.4" font-family="Verdana" font-size="14.00" fill="#000000">Errorf</text>
</a>
</g>
</g>
<!-- github.com/go&#45;i2p/go&#45;i2p/lib/transport/ntcp/handshake.NewHandshakeState -->
<g id="node2" class="node">
<title>github.com/go&#45;i2p/go&#45;i2p/lib/transport/ntcp/handshake.NewHandshakeState</title>
<g id="a_node2"><a xlink:title="github.com/go&#45;i2p/go&#45;i2p/lib/transport/ntcp/handshake.NewHandshakeState | defined in handshake.go:78&#10;at handshake.go:98: calling [github.com/go&#45;i2p/go&#45;i2p/lib/crypto/curve25519.GenerateKeyPair]&#10;at handshake.go:101: calling [github.com/samber/oops.Errorf]&#10;at handshake.go:107: calling [github.com/samber/oops.Errorf]">
<path fill="#add8e6" stroke="#000000" stroke-width="1.5" d="M152.4326,-52C152.4326,-52 36.2,-52 36.2,-52 30.2,-52 24.2,-46 24.2,-40 24.2,-40 24.2,-28 24.2,-28 24.2,-22 30.2,-16 36.2,-16 36.2,-16 152.4326,-16 152.4326,-16 158.4326,-16 164.4326,-22 164.4326,-28 164.4326,-28 164.4326,-40 164.4326,-40 164.4326,-46 158.4326,-52 152.4326,-52"/>
<text text-anchor="middle" x="94.3163" y="-29.8" font-family="Verdana" font-size="14.00" fill="#000000">NewHandshakeState</text>
</a>
</g>
</g>
<!-- github.com/go&#45;i2p/go&#45;i2p/lib/transport/ntcp/handshake.NewHandshakeState&#45;&gt;github.com/samber/oops.Errorf -->
<g id="edge6" class="edge">
<title>github.com/go&#45;i2p/go&#45;i2p/lib/transport/ntcp/handshake.NewHandshakeState&#45;&gt;github.com/samber/oops.Errorf</title>
<g id="a_edge6"><a xlink:title="at handshake.go:101: calling [github.com/samber/oops.Errorf]&#10;at handshake.go:107: calling [github.com/samber/oops.Errorf]">
<path fill="none" stroke="#8b4513" d="M164.0061,-52.1084C166.9555,-53.3343 169.8436,-54.6307 172.6326,-56 192.2937,-65.6526 237.1068,-100.2496 267.4276,-124.4066"/>
<polygon fill="#8b4513" stroke="#8b4513" points="265.5671,-127.4003 275.5624,-130.9138 269.9397,-121.934 265.5671,-127.4003"/>
</a>
</g>
</g>
<!-- github.com/go&#45;i2p/go&#45;i2p/lib/crypto/curve25519.GenerateKeyPair -->
<g id="node3" class="node">
<title>github.com/go&#45;i2p/go&#45;i2p/lib/crypto/curve25519.GenerateKeyPair</title>
<g id="a_node3"><a xlink:title="github.com/go&#45;i2p/go&#45;i2p/lib/crypto/curve25519.GenerateKeyPair | defined in curve25519.go:24">
<path fill="#ffe4b5" stroke="#000000" stroke-width="1.5" d="M346.2119,-86C346.2119,-86 249.4391,-86 249.4391,-86 243.4391,-86 237.4391,-80 237.4391,-74 237.4391,-74 237.4391,-62 237.4391,-62 237.4391,-56 243.4391,-50 249.4391,-50 249.4391,-50 346.2119,-50 346.2119,-50 352.2119,-50 358.2119,-56 358.2119,-62 358.2119,-62 358.2119,-74 358.2119,-74 358.2119,-80 352.2119,-86 346.2119,-86"/>
<text text-anchor="middle" x="297.8255" y="-72.2" font-family="Verdana" font-size="14.00" fill="#000000">curve25519</text>
<text text-anchor="middle" x="297.8255" y="-55.4" font-family="Verdana" font-size="14.00" fill="#000000">GenerateKeyPair</text>
</a>
</g>
</g>
<!-- github.com/go&#45;i2p/go&#45;i2p/lib/transport/ntcp/handshake.NewHandshakeState&#45;&gt;github.com/go&#45;i2p/go&#45;i2p/lib/crypto/curve25519.GenerateKeyPair -->
<g id="edge5" class="edge">
<title>github.com/go&#45;i2p/go&#45;i2p/lib/transport/ntcp/handshake.NewHandshakeState&#45;&gt;github.com/go&#45;i2p/go&#45;i2p/lib/crypto/curve25519.GenerateKeyPair</title>
<g id="a_edge5"><a xlink:title="at handshake.go:98: calling [github.com/go&#45;i2p/go&#45;i2p/lib/crypto/curve25519.GenerateKeyPair]">
<path fill="none" stroke="#8b4513" d="M164.6376,-45.7485C184.8842,-49.1311 206.9719,-52.8212 227.2347,-56.2065"/>
<polygon fill="#8b4513" stroke="#8b4513" points="226.8909,-59.6975 237.331,-57.8933 228.0445,-52.7932 226.8909,-59.6975"/>
</a>
</g>
</g>
<!-- (*github.com/go&#45;i2p/go&#45;i2p/lib/transport/ntcp/handshake.HandshakeState).WriteMessage -->
<g id="node4" class="node">
<title>(*github.com/go&#45;i2p/go&#45;i2p/lib/transport/ntcp/handshake.HandshakeState).WriteMessage</title>
<g id="a_node4"><a xlink:title="(*github.com/go&#45;i2p/go&#45;i2p/lib/transport/ntcp/handshake.HandshakeState).WriteMessage | defined in methods.go:66&#10;at methods.go:67: calling [github.com/samber/oops.Errorf]">
<path fill="#add8e6" stroke="#000000" stroke-width="1.5" d="M134.665,-191C134.665,-191 53.9676,-191 53.9676,-191 47.9676,-191 41.9676,-185 41.9676,-179 41.9676,-179 41.9676,-167 41.9676,-167 41.9676,-161 47.9676,-155 53.9676,-155 53.9676,-155 134.665,-155 134.665,-155 140.665,-155 146.665,-161 146.665,-167 146.665,-167 146.665,-179 146.665,-179 146.665,-185 140.665,-191 134.665,-191"/>
<text text-anchor="middle" x="94.3163" y="-168.8" font-family="Verdana" font-size="14.00" fill="#000000">WriteMessage</text>
</a>
</g>
</g>
<!-- (*github.com/go&#45;i2p/go&#45;i2p/lib/transport/ntcp/handshake.HandshakeState).WriteMessage&#45;&gt;github.com/samber/oops.Errorf -->
<g id="edge3" class="edge">
<title>(*github.com/go&#45;i2p/go&#45;i2p/lib/transport/ntcp/handshake.HandshakeState).WriteMessage&#45;&gt;github.com/samber/oops.Errorf</title>
<g id="a_edge3"><a xlink:title="at methods.go:67: calling [github.com/samber/oops.Errorf]">
<path fill="none" stroke="#8b4513" d="M146.725,-166.8194C181.5362,-162.7141 226.5141,-157.4098 258.3176,-153.6592"/>
<polygon fill="#8b4513" stroke="#8b4513" points="259.0431,-157.098 268.5644,-152.4508 258.2233,-150.1462 259.0431,-157.098"/>
</a>
</g>
</g>
<!-- (*github.com/go&#45;i2p/go&#45;i2p/lib/transport/ntcp/handshake.HandshakeState).CompleteHandshake -->
<g id="node5" class="node">
<title>(*github.com/go&#45;i2p/go&#45;i2p/lib/transport/ntcp/handshake.HandshakeState).CompleteHandshake</title>
<g id="a_node5"><a xlink:title="(*github.com/go&#45;i2p/go&#45;i2p/lib/transport/ntcp/handshake.HandshakeState).CompleteHandshake | defined in methods.go:10&#10;at methods.go:13: calling [github.com/samber/oops.Errorf]&#10;at methods.go:17: calling [github.com/samber/oops.Errorf]&#10;at methods.go:21: calling [github.com/samber/oops.Errorf]">
<path fill="#add8e6" stroke="#000000" stroke-width="1.5" d="M152.4494,-252C152.4494,-252 36.1832,-252 36.1832,-252 30.1832,-252 24.1832,-246 24.1832,-240 24.1832,-240 24.1832,-228 24.1832,-228 24.1832,-222 30.1832,-216 36.1832,-216 36.1832,-216 152.4494,-216 152.4494,-216 158.4494,-216 164.4494,-222 164.4494,-228 164.4494,-228 164.4494,-240 164.4494,-240 164.4494,-246 158.4494,-252 152.4494,-252"/>
<text text-anchor="middle" x="94.3163" y="-229.8" font-family="Verdana" font-size="14.00" fill="#000000">CompleteHandshake</text>
</a>
</g>
</g>
<!-- (*github.com/go&#45;i2p/go&#45;i2p/lib/transport/ntcp/handshake.HandshakeState).CompleteHandshake&#45;&gt;github.com/samber/oops.Errorf -->
<g id="edge4" class="edge">
<title>(*github.com/go&#45;i2p/go&#45;i2p/lib/transport/ntcp/handshake.HandshakeState).CompleteHandshake&#45;&gt;github.com/samber/oops.Errorf</title>
<g id="a_edge4"><a xlink:title="at methods.go:13: calling [github.com/samber/oops.Errorf]&#10;at methods.go:17: calling [github.com/samber/oops.Errorf]&#10;at methods.go:21: calling [github.com/samber/oops.Errorf]">
<path fill="none" stroke="#8b4513" d="M142.5048,-215.9594C152.499,-212.1007 162.9361,-207.9844 172.6326,-204 201.904,-191.972 234.6371,-177.5571 259.2897,-166.5026"/>
<polygon fill="#8b4513" stroke="#8b4513" points="260.9686,-169.5853 268.653,-162.2915 258.0973,-163.2013 260.9686,-169.5853"/>
</a>
</g>
</g>
<!-- (*github.com/go&#45;i2p/go&#45;i2p/lib/transport/ntcp/handshake.HandshakeState).GenerateEphemeral -->
<g id="node6" class="node">
<title>(*github.com/go&#45;i2p/go&#45;i2p/lib/transport/ntcp/handshake.HandshakeState).GenerateEphemeral</title>
<g id="a_node6"><a xlink:title="(*github.com/go&#45;i2p/go&#45;i2p/lib/transport/ntcp/handshake.HandshakeState).GenerateEphemeral | defined in methods.go:27&#10;at methods.go:31: calling [github.com/go&#45;i2p/go&#45;i2p/lib/crypto/curve25519.GenerateKeyPair]&#10;at methods.go:33: calling [github.com/samber/oops.Errorf]&#10;at methods.go:40: calling [github.com/samber/oops.Errorf]">
<path fill="#add8e6" stroke="#000000" stroke-width="1.5" d="M149.9708,-130C149.9708,-130 38.6618,-130 38.6618,-130 32.6618,-130 26.6618,-124 26.6618,-118 26.6618,-118 26.6618,-106 26.6618,-106 26.6618,-100 32.6618,-94 38.6618,-94 38.6618,-94 149.9708,-94 149.9708,-94 155.9708,-94 161.9708,-100 161.9708,-106 161.9708,-106 161.9708,-118 161.9708,-118 161.9708,-124 155.9708,-130 149.9708,-130"/>
<text text-anchor="middle" x="94.3163" y="-107.8" font-family="Verdana" font-size="14.00" fill="#000000">GenerateEphemeral</text>
</a>
</g>
</g>
<!-- (*github.com/go&#45;i2p/go&#45;i2p/lib/transport/ntcp/handshake.HandshakeState).GenerateEphemeral&#45;&gt;github.com/samber/oops.Errorf -->
<g id="edge2" class="edge">
<title>(*github.com/go&#45;i2p/go&#45;i2p/lib/transport/ntcp/handshake.HandshakeState).GenerateEphemeral&#45;&gt;github.com/samber/oops.Errorf</title>
<g id="a_edge2"><a xlink:title="at methods.go:33: calling [github.com/samber/oops.Errorf]&#10;at methods.go:40: calling [github.com/samber/oops.Errorf]">
<path fill="none" stroke="#8b4513" d="M162.0819,-124.3205C194.1733,-130.155 231.3605,-136.916 258.689,-141.8846"/>
<polygon fill="#8b4513" stroke="#8b4513" points="258.1842,-145.3501 268.649,-143.6954 259.4364,-138.463 258.1842,-145.3501"/>
</a>
</g>
</g>
<!-- (*github.com/go&#45;i2p/go&#45;i2p/lib/transport/ntcp/handshake.HandshakeState).GenerateEphemeral&#45;&gt;github.com/go&#45;i2p/go&#45;i2p/lib/crypto/curve25519.GenerateKeyPair -->
<g id="edge1" class="edge">
<title>(*github.com/go&#45;i2p/go&#45;i2p/lib/transport/ntcp/handshake.HandshakeState).GenerateEphemeral&#45;&gt;github.com/go&#45;i2p/go&#45;i2p/lib/crypto/curve25519.GenerateKeyPair</title>
<g id="a_edge1"><a xlink:title="at methods.go:31: calling [github.com/go&#45;i2p/go&#45;i2p/lib/crypto/curve25519.GenerateKeyPair]">
<path fill="none" stroke="#8b4513" d="M162.0819,-97.3486C183.1436,-92.795 206.4003,-87.7667 227.6243,-83.178"/>
<polygon fill="#8b4513" stroke="#8b4513" points="228.5039,-86.5687 237.5384,-81.0345 227.0245,-79.7268 228.5039,-86.5687"/>
</a>
</g>
</g>
</g>
</svg>
