<?xml version="1.0" encoding="UTF-8" standalone="no"?>
<!DOCTYPE svg PUBLIC "-//W3C//DTD SVG 1.1//EN"
 "http://www.w3.org/Graphics/SVG/1.1/DTD/svg11.dtd">
<!-- Generated by graphviz version 2.40.1 (20161225.0304)
 -->
<!-- Title: gocallvis Pages: 1 -->
<svg width="368pt" height="445pt"
 viewBox="0.00 0.00 367.78 445.00" xmlns="http://www.w3.org/2000/svg" xmlns:xlink="http://www.w3.org/1999/xlink">
<g id="graph0" class="graph" transform="scale(1 1) rotate(0) translate(0 445)">
<title>gocallvis</title>
<polygon fill="#d3d3d3" stroke="transparent" points="0,0 0,-445 367.7758,-445 367.7758,0 0,0"/>
<g id="clust1" class="cluster">
<title>cluster_focus</title>
<polygon fill="#e6ecfa" stroke="#000000" stroke-width=".5" points="8,-8 8,-437 359.7758,-437 359.7758,-8 8,-8"/>
<text text-anchor="middle" x="183.8879" y="-416.8" font-family="Arial" font-size="18.00" fill="#000000">kdf</text>
</g>
<g id="clust2" class="cluster">
<title>cluster_*github.com/go&#45;i2p/go&#45;i2p/lib/transport/ntcp/kdf.NTCP2KDF</title>
<g id="a_clust2"><a xlink:title="type: *github.com/go&#45;i2p/go&#45;i2p/lib/transport/ntcp/kdf.NTCP2KDF">
<path fill="#b0c4de" stroke="#000000" stroke-width=".5" d="M28,-16C28,-16 216.5808,-16 216.5808,-16 222.5808,-16 228.5808,-22 228.5808,-28 228.5808,-28 228.5808,-387 228.5808,-387 228.5808,-393 222.5808,-399 216.5808,-399 216.5808,-399 28,-399 28,-399 22,-399 16,-393 16,-387 16,-387 16,-28 16,-28 16,-22 22,-16 28,-16"/>
<text text-anchor="middle" x="122.2904" y="-24.5" font-family="Arial" font-size="15.00" fill="#222222">(*NTCP2KDF)</text>
</a>
</g>
</g>
<!-- github.com/samber/oops.Errorf -->
<g id="node1" class="node">
<title>github.com/samber/oops.Errorf</title>
<g id="a_node1"><a xlink:title="github.com/samber/oops.Errorf | defined in oops.go:34">
<path fill="#ffe4b5" stroke="#000000" stroke-width="1.5" d="M339.8736,-238C339.8736,-238 305.483,-238 305.483,-238 299.483,-238 293.483,-232 293.483,-226 293.483,-226 293.483,-214 293.483,-214 293.483,-208 299.483,-202 305.483,-202 305.483,-202 339.8736,-202 339.8736,-202 345.8736,-202 351.8736,-208 351.8736,-214 351.8736,-214 351.8736,-226 351.8736,-226 351.8736,-232 345.8736,-238 339.8736,-238"/>
<text text-anchor="middle" x="322.6783" y="-224.2" font-family="Verdana" font-size="14.00" fill="#000000">oops</text>
<text text-anchor="middle" x="322.6783" y="-207.4" font-family="Verdana" font-size="14.00" fill="#000000">Errorf</text>
</a>
</g>
</g>
<!-- (*github.com/go&#45;i2p/go&#45;i2p/lib/transport/ntcp/kdf.NTCP2KDF).DeriveSipHashKey -->
<g id="node2" class="node">
<title>(*github.com/go&#45;i2p/go&#45;i2p/lib/transport/ntcp/kdf.NTCP2KDF).DeriveSipHashKey</title>
<g id="a_node2"><a xlink:title="(*github.com/go&#45;i2p/go&#45;i2p/lib/transport/ntcp/kdf.NTCP2KDF).DeriveSipHashKey | defined in kdf.go:112&#10;at kdf.go:116: calling [github.com/samber/oops.Errorf]&#10;at kdf.go:119: calling [github.com/samber/oops.Errorf]&#10;at kdf.go:126: calling [github.com/samber/oops.Errorf]&#10;at kdf.go:129: calling [github.com/samber/oops.Errorf]&#10;at kdf.go:135: calling [github.com/samber/oops.Errorf]">
<path fill="#add8e6" stroke="#000000" stroke-width="1.5" d="M176.6377,-86C176.6377,-86 67.9431,-86 67.9431,-86 61.9431,-86 55.9431,-80 55.9431,-74 55.9431,-74 55.9431,-62 55.9431,-62 55.9431,-56 61.9431,-50 67.9431,-50 67.9431,-50 176.6377,-50 176.6377,-50 182.6377,-50 188.6377,-56 188.6377,-62 188.6377,-62 188.6377,-74 188.6377,-74 188.6377,-80 182.6377,-86 176.6377,-86"/>
<text text-anchor="middle" x="122.2904" y="-63.8" font-family="Verdana" font-size="14.00" fill="#000000">DeriveSipHashKey</text>
</a>
</g>
</g>
<!-- (*github.com/go&#45;i2p/go&#45;i2p/lib/transport/ntcp/kdf.NTCP2KDF).DeriveSipHashKey&#45;&gt;github.com/samber/oops.Errorf -->
<g id="edge1" class="edge">
<title>(*github.com/go&#45;i2p/go&#45;i2p/lib/transport/ntcp/kdf.NTCP2KDF).DeriveSipHashKey&#45;&gt;github.com/samber/oops.Errorf</title>
<g id="a_edge1"><a xlink:title="at kdf.go:116: calling [github.com/samber/oops.Errorf]&#10;at kdf.go:119: calling [github.com/samber/oops.Errorf]&#10;at kdf.go:126: calling [github.com/samber/oops.Errorf]&#10;at kdf.go:129: calling [github.com/samber/oops.Errorf]&#10;at kdf.go:135: calling [github.com/samber/oops.Errorf]">
<path fill="none" stroke="#8b4513" d="M188.6745,-80.4262C202.5959,-84.8824 216.6564,-90.8979 228.5808,-99 264.375,-123.3205 292.6637,-165.5676 308.539,-193.1531"/>
<polygon fill="#8b4513" stroke="#8b4513" points="305.4981,-194.8862 313.4398,-201.899 311.6047,-191.4643 305.4981,-194.8862"/>
</a>
</g>
</g>
<!-- (*github.com/go&#45;i2p/go&#45;i2p/lib/transport/ntcp/kdf.NTCP2KDF).MixKey -->
<g id="node3" class="node">
<title>(*github.com/go&#45;i2p/go&#45;i2p/lib/transport/ntcp/kdf.NTCP2KDF).MixKey</title>
<g id="a_node3"><a xlink:title="(*github.com/go&#45;i2p/go&#45;i2p/lib/transport/ntcp/kdf.NTCP2KDF).MixKey | defined in kdf.go:37&#10;at kdf.go:39: calling [github.com/samber/oops.Errorf]&#10;at kdf.go:45: calling [github.com/samber/oops.Errorf]&#10;at kdf.go:52: calling [github.com/samber/oops.Errorf]&#10;at kdf.go:59: calling [github.com/samber/oops.Errorf]">
<path fill="#add8e6" stroke="#000000" stroke-width="1.5" d="M145.4476,-147C145.4476,-147 99.1332,-147 99.1332,-147 93.1332,-147 87.1332,-141 87.1332,-135 87.1332,-135 87.1332,-123 87.1332,-123 87.1332,-117 93.1332,-111 99.1332,-111 99.1332,-111 145.4476,-111 145.4476,-111 151.4476,-111 157.4476,-117 157.4476,-123 157.4476,-123 157.4476,-135 157.4476,-135 157.4476,-141 151.4476,-147 145.4476,-147"/>
<text text-anchor="middle" x="122.2904" y="-124.8" font-family="Verdana" font-size="14.00" fill="#000000">MixKey</text>
</a>
</g>
</g>
<!-- (*github.com/go&#45;i2p/go&#45;i2p/lib/transport/ntcp/kdf.NTCP2KDF).MixKey&#45;&gt;github.com/samber/oops.Errorf -->
<g id="edge2" class="edge">
<title>(*github.com/go&#45;i2p/go&#45;i2p/lib/transport/ntcp/kdf.NTCP2KDF).MixKey&#45;&gt;github.com/samber/oops.Errorf</title>
<g id="a_edge2"><a xlink:title="at kdf.go:39: calling [github.com/samber/oops.Errorf]&#10;at kdf.go:45: calling [github.com/samber/oops.Errorf]&#10;at kdf.go:52: calling [github.com/samber/oops.Errorf]&#10;at kdf.go:59: calling [github.com/samber/oops.Errorf]">
<path fill="none" stroke="#8b4513" d="M157.6506,-136.6371C178.7686,-141.8477 205.8225,-149.6805 228.5808,-160 250.2655,-169.8327 272.8149,-184.0515 290.4018,-196.1797"/>
<polygon fill="#8b4513" stroke="#8b4513" points="288.4143,-199.0607 298.6112,-201.9371 292.4337,-193.3297 288.4143,-199.0607"/>
</a>
</g>
</g>
<!-- (*github.com/go&#45;i2p/go&#45;i2p/lib/transport/ntcp/kdf.NTCP2KDF).DeriveFramingKey -->
<g id="node4" class="node">
<title>(*github.com/go&#45;i2p/go&#45;i2p/lib/transport/ntcp/kdf.NTCP2KDF).DeriveFramingKey</title>
<g id="a_node4"><a xlink:title="(*github.com/go&#45;i2p/go&#45;i2p/lib/transport/ntcp/kdf.NTCP2KDF).DeriveFramingKey | defined in kdf.go:144&#10;at kdf.go:148: calling [github.com/samber/oops.Errorf]">
<path fill="#add8e6" stroke="#000000" stroke-width="1.5" d="M176.6377,-208C176.6377,-208 67.9431,-208 67.9431,-208 61.9431,-208 55.9431,-202 55.9431,-196 55.9431,-196 55.9431,-184 55.9431,-184 55.9431,-178 61.9431,-172 67.9431,-172 67.9431,-172 176.6377,-172 176.6377,-172 182.6377,-172 188.6377,-178 188.6377,-184 188.6377,-184 188.6377,-196 188.6377,-196 188.6377,-202 182.6377,-208 176.6377,-208"/>
<text text-anchor="middle" x="122.2904" y="-185.8" font-family="Verdana" font-size="14.00" fill="#000000">DeriveFramingKey</text>
</a>
</g>
</g>
<!-- (*github.com/go&#45;i2p/go&#45;i2p/lib/transport/ntcp/kdf.NTCP2KDF).DeriveFramingKey&#45;&gt;github.com/samber/oops.Errorf -->
<g id="edge3" class="edge">
<title>(*github.com/go&#45;i2p/go&#45;i2p/lib/transport/ntcp/kdf.NTCP2KDF).DeriveFramingKey&#45;&gt;github.com/samber/oops.Errorf</title>
<g id="a_edge3"><a xlink:title="at kdf.go:148: calling [github.com/samber/oops.Errorf]">
<path fill="none" stroke="#8b4513" d="M188.7383,-199.9479C220.0178,-204.6307 256.2655,-210.0574 283.1586,-214.0835"/>
<polygon fill="#8b4513" stroke="#8b4513" points="282.9322,-217.5886 293.3403,-215.6078 283.9687,-210.6657 282.9322,-217.5886"/>
</a>
</g>
</g>
<!-- (*github.com/go&#45;i2p/go&#45;i2p/lib/transport/ntcp/kdf.NTCP2KDF).DeriveKeys -->
<g id="node5" class="node">
<title>(*github.com/go&#45;i2p/go&#45;i2p/lib/transport/ntcp/kdf.NTCP2KDF).DeriveKeys</title>
<g id="a_node5"><a xlink:title="(*github.com/go&#45;i2p/go&#45;i2p/lib/transport/ntcp/kdf.NTCP2KDF).DeriveKeys | defined in kdf.go:82&#10;at kdf.go:86: calling [github.com/samber/oops.Errorf]&#10;at kdf.go:93: calling [github.com/samber/oops.Errorf]">
<path fill="#add8e6" stroke="#000000" stroke-width="1.5" d="M155.6433,-269C155.6433,-269 88.9375,-269 88.9375,-269 82.9375,-269 76.9375,-263 76.9375,-257 76.9375,-257 76.9375,-245 76.9375,-245 76.9375,-239 82.9375,-233 88.9375,-233 88.9375,-233 155.6433,-233 155.6433,-233 161.6433,-233 167.6433,-239 167.6433,-245 167.6433,-245 167.6433,-257 167.6433,-257 167.6433,-263 161.6433,-269 155.6433,-269"/>
<text text-anchor="middle" x="122.2904" y="-246.8" font-family="Verdana" font-size="14.00" fill="#000000">DeriveKeys</text>
</a>
</g>
</g>
<!-- (*github.com/go&#45;i2p/go&#45;i2p/lib/transport/ntcp/kdf.NTCP2KDF).DeriveKeys&#45;&gt;github.com/samber/oops.Errorf -->
<g id="edge4" class="edge">
<title>(*github.com/go&#45;i2p/go&#45;i2p/lib/transport/ntcp/kdf.NTCP2KDF).DeriveKeys&#45;&gt;github.com/samber/oops.Errorf</title>
<g id="a_edge4"><a xlink:title="at kdf.go:86: calling [github.com/samber/oops.Errorf]&#10;at kdf.go:93: calling [github.com/samber/oops.Errorf]">
<path fill="none" stroke="#8b4513" d="M167.7615,-243.9656C202.5635,-238.5818 250.0718,-231.2322 283.2689,-226.0966"/>
<polygon fill="#8b4513" stroke="#8b4513" points="284.1627,-229.5001 293.51,-224.5123 283.0925,-222.5824 284.1627,-229.5001"/>
</a>
</g>
</g>
<!-- (*github.com/go&#45;i2p/go&#45;i2p/lib/transport/ntcp/kdf.NTCP2KDF).DeriveHandshakeMessageKey -->
<g id="node6" class="node">
<title>(*github.com/go&#45;i2p/go&#45;i2p/lib/transport/ntcp/kdf.NTCP2KDF).DeriveHandshakeMessageKey</title>
<g id="a_node6"><a xlink:title="(*github.com/go&#45;i2p/go&#45;i2p/lib/transport/ntcp/kdf.NTCP2KDF).DeriveHandshakeMessageKey | defined in kdf.go:102&#10;at kdf.go:105: calling [github.com/samber/oops.Errorf]">
<path fill="#add8e6" stroke="#000000" stroke-width="1.5" d="M208.3716,-330C208.3716,-330 36.2092,-330 36.2092,-330 30.2092,-330 24.2092,-324 24.2092,-318 24.2092,-318 24.2092,-306 24.2092,-306 24.2092,-300 30.2092,-294 36.2092,-294 36.2092,-294 208.3716,-294 208.3716,-294 214.3716,-294 220.3716,-300 220.3716,-306 220.3716,-306 220.3716,-318 220.3716,-318 220.3716,-324 214.3716,-330 208.3716,-330"/>
<text text-anchor="middle" x="122.2904" y="-307.8" font-family="Verdana" font-size="14.00" fill="#000000">DeriveHandshakeMessageKey</text>
</a>
</g>
</g>
<!-- (*github.com/go&#45;i2p/go&#45;i2p/lib/transport/ntcp/kdf.NTCP2KDF).DeriveHandshakeMessageKey&#45;&gt;github.com/samber/oops.Errorf -->
<g id="edge5" class="edge">
<title>(*github.com/go&#45;i2p/go&#45;i2p/lib/transport/ntcp/kdf.NTCP2KDF).DeriveHandshakeMessageKey&#45;&gt;github.com/samber/oops.Errorf</title>
<g id="a_edge5"><a xlink:title="at kdf.go:105: calling [github.com/samber/oops.Errorf]">
<path fill="none" stroke="#8b4513" d="M197.3838,-293.9461C208.0475,-290.4824 218.7284,-286.5047 228.5808,-282 250.7515,-271.863 273.6334,-256.9048 291.2812,-244.2206"/>
<polygon fill="#8b4513" stroke="#8b4513" points="293.495,-246.9377 299.4981,-238.2076 289.3611,-241.2886 293.495,-246.9377"/>
</a>
</g>
</g>
<!-- (*github.com/go&#45;i2p/go&#45;i2p/lib/transport/ntcp/kdf.NTCP2KDF).MixHash -->
<g id="node7" class="node">
<title>(*github.com/go&#45;i2p/go&#45;i2p/lib/transport/ntcp/kdf.NTCP2KDF).MixHash</title>
<g id="a_node7"><a xlink:title="(*github.com/go&#45;i2p/go&#45;i2p/lib/transport/ntcp/kdf.NTCP2KDF).MixHash | defined in kdf.go:68&#10;at kdf.go:71: calling [github.com/samber/oops.Errorf]&#10;at kdf.go:74: calling [github.com/samber/oops.Errorf]">
<path fill="#add8e6" stroke="#000000" stroke-width="1.5" d="M148.3915,-391C148.3915,-391 96.1893,-391 96.1893,-391 90.1893,-391 84.1893,-385 84.1893,-379 84.1893,-379 84.1893,-367 84.1893,-367 84.1893,-361 90.1893,-355 96.1893,-355 96.1893,-355 148.3915,-355 148.3915,-355 154.3915,-355 160.3915,-361 160.3915,-367 160.3915,-367 160.3915,-379 160.3915,-379 160.3915,-385 154.3915,-391 148.3915,-391"/>
<text text-anchor="middle" x="122.2904" y="-368.8" font-family="Verdana" font-size="14.00" fill="#000000">MixHash</text>
</a>
</g>
</g>
<!-- (*github.com/go&#45;i2p/go&#45;i2p/lib/transport/ntcp/kdf.NTCP2KDF).MixHash&#45;&gt;github.com/samber/oops.Errorf -->
<g id="edge6" class="edge">
<title>(*github.com/go&#45;i2p/go&#45;i2p/lib/transport/ntcp/kdf.NTCP2KDF).MixHash&#45;&gt;github.com/samber/oops.Errorf</title>
<g id="a_edge6"><a xlink:title="at kdf.go:71: calling [github.com/samber/oops.Errorf]&#10;at kdf.go:74: calling [github.com/samber/oops.Errorf]">
<path fill="none" stroke="#8b4513" d="M160.4585,-368.2914C181.9101,-364.2267 208.3545,-356.7315 228.5808,-343 264.954,-318.3064 293.2516,-274.9765 308.9503,-246.8921"/>
<polygon fill="#8b4513" stroke="#8b4513" points="312.0825,-248.4584 313.7847,-238.0012 305.9328,-245.1145 312.0825,-248.4584"/>
</a>
</g>
</g>
</g>
</svg>
