<?xml version="1.0" encoding="UTF-8" standalone="no"?>
<!DOCTYPE svg PUBLIC "-//W3C//DTD SVG 1.1//EN"
 "http://www.w3.org/Graphics/SVG/1.1/DTD/svg11.dtd">
<!-- Generated by graphviz version 2.40.1 (20161225.0304)
 -->
<!-- Title: gocallvis Pages: 1 -->
<svg width="305pt" height="201pt"
 viewBox="0.00 0.00 304.82 201.00" xmlns="http://www.w3.org/2000/svg" xmlns:xlink="http://www.w3.org/1999/xlink">
<g id="graph0" class="graph" transform="scale(1 1) rotate(0) translate(0 201)">
<title>gocallvis</title>
<polygon fill="#d3d3d3" stroke="transparent" points="0,0 0,-201 304.8248,-201 304.8248,0 0,0"/>
<g id="clust1" class="cluster">
<title>cluster_focus</title>
<polygon fill="#e6ecfa" stroke="#000000" stroke-width=".5" points="8,-8 8,-193 296.8248,-193 296.8248,-8 8,-8"/>
<text text-anchor="middle" x="152.4124" y="-172.8" font-family="Arial" font-size="18.00" fill="#000000">kdf</text>
</g>
<g id="clust2" class="cluster">
<title>cluster_*github.com/go&#45;i2p/go&#45;i2p/lib/transport/noise/kdf.NoiseKDF</title>
<g id="a_clust2"><a xlink:title="type: *github.com/go&#45;i2p/go&#45;i2p/lib/transport/noise/kdf.NoiseKDF">
<path fill="#b0c4de" stroke="#000000" stroke-width=".5" d="M28,-16C28,-16 153.6298,-16 153.6298,-16 159.6298,-16 165.6298,-22 165.6298,-28 165.6298,-28 165.6298,-143 165.6298,-143 165.6298,-149 159.6298,-155 153.6298,-155 153.6298,-155 28,-155 28,-155 22,-155 16,-149 16,-143 16,-143 16,-28 16,-28 16,-22 22,-16 28,-16"/>
<text text-anchor="middle" x="90.8149" y="-24.5" font-family="Arial" font-size="15.00" fill="#222222">(*NoiseKDF)</text>
</a>
</g>
</g>
<!-- github.com/samber/oops.Errorf -->
<g id="node1" class="node">
<title>github.com/samber/oops.Errorf</title>
<g id="a_node1"><a xlink:title="github.com/samber/oops.Errorf | defined in oops.go:34">
<path fill="#ffe4b5" stroke="#000000" stroke-width="1.5" d="M276.9226,-107C276.9226,-107 242.532,-107 242.532,-107 236.532,-107 230.532,-101 230.532,-95 230.532,-95 230.532,-83 230.532,-83 230.532,-77 236.532,-71 242.532,-71 242.532,-71 276.9226,-71 276.9226,-71 282.9226,-71 288.9226,-77 288.9226,-83 288.9226,-83 288.9226,-95 288.9226,-95 288.9226,-101 282.9226,-107 276.9226,-107"/>
<text text-anchor="middle" x="259.7273" y="-93.2" font-family="Verdana" font-size="14.00" fill="#000000">oops</text>
<text text-anchor="middle" x="259.7273" y="-76.4" font-family="Verdana" font-size="14.00" fill="#000000">Errorf</text>
</a>
</g>
</g>
<!-- (*github.com/go&#45;i2p/go&#45;i2p/lib/transport/noise/kdf.NoiseKDF).MixKey -->
<g id="node2" class="node">
<title>(*github.com/go&#45;i2p/go&#45;i2p/lib/transport/noise/kdf.NoiseKDF).MixKey</title>
<g id="a_node2"><a xlink:title="(*github.com/go&#45;i2p/go&#45;i2p/lib/transport/noise/kdf.NoiseKDF).MixKey | defined in kdf.go:29&#10;at kdf.go:31: calling [github.com/samber/oops.Errorf]">
<path fill="#add8e6" stroke="#000000" stroke-width="1.5" d="M113.9721,-86C113.9721,-86 67.6577,-86 67.6577,-86 61.6577,-86 55.6577,-80 55.6577,-74 55.6577,-74 55.6577,-62 55.6577,-62 55.6577,-56 61.6577,-50 67.6577,-50 67.6577,-50 113.9721,-50 113.9721,-50 119.9721,-50 125.9721,-56 125.9721,-62 125.9721,-62 125.9721,-74 125.9721,-74 125.9721,-80 119.9721,-86 113.9721,-86"/>
<text text-anchor="middle" x="90.8149" y="-63.8" font-family="Verdana" font-size="14.00" fill="#000000">MixKey</text>
</a>
</g>
</g>
<!-- (*github.com/go&#45;i2p/go&#45;i2p/lib/transport/noise/kdf.NoiseKDF).MixKey&#45;&gt;github.com/samber/oops.Errorf -->
<g id="edge1" class="edge">
<title>(*github.com/go&#45;i2p/go&#45;i2p/lib/transport/noise/kdf.NoiseKDF).MixKey&#45;&gt;github.com/samber/oops.Errorf</title>
<g id="a_edge1"><a xlink:title="at kdf.go:31: calling [github.com/samber/oops.Errorf]">
<path fill="none" stroke="#8b4513" d="M126.2245,-72.4023C153.7952,-75.83 192.0376,-80.5845 220.5284,-84.1266"/>
<polygon fill="#8b4513" stroke="#8b4513" points="220.1905,-87.6115 230.546,-85.372 221.0542,-80.6649 220.1905,-87.6115"/>
</a>
</g>
</g>
<!-- (*github.com/go&#45;i2p/go&#45;i2p/lib/transport/noise/kdf.NoiseKDF).DeriveSessionKeys -->
<g id="node3" class="node">
<title>(*github.com/go&#45;i2p/go&#45;i2p/lib/transport/noise/kdf.NoiseKDF).DeriveSessionKeys</title>
<g id="a_node3"><a xlink:title="(*github.com/go&#45;i2p/go&#45;i2p/lib/transport/noise/kdf.NoiseKDF).DeriveSessionKeys | defined in kdf.go:73&#10;at kdf.go:77: calling [github.com/samber/oops.Errorf]&#10;at kdf.go:100: calling [github.com/samber/oops.Errorf]">
<path fill="#add8e6" stroke="#000000" stroke-width="1.5" d="M145.4452,-147C145.4452,-147 36.1846,-147 36.1846,-147 30.1846,-147 24.1846,-141 24.1846,-135 24.1846,-135 24.1846,-123 24.1846,-123 24.1846,-117 30.1846,-111 36.1846,-111 36.1846,-111 145.4452,-111 145.4452,-111 151.4452,-111 157.4452,-117 157.4452,-123 157.4452,-123 157.4452,-135 157.4452,-135 157.4452,-141 151.4452,-147 145.4452,-147"/>
<text text-anchor="middle" x="90.8149" y="-124.8" font-family="Verdana" font-size="14.00" fill="#000000">DeriveSessionKeys</text>
</a>
</g>
</g>
<!-- (*github.com/go&#45;i2p/go&#45;i2p/lib/transport/noise/kdf.NoiseKDF).DeriveSessionKeys&#45;&gt;github.com/samber/oops.Errorf -->
<g id="edge2" class="edge">
<title>(*github.com/go&#45;i2p/go&#45;i2p/lib/transport/noise/kdf.NoiseKDF).DeriveSessionKeys&#45;&gt;github.com/samber/oops.Errorf</title>
<g id="a_edge2"><a xlink:title="at kdf.go:77: calling [github.com/samber/oops.Errorf]&#10;at kdf.go:100: calling [github.com/samber/oops.Errorf]">
<path fill="none" stroke="#8b4513" d="M157.5736,-113.1909C178.8924,-108.1424 201.7865,-102.7209 220.4867,-98.2925"/>
<polygon fill="#8b4513" stroke="#8b4513" points="221.4832,-101.6534 230.4075,-95.9432 219.8701,-94.8418 221.4832,-101.6534"/>
</a>
</g>
</g>
</g>
</svg>
