<?xml version="1.0" encoding="UTF-8" standalone="no"?>
<!DOCTYPE svg PUBLIC "-//W3C//DTD SVG 1.1//EN"
 "http://www.w3.org/Graphics/SVG/1.1/DTD/svg11.dtd">
<!-- Generated by graphviz version 2.40.1 (20161225.0304)
 -->
<!-- Title: gocallvis Pages: 1 -->
<svg width="675pt" height="695pt"
 viewBox="0.00 0.00 674.70 695.00" xmlns="http://www.w3.org/2000/svg" xmlns:xlink="http://www.w3.org/1999/xlink">
<g id="graph0" class="graph" transform="scale(1 1) rotate(0) translate(0 695)">
<title>gocallvis</title>
<polygon fill="#d3d3d3" stroke="transparent" points="0,0 0,-695 674.6972,-695 674.6972,0 0,0"/>
<g id="clust1" class="cluster">
<title>cluster_focus</title>
<polygon fill="#e6ecfa" stroke="#000000" stroke-width=".5" points="8,-8 8,-687 667.6972,-687 667.6972,-8 8,-8"/>
<text text-anchor="middle" x="337.8486" y="-666.8" font-family="Arial" font-size="18.00" fill="#000000">lease</text>
</g>
<g id="clust6" class="cluster">
<title>cluster_github.com/go&#45;i2p/go&#45;i2p/lib/common/lease.Lease</title>
<g id="a_clust6"><a xlink:title="type: github.com/go&#45;i2p/go&#45;i2p/lib/common/lease.Lease">
<path fill="#b0c4de" stroke="#000000" stroke-width=".5" d="M436.3753,-424C436.3753,-424 506.8003,-424 506.8003,-424 512.8003,-424 518.8003,-430 518.8003,-436 518.8003,-436 518.8003,-551 518.8003,-551 518.8003,-557 512.8003,-563 506.8003,-563 506.8003,-563 436.3753,-563 436.3753,-563 430.3753,-563 424.3753,-557 424.3753,-551 424.3753,-551 424.3753,-436 424.3753,-436 424.3753,-430 430.3753,-424 436.3753,-424"/>
<text text-anchor="middle" x="471.5878" y="-432.5" font-family="Arial" font-size="15.00" fill="#222222">(Lease)</text>
</a>
</g>
</g>
<g id="clust5" class="cluster">
<title>cluster_github.com/go&#45;i2p/go&#45;i2p/lib/common/data.Integer</title>
<g id="a_clust5"><a xlink:title="type: github.com/go&#45;i2p/go&#45;i2p/lib/common/data.Integer">
<path fill="#eed8ae" stroke="#000000" stroke-width=".5" d="M599.6972,-424C599.6972,-424 647.6972,-424 647.6972,-424 653.6972,-424 659.6972,-430 659.6972,-436 659.6972,-436 659.6972,-490 659.6972,-490 659.6972,-496 653.6972,-502 647.6972,-502 647.6972,-502 599.6972,-502 599.6972,-502 593.6972,-502 587.6972,-496 587.6972,-490 587.6972,-490 587.6972,-436 587.6972,-436 587.6972,-430 593.6972,-424 599.6972,-424"/>
<text text-anchor="middle" x="623.6972" y="-432.5" font-family="Arial" font-size="15.00" fill="#222222">(Integer)</text>
</a>
</g>
</g>
<g id="clust4" class="cluster">
<title>cluster_github.com/go&#45;i2p/go&#45;i2p/lib/common/data.Date</title>
<g id="a_clust4"><a xlink:title="type: github.com/go&#45;i2p/go&#45;i2p/lib/common/data.Date">
<path fill="#eed8ae" stroke="#000000" stroke-width=".5" d="M448.5878,-285C448.5878,-285 494.5878,-285 494.5878,-285 500.5878,-285 506.5878,-291 506.5878,-297 506.5878,-297 506.5878,-351 506.5878,-351 506.5878,-357 500.5878,-363 494.5878,-363 494.5878,-363 448.5878,-363 448.5878,-363 442.5878,-363 436.5878,-357 436.5878,-351 436.5878,-351 436.5878,-297 436.5878,-297 436.5878,-291 442.5878,-285 448.5878,-285"/>
<text text-anchor="middle" x="471.5878" y="-293.5" font-family="Arial" font-size="15.00" fill="#222222">(Date)</text>
</a>
</g>
</g>
<g id="clust3" class="cluster">
<title>cluster_*github.com/sirupsen/logrus.Logger</title>
<g id="a_clust3"><a xlink:title="type: *github.com/sirupsen/logrus.Logger">
<path fill="#eed8ae" stroke="#000000" stroke-width=".5" d="M444.9272,-571C444.9272,-571 499.2484,-571 499.2484,-571 505.2484,-571 511.2484,-577 511.2484,-583 511.2484,-583 511.2484,-637 511.2484,-637 511.2484,-643 505.2484,-649 499.2484,-649 499.2484,-649 444.9272,-649 444.9272,-649 438.9272,-649 432.9272,-643 432.9272,-637 432.9272,-637 432.9272,-583 432.9272,-583 432.9272,-577 438.9272,-571 444.9272,-571"/>
<text text-anchor="middle" x="472.0878" y="-579.5" font-family="Arial" font-size="15.00" fill="#222222">(*Logger)</text>
</a>
</g>
</g>
<g id="clust2" class="cluster">
<title>cluster_*github.com/go&#45;i2p/logger.Logger</title>
<g id="a_clust2"><a xlink:title="type: *github.com/go&#45;i2p/logger.Logger">
<path fill="#eed8ae" stroke="#000000" stroke-width=".5" d="M432.4784,-16C432.4784,-16 510.6972,-16 510.6972,-16 516.6972,-16 522.6972,-22 522.6972,-28 522.6972,-28 522.6972,-265 522.6972,-265 522.6972,-271 516.6972,-277 510.6972,-277 510.6972,-277 432.4784,-277 432.4784,-277 426.4784,-277 420.4784,-271 420.4784,-265 420.4784,-265 420.4784,-28 420.4784,-28 420.4784,-22 426.4784,-16 432.4784,-16"/>
<text text-anchor="middle" x="471.5878" y="-24.5" font-family="Arial" font-size="15.00" fill="#222222">(*Logger)</text>
</a>
</g>
</g>
<!-- github.com/go&#45;i2p/go&#45;i2p/lib/common/lease.init -->
<g id="node1" class="node">
<title>github.com/go&#45;i2p/go&#45;i2p/lib/common/lease.init</title>
<g id="a_node1"><a xlink:title="github.com/go&#45;i2p/go&#45;i2p/lib/common/lease.init | defined in .:0&#10;at lease.go:59: calling [github.com/go&#45;i2p/logger.GetGoI2PLogger]">
<path fill="#add8e6" stroke="#000000" stroke-width=".5" d="M103.6445,-649C103.6445,-649 73.6445,-649 73.6445,-649 67.6445,-649 61.6445,-643 61.6445,-637 61.6445,-637 61.6445,-625 61.6445,-625 61.6445,-619 67.6445,-613 73.6445,-613 73.6445,-613 103.6445,-613 103.6445,-613 109.6445,-613 115.6445,-619 115.6445,-625 115.6445,-625 115.6445,-637 115.6445,-637 115.6445,-643 109.6445,-649 103.6445,-649"/>
<text text-anchor="middle" x="88.6445" y="-626.8" font-family="Verdana" font-size="14.00" fill="#000000">init</text>
</a>
</g>
</g>
<!-- github.com/go&#45;i2p/logger.GetGoI2PLogger -->
<g id="node2" class="node">
<title>github.com/go&#45;i2p/logger.GetGoI2PLogger</title>
<g id="a_node2"><a xlink:title="github.com/go&#45;i2p/logger.GetGoI2PLogger | defined in log.go:120">
<path fill="#ffe4b5" stroke="#000000" stroke-width="1.5" d="M343.5732,-649C343.5732,-649 246.1942,-649 246.1942,-649 240.1942,-649 234.1942,-643 234.1942,-637 234.1942,-637 234.1942,-625 234.1942,-625 234.1942,-619 240.1942,-613 246.1942,-613 246.1942,-613 343.5732,-613 343.5732,-613 349.5732,-613 355.5732,-619 355.5732,-625 355.5732,-625 355.5732,-637 355.5732,-637 355.5732,-643 349.5732,-649 343.5732,-649"/>
<text text-anchor="middle" x="294.8837" y="-635.2" font-family="Verdana" font-size="14.00" fill="#000000">logger</text>
<text text-anchor="middle" x="294.8837" y="-618.4" font-family="Verdana" font-size="14.00" fill="#000000">GetGoI2PLogger</text>
</a>
</g>
</g>
<!-- github.com/go&#45;i2p/go&#45;i2p/lib/common/lease.init&#45;&gt;github.com/go&#45;i2p/logger.GetGoI2PLogger -->
<g id="edge15" class="edge">
<title>github.com/go&#45;i2p/go&#45;i2p/lib/common/lease.init&#45;&gt;github.com/go&#45;i2p/logger.GetGoI2PLogger</title>
<g id="a_edge15"><a xlink:title="at lease.go:59: calling [github.com/go&#45;i2p/logger.GetGoI2PLogger]">
<path fill="none" stroke="#8b4513" d="M116.0315,-631C143.3741,-631 186.5488,-631 223.628,-631"/>
<polygon fill="#8b4513" stroke="#8b4513" points="223.9065,-634.5001 233.9064,-631 223.9064,-627.5001 223.9065,-634.5001"/>
</a>
</g>
</g>
<!-- github.com/go&#45;i2p/go&#45;i2p/lib/common/lease.NewLease -->
<g id="node3" class="node">
<title>github.com/go&#45;i2p/go&#45;i2p/lib/common/lease.NewLease</title>
<g id="a_node3"><a xlink:title="github.com/go&#45;i2p/go&#45;i2p/lib/common/lease.NewLease | defined in lease.go:111&#10;at lease.go:130: calling [(*github.com/go&#45;i2p/logger.Logger).WithFields]&#10;at lease.go:112: calling [(*github.com/sirupsen/logrus.Logger).Debug]&#10;at lease.go:133: calling [(*github.com/sirupsen/logrus.Logger).Debug]">
<path fill="#add8e6" stroke="#000000" stroke-width="1.5" d="M324.4525,-560C324.4525,-560 265.3149,-560 265.3149,-560 259.3149,-560 253.3149,-554 253.3149,-548 253.3149,-548 253.3149,-536 253.3149,-536 253.3149,-530 259.3149,-524 265.3149,-524 265.3149,-524 324.4525,-524 324.4525,-524 330.4525,-524 336.4525,-530 336.4525,-536 336.4525,-536 336.4525,-548 336.4525,-548 336.4525,-554 330.4525,-560 324.4525,-560"/>
<text text-anchor="middle" x="294.8837" y="-537.8" font-family="Verdana" font-size="14.00" fill="#000000">NewLease</text>
</a>
</g>
</g>
<!-- (*github.com/go&#45;i2p/logger.Logger).WithFields -->
<g id="node7" class="node">
<title>(*github.com/go&#45;i2p/logger.Logger).WithFields</title>
<g id="a_node7"><a xlink:title="(*github.com/go&#45;i2p/logger.Logger).WithFields | defined in log.go:60">
<path fill="#ffe4b5" stroke="#000000" stroke-width="1.5" d="M502.8069,-269C502.8069,-269 440.3687,-269 440.3687,-269 434.3687,-269 428.3687,-263 428.3687,-257 428.3687,-257 428.3687,-245 428.3687,-245 428.3687,-239 434.3687,-233 440.3687,-233 440.3687,-233 502.8069,-233 502.8069,-233 508.8069,-233 514.8069,-239 514.8069,-245 514.8069,-245 514.8069,-257 514.8069,-257 514.8069,-263 508.8069,-269 502.8069,-269"/>
<text text-anchor="middle" x="471.5878" y="-255.2" font-family="Verdana" font-size="14.00" fill="#000000">logger</text>
<text text-anchor="middle" x="471.5878" y="-238.4" font-family="Verdana" font-size="14.00" fill="#000000">WithFields</text>
</a>
</g>
</g>
<!-- github.com/go&#45;i2p/go&#45;i2p/lib/common/lease.NewLease&#45;&gt;(*github.com/go&#45;i2p/logger.Logger).WithFields -->
<g id="edge10" class="edge">
<title>github.com/go&#45;i2p/go&#45;i2p/lib/common/lease.NewLease&#45;&gt;(*github.com/go&#45;i2p/logger.Logger).WithFields</title>
<g id="a_edge10"><a xlink:title="at lease.go:130: calling [(*github.com/go&#45;i2p/logger.Logger).WithFields]">
<path fill="none" stroke="#8b4513" d="M302.7566,-523.8891C327.3124,-467.6446 401.9637,-298.575 420.4784,-279 421.6733,-277.7366 422.9382,-276.5167 424.2582,-275.3401"/>
<polygon fill="#8b4513" stroke="#8b4513" points="426.572,-277.9746 432.3185,-269.0735 422.2754,-272.4482 426.572,-277.9746"/>
</a>
</g>
</g>
<!-- (*github.com/sirupsen/logrus.Logger).Debug -->
<g id="node11" class="node">
<title>(*github.com/sirupsen/logrus.Logger).Debug</title>
<g id="a_node11"><a xlink:title="(*github.com/sirupsen/logrus.Logger).Debug | defined in logger.go:221">
<path fill="#ffe4b5" stroke="#000000" stroke-width="1.5" d="M490.4098,-641C490.4098,-641 452.7658,-641 452.7658,-641 446.7658,-641 440.7658,-635 440.7658,-629 440.7658,-629 440.7658,-617 440.7658,-617 440.7658,-611 446.7658,-605 452.7658,-605 452.7658,-605 490.4098,-605 490.4098,-605 496.4098,-605 502.4098,-611 502.4098,-617 502.4098,-617 502.4098,-629 502.4098,-629 502.4098,-635 496.4098,-641 490.4098,-641"/>
<text text-anchor="middle" x="471.5878" y="-627.2" font-family="Verdana" font-size="14.00" fill="#000000">logrus</text>
<text text-anchor="middle" x="471.5878" y="-610.4" font-family="Verdana" font-size="14.00" fill="#000000">Debug</text>
</a>
</g>
</g>
<!-- github.com/go&#45;i2p/go&#45;i2p/lib/common/lease.NewLease&#45;&gt;(*github.com/sirupsen/logrus.Logger).Debug -->
<g id="edge19" class="edge">
<title>github.com/go&#45;i2p/go&#45;i2p/lib/common/lease.NewLease&#45;&gt;(*github.com/sirupsen/logrus.Logger).Debug</title>
<g id="a_edge19"><a xlink:title="at lease.go:112: calling [(*github.com/sirupsen/logrus.Logger).Debug]&#10;at lease.go:133: calling [(*github.com/sirupsen/logrus.Logger).Debug]">
<path fill="none" stroke="#8b4513" d="M334.5395,-560.178C363.4283,-573.4204 402.4181,-591.293 431.4242,-604.5893"/>
<polygon fill="#8b4513" stroke="#8b4513" points="430.3004,-607.9243 440.8493,-608.9097 433.2173,-601.561 430.3004,-607.9243"/>
</a>
</g>
</g>
<!-- github.com/go&#45;i2p/go&#45;i2p/lib/common/lease.ReadLease -->
<g id="node4" class="node">
<title>github.com/go&#45;i2p/go&#45;i2p/lib/common/lease.ReadLease</title>
<g id="a_node4"><a xlink:title="github.com/go&#45;i2p/go&#45;i2p/lib/common/lease.ReadLease | defined in lease.go:86&#10;at lease.go:87: calling [(*github.com/sirupsen/logrus.Logger).Debug]&#10;at lease.go:105: calling [(*github.com/sirupsen/logrus.Logger).Debug]&#10;at lease.go:94: calling [(*github.com/go&#45;i2p/logger.Logger).Error]&#10;at lease.go:102: calling [(github.com/go&#45;i2p/go&#45;i2p/lib/common/lease.Lease).TunnelID]&#10;at lease.go:90: calling [github.com/samber/oops.Errorf]&#10;at lease.go:91: calling [(*github.com/go&#45;i2p/logger.Logger).WithFields]&#10;at lease.go:101: calling [(*github.com/go&#45;i2p/logger.Logger).WithFields]&#10;at lease.go:87: calling [(*github.com/go&#45;i2p/logger.Logger).WithField]&#10;at lease.go:103: calling [(github.com/go&#45;i2p/go&#45;i2p/lib/common/data.Date).Time]&#10;at lease.go:103: calling [(github.com/go&#45;i2p/go&#45;i2p/lib/common/lease.Lease).Date]">
<path fill="#add8e6" stroke="#000000" stroke-width="1.5" d="M325.7915,-387C325.7915,-387 263.9759,-387 263.9759,-387 257.9759,-387 251.9759,-381 251.9759,-375 251.9759,-375 251.9759,-363 251.9759,-363 251.9759,-357 257.9759,-351 263.9759,-351 263.9759,-351 325.7915,-351 325.7915,-351 331.7915,-351 337.7915,-357 337.7915,-363 337.7915,-363 337.7915,-375 337.7915,-375 337.7915,-381 331.7915,-387 325.7915,-387"/>
<text text-anchor="middle" x="294.8837" y="-364.8" font-family="Verdana" font-size="14.00" fill="#000000">ReadLease</text>
</a>
</g>
</g>
<!-- github.com/samber/oops.Errorf -->
<g id="node5" class="node">
<title>github.com/samber/oops.Errorf</title>
<g id="a_node5"><a xlink:title="github.com/samber/oops.Errorf | defined in oops.go:34">
<path fill="#ffe4b5" stroke="#000000" stroke-width="1.5" d="M488.7831,-416C488.7831,-416 454.3925,-416 454.3925,-416 448.3925,-416 442.3925,-410 442.3925,-404 442.3925,-404 442.3925,-392 442.3925,-392 442.3925,-386 448.3925,-380 454.3925,-380 454.3925,-380 488.7831,-380 488.7831,-380 494.7831,-380 500.7831,-386 500.7831,-392 500.7831,-392 500.7831,-404 500.7831,-404 500.7831,-410 494.7831,-416 488.7831,-416"/>
<text text-anchor="middle" x="471.5878" y="-402.2" font-family="Verdana" font-size="14.00" fill="#000000">oops</text>
<text text-anchor="middle" x="471.5878" y="-385.4" font-family="Verdana" font-size="14.00" fill="#000000">Errorf</text>
</a>
</g>
</g>
<!-- github.com/go&#45;i2p/go&#45;i2p/lib/common/lease.ReadLease&#45;&gt;github.com/samber/oops.Errorf -->
<g id="edge11" class="edge">
<title>github.com/go&#45;i2p/go&#45;i2p/lib/common/lease.ReadLease&#45;&gt;github.com/samber/oops.Errorf</title>
<g id="a_edge11"><a xlink:title="at lease.go:90: calling [github.com/samber/oops.Errorf]">
<path fill="none" stroke="#8b4513" d="M337.6588,-376.0201C366.587,-380.7677 404.4919,-386.9885 432.5907,-391.5999"/>
<polygon fill="#8b4513" stroke="#8b4513" points="432.0296,-395.0546 442.4644,-393.2204 433.1633,-388.147 432.0296,-395.0546"/>
</a>
</g>
</g>
<!-- github.com/go&#45;i2p/go&#45;i2p/lib/common/lease.ReadLease&#45;&gt;(*github.com/go&#45;i2p/logger.Logger).WithFields -->
<g id="edge12" class="edge">
<title>github.com/go&#45;i2p/go&#45;i2p/lib/common/lease.ReadLease&#45;&gt;(*github.com/go&#45;i2p/logger.Logger).WithFields</title>
<g id="a_edge12"><a xlink:title="at lease.go:91: calling [(*github.com/go&#45;i2p/logger.Logger).WithFields]&#10;at lease.go:101: calling [(*github.com/go&#45;i2p/logger.Logger).WithFields]">
<path fill="none" stroke="#8b4513" d="M318.3701,-350.8669C343.1701,-332.0326 383.6938,-302.138 420.4784,-279 423.0503,-277.3822 425.7221,-275.7587 428.4351,-274.153"/>
<polygon fill="#8b4513" stroke="#8b4513" points="430.2552,-277.1437 437.1676,-269.1144 426.7568,-271.0806 430.2552,-277.1437"/>
</a>
</g>
</g>
<!-- (*github.com/go&#45;i2p/logger.Logger).WithField -->
<g id="node8" class="node">
<title>(*github.com/go&#45;i2p/logger.Logger).WithField</title>
<g id="a_node8"><a xlink:title="(*github.com/go&#45;i2p/logger.Logger).WithField | defined in log.go:54">
<path fill="#ffe4b5" stroke="#000000" stroke-width="1.5" d="M499.8623,-208C499.8623,-208 443.3133,-208 443.3133,-208 437.3133,-208 431.3133,-202 431.3133,-196 431.3133,-196 431.3133,-184 431.3133,-184 431.3133,-178 437.3133,-172 443.3133,-172 443.3133,-172 499.8623,-172 499.8623,-172 505.8623,-172 511.8623,-178 511.8623,-184 511.8623,-184 511.8623,-196 511.8623,-196 511.8623,-202 505.8623,-208 499.8623,-208"/>
<text text-anchor="middle" x="471.5878" y="-194.2" font-family="Verdana" font-size="14.00" fill="#000000">logger</text>
<text text-anchor="middle" x="471.5878" y="-177.4" font-family="Verdana" font-size="14.00" fill="#000000">WithField</text>
</a>
</g>
</g>
<!-- github.com/go&#45;i2p/go&#45;i2p/lib/common/lease.ReadLease&#45;&gt;(*github.com/go&#45;i2p/logger.Logger).WithField -->
<g id="edge16" class="edge">
<title>github.com/go&#45;i2p/go&#45;i2p/lib/common/lease.ReadLease&#45;&gt;(*github.com/go&#45;i2p/logger.Logger).WithField</title>
<g id="a_edge16"><a xlink:title="at lease.go:87: calling [(*github.com/go&#45;i2p/logger.Logger).WithField]">
<path fill="none" stroke="#8b4513" d="M307.2224,-350.978C328.0967,-321.3722 372.7872,-261.6747 420.4784,-221 423.4579,-218.4588 426.6695,-215.9933 429.98,-213.6363"/>
<polygon fill="#8b4513" stroke="#8b4513" points="431.9897,-216.5027 438.337,-208.0196 428.085,-210.6929 431.9897,-216.5027"/>
</a>
</g>
</g>
<!-- (*github.com/go&#45;i2p/logger.Logger).Error -->
<g id="node9" class="node">
<title>(*github.com/go&#45;i2p/logger.Logger).Error</title>
<g id="a_node9"><a xlink:title="(*github.com/go&#45;i2p/logger.Logger).Error | defined in log.go:42">
<path fill="#ffe4b5" stroke="#000000" stroke-width="1.5" d="M489.3541,-147C489.3541,-147 453.8215,-147 453.8215,-147 447.8215,-147 441.8215,-141 441.8215,-135 441.8215,-135 441.8215,-123 441.8215,-123 441.8215,-117 447.8215,-111 453.8215,-111 453.8215,-111 489.3541,-111 489.3541,-111 495.3541,-111 501.3541,-117 501.3541,-123 501.3541,-123 501.3541,-135 501.3541,-135 501.3541,-141 495.3541,-147 489.3541,-147"/>
<text text-anchor="middle" x="471.5878" y="-133.2" font-family="Verdana" font-size="14.00" fill="#000000">logger</text>
<text text-anchor="middle" x="471.5878" y="-116.4" font-family="Verdana" font-size="14.00" fill="#000000">Error</text>
</a>
</g>
</g>
<!-- github.com/go&#45;i2p/go&#45;i2p/lib/common/lease.ReadLease&#45;&gt;(*github.com/go&#45;i2p/logger.Logger).Error -->
<g id="edge5" class="edge">
<title>github.com/go&#45;i2p/go&#45;i2p/lib/common/lease.ReadLease&#45;&gt;(*github.com/go&#45;i2p/logger.Logger).Error</title>
<g id="a_edge5"><a xlink:title="at lease.go:94: calling [(*github.com/go&#45;i2p/logger.Logger).Error]">
<path fill="none" stroke="#8b4513" d="M302.195,-350.8225C318.5463,-311.936 361.3321,-219.39 420.4784,-160 424.323,-156.1395 428.7403,-152.5587 433.3336,-149.3051"/>
<polygon fill="#8b4513" stroke="#8b4513" points="435.2645,-152.2244 441.706,-143.8125 431.4248,-146.3714 435.2645,-152.2244"/>
</a>
</g>
</g>
<!-- github.com/go&#45;i2p/go&#45;i2p/lib/common/lease.ReadLease&#45;&gt;(*github.com/sirupsen/logrus.Logger).Debug -->
<g id="edge4" class="edge">
<title>github.com/go&#45;i2p/go&#45;i2p/lib/common/lease.ReadLease&#45;&gt;(*github.com/sirupsen/logrus.Logger).Debug</title>
<g id="a_edge4"><a xlink:title="at lease.go:87: calling [(*github.com/sirupsen/logrus.Logger).Debug]&#10;at lease.go:105: calling [(*github.com/sirupsen/logrus.Logger).Debug]">
<path fill="none" stroke="#8b4513" d="M304.6883,-387.1684C324.5082,-423.266 371.6272,-505.9674 420.4784,-569 428.062,-578.7851 437.1367,-588.8175 445.5209,-597.5385"/>
<polygon fill="#8b4513" stroke="#8b4513" points="443.1592,-600.1293 452.6562,-604.8257 448.1608,-595.2319 443.1592,-600.1293"/>
</a>
</g>
</g>
<!-- (github.com/go&#45;i2p/go&#45;i2p/lib/common/data.Date).Time -->
<g id="node12" class="node">
<title>(github.com/go&#45;i2p/go&#45;i2p/lib/common/data.Date).Time</title>
<g id="a_node12"><a xlink:title="(github.com/go&#45;i2p/go&#45;i2p/lib/common/data.Date).Time | defined in date.go:47">
<path fill="#ffe4b5" stroke="#000000" stroke-width="1.5" d="M486.5878,-355C486.5878,-355 456.5878,-355 456.5878,-355 450.5878,-355 444.5878,-349 444.5878,-343 444.5878,-343 444.5878,-331 444.5878,-331 444.5878,-325 450.5878,-319 456.5878,-319 456.5878,-319 486.5878,-319 486.5878,-319 492.5878,-319 498.5878,-325 498.5878,-331 498.5878,-331 498.5878,-343 498.5878,-343 498.5878,-349 492.5878,-355 486.5878,-355"/>
<text text-anchor="middle" x="471.5878" y="-341.2" font-family="Verdana" font-size="14.00" fill="#000000">data</text>
<text text-anchor="middle" x="471.5878" y="-324.4" font-family="Verdana" font-size="14.00" fill="#000000">Time</text>
</a>
</g>
</g>
<!-- github.com/go&#45;i2p/go&#45;i2p/lib/common/lease.ReadLease&#45;&gt;(github.com/go&#45;i2p/go&#45;i2p/lib/common/data.Date).Time -->
<g id="edge17" class="edge">
<title>github.com/go&#45;i2p/go&#45;i2p/lib/common/lease.ReadLease&#45;&gt;(github.com/go&#45;i2p/go&#45;i2p/lib/common/data.Date).Time</title>
<g id="a_edge17"><a xlink:title="at lease.go:103: calling [(github.com/go&#45;i2p/go&#45;i2p/lib/common/data.Date).Time]">
<path fill="none" stroke="#8b4513" d="M337.6588,-361.2537C367.2238,-355.8997 406.165,-348.8477 434.4318,-343.7287"/>
<polygon fill="#8b4513" stroke="#8b4513" points="435.1096,-347.163 444.3258,-341.937 433.8621,-340.275 435.1096,-347.163"/>
</a>
</g>
</g>
<!-- (github.com/go&#45;i2p/go&#45;i2p/lib/common/lease.Lease).TunnelID -->
<g id="node14" class="node">
<title>(github.com/go&#45;i2p/go&#45;i2p/lib/common/lease.Lease).TunnelID</title>
<g id="a_node14"><a xlink:title="(github.com/go&#45;i2p/go&#45;i2p/lib/common/lease.Lease).TunnelID | defined in lease.go:70&#10;at lease.go:73: calling [(github.com/go&#45;i2p/go&#45;i2p/lib/common/data.Integer).Int]">
<path fill="#add8e6" stroke="#000000" stroke-width="1.5" d="M499.014,-494C499.014,-494 444.1616,-494 444.1616,-494 438.1616,-494 432.1616,-488 432.1616,-482 432.1616,-482 432.1616,-470 432.1616,-470 432.1616,-464 438.1616,-458 444.1616,-458 444.1616,-458 499.014,-458 499.014,-458 505.014,-458 511.014,-464 511.014,-470 511.014,-470 511.014,-482 511.014,-482 511.014,-488 505.014,-494 499.014,-494"/>
<text text-anchor="middle" x="471.5878" y="-471.8" font-family="Verdana" font-size="14.00" fill="#000000">TunnelID</text>
</a>
</g>
</g>
<!-- github.com/go&#45;i2p/go&#45;i2p/lib/common/lease.ReadLease&#45;&gt;(github.com/go&#45;i2p/go&#45;i2p/lib/common/lease.Lease).TunnelID -->
<g id="edge7" class="edge">
<title>github.com/go&#45;i2p/go&#45;i2p/lib/common/lease.ReadLease&#45;&gt;(github.com/go&#45;i2p/go&#45;i2p/lib/common/lease.Lease).TunnelID</title>
<g id="a_edge7"><a xlink:title="at lease.go:102: calling [(github.com/go&#45;i2p/go&#45;i2p/lib/common/lease.Lease).TunnelID]">
<path fill="none" stroke="#000000" d="M331.0643,-387.2334C350.0917,-397.5256 373.3679,-411.2598 392.4784,-426 406.4138,-436.7486 405.913,-444.1219 420.4784,-454 421.3978,-454.6235 422.3378,-455.2355 423.2946,-455.8356"/>
<polygon fill="#000000" stroke="#000000" points="421.8337,-459.0304 432.2603,-460.9108 425.2821,-452.9387 421.8337,-459.0304"/>
</a>
</g>
</g>
<!-- (github.com/go&#45;i2p/go&#45;i2p/lib/common/lease.Lease).Date -->
<g id="node15" class="node">
<title>(github.com/go&#45;i2p/go&#45;i2p/lib/common/lease.Lease).Date</title>
<g id="a_node15"><a xlink:title="(github.com/go&#45;i2p/go&#45;i2p/lib/common/lease.Lease).Date | defined in lease.go:78">
<path fill="#add8e6" stroke="#000000" stroke-width="1.5" d="M486.5878,-555C486.5878,-555 456.5878,-555 456.5878,-555 450.5878,-555 444.5878,-549 444.5878,-543 444.5878,-543 444.5878,-531 444.5878,-531 444.5878,-525 450.5878,-519 456.5878,-519 456.5878,-519 486.5878,-519 486.5878,-519 492.5878,-519 498.5878,-525 498.5878,-531 498.5878,-531 498.5878,-543 498.5878,-543 498.5878,-549 492.5878,-555 486.5878,-555"/>
<text text-anchor="middle" x="471.5878" y="-532.8" font-family="Verdana" font-size="14.00" fill="#000000">Date</text>
</a>
</g>
</g>
<!-- github.com/go&#45;i2p/go&#45;i2p/lib/common/lease.ReadLease&#45;&gt;(github.com/go&#45;i2p/go&#45;i2p/lib/common/lease.Lease).Date -->
<g id="edge20" class="edge">
<title>github.com/go&#45;i2p/go&#45;i2p/lib/common/lease.ReadLease&#45;&gt;(github.com/go&#45;i2p/go&#45;i2p/lib/common/lease.Lease).Date</title>
<g id="a_edge20"><a xlink:title="at lease.go:103: calling [(github.com/go&#45;i2p/go&#45;i2p/lib/common/lease.Lease).Date]">
<path fill="none" stroke="#000000" d="M310.1973,-387.1448C338.0609,-419.931 396.3908,-487.4572 420.4784,-507 425.1874,-510.8206 430.4372,-514.472 435.7291,-517.8298"/>
<polygon fill="#000000" stroke="#000000" points="434.2176,-521.0058 444.5867,-523.1814 437.8375,-515.0144 434.2176,-521.0058"/>
</a>
</g>
</g>
<!-- github.com/go&#45;i2p/go&#45;i2p/lib/common/lease.NewLeaseFromBytes -->
<g id="node6" class="node">
<title>github.com/go&#45;i2p/go&#45;i2p/lib/common/lease.NewLeaseFromBytes</title>
<g id="a_node6"><a xlink:title="github.com/go&#45;i2p/go&#45;i2p/lib/common/lease.NewLeaseFromBytes | defined in lease.go:140&#10;at lease.go:153: calling [(github.com/go&#45;i2p/go&#45;i2p/lib/common/lease.Lease).TunnelID]&#10;at lease.go:154: calling [(github.com/go&#45;i2p/go&#45;i2p/lib/common/lease.Lease).Date]&#10;at lease.go:152: calling [(*github.com/go&#45;i2p/logger.Logger).WithFields]&#10;at lease.go:144: calling [github.com/go&#45;i2p/go&#45;i2p/lib/common/lease.ReadLease]&#10;at lease.go:154: calling [(github.com/go&#45;i2p/go&#45;i2p/lib/common/data.Date).Time]&#10;at lease.go:141: calling [(*github.com/sirupsen/logrus.Logger).Debug]&#10;at lease.go:156: calling [(*github.com/sirupsen/logrus.Logger).Debug]&#10;at lease.go:146: calling [(*github.com/go&#45;i2p/logger.Logger).WithError]&#10;at lease.go:141: calling [(*github.com/go&#45;i2p/logger.Logger).WithField]&#10;at lease.go:146: calling [(*github.com/go&#45;i2p/logger.Logger).Error]">
<path fill="#add8e6" stroke="#000000" stroke-width="1.5" d="M149.4338,-343C149.4338,-343 27.8552,-343 27.8552,-343 21.8552,-343 15.8552,-337 15.8552,-331 15.8552,-331 15.8552,-319 15.8552,-319 15.8552,-313 21.8552,-307 27.8552,-307 27.8552,-307 149.4338,-307 149.4338,-307 155.4338,-307 161.4338,-313 161.4338,-319 161.4338,-319 161.4338,-331 161.4338,-331 161.4338,-337 155.4338,-343 149.4338,-343"/>
<text text-anchor="middle" x="88.6445" y="-320.8" font-family="Verdana" font-size="14.00" fill="#000000">NewLeaseFromBytes</text>
</a>
</g>
</g>
<!-- github.com/go&#45;i2p/go&#45;i2p/lib/common/lease.NewLeaseFromBytes&#45;&gt;github.com/go&#45;i2p/go&#45;i2p/lib/common/lease.ReadLease -->
<g id="edge8" class="edge">
<title>github.com/go&#45;i2p/go&#45;i2p/lib/common/lease.NewLeaseFromBytes&#45;&gt;github.com/go&#45;i2p/go&#45;i2p/lib/common/lease.ReadLease</title>
<g id="a_edge8"><a xlink:title="at lease.go:144: calling [github.com/go&#45;i2p/go&#45;i2p/lib/common/lease.ReadLease]">
<path fill="none" stroke="#000000" d="M161.3567,-340.5128C187.96,-346.1884 217.5285,-352.4967 242.065,-357.7314"/>
<polygon fill="#000000" stroke="#000000" points="241.3891,-361.1659 251.8993,-359.8295 242.8497,-354.32 241.3891,-361.1659"/>
</a>
</g>
</g>
<!-- github.com/go&#45;i2p/go&#45;i2p/lib/common/lease.NewLeaseFromBytes&#45;&gt;(*github.com/go&#45;i2p/logger.Logger).WithFields -->
<g id="edge3" class="edge">
<title>github.com/go&#45;i2p/go&#45;i2p/lib/common/lease.NewLeaseFromBytes&#45;&gt;(*github.com/go&#45;i2p/logger.Logger).WithFields</title>
<g id="a_edge3"><a xlink:title="at lease.go:152: calling [(*github.com/go&#45;i2p/logger.Logger).WithFields]">
<path fill="none" stroke="#8b4513" d="M161.5746,-310.907C236.6049,-296.4081 351.6733,-274.1723 418.4891,-261.2608"/>
<polygon fill="#8b4513" stroke="#8b4513" points="419.2313,-264.6822 428.3856,-259.3484 417.9032,-257.8093 419.2313,-264.6822"/>
</a>
</g>
</g>
<!-- github.com/go&#45;i2p/go&#45;i2p/lib/common/lease.NewLeaseFromBytes&#45;&gt;(*github.com/go&#45;i2p/logger.Logger).WithField -->
<g id="edge18" class="edge">
<title>github.com/go&#45;i2p/go&#45;i2p/lib/common/lease.NewLeaseFromBytes&#45;&gt;(*github.com/go&#45;i2p/logger.Logger).WithField</title>
<g id="a_edge18"><a xlink:title="at lease.go:141: calling [(*github.com/go&#45;i2p/logger.Logger).WithField]">
<path fill="none" stroke="#8b4513" d="M131.6983,-306.9985C160.5438,-295.1498 199.4725,-279.5661 234.289,-267 298.3208,-243.8894 373.1745,-220.1322 421.4259,-205.2336"/>
<polygon fill="#8b4513" stroke="#8b4513" points="422.4801,-208.5713 431.0074,-202.2837 420.4203,-201.8812 422.4801,-208.5713"/>
</a>
</g>
</g>
<!-- github.com/go&#45;i2p/go&#45;i2p/lib/common/lease.NewLeaseFromBytes&#45;&gt;(*github.com/go&#45;i2p/logger.Logger).Error -->
<g id="edge21" class="edge">
<title>github.com/go&#45;i2p/go&#45;i2p/lib/common/lease.NewLeaseFromBytes&#45;&gt;(*github.com/go&#45;i2p/logger.Logger).Error</title>
<g id="a_edge21"><a xlink:title="at lease.go:146: calling [(*github.com/go&#45;i2p/logger.Logger).Error]">
<path fill="none" stroke="#8b4513" d="M110.1613,-306.7367C137.5881,-284.1253 187.1201,-245.4882 234.289,-220 300.4279,-184.2611 383.6425,-155.7852 431.9066,-140.7353"/>
<polygon fill="#8b4513" stroke="#8b4513" points="433.1312,-144.0204 441.6564,-137.7298 431.0691,-137.331 433.1312,-144.0204"/>
</a>
</g>
</g>
<!-- (*github.com/go&#45;i2p/logger.Logger).WithError -->
<g id="node10" class="node">
<title>(*github.com/go&#45;i2p/logger.Logger).WithError</title>
<g id="a_node10"><a xlink:title="(*github.com/go&#45;i2p/logger.Logger).WithError | defined in log.go:66">
<path fill="#ffe4b5" stroke="#000000" stroke-width="1.5" d="M500.1193,-86C500.1193,-86 443.0563,-86 443.0563,-86 437.0563,-86 431.0563,-80 431.0563,-74 431.0563,-74 431.0563,-62 431.0563,-62 431.0563,-56 437.0563,-50 443.0563,-50 443.0563,-50 500.1193,-50 500.1193,-50 506.1193,-50 512.1193,-56 512.1193,-62 512.1193,-62 512.1193,-74 512.1193,-74 512.1193,-80 506.1193,-86 500.1193,-86"/>
<text text-anchor="middle" x="471.5878" y="-72.2" font-family="Verdana" font-size="14.00" fill="#000000">logger</text>
<text text-anchor="middle" x="471.5878" y="-55.4" font-family="Verdana" font-size="14.00" fill="#000000">WithError</text>
</a>
</g>
</g>
<!-- github.com/go&#45;i2p/go&#45;i2p/lib/common/lease.NewLeaseFromBytes&#45;&gt;(*github.com/go&#45;i2p/logger.Logger).WithError -->
<g id="edge14" class="edge">
<title>github.com/go&#45;i2p/go&#45;i2p/lib/common/lease.NewLeaseFromBytes&#45;&gt;(*github.com/go&#45;i2p/logger.Logger).WithError</title>
<g id="a_edge14"><a xlink:title="at lease.go:146: calling [(*github.com/go&#45;i2p/logger.Logger).WithError]">
<path fill="none" stroke="#8b4513" d="M100.3322,-306.9586C122.6518,-273.7923 174.4797,-202.7183 234.289,-161 292.4697,-120.4177 370.8398,-94.1922 421.2975,-80.2568"/>
<polygon fill="#8b4513" stroke="#8b4513" points="422.2627,-83.6217 431.0026,-77.633 420.4357,-76.8642 422.2627,-83.6217"/>
</a>
</g>
</g>
<!-- github.com/go&#45;i2p/go&#45;i2p/lib/common/lease.NewLeaseFromBytes&#45;&gt;(*github.com/sirupsen/logrus.Logger).Debug -->
<g id="edge13" class="edge">
<title>github.com/go&#45;i2p/go&#45;i2p/lib/common/lease.NewLeaseFromBytes&#45;&gt;(*github.com/sirupsen/logrus.Logger).Debug</title>
<g id="a_edge13"><a xlink:title="at lease.go:141: calling [(*github.com/sirupsen/logrus.Logger).Debug]&#10;at lease.go:156: calling [(*github.com/sirupsen/logrus.Logger).Debug]">
<path fill="none" stroke="#8b4513" d="M93.688,-343.148C107.5783,-389.5488 151.0006,-513.0699 234.289,-573 242.2772,-578.7479 365.2091,-602.7768 430.9004,-615.3129"/>
<polygon fill="#8b4513" stroke="#8b4513" points="430.4474,-618.7895 440.9256,-617.2217 431.7567,-611.913 430.4474,-618.7895"/>
</a>
</g>
</g>
<!-- github.com/go&#45;i2p/go&#45;i2p/lib/common/lease.NewLeaseFromBytes&#45;&gt;(github.com/go&#45;i2p/go&#45;i2p/lib/common/data.Date).Time -->
<g id="edge9" class="edge">
<title>github.com/go&#45;i2p/go&#45;i2p/lib/common/lease.NewLeaseFromBytes&#45;&gt;(github.com/go&#45;i2p/go&#45;i2p/lib/common/data.Date).Time</title>
<g id="a_edge9"><a xlink:title="at lease.go:154: calling [(github.com/go&#45;i2p/go&#45;i2p/lib/common/data.Date).Time]">
<path fill="none" stroke="#8b4513" d="M161.5746,-327.2854C242.8097,-329.831 370.9788,-333.8473 434.0257,-335.8229"/>
<polygon fill="#8b4513" stroke="#8b4513" points="434.1875,-339.3296 444.2922,-336.1447 434.4068,-332.3331 434.1875,-339.3296"/>
</a>
</g>
</g>
<!-- github.com/go&#45;i2p/go&#45;i2p/lib/common/lease.NewLeaseFromBytes&#45;&gt;(github.com/go&#45;i2p/go&#45;i2p/lib/common/lease.Lease).TunnelID -->
<g id="edge1" class="edge">
<title>github.com/go&#45;i2p/go&#45;i2p/lib/common/lease.NewLeaseFromBytes&#45;&gt;(github.com/go&#45;i2p/go&#45;i2p/lib/common/lease.Lease).TunnelID</title>
<g id="a_edge1"><a xlink:title="at lease.go:153: calling [(github.com/go&#45;i2p/go&#45;i2p/lib/common/lease.Lease).TunnelID]">
<path fill="none" stroke="#000000" d="M120.0301,-343.0897C149.0494,-359.3469 193.693,-383.1825 234.289,-400 297.7185,-426.2766 373.7071,-449.1832 422.303,-462.7987"/>
<polygon fill="#000000" stroke="#000000" points="421.6706,-466.2555 432.2426,-465.561 423.5449,-459.5111 421.6706,-466.2555"/>
</a>
</g>
</g>
<!-- github.com/go&#45;i2p/go&#45;i2p/lib/common/lease.NewLeaseFromBytes&#45;&gt;(github.com/go&#45;i2p/go&#45;i2p/lib/common/lease.Lease).Date -->
<g id="edge2" class="edge">
<title>github.com/go&#45;i2p/go&#45;i2p/lib/common/lease.NewLeaseFromBytes&#45;&gt;(github.com/go&#45;i2p/go&#45;i2p/lib/common/lease.Lease).Date</title>
<g id="a_edge2"><a xlink:title="at lease.go:154: calling [(github.com/go&#45;i2p/go&#45;i2p/lib/common/lease.Lease).Date]">
<path fill="none" stroke="#000000" d="M111.4694,-343.1579C139.4194,-364.9089 188.6801,-401.7 234.289,-428 302.488,-467.3264 387.3499,-503.4535 434.8903,-522.6271"/>
<polygon fill="#000000" stroke="#000000" points="433.8645,-525.9865 444.449,-526.4562 436.4676,-519.4885 433.8645,-525.9865"/>
</a>
</g>
</g>
<!-- (github.com/go&#45;i2p/go&#45;i2p/lib/common/data.Integer).Int -->
<g id="node13" class="node">
<title>(github.com/go&#45;i2p/go&#45;i2p/lib/common/data.Integer).Int</title>
<g id="a_node13"><a xlink:title="(github.com/go&#45;i2p/go&#45;i2p/lib/common/data.Integer).Int | defined in integer.go:32">
<path fill="#ffe4b5" stroke="#000000" stroke-width="1.5" d="M638.6972,-494C638.6972,-494 608.6972,-494 608.6972,-494 602.6972,-494 596.6972,-488 596.6972,-482 596.6972,-482 596.6972,-470 596.6972,-470 596.6972,-464 602.6972,-458 608.6972,-458 608.6972,-458 638.6972,-458 638.6972,-458 644.6972,-458 650.6972,-464 650.6972,-470 650.6972,-470 650.6972,-482 650.6972,-482 650.6972,-488 644.6972,-494 638.6972,-494"/>
<text text-anchor="middle" x="623.6972" y="-480.2" font-family="Verdana" font-size="14.00" fill="#000000">data</text>
<text text-anchor="middle" x="623.6972" y="-463.4" font-family="Verdana" font-size="14.00" fill="#000000">Int</text>
</a>
</g>
</g>
<!-- (github.com/go&#45;i2p/go&#45;i2p/lib/common/lease.Lease).TunnelID&#45;&gt;(github.com/go&#45;i2p/go&#45;i2p/lib/common/data.Integer).Int -->
<g id="edge6" class="edge">
<title>(github.com/go&#45;i2p/go&#45;i2p/lib/common/lease.Lease).TunnelID&#45;&gt;(github.com/go&#45;i2p/go&#45;i2p/lib/common/data.Integer).Int</title>
<g id="a_edge6"><a xlink:title="at lease.go:73: calling [(github.com/go&#45;i2p/go&#45;i2p/lib/common/data.Integer).Int]">
<path fill="none" stroke="#8b4513" d="M511.1557,-476C534.257,-476 563.2443,-476 586.0141,-476"/>
<polygon fill="#8b4513" stroke="#8b4513" points="586.3165,-479.5001 596.3164,-476 586.3164,-472.5001 586.3165,-479.5001"/>
</a>
</g>
</g>
</g>
</svg>
