<?xml version="1.0" encoding="UTF-8" standalone="no"?>
<!DOCTYPE svg PUBLIC "-//W3C//DTD SVG 1.1//EN"
 "http://www.w3.org/Graphics/SVG/1.1/DTD/svg11.dtd">
<!-- Generated by graphviz version 2.40.1 (20161225.0304)
 -->
<!-- Title: gocallvis Pages: 1 -->
<svg width="594pt" height="331pt"
 viewBox="0.00 0.00 594.44 331.00" xmlns="http://www.w3.org/2000/svg" xmlns:xlink="http://www.w3.org/1999/xlink">
<g id="graph0" class="graph" transform="scale(1 1) rotate(0) translate(0 331)">
<title>gocallvis</title>
<polygon fill="#d3d3d3" stroke="transparent" points="0,0 0,-331 594.4406,-331 594.4406,0 0,0"/>
<g id="clust1" class="cluster">
<title>cluster_focus</title>
<polygon fill="#e6ecfa" stroke="#000000" stroke-width=".5" points="8,-8 8,-323 586.4406,-323 586.4406,-8 8,-8"/>
<text text-anchor="middle" x="297.2203" y="-302.8" font-family="Arial" font-size="18.00" fill="#000000">naming</text>
</g>
<g id="clust3" class="cluster">
<title>cluster_*github.com/go&#45;i2p/logger.Logger</title>
<g id="a_clust3"><a xlink:title="type: *github.com/go&#45;i2p/logger.Logger">
<path fill="#eed8ae" stroke="#000000" stroke-width=".5" d="M483.7919,-207C483.7919,-207 562.0107,-207 562.0107,-207 568.0107,-207 574.0107,-213 574.0107,-219 574.0107,-219 574.0107,-273 574.0107,-273 574.0107,-279 568.0107,-285 562.0107,-285 562.0107,-285 483.7919,-285 483.7919,-285 477.7919,-285 471.7919,-279 471.7919,-273 471.7919,-273 471.7919,-219 471.7919,-219 471.7919,-213 477.7919,-207 483.7919,-207"/>
<text text-anchor="middle" x="522.9013" y="-215.5" font-family="Arial" font-size="15.00" fill="#222222">(*Logger)</text>
</a>
</g>
</g>
<g id="clust2" class="cluster">
<title>cluster_*github.com/go&#45;i2p/logger.Entry</title>
<g id="a_clust2"><a xlink:title="type: *github.com/go&#45;i2p/logger.Entry">
<path fill="#eed8ae" stroke="#000000" stroke-width=".5" d="M497.0184,-60C497.0184,-60 548.7842,-60 548.7842,-60 554.7842,-60 560.7842,-66 560.7842,-72 560.7842,-72 560.7842,-187 560.7842,-187 560.7842,-193 554.7842,-199 548.7842,-199 548.7842,-199 497.0184,-199 497.0184,-199 491.0184,-199 485.0184,-193 485.0184,-187 485.0184,-187 485.0184,-72 485.0184,-72 485.0184,-66 491.0184,-60 497.0184,-60"/>
<text text-anchor="middle" x="522.9013" y="-68.5" font-family="Arial" font-size="15.00" fill="#222222">(*Entry)</text>
</a>
</g>
</g>
<!-- github.com/go&#45;i2p/go&#45;i2p/lib/naming.newResolverFromData -->
<g id="node1" class="node">
<title>github.com/go&#45;i2p/go&#45;i2p/lib/naming.newResolverFromData</title>
<g id="a_node1"><a xlink:title="github.com/go&#45;i2p/go&#45;i2p/lib/naming.newResolverFromData | defined in resolver.go:36&#10;at resolver.go:49: calling [(*github.com/go&#45;i2p/logger.Logger).WithFields]&#10;at resolver.go:63: calling [(*github.com/go&#45;i2p/logger.Logger).WithFields]&#10;at resolver.go:53: calling [(*github.com/go&#45;i2p/logger.Entry).Warn]&#10;at resolver.go:66: calling [(*github.com/go&#45;i2p/logger.Entry).Info]&#10;at resolver.go:47: calling [github.com/go&#45;i2p/go&#45;i2p/lib/naming.parseHostsLine]">
<path fill="#add8e6" stroke="#000000" stroke-width=".5" d="M382.2836,-160C382.2836,-160 252.5974,-160 252.5974,-160 246.5974,-160 240.5974,-154 240.5974,-148 240.5974,-148 240.5974,-136 240.5974,-136 240.5974,-130 246.5974,-124 252.5974,-124 252.5974,-124 382.2836,-124 382.2836,-124 388.2836,-124 394.2836,-130 394.2836,-136 394.2836,-136 394.2836,-148 394.2836,-148 394.2836,-154 388.2836,-160 382.2836,-160"/>
<text text-anchor="middle" x="317.4405" y="-137.8" font-family="Verdana" font-size="14.00" fill="#000000">newResolverFromData</text>
</a>
</g>
</g>
<!-- github.com/go&#45;i2p/go&#45;i2p/lib/naming.parseHostsLine -->
<g id="node2" class="node">
<title>github.com/go&#45;i2p/go&#45;i2p/lib/naming.parseHostsLine</title>
<g id="a_node2"><a xlink:title="github.com/go&#45;i2p/go&#45;i2p/lib/naming.parseHostsLine | defined in resolver.go:72">
<path fill="#add8e6" stroke="#000000" stroke-width=".5" d="M566.4799,-52C566.4799,-52 479.3227,-52 479.3227,-52 473.3227,-52 467.3227,-46 467.3227,-40 467.3227,-40 467.3227,-28 467.3227,-28 467.3227,-22 473.3227,-16 479.3227,-16 479.3227,-16 566.4799,-16 566.4799,-16 572.4799,-16 578.4799,-22 578.4799,-28 578.4799,-28 578.4799,-40 578.4799,-40 578.4799,-46 572.4799,-52 566.4799,-52"/>
<text text-anchor="middle" x="522.9013" y="-29.8" font-family="Verdana" font-size="14.00" fill="#000000">parseHostsLine</text>
</a>
</g>
</g>
<!-- github.com/go&#45;i2p/go&#45;i2p/lib/naming.newResolverFromData&#45;&gt;github.com/go&#45;i2p/go&#45;i2p/lib/naming.parseHostsLine -->
<g id="edge6" class="edge">
<title>github.com/go&#45;i2p/go&#45;i2p/lib/naming.newResolverFromData&#45;&gt;github.com/go&#45;i2p/go&#45;i2p/lib/naming.parseHostsLine</title>
<g id="a_edge6"><a xlink:title="at resolver.go:47: calling [github.com/go&#45;i2p/go&#45;i2p/lib/naming.parseHostsLine]">
<path fill="none" stroke="#000000" d="M346.0744,-123.9234C374.0234,-106.6528 418.2689,-80.2863 466.897,-56.4295"/>
<polygon fill="#000000" stroke="#000000" points="468.5517,-59.517 476.025,-52.0069 465.4995,-53.2175 468.5517,-59.517"/>
</a>
</g>
</g>
<!-- (*github.com/go&#45;i2p/logger.Entry).Warn -->
<g id="node6" class="node">
<title>(*github.com/go&#45;i2p/logger.Entry).Warn</title>
<g id="a_node6"><a xlink:title="(*github.com/go&#45;i2p/logger.Entry).Warn | defined in log.go:112">
<path fill="#ffe4b5" stroke="#000000" stroke-width="1.5" d="M540.6676,-130C540.6676,-130 505.135,-130 505.135,-130 499.135,-130 493.135,-124 493.135,-118 493.135,-118 493.135,-106 493.135,-106 493.135,-100 499.135,-94 505.135,-94 505.135,-94 540.6676,-94 540.6676,-94 546.6676,-94 552.6676,-100 552.6676,-106 552.6676,-106 552.6676,-118 552.6676,-118 552.6676,-124 546.6676,-130 540.6676,-130"/>
<text text-anchor="middle" x="522.9013" y="-116.2" font-family="Verdana" font-size="14.00" fill="#000000">logger</text>
<text text-anchor="middle" x="522.9013" y="-99.4" font-family="Verdana" font-size="14.00" fill="#000000">Warn</text>
</a>
</g>
</g>
<!-- github.com/go&#45;i2p/go&#45;i2p/lib/naming.newResolverFromData&#45;&gt;(*github.com/go&#45;i2p/logger.Entry).Warn -->
<g id="edge2" class="edge">
<title>github.com/go&#45;i2p/go&#45;i2p/lib/naming.newResolverFromData&#45;&gt;(*github.com/go&#45;i2p/logger.Entry).Warn</title>
<g id="a_edge2"><a xlink:title="at resolver.go:53: calling [(*github.com/go&#45;i2p/logger.Entry).Warn]">
<path fill="none" stroke="#8b4513" d="M394.5311,-130.7438C424.521,-126.3648 457.6253,-121.5312 482.7042,-117.8693"/>
<polygon fill="#8b4513" stroke="#8b4513" points="483.5391,-121.2846 492.9285,-116.3764 482.5277,-114.358 483.5391,-121.2846"/>
</a>
</g>
</g>
<!-- (*github.com/go&#45;i2p/logger.Entry).Info -->
<g id="node7" class="node">
<title>(*github.com/go&#45;i2p/logger.Entry).Info</title>
<g id="a_node7"><a xlink:title="(*github.com/go&#45;i2p/logger.Entry).Info | defined in log.go:102">
<path fill="#ffe4b5" stroke="#000000" stroke-width="1.5" d="M540.6676,-191C540.6676,-191 505.135,-191 505.135,-191 499.135,-191 493.135,-185 493.135,-179 493.135,-179 493.135,-167 493.135,-167 493.135,-161 499.135,-155 505.135,-155 505.135,-155 540.6676,-155 540.6676,-155 546.6676,-155 552.6676,-161 552.6676,-167 552.6676,-167 552.6676,-179 552.6676,-179 552.6676,-185 546.6676,-191 540.6676,-191"/>
<text text-anchor="middle" x="522.9013" y="-177.2" font-family="Verdana" font-size="14.00" fill="#000000">logger</text>
<text text-anchor="middle" x="522.9013" y="-160.4" font-family="Verdana" font-size="14.00" fill="#000000">Info</text>
</a>
</g>
</g>
<!-- github.com/go&#45;i2p/go&#45;i2p/lib/naming.newResolverFromData&#45;&gt;(*github.com/go&#45;i2p/logger.Entry).Info -->
<g id="edge3" class="edge">
<title>github.com/go&#45;i2p/go&#45;i2p/lib/naming.newResolverFromData&#45;&gt;(*github.com/go&#45;i2p/logger.Entry).Info</title>
<g id="a_edge3"><a xlink:title="at resolver.go:66: calling [(*github.com/go&#45;i2p/logger.Entry).Info]">
<path fill="none" stroke="#8b4513" d="M394.5311,-153.6315C424.6549,-158.1765 457.921,-163.1957 483.0396,-166.9857"/>
<polygon fill="#8b4513" stroke="#8b4513" points="482.5182,-170.4465 492.9285,-168.4777 483.5626,-163.5249 482.5182,-170.4465"/>
</a>
</g>
</g>
<!-- (*github.com/go&#45;i2p/logger.Logger).WithFields -->
<g id="node8" class="node">
<title>(*github.com/go&#45;i2p/logger.Logger).WithFields</title>
<g id="a_node8"><a xlink:title="(*github.com/go&#45;i2p/logger.Logger).WithFields | defined in log.go:66">
<path fill="#ffe4b5" stroke="#000000" stroke-width="1.5" d="M554.1204,-277C554.1204,-277 491.6822,-277 491.6822,-277 485.6822,-277 479.6822,-271 479.6822,-265 479.6822,-265 479.6822,-253 479.6822,-253 479.6822,-247 485.6822,-241 491.6822,-241 491.6822,-241 554.1204,-241 554.1204,-241 560.1204,-241 566.1204,-247 566.1204,-253 566.1204,-253 566.1204,-265 566.1204,-265 566.1204,-271 560.1204,-277 554.1204,-277"/>
<text text-anchor="middle" x="522.9013" y="-263.2" font-family="Verdana" font-size="14.00" fill="#000000">logger</text>
<text text-anchor="middle" x="522.9013" y="-246.4" font-family="Verdana" font-size="14.00" fill="#000000">WithFields</text>
</a>
</g>
</g>
<!-- github.com/go&#45;i2p/go&#45;i2p/lib/naming.newResolverFromData&#45;&gt;(*github.com/go&#45;i2p/logger.Logger).WithFields -->
<g id="edge1" class="edge">
<title>github.com/go&#45;i2p/go&#45;i2p/lib/naming.newResolverFromData&#45;&gt;(*github.com/go&#45;i2p/logger.Logger).WithFields</title>
<g id="a_edge1"><a xlink:title="at resolver.go:49: calling [(*github.com/go&#45;i2p/logger.Logger).WithFields]&#10;at resolver.go:63: calling [(*github.com/go&#45;i2p/logger.Logger).WithFields]">
<path fill="none" stroke="#8b4513" d="M349.0935,-160.0248C384.8378,-180.3795 443.0998,-213.5569 482.1996,-235.8223"/>
<polygon fill="#8b4513" stroke="#8b4513" points="480.7905,-239.0476 491.2124,-240.9547 484.2545,-232.9648 480.7905,-239.0476"/>
</a>
</g>
</g>
<!-- github.com/go&#45;i2p/go&#45;i2p/lib/naming.NewHostsTxtResolver -->
<g id="node3" class="node">
<title>github.com/go&#45;i2p/go&#45;i2p/lib/naming.NewHostsTxtResolver</title>
<g id="a_node3"><a xlink:title="github.com/go&#45;i2p/go&#45;i2p/lib/naming.NewHostsTxtResolver | defined in resolver.go:27&#10;at resolver.go:32: calling [github.com/go&#45;i2p/go&#45;i2p/lib/naming.newResolverFromData]">
<path fill="#add8e6" stroke="#000000" stroke-width="1.5" d="M155.2793,-160C155.2793,-160 28.2397,-160 28.2397,-160 22.2397,-160 16.2397,-154 16.2397,-148 16.2397,-148 16.2397,-136 16.2397,-136 16.2397,-130 22.2397,-124 28.2397,-124 28.2397,-124 155.2793,-124 155.2793,-124 161.2793,-124 167.2793,-130 167.2793,-136 167.2793,-136 167.2793,-148 167.2793,-148 167.2793,-154 161.2793,-160 155.2793,-160"/>
<text text-anchor="middle" x="91.7595" y="-137.8" font-family="Verdana" font-size="14.00" fill="#000000">NewHostsTxtResolver</text>
</a>
</g>
</g>
<!-- github.com/go&#45;i2p/go&#45;i2p/lib/naming.NewHostsTxtResolver&#45;&gt;github.com/go&#45;i2p/go&#45;i2p/lib/naming.newResolverFromData -->
<g id="edge4" class="edge">
<title>github.com/go&#45;i2p/go&#45;i2p/lib/naming.NewHostsTxtResolver&#45;&gt;github.com/go&#45;i2p/go&#45;i2p/lib/naming.newResolverFromData</title>
<g id="a_edge4"><a xlink:title="at resolver.go:32: calling [github.com/go&#45;i2p/go&#45;i2p/lib/naming.newResolverFromData]">
<path fill="none" stroke="#000000" d="M167.5358,-142C187.674,-142 209.584,-142 230.2773,-142"/>
<polygon fill="#000000" stroke="#000000" points="230.3251,-145.5001 240.325,-142 230.325,-138.5001 230.3251,-145.5001"/>
</a>
</g>
</g>
<!-- github.com/go&#45;i2p/go&#45;i2p/lib/naming.init -->
<g id="node4" class="node">
<title>github.com/go&#45;i2p/go&#45;i2p/lib/naming.init</title>
<g id="a_node4"><a xlink:title="github.com/go&#45;i2p/go&#45;i2p/lib/naming.init | defined in .:0&#10;at log.go:5: calling [github.com/go&#45;i2p/logger.GetGoI2PLogger]">
<path fill="#add8e6" stroke="#000000" stroke-width=".5" d="M106.7595,-77C106.7595,-77 76.7595,-77 76.7595,-77 70.7595,-77 64.7595,-71 64.7595,-65 64.7595,-65 64.7595,-53 64.7595,-53 64.7595,-47 70.7595,-41 76.7595,-41 76.7595,-41 106.7595,-41 106.7595,-41 112.7595,-41 118.7595,-47 118.7595,-53 118.7595,-53 118.7595,-65 118.7595,-65 118.7595,-71 112.7595,-77 106.7595,-77"/>
<text text-anchor="middle" x="91.7595" y="-54.8" font-family="Verdana" font-size="14.00" fill="#000000">init</text>
</a>
</g>
</g>
<!-- github.com/go&#45;i2p/logger.GetGoI2PLogger -->
<g id="node5" class="node">
<title>github.com/go&#45;i2p/logger.GetGoI2PLogger</title>
<g id="a_node5"><a xlink:title="github.com/go&#45;i2p/logger.GetGoI2PLogger | defined in log.go:254">
<path fill="#ffe4b5" stroke="#000000" stroke-width="1.5" d="M366.13,-77C366.13,-77 268.751,-77 268.751,-77 262.751,-77 256.751,-71 256.751,-65 256.751,-65 256.751,-53 256.751,-53 256.751,-47 262.751,-41 268.751,-41 268.751,-41 366.13,-41 366.13,-41 372.13,-41 378.13,-47 378.13,-53 378.13,-53 378.13,-65 378.13,-65 378.13,-71 372.13,-77 366.13,-77"/>
<text text-anchor="middle" x="317.4405" y="-63.2" font-family="Verdana" font-size="14.00" fill="#000000">logger</text>
<text text-anchor="middle" x="317.4405" y="-46.4" font-family="Verdana" font-size="14.00" fill="#000000">GetGoI2PLogger</text>
</a>
</g>
</g>
<!-- github.com/go&#45;i2p/go&#45;i2p/lib/naming.init&#45;&gt;github.com/go&#45;i2p/logger.GetGoI2PLogger -->
<g id="edge5" class="edge">
<title>github.com/go&#45;i2p/go&#45;i2p/lib/naming.init&#45;&gt;github.com/go&#45;i2p/logger.GetGoI2PLogger</title>
<g id="a_edge5"><a xlink:title="at log.go:5: calling [github.com/go&#45;i2p/logger.GetGoI2PLogger]">
<path fill="none" stroke="#8b4513" d="M118.9819,-59C150.3482,-59 203.1258,-59 246.3722,-59"/>
<polygon fill="#8b4513" stroke="#8b4513" points="246.5736,-62.5001 256.5736,-59 246.5735,-55.5001 246.5736,-62.5001"/>
</a>
</g>
</g>
</g>
</svg>
