<?xml version="1.0" encoding="UTF-8" standalone="no"?>
<!DOCTYPE svg PUBLIC "-//W3C//DTD SVG 1.1//EN"
 "http://www.w3.org/Graphics/SVG/1.1/DTD/svg11.dtd">
<!-- Generated by graphviz version 2.40.1 (20161225.0304)
 -->
<!-- Title: gocallvis Pages: 1 -->
<svg width="479pt" height="279pt"
 viewBox="0.00 0.00 479.00 279.00" xmlns="http://www.w3.org/2000/svg" xmlns:xlink="http://www.w3.org/1999/xlink">
<g id="graph0" class="graph" transform="scale(1 1) rotate(0) translate(0 279)">
<title>gocallvis</title>
<polygon fill="#d3d3d3" stroke="transparent" points="0,0 0,-279 479.0016,-279 479.0016,0 0,0"/>
<g id="clust1" class="cluster">
<title>cluster_focus</title>
<polygon fill="#e6ecfa" stroke="#000000" stroke-width=".5" points="8,-8 8,-271 479.0016,-271 479.0016,-8 8,-8"/>
<text text-anchor="middle" x="243.5008" y="-250.8" font-family="Arial" font-size="18.00" fill="#000000">obfs</text>
</g>
<g id="clust3" class="cluster">
<title>cluster_*github.com/go&#45;i2p/go&#45;i2p/lib/crypto/aes.AESSymmetricEncrypter</title>
<g id="a_clust3"><a xlink:title="type: *github.com/go&#45;i2p/go&#45;i2p/lib/crypto/aes.AESSymmetricEncrypter">
<path fill="#eed8ae" stroke="#000000" stroke-width=".5" d="M286.3045,-16C286.3045,-16 458.6173,-16 458.6173,-16 464.6173,-16 470.6173,-22 470.6173,-28 470.6173,-28 470.6173,-82 470.6173,-82 470.6173,-88 464.6173,-94 458.6173,-94 458.6173,-94 286.3045,-94 286.3045,-94 280.3045,-94 274.3045,-88 274.3045,-82 274.3045,-82 274.3045,-28 274.3045,-28 274.3045,-22 280.3045,-16 286.3045,-16"/>
<text text-anchor="middle" x="372.4609" y="-24.5" font-family="Arial" font-size="15.00" fill="#222222">(*AESSymmetricEncrypter)</text>
</a>
</g>
</g>
<g id="clust2" class="cluster">
<title>cluster_*github.com/go&#45;i2p/go&#45;i2p/lib/crypto/aes.AESSymmetricDecrypter</title>
<g id="a_clust2"><a xlink:title="type: *github.com/go&#45;i2p/go&#45;i2p/lib/crypto/aes.AESSymmetricDecrypter">
<path fill="#eed8ae" stroke="#000000" stroke-width=".5" d="M285.9202,-155C285.9202,-155 459.0016,-155 459.0016,-155 465.0016,-155 471.0016,-161 471.0016,-167 471.0016,-167 471.0016,-221 471.0016,-221 471.0016,-227 465.0016,-233 459.0016,-233 459.0016,-233 285.9202,-233 285.9202,-233 279.9202,-233 273.9202,-227 273.9202,-221 273.9202,-221 273.9202,-167 273.9202,-167 273.9202,-161 279.9202,-155 285.9202,-155"/>
<text text-anchor="middle" x="372.4609" y="-163.5" font-family="Arial" font-size="15.00" fill="#222222">(*AESSymmetricDecrypter)</text>
</a>
</g>
</g>
<!-- github.com/go&#45;i2p/go&#45;i2p/lib/transport/obfs.DeobfuscateEphemeralKey -->
<g id="node1" class="node">
<title>github.com/go&#45;i2p/go&#45;i2p/lib/transport/obfs.DeobfuscateEphemeralKey</title>
<g id="a_node1"><a xlink:title="github.com/go&#45;i2p/go&#45;i2p/lib/transport/obfs.DeobfuscateEphemeralKey | defined in obfs.go:36&#10;at obfs.go:38: calling [github.com/samber/oops.Errorf]&#10;at obfs.go:51: calling [(*github.com/go&#45;i2p/go&#45;i2p/lib/crypto/aes.AESSymmetricDecrypter).DecryptNoPadding]">
<path fill="#add8e6" stroke="#000000" stroke-width="1.5" d="M181.8803,-169C181.8803,-169 28.0399,-169 28.0399,-169 22.0399,-169 16.0399,-163 16.0399,-157 16.0399,-157 16.0399,-145 16.0399,-145 16.0399,-139 22.0399,-133 28.0399,-133 28.0399,-133 181.8803,-133 181.8803,-133 187.8803,-133 193.8803,-139 193.8803,-145 193.8803,-145 193.8803,-157 193.8803,-157 193.8803,-163 187.8803,-169 181.8803,-169"/>
<text text-anchor="middle" x="104.9601" y="-146.8" font-family="Verdana" font-size="14.00" fill="#000000">DeobfuscateEphemeralKey</text>
</a>
</g>
</g>
<!-- github.com/samber/oops.Errorf -->
<g id="node2" class="node">
<title>github.com/samber/oops.Errorf</title>
<g id="a_node2"><a xlink:title="github.com/samber/oops.Errorf | defined in oops.go:34">
<path fill="#ffe4b5" stroke="#000000" stroke-width="1.5" d="M389.1562,-147C389.1562,-147 354.7656,-147 354.7656,-147 348.7656,-147 342.7656,-141 342.7656,-135 342.7656,-135 342.7656,-123 342.7656,-123 342.7656,-117 348.7656,-111 354.7656,-111 354.7656,-111 389.1562,-111 389.1562,-111 395.1562,-111 401.1562,-117 401.1562,-123 401.1562,-123 401.1562,-135 401.1562,-135 401.1562,-141 395.1562,-147 389.1562,-147"/>
<text text-anchor="middle" x="371.9609" y="-133.2" font-family="Verdana" font-size="14.00" fill="#000000">oops</text>
<text text-anchor="middle" x="371.9609" y="-116.4" font-family="Verdana" font-size="14.00" fill="#000000">Errorf</text>
</a>
</g>
</g>
<!-- github.com/go&#45;i2p/go&#45;i2p/lib/transport/obfs.DeobfuscateEphemeralKey&#45;&gt;github.com/samber/oops.Errorf -->
<g id="edge1" class="edge">
<title>github.com/go&#45;i2p/go&#45;i2p/lib/transport/obfs.DeobfuscateEphemeralKey&#45;&gt;github.com/samber/oops.Errorf</title>
<g id="a_edge1"><a xlink:title="at obfs.go:38: calling [github.com/samber/oops.Errorf]">
<path fill="none" stroke="#8b4513" d="M194.2387,-143.6437C241.1517,-139.7783 296.2782,-135.236 332.5523,-132.2471"/>
<polygon fill="#8b4513" stroke="#8b4513" points="333.0385,-135.719 342.7173,-131.4096 332.4636,-128.7427 333.0385,-135.719"/>
</a>
</g>
</g>
<!-- (*github.com/go&#45;i2p/go&#45;i2p/lib/crypto/aes.AESSymmetricDecrypter).DecryptNoPadding -->
<g id="node4" class="node">
<title>(*github.com/go&#45;i2p/go&#45;i2p/lib/crypto/aes.AESSymmetricDecrypter).DecryptNoPadding</title>
<g id="a_node4"><a xlink:title="(*github.com/go&#45;i2p/go&#45;i2p/lib/crypto/aes.AESSymmetricDecrypter).DecryptNoPadding | defined in aes_decrypter.go:49">
<path fill="#ffe4b5" stroke="#000000" stroke-width="1.5" d="M426.0423,-225C426.0423,-225 317.8795,-225 317.8795,-225 311.8795,-225 305.8795,-219 305.8795,-213 305.8795,-213 305.8795,-201 305.8795,-201 305.8795,-195 311.8795,-189 317.8795,-189 317.8795,-189 426.0423,-189 426.0423,-189 432.0423,-189 438.0423,-195 438.0423,-201 438.0423,-201 438.0423,-213 438.0423,-213 438.0423,-219 432.0423,-225 426.0423,-225"/>
<text text-anchor="middle" x="371.9609" y="-211.2" font-family="Verdana" font-size="14.00" fill="#000000">aes</text>
<text text-anchor="middle" x="371.9609" y="-194.4" font-family="Verdana" font-size="14.00" fill="#000000">DecryptNoPadding</text>
</a>
</g>
</g>
<!-- github.com/go&#45;i2p/go&#45;i2p/lib/transport/obfs.DeobfuscateEphemeralKey&#45;&gt;(*github.com/go&#45;i2p/go&#45;i2p/lib/crypto/aes.AESSymmetricDecrypter).DecryptNoPadding -->
<g id="edge2" class="edge">
<title>github.com/go&#45;i2p/go&#45;i2p/lib/transport/obfs.DeobfuscateEphemeralKey&#45;&gt;(*github.com/go&#45;i2p/go&#45;i2p/lib/crypto/aes.AESSymmetricDecrypter).DecryptNoPadding</title>
<g id="a_edge2"><a xlink:title="at obfs.go:51: calling [(*github.com/go&#45;i2p/go&#45;i2p/lib/crypto/aes.AESSymmetricDecrypter).DecryptNoPadding]">
<path fill="none" stroke="#8b4513" d="M190.9105,-169.027C224.6204,-176.0972 262.983,-184.1433 295.6918,-191.0035"/>
<polygon fill="#8b4513" stroke="#8b4513" points="295.1443,-194.4648 305.6498,-193.0921 296.5812,-187.6138 295.1443,-194.4648"/>
</a>
</g>
</g>
<!-- github.com/go&#45;i2p/go&#45;i2p/lib/transport/obfs.ObfuscateEphemeralKey -->
<g id="node3" class="node">
<title>github.com/go&#45;i2p/go&#45;i2p/lib/transport/obfs.ObfuscateEphemeralKey</title>
<g id="a_node3"><a xlink:title="github.com/go&#45;i2p/go&#45;i2p/lib/transport/obfs.ObfuscateEphemeralKey | defined in obfs.go:9&#10;at obfs.go:11: calling [github.com/samber/oops.Errorf]&#10;at obfs.go:24: calling [(*github.com/go&#45;i2p/go&#45;i2p/lib/crypto/aes.AESSymmetricEncrypter).EncryptNoPadding]">
<path fill="#add8e6" stroke="#000000" stroke-width="1.5" d="M175.166,-95C175.166,-95 34.7542,-95 34.7542,-95 28.7542,-95 22.7542,-89 22.7542,-83 22.7542,-83 22.7542,-71 22.7542,-71 22.7542,-65 28.7542,-59 34.7542,-59 34.7542,-59 175.166,-59 175.166,-59 181.166,-59 187.166,-65 187.166,-71 187.166,-71 187.166,-83 187.166,-83 187.166,-89 181.166,-95 175.166,-95"/>
<text text-anchor="middle" x="104.9601" y="-72.8" font-family="Verdana" font-size="14.00" fill="#000000">ObfuscateEphemeralKey</text>
</a>
</g>
</g>
<!-- github.com/go&#45;i2p/go&#45;i2p/lib/transport/obfs.ObfuscateEphemeralKey&#45;&gt;github.com/samber/oops.Errorf -->
<g id="edge3" class="edge">
<title>github.com/go&#45;i2p/go&#45;i2p/lib/transport/obfs.ObfuscateEphemeralKey&#45;&gt;github.com/samber/oops.Errorf</title>
<g id="a_edge3"><a xlink:title="at obfs.go:11: calling [github.com/samber/oops.Errorf]">
<path fill="none" stroke="#8b4513" d="M187.2478,-93.026C235.5675,-102.4366 294.4375,-113.9019 332.531,-121.3208"/>
<polygon fill="#8b4513" stroke="#8b4513" points="332.2136,-124.8247 342.6983,-123.3009 333.5518,-117.9538 332.2136,-124.8247"/>
</a>
</g>
</g>
<!-- (*github.com/go&#45;i2p/go&#45;i2p/lib/crypto/aes.AESSymmetricEncrypter).EncryptNoPadding -->
<g id="node5" class="node">
<title>(*github.com/go&#45;i2p/go&#45;i2p/lib/crypto/aes.AESSymmetricEncrypter).EncryptNoPadding</title>
<g id="a_node5"><a xlink:title="(*github.com/go&#45;i2p/go&#45;i2p/lib/crypto/aes.AESSymmetricEncrypter).EncryptNoPadding | defined in aes_encrypter.go:36">
<path fill="#ffe4b5" stroke="#000000" stroke-width="1.5" d="M425.7741,-86C425.7741,-86 318.1477,-86 318.1477,-86 312.1477,-86 306.1477,-80 306.1477,-74 306.1477,-74 306.1477,-62 306.1477,-62 306.1477,-56 312.1477,-50 318.1477,-50 318.1477,-50 425.7741,-50 425.7741,-50 431.7741,-50 437.7741,-56 437.7741,-62 437.7741,-62 437.7741,-74 437.7741,-74 437.7741,-80 431.7741,-86 425.7741,-86"/>
<text text-anchor="middle" x="371.9609" y="-72.2" font-family="Verdana" font-size="14.00" fill="#000000">aes</text>
<text text-anchor="middle" x="371.9609" y="-55.4" font-family="Verdana" font-size="14.00" fill="#000000">EncryptNoPadding</text>
</a>
</g>
</g>
<!-- github.com/go&#45;i2p/go&#45;i2p/lib/transport/obfs.ObfuscateEphemeralKey&#45;&gt;(*github.com/go&#45;i2p/go&#45;i2p/lib/crypto/aes.AESSymmetricEncrypter).EncryptNoPadding -->
<g id="edge4" class="edge">
<title>github.com/go&#45;i2p/go&#45;i2p/lib/transport/obfs.ObfuscateEphemeralKey&#45;&gt;(*github.com/go&#45;i2p/go&#45;i2p/lib/crypto/aes.AESSymmetricEncrypter).EncryptNoPadding</title>
<g id="a_edge4"><a xlink:title="at obfs.go:24: calling [(*github.com/go&#45;i2p/go&#45;i2p/lib/crypto/aes.AESSymmetricEncrypter).EncryptNoPadding]">
<path fill="none" stroke="#8b4513" d="M187.2478,-74.2263C221.824,-73.0608 261.8023,-71.7132 295.7046,-70.5704"/>
<polygon fill="#8b4513" stroke="#8b4513" points="296.1419,-74.0578 306.0183,-70.2228 295.906,-67.0617 296.1419,-74.0578"/>
</a>
</g>
</g>
</g>
</svg>
