<?xml version="1.0" encoding="UTF-8" standalone="no"?>
<!DOCTYPE svg PUBLIC "-//W3C//DTD SVG 1.1//EN"
 "http://www.w3.org/Graphics/SVG/1.1/DTD/svg11.dtd">
<!-- Generated by graphviz version 2.40.1 (20161225.0304)
 -->
<!-- Title: gocallvis Pages: 1 -->
<svg width="287pt" height="98pt"
 viewBox="0.00 0.00 286.75 98.00" xmlns="http://www.w3.org/2000/svg" xmlns:xlink="http://www.w3.org/1999/xlink">
<g id="graph0" class="graph" transform="scale(1 1) rotate(0) translate(0 98)">
<title>gocallvis</title>
<polygon fill="#d3d3d3" stroke="transparent" points="0,0 0,-98 286.7518,-98 286.7518,0 0,0"/>
<g id="clust1" class="cluster">
<title>cluster_focus</title>
<polygon fill="#e6ecfa" stroke="#000000" stroke-width=".5" points="8,-8 8,-90 278.7518,-90 278.7518,-8 8,-8"/>
<text text-anchor="middle" x="143.3759" y="-69.8" font-family="Arial" font-size="18.00" fill="#000000">padding</text>
</g>
<!-- github.com/go&#45;i2p/go&#45;i2p/lib/transport/padding.QuantAdjustment -->
<g id="node1" class="node">
<title>github.com/go&#45;i2p/go&#45;i2p/lib/transport/padding.QuantAdjustment</title>
<g id="a_node1"><a xlink:title="github.com/go&#45;i2p/go&#45;i2p/lib/transport/padding.QuantAdjustment | defined in quant.go:45&#10;at quant.go:52: calling [github.com/go&#45;i2p/go&#45;i2p/lib/transport/padding.Quant]">
<path fill="#add8e6" stroke="#000000" stroke-width="1.5" d="M127.3109,-52C127.3109,-52 28.2291,-52 28.2291,-52 22.2291,-52 16.2291,-46 16.2291,-40 16.2291,-40 16.2291,-28 16.2291,-28 16.2291,-22 22.2291,-16 28.2291,-16 28.2291,-16 127.3109,-16 127.3109,-16 133.3109,-16 139.3109,-22 139.3109,-28 139.3109,-28 139.3109,-40 139.3109,-40 139.3109,-46 133.3109,-52 127.3109,-52"/>
<text text-anchor="middle" x="77.77" y="-29.8" font-family="Verdana" font-size="14.00" fill="#000000">QuantAdjustment</text>
</a>
</g>
</g>
<!-- github.com/go&#45;i2p/go&#45;i2p/lib/transport/padding.Quant -->
<g id="node2" class="node">
<title>github.com/go&#45;i2p/go&#45;i2p/lib/transport/padding.Quant</title>
<g id="a_node2"><a xlink:title="github.com/go&#45;i2p/go&#45;i2p/lib/transport/padding.Quant | defined in quant.go:27">
<path fill="#add8e6" stroke="#000000" stroke-width="1.5" d="M258.8581,-52C258.8581,-52 224.4337,-52 224.4337,-52 218.4337,-52 212.4337,-46 212.4337,-40 212.4337,-40 212.4337,-28 212.4337,-28 212.4337,-22 218.4337,-16 224.4337,-16 224.4337,-16 258.8581,-16 258.8581,-16 264.8581,-16 270.8581,-22 270.8581,-28 270.8581,-28 270.8581,-40 270.8581,-40 270.8581,-46 264.8581,-52 258.8581,-52"/>
<text text-anchor="middle" x="241.6459" y="-29.8" font-family="Verdana" font-size="14.00" fill="#000000">Quant</text>
</a>
</g>
</g>
<!-- github.com/go&#45;i2p/go&#45;i2p/lib/transport/padding.QuantAdjustment&#45;&gt;github.com/go&#45;i2p/go&#45;i2p/lib/transport/padding.Quant -->
<g id="edge1" class="edge">
<title>github.com/go&#45;i2p/go&#45;i2p/lib/transport/padding.QuantAdjustment&#45;&gt;github.com/go&#45;i2p/go&#45;i2p/lib/transport/padding.Quant</title>
<g id="a_edge1"><a xlink:title="at quant.go:52: calling [github.com/go&#45;i2p/go&#45;i2p/lib/transport/padding.Quant]">
<path fill="none" stroke="#000000" d="M139.7245,-34C160.5819,-34 183.2791,-34 201.9491,-34"/>
<polygon fill="#000000" stroke="#000000" points="202.1501,-37.5001 212.15,-34 202.15,-30.5001 202.1501,-37.5001"/>
</a>
</g>
</g>
</g>
</svg>
