<?xml version="1.0" encoding="UTF-8" standalone="no"?>
<!DOCTYPE svg PUBLIC "-//W3C//DTD SVG 1.1//EN"
 "http://www.w3.org/Graphics/SVG/1.1/DTD/svg11.dtd">
<!-- Generated by graphviz version 2.40.1 (20161225.0304)
 -->
<!-- Title: gocallvis Pages: 1 -->
<svg width="472pt" height="428pt"
 viewBox="0.00 0.00 472.39 428.00" xmlns="http://www.w3.org/2000/svg" xmlns:xlink="http://www.w3.org/1999/xlink">
<g id="graph0" class="graph" transform="scale(1 1) rotate(0) translate(0 428)">
<title>gocallvis</title>
<polygon fill="#d3d3d3" stroke="transparent" points="0,0 0,-428 472.3858,-428 472.3858,0 0,0"/>
<g id="clust1" class="cluster">
<title>cluster_focus</title>
<polygon fill="#e6ecfa" stroke="#000000" stroke-width=".5" points="8,-8 8,-420 464.3858,-420 464.3858,-8 8,-8"/>
<text text-anchor="middle" x="236.1929" y="-399.8" font-family="Arial" font-size="18.00" fill="#000000">session_key</text>
</g>
<g id="clust2" class="cluster">
<title>cluster_*github.com/sirupsen/logrus.Entry</title>
<g id="a_clust2"><a xlink:title="type: *github.com/sirupsen/logrus.Entry">
<path fill="#eed8ae" stroke="#000000" stroke-width=".5" d="M238.2974,-243C238.2974,-243 291.6186,-243 291.6186,-243 297.6186,-243 303.6186,-249 303.6186,-255 303.6186,-255 303.6186,-370 303.6186,-370 303.6186,-376 297.6186,-382 291.6186,-382 291.6186,-382 238.2974,-382 238.2974,-382 232.2974,-382 226.2974,-376 226.2974,-370 226.2974,-370 226.2974,-255 226.2974,-255 226.2974,-249 232.2974,-243 238.2974,-243"/>
<text text-anchor="middle" x="264.958" y="-251.5" font-family="Arial" font-size="15.00" fill="#222222">(*Entry)</text>
</a>
</g>
</g>
<!-- github.com/go&#45;i2p/go&#45;i2p/lib/common/session_key.NewSessionKey -->
<g id="node1" class="node">
<title>github.com/go&#45;i2p/go&#45;i2p/lib/common/session_key.NewSessionKey</title>
<g id="a_node1"><a xlink:title="github.com/go&#45;i2p/go&#45;i2p/lib/common/session_key.NewSessionKey | defined in session_key.go:33&#10;at session_key.go:34: calling [(*github.com/sirupsen/logrus.Entry).Debug]&#10;at session_key.go:35: calling [github.com/go&#45;i2p/go&#45;i2p/lib/common/session_key.ReadSessionKey]&#10;at session_key.go:37: calling [github.com/sirupsen/logrus.WithError]&#10;at session_key.go:37: calling [(*github.com/sirupsen/logrus.Entry).Error]&#10;at session_key.go:41: calling [github.com/sirupsen/logrus.Debug]&#10;at session_key.go:34: calling [github.com/sirupsen/logrus.WithField]">
<path fill="#add8e6" stroke="#000000" stroke-width="1.5" d="M120.29,-204C120.29,-204 28.236,-204 28.236,-204 22.236,-204 16.236,-198 16.236,-192 16.236,-192 16.236,-180 16.236,-180 16.236,-174 22.236,-168 28.236,-168 28.236,-168 120.29,-168 120.29,-168 126.29,-168 132.29,-174 132.29,-180 132.29,-180 132.29,-192 132.29,-192 132.29,-198 126.29,-204 120.29,-204"/>
<text text-anchor="middle" x="74.263" y="-181.8" font-family="Verdana" font-size="14.00" fill="#000000">NewSessionKey</text>
</a>
</g>
</g>
<!-- github.com/sirupsen/logrus.WithField -->
<g id="node2" class="node">
<title>github.com/sirupsen/logrus.WithField</title>
<g id="a_node2"><a xlink:title="github.com/sirupsen/logrus.WithField | defined in exported.go:69">
<path fill="#ffe4b5" stroke="#000000" stroke-width="1.5" d="M293.2325,-52C293.2325,-52 236.6835,-52 236.6835,-52 230.6835,-52 224.6835,-46 224.6835,-40 224.6835,-40 224.6835,-28 224.6835,-28 224.6835,-22 230.6835,-16 236.6835,-16 236.6835,-16 293.2325,-16 293.2325,-16 299.2325,-16 305.2325,-22 305.2325,-28 305.2325,-28 305.2325,-40 305.2325,-40 305.2325,-46 299.2325,-52 293.2325,-52"/>
<text text-anchor="middle" x="264.958" y="-38.2" font-family="Verdana" font-size="14.00" fill="#000000">logrus</text>
<text text-anchor="middle" x="264.958" y="-21.4" font-family="Verdana" font-size="14.00" fill="#000000">WithField</text>
</a>
</g>
</g>
<!-- github.com/go&#45;i2p/go&#45;i2p/lib/common/session_key.NewSessionKey&#45;&gt;github.com/sirupsen/logrus.WithField -->
<g id="edge7" class="edge">
<title>github.com/go&#45;i2p/go&#45;i2p/lib/common/session_key.NewSessionKey&#45;&gt;github.com/sirupsen/logrus.WithField</title>
<g id="a_edge7"><a xlink:title="at session_key.go:34: calling [github.com/sirupsen/logrus.WithField]">
<path fill="none" stroke="#8b4513" d="M90.8252,-167.9829C114.5635,-142.8336 160.3942,-96.7292 205.526,-65 209.4263,-62.258 213.6003,-59.5997 217.8606,-57.0685"/>
<polygon fill="#8b4513" stroke="#8b4513" points="219.7007,-60.0485 226.6664,-52.0653 216.2427,-53.9622 219.7007,-60.0485"/>
</a>
</g>
</g>
<!-- github.com/go&#45;i2p/go&#45;i2p/lib/common/session_key.ReadSessionKey -->
<g id="node3" class="node">
<title>github.com/go&#45;i2p/go&#45;i2p/lib/common/session_key.ReadSessionKey</title>
<g id="a_node3"><a xlink:title="github.com/go&#45;i2p/go&#45;i2p/lib/common/session_key.ReadSessionKey | defined in session_key.go:25&#10;at session_key.go:27: calling [github.com/sirupsen/logrus.Warn]">
<path fill="#add8e6" stroke="#000000" stroke-width="1.5" d="M312.3221,-113C312.3221,-113 217.5939,-113 217.5939,-113 211.5939,-113 205.5939,-107 205.5939,-101 205.5939,-101 205.5939,-89 205.5939,-89 205.5939,-83 211.5939,-77 217.5939,-77 217.5939,-77 312.3221,-77 312.3221,-77 318.3221,-77 324.3221,-83 324.3221,-89 324.3221,-89 324.3221,-101 324.3221,-101 324.3221,-107 318.3221,-113 312.3221,-113"/>
<text text-anchor="middle" x="264.958" y="-90.8" font-family="Verdana" font-size="14.00" fill="#000000">ReadSessionKey</text>
</a>
</g>
</g>
<!-- github.com/go&#45;i2p/go&#45;i2p/lib/common/session_key.NewSessionKey&#45;&gt;github.com/go&#45;i2p/go&#45;i2p/lib/common/session_key.ReadSessionKey -->
<g id="edge3" class="edge">
<title>github.com/go&#45;i2p/go&#45;i2p/lib/common/session_key.NewSessionKey&#45;&gt;github.com/go&#45;i2p/go&#45;i2p/lib/common/session_key.ReadSessionKey</title>
<g id="a_edge3"><a xlink:title="at session_key.go:35: calling [github.com/go&#45;i2p/go&#45;i2p/lib/common/session_key.ReadSessionKey]">
<path fill="none" stroke="#000000" d="M112.3947,-167.8035C142.7648,-153.3108 185.4246,-132.9535 217.9151,-117.449"/>
<polygon fill="#000000" stroke="#000000" points="219.7002,-120.4753 227.2178,-113.0097 216.6854,-114.1577 219.7002,-120.4753"/>
</a>
</g>
</g>
<!-- github.com/sirupsen/logrus.WithError -->
<g id="node5" class="node">
<title>github.com/sirupsen/logrus.WithError</title>
<g id="a_node5"><a xlink:title="github.com/sirupsen/logrus.WithError | defined in exported.go:55">
<path fill="#ffe4b5" stroke="#000000" stroke-width="1.5" d="M293.4895,-174C293.4895,-174 236.4265,-174 236.4265,-174 230.4265,-174 224.4265,-168 224.4265,-162 224.4265,-162 224.4265,-150 224.4265,-150 224.4265,-144 230.4265,-138 236.4265,-138 236.4265,-138 293.4895,-138 293.4895,-138 299.4895,-138 305.4895,-144 305.4895,-150 305.4895,-150 305.4895,-162 305.4895,-162 305.4895,-168 299.4895,-174 293.4895,-174"/>
<text text-anchor="middle" x="264.958" y="-160.2" font-family="Verdana" font-size="14.00" fill="#000000">logrus</text>
<text text-anchor="middle" x="264.958" y="-143.4" font-family="Verdana" font-size="14.00" fill="#000000">WithError</text>
</a>
</g>
</g>
<!-- github.com/go&#45;i2p/go&#45;i2p/lib/common/session_key.NewSessionKey&#45;&gt;github.com/sirupsen/logrus.WithError -->
<g id="edge4" class="edge">
<title>github.com/go&#45;i2p/go&#45;i2p/lib/common/session_key.NewSessionKey&#45;&gt;github.com/sirupsen/logrus.WithError</title>
<g id="a_edge4"><a xlink:title="at session_key.go:37: calling [github.com/sirupsen/logrus.WithError]">
<path fill="none" stroke="#8b4513" d="M132.514,-176.836C158.6025,-172.7318 189.0807,-167.937 214.2186,-163.9823"/>
<polygon fill="#8b4513" stroke="#8b4513" points="214.9448,-167.4112 224.2794,-162.3995 213.8569,-160.4962 214.9448,-167.4112"/>
</a>
</g>
</g>
<!-- github.com/sirupsen/logrus.Debug -->
<g id="node6" class="node">
<title>github.com/sirupsen/logrus.Debug</title>
<g id="a_node6"><a xlink:title="github.com/sirupsen/logrus.Debug | defined in exported.go:98">
<path fill="#ffe4b5" stroke="#000000" stroke-width="1.5" d="M283.78,-235C283.78,-235 246.136,-235 246.136,-235 240.136,-235 234.136,-229 234.136,-223 234.136,-223 234.136,-211 234.136,-211 234.136,-205 240.136,-199 246.136,-199 246.136,-199 283.78,-199 283.78,-199 289.78,-199 295.78,-205 295.78,-211 295.78,-211 295.78,-223 295.78,-223 295.78,-229 289.78,-235 283.78,-235"/>
<text text-anchor="middle" x="264.958" y="-221.2" font-family="Verdana" font-size="14.00" fill="#000000">logrus</text>
<text text-anchor="middle" x="264.958" y="-204.4" font-family="Verdana" font-size="14.00" fill="#000000">Debug</text>
</a>
</g>
</g>
<!-- github.com/go&#45;i2p/go&#45;i2p/lib/common/session_key.NewSessionKey&#45;&gt;github.com/sirupsen/logrus.Debug -->
<g id="edge6" class="edge">
<title>github.com/go&#45;i2p/go&#45;i2p/lib/common/session_key.NewSessionKey&#45;&gt;github.com/sirupsen/logrus.Debug</title>
<g id="a_edge6"><a xlink:title="at session_key.go:41: calling [github.com/sirupsen/logrus.Debug]">
<path fill="none" stroke="#8b4513" d="M132.514,-195.4695C162.1028,-200.2795 197.3383,-206.0075 224.025,-210.3458"/>
<polygon fill="#8b4513" stroke="#8b4513" points="223.7352,-213.8446 234.1673,-211.9946 224.8585,-206.9353 223.7352,-213.8446"/>
</a>
</g>
</g>
<!-- (*github.com/sirupsen/logrus.Entry).Debug -->
<g id="node7" class="node">
<title>(*github.com/sirupsen/logrus.Entry).Debug</title>
<g id="a_node7"><a xlink:title="(*github.com/sirupsen/logrus.Entry).Debug | defined in entry.go:312">
<path fill="#ffe4b5" stroke="#000000" stroke-width="1.5" d="M283.78,-313C283.78,-313 246.136,-313 246.136,-313 240.136,-313 234.136,-307 234.136,-301 234.136,-301 234.136,-289 234.136,-289 234.136,-283 240.136,-277 246.136,-277 246.136,-277 283.78,-277 283.78,-277 289.78,-277 295.78,-283 295.78,-289 295.78,-289 295.78,-301 295.78,-301 295.78,-307 289.78,-313 283.78,-313"/>
<text text-anchor="middle" x="264.958" y="-299.2" font-family="Verdana" font-size="14.00" fill="#000000">logrus</text>
<text text-anchor="middle" x="264.958" y="-282.4" font-family="Verdana" font-size="14.00" fill="#000000">Debug</text>
</a>
</g>
</g>
<!-- github.com/go&#45;i2p/go&#45;i2p/lib/common/session_key.NewSessionKey&#45;&gt;(*github.com/sirupsen/logrus.Entry).Debug -->
<g id="edge1" class="edge">
<title>github.com/go&#45;i2p/go&#45;i2p/lib/common/session_key.NewSessionKey&#45;&gt;(*github.com/sirupsen/logrus.Entry).Debug</title>
<g id="a_edge1"><a xlink:title="at session_key.go:34: calling [(*github.com/sirupsen/logrus.Entry).Debug]">
<path fill="none" stroke="#8b4513" d="M97.9151,-204.1135C123.4419,-223.0678 165.7928,-252.8208 205.526,-273 211.5896,-276.0795 218.19,-278.9545 224.7143,-281.5442"/>
<polygon fill="#8b4513" stroke="#8b4513" points="223.5564,-284.8483 234.1476,-285.1249 226.0405,-278.3039 223.5564,-284.8483"/>
</a>
</g>
</g>
<!-- (*github.com/sirupsen/logrus.Entry).Error -->
<g id="node8" class="node">
<title>(*github.com/sirupsen/logrus.Entry).Error</title>
<g id="a_node8"><a xlink:title="(*github.com/sirupsen/logrus.Entry).Error | defined in entry.go:332">
<path fill="#ffe4b5" stroke="#000000" stroke-width="1.5" d="M282.4538,-374C282.4538,-374 247.4622,-374 247.4622,-374 241.4622,-374 235.4622,-368 235.4622,-362 235.4622,-362 235.4622,-350 235.4622,-350 235.4622,-344 241.4622,-338 247.4622,-338 247.4622,-338 282.4538,-338 282.4538,-338 288.4538,-338 294.4538,-344 294.4538,-350 294.4538,-350 294.4538,-362 294.4538,-362 294.4538,-368 288.4538,-374 282.4538,-374"/>
<text text-anchor="middle" x="264.958" y="-360.2" font-family="Verdana" font-size="14.00" fill="#000000">logrus</text>
<text text-anchor="middle" x="264.958" y="-343.4" font-family="Verdana" font-size="14.00" fill="#000000">Error</text>
</a>
</g>
</g>
<!-- github.com/go&#45;i2p/go&#45;i2p/lib/common/session_key.NewSessionKey&#45;&gt;(*github.com/sirupsen/logrus.Entry).Error -->
<g id="edge5" class="edge">
<title>github.com/go&#45;i2p/go&#45;i2p/lib/common/session_key.NewSessionKey&#45;&gt;(*github.com/sirupsen/logrus.Entry).Error</title>
<g id="a_edge5"><a xlink:title="at session_key.go:37: calling [(*github.com/sirupsen/logrus.Entry).Error]">
<path fill="none" stroke="#8b4513" d="M87.925,-204.2759C110.108,-233.0122 156.4463,-289.2647 205.526,-326 211.902,-330.7723 219.1515,-335.1491 226.3422,-338.9974"/>
<polygon fill="#8b4513" stroke="#8b4513" points="224.849,-342.1646 235.349,-343.5794 228.023,-335.9256 224.849,-342.1646"/>
</a>
</g>
</g>
<!-- github.com/sirupsen/logrus.Warn -->
<g id="node4" class="node">
<title>github.com/sirupsen/logrus.Warn</title>
<g id="a_node4"><a xlink:title="github.com/sirupsen/logrus.Warn | defined in exported.go:113">
<path fill="#ffe4b5" stroke="#000000" stroke-width="1.5" d="M444.3837,-113C444.3837,-113 409.3921,-113 409.3921,-113 403.3921,-113 397.3921,-107 397.3921,-101 397.3921,-101 397.3921,-89 397.3921,-89 397.3921,-83 403.3921,-77 409.3921,-77 409.3921,-77 444.3837,-77 444.3837,-77 450.3837,-77 456.3837,-83 456.3837,-89 456.3837,-89 456.3837,-101 456.3837,-101 456.3837,-107 450.3837,-113 444.3837,-113"/>
<text text-anchor="middle" x="426.8879" y="-99.2" font-family="Verdana" font-size="14.00" fill="#000000">logrus</text>
<text text-anchor="middle" x="426.8879" y="-82.4" font-family="Verdana" font-size="14.00" fill="#000000">Warn</text>
</a>
</g>
</g>
<!-- github.com/go&#45;i2p/go&#45;i2p/lib/common/session_key.ReadSessionKey&#45;&gt;github.com/sirupsen/logrus.Warn -->
<g id="edge2" class="edge">
<title>github.com/go&#45;i2p/go&#45;i2p/lib/common/session_key.ReadSessionKey&#45;&gt;github.com/sirupsen/logrus.Warn</title>
<g id="a_edge2"><a xlink:title="at session_key.go:27: calling [github.com/sirupsen/logrus.Warn]">
<path fill="none" stroke="#8b4513" d="M324.3352,-95C345.2029,-95 368.1346,-95 387.0117,-95"/>
<polygon fill="#8b4513" stroke="#8b4513" points="387.0431,-98.5001 397.043,-95 387.043,-91.5001 387.0431,-98.5001"/>
</a>
</g>
</g>
</g>
</svg>
