<?xml version="1.0" encoding="UTF-8" standalone="no"?>
<!DOCTYPE svg PUBLIC "-//W3C//DTD SVG 1.1//EN"
 "http://www.w3.org/Graphics/SVG/1.1/DTD/svg11.dtd">
<!-- Generated by graphviz version 2.40.1 (20161225.0304)
 -->
<!-- Title: gocallvis Pages: 1 -->
<svg width="1197pt" height="403pt"
 viewBox="0.00 0.00 1196.66 403.00" xmlns="http://www.w3.org/2000/svg" xmlns:xlink="http://www.w3.org/1999/xlink">
<g id="graph0" class="graph" transform="scale(1 1) rotate(0) translate(0 403)">
<title>gocallvis</title>
<polygon fill="#d3d3d3" stroke="transparent" points="0,0 0,-403 1196.661,-403 1196.661,0 0,0"/>
<g id="clust1" class="cluster">
<title>cluster_focus</title>
<polygon fill="#e6ecfa" stroke="#000000" stroke-width=".5" points="8,-8 8,-395 1188.661,-395 1188.661,-8 8,-8"/>
<text text-anchor="middle" x="598.3305" y="-374.8" font-family="Arial" font-size="18.00" fill="#000000">signals</text>
</g>
<g id="clust3" class="cluster">
<title>cluster_*github.com/go&#45;i2p/logger.Logger</title>
<g id="a_clust3"><a xlink:title="type: *github.com/go&#45;i2p/logger.Logger">
<path fill="#eed8ae" stroke="#000000" stroke-width=".5" d="M791.5003,-60C791.5003,-60 864.2745,-60 864.2745,-60 870.2745,-60 876.2745,-66 876.2745,-72 876.2745,-72 876.2745,-126 876.2745,-126 876.2745,-132 870.2745,-138 864.2745,-138 864.2745,-138 791.5003,-138 791.5003,-138 785.5003,-138 779.5003,-132 779.5003,-126 779.5003,-126 779.5003,-72 779.5003,-72 779.5003,-66 785.5003,-60 791.5003,-60"/>
<text text-anchor="middle" x="827.8874" y="-68.5" font-family="Arial" font-size="15.00" fill="#222222">(*Logger)</text>
</a>
</g>
</g>
<g id="clust2" class="cluster">
<title>cluster_*github.com/go&#45;i2p/logger.Entry</title>
<g id="a_clust2"><a xlink:title="type: *github.com/go&#45;i2p/logger.Entry">
<path fill="#eed8ae" stroke="#000000" stroke-width=".5" d="M801.2268,-146C801.2268,-146 854.548,-146 854.548,-146 860.548,-146 866.548,-152 866.548,-158 866.548,-158 866.548,-273 866.548,-273 866.548,-279 860.548,-285 854.548,-285 854.548,-285 801.2268,-285 801.2268,-285 795.2268,-285 789.2268,-279 789.2268,-273 789.2268,-273 789.2268,-158 789.2268,-158 789.2268,-152 795.2268,-146 801.2268,-146"/>
<text text-anchor="middle" x="827.8874" y="-154.5" font-family="Arial" font-size="15.00" fill="#222222">(*Entry)</text>
</a>
</g>
</g>
<!-- github.com/go&#45;i2p/go&#45;i2p/lib/util/signals.runHandlerWithTimeout$1 -->
<g id="node1" class="node">
<title>github.com/go&#45;i2p/go&#45;i2p/lib/util/signals.runHandlerWithTimeout$1</title>
<g id="a_node1"><a xlink:title="github.com/go&#45;i2p/go&#45;i2p/lib/util/signals.runHandlerWithTimeout$1 | defined in graceful.go:111&#10;at graceful.go:113: calling [github.com/go&#45;i2p/go&#45;i2p/lib/util/signals.runHandlerWithTimeout$1$1]">
<polygon fill="#add8e6" stroke="#000000" stroke-dasharray="1,5" points="916.5699,-52 739.2049,-52 739.2049,-16 916.5699,-16 916.5699,-52"/>
<text text-anchor="middle" x="827.8874" y="-29.8" font-family="Verdana" font-size="14.00" fill="#000000">runHandlerWithTimeout$1</text>
</a>
</g>
</g>
<!-- github.com/go&#45;i2p/go&#45;i2p/lib/util/signals.runHandlerWithTimeout$1$1 -->
<g id="node2" class="node">
<title>github.com/go&#45;i2p/go&#45;i2p/lib/util/signals.runHandlerWithTimeout$1$1</title>
<g id="a_node2"><a xlink:title="github.com/go&#45;i2p/go&#45;i2p/lib/util/signals.runHandlerWithTimeout$1$1 | defined in graceful.go:113">
<polygon fill="#add8e6" stroke="#000000" stroke-dasharray="1,5" points="1180.7523,-52 989.3873,-52 989.3873,-16 1180.7523,-16 1180.7523,-52"/>
<text text-anchor="middle" x="1085.0698" y="-29.8" font-family="Verdana" font-size="14.00" fill="#000000">runHandlerWithTimeout$1$1</text>
</a>
</g>
</g>
<!-- github.com/go&#45;i2p/go&#45;i2p/lib/util/signals.runHandlerWithTimeout$1&#45;&gt;github.com/go&#45;i2p/go&#45;i2p/lib/util/signals.runHandlerWithTimeout$1$1 -->
<g id="edge11" class="edge">
<title>github.com/go&#45;i2p/go&#45;i2p/lib/util/signals.runHandlerWithTimeout$1&#45;&gt;github.com/go&#45;i2p/go&#45;i2p/lib/util/signals.runHandlerWithTimeout$1$1</title>
<g id="a_edge11"><a xlink:title="at graceful.go:113: calling [github.com/go&#45;i2p/go&#45;i2p/lib/util/signals.runHandlerWithTimeout$1$1]">
<path fill="none" stroke="#000000" d="M916.7551,-34C931.3649,-34 946.7333,-34 961.9977,-34"/>
<polygon fill="#000000" stroke="#000000" points="979.1753,-37.5 989.1753,-34 979.1753,-30.5 979.1753,-37.5"/>
<polyline fill="none" stroke="#000000" points="979.1753,-34 974.1753,-34.0001 "/>
<polygon fill="none" stroke="#000000" points="962.1753,-34.0001 968.1753,-30.0001 974.1753,-34.0001 968.1753,-38.0001 962.1753,-34.0001"/>
</a>
</g>
</g>
<!-- github.com/go&#45;i2p/go&#45;i2p/lib/util/signals.runHandlerWithTimeout -->
<g id="node3" class="node">
<title>github.com/go&#45;i2p/go&#45;i2p/lib/util/signals.runHandlerWithTimeout</title>
<g id="a_node3"><a xlink:title="github.com/go&#45;i2p/go&#45;i2p/lib/util/signals.runHandlerWithTimeout | defined in graceful.go:109&#10;at graceful.go:111: calling [github.com/go&#45;i2p/go&#45;i2p/lib/util/signals.runHandlerWithTimeout$1]&#10;at graceful.go:125: calling [(*github.com/go&#45;i2p/logger.Logger).WithField]&#10;at graceful.go:125: calling [(*github.com/go&#45;i2p/logger.Entry).Warn]">
<path fill="#add8e6" stroke="#000000" stroke-width=".5" d="M640.3903,-113C640.3903,-113 501.0253,-113 501.0253,-113 495.0253,-113 489.0253,-107 489.0253,-101 489.0253,-101 489.0253,-89 489.0253,-89 489.0253,-83 495.0253,-77 501.0253,-77 501.0253,-77 640.3903,-77 640.3903,-77 646.3903,-77 652.3903,-83 652.3903,-89 652.3903,-89 652.3903,-101 652.3903,-101 652.3903,-107 646.3903,-113 640.3903,-113"/>
<text text-anchor="middle" x="570.7078" y="-90.8" font-family="Verdana" font-size="14.00" fill="#000000">runHandlerWithTimeout</text>
</a>
</g>
</g>
<!-- github.com/go&#45;i2p/go&#45;i2p/lib/util/signals.runHandlerWithTimeout&#45;&gt;github.com/go&#45;i2p/go&#45;i2p/lib/util/signals.runHandlerWithTimeout$1 -->
<g id="edge3" class="edge">
<title>github.com/go&#45;i2p/go&#45;i2p/lib/util/signals.runHandlerWithTimeout&#45;&gt;github.com/go&#45;i2p/go&#45;i2p/lib/util/signals.runHandlerWithTimeout$1</title>
<g id="a_edge3"><a xlink:title="at graceful.go:111: calling [github.com/go&#45;i2p/go&#45;i2p/lib/util/signals.runHandlerWithTimeout$1]">
<path fill="none" stroke="#000000" d="M646.8263,-76.9456C672.7468,-70.7975 702.1007,-63.8351 729.5128,-57.3333"/>
<polygon fill="#000000" stroke="#000000" points="743.0419,-57.7215 751.9642,-52.0081 741.4264,-50.9105 743.0419,-57.7215"/>
<polyline fill="none" stroke="#000000" points="742.2342,-54.316 737.3691,-55.4699 "/>
<ellipse fill="none" stroke="#000000" cx="733.4771" cy="-56.3931" rx="4" ry="4"/>
</a>
</g>
</g>
<!-- (*github.com/go&#45;i2p/logger.Entry).Warn -->
<g id="node20" class="node">
<title>(*github.com/go&#45;i2p/logger.Entry).Warn</title>
<g id="a_node20"><a xlink:title="(*github.com/go&#45;i2p/logger.Entry).Warn | defined in log.go:112">
<path fill="#ffe4b5" stroke="#000000" stroke-width="1.5" d="M845.6537,-216C845.6537,-216 810.1211,-216 810.1211,-216 804.1211,-216 798.1211,-210 798.1211,-204 798.1211,-204 798.1211,-192 798.1211,-192 798.1211,-186 804.1211,-180 810.1211,-180 810.1211,-180 845.6537,-180 845.6537,-180 851.6537,-180 857.6537,-186 857.6537,-192 857.6537,-192 857.6537,-204 857.6537,-204 857.6537,-210 851.6537,-216 845.6537,-216"/>
<text text-anchor="middle" x="827.8874" y="-202.2" font-family="Verdana" font-size="14.00" fill="#000000">logger</text>
<text text-anchor="middle" x="827.8874" y="-185.4" font-family="Verdana" font-size="14.00" fill="#000000">Warn</text>
</a>
</g>
</g>
<!-- github.com/go&#45;i2p/go&#45;i2p/lib/util/signals.runHandlerWithTimeout&#45;&gt;(*github.com/go&#45;i2p/logger.Entry).Warn -->
<g id="edge13" class="edge">
<title>github.com/go&#45;i2p/go&#45;i2p/lib/util/signals.runHandlerWithTimeout&#45;&gt;(*github.com/go&#45;i2p/logger.Entry).Warn</title>
<g id="a_edge13"><a xlink:title="at graceful.go:125: calling [(*github.com/go&#45;i2p/logger.Entry).Warn]">
<path fill="none" stroke="#8b4513" d="M629.6905,-113.0489C641.8767,-117.0792 654.5687,-121.5001 666.2962,-126 708.8362,-142.323 756.3393,-163.9074 788.7667,-179.1732"/>
<polygon fill="#8b4513" stroke="#8b4513" points="787.3734,-182.3859 797.9097,-183.4982 790.3667,-176.0582 787.3734,-182.3859"/>
</a>
</g>
</g>
<!-- (*github.com/go&#45;i2p/logger.Logger).WithField -->
<g id="node22" class="node">
<title>(*github.com/go&#45;i2p/logger.Logger).WithField</title>
<g id="a_node22"><a xlink:title="(*github.com/go&#45;i2p/logger.Logger).WithField | defined in log.go:60">
<path fill="#ffe4b5" stroke="#000000" stroke-width="1.5" d="M856.1619,-130C856.1619,-130 799.6129,-130 799.6129,-130 793.6129,-130 787.6129,-124 787.6129,-118 787.6129,-118 787.6129,-106 787.6129,-106 787.6129,-100 793.6129,-94 799.6129,-94 799.6129,-94 856.1619,-94 856.1619,-94 862.1619,-94 868.1619,-100 868.1619,-106 868.1619,-106 868.1619,-118 868.1619,-118 868.1619,-124 862.1619,-130 856.1619,-130"/>
<text text-anchor="middle" x="827.8874" y="-116.2" font-family="Verdana" font-size="14.00" fill="#000000">logger</text>
<text text-anchor="middle" x="827.8874" y="-99.4" font-family="Verdana" font-size="14.00" fill="#000000">WithField</text>
</a>
</g>
</g>
<!-- github.com/go&#45;i2p/go&#45;i2p/lib/util/signals.runHandlerWithTimeout&#45;&gt;(*github.com/go&#45;i2p/logger.Logger).WithField -->
<g id="edge12" class="edge">
<title>github.com/go&#45;i2p/go&#45;i2p/lib/util/signals.runHandlerWithTimeout&#45;&gt;(*github.com/go&#45;i2p/logger.Logger).WithField</title>
<g id="a_edge12"><a xlink:title="at graceful.go:125: calling [(*github.com/go&#45;i2p/logger.Logger).WithField]">
<path fill="none" stroke="#8b4513" d="M652.4344,-100.4023C693.3978,-103.11 741.7116,-106.3036 777.2584,-108.6533"/>
<polygon fill="#8b4513" stroke="#8b4513" points="777.1834,-112.1559 787.3925,-109.3232 777.6452,-105.1712 777.1834,-112.1559"/>
</a>
</g>
</g>
<!-- github.com/go&#45;i2p/go&#45;i2p/lib/util/signals.handlePreShutdown -->
<g id="node4" class="node">
<title>github.com/go&#45;i2p/go&#45;i2p/lib/util/signals.handlePreShutdown</title>
<g id="a_node4"><a xlink:title="github.com/go&#45;i2p/go&#45;i2p/lib/util/signals.handlePreShutdown | defined in graceful.go:82&#10;at graceful.go:100: calling [github.com/go&#45;i2p/go&#45;i2p/lib/util/signals.runHandlerWithTimeout]">
<path fill="#add8e6" stroke="#000000" stroke-width=".5" d="M389.9983,-113C389.9983,-113 277.4831,-113 277.4831,-113 271.4831,-113 265.4831,-107 265.4831,-101 265.4831,-101 265.4831,-89 265.4831,-89 265.4831,-83 271.4831,-77 277.4831,-77 277.4831,-77 389.9983,-77 389.9983,-77 395.9983,-77 401.9983,-83 401.9983,-89 401.9983,-89 401.9983,-101 401.9983,-101 401.9983,-107 395.9983,-113 389.9983,-113"/>
<text text-anchor="middle" x="333.7407" y="-90.8" font-family="Verdana" font-size="14.00" fill="#000000">handlePreShutdown</text>
</a>
</g>
</g>
<!-- github.com/go&#45;i2p/go&#45;i2p/lib/util/signals.handlePreShutdown&#45;&gt;github.com/go&#45;i2p/go&#45;i2p/lib/util/signals.runHandlerWithTimeout -->
<g id="edge4" class="edge">
<title>github.com/go&#45;i2p/go&#45;i2p/lib/util/signals.handlePreShutdown&#45;&gt;github.com/go&#45;i2p/go&#45;i2p/lib/util/signals.runHandlerWithTimeout</title>
<g id="a_edge4"><a xlink:title="at graceful.go:100: calling [github.com/go&#45;i2p/go&#45;i2p/lib/util/signals.runHandlerWithTimeout]">
<path fill="none" stroke="#000000" d="M402.2814,-95C426.1744,-95 453.3841,-95 478.8609,-95"/>
<polygon fill="#000000" stroke="#000000" points="478.9032,-98.5001 488.9031,-95 478.9031,-91.5001 478.9032,-98.5001"/>
</a>
</g>
</g>
<!-- github.com/go&#45;i2p/go&#45;i2p/lib/util/signals.runHandlers$1 -->
<g id="node5" class="node">
<title>github.com/go&#45;i2p/go&#45;i2p/lib/util/signals.runHandlers$1</title>
<g id="a_node5"><a xlink:title="github.com/go&#45;i2p/go&#45;i2p/lib/util/signals.runHandlers$1 | defined in signals.go:80&#10;at signals.go:81: calling [github.com/go&#45;i2p/go&#45;i2p/lib/util/signals.runHandlers$1$1]">
<polygon fill="#add8e6" stroke="#000000" stroke-dasharray="1,5" points="881.5798,-338 774.195,-338 774.195,-302 881.5798,-302 881.5798,-338"/>
<text text-anchor="middle" x="827.8874" y="-315.8" font-family="Verdana" font-size="14.00" fill="#000000">runHandlers$1</text>
</a>
</g>
</g>
<!-- github.com/go&#45;i2p/go&#45;i2p/lib/util/signals.runHandlers$1$1 -->
<g id="node6" class="node">
<title>github.com/go&#45;i2p/go&#45;i2p/lib/util/signals.runHandlers$1$1</title>
<g id="a_node6"><a xlink:title="github.com/go&#45;i2p/go&#45;i2p/lib/util/signals.runHandlers$1$1 | defined in signals.go:81">
<polygon fill="#add8e6" stroke="#000000" stroke-dasharray="1,5" points="1145.7622,-338 1024.3774,-338 1024.3774,-302 1145.7622,-302 1145.7622,-338"/>
<text text-anchor="middle" x="1085.0698" y="-315.8" font-family="Verdana" font-size="14.00" fill="#000000">runHandlers$1$1</text>
</a>
</g>
</g>
<!-- github.com/go&#45;i2p/go&#45;i2p/lib/util/signals.runHandlers$1&#45;&gt;github.com/go&#45;i2p/go&#45;i2p/lib/util/signals.runHandlers$1$1 -->
<g id="edge6" class="edge">
<title>github.com/go&#45;i2p/go&#45;i2p/lib/util/signals.runHandlers$1&#45;&gt;github.com/go&#45;i2p/go&#45;i2p/lib/util/signals.runHandlers$1$1</title>
<g id="a_edge6"><a xlink:title="at signals.go:81: calling [github.com/go&#45;i2p/go&#45;i2p/lib/util/signals.runHandlers$1$1]">
<path fill="none" stroke="#000000" d="M881.4882,-320C914.931,-320 958.7756,-320 997.2076,-320"/>
<polygon fill="#000000" stroke="#000000" points="1014.3254,-323.5 1024.3254,-320 1014.3254,-316.5 1014.3254,-323.5"/>
<polyline fill="none" stroke="#000000" points="1014.3254,-320 1009.3254,-320.0001 "/>
<polygon fill="none" stroke="#000000" points="997.3254,-320.0001 1003.3254,-316.0001 1009.3254,-320.0001 1003.3254,-324.0001 997.3254,-320.0001"/>
</a>
</g>
</g>
<!-- github.com/go&#45;i2p/go&#45;i2p/lib/util/signals.runHandlers -->
<g id="node7" class="node">
<title>github.com/go&#45;i2p/go&#45;i2p/lib/util/signals.runHandlers</title>
<g id="a_node7"><a xlink:title="github.com/go&#45;i2p/go&#45;i2p/lib/util/signals.runHandlers | defined in signals.go:74&#10;at signals.go:87: calling [github.com/go&#45;i2p/go&#45;i2p/lib/util/signals.runHandlers$1]">
<path fill="#add8e6" stroke="#000000" stroke-width=".5" d="M605.4002,-235C605.4002,-235 536.0154,-235 536.0154,-235 530.0154,-235 524.0154,-229 524.0154,-223 524.0154,-223 524.0154,-211 524.0154,-211 524.0154,-205 530.0154,-199 536.0154,-199 536.0154,-199 605.4002,-199 605.4002,-199 611.4002,-199 617.4002,-205 617.4002,-211 617.4002,-211 617.4002,-223 617.4002,-223 617.4002,-229 611.4002,-235 605.4002,-235"/>
<text text-anchor="middle" x="570.7078" y="-212.8" font-family="Verdana" font-size="14.00" fill="#000000">runHandlers</text>
</a>
</g>
</g>
<!-- github.com/go&#45;i2p/go&#45;i2p/lib/util/signals.runHandlers&#45;&gt;github.com/go&#45;i2p/go&#45;i2p/lib/util/signals.runHandlers$1 -->
<g id="edge7" class="edge">
<title>github.com/go&#45;i2p/go&#45;i2p/lib/util/signals.runHandlers&#45;&gt;github.com/go&#45;i2p/go&#45;i2p/lib/util/signals.runHandlers$1</title>
<g id="a_edge7"><a xlink:title="at signals.go:87: calling [github.com/go&#45;i2p/go&#45;i2p/lib/util/signals.runHandlers$1]">
<path fill="none" stroke="#000000" d="M609.101,-235.1294C642.9866,-250.8218 693.9109,-273.658 739.2962,-291 747.4242,-294.1058 756.0458,-297.1861 764.5951,-300.1148"/>
<polygon fill="#000000" stroke="#000000" points="763.5925,-303.4703 774.1867,-303.3501 765.8299,-296.8375 763.5925,-303.4703"/>
</a>
</g>
</g>
<!-- github.com/go&#45;i2p/go&#45;i2p/lib/util/signals.handleReload -->
<g id="node8" class="node">
<title>github.com/go&#45;i2p/go&#45;i2p/lib/util/signals.handleReload</title>
<g id="a_node8"><a xlink:title="github.com/go&#45;i2p/go&#45;i2p/lib/util/signals.handleReload | defined in signals.go:91&#10;at signals.go:92: calling [github.com/go&#45;i2p/go&#45;i2p/lib/util/signals.runHandlers]">
<path fill="#add8e6" stroke="#000000" stroke-width=".5" d="M372.2169,-235C372.2169,-235 295.2645,-235 295.2645,-235 289.2645,-235 283.2645,-229 283.2645,-223 283.2645,-223 283.2645,-211 283.2645,-211 283.2645,-205 289.2645,-199 295.2645,-199 295.2645,-199 372.2169,-199 372.2169,-199 378.2169,-199 384.2169,-205 384.2169,-211 384.2169,-211 384.2169,-223 384.2169,-223 384.2169,-229 378.2169,-235 372.2169,-235"/>
<text text-anchor="middle" x="333.7407" y="-212.8" font-family="Verdana" font-size="14.00" fill="#000000">handleReload</text>
</a>
</g>
</g>
<!-- github.com/go&#45;i2p/go&#45;i2p/lib/util/signals.handleReload&#45;&gt;github.com/go&#45;i2p/go&#45;i2p/lib/util/signals.runHandlers -->
<g id="edge8" class="edge">
<title>github.com/go&#45;i2p/go&#45;i2p/lib/util/signals.handleReload&#45;&gt;github.com/go&#45;i2p/go&#45;i2p/lib/util/signals.runHandlers</title>
<g id="a_edge8"><a xlink:title="at signals.go:92: calling [github.com/go&#45;i2p/go&#45;i2p/lib/util/signals.runHandlers]">
<path fill="none" stroke="#000000" d="M384.2854,-217C422.2983,-217 474.4026,-217 513.864,-217"/>
<polygon fill="#000000" stroke="#000000" points="513.8642,-220.5001 523.8642,-217 513.8642,-213.5001 513.8642,-220.5001"/>
</a>
</g>
</g>
<!-- github.com/go&#45;i2p/go&#45;i2p/lib/util/signals.RegisterPreShutdownHandler -->
<g id="node9" class="node">
<title>github.com/go&#45;i2p/go&#45;i2p/lib/util/signals.RegisterPreShutdownHandler</title>
<g id="a_node9"><a xlink:title="github.com/go&#45;i2p/go&#45;i2p/lib/util/signals.RegisterPreShutdownHandler | defined in graceful.go:38&#10;at graceful.go:49: calling [(*github.com/go&#45;i2p/logger.Entry).Debug]&#10;at graceful.go:49: calling [(*github.com/go&#45;i2p/logger.Logger).WithField]">
<path fill="#add8e6" stroke="#000000" stroke-width="1.5" d="M654.3847,-174C654.3847,-174 487.0309,-174 487.0309,-174 481.0309,-174 475.0309,-168 475.0309,-162 475.0309,-162 475.0309,-150 475.0309,-150 475.0309,-144 481.0309,-138 487.0309,-138 487.0309,-138 654.3847,-138 654.3847,-138 660.3847,-138 666.3847,-144 666.3847,-150 666.3847,-150 666.3847,-162 666.3847,-162 666.3847,-168 660.3847,-174 654.3847,-174"/>
<text text-anchor="middle" x="570.7078" y="-151.8" font-family="Verdana" font-size="14.00" fill="#000000">RegisterPreShutdownHandler</text>
</a>
</g>
</g>
<!-- (*github.com/go&#45;i2p/logger.Entry).Debug -->
<g id="node21" class="node">
<title>(*github.com/go&#45;i2p/logger.Entry).Debug</title>
<g id="a_node21"><a xlink:title="(*github.com/go&#45;i2p/logger.Entry).Debug | defined in log.go:92">
<path fill="#ffe4b5" stroke="#000000" stroke-width="1.5" d="M846.7094,-277C846.7094,-277 809.0654,-277 809.0654,-277 803.0654,-277 797.0654,-271 797.0654,-265 797.0654,-265 797.0654,-253 797.0654,-253 797.0654,-247 803.0654,-241 809.0654,-241 809.0654,-241 846.7094,-241 846.7094,-241 852.7094,-241 858.7094,-247 858.7094,-253 858.7094,-253 858.7094,-265 858.7094,-265 858.7094,-271 852.7094,-277 846.7094,-277"/>
<text text-anchor="middle" x="827.8874" y="-263.2" font-family="Verdana" font-size="14.00" fill="#000000">logger</text>
<text text-anchor="middle" x="827.8874" y="-246.4" font-family="Verdana" font-size="14.00" fill="#000000">Debug</text>
</a>
</g>
</g>
<!-- github.com/go&#45;i2p/go&#45;i2p/lib/util/signals.RegisterPreShutdownHandler&#45;&gt;(*github.com/go&#45;i2p/logger.Entry).Debug -->
<g id="edge14" class="edge">
<title>github.com/go&#45;i2p/go&#45;i2p/lib/util/signals.RegisterPreShutdownHandler&#45;&gt;(*github.com/go&#45;i2p/logger.Entry).Debug</title>
<g id="a_edge14"><a xlink:title="at graceful.go:49: calling [(*github.com/go&#45;i2p/logger.Entry).Debug]">
<path fill="none" stroke="#8b4513" d="M632.8664,-174.0723C644.1479,-177.9383 655.6927,-182.2921 666.2962,-187 700.5069,-202.1893 705.1843,-213.5902 739.2962,-229 754.5918,-235.9097 771.9777,-242.1302 787.2726,-247.0917"/>
<polygon fill="#8b4513" stroke="#8b4513" points="786.3886,-250.4829 796.9787,-250.1648 788.5016,-243.8095 786.3886,-250.4829"/>
</a>
</g>
</g>
<!-- github.com/go&#45;i2p/go&#45;i2p/lib/util/signals.RegisterPreShutdownHandler&#45;&gt;(*github.com/go&#45;i2p/logger.Logger).WithField -->
<g id="edge17" class="edge">
<title>github.com/go&#45;i2p/go&#45;i2p/lib/util/signals.RegisterPreShutdownHandler&#45;&gt;(*github.com/go&#45;i2p/logger.Logger).WithField</title>
<g id="a_edge17"><a xlink:title="at graceful.go:49: calling [(*github.com/go&#45;i2p/logger.Logger).WithField]">
<path fill="none" stroke="#8b4513" d="M666.472,-139.616C704.2296,-133.1562 746.0338,-126.0041 777.6375,-120.5971"/>
<polygon fill="#8b4513" stroke="#8b4513" points="778.2554,-124.0423 787.5219,-118.906 777.0749,-117.1426 778.2554,-124.0423"/>
</a>
</g>
</g>
<!-- github.com/go&#45;i2p/go&#45;i2p/lib/util/signals.handleInterrupted -->
<g id="node10" class="node">
<title>github.com/go&#45;i2p/go&#45;i2p/lib/util/signals.handleInterrupted</title>
<g id="a_node10"><a xlink:title="github.com/go&#45;i2p/go&#45;i2p/lib/util/signals.handleInterrupted | defined in signals.go:107&#10;at signals.go:108: calling [github.com/go&#45;i2p/go&#45;i2p/lib/util/signals.runHandlers]">
<path fill="#add8e6" stroke="#000000" stroke-width=".5" d="M383.2537,-174C383.2537,-174 284.2277,-174 284.2277,-174 278.2277,-174 272.2277,-168 272.2277,-162 272.2277,-162 272.2277,-150 272.2277,-150 272.2277,-144 278.2277,-138 284.2277,-138 284.2277,-138 383.2537,-138 383.2537,-138 389.2537,-138 395.2537,-144 395.2537,-150 395.2537,-150 395.2537,-162 395.2537,-162 395.2537,-168 389.2537,-174 383.2537,-174"/>
<text text-anchor="middle" x="333.7407" y="-151.8" font-family="Verdana" font-size="14.00" fill="#000000">handleInterrupted</text>
</a>
</g>
</g>
<!-- github.com/go&#45;i2p/go&#45;i2p/lib/util/signals.handleInterrupted&#45;&gt;github.com/go&#45;i2p/go&#45;i2p/lib/util/signals.runHandlers -->
<g id="edge9" class="edge">
<title>github.com/go&#45;i2p/go&#45;i2p/lib/util/signals.handleInterrupted&#45;&gt;github.com/go&#45;i2p/go&#45;i2p/lib/util/signals.runHandlers</title>
<g id="a_edge9"><a xlink:title="at signals.go:108: calling [github.com/go&#45;i2p/go&#45;i2p/lib/util/signals.runHandlers]">
<path fill="none" stroke="#000000" d="M395.3824,-171.8678C432.1095,-181.3221 478.3862,-193.2346 514.1726,-202.4467"/>
<polygon fill="#000000" stroke="#000000" points="513.4146,-205.8656 523.9714,-204.9691 515.1597,-199.0866 513.4146,-205.8656"/>
</a>
</g>
</g>
<!-- github.com/go&#45;i2p/go&#45;i2p/lib/util/signals.init -->
<g id="node11" class="node">
<title>github.com/go&#45;i2p/go&#45;i2p/lib/util/signals.init</title>
<g id="a_node11"><a xlink:title="github.com/go&#45;i2p/go&#45;i2p/lib/util/signals.init | defined in .:0&#10;at log.go:5: calling [github.com/go&#45;i2p/logger.GetGoI2PLogger]">
<path fill="#add8e6" stroke="#000000" stroke-width=".5" d="M119.181,-357C119.181,-357 89.181,-357 89.181,-357 83.181,-357 77.181,-351 77.181,-345 77.181,-345 77.181,-333 77.181,-333 77.181,-327 83.181,-321 89.181,-321 89.181,-321 119.181,-321 119.181,-321 125.181,-321 131.181,-327 131.181,-333 131.181,-333 131.181,-345 131.181,-345 131.181,-351 125.181,-357 119.181,-357"/>
<text text-anchor="middle" x="104.181" y="-334.8" font-family="Verdana" font-size="14.00" fill="#000000">init</text>
</a>
</g>
</g>
<!-- github.com/go&#45;i2p/logger.GetGoI2PLogger -->
<g id="node12" class="node">
<title>github.com/go&#45;i2p/logger.GetGoI2PLogger</title>
<g id="a_node12"><a xlink:title="github.com/go&#45;i2p/logger.GetGoI2PLogger | defined in log.go:254">
<path fill="#ffe4b5" stroke="#000000" stroke-width="1.5" d="M382.4302,-357C382.4302,-357 285.0512,-357 285.0512,-357 279.0512,-357 273.0512,-351 273.0512,-345 273.0512,-345 273.0512,-333 273.0512,-333 273.0512,-327 279.0512,-321 285.0512,-321 285.0512,-321 382.4302,-321 382.4302,-321 388.4302,-321 394.4302,-327 394.4302,-333 394.4302,-333 394.4302,-345 394.4302,-345 394.4302,-351 388.4302,-357 382.4302,-357"/>
<text text-anchor="middle" x="333.7407" y="-343.2" font-family="Verdana" font-size="14.00" fill="#000000">logger</text>
<text text-anchor="middle" x="333.7407" y="-326.4" font-family="Verdana" font-size="14.00" fill="#000000">GetGoI2PLogger</text>
</a>
</g>
</g>
<!-- github.com/go&#45;i2p/go&#45;i2p/lib/util/signals.init&#45;&gt;github.com/go&#45;i2p/logger.GetGoI2PLogger -->
<g id="edge18" class="edge">
<title>github.com/go&#45;i2p/go&#45;i2p/lib/util/signals.init&#45;&gt;github.com/go&#45;i2p/logger.GetGoI2PLogger</title>
<g id="a_edge18"><a xlink:title="at log.go:5: calling [github.com/go&#45;i2p/logger.GetGoI2PLogger]">
<path fill="none" stroke="#8b4513" d="M131.416,-339C163.5894,-339 218.3568,-339 262.8026,-339"/>
<polygon fill="#8b4513" stroke="#8b4513" points="262.9854,-342.5001 272.9854,-339 262.9854,-335.5001 262.9854,-342.5001"/>
</a>
</g>
</g>
<!-- github.com/go&#45;i2p/go&#45;i2p/lib/util/signals.DeregisterReloadHandler -->
<g id="node13" class="node">
<title>github.com/go&#45;i2p/go&#45;i2p/lib/util/signals.DeregisterReloadHandler</title>
<g id="a_node13"><a xlink:title="github.com/go&#45;i2p/go&#45;i2p/lib/util/signals.DeregisterReloadHandler | defined in signals.go:68&#10;at signals.go:69: calling [github.com/go&#45;i2p/go&#45;i2p/lib/util/signals.deregisterHandler]">
<path fill="#add8e6" stroke="#000000" stroke-width="1.5" d="M175.7218,-235C175.7218,-235 32.6402,-235 32.6402,-235 26.6402,-235 20.6402,-229 20.6402,-223 20.6402,-223 20.6402,-211 20.6402,-211 20.6402,-205 26.6402,-199 32.6402,-199 32.6402,-199 175.7218,-199 175.7218,-199 181.7218,-199 187.7218,-205 187.7218,-211 187.7218,-211 187.7218,-223 187.7218,-223 187.7218,-229 181.7218,-235 175.7218,-235"/>
<text text-anchor="middle" x="104.181" y="-212.8" font-family="Verdana" font-size="14.00" fill="#000000">DeregisterReloadHandler</text>
</a>
</g>
</g>
<!-- github.com/go&#45;i2p/go&#45;i2p/lib/util/signals.deregisterHandler -->
<g id="node14" class="node">
<title>github.com/go&#45;i2p/go&#45;i2p/lib/util/signals.deregisterHandler</title>
<g id="a_node14"><a xlink:title="github.com/go&#45;i2p/go&#45;i2p/lib/util/signals.deregisterHandler | defined in signals.go:49">
<path fill="#add8e6" stroke="#000000" stroke-width=".5" d="M384.0188,-296C384.0188,-296 283.4626,-296 283.4626,-296 277.4626,-296 271.4626,-290 271.4626,-284 271.4626,-284 271.4626,-272 271.4626,-272 271.4626,-266 277.4626,-260 283.4626,-260 283.4626,-260 384.0188,-260 384.0188,-260 390.0188,-260 396.0188,-266 396.0188,-272 396.0188,-272 396.0188,-284 396.0188,-284 396.0188,-290 390.0188,-296 384.0188,-296"/>
<text text-anchor="middle" x="333.7407" y="-273.8" font-family="Verdana" font-size="14.00" fill="#000000">deregisterHandler</text>
</a>
</g>
</g>
<!-- github.com/go&#45;i2p/go&#45;i2p/lib/util/signals.DeregisterReloadHandler&#45;&gt;github.com/go&#45;i2p/go&#45;i2p/lib/util/signals.deregisterHandler -->
<g id="edge5" class="edge">
<title>github.com/go&#45;i2p/go&#45;i2p/lib/util/signals.DeregisterReloadHandler&#45;&gt;github.com/go&#45;i2p/go&#45;i2p/lib/util/signals.deregisterHandler</title>
<g id="a_edge5"><a xlink:title="at signals.go:69: calling [github.com/go&#45;i2p/go&#45;i2p/lib/util/signals.deregisterHandler]">
<path fill="none" stroke="#000000" d="M172.1247,-235.0544C200.2721,-242.5339 232.9551,-251.2186 261.5351,-258.8131"/>
<polygon fill="#000000" stroke="#000000" points="260.8954,-262.2645 271.4589,-261.4501 262.6932,-255.4993 260.8954,-262.2645"/>
</a>
</g>
</g>
<!-- github.com/go&#45;i2p/go&#45;i2p/lib/util/signals.RegisterReloadHandler -->
<g id="node15" class="node">
<title>github.com/go&#45;i2p/go&#45;i2p/lib/util/signals.RegisterReloadHandler</title>
<g id="a_node15"><a xlink:title="github.com/go&#45;i2p/go&#45;i2p/lib/util/signals.RegisterReloadHandler | defined in signals.go:63&#10;at signals.go:64: calling [github.com/go&#45;i2p/go&#45;i2p/lib/util/signals.registerHandler]">
<path fill="#add8e6" stroke="#000000" stroke-width="1.5" d="M170.0771,-52C170.0771,-52 38.2849,-52 38.2849,-52 32.2849,-52 26.2849,-46 26.2849,-40 26.2849,-40 26.2849,-28 26.2849,-28 26.2849,-22 32.2849,-16 38.2849,-16 38.2849,-16 170.0771,-16 170.0771,-16 176.0771,-16 182.0771,-22 182.0771,-28 182.0771,-28 182.0771,-40 182.0771,-40 182.0771,-46 176.0771,-52 170.0771,-52"/>
<text text-anchor="middle" x="104.181" y="-29.8" font-family="Verdana" font-size="14.00" fill="#000000">RegisterReloadHandler</text>
</a>
</g>
</g>
<!-- github.com/go&#45;i2p/go&#45;i2p/lib/util/signals.registerHandler -->
<g id="node16" class="node">
<title>github.com/go&#45;i2p/go&#45;i2p/lib/util/signals.registerHandler</title>
<g id="a_node16"><a xlink:title="github.com/go&#45;i2p/go&#45;i2p/lib/util/signals.registerHandler | defined in signals.go:36">
<path fill="#add8e6" stroke="#000000" stroke-width=".5" d="M377.3039,-52C377.3039,-52 290.1775,-52 290.1775,-52 284.1775,-52 278.1775,-46 278.1775,-40 278.1775,-40 278.1775,-28 278.1775,-28 278.1775,-22 284.1775,-16 290.1775,-16 290.1775,-16 377.3039,-16 377.3039,-16 383.3039,-16 389.3039,-22 389.3039,-28 389.3039,-28 389.3039,-40 389.3039,-40 389.3039,-46 383.3039,-52 377.3039,-52"/>
<text text-anchor="middle" x="333.7407" y="-29.8" font-family="Verdana" font-size="14.00" fill="#000000">registerHandler</text>
</a>
</g>
</g>
<!-- github.com/go&#45;i2p/go&#45;i2p/lib/util/signals.RegisterReloadHandler&#45;&gt;github.com/go&#45;i2p/go&#45;i2p/lib/util/signals.registerHandler -->
<g id="edge15" class="edge">
<title>github.com/go&#45;i2p/go&#45;i2p/lib/util/signals.RegisterReloadHandler&#45;&gt;github.com/go&#45;i2p/go&#45;i2p/lib/util/signals.registerHandler</title>
<g id="a_edge15"><a xlink:title="at signals.go:64: calling [github.com/go&#45;i2p/go&#45;i2p/lib/util/signals.registerHandler]">
<path fill="none" stroke="#000000" d="M181.8994,-34C209.8111,-34 240.9983,-34 267.8125,-34"/>
<polygon fill="#000000" stroke="#000000" points="267.8593,-37.5001 277.8593,-34 267.8593,-30.5001 267.8593,-37.5001"/>
</a>
</g>
</g>
<!-- github.com/go&#45;i2p/go&#45;i2p/lib/util/signals.Handle -->
<g id="node17" class="node">
<title>github.com/go&#45;i2p/go&#45;i2p/lib/util/signals.Handle</title>
<g id="a_node17"><a xlink:title="github.com/go&#45;i2p/go&#45;i2p/lib/util/signals.Handle | defined in unix.go:19&#10;at unix.go:34: calling [github.com/go&#45;i2p/go&#45;i2p/lib/util/signals.handleInterrupted]&#10;at unix.go:33: calling [github.com/go&#45;i2p/go&#45;i2p/lib/util/signals.handlePreShutdown]&#10;at unix.go:31: calling [github.com/go&#45;i2p/go&#45;i2p/lib/util/signals.handleReload]">
<path fill="#add8e6" stroke="#000000" stroke-width="1.5" d="M124.6088,-174C124.6088,-174 83.7532,-174 83.7532,-174 77.7532,-174 71.7532,-168 71.7532,-162 71.7532,-162 71.7532,-150 71.7532,-150 71.7532,-144 77.7532,-138 83.7532,-138 83.7532,-138 124.6088,-138 124.6088,-138 130.6088,-138 136.6088,-144 136.6088,-150 136.6088,-150 136.6088,-162 136.6088,-162 136.6088,-168 130.6088,-174 124.6088,-174"/>
<text text-anchor="middle" x="104.181" y="-151.8" font-family="Verdana" font-size="14.00" fill="#000000">Handle</text>
</a>
</g>
</g>
<!-- github.com/go&#45;i2p/go&#45;i2p/lib/util/signals.Handle&#45;&gt;github.com/go&#45;i2p/go&#45;i2p/lib/util/signals.handlePreShutdown -->
<g id="edge16" class="edge">
<title>github.com/go&#45;i2p/go&#45;i2p/lib/util/signals.Handle&#45;&gt;github.com/go&#45;i2p/go&#45;i2p/lib/util/signals.handlePreShutdown</title>
<g id="a_edge16"><a xlink:title="at unix.go:33: calling [github.com/go&#45;i2p/go&#45;i2p/lib/util/signals.handlePreShutdown]">
<path fill="none" stroke="#000000" d="M136.5844,-147.3896C167.412,-139.1979 214.9957,-126.5536 255.6926,-115.7394"/>
<polygon fill="#000000" stroke="#000000" points="256.8398,-119.0561 265.6056,-113.1053 255.0421,-112.2909 256.8398,-119.0561"/>
</a>
</g>
</g>
<!-- github.com/go&#45;i2p/go&#45;i2p/lib/util/signals.Handle&#45;&gt;github.com/go&#45;i2p/go&#45;i2p/lib/util/signals.handleReload -->
<g id="edge19" class="edge">
<title>github.com/go&#45;i2p/go&#45;i2p/lib/util/signals.Handle&#45;&gt;github.com/go&#45;i2p/go&#45;i2p/lib/util/signals.handleReload</title>
<g id="a_edge19"><a xlink:title="at unix.go:31: calling [github.com/go&#45;i2p/go&#45;i2p/lib/util/signals.handleReload]">
<path fill="none" stroke="#000000" d="M136.5844,-164.6104C171.9737,-174.0143 229.4451,-189.2859 273.2301,-200.9207"/>
<polygon fill="#000000" stroke="#000000" points="272.3506,-204.3085 282.9141,-203.4941 274.1484,-197.5432 272.3506,-204.3085"/>
</a>
</g>
</g>
<!-- github.com/go&#45;i2p/go&#45;i2p/lib/util/signals.Handle&#45;&gt;github.com/go&#45;i2p/go&#45;i2p/lib/util/signals.handleInterrupted -->
<g id="edge1" class="edge">
<title>github.com/go&#45;i2p/go&#45;i2p/lib/util/signals.Handle&#45;&gt;github.com/go&#45;i2p/go&#45;i2p/lib/util/signals.handleInterrupted</title>
<g id="a_edge1"><a xlink:title="at unix.go:34: calling [github.com/go&#45;i2p/go&#45;i2p/lib/util/signals.handleInterrupted]">
<path fill="none" stroke="#000000" d="M136.5844,-156C169.0105,-156 219.9754,-156 261.9644,-156"/>
<polygon fill="#000000" stroke="#000000" points="262.1522,-159.5001 272.1522,-156 262.1521,-152.5001 262.1522,-159.5001"/>
</a>
</g>
</g>
<!-- github.com/go&#45;i2p/go&#45;i2p/lib/util/signals.DeregisterInterruptHandler -->
<g id="node18" class="node">
<title>github.com/go&#45;i2p/go&#45;i2p/lib/util/signals.DeregisterInterruptHandler</title>
<g id="a_node18"><a xlink:title="github.com/go&#45;i2p/go&#45;i2p/lib/util/signals.DeregisterInterruptHandler | defined in signals.go:103&#10;at signals.go:104: calling [github.com/go&#45;i2p/go&#45;i2p/lib/util/signals.deregisterHandler]">
<path fill="#add8e6" stroke="#000000" stroke-width="1.5" d="M180.5434,-296C180.5434,-296 27.8186,-296 27.8186,-296 21.8186,-296 15.8186,-290 15.8186,-284 15.8186,-284 15.8186,-272 15.8186,-272 15.8186,-266 21.8186,-260 27.8186,-260 27.8186,-260 180.5434,-260 180.5434,-260 186.5434,-260 192.5434,-266 192.5434,-272 192.5434,-272 192.5434,-284 192.5434,-284 192.5434,-290 186.5434,-296 180.5434,-296"/>
<text text-anchor="middle" x="104.181" y="-273.8" font-family="Verdana" font-size="14.00" fill="#000000">DeregisterInterruptHandler</text>
</a>
</g>
</g>
<!-- github.com/go&#45;i2p/go&#45;i2p/lib/util/signals.DeregisterInterruptHandler&#45;&gt;github.com/go&#45;i2p/go&#45;i2p/lib/util/signals.deregisterHandler -->
<g id="edge2" class="edge">
<title>github.com/go&#45;i2p/go&#45;i2p/lib/util/signals.DeregisterInterruptHandler&#45;&gt;github.com/go&#45;i2p/go&#45;i2p/lib/util/signals.deregisterHandler</title>
<g id="a_edge2"><a xlink:title="at signals.go:104: calling [github.com/go&#45;i2p/go&#45;i2p/lib/util/signals.deregisterHandler]">
<path fill="none" stroke="#000000" d="M192.6064,-278C215.286,-278 239.4167,-278 261.1912,-278"/>
<polygon fill="#000000" stroke="#000000" points="261.3442,-281.5001 271.3441,-278 261.3441,-274.5001 261.3442,-281.5001"/>
</a>
</g>
</g>
<!-- github.com/go&#45;i2p/go&#45;i2p/lib/util/signals.RegisterInterruptHandler -->
<g id="node19" class="node">
<title>github.com/go&#45;i2p/go&#45;i2p/lib/util/signals.RegisterInterruptHandler</title>
<g id="a_node19"><a xlink:title="github.com/go&#45;i2p/go&#45;i2p/lib/util/signals.RegisterInterruptHandler | defined in signals.go:98&#10;at signals.go:99: calling [github.com/go&#45;i2p/go&#45;i2p/lib/util/signals.registerHandler]">
<path fill="#add8e6" stroke="#000000" stroke-width="1.5" d="M174.398,-113C174.398,-113 33.964,-113 33.964,-113 27.964,-113 21.964,-107 21.964,-101 21.964,-101 21.964,-89 21.964,-89 21.964,-83 27.964,-77 33.964,-77 33.964,-77 174.398,-77 174.398,-77 180.398,-77 186.398,-83 186.398,-89 186.398,-89 186.398,-101 186.398,-101 186.398,-107 180.398,-113 174.398,-113"/>
<text text-anchor="middle" x="104.181" y="-90.8" font-family="Verdana" font-size="14.00" fill="#000000">RegisterInterruptHandler</text>
</a>
</g>
</g>
<!-- github.com/go&#45;i2p/go&#45;i2p/lib/util/signals.RegisterInterruptHandler&#45;&gt;github.com/go&#45;i2p/go&#45;i2p/lib/util/signals.registerHandler -->
<g id="edge10" class="edge">
<title>github.com/go&#45;i2p/go&#45;i2p/lib/util/signals.RegisterInterruptHandler&#45;&gt;github.com/go&#45;i2p/go&#45;i2p/lib/util/signals.registerHandler</title>
<g id="a_edge10"><a xlink:title="at signals.go:99: calling [github.com/go&#45;i2p/go&#45;i2p/lib/util/signals.registerHandler]">
<path fill="none" stroke="#000000" d="M172.1247,-76.9456C202.4143,-68.8969 237.9563,-59.4524 267.9854,-51.4729"/>
<polygon fill="#000000" stroke="#000000" points="269.1766,-54.7779 277.9423,-48.8271 267.3789,-48.0127 269.1766,-54.7779"/>
</a>
</g>
</g>
</g>
</svg>
