<?xml version="1.0" encoding="UTF-8" standalone="no"?>
<!DOCTYPE svg PUBLIC "-//W3C//DTD SVG 1.1//EN"
 "http://www.w3.org/Graphics/SVG/1.1/DTD/svg11.dtd">
<!-- Generated by graphviz version 2.40.1 (20161225.0304)
 -->
<!-- Title: gocallvis Pages: 1 -->
<svg width="1169pt" height="342pt"
 viewBox="0.00 0.00 1168.67 342.00" xmlns="http://www.w3.org/2000/svg" xmlns:xlink="http://www.w3.org/1999/xlink">
<g id="graph0" class="graph" transform="scale(1 1) rotate(0) translate(0 342)">
<title>gocallvis</title>
<polygon fill="#d3d3d3" stroke="transparent" points="0,0 0,-342 1168.6666,-342 1168.6666,0 0,0"/>
<g id="clust1" class="cluster">
<title>cluster_focus</title>
<polygon fill="#e6ecfa" stroke="#000000" stroke-width=".5" points="8,-8 8,-334 1160.6666,-334 1160.6666,-8 8,-8"/>
<text text-anchor="middle" x="584.3333" y="-313.8" font-family="Arial" font-size="18.00" fill="#000000">signals</text>
</g>
<!-- github.com/go&#45;i2p/go&#45;i2p/lib/util/signals.runHandlers$1 -->
<g id="node1" class="node">
<title>github.com/go&#45;i2p/go&#45;i2p/lib/util/signals.runHandlers$1</title>
<g id="a_node1"><a xlink:title="github.com/go&#45;i2p/go&#45;i2p/lib/util/signals.runHandlers$1 | defined in signals.go:80&#10;at signals.go:81: calling [github.com/go&#45;i2p/go&#45;i2p/lib/util/signals.runHandlers$1$1]">
<polygon fill="#add8e6" stroke="#000000" stroke-dasharray="1,5" points="853.5854,-74 746.2006,-74 746.2006,-38 853.5854,-38 853.5854,-74"/>
<text text-anchor="middle" x="799.893" y="-51.8" font-family="Verdana" font-size="14.00" fill="#000000">runHandlers$1</text>
</a>
</g>
</g>
<!-- github.com/go&#45;i2p/go&#45;i2p/lib/util/signals.runHandlers$1$1 -->
<g id="node2" class="node">
<title>github.com/go&#45;i2p/go&#45;i2p/lib/util/signals.runHandlers$1$1</title>
<g id="a_node2"><a xlink:title="github.com/go&#45;i2p/go&#45;i2p/lib/util/signals.runHandlers$1$1 | defined in signals.go:81">
<polygon fill="#add8e6" stroke="#000000" stroke-dasharray="1,5" points="1117.7678,-74 996.383,-74 996.383,-38 1117.7678,-38 1117.7678,-74"/>
<text text-anchor="middle" x="1057.0754" y="-51.8" font-family="Verdana" font-size="14.00" fill="#000000">runHandlers$1$1</text>
</a>
</g>
</g>
<!-- github.com/go&#45;i2p/go&#45;i2p/lib/util/signals.runHandlers$1&#45;&gt;github.com/go&#45;i2p/go&#45;i2p/lib/util/signals.runHandlers$1$1 -->
<g id="edge7" class="edge">
<title>github.com/go&#45;i2p/go&#45;i2p/lib/util/signals.runHandlers$1&#45;&gt;github.com/go&#45;i2p/go&#45;i2p/lib/util/signals.runHandlers$1$1</title>
<g id="a_edge7"><a xlink:title="at signals.go:81: calling [github.com/go&#45;i2p/go&#45;i2p/lib/util/signals.runHandlers$1$1]">
<path fill="none" stroke="#000000" d="M853.4938,-56C886.9366,-56 930.7812,-56 969.2132,-56"/>
<polygon fill="#000000" stroke="#000000" points="986.331,-59.5 996.331,-56 986.331,-52.5 986.331,-59.5"/>
<polyline fill="none" stroke="#000000" points="986.331,-56 981.331,-56.0001 "/>
<polygon fill="none" stroke="#000000" points="969.331,-56.0001 975.331,-52.0001 981.331,-56.0001 975.331,-60.0001 969.331,-56.0001"/>
</a>
</g>
</g>
<!-- github.com/go&#45;i2p/go&#45;i2p/lib/util/signals.RegisterInterruptHandler -->
<g id="node3" class="node">
<title>github.com/go&#45;i2p/go&#45;i2p/lib/util/signals.RegisterInterruptHandler</title>
<g id="a_node3"><a xlink:title="github.com/go&#45;i2p/go&#45;i2p/lib/util/signals.RegisterInterruptHandler | defined in signals.go:98&#10;at signals.go:99: calling [github.com/go&#45;i2p/go&#45;i2p/lib/util/signals.registerHandler]">
<path fill="#add8e6" stroke="#000000" stroke-width="1.5" d="M174.398,-235C174.398,-235 33.964,-235 33.964,-235 27.964,-235 21.964,-229 21.964,-223 21.964,-223 21.964,-211 21.964,-211 21.964,-205 27.964,-199 33.964,-199 33.964,-199 174.398,-199 174.398,-199 180.398,-199 186.398,-205 186.398,-211 186.398,-211 186.398,-223 186.398,-223 186.398,-229 180.398,-235 174.398,-235"/>
<text text-anchor="middle" x="104.181" y="-212.8" font-family="Verdana" font-size="14.00" fill="#000000">RegisterInterruptHandler</text>
</a>
</g>
</g>
<!-- github.com/go&#45;i2p/go&#45;i2p/lib/util/signals.registerHandler -->
<g id="node4" class="node">
<title>github.com/go&#45;i2p/go&#45;i2p/lib/util/signals.registerHandler</title>
<g id="a_node4"><a xlink:title="github.com/go&#45;i2p/go&#45;i2p/lib/util/signals.registerHandler | defined in signals.go:36">
<path fill="#add8e6" stroke="#000000" stroke-width=".5" d="M377.3039,-296C377.3039,-296 290.1775,-296 290.1775,-296 284.1775,-296 278.1775,-290 278.1775,-284 278.1775,-284 278.1775,-272 278.1775,-272 278.1775,-266 284.1775,-260 290.1775,-260 290.1775,-260 377.3039,-260 377.3039,-260 383.3039,-260 389.3039,-266 389.3039,-272 389.3039,-272 389.3039,-284 389.3039,-284 389.3039,-290 383.3039,-296 377.3039,-296"/>
<text text-anchor="middle" x="333.7407" y="-273.8" font-family="Verdana" font-size="14.00" fill="#000000">registerHandler</text>
</a>
</g>
</g>
<!-- github.com/go&#45;i2p/go&#45;i2p/lib/util/signals.RegisterInterruptHandler&#45;&gt;github.com/go&#45;i2p/go&#45;i2p/lib/util/signals.registerHandler -->
<g id="edge1" class="edge">
<title>github.com/go&#45;i2p/go&#45;i2p/lib/util/signals.RegisterInterruptHandler&#45;&gt;github.com/go&#45;i2p/go&#45;i2p/lib/util/signals.registerHandler</title>
<g id="a_edge1"><a xlink:title="at signals.go:99: calling [github.com/go&#45;i2p/go&#45;i2p/lib/util/signals.registerHandler]">
<path fill="none" stroke="#000000" d="M172.1247,-235.0544C202.4143,-243.1031 237.9563,-252.5476 267.9854,-260.5271"/>
<polygon fill="#000000" stroke="#000000" points="267.3789,-263.9873 277.9423,-263.1729 269.1766,-257.2221 267.3789,-263.9873"/>
</a>
</g>
</g>
<!-- github.com/go&#45;i2p/go&#45;i2p/lib/util/signals.runHandlerWithTimeout$1 -->
<g id="node5" class="node">
<title>github.com/go&#45;i2p/go&#45;i2p/lib/util/signals.runHandlerWithTimeout$1</title>
<g id="a_node5"><a xlink:title="github.com/go&#45;i2p/go&#45;i2p/lib/util/signals.runHandlerWithTimeout$1 | defined in graceful.go:110&#10;at graceful.go:112: calling [github.com/go&#45;i2p/go&#45;i2p/lib/util/signals.runHandlerWithTimeout$1$1]">
<polygon fill="#add8e6" stroke="#000000" stroke-dasharray="1,5" points="888.5755,-174 711.2105,-174 711.2105,-138 888.5755,-138 888.5755,-174"/>
<text text-anchor="middle" x="799.893" y="-151.8" font-family="Verdana" font-size="14.00" fill="#000000">runHandlerWithTimeout$1</text>
</a>
</g>
</g>
<!-- github.com/go&#45;i2p/go&#45;i2p/lib/util/signals.runHandlerWithTimeout$1$1 -->
<g id="node6" class="node">
<title>github.com/go&#45;i2p/go&#45;i2p/lib/util/signals.runHandlerWithTimeout$1$1</title>
<g id="a_node6"><a xlink:title="github.com/go&#45;i2p/go&#45;i2p/lib/util/signals.runHandlerWithTimeout$1$1 | defined in graceful.go:112">
<polygon fill="#add8e6" stroke="#000000" stroke-dasharray="1,5" points="1152.7579,-174 961.3929,-174 961.3929,-138 1152.7579,-138 1152.7579,-174"/>
<text text-anchor="middle" x="1057.0754" y="-151.8" font-family="Verdana" font-size="14.00" fill="#000000">runHandlerWithTimeout$1$1</text>
</a>
</g>
</g>
<!-- github.com/go&#45;i2p/go&#45;i2p/lib/util/signals.runHandlerWithTimeout$1&#45;&gt;github.com/go&#45;i2p/go&#45;i2p/lib/util/signals.runHandlerWithTimeout$1$1 -->
<g id="edge8" class="edge">
<title>github.com/go&#45;i2p/go&#45;i2p/lib/util/signals.runHandlerWithTimeout$1&#45;&gt;github.com/go&#45;i2p/go&#45;i2p/lib/util/signals.runHandlerWithTimeout$1$1</title>
<g id="a_edge8"><a xlink:title="at graceful.go:112: calling [github.com/go&#45;i2p/go&#45;i2p/lib/util/signals.runHandlerWithTimeout$1$1]">
<path fill="none" stroke="#000000" d="M888.7607,-156C903.3705,-156 918.7389,-156 934.0033,-156"/>
<polygon fill="#000000" stroke="#000000" points="951.1809,-159.5 961.1809,-156 951.1809,-152.5 951.1809,-159.5"/>
<polyline fill="none" stroke="#000000" points="951.1809,-156 946.1809,-156.0001 "/>
<polygon fill="none" stroke="#000000" points="934.1809,-156.0001 940.1809,-152.0001 946.1809,-156.0001 940.1809,-160.0001 934.1809,-156.0001"/>
</a>
</g>
</g>
<!-- github.com/go&#45;i2p/go&#45;i2p/lib/util/signals.runHandlers -->
<g id="node7" class="node">
<title>github.com/go&#45;i2p/go&#45;i2p/lib/util/signals.runHandlers</title>
<g id="a_node7"><a xlink:title="github.com/go&#45;i2p/go&#45;i2p/lib/util/signals.runHandlers | defined in signals.go:74&#10;at signals.go:87: calling [github.com/go&#45;i2p/go&#45;i2p/lib/util/signals.runHandlers$1]">
<path fill="#add8e6" stroke="#000000" stroke-width=".5" d="M591.403,-74C591.403,-74 522.0182,-74 522.0182,-74 516.0182,-74 510.0182,-68 510.0182,-62 510.0182,-62 510.0182,-50 510.0182,-50 510.0182,-44 516.0182,-38 522.0182,-38 522.0182,-38 591.403,-38 591.403,-38 597.403,-38 603.403,-44 603.403,-50 603.403,-50 603.403,-62 603.403,-62 603.403,-68 597.403,-74 591.403,-74"/>
<text text-anchor="middle" x="556.7106" y="-51.8" font-family="Verdana" font-size="14.00" fill="#000000">runHandlers</text>
</a>
</g>
</g>
<!-- github.com/go&#45;i2p/go&#45;i2p/lib/util/signals.runHandlers&#45;&gt;github.com/go&#45;i2p/go&#45;i2p/lib/util/signals.runHandlers$1 -->
<g id="edge2" class="edge">
<title>github.com/go&#45;i2p/go&#45;i2p/lib/util/signals.runHandlers&#45;&gt;github.com/go&#45;i2p/go&#45;i2p/lib/util/signals.runHandlers$1</title>
<g id="a_edge2"><a xlink:title="at signals.go:87: calling [github.com/go&#45;i2p/go&#45;i2p/lib/util/signals.runHandlers$1]">
<path fill="none" stroke="#000000" d="M603.3109,-56C641.024,-56 694.5279,-56 736.1976,-56"/>
<polygon fill="#000000" stroke="#000000" points="736.2481,-59.5001 746.2481,-56 736.248,-52.5001 736.2481,-59.5001"/>
</a>
</g>
</g>
<!-- github.com/go&#45;i2p/go&#45;i2p/lib/util/signals.handleInterrupted -->
<g id="node8" class="node">
<title>github.com/go&#45;i2p/go&#45;i2p/lib/util/signals.handleInterrupted</title>
<g id="a_node8"><a xlink:title="github.com/go&#45;i2p/go&#45;i2p/lib/util/signals.handleInterrupted | defined in signals.go:107&#10;at signals.go:108: calling [github.com/go&#45;i2p/go&#45;i2p/lib/util/signals.runHandlers]">
<path fill="#add8e6" stroke="#000000" stroke-width=".5" d="M383.2537,-113C383.2537,-113 284.2277,-113 284.2277,-113 278.2277,-113 272.2277,-107 272.2277,-101 272.2277,-101 272.2277,-89 272.2277,-89 272.2277,-83 278.2277,-77 284.2277,-77 284.2277,-77 383.2537,-77 383.2537,-77 389.2537,-77 395.2537,-83 395.2537,-89 395.2537,-89 395.2537,-101 395.2537,-101 395.2537,-107 389.2537,-113 383.2537,-113"/>
<text text-anchor="middle" x="333.7407" y="-90.8" font-family="Verdana" font-size="14.00" fill="#000000">handleInterrupted</text>
</a>
</g>
</g>
<!-- github.com/go&#45;i2p/go&#45;i2p/lib/util/signals.handleInterrupted&#45;&gt;github.com/go&#45;i2p/go&#45;i2p/lib/util/signals.runHandlers -->
<g id="edge9" class="edge">
<title>github.com/go&#45;i2p/go&#45;i2p/lib/util/signals.handleInterrupted&#45;&gt;github.com/go&#45;i2p/go&#45;i2p/lib/util/signals.runHandlers</title>
<g id="a_edge9"><a xlink:title="at signals.go:108: calling [github.com/go&#45;i2p/go&#45;i2p/lib/util/signals.runHandlers]">
<path fill="none" stroke="#000000" d="M395.2584,-84.2398C427.9426,-78.523 467.8512,-71.5425 499.8127,-65.9521"/>
<polygon fill="#000000" stroke="#000000" points="500.6439,-69.3599 509.8913,-64.1892 499.4378,-62.4646 500.6439,-69.3599"/>
</a>
</g>
</g>
<!-- github.com/go&#45;i2p/go&#45;i2p/lib/util/signals.DeregisterInterruptHandler -->
<g id="node9" class="node">
<title>github.com/go&#45;i2p/go&#45;i2p/lib/util/signals.DeregisterInterruptHandler</title>
<g id="a_node9"><a xlink:title="github.com/go&#45;i2p/go&#45;i2p/lib/util/signals.DeregisterInterruptHandler | defined in signals.go:103&#10;at signals.go:104: calling [github.com/go&#45;i2p/go&#45;i2p/lib/util/signals.deregisterHandler]">
<path fill="#add8e6" stroke="#000000" stroke-width="1.5" d="M180.5434,-113C180.5434,-113 27.8186,-113 27.8186,-113 21.8186,-113 15.8186,-107 15.8186,-101 15.8186,-101 15.8186,-89 15.8186,-89 15.8186,-83 21.8186,-77 27.8186,-77 27.8186,-77 180.5434,-77 180.5434,-77 186.5434,-77 192.5434,-83 192.5434,-89 192.5434,-89 192.5434,-101 192.5434,-101 192.5434,-107 186.5434,-113 180.5434,-113"/>
<text text-anchor="middle" x="104.181" y="-90.8" font-family="Verdana" font-size="14.00" fill="#000000">DeregisterInterruptHandler</text>
</a>
</g>
</g>
<!-- github.com/go&#45;i2p/go&#45;i2p/lib/util/signals.deregisterHandler -->
<g id="node10" class="node">
<title>github.com/go&#45;i2p/go&#45;i2p/lib/util/signals.deregisterHandler</title>
<g id="a_node10"><a xlink:title="github.com/go&#45;i2p/go&#45;i2p/lib/util/signals.deregisterHandler | defined in signals.go:49">
<path fill="#add8e6" stroke="#000000" stroke-width=".5" d="M384.0188,-235C384.0188,-235 283.4626,-235 283.4626,-235 277.4626,-235 271.4626,-229 271.4626,-223 271.4626,-223 271.4626,-211 271.4626,-211 271.4626,-205 277.4626,-199 283.4626,-199 283.4626,-199 384.0188,-199 384.0188,-199 390.0188,-199 396.0188,-205 396.0188,-211 396.0188,-211 396.0188,-223 396.0188,-223 396.0188,-229 390.0188,-235 384.0188,-235"/>
<text text-anchor="middle" x="333.7407" y="-212.8" font-family="Verdana" font-size="14.00" fill="#000000">deregisterHandler</text>
</a>
</g>
</g>
<!-- github.com/go&#45;i2p/go&#45;i2p/lib/util/signals.DeregisterInterruptHandler&#45;&gt;github.com/go&#45;i2p/go&#45;i2p/lib/util/signals.deregisterHandler -->
<g id="edge3" class="edge">
<title>github.com/go&#45;i2p/go&#45;i2p/lib/util/signals.DeregisterInterruptHandler&#45;&gt;github.com/go&#45;i2p/go&#45;i2p/lib/util/signals.deregisterHandler</title>
<g id="a_edge3"><a xlink:title="at signals.go:104: calling [github.com/go&#45;i2p/go&#45;i2p/lib/util/signals.deregisterHandler]">
<path fill="none" stroke="#000000" d="M164.7499,-113.0409C174.2464,-116.7852 183.7572,-121.1066 192.362,-126 229.1154,-146.9008 229.4224,-164.7289 265.362,-187 269.4839,-189.5543 273.8612,-192.0026 278.3312,-194.3214"/>
<polygon fill="#000000" stroke="#000000" points="277.0686,-197.6014 287.5846,-198.8917 280.1685,-191.3252 277.0686,-197.6014"/>
</a>
</g>
</g>
<!-- github.com/go&#45;i2p/go&#45;i2p/lib/util/signals.handleReload -->
<g id="node11" class="node">
<title>github.com/go&#45;i2p/go&#45;i2p/lib/util/signals.handleReload</title>
<g id="a_node11"><a xlink:title="github.com/go&#45;i2p/go&#45;i2p/lib/util/signals.handleReload | defined in signals.go:91&#10;at signals.go:92: calling [github.com/go&#45;i2p/go&#45;i2p/lib/util/signals.runHandlers]">
<path fill="#add8e6" stroke="#000000" stroke-width=".5" d="M372.2169,-52C372.2169,-52 295.2645,-52 295.2645,-52 289.2645,-52 283.2645,-46 283.2645,-40 283.2645,-40 283.2645,-28 283.2645,-28 283.2645,-22 289.2645,-16 295.2645,-16 295.2645,-16 372.2169,-16 372.2169,-16 378.2169,-16 384.2169,-22 384.2169,-28 384.2169,-28 384.2169,-40 384.2169,-40 384.2169,-46 378.2169,-52 372.2169,-52"/>
<text text-anchor="middle" x="333.7407" y="-29.8" font-family="Verdana" font-size="14.00" fill="#000000">handleReload</text>
</a>
</g>
</g>
<!-- github.com/go&#45;i2p/go&#45;i2p/lib/util/signals.handleReload&#45;&gt;github.com/go&#45;i2p/go&#45;i2p/lib/util/signals.runHandlers -->
<g id="edge10" class="edge">
<title>github.com/go&#45;i2p/go&#45;i2p/lib/util/signals.handleReload&#45;&gt;github.com/go&#45;i2p/go&#45;i2p/lib/util/signals.runHandlers</title>
<g id="a_edge10"><a xlink:title="at signals.go:92: calling [github.com/go&#45;i2p/go&#45;i2p/lib/util/signals.runHandlers]">
<path fill="none" stroke="#000000" d="M384.336,-38.9921C418.6005,-42.3729 463.9343,-46.846 499.5112,-50.3562"/>
<polygon fill="#000000" stroke="#000000" points="499.4461,-53.8667 509.7415,-51.3657 500.1335,-46.9006 499.4461,-53.8667"/>
</a>
</g>
</g>
<!-- github.com/go&#45;i2p/go&#45;i2p/lib/util/signals.RegisterReloadHandler -->
<g id="node12" class="node">
<title>github.com/go&#45;i2p/go&#45;i2p/lib/util/signals.RegisterReloadHandler</title>
<g id="a_node12"><a xlink:title="github.com/go&#45;i2p/go&#45;i2p/lib/util/signals.RegisterReloadHandler | defined in signals.go:63&#10;at signals.go:64: calling [github.com/go&#45;i2p/go&#45;i2p/lib/util/signals.registerHandler]">
<path fill="#add8e6" stroke="#000000" stroke-width="1.5" d="M170.0771,-296C170.0771,-296 38.2849,-296 38.2849,-296 32.2849,-296 26.2849,-290 26.2849,-284 26.2849,-284 26.2849,-272 26.2849,-272 26.2849,-266 32.2849,-260 38.2849,-260 38.2849,-260 170.0771,-260 170.0771,-260 176.0771,-260 182.0771,-266 182.0771,-272 182.0771,-272 182.0771,-284 182.0771,-284 182.0771,-290 176.0771,-296 170.0771,-296"/>
<text text-anchor="middle" x="104.181" y="-273.8" font-family="Verdana" font-size="14.00" fill="#000000">RegisterReloadHandler</text>
</a>
</g>
</g>
<!-- github.com/go&#45;i2p/go&#45;i2p/lib/util/signals.RegisterReloadHandler&#45;&gt;github.com/go&#45;i2p/go&#45;i2p/lib/util/signals.registerHandler -->
<g id="edge4" class="edge">
<title>github.com/go&#45;i2p/go&#45;i2p/lib/util/signals.RegisterReloadHandler&#45;&gt;github.com/go&#45;i2p/go&#45;i2p/lib/util/signals.registerHandler</title>
<g id="a_edge4"><a xlink:title="at signals.go:64: calling [github.com/go&#45;i2p/go&#45;i2p/lib/util/signals.registerHandler]">
<path fill="none" stroke="#000000" d="M181.8994,-278C209.8111,-278 240.9983,-278 267.8125,-278"/>
<polygon fill="#000000" stroke="#000000" points="267.8593,-281.5001 277.8593,-278 267.8593,-274.5001 267.8593,-281.5001"/>
</a>
</g>
</g>
<!-- github.com/go&#45;i2p/go&#45;i2p/lib/util/signals.runHandlerWithTimeout -->
<g id="node13" class="node">
<title>github.com/go&#45;i2p/go&#45;i2p/lib/util/signals.runHandlerWithTimeout</title>
<g id="a_node13"><a xlink:title="github.com/go&#45;i2p/go&#45;i2p/lib/util/signals.runHandlerWithTimeout | defined in graceful.go:108&#10;at graceful.go:110: calling [github.com/go&#45;i2p/go&#45;i2p/lib/util/signals.runHandlerWithTimeout$1]">
<path fill="#add8e6" stroke="#000000" stroke-width=".5" d="M626.3931,-174C626.3931,-174 487.0281,-174 487.0281,-174 481.0281,-174 475.0281,-168 475.0281,-162 475.0281,-162 475.0281,-150 475.0281,-150 475.0281,-144 481.0281,-138 487.0281,-138 487.0281,-138 626.3931,-138 626.3931,-138 632.3931,-138 638.3931,-144 638.3931,-150 638.3931,-150 638.3931,-162 638.3931,-162 638.3931,-168 632.3931,-174 626.3931,-174"/>
<text text-anchor="middle" x="556.7106" y="-151.8" font-family="Verdana" font-size="14.00" fill="#000000">runHandlerWithTimeout</text>
</a>
</g>
</g>
<!-- github.com/go&#45;i2p/go&#45;i2p/lib/util/signals.runHandlerWithTimeout&#45;&gt;github.com/go&#45;i2p/go&#45;i2p/lib/util/signals.runHandlerWithTimeout$1 -->
<g id="edge11" class="edge">
<title>github.com/go&#45;i2p/go&#45;i2p/lib/util/signals.runHandlerWithTimeout&#45;&gt;github.com/go&#45;i2p/go&#45;i2p/lib/util/signals.runHandlerWithTimeout$1</title>
<g id="a_edge11"><a xlink:title="at graceful.go:110: calling [github.com/go&#45;i2p/go&#45;i2p/lib/util/signals.runHandlerWithTimeout$1]">
<path fill="none" stroke="#000000" d="M638.3633,-156C654.213,-156 671.0812,-156 687.7131,-156"/>
<polygon fill="#000000" stroke="#000000" points="700.9385,-159.5 710.9385,-156 700.9384,-152.5 700.9385,-159.5"/>
<polyline fill="none" stroke="#000000" points="700.9385,-156 695.9385,-156.0001 "/>
<ellipse fill="none" stroke="#000000" cx="691.9385" cy="-156.0001" rx="4" ry="4"/>
</a>
</g>
</g>
<!-- github.com/go&#45;i2p/go&#45;i2p/lib/util/signals.handlePreShutdown -->
<g id="node14" class="node">
<title>github.com/go&#45;i2p/go&#45;i2p/lib/util/signals.handlePreShutdown</title>
<g id="a_node14"><a xlink:title="github.com/go&#45;i2p/go&#45;i2p/lib/util/signals.handlePreShutdown | defined in graceful.go:81&#10;at graceful.go:99: calling [github.com/go&#45;i2p/go&#45;i2p/lib/util/signals.runHandlerWithTimeout]">
<path fill="#add8e6" stroke="#000000" stroke-width=".5" d="M389.9983,-174C389.9983,-174 277.4831,-174 277.4831,-174 271.4831,-174 265.4831,-168 265.4831,-162 265.4831,-162 265.4831,-150 265.4831,-150 265.4831,-144 271.4831,-138 277.4831,-138 277.4831,-138 389.9983,-138 389.9983,-138 395.9983,-138 401.9983,-144 401.9983,-150 401.9983,-150 401.9983,-162 401.9983,-162 401.9983,-168 395.9983,-174 389.9983,-174"/>
<text text-anchor="middle" x="333.7407" y="-151.8" font-family="Verdana" font-size="14.00" fill="#000000">handlePreShutdown</text>
</a>
</g>
</g>
<!-- github.com/go&#45;i2p/go&#45;i2p/lib/util/signals.handlePreShutdown&#45;&gt;github.com/go&#45;i2p/go&#45;i2p/lib/util/signals.runHandlerWithTimeout -->
<g id="edge5" class="edge">
<title>github.com/go&#45;i2p/go&#45;i2p/lib/util/signals.handlePreShutdown&#45;&gt;github.com/go&#45;i2p/go&#45;i2p/lib/util/signals.runHandlerWithTimeout</title>
<g id="a_edge5"><a xlink:title="at graceful.go:99: calling [github.com/go&#45;i2p/go&#45;i2p/lib/util/signals.runHandlerWithTimeout]">
<path fill="none" stroke="#000000" d="M402.1543,-156C421.9564,-156 443.9009,-156 464.8857,-156"/>
<polygon fill="#000000" stroke="#000000" points="465.0966,-159.5001 475.0966,-156 465.0966,-152.5001 465.0966,-159.5001"/>
</a>
</g>
</g>
<!-- github.com/go&#45;i2p/go&#45;i2p/lib/util/signals.Handle -->
<g id="node15" class="node">
<title>github.com/go&#45;i2p/go&#45;i2p/lib/util/signals.Handle</title>
<g id="a_node15"><a xlink:title="github.com/go&#45;i2p/go&#45;i2p/lib/util/signals.Handle | defined in unix.go:18&#10;at unix.go:32: calling [github.com/go&#45;i2p/go&#45;i2p/lib/util/signals.handlePreShutdown]&#10;at unix.go:30: calling [github.com/go&#45;i2p/go&#45;i2p/lib/util/signals.handleReload]&#10;at unix.go:33: calling [github.com/go&#45;i2p/go&#45;i2p/lib/util/signals.handleInterrupted]">
<path fill="#add8e6" stroke="#000000" stroke-width="1.5" d="M124.6088,-52C124.6088,-52 83.7532,-52 83.7532,-52 77.7532,-52 71.7532,-46 71.7532,-40 71.7532,-40 71.7532,-28 71.7532,-28 71.7532,-22 77.7532,-16 83.7532,-16 83.7532,-16 124.6088,-16 124.6088,-16 130.6088,-16 136.6088,-22 136.6088,-28 136.6088,-28 136.6088,-40 136.6088,-40 136.6088,-46 130.6088,-52 124.6088,-52"/>
<text text-anchor="middle" x="104.181" y="-29.8" font-family="Verdana" font-size="14.00" fill="#000000">Handle</text>
</a>
</g>
</g>
<!-- github.com/go&#45;i2p/go&#45;i2p/lib/util/signals.Handle&#45;&gt;github.com/go&#45;i2p/go&#45;i2p/lib/util/signals.handleInterrupted -->
<g id="edge13" class="edge">
<title>github.com/go&#45;i2p/go&#45;i2p/lib/util/signals.Handle&#45;&gt;github.com/go&#45;i2p/go&#45;i2p/lib/util/signals.handleInterrupted</title>
<g id="a_edge13"><a xlink:title="at unix.go:33: calling [github.com/go&#45;i2p/go&#45;i2p/lib/util/signals.handleInterrupted]">
<path fill="none" stroke="#000000" d="M136.5844,-42.6104C169.079,-51.2451 220.1909,-64.8269 262.2306,-75.9979"/>
<polygon fill="#000000" stroke="#000000" points="261.5887,-79.4487 272.1522,-78.6343 263.3864,-72.6835 261.5887,-79.4487"/>
</a>
</g>
</g>
<!-- github.com/go&#45;i2p/go&#45;i2p/lib/util/signals.Handle&#45;&gt;github.com/go&#45;i2p/go&#45;i2p/lib/util/signals.handleReload -->
<g id="edge12" class="edge">
<title>github.com/go&#45;i2p/go&#45;i2p/lib/util/signals.Handle&#45;&gt;github.com/go&#45;i2p/go&#45;i2p/lib/util/signals.handleReload</title>
<g id="a_edge12"><a xlink:title="at unix.go:30: calling [github.com/go&#45;i2p/go&#45;i2p/lib/util/signals.handleReload]">
<path fill="none" stroke="#000000" d="M136.5844,-34C171.8251,-34 228.9625,-34 272.6774,-34"/>
<polygon fill="#000000" stroke="#000000" points="272.9142,-37.5001 282.9141,-34 272.9141,-30.5001 272.9142,-37.5001"/>
</a>
</g>
</g>
<!-- github.com/go&#45;i2p/go&#45;i2p/lib/util/signals.Handle&#45;&gt;github.com/go&#45;i2p/go&#45;i2p/lib/util/signals.handlePreShutdown -->
<g id="edge6" class="edge">
<title>github.com/go&#45;i2p/go&#45;i2p/lib/util/signals.Handle&#45;&gt;github.com/go&#45;i2p/go&#45;i2p/lib/util/signals.handlePreShutdown</title>
<g id="a_edge6"><a xlink:title="at unix.go:32: calling [github.com/go&#45;i2p/go&#45;i2p/lib/util/signals.handlePreShutdown]">
<path fill="none" stroke="#000000" d="M136.4265,-41.8114C153.687,-46.7583 174.9209,-54.1061 192.362,-64 229.3865,-85.0032 229.2691,-103.4333 265.362,-126 269.4737,-128.5708 273.8437,-131.0308 278.3087,-133.3575"/>
<polygon fill="#000000" stroke="#000000" points="277.0408,-136.6353 287.5551,-137.9391 280.1487,-130.363 277.0408,-136.6353"/>
</a>
</g>
</g>
<!-- github.com/go&#45;i2p/go&#45;i2p/lib/util/signals.DeregisterReloadHandler -->
<g id="node16" class="node">
<title>github.com/go&#45;i2p/go&#45;i2p/lib/util/signals.DeregisterReloadHandler</title>
<g id="a_node16"><a xlink:title="github.com/go&#45;i2p/go&#45;i2p/lib/util/signals.DeregisterReloadHandler | defined in signals.go:68&#10;at signals.go:69: calling [github.com/go&#45;i2p/go&#45;i2p/lib/util/signals.deregisterHandler]">
<path fill="#add8e6" stroke="#000000" stroke-width="1.5" d="M175.7218,-174C175.7218,-174 32.6402,-174 32.6402,-174 26.6402,-174 20.6402,-168 20.6402,-162 20.6402,-162 20.6402,-150 20.6402,-150 20.6402,-144 26.6402,-138 32.6402,-138 32.6402,-138 175.7218,-138 175.7218,-138 181.7218,-138 187.7218,-144 187.7218,-150 187.7218,-150 187.7218,-162 187.7218,-162 187.7218,-168 181.7218,-174 175.7218,-174"/>
<text text-anchor="middle" x="104.181" y="-151.8" font-family="Verdana" font-size="14.00" fill="#000000">DeregisterReloadHandler</text>
</a>
</g>
</g>
<!-- github.com/go&#45;i2p/go&#45;i2p/lib/util/signals.DeregisterReloadHandler&#45;&gt;github.com/go&#45;i2p/go&#45;i2p/lib/util/signals.deregisterHandler -->
<g id="edge14" class="edge">
<title>github.com/go&#45;i2p/go&#45;i2p/lib/util/signals.DeregisterReloadHandler&#45;&gt;github.com/go&#45;i2p/go&#45;i2p/lib/util/signals.deregisterHandler</title>
<g id="a_edge14"><a xlink:title="at signals.go:69: calling [github.com/go&#45;i2p/go&#45;i2p/lib/util/signals.deregisterHandler]">
<path fill="none" stroke="#000000" d="M172.1247,-174.0544C200.2721,-181.5339 232.9551,-190.2186 261.5351,-197.8131"/>
<polygon fill="#000000" stroke="#000000" points="260.8954,-201.2645 271.4589,-200.4501 262.6932,-194.4993 260.8954,-201.2645"/>
</a>
</g>
</g>
</g>
</svg>
