<?xml version="1.0" encoding="UTF-8" standalone="no"?>
<!DOCTYPE svg PUBLIC "-//W3C//DTD SVG 1.1//EN"
 "http://www.w3.org/Graphics/SVG/1.1/DTD/svg11.dtd">
<!-- Generated by graphviz version 2.40.1 (20161225.0304)
 -->
<!-- Title: gocallvis Pages: 1 -->
<svg width="1420pt" height="548pt"
 viewBox="0.00 0.00 1420.13 548.00" xmlns="http://www.w3.org/2000/svg" xmlns:xlink="http://www.w3.org/1999/xlink">
<g id="graph0" class="graph" transform="scale(1 1) rotate(0) translate(0 548)">
<title>gocallvis</title>
<polygon fill="#d3d3d3" stroke="transparent" points="0,0 0,-548 1420.1336,-548 1420.1336,0 0,0"/>
<g id="clust1" class="cluster">
<title>cluster_focus</title>
<polygon fill="#e6ecfa" stroke="#000000" stroke-width=".5" points="8,-8 8,-540 1412.1336,-540 1412.1336,-8 8,-8"/>
<text text-anchor="middle" x="710.0668" y="-519.8" font-family="Arial" font-size="18.00" fill="#000000">sntp</text>
</g>
<g id="clust4" class="cluster">
<title>cluster_*github.com/go&#45;i2p/go&#45;i2p/lib/util/time/sntp.Zones</title>
<g id="a_clust4"><a xlink:title="type: *github.com/go&#45;i2p/go&#45;i2p/lib/util/time/sntp.Zones">
<path fill="#b0c4de" stroke="#000000" stroke-width=".5" d="M1091.3404,-16C1091.3404,-16 1392.1336,-16 1392.1336,-16 1398.1336,-16 1404.1336,-22 1404.1336,-28 1404.1336,-28 1404.1336,-143 1404.1336,-143 1404.1336,-149 1398.1336,-155 1392.1336,-155 1392.1336,-155 1091.3404,-155 1091.3404,-155 1085.3404,-155 1079.3404,-149 1079.3404,-143 1079.3404,-143 1079.3404,-28 1079.3404,-28 1079.3404,-22 1085.3404,-16 1091.3404,-16"/>
<text text-anchor="middle" x="1241.737" y="-24.5" font-family="Arial" font-size="15.00" fill="#222222">(*Zones)</text>
</a>
</g>
</g>
<g id="clust3" class="cluster">
<title>cluster_*github.com/go&#45;i2p/go&#45;i2p/lib/util/time/sntp.RouterTimestamper</title>
<g id="a_clust3"><a xlink:title="type: *github.com/go&#45;i2p/go&#45;i2p/lib/util/time/sntp.RouterTimestamper">
<path fill="#b0c4de" stroke="#000000" stroke-width=".5" d="M32.6697,-216C32.6697,-216 1163.3285,-216 1163.3285,-216 1169.3285,-216 1175.3285,-222 1175.3285,-228 1175.3285,-228 1175.3285,-404 1175.3285,-404 1175.3285,-410 1169.3285,-416 1163.3285,-416 1163.3285,-416 32.6697,-416 32.6697,-416 26.6697,-416 20.6697,-410 20.6697,-404 20.6697,-404 20.6697,-228 20.6697,-228 20.6697,-222 26.6697,-216 32.6697,-216"/>
<text text-anchor="middle" x="597.9991" y="-224.5" font-family="Arial" font-size="15.00" fill="#222222">(*RouterTimestamper)</text>
</a>
</g>
</g>
<g id="clust2" class="cluster">
<title>cluster_*github.com/go&#45;i2p/go&#45;i2p/lib/util/time/sntp.DefaultNTPClient</title>
<g id="a_clust2"><a xlink:title="type: *github.com/go&#45;i2p/go&#45;i2p/lib/util/time/sntp.DefaultNTPClient">
<path fill="#b0c4de" stroke="#000000" stroke-width=".5" d="M28,-424C28,-424 151.31,-424 151.31,-424 157.31,-424 163.31,-430 163.31,-436 163.31,-436 163.31,-490 163.31,-490 163.31,-496 157.31,-502 151.31,-502 151.31,-502 28,-502 28,-502 22,-502 16,-496 16,-490 16,-490 16,-436 16,-436 16,-430 22,-424 28,-424"/>
<text text-anchor="middle" x="89.655" y="-432.5" font-family="Arial" font-size="15.00" fill="#222222">(*DefaultNTPClient)</text>
</a>
</g>
</g>
<!-- github.com/go&#45;i2p/go&#45;i2p/lib/util/time/sntp.getLocalCountryCode -->
<g id="node1" class="node">
<title>github.com/go&#45;i2p/go&#45;i2p/lib/util/time/sntp.getLocalCountryCode</title>
<g id="a_node1"><a xlink:title="github.com/go&#45;i2p/go&#45;i2p/lib/util/time/sntp.getLocalCountryCode | defined in router_timestamper.go:393">
<path fill="#add8e6" stroke="#000000" stroke-width=".5" d="M1186.2513,-460C1186.2513,-460 1061.4169,-460 1061.4169,-460 1055.4169,-460 1049.4169,-454 1049.4169,-448 1049.4169,-448 1049.4169,-436 1049.4169,-436 1049.4169,-430 1055.4169,-424 1061.4169,-424 1061.4169,-424 1186.2513,-424 1186.2513,-424 1192.2513,-424 1198.2513,-430 1198.2513,-436 1198.2513,-436 1198.2513,-448 1198.2513,-448 1198.2513,-454 1192.2513,-460 1186.2513,-460"/>
<text text-anchor="middle" x="1123.8341" y="-437.8" font-family="Verdana" font-size="14.00" fill="#000000">getLocalCountryCode</text>
</a>
</g>
</g>
<!-- github.com/go&#45;i2p/go&#45;i2p/lib/util/time/sntp.checkIPv6Connectivity -->
<g id="node2" class="node">
<title>github.com/go&#45;i2p/go&#45;i2p/lib/util/time/sntp.checkIPv6Connectivity</title>
<g id="a_node2"><a xlink:title="github.com/go&#45;i2p/go&#45;i2p/lib/util/time/sntp.checkIPv6Connectivity | defined in router_timestamper.go:371">
<path fill="#add8e6" stroke="#000000" stroke-width=".5" d="M964.834,-469C964.834,-469 833.0024,-469 833.0024,-469 827.0024,-469 821.0024,-463 821.0024,-457 821.0024,-457 821.0024,-445 821.0024,-445 821.0024,-439 827.0024,-433 833.0024,-433 833.0024,-433 964.834,-433 964.834,-433 970.834,-433 976.834,-439 976.834,-445 976.834,-445 976.834,-457 976.834,-457 976.834,-463 970.834,-469 964.834,-469"/>
<text text-anchor="middle" x="898.9182" y="-446.8" font-family="Verdana" font-size="14.00" fill="#000000">checkIPv6Connectivity</text>
</a>
</g>
</g>
<!-- github.com/go&#45;i2p/go&#45;i2p/lib/util/time/sntp.absDuration -->
<g id="node3" class="node">
<title>github.com/go&#45;i2p/go&#45;i2p/lib/util/time/sntp.absDuration</title>
<g id="a_node3"><a xlink:title="github.com/go&#45;i2p/go&#45;i2p/lib/util/time/sntp.absDuration | defined in router_timestamper.go:386">
<path fill="#add8e6" stroke="#000000" stroke-width=".5" d="M1158.2573,-208C1158.2573,-208 1089.4109,-208 1089.4109,-208 1083.4109,-208 1077.4109,-202 1077.4109,-196 1077.4109,-196 1077.4109,-184 1077.4109,-184 1077.4109,-178 1083.4109,-172 1089.4109,-172 1089.4109,-172 1158.2573,-172 1158.2573,-172 1164.2573,-172 1170.2573,-178 1170.2573,-184 1170.2573,-184 1170.2573,-196 1170.2573,-196 1170.2573,-202 1164.2573,-208 1158.2573,-208"/>
<text text-anchor="middle" x="1123.8341" y="-185.8" font-family="Verdana" font-size="14.00" fill="#000000">absDuration</text>
</a>
</g>
</g>
<!-- github.com/beevik/ntp.QueryWithOptions -->
<g id="node4" class="node">
<title>github.com/beevik/ntp.QueryWithOptions</title>
<g id="a_node4"><a xlink:title="github.com/beevik/ntp.QueryWithOptions | defined in ntp.go:432">
<path fill="#ffe4b5" stroke="#000000" stroke-width="1.5" d="M355.7754,-494C355.7754,-494 248.1546,-494 248.1546,-494 242.1546,-494 236.1546,-488 236.1546,-482 236.1546,-482 236.1546,-470 236.1546,-470 236.1546,-464 242.1546,-458 248.1546,-458 248.1546,-458 355.7754,-458 355.7754,-458 361.7754,-458 367.7754,-464 367.7754,-470 367.7754,-470 367.7754,-482 367.7754,-482 367.7754,-488 361.7754,-494 355.7754,-494"/>
<text text-anchor="middle" x="301.965" y="-480.2" font-family="Verdana" font-size="14.00" fill="#000000">ntp</text>
<text text-anchor="middle" x="301.965" y="-463.4" font-family="Verdana" font-size="14.00" fill="#000000">QueryWithOptions</text>
</a>
</g>
</g>
<!-- github.com/go&#45;i2p/go&#45;i2p/lib/util/time/sntp.NewZones -->
<g id="node5" class="node">
<title>github.com/go&#45;i2p/go&#45;i2p/lib/util/time/sntp.NewZones</title>
<g id="a_node5"><a xlink:title="github.com/go&#45;i2p/go&#45;i2p/lib/util/time/sntp.NewZones | defined in zones.go:19&#10;at zones.go:24: calling [(*github.com/go&#45;i2p/go&#45;i2p/lib/util/time/sntp.Zones).initialize]">
<path fill="#add8e6" stroke="#000000" stroke-width="1.5" d="M929.0586,-121C929.0586,-121 868.7778,-121 868.7778,-121 862.7778,-121 856.7778,-115 856.7778,-109 856.7778,-109 856.7778,-97 856.7778,-97 856.7778,-91 862.7778,-85 868.7778,-85 868.7778,-85 929.0586,-85 929.0586,-85 935.0586,-85 941.0586,-91 941.0586,-97 941.0586,-97 941.0586,-109 941.0586,-109 941.0586,-115 935.0586,-121 929.0586,-121"/>
<text text-anchor="middle" x="898.9182" y="-98.8" font-family="Verdana" font-size="14.00" fill="#000000">NewZones</text>
</a>
</g>
</g>
<!-- (*github.com/go&#45;i2p/go&#45;i2p/lib/util/time/sntp.Zones).initialize -->
<g id="node20" class="node">
<title>(*github.com/go&#45;i2p/go&#45;i2p/lib/util/time/sntp.Zones).initialize</title>
<g id="a_node20"><a xlink:title="(*github.com/go&#45;i2p/go&#45;i2p/lib/util/time/sntp.Zones).initialize | defined in zones.go:36&#10;at zones.go:51: calling [(*github.com/go&#45;i2p/go&#45;i2p/lib/util/time/sntp.Zones).readContinentFile]">
<path fill="#add8e6" stroke="#000000" stroke-width=".5" d="M1148.3215,-86C1148.3215,-86 1099.3467,-86 1099.3467,-86 1093.3467,-86 1087.3467,-80 1087.3467,-74 1087.3467,-74 1087.3467,-62 1087.3467,-62 1087.3467,-56 1093.3467,-50 1099.3467,-50 1099.3467,-50 1148.3215,-50 1148.3215,-50 1154.3215,-50 1160.3215,-56 1160.3215,-62 1160.3215,-62 1160.3215,-74 1160.3215,-74 1160.3215,-80 1154.3215,-86 1148.3215,-86"/>
<text text-anchor="middle" x="1123.8341" y="-63.8" font-family="Verdana" font-size="14.00" fill="#000000">initialize</text>
</a>
</g>
</g>
<!-- github.com/go&#45;i2p/go&#45;i2p/lib/util/time/sntp.NewZones&#45;&gt;(*github.com/go&#45;i2p/go&#45;i2p/lib/util/time/sntp.Zones).initialize -->
<g id="edge3" class="edge">
<title>github.com/go&#45;i2p/go&#45;i2p/lib/util/time/sntp.NewZones&#45;&gt;(*github.com/go&#45;i2p/go&#45;i2p/lib/util/time/sntp.Zones).initialize</title>
<g id="a_edge3"><a xlink:title="at zones.go:24: calling [(*github.com/go&#45;i2p/go&#45;i2p/lib/util/time/sntp.Zones).initialize]">
<path fill="none" stroke="#000000" d="M941.2232,-96.4168C979.9704,-90.3872 1037.2175,-81.4787 1077.2557,-75.2482"/>
<polygon fill="#000000" stroke="#000000" points="1077.9539,-78.6818 1087.2968,-73.6857 1076.8775,-71.765 1077.9539,-78.6818"/>
</a>
</g>
</g>
<!-- github.com/go&#45;i2p/go&#45;i2p/lib/util/time/sntp.NewRouterTimestamper -->
<g id="node6" class="node">
<title>github.com/go&#45;i2p/go&#45;i2p/lib/util/time/sntp.NewRouterTimestamper</title>
<g id="a_node6"><a xlink:title="github.com/go&#45;i2p/go&#45;i2p/lib/util/time/sntp.NewRouterTimestamper | defined in router_timestamper.go:55&#10;at router_timestamper.go:61: calling [github.com/go&#45;i2p/go&#45;i2p/lib/util/time/sntp.NewZones]&#10;at router_timestamper.go:65: calling [(*github.com/go&#45;i2p/go&#45;i2p/lib/util/time/sntp.RouterTimestamper).updateConfig]">
<path fill="#add8e6" stroke="#000000" stroke-width="1.5" d="M736.4082,-138C736.4082,-138 597.6188,-138 597.6188,-138 591.6188,-138 585.6188,-132 585.6188,-126 585.6188,-126 585.6188,-114 585.6188,-114 585.6188,-108 591.6188,-102 597.6188,-102 597.6188,-102 736.4082,-102 736.4082,-102 742.4082,-102 748.4082,-108 748.4082,-114 748.4082,-114 748.4082,-126 748.4082,-126 748.4082,-132 742.4082,-138 736.4082,-138"/>
<text text-anchor="middle" x="667.0135" y="-115.8" font-family="Verdana" font-size="14.00" fill="#000000">NewRouterTimestamper</text>
</a>
</g>
</g>
<!-- github.com/go&#45;i2p/go&#45;i2p/lib/util/time/sntp.NewRouterTimestamper&#45;&gt;github.com/go&#45;i2p/go&#45;i2p/lib/util/time/sntp.NewZones -->
<g id="edge9" class="edge">
<title>github.com/go&#45;i2p/go&#45;i2p/lib/util/time/sntp.NewRouterTimestamper&#45;&gt;github.com/go&#45;i2p/go&#45;i2p/lib/util/time/sntp.NewZones</title>
<g id="a_edge9"><a xlink:title="at router_timestamper.go:61: calling [github.com/go&#45;i2p/go&#45;i2p/lib/util/time/sntp.NewZones]">
<path fill="none" stroke="#000000" d="M748.4483,-114.0303C780.9942,-111.6445 817.5321,-108.9661 846.4526,-106.846"/>
<polygon fill="#000000" stroke="#000000" points="847.024,-110.3136 856.7413,-106.0918 846.5122,-103.3324 847.024,-110.3136"/>
</a>
</g>
</g>
<!-- (*github.com/go&#45;i2p/go&#45;i2p/lib/util/time/sntp.RouterTimestamper).updateConfig -->
<g id="node8" class="node">
<title>(*github.com/go&#45;i2p/go&#45;i2p/lib/util/time/sntp.RouterTimestamper).updateConfig</title>
<g id="a_node8"><a xlink:title="(*github.com/go&#45;i2p/go&#45;i2p/lib/util/time/sntp.RouterTimestamper).updateConfig | defined in router_timestamper.go:331&#10;at router_timestamper.go:357: calling [(*github.com/go&#45;i2p/go&#45;i2p/lib/util/time/sntp.Zones).GetZone]&#10;at router_timestamper.go:348: calling [github.com/go&#45;i2p/go&#45;i2p/lib/util/time/sntp.getLocalCountryCode]">
<path fill="#add8e6" stroke="#000000" stroke-width=".5" d="M937.126,-286C937.126,-286 860.7104,-286 860.7104,-286 854.7104,-286 848.7104,-280 848.7104,-274 848.7104,-274 848.7104,-262 848.7104,-262 848.7104,-256 854.7104,-250 860.7104,-250 860.7104,-250 937.126,-250 937.126,-250 943.126,-250 949.126,-256 949.126,-262 949.126,-262 949.126,-274 949.126,-274 949.126,-280 943.126,-286 937.126,-286"/>
<text text-anchor="middle" x="898.9182" y="-263.8" font-family="Verdana" font-size="14.00" fill="#000000">updateConfig</text>
</a>
</g>
</g>
<!-- github.com/go&#45;i2p/go&#45;i2p/lib/util/time/sntp.NewRouterTimestamper&#45;&gt;(*github.com/go&#45;i2p/go&#45;i2p/lib/util/time/sntp.RouterTimestamper).updateConfig -->
<g id="edge19" class="edge">
<title>github.com/go&#45;i2p/go&#45;i2p/lib/util/time/sntp.NewRouterTimestamper&#45;&gt;(*github.com/go&#45;i2p/go&#45;i2p/lib/util/time/sntp.RouterTimestamper).updateConfig</title>
<g id="a_edge19"><a xlink:title="at router_timestamper.go:65: calling [(*github.com/go&#45;i2p/go&#45;i2p/lib/util/time/sntp.RouterTimestamper).updateConfig]">
<path fill="none" stroke="#000000" d="M684.2314,-138.2078C711.018,-165.5021 765.4158,-216.9173 821.2106,-246 826.759,-248.8921 832.7343,-251.4444 838.8191,-253.6875"/>
<polygon fill="#000000" stroke="#000000" points="837.8309,-257.0483 848.4253,-256.9623 840.0896,-250.4227 837.8309,-257.0483"/>
</a>
</g>
</g>
<!-- (*github.com/go&#45;i2p/go&#45;i2p/lib/util/time/sntp.DefaultNTPClient).QueryWithOptions -->
<g id="node7" class="node">
<title>(*github.com/go&#45;i2p/go&#45;i2p/lib/util/time/sntp.DefaultNTPClient).QueryWithOptions</title>
<g id="a_node7"><a xlink:title="(*github.com/go&#45;i2p/go&#45;i2p/lib/util/time/sntp.DefaultNTPClient).QueryWithOptions | defined in router_timestamper.go:20&#10;at router_timestamper.go:21: calling [github.com/beevik/ntp.QueryWithOptions]">
<path fill="#add8e6" stroke="#000000" stroke-width="1.5" d="M143.4654,-494C143.4654,-494 35.8446,-494 35.8446,-494 29.8446,-494 23.8446,-488 23.8446,-482 23.8446,-482 23.8446,-470 23.8446,-470 23.8446,-464 29.8446,-458 35.8446,-458 35.8446,-458 143.4654,-458 143.4654,-458 149.4654,-458 155.4654,-464 155.4654,-470 155.4654,-470 155.4654,-482 155.4654,-482 155.4654,-488 149.4654,-494 143.4654,-494"/>
<text text-anchor="middle" x="89.655" y="-471.8" font-family="Verdana" font-size="14.00" fill="#000000">QueryWithOptions</text>
</a>
</g>
</g>
<!-- (*github.com/go&#45;i2p/go&#45;i2p/lib/util/time/sntp.DefaultNTPClient).QueryWithOptions&#45;&gt;github.com/beevik/ntp.QueryWithOptions -->
<g id="edge7" class="edge">
<title>(*github.com/go&#45;i2p/go&#45;i2p/lib/util/time/sntp.DefaultNTPClient).QueryWithOptions&#45;&gt;github.com/beevik/ntp.QueryWithOptions</title>
<g id="a_edge7"><a xlink:title="at router_timestamper.go:21: calling [github.com/beevik/ntp.QueryWithOptions]">
<path fill="none" stroke="#8b4513" d="M155.3772,-476C177.7612,-476 202.965,-476 226.0794,-476"/>
<polygon fill="#8b4513" stroke="#8b4513" points="226.1878,-479.5001 236.1878,-476 226.1878,-472.5001 226.1878,-479.5001"/>
</a>
</g>
</g>
<!-- (*github.com/go&#45;i2p/go&#45;i2p/lib/util/time/sntp.RouterTimestamper).updateConfig&#45;&gt;github.com/go&#45;i2p/go&#45;i2p/lib/util/time/sntp.getLocalCountryCode -->
<g id="edge17" class="edge">
<title>(*github.com/go&#45;i2p/go&#45;i2p/lib/util/time/sntp.RouterTimestamper).updateConfig&#45;&gt;github.com/go&#45;i2p/go&#45;i2p/lib/util/time/sntp.getLocalCountryCode</title>
<g id="a_edge17"><a xlink:title="at router_timestamper.go:348: calling [github.com/go&#45;i2p/go&#45;i2p/lib/util/time/sntp.getLocalCountryCode]">
<path fill="none" stroke="#000000" d="M949.2861,-282.535C959.0176,-286.82 968.6526,-292.2328 976.6258,-299 1022.0787,-337.5781 1002.2441,-377.3308 1047.4553,-417.4837"/>
<polygon fill="#000000" stroke="#000000" points="1045.3444,-420.2793 1055.2899,-423.9314 1049.7925,-414.8743 1045.3444,-420.2793"/>
</a>
</g>
</g>
<!-- (*github.com/go&#45;i2p/go&#45;i2p/lib/util/time/sntp.Zones).GetZone -->
<g id="node19" class="node">
<title>(*github.com/go&#45;i2p/go&#45;i2p/lib/util/time/sntp.Zones).GetZone</title>
<g id="a_node19"><a xlink:title="(*github.com/go&#45;i2p/go&#45;i2p/lib/util/time/sntp.Zones).GetZone | defined in zones.go:28">
<path fill="#add8e6" stroke="#000000" stroke-width="1.5" d="M1148.3131,-147C1148.3131,-147 1099.3551,-147 1099.3551,-147 1093.3551,-147 1087.3551,-141 1087.3551,-135 1087.3551,-135 1087.3551,-123 1087.3551,-123 1087.3551,-117 1093.3551,-111 1099.3551,-111 1099.3551,-111 1148.3131,-111 1148.3131,-111 1154.3131,-111 1160.3131,-117 1160.3131,-123 1160.3131,-123 1160.3131,-135 1160.3131,-135 1160.3131,-141 1154.3131,-147 1148.3131,-147"/>
<text text-anchor="middle" x="1123.8341" y="-124.8" font-family="Verdana" font-size="14.00" fill="#000000">GetZone</text>
</a>
</g>
</g>
<!-- (*github.com/go&#45;i2p/go&#45;i2p/lib/util/time/sntp.RouterTimestamper).updateConfig&#45;&gt;(*github.com/go&#45;i2p/go&#45;i2p/lib/util/time/sntp.Zones).GetZone -->
<g id="edge1" class="edge">
<title>(*github.com/go&#45;i2p/go&#45;i2p/lib/util/time/sntp.RouterTimestamper).updateConfig&#45;&gt;(*github.com/go&#45;i2p/go&#45;i2p/lib/util/time/sntp.Zones).GetZone</title>
<g id="a_edge1"><a xlink:title="at router_timestamper.go:357: calling [(*github.com/go&#45;i2p/go&#45;i2p/lib/util/time/sntp.Zones).GetZone]">
<path fill="none" stroke="#000000" d="M949.0305,-264.8332C971.0415,-261.1253 995.8619,-253.4902 1013.6258,-238 1045.1651,-210.4976 1018.5362,-179.0098 1049.6258,-151 1057.338,-144.0518 1067.153,-139.2936 1077.0995,-136.0365"/>
<polygon fill="#000000" stroke="#000000" points="1078.334,-139.3254 1087.0168,-133.2543 1076.4431,-132.5856 1078.334,-139.3254"/>
</a>
</g>
</g>
<!-- (*github.com/go&#45;i2p/go&#45;i2p/lib/util/time/sntp.RouterTimestamper).performTimeQuery -->
<g id="node9" class="node">
<title>(*github.com/go&#45;i2p/go&#45;i2p/lib/util/time/sntp.RouterTimestamper).performTimeQuery</title>
<g id="a_node9"><a xlink:title="(*github.com/go&#45;i2p/go&#45;i2p/lib/util/time/sntp.RouterTimestamper).performTimeQuery | defined in router_timestamper.go:129&#10;at router_timestamper.go:131: calling [github.com/go&#45;i2p/go&#45;i2p/lib/util/time/sntp.checkIPv6Connectivity]&#10;at router_timestamper.go:130: calling [(*github.com/go&#45;i2p/go&#45;i2p/lib/util/time/sntp.RouterTimestamper).updateConfig]&#10;at router_timestamper.go:141: calling [(*github.com/go&#45;i2p/go&#45;i2p/lib/util/time/sntp.RouterTimestamper).queryTime]&#10;at router_timestamper.go:150: calling [(*github.com/go&#45;i2p/go&#45;i2p/lib/util/time/sntp.RouterTimestamper).queryTime]&#10;at router_timestamper.go:149: calling [(*github.com/go&#45;i2p/go&#45;i2p/lib/util/time/sntp.RouterTimestamper).secureRandBool]">
<path fill="#add8e6" stroke="#000000" stroke-width=".5" d="M721.6312,-373C721.6312,-373 612.3958,-373 612.3958,-373 606.3958,-373 600.3958,-367 600.3958,-361 600.3958,-361 600.3958,-349 600.3958,-349 600.3958,-343 606.3958,-337 612.3958,-337 612.3958,-337 721.6312,-337 721.6312,-337 727.6312,-337 733.6312,-343 733.6312,-349 733.6312,-349 733.6312,-361 733.6312,-361 733.6312,-367 727.6312,-373 721.6312,-373"/>
<text text-anchor="middle" x="667.0135" y="-350.8" font-family="Verdana" font-size="14.00" fill="#000000">performTimeQuery</text>
</a>
</g>
</g>
<!-- (*github.com/go&#45;i2p/go&#45;i2p/lib/util/time/sntp.RouterTimestamper).performTimeQuery&#45;&gt;github.com/go&#45;i2p/go&#45;i2p/lib/util/time/sntp.checkIPv6Connectivity -->
<g id="edge2" class="edge">
<title>(*github.com/go&#45;i2p/go&#45;i2p/lib/util/time/sntp.RouterTimestamper).performTimeQuery&#45;&gt;github.com/go&#45;i2p/go&#45;i2p/lib/util/time/sntp.checkIPv6Connectivity</title>
<g id="a_edge2"><a xlink:title="at router_timestamper.go:131: calling [github.com/go&#45;i2p/go&#45;i2p/lib/util/time/sntp.checkIPv6Connectivity]">
<path fill="none" stroke="#000000" d="M707.0278,-373.0762C738.0115,-386.9049 782.098,-406.2171 821.2106,-422 827.1696,-424.4046 833.4124,-426.8521 839.6589,-429.2544"/>
<polygon fill="#000000" stroke="#000000" points="838.8467,-432.6904 849.4376,-432.9798 841.3388,-426.149 838.8467,-432.6904"/>
</a>
</g>
</g>
<!-- (*github.com/go&#45;i2p/go&#45;i2p/lib/util/time/sntp.RouterTimestamper).performTimeQuery&#45;&gt;(*github.com/go&#45;i2p/go&#45;i2p/lib/util/time/sntp.RouterTimestamper).updateConfig -->
<g id="edge4" class="edge">
<title>(*github.com/go&#45;i2p/go&#45;i2p/lib/util/time/sntp.RouterTimestamper).performTimeQuery&#45;&gt;(*github.com/go&#45;i2p/go&#45;i2p/lib/util/time/sntp.RouterTimestamper).updateConfig</title>
<g id="a_edge4"><a xlink:title="at router_timestamper.go:130: calling [(*github.com/go&#45;i2p/go&#45;i2p/lib/util/time/sntp.RouterTimestamper).updateConfig]">
<path fill="none" stroke="#000000" d="M733.7716,-337.905C738.6888,-336.3431 743.5464,-334.7038 748.2106,-333 781.8287,-320.7195 788.3537,-313.1921 821.2106,-299 828.086,-296.0303 835.3442,-292.9992 842.5522,-290.052"/>
<polygon fill="#000000" stroke="#000000" points="844.3555,-293.0978 852.3093,-286.0988 841.7268,-286.6101 844.3555,-293.0978"/>
</a>
</g>
</g>
<!-- (*github.com/go&#45;i2p/go&#45;i2p/lib/util/time/sntp.RouterTimestamper).queryTime -->
<g id="node10" class="node">
<title>(*github.com/go&#45;i2p/go&#45;i2p/lib/util/time/sntp.RouterTimestamper).queryTime</title>
<g id="a_node10"><a xlink:title="(*github.com/go&#45;i2p/go&#45;i2p/lib/util/time/sntp.RouterTimestamper).queryTime | defined in router_timestamper.go:276&#10;at router_timestamper.go:303: calling [github.com/go&#45;i2p/go&#45;i2p/lib/util/time/sntp.absDuration]&#10;at router_timestamper.go:312: calling [github.com/go&#45;i2p/go&#45;i2p/lib/util/time/sntp.absDuration]&#10;at router_timestamper.go:304: calling [github.com/go&#45;i2p/go&#45;i2p/lib/util/time/sntp.absDuration]&#10;at router_timestamper.go:319: calling [(*github.com/go&#45;i2p/go&#45;i2p/lib/util/time/sntp.RouterTimestamper).stampTime]">
<path fill="#add8e6" stroke="#000000" stroke-width=".5" d="M929.8429,-347C929.8429,-347 867.9935,-347 867.9935,-347 861.9935,-347 855.9935,-341 855.9935,-335 855.9935,-335 855.9935,-323 855.9935,-323 855.9935,-317 861.9935,-311 867.9935,-311 867.9935,-311 929.8429,-311 929.8429,-311 935.8429,-311 941.8429,-317 941.8429,-323 941.8429,-323 941.8429,-335 941.8429,-335 941.8429,-341 935.8429,-347 929.8429,-347"/>
<text text-anchor="middle" x="898.9182" y="-324.8" font-family="Verdana" font-size="14.00" fill="#000000">queryTime</text>
</a>
</g>
</g>
<!-- (*github.com/go&#45;i2p/go&#45;i2p/lib/util/time/sntp.RouterTimestamper).performTimeQuery&#45;&gt;(*github.com/go&#45;i2p/go&#45;i2p/lib/util/time/sntp.RouterTimestamper).queryTime -->
<g id="edge11" class="edge">
<title>(*github.com/go&#45;i2p/go&#45;i2p/lib/util/time/sntp.RouterTimestamper).performTimeQuery&#45;&gt;(*github.com/go&#45;i2p/go&#45;i2p/lib/util/time/sntp.RouterTimestamper).queryTime</title>
<g id="a_edge11"><a xlink:title="at router_timestamper.go:141: calling [(*github.com/go&#45;i2p/go&#45;i2p/lib/util/time/sntp.RouterTimestamper).queryTime]&#10;at router_timestamper.go:150: calling [(*github.com/go&#45;i2p/go&#45;i2p/lib/util/time/sntp.RouterTimestamper).queryTime]">
<path fill="none" stroke="#000000" d="M733.7788,-347.5146C769.4301,-343.5176 812.6965,-338.6668 845.998,-334.9332"/>
<polygon fill="#000000" stroke="#000000" points="846.4458,-338.405 855.9936,-333.8125 845.6658,-331.4485 846.4458,-338.405"/>
</a>
</g>
</g>
<!-- (*github.com/go&#45;i2p/go&#45;i2p/lib/util/time/sntp.RouterTimestamper).secureRandBool -->
<g id="node12" class="node">
<title>(*github.com/go&#45;i2p/go&#45;i2p/lib/util/time/sntp.RouterTimestamper).secureRandBool</title>
<g id="a_node12"><a xlink:title="(*github.com/go&#45;i2p/go&#45;i2p/lib/util/time/sntp.RouterTimestamper).secureRandBool | defined in router_timestamper.go:125">
<path fill="#add8e6" stroke="#000000" stroke-width=".5" d="M944.9466,-408C944.9466,-408 852.8898,-408 852.8898,-408 846.8898,-408 840.8898,-402 840.8898,-396 840.8898,-396 840.8898,-384 840.8898,-384 840.8898,-378 846.8898,-372 852.8898,-372 852.8898,-372 944.9466,-372 944.9466,-372 950.9466,-372 956.9466,-378 956.9466,-384 956.9466,-384 956.9466,-396 956.9466,-396 956.9466,-402 950.9466,-408 944.9466,-408"/>
<text text-anchor="middle" x="898.9182" y="-385.8" font-family="Verdana" font-size="14.00" fill="#000000">secureRandBool</text>
</a>
</g>
</g>
<!-- (*github.com/go&#45;i2p/go&#45;i2p/lib/util/time/sntp.RouterTimestamper).performTimeQuery&#45;&gt;(*github.com/go&#45;i2p/go&#45;i2p/lib/util/time/sntp.RouterTimestamper).secureRandBool -->
<g id="edge12" class="edge">
<title>(*github.com/go&#45;i2p/go&#45;i2p/lib/util/time/sntp.RouterTimestamper).performTimeQuery&#45;&gt;(*github.com/go&#45;i2p/go&#45;i2p/lib/util/time/sntp.RouterTimestamper).secureRandBool</title>
<g id="a_edge12"><a xlink:title="at router_timestamper.go:149: calling [(*github.com/go&#45;i2p/go&#45;i2p/lib/util/time/sntp.RouterTimestamper).secureRandBool]">
<path fill="none" stroke="#000000" d="M733.7788,-365.0765C764.1938,-369.6668 800.1513,-375.0937 830.7354,-379.7096"/>
<polygon fill="#000000" stroke="#000000" points="830.4753,-383.2099 840.8856,-381.2415 831.5199,-376.2883 830.4753,-383.2099"/>
</a>
</g>
</g>
<!-- (*github.com/go&#45;i2p/go&#45;i2p/lib/util/time/sntp.RouterTimestamper).queryTime&#45;&gt;github.com/go&#45;i2p/go&#45;i2p/lib/util/time/sntp.absDuration -->
<g id="edge10" class="edge">
<title>(*github.com/go&#45;i2p/go&#45;i2p/lib/util/time/sntp.RouterTimestamper).queryTime&#45;&gt;github.com/go&#45;i2p/go&#45;i2p/lib/util/time/sntp.absDuration</title>
<g id="a_edge10"><a xlink:title="at router_timestamper.go:303: calling [github.com/go&#45;i2p/go&#45;i2p/lib/util/time/sntp.absDuration]&#10;at router_timestamper.go:312: calling [github.com/go&#45;i2p/go&#45;i2p/lib/util/time/sntp.absDuration]&#10;at router_timestamper.go:304: calling [github.com/go&#45;i2p/go&#45;i2p/lib/util/time/sntp.absDuration]">
<path fill="none" stroke="#000000" d="M942.0155,-316.7584C953.8548,-312.2574 966.2725,-306.4 976.6258,-299 1017.6903,-269.6493 1007.4174,-239.6803 1049.6258,-212 1055.2126,-208.3362 1061.4284,-205.2657 1067.8181,-202.6962"/>
<polygon fill="#000000" stroke="#000000" points="1069.0411,-205.9758 1077.2513,-199.2794 1066.6571,-199.3943 1069.0411,-205.9758"/>
</a>
</g>
</g>
<!-- (*github.com/go&#45;i2p/go&#45;i2p/lib/util/time/sntp.RouterTimestamper).stampTime -->
<g id="node11" class="node">
<title>(*github.com/go&#45;i2p/go&#45;i2p/lib/util/time/sntp.RouterTimestamper).stampTime</title>
<g id="a_node11"><a xlink:title="(*github.com/go&#45;i2p/go&#45;i2p/lib/util/time/sntp.RouterTimestamper).stampTime | defined in router_timestamper.go:323">
<path fill="#add8e6" stroke="#000000" stroke-width=".5" d="M1155.3229,-347C1155.3229,-347 1092.3453,-347 1092.3453,-347 1086.3453,-347 1080.3453,-341 1080.3453,-335 1080.3453,-335 1080.3453,-323 1080.3453,-323 1080.3453,-317 1086.3453,-311 1092.3453,-311 1092.3453,-311 1155.3229,-311 1155.3229,-311 1161.3229,-311 1167.3229,-317 1167.3229,-323 1167.3229,-323 1167.3229,-335 1167.3229,-335 1167.3229,-341 1161.3229,-347 1155.3229,-347"/>
<text text-anchor="middle" x="1123.8341" y="-324.8" font-family="Verdana" font-size="14.00" fill="#000000">stampTime</text>
</a>
</g>
</g>
<!-- (*github.com/go&#45;i2p/go&#45;i2p/lib/util/time/sntp.RouterTimestamper).queryTime&#45;&gt;(*github.com/go&#45;i2p/go&#45;i2p/lib/util/time/sntp.RouterTimestamper).stampTime -->
<g id="edge18" class="edge">
<title>(*github.com/go&#45;i2p/go&#45;i2p/lib/util/time/sntp.RouterTimestamper).queryTime&#45;&gt;(*github.com/go&#45;i2p/go&#45;i2p/lib/util/time/sntp.RouterTimestamper).stampTime</title>
<g id="a_edge18"><a xlink:title="at router_timestamper.go:319: calling [(*github.com/go&#45;i2p/go&#45;i2p/lib/util/time/sntp.RouterTimestamper).stampTime]">
<path fill="none" stroke="#000000" d="M941.7526,-329C978.1397,-329 1030.5595,-329 1069.8194,-329"/>
<polygon fill="#000000" stroke="#000000" points="1070.0083,-332.5001 1080.0083,-329 1070.0083,-325.5001 1070.0083,-332.5001"/>
</a>
</g>
</g>
<!-- (*github.com/go&#45;i2p/go&#45;i2p/lib/util/time/sntp.RouterTimestamper).run -->
<g id="node13" class="node">
<title>(*github.com/go&#45;i2p/go&#45;i2p/lib/util/time/sntp.RouterTimestamper).run</title>
<g id="a_node13"><a xlink:title="(*github.com/go&#45;i2p/go&#45;i2p/lib/util/time/sntp.RouterTimestamper).run | defined in router_timestamper.go:215&#10;at router_timestamper.go:218: calling [(*github.com/go&#45;i2p/go&#45;i2p/lib/util/time/sntp.RouterTimestamper).performTimeQuery]">
<path fill="#add8e6" stroke="#000000" stroke-width=".5" d="M491.7182,-408C491.7182,-408 461.7182,-408 461.7182,-408 455.7182,-408 449.7182,-402 449.7182,-396 449.7182,-396 449.7182,-384 449.7182,-384 449.7182,-378 455.7182,-372 461.7182,-372 461.7182,-372 491.7182,-372 491.7182,-372 497.7182,-372 503.7182,-378 503.7182,-384 503.7182,-384 503.7182,-396 503.7182,-396 503.7182,-402 497.7182,-408 491.7182,-408"/>
<text text-anchor="middle" x="476.7182" y="-385.8" font-family="Verdana" font-size="14.00" fill="#000000">run</text>
</a>
</g>
</g>
<!-- (*github.com/go&#45;i2p/go&#45;i2p/lib/util/time/sntp.RouterTimestamper).run&#45;&gt;(*github.com/go&#45;i2p/go&#45;i2p/lib/util/time/sntp.RouterTimestamper).performTimeQuery -->
<g id="edge5" class="edge">
<title>(*github.com/go&#45;i2p/go&#45;i2p/lib/util/time/sntp.RouterTimestamper).run&#45;&gt;(*github.com/go&#45;i2p/go&#45;i2p/lib/util/time/sntp.RouterTimestamper).performTimeQuery</title>
<g id="a_edge5"><a xlink:title="at router_timestamper.go:218: calling [(*github.com/go&#45;i2p/go&#45;i2p/lib/util/time/sntp.RouterTimestamper).performTimeQuery]">
<path fill="none" stroke="#000000" d="M503.9829,-384.9854C526.512,-380.8417 559.6361,-374.7494 590.1523,-369.1367"/>
<polygon fill="#000000" stroke="#000000" points="591.1804,-372.5064 600.3823,-367.2551 589.9141,-365.6218 591.1804,-372.5064"/>
</a>
</g>
</g>
<!-- (*github.com/go&#45;i2p/go&#45;i2p/lib/util/time/sntp.RouterTimestamper).Start -->
<g id="node14" class="node">
<title>(*github.com/go&#45;i2p/go&#45;i2p/lib/util/time/sntp.RouterTimestamper).Start</title>
<g id="a_node14"><a xlink:title="(*github.com/go&#45;i2p/go&#45;i2p/lib/util/time/sntp.RouterTimestamper).Start | defined in router_timestamper.go:69&#10;at router_timestamper.go:75: calling [(*github.com/go&#45;i2p/go&#45;i2p/lib/util/time/sntp.RouterTimestamper).run]">
<path fill="#add8e6" stroke="#000000" stroke-width="1.5" d="M316.965,-408C316.965,-408 286.965,-408 286.965,-408 280.965,-408 274.965,-402 274.965,-396 274.965,-396 274.965,-384 274.965,-384 274.965,-378 280.965,-372 286.965,-372 286.965,-372 316.965,-372 316.965,-372 322.965,-372 328.965,-378 328.965,-384 328.965,-384 328.965,-396 328.965,-396 328.965,-402 322.965,-408 316.965,-408"/>
<text text-anchor="middle" x="301.965" y="-385.8" font-family="Verdana" font-size="14.00" fill="#000000">Start</text>
</a>
</g>
</g>
<!-- (*github.com/go&#45;i2p/go&#45;i2p/lib/util/time/sntp.RouterTimestamper).Start&#45;&gt;(*github.com/go&#45;i2p/go&#45;i2p/lib/util/time/sntp.RouterTimestamper).run -->
<g id="edge6" class="edge">
<title>(*github.com/go&#45;i2p/go&#45;i2p/lib/util/time/sntp.RouterTimestamper).Start&#45;&gt;(*github.com/go&#45;i2p/go&#45;i2p/lib/util/time/sntp.RouterTimestamper).run</title>
<g id="a_edge6"><a xlink:title="at router_timestamper.go:75: calling [(*github.com/go&#45;i2p/go&#45;i2p/lib/util/time/sntp.RouterTimestamper).run]">
<path fill="none" stroke="#000000" d="M329.2702,-390C355.1753,-390 394.7342,-390 426.3574,-390"/>
<polygon fill="#000000" stroke="#000000" points="439.6048,-393.5 449.6048,-390 439.6047,-386.5 439.6048,-393.5"/>
<polyline fill="none" stroke="#000000" points="439.6048,-390 434.6048,-390.0001 "/>
<ellipse fill="none" stroke="#000000" cx="430.6048" cy="-390.0001" rx="4" ry="4"/>
</a>
</g>
</g>
<!-- (*github.com/go&#45;i2p/go&#45;i2p/lib/util/time/sntp.RouterTimestamper).runOnce -->
<g id="node15" class="node">
<title>(*github.com/go&#45;i2p/go&#45;i2p/lib/util/time/sntp.RouterTimestamper).runOnce</title>
<g id="a_node15"><a xlink:title="(*github.com/go&#45;i2p/go&#45;i2p/lib/util/time/sntp.RouterTimestamper).runOnce | defined in router_timestamper.go:272&#10;at router_timestamper.go:273: calling [(*github.com/go&#45;i2p/go&#45;i2p/lib/util/time/sntp.RouterTimestamper).performTimeQuery]">
<path fill="#add8e6" stroke="#000000" stroke-width=".5" d="M500.9149,-347C500.9149,-347 452.5215,-347 452.5215,-347 446.5215,-347 440.5215,-341 440.5215,-335 440.5215,-335 440.5215,-323 440.5215,-323 440.5215,-317 446.5215,-311 452.5215,-311 452.5215,-311 500.9149,-311 500.9149,-311 506.9149,-311 512.9149,-317 512.9149,-323 512.9149,-323 512.9149,-335 512.9149,-335 512.9149,-341 506.9149,-347 500.9149,-347"/>
<text text-anchor="middle" x="476.7182" y="-324.8" font-family="Verdana" font-size="14.00" fill="#000000">runOnce</text>
</a>
</g>
</g>
<!-- (*github.com/go&#45;i2p/go&#45;i2p/lib/util/time/sntp.RouterTimestamper).runOnce&#45;&gt;(*github.com/go&#45;i2p/go&#45;i2p/lib/util/time/sntp.RouterTimestamper).performTimeQuery -->
<g id="edge8" class="edge">
<title>(*github.com/go&#45;i2p/go&#45;i2p/lib/util/time/sntp.RouterTimestamper).runOnce&#45;&gt;(*github.com/go&#45;i2p/go&#45;i2p/lib/util/time/sntp.RouterTimestamper).performTimeQuery</title>
<g id="a_edge8"><a xlink:title="at router_timestamper.go:273: calling [(*github.com/go&#45;i2p/go&#45;i2p/lib/util/time/sntp.RouterTimestamper).performTimeQuery]">
<path fill="none" stroke="#000000" d="M512.9592,-333.9516C534.7608,-336.9303 563.365,-340.8385 590.0004,-344.4777"/>
<polygon fill="#000000" stroke="#000000" points="589.7122,-347.9708 600.0939,-345.8568 590.6598,-341.0352 589.7122,-347.9708"/>
</a>
</g>
</g>
<!-- (*github.com/go&#45;i2p/go&#45;i2p/lib/util/time/sntp.RouterTimestamper).TimestampNow -->
<g id="node16" class="node">
<title>(*github.com/go&#45;i2p/go&#45;i2p/lib/util/time/sntp.RouterTimestamper).TimestampNow</title>
<g id="a_node16"><a xlink:title="(*github.com/go&#45;i2p/go&#45;i2p/lib/util/time/sntp.RouterTimestamper).TimestampNow | defined in router_timestamper.go:119&#10;at router_timestamper.go:121: calling [(*github.com/go&#45;i2p/go&#45;i2p/lib/util/time/sntp.RouterTimestamper).runOnce]">
<path fill="#add8e6" stroke="#000000" stroke-width="1.5" d="M347.1672,-347C347.1672,-347 256.7628,-347 256.7628,-347 250.7628,-347 244.7628,-341 244.7628,-335 244.7628,-335 244.7628,-323 244.7628,-323 244.7628,-317 250.7628,-311 256.7628,-311 256.7628,-311 347.1672,-311 347.1672,-311 353.1672,-311 359.1672,-317 359.1672,-323 359.1672,-323 359.1672,-335 359.1672,-335 359.1672,-341 353.1672,-347 347.1672,-347"/>
<text text-anchor="middle" x="301.965" y="-324.8" font-family="Verdana" font-size="14.00" fill="#000000">TimestampNow</text>
</a>
</g>
</g>
<!-- (*github.com/go&#45;i2p/go&#45;i2p/lib/util/time/sntp.RouterTimestamper).TimestampNow&#45;&gt;(*github.com/go&#45;i2p/go&#45;i2p/lib/util/time/sntp.RouterTimestamper).runOnce -->
<g id="edge13" class="edge">
<title>(*github.com/go&#45;i2p/go&#45;i2p/lib/util/time/sntp.RouterTimestamper).TimestampNow&#45;&gt;(*github.com/go&#45;i2p/go&#45;i2p/lib/util/time/sntp.RouterTimestamper).runOnce</title>
<g id="a_edge13"><a xlink:title="at router_timestamper.go:121: calling [(*github.com/go&#45;i2p/go&#45;i2p/lib/util/time/sntp.RouterTimestamper).runOnce]">
<path fill="none" stroke="#000000" d="M359.1857,-329C377.8039,-329 398.5042,-329 417.2807,-329"/>
<polygon fill="#000000" stroke="#000000" points="430.5192,-332.5 440.5192,-329 430.5192,-325.5 430.5192,-332.5"/>
<polyline fill="none" stroke="#000000" points="430.5192,-329 425.5192,-329.0001 "/>
<ellipse fill="none" stroke="#000000" cx="421.5192" cy="-329.0001" rx="4" ry="4"/>
</a>
</g>
</g>
<!-- (*github.com/go&#45;i2p/go&#45;i2p/lib/util/time/sntp.RouterTimestamper).GetCurrentTime -->
<g id="node17" class="node">
<title>(*github.com/go&#45;i2p/go&#45;i2p/lib/util/time/sntp.RouterTimestamper).GetCurrentTime</title>
<g id="a_node17"><a xlink:title="(*github.com/go&#45;i2p/go&#45;i2p/lib/util/time/sntp.RouterTimestamper).GetCurrentTime | defined in router_timestamper.go:397&#10;at router_timestamper.go:400: calling [(*github.com/go&#45;i2p/go&#45;i2p/lib/util/time/sntp.RouterTimestamper).TimestampNow]">
<path fill="#add8e6" stroke="#000000" stroke-width="1.5" d="M135.6792,-347C135.6792,-347 43.6308,-347 43.6308,-347 37.6308,-347 31.6308,-341 31.6308,-335 31.6308,-335 31.6308,-323 31.6308,-323 31.6308,-317 37.6308,-311 43.6308,-311 43.6308,-311 135.6792,-311 135.6792,-311 141.6792,-311 147.6792,-317 147.6792,-323 147.6792,-323 147.6792,-335 147.6792,-335 147.6792,-341 141.6792,-347 135.6792,-347"/>
<text text-anchor="middle" x="89.655" y="-324.8" font-family="Verdana" font-size="14.00" fill="#000000">GetCurrentTime</text>
</a>
</g>
</g>
<!-- (*github.com/go&#45;i2p/go&#45;i2p/lib/util/time/sntp.RouterTimestamper).GetCurrentTime&#45;&gt;(*github.com/go&#45;i2p/go&#45;i2p/lib/util/time/sntp.RouterTimestamper).TimestampNow -->
<g id="edge15" class="edge">
<title>(*github.com/go&#45;i2p/go&#45;i2p/lib/util/time/sntp.RouterTimestamper).GetCurrentTime&#45;&gt;(*github.com/go&#45;i2p/go&#45;i2p/lib/util/time/sntp.RouterTimestamper).TimestampNow</title>
<g id="a_edge15"><a xlink:title="at router_timestamper.go:400: calling [(*github.com/go&#45;i2p/go&#45;i2p/lib/util/time/sntp.RouterTimestamper).TimestampNow]">
<path fill="none" stroke="#000000" d="M147.9505,-329C174.7367,-329 206.6648,-329 234.487,-329"/>
<polygon fill="#000000" stroke="#000000" points="234.5344,-332.5001 244.5344,-329 234.5343,-325.5001 234.5344,-332.5001"/>
</a>
</g>
</g>
<!-- (*github.com/go&#45;i2p/go&#45;i2p/lib/util/time/sntp.RouterTimestamper).validateResponse -->
<g id="node18" class="node">
<title>(*github.com/go&#45;i2p/go&#45;i2p/lib/util/time/sntp.RouterTimestamper).validateResponse</title>
<g id="a_node18"><a xlink:title="(*github.com/go&#45;i2p/go&#45;i2p/lib/util/time/sntp.RouterTimestamper).validateResponse | defined in verification.go:10&#10;at verification.go:28: calling [github.com/go&#45;i2p/go&#45;i2p/lib/util/time/sntp.absDuration]">
<path fill="#add8e6" stroke="#000000" stroke-width=".5" d="M138.6256,-286C138.6256,-286 40.6844,-286 40.6844,-286 34.6844,-286 28.6844,-280 28.6844,-274 28.6844,-274 28.6844,-262 28.6844,-262 28.6844,-256 34.6844,-250 40.6844,-250 40.6844,-250 138.6256,-250 138.6256,-250 144.6256,-250 150.6256,-256 150.6256,-262 150.6256,-262 150.6256,-274 150.6256,-274 150.6256,-280 144.6256,-286 138.6256,-286"/>
<text text-anchor="middle" x="89.655" y="-263.8" font-family="Verdana" font-size="14.00" fill="#000000">validateResponse</text>
</a>
</g>
</g>
<!-- (*github.com/go&#45;i2p/go&#45;i2p/lib/util/time/sntp.RouterTimestamper).validateResponse&#45;&gt;github.com/go&#45;i2p/go&#45;i2p/lib/util/time/sntp.absDuration -->
<g id="edge16" class="edge">
<title>(*github.com/go&#45;i2p/go&#45;i2p/lib/util/time/sntp.RouterTimestamper).validateResponse&#45;&gt;github.com/go&#45;i2p/go&#45;i2p/lib/util/time/sntp.absDuration</title>
<g id="a_edge16"><a xlink:title="at verification.go:28: calling [github.com/go&#45;i2p/go&#45;i2p/lib/util/time/sntp.absDuration]">
<path fill="none" stroke="#000000" d="M125.453,-249.8939C166.855,-230.6609 237.5896,-203 301.965,-203 301.965,-203 301.965,-203 898.9182,-203 956.2509,-203 1021.6676,-198.7379 1067.1138,-195.0945"/>
<polygon fill="#000000" stroke="#000000" points="1067.6758,-198.5603 1077.3571,-194.2567 1067.1051,-191.5836 1067.6758,-198.5603"/>
</a>
</g>
</g>
<!-- (*github.com/go&#45;i2p/go&#45;i2p/lib/util/time/sntp.Zones).readContinentFile -->
<g id="node21" class="node">
<title>(*github.com/go&#45;i2p/go&#45;i2p/lib/util/time/sntp.Zones).readContinentFile</title>
<g id="a_node21"><a xlink:title="(*github.com/go&#45;i2p/go&#45;i2p/lib/util/time/sntp.Zones).readContinentFile | defined in zones.go:54">
<path fill="#add8e6" stroke="#000000" stroke-width=".5" d="M1384.1792,-86C1384.1792,-86 1282.9968,-86 1282.9968,-86 1276.9968,-86 1270.9968,-80 1270.9968,-74 1270.9968,-74 1270.9968,-62 1270.9968,-62 1270.9968,-56 1276.9968,-50 1282.9968,-50 1282.9968,-50 1384.1792,-50 1384.1792,-50 1390.1792,-50 1396.1792,-56 1396.1792,-62 1396.1792,-62 1396.1792,-74 1396.1792,-74 1396.1792,-80 1390.1792,-86 1384.1792,-86"/>
<text text-anchor="middle" x="1333.588" y="-63.8" font-family="Verdana" font-size="14.00" fill="#000000">readContinentFile</text>
</a>
</g>
</g>
<!-- (*github.com/go&#45;i2p/go&#45;i2p/lib/util/time/sntp.Zones).initialize&#45;&gt;(*github.com/go&#45;i2p/go&#45;i2p/lib/util/time/sntp.Zones).readContinentFile -->
<g id="edge14" class="edge">
<title>(*github.com/go&#45;i2p/go&#45;i2p/lib/util/time/sntp.Zones).initialize&#45;&gt;(*github.com/go&#45;i2p/go&#45;i2p/lib/util/time/sntp.Zones).readContinentFile</title>
<g id="a_edge14"><a xlink:title="at zones.go:51: calling [(*github.com/go&#45;i2p/go&#45;i2p/lib/util/time/sntp.Zones).readContinentFile]">
<path fill="none" stroke="#000000" d="M1160.3704,-68C1187.9205,-68 1226.6146,-68 1260.4451,-68"/>
<polygon fill="#000000" stroke="#000000" points="1260.7704,-71.5001 1270.7704,-68 1260.7703,-64.5001 1260.7704,-71.5001"/>
</a>
</g>
</g>
</g>
</svg>
