<?xml version="1.0" encoding="UTF-8" standalone="no"?>
<!DOCTYPE svg PUBLIC "-//W3C//DTD SVG 1.1//EN"
 "http://www.w3.org/Graphics/SVG/1.1/DTD/svg11.dtd">
<!-- Generated by graphviz version 2.40.1 (20161225.0304)
 -->
<!-- Title: gocallvis Pages: 1 -->
<svg width="413pt" height="991pt"
 viewBox="0.00 0.00 413.15 991.00" xmlns="http://www.w3.org/2000/svg" xmlns:xlink="http://www.w3.org/1999/xlink">
<g id="graph0" class="graph" transform="scale(1 1) rotate(0) translate(0 991)">
<title>gocallvis</title>
<polygon fill="#d3d3d3" stroke="transparent" points="0,0 0,-991 413.1516,-991 413.1516,0 0,0"/>
<g id="clust1" class="cluster">
<title>cluster_focus</title>
<polygon fill="#e6ecfa" stroke="#000000" stroke-width=".5" points="8,-8 8,-983 405.1516,-983 405.1516,-8 8,-8"/>
<text text-anchor="middle" x="206.5758" y="-962.8" font-family="Arial" font-size="18.00" fill="#000000">transport</text>
</g>
<g id="clust5" class="cluster">
<title>cluster_github.com/go&#45;i2p/common/router_info.RouterInfo</title>
<g id="a_clust5"><a xlink:title="type: github.com/go&#45;i2p/common/router_info.RouterInfo">
<path fill="#eed8ae" stroke="#000000" stroke-width=".5" d="M273.1249,-867C273.1249,-867 352.1025,-867 352.1025,-867 358.1025,-867 364.1025,-873 364.1025,-879 364.1025,-879 364.1025,-933 364.1025,-933 364.1025,-939 358.1025,-945 352.1025,-945 352.1025,-945 273.1249,-945 273.1249,-945 267.1249,-945 261.1249,-939 261.1249,-933 261.1249,-933 261.1249,-879 261.1249,-879 261.1249,-873 267.1249,-867 273.1249,-867"/>
<text text-anchor="middle" x="312.6137" y="-875.5" font-family="Arial" font-size="15.00" fill="#222222">(RouterInfo)</text>
</a>
</g>
</g>
<g id="clust4" class="cluster">
<title>cluster_*github.com/sirupsen/logrus.Logger</title>
<g id="a_clust4"><a xlink:title="type: *github.com/sirupsen/logrus.Logger">
<path fill="#eed8ae" stroke="#000000" stroke-width=".5" d="M285.9531,-121C285.9531,-121 340.2743,-121 340.2743,-121 346.2743,-121 352.2743,-127 352.2743,-133 352.2743,-133 352.2743,-187 352.2743,-187 352.2743,-193 346.2743,-199 340.2743,-199 340.2743,-199 285.9531,-199 285.9531,-199 279.9531,-199 273.9531,-193 273.9531,-187 273.9531,-187 273.9531,-133 273.9531,-133 273.9531,-127 279.9531,-121 285.9531,-121"/>
<text text-anchor="middle" x="313.1137" y="-129.5" font-family="Arial" font-size="15.00" fill="#222222">(*Logger)</text>
</a>
</g>
</g>
<g id="clust3" class="cluster">
<title>cluster_*github.com/go&#45;i2p/logger.Logger</title>
<g id="a_clust3"><a xlink:title="type: *github.com/go&#45;i2p/logger.Logger">
<path fill="#eed8ae" stroke="#000000" stroke-width=".5" d="M275.8486,-207C275.8486,-207 349.3788,-207 349.3788,-207 355.3788,-207 361.3788,-213 361.3788,-219 361.3788,-219 361.3788,-456 361.3788,-456 361.3788,-462 355.3788,-468 349.3788,-468 349.3788,-468 275.8486,-468 275.8486,-468 269.8486,-468 263.8486,-462 263.8486,-456 263.8486,-456 263.8486,-219 263.8486,-219 263.8486,-213 269.8486,-207 275.8486,-207"/>
<text text-anchor="middle" x="312.6137" y="-215.5" font-family="Arial" font-size="15.00" fill="#222222">(*Logger)</text>
</a>
</g>
</g>
<g id="clust2" class="cluster">
<title>cluster_*github.com/go&#45;i2p/go&#45;i2p/lib/transport.TransportMuxer</title>
<g id="a_clust2"><a xlink:title="type: *github.com/go&#45;i2p/go&#45;i2p/lib/transport.TransportMuxer">
<path fill="#b0c4de" stroke="#000000" stroke-width=".5" d="M28,-476C28,-476 385.1516,-476 385.1516,-476 391.1516,-476 397.1516,-482 397.1516,-488 397.1516,-488 397.1516,-847 397.1516,-847 397.1516,-853 391.1516,-859 385.1516,-859 385.1516,-859 28,-859 28,-859 22,-859 16,-853 16,-847 16,-847 16,-488 16,-488 16,-482 22,-476 28,-476"/>
<text text-anchor="middle" x="206.5758" y="-484.5" font-family="Arial" font-size="15.00" fill="#222222">(*TransportMuxer)</text>
</a>
</g>
</g>
<!-- github.com/go&#45;i2p/go&#45;i2p/lib/transport.Mux -->
<g id="node1" class="node">
<title>github.com/go&#45;i2p/go&#45;i2p/lib/transport.Mux</title>
<g id="a_node1"><a xlink:title="github.com/go&#45;i2p/go&#45;i2p/lib/transport.Mux | defined in multi.go:22&#10;at multi.go:23: calling [(*github.com/go&#45;i2p/logger.Logger).WithField]&#10;at multi.go:23: calling [(*github.com/sirupsen/logrus.Logger).Debug]&#10;at multi.go:26: calling [(*github.com/sirupsen/logrus.Logger).Debug]">
<path fill="#add8e6" stroke="#000000" stroke-width="1.5" d="M108.5379,-217C108.5379,-217 78.5379,-217 78.5379,-217 72.5379,-217 66.5379,-211 66.5379,-205 66.5379,-205 66.5379,-193 66.5379,-193 66.5379,-187 72.5379,-181 78.5379,-181 78.5379,-181 108.5379,-181 108.5379,-181 114.5379,-181 120.5379,-187 120.5379,-193 120.5379,-193 120.5379,-205 120.5379,-205 120.5379,-211 114.5379,-217 108.5379,-217"/>
<text text-anchor="middle" x="93.5379" y="-194.8" font-family="Verdana" font-size="14.00" fill="#000000">Mux</text>
</a>
</g>
</g>
<!-- (*github.com/go&#45;i2p/logger.Logger).WithField -->
<g id="node12" class="node">
<title>(*github.com/go&#45;i2p/logger.Logger).WithField</title>
<g id="a_node12"><a xlink:title="(*github.com/go&#45;i2p/logger.Logger).WithField | defined in log.go:60">
<path fill="#ffe4b5" stroke="#000000" stroke-width="1.5" d="M340.8882,-277C340.8882,-277 284.3392,-277 284.3392,-277 278.3392,-277 272.3392,-271 272.3392,-265 272.3392,-265 272.3392,-253 272.3392,-253 272.3392,-247 278.3392,-241 284.3392,-241 284.3392,-241 340.8882,-241 340.8882,-241 346.8882,-241 352.8882,-247 352.8882,-253 352.8882,-253 352.8882,-265 352.8882,-265 352.8882,-271 346.8882,-277 340.8882,-277"/>
<text text-anchor="middle" x="312.6137" y="-263.2" font-family="Verdana" font-size="14.00" fill="#000000">logger</text>
<text text-anchor="middle" x="312.6137" y="-246.4" font-family="Verdana" font-size="14.00" fill="#000000">WithField</text>
</a>
</g>
</g>
<!-- github.com/go&#45;i2p/go&#45;i2p/lib/transport.Mux&#45;&gt;(*github.com/go&#45;i2p/logger.Logger).WithField -->
<g id="edge23" class="edge">
<title>github.com/go&#45;i2p/go&#45;i2p/lib/transport.Mux&#45;&gt;(*github.com/go&#45;i2p/logger.Logger).WithField</title>
<g id="a_edge23"><a xlink:title="at multi.go:23: calling [(*github.com/go&#45;i2p/logger.Logger).WithField]">
<path fill="none" stroke="#8b4513" d="M120.841,-206.4777C156.2444,-216.1739 218.6565,-233.2672 262.647,-245.3152"/>
<polygon fill="#8b4513" stroke="#8b4513" points="261.7229,-248.691 272.2923,-247.9569 263.572,-241.9396 261.7229,-248.691"/>
</a>
</g>
</g>
<!-- (*github.com/sirupsen/logrus.Logger).Debug -->
<g id="node16" class="node">
<title>(*github.com/sirupsen/logrus.Logger).Debug</title>
<g id="a_node16"><a xlink:title="(*github.com/sirupsen/logrus.Logger).Debug | defined in logger.go:221">
<path fill="#ffe4b5" stroke="#000000" stroke-width="1.5" d="M331.4357,-191C331.4357,-191 293.7917,-191 293.7917,-191 287.7917,-191 281.7917,-185 281.7917,-179 281.7917,-179 281.7917,-167 281.7917,-167 281.7917,-161 287.7917,-155 293.7917,-155 293.7917,-155 331.4357,-155 331.4357,-155 337.4357,-155 343.4357,-161 343.4357,-167 343.4357,-167 343.4357,-179 343.4357,-179 343.4357,-185 337.4357,-191 331.4357,-191"/>
<text text-anchor="middle" x="312.6137" y="-177.2" font-family="Verdana" font-size="14.00" fill="#000000">logrus</text>
<text text-anchor="middle" x="312.6137" y="-160.4" font-family="Verdana" font-size="14.00" fill="#000000">Debug</text>
</a>
</g>
</g>
<!-- github.com/go&#45;i2p/go&#45;i2p/lib/transport.Mux&#45;&gt;(*github.com/sirupsen/logrus.Logger).Debug -->
<g id="edge24" class="edge">
<title>github.com/go&#45;i2p/go&#45;i2p/lib/transport.Mux&#45;&gt;(*github.com/sirupsen/logrus.Logger).Debug</title>
<g id="a_edge24"><a xlink:title="at multi.go:23: calling [(*github.com/sirupsen/logrus.Logger).Debug]&#10;at multi.go:26: calling [(*github.com/sirupsen/logrus.Logger).Debug]">
<path fill="none" stroke="#8b4513" d="M120.841,-195.7597C158.7503,-191.2606 227.6273,-183.0862 271.6954,-177.8562"/>
<polygon fill="#8b4513" stroke="#8b4513" points="272.2691,-181.3128 281.7869,-176.6585 271.4441,-174.3615 272.2691,-181.3128"/>
</a>
</g>
</g>
<!-- github.com/go&#45;i2p/go&#45;i2p/lib/transport.init -->
<g id="node2" class="node">
<title>github.com/go&#45;i2p/go&#45;i2p/lib/transport.init</title>
<g id="a_node2"><a xlink:title="github.com/go&#45;i2p/go&#45;i2p/lib/transport.init | defined in .:0&#10;at errors.go:6: calling [github.com/samber/oops.Errorf]&#10;at multi.go:12: calling [github.com/go&#45;i2p/logger.GetGoI2PLogger]">
<path fill="#add8e6" stroke="#000000" stroke-width=".5" d="M108.5379,-87C108.5379,-87 78.5379,-87 78.5379,-87 72.5379,-87 66.5379,-81 66.5379,-75 66.5379,-75 66.5379,-63 66.5379,-63 66.5379,-57 72.5379,-51 78.5379,-51 78.5379,-51 108.5379,-51 108.5379,-51 114.5379,-51 120.5379,-57 120.5379,-63 120.5379,-63 120.5379,-75 120.5379,-75 120.5379,-81 114.5379,-87 108.5379,-87"/>
<text text-anchor="middle" x="93.5379" y="-64.8" font-family="Verdana" font-size="14.00" fill="#000000">init</text>
</a>
</g>
</g>
<!-- github.com/samber/oops.Errorf -->
<g id="node3" class="node">
<title>github.com/samber/oops.Errorf</title>
<g id="a_node3"><a xlink:title="github.com/samber/oops.Errorf | defined in oops.go:34">
<path fill="#ffe4b5" stroke="#000000" stroke-width="1.5" d="M329.809,-113C329.809,-113 295.4184,-113 295.4184,-113 289.4184,-113 283.4184,-107 283.4184,-101 283.4184,-101 283.4184,-89 283.4184,-89 283.4184,-83 289.4184,-77 295.4184,-77 295.4184,-77 329.809,-77 329.809,-77 335.809,-77 341.809,-83 341.809,-89 341.809,-89 341.809,-101 341.809,-101 341.809,-107 335.809,-113 329.809,-113"/>
<text text-anchor="middle" x="312.6137" y="-99.2" font-family="Verdana" font-size="14.00" fill="#000000">oops</text>
<text text-anchor="middle" x="312.6137" y="-82.4" font-family="Verdana" font-size="14.00" fill="#000000">Errorf</text>
</a>
</g>
</g>
<!-- github.com/go&#45;i2p/go&#45;i2p/lib/transport.init&#45;&gt;github.com/samber/oops.Errorf -->
<g id="edge1" class="edge">
<title>github.com/go&#45;i2p/go&#45;i2p/lib/transport.init&#45;&gt;github.com/samber/oops.Errorf</title>
<g id="a_edge1"><a xlink:title="at errors.go:6: calling [github.com/samber/oops.Errorf]">
<path fill="none" stroke="#8b4513" d="M120.841,-72.2403C159.1751,-76.7898 229.1747,-85.0974 273.1672,-90.3185"/>
<polygon fill="#8b4513" stroke="#8b4513" points="272.8737,-93.8081 283.2165,-91.5111 273.6987,-86.8569 272.8737,-93.8081"/>
</a>
</g>
</g>
<!-- github.com/go&#45;i2p/logger.GetGoI2PLogger -->
<g id="node4" class="node">
<title>github.com/go&#45;i2p/logger.GetGoI2PLogger</title>
<g id="a_node4"><a xlink:title="github.com/go&#45;i2p/logger.GetGoI2PLogger | defined in log.go:148">
<path fill="#ffe4b5" stroke="#000000" stroke-width="1.5" d="M361.3032,-52C361.3032,-52 263.9242,-52 263.9242,-52 257.9242,-52 251.9242,-46 251.9242,-40 251.9242,-40 251.9242,-28 251.9242,-28 251.9242,-22 257.9242,-16 263.9242,-16 263.9242,-16 361.3032,-16 361.3032,-16 367.3032,-16 373.3032,-22 373.3032,-28 373.3032,-28 373.3032,-40 373.3032,-40 373.3032,-46 367.3032,-52 361.3032,-52"/>
<text text-anchor="middle" x="312.6137" y="-38.2" font-family="Verdana" font-size="14.00" fill="#000000">logger</text>
<text text-anchor="middle" x="312.6137" y="-21.4" font-family="Verdana" font-size="14.00" fill="#000000">GetGoI2PLogger</text>
</a>
</g>
</g>
<!-- github.com/go&#45;i2p/go&#45;i2p/lib/transport.init&#45;&gt;github.com/go&#45;i2p/logger.GetGoI2PLogger -->
<g id="edge18" class="edge">
<title>github.com/go&#45;i2p/go&#45;i2p/lib/transport.init&#45;&gt;github.com/go&#45;i2p/logger.GetGoI2PLogger</title>
<g id="a_edge18"><a xlink:title="at multi.go:12: calling [github.com/go&#45;i2p/logger.GetGoI2PLogger]">
<path fill="none" stroke="#8b4513" d="M120.841,-64.638C150.9349,-59.8301 200.5441,-51.9045 241.7656,-45.3188"/>
<polygon fill="#8b4513" stroke="#8b4513" points="242.4527,-48.7535 251.7753,-43.7197 241.3483,-41.8412 242.4527,-48.7535"/>
</a>
</g>
</g>
<!-- (*github.com/go&#45;i2p/go&#45;i2p/lib/transport.TransportMuxer).AcceptWithTimeout -->
<g id="node5" class="node">
<title>(*github.com/go&#45;i2p/go&#45;i2p/lib/transport.TransportMuxer).AcceptWithTimeout</title>
<g id="a_node5"><a xlink:title="(*github.com/go&#45;i2p/go&#45;i2p/lib/transport.TransportMuxer).AcceptWithTimeout | defined in multi.go:123&#10;at multi.go:124: calling [(*github.com/go&#45;i2p/logger.Logger).WithField]&#10;at multi.go:138: calling [(*github.com/go&#45;i2p/go&#45;i2p/lib/transport.TransportMuxer).AcceptWithTimeout$1]&#10;at multi.go:124: calling [(*github.com/sirupsen/logrus.Logger).Debug]&#10;at multi.go:153: calling [(*github.com/sirupsen/logrus.Logger).Debug]&#10;at multi.go:155: calling [(*github.com/sirupsen/logrus.Logger).Debug]&#10;at multi.go:159: calling [(*github.com/sirupsen/logrus.Logger).Debug]&#10;at multi.go:153: calling [(*github.com/go&#45;i2p/logger.Logger).WithError]">
<path fill="#add8e6" stroke="#000000" stroke-width="1.5" d="M151.1137,-790C151.1137,-790 35.9621,-790 35.9621,-790 29.9621,-790 23.9621,-784 23.9621,-778 23.9621,-778 23.9621,-766 23.9621,-766 23.9621,-760 29.9621,-754 35.9621,-754 35.9621,-754 151.1137,-754 151.1137,-754 157.1137,-754 163.1137,-760 163.1137,-766 163.1137,-766 163.1137,-778 163.1137,-778 163.1137,-784 157.1137,-790 151.1137,-790"/>
<text text-anchor="middle" x="93.5379" y="-767.8" font-family="Verdana" font-size="14.00" fill="#000000">AcceptWithTimeout</text>
</a>
</g>
</g>
<!-- (*github.com/go&#45;i2p/go&#45;i2p/lib/transport.TransportMuxer).AcceptWithTimeout$1 -->
<g id="node6" class="node">
<title>(*github.com/go&#45;i2p/go&#45;i2p/lib/transport.TransportMuxer).AcceptWithTimeout$1</title>
<g id="a_node6"><a xlink:title="(*github.com/go&#45;i2p/go&#45;i2p/lib/transport.TransportMuxer).AcceptWithTimeout$1 | defined in multi.go:138">
<polygon fill="#add8e6" stroke="#000000" stroke-dasharray="1,5" points="389.1895,-790 236.0379,-790 236.0379,-754 389.1895,-754 389.1895,-790"/>
<text text-anchor="middle" x="312.6137" y="-767.8" font-family="Verdana" font-size="14.00" fill="#000000">AcceptWithTimeout$1</text>
</a>
</g>
</g>
<!-- (*github.com/go&#45;i2p/go&#45;i2p/lib/transport.TransportMuxer).AcceptWithTimeout&#45;&gt;(*github.com/go&#45;i2p/go&#45;i2p/lib/transport.TransportMuxer).AcceptWithTimeout$1 -->
<g id="edge4" class="edge">
<title>(*github.com/go&#45;i2p/go&#45;i2p/lib/transport.TransportMuxer).AcceptWithTimeout&#45;&gt;(*github.com/go&#45;i2p/go&#45;i2p/lib/transport.TransportMuxer).AcceptWithTimeout$1</title>
<g id="a_edge4"><a xlink:title="at multi.go:138: calling [(*github.com/go&#45;i2p/go&#45;i2p/lib/transport.TransportMuxer).AcceptWithTimeout$1]">
<path fill="none" stroke="#000000" d="M163.1559,-772C178.9101,-772 195.9407,-772 212.6704,-772"/>
<polygon fill="#000000" stroke="#000000" points="225.9574,-775.5 235.9574,-772 225.9573,-768.5 225.9574,-775.5"/>
<polyline fill="none" stroke="#000000" points="225.9574,-772 220.9574,-772.0001 "/>
<ellipse fill="none" stroke="#000000" cx="216.9574" cy="-772.0001" rx="4" ry="4"/>
</a>
</g>
</g>
<!-- (*github.com/go&#45;i2p/go&#45;i2p/lib/transport.TransportMuxer).AcceptWithTimeout&#45;&gt;(*github.com/go&#45;i2p/logger.Logger).WithField -->
<g id="edge3" class="edge">
<title>(*github.com/go&#45;i2p/go&#45;i2p/lib/transport.TransportMuxer).AcceptWithTimeout&#45;&gt;(*github.com/go&#45;i2p/logger.Logger).WithField</title>
<g id="a_edge3"><a xlink:title="at multi.go:124: calling [(*github.com/go&#45;i2p/logger.Logger).WithField]">
<path fill="none" stroke="#8b4513" d="M149.9148,-753.9204C154.8847,-750.583 159.4103,-746.6444 163.0758,-742 222.3317,-666.9201 184.7584,-624.412 200.0758,-530 208.7125,-476.7661 202.6949,-332.3575 236.0758,-290 242.9377,-281.2928 252.6376,-275.0174 262.8349,-270.499"/>
<polygon fill="#8b4513" stroke="#8b4513" points="264.224,-273.7142 272.2725,-266.8242 261.6841,-267.1913 264.224,-273.7142"/>
</a>
</g>
</g>
<!-- (*github.com/go&#45;i2p/logger.Logger).WithError -->
<g id="node13" class="node">
<title>(*github.com/go&#45;i2p/logger.Logger).WithError</title>
<g id="a_node13"><a xlink:title="(*github.com/go&#45;i2p/logger.Logger).WithError | defined in log.go:72">
<path fill="#ffe4b5" stroke="#000000" stroke-width="1.5" d="M341.1452,-399C341.1452,-399 284.0822,-399 284.0822,-399 278.0822,-399 272.0822,-393 272.0822,-387 272.0822,-387 272.0822,-375 272.0822,-375 272.0822,-369 278.0822,-363 284.0822,-363 284.0822,-363 341.1452,-363 341.1452,-363 347.1452,-363 353.1452,-369 353.1452,-375 353.1452,-375 353.1452,-387 353.1452,-387 353.1452,-393 347.1452,-399 341.1452,-399"/>
<text text-anchor="middle" x="312.6137" y="-385.2" font-family="Verdana" font-size="14.00" fill="#000000">logger</text>
<text text-anchor="middle" x="312.6137" y="-368.4" font-family="Verdana" font-size="14.00" fill="#000000">WithError</text>
</a>
</g>
</g>
<!-- (*github.com/go&#45;i2p/go&#45;i2p/lib/transport.TransportMuxer).AcceptWithTimeout&#45;&gt;(*github.com/go&#45;i2p/logger.Logger).WithError -->
<g id="edge26" class="edge">
<title>(*github.com/go&#45;i2p/go&#45;i2p/lib/transport.TransportMuxer).AcceptWithTimeout&#45;&gt;(*github.com/go&#45;i2p/logger.Logger).WithError</title>
<g id="a_edge26"><a xlink:title="at multi.go:153: calling [(*github.com/go&#45;i2p/logger.Logger).WithError]">
<path fill="none" stroke="#8b4513" d="M149.3695,-753.9697C154.5098,-750.6177 159.2231,-746.6623 163.0758,-742 210.9186,-684.1035 187.5858,-469.3555 236.0758,-412 243.0199,-403.7864 252.4673,-397.7245 262.3544,-393.2586"/>
<polygon fill="#8b4513" stroke="#8b4513" points="263.9113,-396.4057 271.9011,-389.4478 261.3161,-389.9045 263.9113,-396.4057"/>
</a>
</g>
</g>
<!-- (*github.com/go&#45;i2p/go&#45;i2p/lib/transport.TransportMuxer).AcceptWithTimeout&#45;&gt;(*github.com/sirupsen/logrus.Logger).Debug -->
<g id="edge25" class="edge">
<title>(*github.com/go&#45;i2p/go&#45;i2p/lib/transport.TransportMuxer).AcceptWithTimeout&#45;&gt;(*github.com/sirupsen/logrus.Logger).Debug</title>
<g id="a_edge25"><a xlink:title="at multi.go:124: calling [(*github.com/sirupsen/logrus.Logger).Debug]&#10;at multi.go:153: calling [(*github.com/sirupsen/logrus.Logger).Debug]&#10;at multi.go:155: calling [(*github.com/sirupsen/logrus.Logger).Debug]&#10;at multi.go:159: calling [(*github.com/sirupsen/logrus.Logger).Debug]">
<path fill="none" stroke="#8b4513" d="M150.4274,-753.8378C155.2319,-750.5209 159.5802,-746.6096 163.0758,-742 199.7266,-693.6693 198.0724,-248.2745 236.0758,-201 244.9061,-190.0154 258.4524,-183.3399 271.7078,-179.2831"/>
<polygon fill="#8b4513" stroke="#8b4513" points="272.9186,-182.5841 281.7047,-176.6634 271.144,-175.8128 272.9186,-182.5841"/>
</a>
</g>
</g>
<!-- (*github.com/go&#45;i2p/go&#45;i2p/lib/transport.TransportMuxer).Compatible -->
<g id="node7" class="node">
<title>(*github.com/go&#45;i2p/go&#45;i2p/lib/transport.TransportMuxer).Compatible</title>
<g id="a_node7"><a xlink:title="(*github.com/go&#45;i2p/go&#45;i2p/lib/transport.TransportMuxer).Compatible | defined in multi.go:104&#10;at multi.go:105: calling [(github.com/go&#45;i2p/common/router_info.RouterInfo).String]&#10;at multi.go:105: calling [(*github.com/go&#45;i2p/logger.Logger).WithField]&#10;at multi.go:108: calling [(*github.com/go&#45;i2p/logger.Logger).WithField]&#10;at multi.go:105: calling [(*github.com/sirupsen/logrus.Logger).Debug]&#10;at multi.go:113: calling [(*github.com/sirupsen/logrus.Logger).Debug]&#10;at multi.go:108: calling [(*github.com/sirupsen/logrus.Logger).Debug]">
<path fill="#add8e6" stroke="#000000" stroke-width="1.5" d="M126.3667,-607C126.3667,-607 60.7091,-607 60.7091,-607 54.7091,-607 48.7091,-601 48.7091,-595 48.7091,-595 48.7091,-583 48.7091,-583 48.7091,-577 54.7091,-571 60.7091,-571 60.7091,-571 126.3667,-571 126.3667,-571 132.3667,-571 138.3667,-577 138.3667,-583 138.3667,-583 138.3667,-595 138.3667,-595 138.3667,-601 132.3667,-607 126.3667,-607"/>
<text text-anchor="middle" x="93.5379" y="-584.8" font-family="Verdana" font-size="14.00" fill="#000000">Compatible</text>
</a>
</g>
</g>
<!-- (*github.com/go&#45;i2p/go&#45;i2p/lib/transport.TransportMuxer).Compatible&#45;&gt;(*github.com/go&#45;i2p/logger.Logger).WithField -->
<g id="edge11" class="edge">
<title>(*github.com/go&#45;i2p/go&#45;i2p/lib/transport.TransportMuxer).Compatible&#45;&gt;(*github.com/go&#45;i2p/logger.Logger).WithField</title>
<g id="a_edge11"><a xlink:title="at multi.go:105: calling [(*github.com/go&#45;i2p/logger.Logger).WithField]&#10;at multi.go:108: calling [(*github.com/go&#45;i2p/logger.Logger).WithField]">
<path fill="none" stroke="#8b4513" d="M138.4218,-577.3291C147.7789,-572.9754 156.718,-567.047 163.0758,-559 239.874,-461.7981 142.594,-371.2855 236.0758,-290 243.784,-283.2975 253.1303,-277.9245 262.6057,-273.6603"/>
<polygon fill="#8b4513" stroke="#8b4513" points="264.1584,-276.806 272.0684,-269.7574 261.4893,-270.3348 264.1584,-276.806"/>
</a>
</g>
</g>
<!-- (*github.com/go&#45;i2p/go&#45;i2p/lib/transport.TransportMuxer).Compatible&#45;&gt;(*github.com/sirupsen/logrus.Logger).Debug -->
<g id="edge27" class="edge">
<title>(*github.com/go&#45;i2p/go&#45;i2p/lib/transport.TransportMuxer).Compatible&#45;&gt;(*github.com/sirupsen/logrus.Logger).Debug</title>
<g id="a_edge27"><a xlink:title="at multi.go:105: calling [(*github.com/sirupsen/logrus.Logger).Debug]&#10;at multi.go:113: calling [(*github.com/sirupsen/logrus.Logger).Debug]&#10;at multi.go:108: calling [(*github.com/sirupsen/logrus.Logger).Debug]">
<path fill="none" stroke="#8b4513" d="M138.272,-577.6589C147.752,-573.2843 156.7831,-567.2639 163.0758,-559 233.4838,-466.5376 170.561,-412.6653 199.0758,-300 210.6008,-254.4633 202.7459,-234.0989 236.0758,-201 245.8362,-191.3072 259.2216,-184.9382 272.071,-180.7664"/>
<polygon fill="#8b4513" stroke="#8b4513" points="273.0832,-184.1172 281.7236,-177.9858 271.1455,-177.3907 273.0832,-184.1172"/>
</a>
</g>
</g>
<!-- (github.com/go&#45;i2p/common/router_info.RouterInfo).String -->
<g id="node17" class="node">
<title>(github.com/go&#45;i2p/common/router_info.RouterInfo).String</title>
<g id="a_node17"><a xlink:title="(github.com/go&#45;i2p/common/router_info.RouterInfo).String | defined in router_info_struct.go:293">
<path fill="#ffe4b5" stroke="#000000" stroke-width="1.5" d="M344.0913,-937C344.0913,-937 281.1361,-937 281.1361,-937 275.1361,-937 269.1361,-931 269.1361,-925 269.1361,-925 269.1361,-913 269.1361,-913 269.1361,-907 275.1361,-901 281.1361,-901 281.1361,-901 344.0913,-901 344.0913,-901 350.0913,-901 356.0913,-907 356.0913,-913 356.0913,-913 356.0913,-925 356.0913,-925 356.0913,-931 350.0913,-937 344.0913,-937"/>
<text text-anchor="middle" x="312.6137" y="-923.2" font-family="Verdana" font-size="14.00" fill="#000000">router_info</text>
<text text-anchor="middle" x="312.6137" y="-906.4" font-family="Verdana" font-size="14.00" fill="#000000">String</text>
</a>
</g>
</g>
<!-- (*github.com/go&#45;i2p/go&#45;i2p/lib/transport.TransportMuxer).Compatible&#45;&gt;(github.com/go&#45;i2p/common/router_info.RouterInfo).String -->
<g id="edge5" class="edge">
<title>(*github.com/go&#45;i2p/go&#45;i2p/lib/transport.TransportMuxer).Compatible&#45;&gt;(github.com/go&#45;i2p/common/router_info.RouterInfo).String</title>
<g id="a_edge5"><a xlink:title="at multi.go:105: calling [(github.com/go&#45;i2p/common/router_info.RouterInfo).String]">
<path fill="none" stroke="#8b4513" d="M138.4986,-602.2295C147.6268,-606.6521 156.448,-612.4511 163.0758,-620 238.0386,-705.3816 169.7839,-772.7242 236.0758,-865 244.5507,-876.7967 256.4291,-886.9353 268.3044,-895.1367"/>
<polygon fill="#8b4513" stroke="#8b4513" points="266.6178,-898.2158 276.9021,-900.7622 270.4505,-892.3582 266.6178,-898.2158"/>
</a>
</g>
</g>
<!-- (*github.com/go&#45;i2p/go&#45;i2p/lib/transport.TransportMuxer).Name -->
<g id="node8" class="node">
<title>(*github.com/go&#45;i2p/go&#45;i2p/lib/transport.TransportMuxer).Name</title>
<g id="a_node8"><a xlink:title="(*github.com/go&#45;i2p/go&#45;i2p/lib/transport.TransportMuxer).Name | defined in multi.go:63&#10;at multi.go:64: calling [(*github.com/sirupsen/logrus.Logger).Debug]&#10;at multi.go:71: calling [(*github.com/sirupsen/logrus.Logger).Debug]&#10;at multi.go:71: calling [(*github.com/go&#45;i2p/logger.Logger).WithField]">
<path fill="#add8e6" stroke="#000000" stroke-width="1.5" d="M110.4659,-546C110.4659,-546 76.6099,-546 76.6099,-546 70.6099,-546 64.6099,-540 64.6099,-534 64.6099,-534 64.6099,-522 64.6099,-522 64.6099,-516 70.6099,-510 76.6099,-510 76.6099,-510 110.4659,-510 110.4659,-510 116.4659,-510 122.4659,-516 122.4659,-522 122.4659,-522 122.4659,-534 122.4659,-534 122.4659,-540 116.4659,-546 110.4659,-546"/>
<text text-anchor="middle" x="93.5379" y="-523.8" font-family="Verdana" font-size="14.00" fill="#000000">Name</text>
</a>
</g>
</g>
<!-- (*github.com/go&#45;i2p/go&#45;i2p/lib/transport.TransportMuxer).Name&#45;&gt;(*github.com/go&#45;i2p/logger.Logger).WithField -->
<g id="edge19" class="edge">
<title>(*github.com/go&#45;i2p/go&#45;i2p/lib/transport.TransportMuxer).Name&#45;&gt;(*github.com/go&#45;i2p/logger.Logger).WithField</title>
<g id="a_edge19"><a xlink:title="at multi.go:71: calling [(*github.com/go&#45;i2p/logger.Logger).WithField]">
<path fill="none" stroke="#8b4513" d="M122.2686,-525.677C136.481,-523.0321 152.7575,-517.4968 163.0758,-506 217.2776,-445.6075 160.7468,-398.526 199.0758,-327 212.345,-302.2382 238.8389,-285.6177 262.898,-275.0103"/>
<polygon fill="#8b4513" stroke="#8b4513" points="264.4215,-278.1675 272.3137,-271.099 261.7361,-271.703 264.4215,-278.1675"/>
</a>
</g>
</g>
<!-- (*github.com/go&#45;i2p/go&#45;i2p/lib/transport.TransportMuxer).Name&#45;&gt;(*github.com/sirupsen/logrus.Logger).Debug -->
<g id="edge12" class="edge">
<title>(*github.com/go&#45;i2p/go&#45;i2p/lib/transport.TransportMuxer).Name&#45;&gt;(*github.com/sirupsen/logrus.Logger).Debug</title>
<g id="a_edge12"><a xlink:title="at multi.go:64: calling [(*github.com/sirupsen/logrus.Logger).Debug]&#10;at multi.go:71: calling [(*github.com/sirupsen/logrus.Logger).Debug]">
<path fill="none" stroke="#8b4513" d="M122.5601,-525.9308C136.8523,-523.3553 153.1122,-517.8055 163.0758,-506 238.3169,-416.8492 152.2684,-352.8558 199.0758,-246 209.4648,-222.2832 214.9526,-215.9744 236.0758,-201 246.8233,-193.381 259.8776,-187.6002 272.139,-183.3284"/>
<polygon fill="#8b4513" stroke="#8b4513" points="273.307,-186.6292 281.7432,-180.2197 271.1513,-179.9694 273.307,-186.6292"/>
</a>
</g>
</g>
<!-- (*github.com/go&#45;i2p/go&#45;i2p/lib/transport.TransportMuxer).GetSession -->
<g id="node9" class="node">
<title>(*github.com/go&#45;i2p/go&#45;i2p/lib/transport.TransportMuxer).GetSession</title>
<g id="a_node9"><a xlink:title="(*github.com/go&#45;i2p/go&#45;i2p/lib/transport.TransportMuxer).GetSession | defined in multi.go:78&#10;at multi.go:87: calling [(*github.com/go&#45;i2p/logger.Logger).Warn]&#10;at multi.go:79: calling [(*github.com/sirupsen/logrus.Logger).Debug]&#10;at multi.go:83: calling [(*github.com/sirupsen/logrus.Logger).Debug]&#10;at multi.go:93: calling [(*github.com/sirupsen/logrus.Logger).Debug]&#10;at multi.go:97: calling [(*github.com/go&#45;i2p/logger.Logger).Error]&#10;at multi.go:79: calling [(*github.com/go&#45;i2p/logger.Logger).WithField]&#10;at multi.go:83: calling [(*github.com/go&#45;i2p/logger.Logger).WithField]&#10;at multi.go:87: calling [(*github.com/go&#45;i2p/logger.Logger).WithField]&#10;at multi.go:93: calling [(*github.com/go&#45;i2p/logger.Logger).WithField]&#10;at multi.go:79: calling [(github.com/go&#45;i2p/common/router_info.RouterInfo).String]&#10;at multi.go:87: calling [(*github.com/go&#45;i2p/logger.Logger).WithError]">
<path fill="#add8e6" stroke="#000000" stroke-width="1.5" d="M125.0267,-851C125.0267,-851 62.0491,-851 62.0491,-851 56.0491,-851 50.0491,-845 50.0491,-839 50.0491,-839 50.0491,-827 50.0491,-827 50.0491,-821 56.0491,-815 62.0491,-815 62.0491,-815 125.0267,-815 125.0267,-815 131.0267,-815 137.0267,-821 137.0267,-827 137.0267,-827 137.0267,-839 137.0267,-839 137.0267,-845 131.0267,-851 125.0267,-851"/>
<text text-anchor="middle" x="93.5379" y="-828.8" font-family="Verdana" font-size="14.00" fill="#000000">GetSession</text>
</a>
</g>
</g>
<!-- (*github.com/go&#45;i2p/go&#45;i2p/lib/transport.TransportMuxer).GetSession&#45;&gt;(*github.com/go&#45;i2p/logger.Logger).WithField -->
<g id="edge13" class="edge">
<title>(*github.com/go&#45;i2p/go&#45;i2p/lib/transport.TransportMuxer).GetSession&#45;&gt;(*github.com/go&#45;i2p/logger.Logger).WithField</title>
<g id="a_edge13"><a xlink:title="at multi.go:79: calling [(*github.com/go&#45;i2p/logger.Logger).WithField]&#10;at multi.go:83: calling [(*github.com/go&#45;i2p/logger.Logger).WithField]&#10;at multi.go:87: calling [(*github.com/go&#45;i2p/logger.Logger).WithField]&#10;at multi.go:93: calling [(*github.com/go&#45;i2p/logger.Logger).WithField]">
<path fill="none" stroke="#8b4513" d="M137.2439,-821.7476C146.9933,-817.3532 156.4046,-811.3016 163.0758,-803 217.5129,-735.2593 187.0007,-696.9141 200.0758,-611 210.8756,-540.0366 192.7025,-347.1944 236.0758,-290 242.7745,-281.1667 252.4099,-274.8413 262.5965,-270.3147"/>
<polygon fill="#8b4513" stroke="#8b4513" points="263.9867,-273.5295 272.0382,-266.643 261.4495,-267.0055 263.9867,-273.5295"/>
</a>
</g>
</g>
<!-- (*github.com/go&#45;i2p/go&#45;i2p/lib/transport.TransportMuxer).GetSession&#45;&gt;(*github.com/go&#45;i2p/logger.Logger).WithError -->
<g id="edge21" class="edge">
<title>(*github.com/go&#45;i2p/go&#45;i2p/lib/transport.TransportMuxer).GetSession&#45;&gt;(*github.com/go&#45;i2p/logger.Logger).WithError</title>
<g id="a_edge21"><a xlink:title="at multi.go:87: calling [(*github.com/go&#45;i2p/logger.Logger).WithError]">
<path fill="none" stroke="#8b4513" d="M137.1948,-821.2423C146.8277,-816.8721 156.1978,-810.9581 163.0758,-803 204.5982,-754.9574 187.3578,-727.2129 200.0758,-665 211.4497,-609.3621 201.0941,-456.735 236.0758,-412 242.8372,-403.3535 252.4002,-397.106 262.4842,-392.5961"/>
<polygon fill="#8b4513" stroke="#8b4513" points="263.7998,-395.8397 271.8261,-388.9238 261.2389,-389.325 263.7998,-395.8397"/>
</a>
</g>
</g>
<!-- (*github.com/go&#45;i2p/logger.Logger).Error -->
<g id="node14" class="node">
<title>(*github.com/go&#45;i2p/logger.Logger).Error</title>
<g id="a_node14"><a xlink:title="(*github.com/go&#45;i2p/logger.Logger).Error | defined in log.go:48">
<path fill="#ffe4b5" stroke="#000000" stroke-width="1.5" d="M330.38,-338C330.38,-338 294.8474,-338 294.8474,-338 288.8474,-338 282.8474,-332 282.8474,-326 282.8474,-326 282.8474,-314 282.8474,-314 282.8474,-308 288.8474,-302 294.8474,-302 294.8474,-302 330.38,-302 330.38,-302 336.38,-302 342.38,-308 342.38,-314 342.38,-314 342.38,-326 342.38,-326 342.38,-332 336.38,-338 330.38,-338"/>
<text text-anchor="middle" x="312.6137" y="-324.2" font-family="Verdana" font-size="14.00" fill="#000000">logger</text>
<text text-anchor="middle" x="312.6137" y="-307.4" font-family="Verdana" font-size="14.00" fill="#000000">Error</text>
</a>
</g>
</g>
<!-- (*github.com/go&#45;i2p/go&#45;i2p/lib/transport.TransportMuxer).GetSession&#45;&gt;(*github.com/go&#45;i2p/logger.Logger).Error -->
<g id="edge7" class="edge">
<title>(*github.com/go&#45;i2p/go&#45;i2p/lib/transport.TransportMuxer).GetSession&#45;&gt;(*github.com/go&#45;i2p/logger.Logger).Error</title>
<g id="a_edge7"><a xlink:title="at multi.go:97: calling [(*github.com/go&#45;i2p/logger.Logger).Error]">
<path fill="none" stroke="#8b4513" d="M137.0691,-821.605C146.8229,-817.2141 156.2799,-811.1999 163.0758,-803 211.033,-745.1355 187.1619,-712.0367 200.0758,-638 211.1207,-574.6785 196.9015,-401.9606 236.0758,-351 245.0753,-339.2928 259.223,-331.988 272.9194,-327.4381"/>
<polygon fill="#8b4513" stroke="#8b4513" points="274.1054,-330.7384 282.7326,-324.5885 272.1533,-324.0161 274.1054,-330.7384"/>
</a>
</g>
</g>
<!-- (*github.com/go&#45;i2p/logger.Logger).Warn -->
<g id="node15" class="node">
<title>(*github.com/go&#45;i2p/logger.Logger).Warn</title>
<g id="a_node15"><a xlink:title="(*github.com/go&#45;i2p/logger.Logger).Warn | defined in log.go:36">
<path fill="#ffe4b5" stroke="#000000" stroke-width="1.5" d="M330.38,-460C330.38,-460 294.8474,-460 294.8474,-460 288.8474,-460 282.8474,-454 282.8474,-448 282.8474,-448 282.8474,-436 282.8474,-436 282.8474,-430 288.8474,-424 294.8474,-424 294.8474,-424 330.38,-424 330.38,-424 336.38,-424 342.38,-430 342.38,-436 342.38,-436 342.38,-448 342.38,-448 342.38,-454 336.38,-460 330.38,-460"/>
<text text-anchor="middle" x="312.6137" y="-446.2" font-family="Verdana" font-size="14.00" fill="#000000">logger</text>
<text text-anchor="middle" x="312.6137" y="-429.4" font-family="Verdana" font-size="14.00" fill="#000000">Warn</text>
</a>
</g>
</g>
<!-- (*github.com/go&#45;i2p/go&#45;i2p/lib/transport.TransportMuxer).GetSession&#45;&gt;(*github.com/go&#45;i2p/logger.Logger).Warn -->
<g id="edge2" class="edge">
<title>(*github.com/go&#45;i2p/go&#45;i2p/lib/transport.TransportMuxer).GetSession&#45;&gt;(*github.com/go&#45;i2p/logger.Logger).Warn</title>
<g id="a_edge2"><a xlink:title="at multi.go:87: calling [(*github.com/go&#45;i2p/logger.Logger).Warn]">
<path fill="none" stroke="#8b4513" d="M137.0966,-821.6278C146.8497,-817.2363 156.2995,-811.2161 163.0758,-803 211.2778,-744.5558 186.2397,-527.0572 236.0758,-470 245.4214,-459.3002 259.21,-452.6863 272.5187,-448.5993"/>
<polygon fill="#8b4513" stroke="#8b4513" points="273.7556,-451.8921 282.5208,-445.9405 271.9573,-445.127 273.7556,-451.8921"/>
</a>
</g>
</g>
<!-- (*github.com/go&#45;i2p/go&#45;i2p/lib/transport.TransportMuxer).GetSession&#45;&gt;(*github.com/sirupsen/logrus.Logger).Debug -->
<g id="edge6" class="edge">
<title>(*github.com/go&#45;i2p/go&#45;i2p/lib/transport.TransportMuxer).GetSession&#45;&gt;(*github.com/sirupsen/logrus.Logger).Debug</title>
<g id="a_edge6"><a xlink:title="at multi.go:79: calling [(*github.com/sirupsen/logrus.Logger).Debug]&#10;at multi.go:83: calling [(*github.com/sirupsen/logrus.Logger).Debug]&#10;at multi.go:93: calling [(*github.com/sirupsen/logrus.Logger).Debug]">
<path fill="none" stroke="#8b4513" d="M137.2941,-822.2287C147.1642,-817.8153 156.6191,-811.6343 163.0758,-803 203.4269,-749.0398 194.2144,-253.7971 236.0758,-201 244.8321,-189.9563 258.3619,-183.2676 271.6249,-179.2169"/>
<polygon fill="#8b4513" stroke="#8b4513" points="272.8397,-182.5172 281.6316,-176.6051 271.0718,-175.7441 272.8397,-182.5172"/>
</a>
</g>
</g>
<!-- (*github.com/go&#45;i2p/go&#45;i2p/lib/transport.TransportMuxer).GetSession&#45;&gt;(github.com/go&#45;i2p/common/router_info.RouterInfo).String -->
<g id="edge20" class="edge">
<title>(*github.com/go&#45;i2p/go&#45;i2p/lib/transport.TransportMuxer).GetSession&#45;&gt;(github.com/go&#45;i2p/common/router_info.RouterInfo).String</title>
<g id="a_edge20"><a xlink:title="at multi.go:79: calling [(github.com/go&#45;i2p/common/router_info.RouterInfo).String]">
<path fill="none" stroke="#8b4513" d="M137.0822,-850.0937C172.1336,-863.8534 221.5586,-883.2556 259.0353,-897.9674"/>
<polygon fill="#8b4513" stroke="#8b4513" points="258.1898,-901.3954 268.7772,-901.7916 260.7477,-894.8795 258.1898,-901.3954"/>
</a>
</g>
</g>
<!-- (*github.com/go&#45;i2p/go&#45;i2p/lib/transport.TransportMuxer).SetIdentity -->
<g id="node10" class="node">
<title>(*github.com/go&#45;i2p/go&#45;i2p/lib/transport.TransportMuxer).SetIdentity</title>
<g id="a_node10"><a xlink:title="(*github.com/go&#45;i2p/go&#45;i2p/lib/transport.TransportMuxer).SetIdentity | defined in multi.go:31&#10;at multi.go:36: calling [(*github.com/go&#45;i2p/logger.Logger).WithError]&#10;at multi.go:36: calling [(*github.com/go&#45;i2p/logger.Logger).Error]&#10;at multi.go:32: calling [(*github.com/go&#45;i2p/logger.Logger).WithField]&#10;at multi.go:36: calling [(*github.com/go&#45;i2p/logger.Logger).WithField]&#10;at multi.go:40: calling [(*github.com/go&#45;i2p/logger.Logger).WithField]&#10;at multi.go:32: calling [(*github.com/sirupsen/logrus.Logger).Debug]&#10;at multi.go:42: calling [(*github.com/sirupsen/logrus.Logger).Debug]&#10;at multi.go:40: calling [(*github.com/sirupsen/logrus.Logger).Debug]">
<path fill="#add8e6" stroke="#000000" stroke-width="1.5" d="M124.4738,-668C124.4738,-668 62.602,-668 62.602,-668 56.602,-668 50.602,-662 50.602,-656 50.602,-656 50.602,-644 50.602,-644 50.602,-638 56.602,-632 62.602,-632 62.602,-632 124.4738,-632 124.4738,-632 130.4738,-632 136.4738,-638 136.4738,-644 136.4738,-644 136.4738,-656 136.4738,-656 136.4738,-662 130.4738,-668 124.4738,-668"/>
<text text-anchor="middle" x="93.5379" y="-645.8" font-family="Verdana" font-size="14.00" fill="#000000">SetIdentity</text>
</a>
</g>
</g>
<!-- (*github.com/go&#45;i2p/go&#45;i2p/lib/transport.TransportMuxer).SetIdentity&#45;&gt;(*github.com/go&#45;i2p/logger.Logger).WithField -->
<g id="edge14" class="edge">
<title>(*github.com/go&#45;i2p/go&#45;i2p/lib/transport.TransportMuxer).SetIdentity&#45;&gt;(*github.com/go&#45;i2p/logger.Logger).WithField</title>
<g id="a_edge14"><a xlink:title="at multi.go:32: calling [(*github.com/go&#45;i2p/logger.Logger).WithField]&#10;at multi.go:36: calling [(*github.com/go&#45;i2p/logger.Logger).WithField]&#10;at multi.go:40: calling [(*github.com/go&#45;i2p/logger.Logger).WithField]">
<path fill="none" stroke="#8b4513" d="M136.3627,-638.941C146.3706,-634.5234 156.1242,-628.4124 163.0758,-620 210.9186,-562.1035 187.5858,-347.3555 236.0758,-290 243.1623,-281.6179 252.8559,-275.4767 262.9634,-270.9858"/>
<polygon fill="#8b4513" stroke="#8b4513" points="264.2777,-274.2299 272.2992,-267.3085 261.7122,-267.7169 264.2777,-274.2299"/>
</a>
</g>
</g>
<!-- (*github.com/go&#45;i2p/go&#45;i2p/lib/transport.TransportMuxer).SetIdentity&#45;&gt;(*github.com/go&#45;i2p/logger.Logger).WithError -->
<g id="edge8" class="edge">
<title>(*github.com/go&#45;i2p/go&#45;i2p/lib/transport.TransportMuxer).SetIdentity&#45;&gt;(*github.com/go&#45;i2p/logger.Logger).WithError</title>
<g id="a_edge8"><a xlink:title="at multi.go:36: calling [(*github.com/go&#45;i2p/logger.Logger).WithError]">
<path fill="none" stroke="#8b4513" d="M136.4367,-638.5367C146.3231,-634.1366 156.0004,-628.135 163.0758,-620 227.3708,-546.0759 164.6476,-479.0569 236.0758,-412 243.6797,-404.8614 253.1429,-399.2766 262.7946,-394.939"/>
<polygon fill="#8b4513" stroke="#8b4513" points="264.1211,-398.178 272.0515,-391.1524 261.4708,-391.6991 264.1211,-398.178"/>
</a>
</g>
</g>
<!-- (*github.com/go&#45;i2p/go&#45;i2p/lib/transport.TransportMuxer).SetIdentity&#45;&gt;(*github.com/go&#45;i2p/logger.Logger).Error -->
<g id="edge9" class="edge">
<title>(*github.com/go&#45;i2p/go&#45;i2p/lib/transport.TransportMuxer).SetIdentity&#45;&gt;(*github.com/go&#45;i2p/logger.Logger).Error</title>
<g id="a_edge9"><a xlink:title="at multi.go:36: calling [(*github.com/go&#45;i2p/logger.Logger).Error]">
<path fill="none" stroke="#8b4513" d="M136.5865,-638.6653C146.4701,-634.2627 156.1086,-628.2278 163.0758,-620 206.2645,-568.997 181.4443,-538.4647 199.0758,-474 214.1362,-418.936 197.6218,-393.1918 236.0758,-351 245.6952,-340.4456 259.4165,-333.4112 272.5912,-328.7556"/>
<polygon fill="#8b4513" stroke="#8b4513" points="273.9959,-331.9827 282.4825,-325.6401 271.893,-325.3061 273.9959,-331.9827"/>
</a>
</g>
</g>
<!-- (*github.com/go&#45;i2p/go&#45;i2p/lib/transport.TransportMuxer).SetIdentity&#45;&gt;(*github.com/sirupsen/logrus.Logger).Debug -->
<g id="edge15" class="edge">
<title>(*github.com/go&#45;i2p/go&#45;i2p/lib/transport.TransportMuxer).SetIdentity&#45;&gt;(*github.com/sirupsen/logrus.Logger).Debug</title>
<g id="a_edge15"><a xlink:title="at multi.go:32: calling [(*github.com/sirupsen/logrus.Logger).Debug]&#10;at multi.go:42: calling [(*github.com/sirupsen/logrus.Logger).Debug]&#10;at multi.go:40: calling [(*github.com/sirupsen/logrus.Logger).Debug]">
<path fill="none" stroke="#8b4513" d="M136.2639,-639.3124C146.3962,-634.8811 156.2347,-628.6706 163.0758,-620 221.619,-545.8007 175.457,-273.5134 236.0758,-201 245.1152,-190.1868 258.7079,-183.5493 271.9419,-179.475"/>
<polygon fill="#8b4513" stroke="#8b4513" points="273.1415,-182.778 281.9108,-176.8324 271.3478,-176.0117 273.1415,-182.778"/>
</a>
</g>
</g>
<!-- (*github.com/go&#45;i2p/go&#45;i2p/lib/transport.TransportMuxer).Close -->
<g id="node11" class="node">
<title>(*github.com/go&#45;i2p/go&#45;i2p/lib/transport.TransportMuxer).Close</title>
<g id="a_node11"><a xlink:title="(*github.com/go&#45;i2p/go&#45;i2p/lib/transport.TransportMuxer).Close | defined in multi.go:47&#10;at multi.go:53: calling [(*github.com/go&#45;i2p/logger.Logger).WithError]&#10;at multi.go:53: calling [(*github.com/go&#45;i2p/logger.Logger).WithField]&#10;at multi.go:55: calling [(*github.com/go&#45;i2p/logger.Logger).WithField]&#10;at multi.go:53: calling [(*github.com/go&#45;i2p/logger.Logger).Warn]&#10;at multi.go:48: calling [(*github.com/sirupsen/logrus.Logger).Debug]&#10;at multi.go:58: calling [(*github.com/sirupsen/logrus.Logger).Debug]&#10;at multi.go:55: calling [(*github.com/sirupsen/logrus.Logger).Debug]">
<path fill="#add8e6" stroke="#000000" stroke-width="1.5" d="M109.4244,-729C109.4244,-729 77.6514,-729 77.6514,-729 71.6514,-729 65.6514,-723 65.6514,-717 65.6514,-717 65.6514,-705 65.6514,-705 65.6514,-699 71.6514,-693 77.6514,-693 77.6514,-693 109.4244,-693 109.4244,-693 115.4244,-693 121.4244,-699 121.4244,-705 121.4244,-705 121.4244,-717 121.4244,-717 121.4244,-723 115.4244,-729 109.4244,-729"/>
<text text-anchor="middle" x="93.5379" y="-706.8" font-family="Verdana" font-size="14.00" fill="#000000">Close</text>
</a>
</g>
</g>
<!-- (*github.com/go&#45;i2p/go&#45;i2p/lib/transport.TransportMuxer).Close&#45;&gt;(*github.com/go&#45;i2p/logger.Logger).WithField -->
<g id="edge16" class="edge">
<title>(*github.com/go&#45;i2p/go&#45;i2p/lib/transport.TransportMuxer).Close&#45;&gt;(*github.com/go&#45;i2p/logger.Logger).WithField</title>
<g id="a_edge16"><a xlink:title="at multi.go:53: calling [(*github.com/go&#45;i2p/logger.Logger).WithField]&#10;at multi.go:55: calling [(*github.com/go&#45;i2p/logger.Logger).WithField]">
<path fill="none" stroke="#8b4513" d="M121.4707,-705.5602C135.9983,-701.2944 152.8179,-693.8409 163.0758,-681 218.2443,-611.94 180.1352,-358.436 236.0758,-290 243.0225,-281.5016 252.6599,-275.3137 262.7573,-270.8145"/>
<polygon fill="#8b4513" stroke="#8b4513" points="264.0722,-274.0584 272.0957,-267.1394 261.5087,-267.5446 264.0722,-274.0584"/>
</a>
</g>
</g>
<!-- (*github.com/go&#45;i2p/go&#45;i2p/lib/transport.TransportMuxer).Close&#45;&gt;(*github.com/go&#45;i2p/logger.Logger).WithError -->
<g id="edge10" class="edge">
<title>(*github.com/go&#45;i2p/go&#45;i2p/lib/transport.TransportMuxer).Close&#45;&gt;(*github.com/go&#45;i2p/logger.Logger).WithError</title>
<g id="a_edge10"><a xlink:title="at multi.go:53: calling [(*github.com/go&#45;i2p/logger.Logger).WithError]">
<path fill="none" stroke="#8b4513" d="M121.765,-705.0161C136.0156,-700.6223 152.4822,-693.2195 163.0758,-681 203.6494,-634.1991 194.9791,-458.3423 236.0758,-412 243.14,-404.0341 252.5469,-398.0811 262.3426,-393.6436"/>
<polygon fill="#8b4513" stroke="#8b4513" points="263.8225,-396.8208 271.7898,-389.8371 261.2064,-390.328 263.8225,-396.8208"/>
</a>
</g>
</g>
<!-- (*github.com/go&#45;i2p/go&#45;i2p/lib/transport.TransportMuxer).Close&#45;&gt;(*github.com/go&#45;i2p/logger.Logger).Warn -->
<g id="edge17" class="edge">
<title>(*github.com/go&#45;i2p/go&#45;i2p/lib/transport.TransportMuxer).Close&#45;&gt;(*github.com/go&#45;i2p/logger.Logger).Warn</title>
<g id="a_edge17"><a xlink:title="at multi.go:53: calling [(*github.com/go&#45;i2p/logger.Logger).Warn]">
<path fill="none" stroke="#8b4513" d="M121.4332,-704.7184C135.5898,-700.2403 152.0724,-692.8518 163.0758,-681 230.5917,-608.2779 166.5296,-540.783 236.0758,-470 245.9534,-459.9467 259.732,-453.4777 272.8803,-449.3258"/>
<polygon fill="#8b4513" stroke="#8b4513" points="274.0423,-452.6355 282.7371,-446.5815 272.1647,-445.892 274.0423,-452.6355"/>
</a>
</g>
</g>
<!-- (*github.com/go&#45;i2p/go&#45;i2p/lib/transport.TransportMuxer).Close&#45;&gt;(*github.com/sirupsen/logrus.Logger).Debug -->
<g id="edge22" class="edge">
<title>(*github.com/go&#45;i2p/go&#45;i2p/lib/transport.TransportMuxer).Close&#45;&gt;(*github.com/sirupsen/logrus.Logger).Debug</title>
<g id="a_edge22"><a xlink:title="at multi.go:48: calling [(*github.com/sirupsen/logrus.Logger).Debug]&#10;at multi.go:58: calling [(*github.com/sirupsen/logrus.Logger).Debug]&#10;at multi.go:55: calling [(*github.com/sirupsen/logrus.Logger).Debug]">
<path fill="none" stroke="#8b4513" d="M121.6415,-705.6943C136.2209,-701.4692 153.0353,-694.0117 163.0758,-681 196.0325,-638.2906 201.9241,-242.7599 236.0758,-201 244.9981,-190.09 258.5648,-183.431 271.8108,-179.3666"/>
<polygon fill="#8b4513" stroke="#8b4513" points="273.0166,-182.6685 281.7953,-176.7369 271.2336,-175.8993 273.0166,-182.6685"/>
</a>
</g>
</g>
</g>
</svg>
