<?xml version="1.0" encoding="UTF-8" standalone="no"?>
<!DOCTYPE svg PUBLIC "-//W3C//DTD SVG 1.1//EN"
 "http://www.w3.org/Graphics/SVG/1.1/DTD/svg11.dtd">
<!-- Generated by graphviz version 2.40.1 (20161225.0304)
 -->
<!-- Title: gocallvis Pages: 1 -->
<svg width="217pt" height="98pt"
 viewBox="0.00 0.00 217.19 98.00" xmlns="http://www.w3.org/2000/svg" xmlns:xlink="http://www.w3.org/1999/xlink">
<g id="graph0" class="graph" transform="scale(1 1) rotate(0) translate(0 98)">
<title>gocallvis</title>
<polygon fill="#d3d3d3" stroke="transparent" points="0,0 0,-98 217.195,-98 217.195,0 0,0"/>
<g id="clust1" class="cluster">
<title>cluster_focus</title>
<polygon fill="#e6ecfa" stroke="#000000" stroke-width=".5" points="8,-8 8,-90 209.195,-90 209.195,-8 8,-8"/>
<text text-anchor="middle" x="108.5975" y="-69.8" font-family="Arial" font-size="18.00" fill="#000000">types</text>
</g>
<!-- github.com/go&#45;i2p/go&#45;i2p/lib/crypto/types.init -->
<g id="node1" class="node">
<title>github.com/go&#45;i2p/go&#45;i2p/lib/crypto/types.init</title>
<g id="a_node1"><a xlink:title="github.com/go&#45;i2p/go&#45;i2p/lib/crypto/types.init | defined in .:0&#10;at sign.go:6: calling [github.com/samber/oops.Errorf]&#10;at sign.go:7: calling [github.com/samber/oops.Errorf]&#10;at sign.go:8: calling [github.com/samber/oops.Errorf]">
<path fill="#add8e6" stroke="#000000" stroke-width=".5" d="M58,-52C58,-52 28,-52 28,-52 22,-52 16,-46 16,-40 16,-40 16,-28 16,-28 16,-22 22,-16 28,-16 28,-16 58,-16 58,-16 64,-16 70,-22 70,-28 70,-28 70,-40 70,-40 70,-46 64,-52 58,-52"/>
<text text-anchor="middle" x="43" y="-29.8" font-family="Verdana" font-size="14.00" fill="#000000">init</text>
</a>
</g>
</g>
<!-- github.com/samber/oops.Errorf -->
<g id="node2" class="node">
<title>github.com/samber/oops.Errorf</title>
<g id="a_node2"><a xlink:title="github.com/samber/oops.Errorf | defined in oops.go:34">
<path fill="#ffe4b5" stroke="#000000" stroke-width="1.5" d="M189.2928,-52C189.2928,-52 154.9022,-52 154.9022,-52 148.9022,-52 142.9022,-46 142.9022,-40 142.9022,-40 142.9022,-28 142.9022,-28 142.9022,-22 148.9022,-16 154.9022,-16 154.9022,-16 189.2928,-16 189.2928,-16 195.2928,-16 201.2928,-22 201.2928,-28 201.2928,-28 201.2928,-40 201.2928,-40 201.2928,-46 195.2928,-52 189.2928,-52"/>
<text text-anchor="middle" x="172.0975" y="-38.2" font-family="Verdana" font-size="14.00" fill="#000000">oops</text>
<text text-anchor="middle" x="172.0975" y="-21.4" font-family="Verdana" font-size="14.00" fill="#000000">Errorf</text>
</a>
</g>
</g>
<!-- github.com/go&#45;i2p/go&#45;i2p/lib/crypto/types.init&#45;&gt;github.com/samber/oops.Errorf -->
<g id="edge1" class="edge">
<title>github.com/go&#45;i2p/go&#45;i2p/lib/crypto/types.init&#45;&gt;github.com/samber/oops.Errorf</title>
<g id="a_edge1"><a xlink:title="at sign.go:6: calling [github.com/samber/oops.Errorf]&#10;at sign.go:7: calling [github.com/samber/oops.Errorf]&#10;at sign.go:8: calling [github.com/samber/oops.Errorf]">
<path fill="none" stroke="#8b4513" d="M70.0631,-34C88.196,-34 112.3687,-34 132.6345,-34"/>
<polygon fill="#8b4513" stroke="#8b4513" points="132.8235,-37.5001 142.8235,-34 132.8234,-30.5001 132.8235,-37.5001"/>
</a>
</g>
</g>
</g>
</svg>
