<?xml version="1.0" encoding="UTF-8" standalone="no"?>
<!DOCTYPE svg PUBLIC "-//W3C//DTD SVG 1.1//EN"
 "http://www.w3.org/Graphics/SVG/1.1/DTD/svg11.dtd">
<!-- Generated by graphviz version 2.40.1 (20161225.0304)
 -->
<!-- Title: gocallvis Pages: 1 -->
<svg width="660pt" height="523pt"
 viewBox="0.00 0.00 659.81 523.00" xmlns="http://www.w3.org/2000/svg" xmlns:xlink="http://www.w3.org/1999/xlink">
<g id="graph0" class="graph" transform="scale(1 1) rotate(0) translate(0 523)">
<title>gocallvis</title>
<polygon fill="#d3d3d3" stroke="transparent" points="0,0 0,-523 659.8122,-523 659.8122,0 0,0"/>
<g id="clust1" class="cluster">
<title>cluster_focus</title>
<polygon fill="#e6ecfa" stroke="#000000" stroke-width=".5" points="8,-8 8,-515 651.8122,-515 651.8122,-8 8,-8"/>
<text text-anchor="middle" x="329.9061" y="-494.8" font-family="Arial" font-size="18.00" fill="#000000">util</text>
</g>
<g id="clust4" class="cluster">
<title>cluster_*github.com/sirupsen/logrus.Logger</title>
<g id="a_clust4"><a xlink:title="type: *github.com/sirupsen/logrus.Logger">
<path fill="#eed8ae" stroke="#000000" stroke-width=".5" d="M196.7083,-87C196.7083,-87 251.0295,-87 251.0295,-87 257.0295,-87 263.0295,-93 263.0295,-99 263.0295,-99 263.0295,-153 263.0295,-153 263.0295,-159 257.0295,-165 251.0295,-165 251.0295,-165 196.7083,-165 196.7083,-165 190.7083,-165 184.7083,-159 184.7083,-153 184.7083,-153 184.7083,-99 184.7083,-99 184.7083,-93 190.7083,-87 196.7083,-87"/>
<text text-anchor="middle" x="223.8689" y="-95.5" font-family="Arial" font-size="15.00" fill="#222222">(*Logger)</text>
</a>
</g>
</g>
<g id="clust3" class="cluster">
<title>cluster_*github.com/go&#45;i2p/logger.Logger</title>
<g id="a_clust3"><a xlink:title="type: *github.com/go&#45;i2p/logger.Logger">
<path fill="#eed8ae" stroke="#000000" stroke-width=".5" d="M553.5934,-46C553.5934,-46 631.8122,-46 631.8122,-46 637.8122,-46 643.8122,-52 643.8122,-58 643.8122,-58 643.8122,-234 643.8122,-234 643.8122,-240 637.8122,-246 631.8122,-246 631.8122,-246 553.5934,-246 553.5934,-246 547.5934,-246 541.5934,-240 541.5934,-234 541.5934,-234 541.5934,-58 541.5934,-58 541.5934,-52 547.5934,-46 553.5934,-46"/>
<text text-anchor="middle" x="592.7028" y="-54.5" font-family="Arial" font-size="15.00" fill="#222222">(*Logger)</text>
</a>
</g>
</g>
<g id="clust2" class="cluster">
<title>cluster_*github.com/go&#45;i2p/logger.Entry</title>
<g id="a_clust2"><a xlink:title="type: *github.com/go&#45;i2p/logger.Entry">
<path fill="#eed8ae" stroke="#000000" stroke-width=".5" d="M566.0422,-254C566.0422,-254 619.3634,-254 619.3634,-254 625.3634,-254 631.3634,-260 631.3634,-266 631.3634,-266 631.3634,-381 631.3634,-381 631.3634,-387 625.3634,-393 619.3634,-393 619.3634,-393 566.0422,-393 566.0422,-393 560.0422,-393 554.0422,-387 554.0422,-381 554.0422,-381 554.0422,-266 554.0422,-266 554.0422,-260 560.0422,-254 566.0422,-254"/>
<text text-anchor="middle" x="592.7028" y="-262.5" font-family="Arial" font-size="15.00" fill="#222222">(*Entry)</text>
</a>
</g>
</g>
<!-- github.com/go&#45;i2p/go&#45;i2p/lib/util.RegisterCloser -->
<g id="node1" class="node">
<title>github.com/go&#45;i2p/go&#45;i2p/lib/util.RegisterCloser</title>
<g id="a_node1"><a xlink:title="github.com/go&#45;i2p/go&#45;i2p/lib/util.RegisterCloser | defined in closeables.go:16&#10;at closeables.go:23: calling [(*github.com/go&#45;i2p/logger.Logger).WithField]&#10;at closeables.go:23: calling [(*github.com/go&#45;i2p/logger.Entry).Debug]">
<path fill="#add8e6" stroke="#000000" stroke-width="1.5" d="M458.4779,-140C458.4779,-140 375.0791,-140 375.0791,-140 369.0791,-140 363.0791,-134 363.0791,-128 363.0791,-128 363.0791,-116 363.0791,-116 363.0791,-110 369.0791,-104 375.0791,-104 375.0791,-104 458.4779,-104 458.4779,-104 464.4779,-104 470.4779,-110 470.4779,-116 470.4779,-116 470.4779,-128 470.4779,-128 470.4779,-134 464.4779,-140 458.4779,-140"/>
<text text-anchor="middle" x="416.7785" y="-117.8" font-family="Verdana" font-size="14.00" fill="#000000">RegisterCloser</text>
</a>
</g>
</g>
<!-- (*github.com/go&#45;i2p/logger.Entry).Debug -->
<g id="node11" class="node">
<title>(*github.com/go&#45;i2p/logger.Entry).Debug</title>
<g id="a_node11"><a xlink:title="(*github.com/go&#45;i2p/logger.Entry).Debug | defined in log.go:92">
<path fill="#ffe4b5" stroke="#000000" stroke-width="1.5" d="M611.5248,-324C611.5248,-324 573.8808,-324 573.8808,-324 567.8808,-324 561.8808,-318 561.8808,-312 561.8808,-312 561.8808,-300 561.8808,-300 561.8808,-294 567.8808,-288 573.8808,-288 573.8808,-288 611.5248,-288 611.5248,-288 617.5248,-288 623.5248,-294 623.5248,-300 623.5248,-300 623.5248,-312 623.5248,-312 623.5248,-318 617.5248,-324 611.5248,-324"/>
<text text-anchor="middle" x="592.7028" y="-310.2" font-family="Verdana" font-size="14.00" fill="#000000">logger</text>
<text text-anchor="middle" x="592.7028" y="-293.4" font-family="Verdana" font-size="14.00" fill="#000000">Debug</text>
</a>
</g>
</g>
<!-- github.com/go&#45;i2p/go&#45;i2p/lib/util.RegisterCloser&#45;&gt;(*github.com/go&#45;i2p/logger.Entry).Debug -->
<g id="edge11" class="edge">
<title>github.com/go&#45;i2p/go&#45;i2p/lib/util.RegisterCloser&#45;&gt;(*github.com/go&#45;i2p/logger.Entry).Debug</title>
<g id="a_edge11"><a xlink:title="at closeables.go:23: calling [(*github.com/go&#45;i2p/logger.Entry).Debug]">
<path fill="none" stroke="#8b4513" d="M436.2234,-140.2277C448.0809,-151.4963 463.4354,-166.3644 476.5934,-180 506.5294,-211.0226 512.3296,-220.3425 541.5934,-252 550.1324,-261.2374 559.5767,-271.2673 567.9996,-280.1477"/>
<polygon fill="#8b4513" stroke="#8b4513" points="565.6637,-282.7704 575.0902,-287.6069 570.7372,-277.9476 565.6637,-282.7704"/>
</a>
</g>
</g>
<!-- (*github.com/go&#45;i2p/logger.Logger).WithField -->
<g id="node13" class="node">
<title>(*github.com/go&#45;i2p/logger.Logger).WithField</title>
<g id="a_node13"><a xlink:title="(*github.com/go&#45;i2p/logger.Logger).WithField | defined in log.go:60">
<path fill="#ffe4b5" stroke="#000000" stroke-width="1.5" d="M620.9773,-116C620.9773,-116 564.4283,-116 564.4283,-116 558.4283,-116 552.4283,-110 552.4283,-104 552.4283,-104 552.4283,-92 552.4283,-92 552.4283,-86 558.4283,-80 564.4283,-80 564.4283,-80 620.9773,-80 620.9773,-80 626.9773,-80 632.9773,-86 632.9773,-92 632.9773,-92 632.9773,-104 632.9773,-104 632.9773,-110 626.9773,-116 620.9773,-116"/>
<text text-anchor="middle" x="592.7028" y="-102.2" font-family="Verdana" font-size="14.00" fill="#000000">logger</text>
<text text-anchor="middle" x="592.7028" y="-85.4" font-family="Verdana" font-size="14.00" fill="#000000">WithField</text>
</a>
</g>
</g>
<!-- github.com/go&#45;i2p/go&#45;i2p/lib/util.RegisterCloser&#45;&gt;(*github.com/go&#45;i2p/logger.Logger).WithField -->
<g id="edge10" class="edge">
<title>github.com/go&#45;i2p/go&#45;i2p/lib/util.RegisterCloser&#45;&gt;(*github.com/go&#45;i2p/logger.Logger).WithField</title>
<g id="a_edge10"><a xlink:title="at closeables.go:23: calling [(*github.com/go&#45;i2p/logger.Logger).WithField]">
<path fill="none" stroke="#8b4513" d="M470.5175,-114.6688C493.3881,-111.5487 519.9156,-107.9298 542.3975,-104.8628"/>
<polygon fill="#8b4513" stroke="#8b4513" points="542.9795,-108.3159 552.4146,-103.4962 542.0333,-101.3801 542.9795,-108.3159"/>
</a>
</g>
</g>
<!-- github.com/go&#45;i2p/go&#45;i2p/lib/util.CloseAll$1$1 -->
<g id="node2" class="node">
<title>github.com/go&#45;i2p/go&#45;i2p/lib/util.CloseAll$1$1</title>
<g id="a_node2"><a xlink:title="github.com/go&#45;i2p/go&#45;i2p/lib/util.CloseAll$1$1 | defined in closeables.go:64&#10;at closeables.go:66: calling [(*github.com/go&#45;i2p/logger.Logger).WithField]&#10;at closeables.go:66: calling [(*github.com/go&#45;i2p/logger.Entry).Warn]">
<polygon fill="#add8e6" stroke="#000000" stroke-dasharray="1,5" points="467.5529,-228 366.0041,-228 366.0041,-192 467.5529,-192 467.5529,-228"/>
<text text-anchor="middle" x="416.7785" y="-205.8" font-family="Verdana" font-size="14.00" fill="#000000">CloseAll$1$1</text>
</a>
</g>
</g>
<!-- (*github.com/go&#45;i2p/logger.Entry).Warn -->
<g id="node12" class="node">
<title>(*github.com/go&#45;i2p/logger.Entry).Warn</title>
<g id="a_node12"><a xlink:title="(*github.com/go&#45;i2p/logger.Entry).Warn | defined in log.go:112">
<path fill="#ffe4b5" stroke="#000000" stroke-width="1.5" d="M610.4691,-385C610.4691,-385 574.9365,-385 574.9365,-385 568.9365,-385 562.9365,-379 562.9365,-373 562.9365,-373 562.9365,-361 562.9365,-361 562.9365,-355 568.9365,-349 574.9365,-349 574.9365,-349 610.4691,-349 610.4691,-349 616.4691,-349 622.4691,-355 622.4691,-361 622.4691,-361 622.4691,-373 622.4691,-373 622.4691,-379 616.4691,-385 610.4691,-385"/>
<text text-anchor="middle" x="592.7028" y="-371.2" font-family="Verdana" font-size="14.00" fill="#000000">logger</text>
<text text-anchor="middle" x="592.7028" y="-354.4" font-family="Verdana" font-size="14.00" fill="#000000">Warn</text>
</a>
</g>
</g>
<!-- github.com/go&#45;i2p/go&#45;i2p/lib/util.CloseAll$1$1&#45;&gt;(*github.com/go&#45;i2p/logger.Entry).Warn -->
<g id="edge12" class="edge">
<title>github.com/go&#45;i2p/go&#45;i2p/lib/util.CloseAll$1$1&#45;&gt;(*github.com/go&#45;i2p/logger.Entry).Warn</title>
<g id="a_edge12"><a xlink:title="at closeables.go:66: calling [(*github.com/go&#45;i2p/logger.Entry).Warn]">
<path fill="none" stroke="#8b4513" d="M435.8504,-228.0698C447.7059,-239.4062 463.19,-254.4017 476.5934,-268 506.1686,-298.0053 508.6493,-310.7379 541.5934,-337 545.5645,-340.1657 549.9043,-343.2258 554.323,-346.1035"/>
<polygon fill="#8b4513" stroke="#8b4513" points="552.4995,-349.0911 562.8414,-351.3924 556.1918,-343.1441 552.4995,-349.0911"/>
</a>
</g>
</g>
<!-- github.com/go&#45;i2p/go&#45;i2p/lib/util.CloseAll$1$1&#45;&gt;(*github.com/go&#45;i2p/logger.Logger).WithField -->
<g id="edge1" class="edge">
<title>github.com/go&#45;i2p/go&#45;i2p/lib/util.CloseAll$1$1&#45;&gt;(*github.com/go&#45;i2p/logger.Logger).WithField</title>
<g id="a_edge1"><a xlink:title="at closeables.go:66: calling [(*github.com/go&#45;i2p/logger.Logger).WithField]">
<path fill="none" stroke="#8b4513" d="M444.3846,-191.7411C469.574,-175.1628 507.8971,-150.1461 541.5934,-129 545.6122,-126.478 549.8256,-123.8681 554.0361,-121.2821"/>
<polygon fill="#8b4513" stroke="#8b4513" points="555.9021,-124.2436 562.6109,-116.0435 552.2527,-118.2702 555.9021,-124.2436"/>
</a>
</g>
</g>
<!-- github.com/go&#45;i2p/go&#45;i2p/lib/util.CloseAll$1 -->
<g id="node3" class="node">
<title>github.com/go&#45;i2p/go&#45;i2p/lib/util.CloseAll$1</title>
<g id="a_node3"><a xlink:title="github.com/go&#45;i2p/go&#45;i2p/lib/util.CloseAll$1 | defined in closeables.go:63&#10;at closeables.go:70: calling [(*github.com/go&#45;i2p/logger.Logger).WithError]&#10;at closeables.go:64: calling [github.com/go&#45;i2p/go&#45;i2p/lib/util.CloseAll$1$1]&#10;at closeables.go:70: calling [(*github.com/go&#45;i2p/logger.Entry).Warn]">
<polygon fill="#add8e6" stroke="#000000" stroke-dasharray="1,5" points="267.1434,-218 179.5944,-218 179.5944,-182 267.1434,-182 267.1434,-218"/>
<text text-anchor="middle" x="223.3689" y="-195.8" font-family="Verdana" font-size="14.00" fill="#000000">CloseAll$1</text>
</a>
</g>
</g>
<!-- github.com/go&#45;i2p/go&#45;i2p/lib/util.CloseAll$1&#45;&gt;github.com/go&#45;i2p/go&#45;i2p/lib/util.CloseAll$1$1 -->
<g id="edge6" class="edge">
<title>github.com/go&#45;i2p/go&#45;i2p/lib/util.CloseAll$1&#45;&gt;github.com/go&#45;i2p/go&#45;i2p/lib/util.CloseAll$1$1</title>
<g id="a_edge6"><a xlink:title="at closeables.go:64: calling [github.com/go&#45;i2p/go&#45;i2p/lib/util.CloseAll$1$1]">
<path fill="none" stroke="#000000" d="M267.2565,-202.2692C288.4391,-203.3644 314.4989,-204.7118 338.896,-205.9732"/>
<polygon fill="#000000" stroke="#000000" points="355.714,-210.3474 365.8814,-207.3684 356.0755,-203.3567 355.714,-210.3474"/>
<polyline fill="none" stroke="#000000" points="355.8947,-206.852 350.9014,-206.5939 "/>
<polygon fill="none" stroke="#000000" points="338.9174,-205.9742 345.116,-202.2894 350.9014,-206.5939 344.7029,-210.2787 338.9174,-205.9742"/>
</a>
</g>
</g>
<!-- github.com/go&#45;i2p/go&#45;i2p/lib/util.CloseAll$1&#45;&gt;(*github.com/go&#45;i2p/logger.Entry).Warn -->
<g id="edge7" class="edge">
<title>github.com/go&#45;i2p/go&#45;i2p/lib/util.CloseAll$1&#45;&gt;(*github.com/go&#45;i2p/logger.Entry).Warn</title>
<g id="a_edge7"><a xlink:title="at closeables.go:70: calling [(*github.com/go&#45;i2p/logger.Entry).Warn]">
<path fill="none" stroke="#8b4513" d="M226.4325,-218.0721C235.7476,-266.6208 268.6935,-399.7898 356.9636,-453 416.9325,-489.1499 454.7922,-474.0199 513.5934,-436 533.1419,-423.3603 552.8778,-406.1555 567.7473,-392.0882"/>
<polygon fill="#8b4513" stroke="#8b4513" points="570.2736,-394.5144 575.0527,-385.0587 565.42,-389.4704 570.2736,-394.5144"/>
</a>
</g>
</g>
<!-- (*github.com/go&#45;i2p/logger.Logger).WithError -->
<g id="node14" class="node">
<title>(*github.com/go&#45;i2p/logger.Logger).WithError</title>
<g id="a_node14"><a xlink:title="(*github.com/go&#45;i2p/logger.Logger).WithError | defined in log.go:72">
<path fill="#ffe4b5" stroke="#000000" stroke-width="1.5" d="M621.2343,-177C621.2343,-177 564.1713,-177 564.1713,-177 558.1713,-177 552.1713,-171 552.1713,-165 552.1713,-165 552.1713,-153 552.1713,-153 552.1713,-147 558.1713,-141 564.1713,-141 564.1713,-141 621.2343,-141 621.2343,-141 627.2343,-141 633.2343,-147 633.2343,-153 633.2343,-153 633.2343,-165 633.2343,-165 633.2343,-171 627.2343,-177 621.2343,-177"/>
<text text-anchor="middle" x="592.7028" y="-163.2" font-family="Verdana" font-size="14.00" fill="#000000">logger</text>
<text text-anchor="middle" x="592.7028" y="-146.4" font-family="Verdana" font-size="14.00" fill="#000000">WithError</text>
</a>
</g>
</g>
<!-- github.com/go&#45;i2p/go&#45;i2p/lib/util.CloseAll$1&#45;&gt;(*github.com/go&#45;i2p/logger.Logger).WithError -->
<g id="edge2" class="edge">
<title>github.com/go&#45;i2p/go&#45;i2p/lib/util.CloseAll$1&#45;&gt;(*github.com/go&#45;i2p/logger.Logger).WithError</title>
<g id="a_edge2"><a xlink:title="at closeables.go:70: calling [(*github.com/go&#45;i2p/logger.Logger).WithError]">
<path fill="none" stroke="#8b4513" d="M267.2041,-192.7629C293.2356,-188.6338 326.9235,-183.5834 356.9636,-180 420.6316,-172.4053 494.2742,-166.2665 542.0736,-162.6307"/>
<polygon fill="#8b4513" stroke="#8b4513" points="542.4549,-166.112 552.1639,-161.8712 541.9294,-159.1317 542.4549,-166.112"/>
</a>
</g>
</g>
<!-- github.com/go&#45;i2p/go&#45;i2p/lib/util.UnregisterCloser -->
<g id="node4" class="node">
<title>github.com/go&#45;i2p/go&#45;i2p/lib/util.UnregisterCloser</title>
<g id="a_node4"><a xlink:title="github.com/go&#45;i2p/go&#45;i2p/lib/util.UnregisterCloser | defined in closeables.go:30&#10;at closeables.go:39: calling [(*github.com/go&#45;i2p/logger.Logger).WithField]&#10;at closeables.go:39: calling [(*github.com/go&#45;i2p/logger.Entry).Debug]">
<path fill="#add8e6" stroke="#000000" stroke-width="1.5" d="M464.4089,-79C464.4089,-79 369.1481,-79 369.1481,-79 363.1481,-79 357.1481,-73 357.1481,-67 357.1481,-67 357.1481,-55 357.1481,-55 357.1481,-49 363.1481,-43 369.1481,-43 369.1481,-43 464.4089,-43 464.4089,-43 470.4089,-43 476.4089,-49 476.4089,-55 476.4089,-55 476.4089,-67 476.4089,-67 476.4089,-73 470.4089,-79 464.4089,-79"/>
<text text-anchor="middle" x="416.7785" y="-56.8" font-family="Verdana" font-size="14.00" fill="#000000">UnregisterCloser</text>
</a>
</g>
</g>
<!-- github.com/go&#45;i2p/go&#45;i2p/lib/util.UnregisterCloser&#45;&gt;(*github.com/go&#45;i2p/logger.Entry).Debug -->
<g id="edge16" class="edge">
<title>github.com/go&#45;i2p/go&#45;i2p/lib/util.UnregisterCloser&#45;&gt;(*github.com/go&#45;i2p/logger.Entry).Debug</title>
<g id="a_edge16"><a xlink:title="at closeables.go:39: calling [(*github.com/go&#45;i2p/logger.Entry).Debug]">
<path fill="none" stroke="#8b4513" d="M460.8751,-79.1429C466.6447,-82.8038 472.1016,-87.0734 476.5934,-92 528.3067,-148.7194 500.0516,-187.4583 541.5934,-252 548.1856,-262.242 556.8619,-272.2702 565.1902,-280.8508"/>
<polygon fill="#8b4513" stroke="#8b4513" points="562.8023,-283.4123 572.3584,-287.9875 567.7412,-278.4517 562.8023,-283.4123"/>
</a>
</g>
</g>
<!-- github.com/go&#45;i2p/go&#45;i2p/lib/util.UnregisterCloser&#45;&gt;(*github.com/go&#45;i2p/logger.Logger).WithField -->
<g id="edge13" class="edge">
<title>github.com/go&#45;i2p/go&#45;i2p/lib/util.UnregisterCloser&#45;&gt;(*github.com/go&#45;i2p/logger.Logger).WithField</title>
<g id="a_edge13"><a xlink:title="at closeables.go:39: calling [(*github.com/go&#45;i2p/logger.Logger).WithField]">
<path fill="none" stroke="#8b4513" d="M476.6079,-59.355C488.944,-59.9908 501.7735,-61.3761 513.5934,-64 525.4508,-66.6322 537.7504,-71.0185 549.017,-75.7802"/>
<polygon fill="#8b4513" stroke="#8b4513" points="547.6441,-79 558.2057,-79.8381 550.472,-72.5966 547.6441,-79"/>
</a>
</g>
</g>
<!-- github.com/go&#45;i2p/go&#45;i2p/lib/util.CheckFileAge -->
<g id="node5" class="node">
<title>github.com/go&#45;i2p/go&#45;i2p/lib/util.CheckFileAge</title>
<g id="a_node5"><a xlink:title="github.com/go&#45;i2p/go&#45;i2p/lib/util.CheckFileAge | defined in checkfile.go:32&#10;at checkfile.go:46: calling [(*github.com/go&#45;i2p/logger.Entry).Debug]&#10;at checkfile.go:57: calling [(*github.com/go&#45;i2p/logger.Entry).Debug]&#10;at checkfile.go:38: calling [(*github.com/go&#45;i2p/logger.Entry).Warn]&#10;at checkfile.go:34: calling [(*github.com/go&#45;i2p/logger.Logger).WithFields]&#10;at checkfile.go:43: calling [(*github.com/go&#45;i2p/logger.Logger).WithFields]&#10;at checkfile.go:52: calling [(*github.com/go&#45;i2p/logger.Logger).WithFields]">
<path fill="#add8e6" stroke="#000000" stroke-width="1.5" d="M457.144,-377C457.144,-377 376.413,-377 376.413,-377 370.413,-377 364.413,-371 364.413,-365 364.413,-365 364.413,-353 364.413,-353 364.413,-347 370.413,-341 376.413,-341 376.413,-341 457.144,-341 457.144,-341 463.144,-341 469.144,-347 469.144,-353 469.144,-353 469.144,-365 469.144,-365 469.144,-371 463.144,-377 457.144,-377"/>
<text text-anchor="middle" x="416.7785" y="-354.8" font-family="Verdana" font-size="14.00" fill="#000000">CheckFileAge</text>
</a>
</g>
</g>
<!-- github.com/go&#45;i2p/go&#45;i2p/lib/util.CheckFileAge&#45;&gt;(*github.com/go&#45;i2p/logger.Entry).Debug -->
<g id="edge3" class="edge">
<title>github.com/go&#45;i2p/go&#45;i2p/lib/util.CheckFileAge&#45;&gt;(*github.com/go&#45;i2p/logger.Entry).Debug</title>
<g id="a_edge3"><a xlink:title="at checkfile.go:46: calling [(*github.com/go&#45;i2p/logger.Entry).Debug]&#10;at checkfile.go:57: calling [(*github.com/go&#45;i2p/logger.Entry).Debug]">
<path fill="none" stroke="#8b4513" d="M469.5616,-343.0983C496.07,-335.1122 527.6817,-325.5886 552.2387,-318.1905"/>
<polygon fill="#8b4513" stroke="#8b4513" points="553.3901,-321.499 561.9554,-315.2631 551.3708,-314.7966 553.3901,-321.499"/>
</a>
</g>
</g>
<!-- github.com/go&#45;i2p/go&#45;i2p/lib/util.CheckFileAge&#45;&gt;(*github.com/go&#45;i2p/logger.Entry).Warn -->
<g id="edge8" class="edge">
<title>github.com/go&#45;i2p/go&#45;i2p/lib/util.CheckFileAge&#45;&gt;(*github.com/go&#45;i2p/logger.Entry).Warn</title>
<g id="a_edge8"><a xlink:title="at checkfile.go:38: calling [(*github.com/go&#45;i2p/logger.Entry).Warn]">
<path fill="none" stroke="#8b4513" d="M469.5616,-361.4003C496.2178,-362.6124 528.0345,-364.0593 552.649,-365.1786"/>
<polygon fill="#8b4513" stroke="#8b4513" points="552.5723,-368.6786 562.721,-365.6366 552.8904,-361.6859 552.5723,-368.6786"/>
</a>
</g>
</g>
<!-- (*github.com/go&#45;i2p/logger.Logger).WithFields -->
<g id="node15" class="node">
<title>(*github.com/go&#45;i2p/logger.Logger).WithFields</title>
<g id="a_node15"><a xlink:title="(*github.com/go&#45;i2p/logger.Logger).WithFields | defined in log.go:66">
<path fill="#ffe4b5" stroke="#000000" stroke-width="1.5" d="M623.9219,-238C623.9219,-238 561.4837,-238 561.4837,-238 555.4837,-238 549.4837,-232 549.4837,-226 549.4837,-226 549.4837,-214 549.4837,-214 549.4837,-208 555.4837,-202 561.4837,-202 561.4837,-202 623.9219,-202 623.9219,-202 629.9219,-202 635.9219,-208 635.9219,-214 635.9219,-214 635.9219,-226 635.9219,-226 635.9219,-232 629.9219,-238 623.9219,-238"/>
<text text-anchor="middle" x="592.7028" y="-224.2" font-family="Verdana" font-size="14.00" fill="#000000">logger</text>
<text text-anchor="middle" x="592.7028" y="-207.4" font-family="Verdana" font-size="14.00" fill="#000000">WithFields</text>
</a>
</g>
</g>
<!-- github.com/go&#45;i2p/go&#45;i2p/lib/util.CheckFileAge&#45;&gt;(*github.com/go&#45;i2p/logger.Logger).WithFields -->
<g id="edge17" class="edge">
<title>github.com/go&#45;i2p/go&#45;i2p/lib/util.CheckFileAge&#45;&gt;(*github.com/go&#45;i2p/logger.Logger).WithFields</title>
<g id="a_edge17"><a xlink:title="at checkfile.go:34: calling [(*github.com/go&#45;i2p/logger.Logger).WithFields]&#10;at checkfile.go:43: calling [(*github.com/go&#45;i2p/logger.Logger).WithFields]&#10;at checkfile.go:52: calling [(*github.com/go&#45;i2p/logger.Logger).WithFields]">
<path fill="none" stroke="#8b4513" d="M458.7428,-340.8764C465.0063,-337.3571 471.1721,-333.3815 476.5934,-329 512.4928,-299.9862 506.2265,-277.6606 541.5934,-248 543.3255,-246.5474 545.1446,-245.135 547.0223,-243.7669"/>
<polygon fill="#8b4513" stroke="#8b4513" points="549.1783,-246.5356 555.5423,-238.0651 545.285,-240.7181 549.1783,-246.5356"/>
</a>
</g>
</g>
<!-- github.com/go&#45;i2p/go&#45;i2p/lib/util.UserHome -->
<g id="node6" class="node">
<title>github.com/go&#45;i2p/go&#45;i2p/lib/util.UserHome</title>
<g id="a_node6"><a xlink:title="github.com/go&#45;i2p/go&#45;i2p/lib/util.UserHome | defined in home.go:11&#10;at home.go:16: calling [(*github.com/go&#45;i2p/logger.Logger).WithError]&#10;at home.go:21: calling [(*github.com/go&#45;i2p/logger.Logger).WithError]&#10;at home.go:30: calling [(*github.com/go&#45;i2p/logger.Logger).WithError]&#10;at home.go:16: calling [(*github.com/go&#45;i2p/logger.Entry).Warn]&#10;at home.go:21: calling [(*github.com/go&#45;i2p/logger.Entry).Warn]&#10;at home.go:30: calling [(*github.com/go&#45;i2p/logger.Entry).Warn]">
<path fill="#add8e6" stroke="#000000" stroke-width="1.5" d="M446.9175,-316C446.9175,-316 386.6395,-316 386.6395,-316 380.6395,-316 374.6395,-310 374.6395,-304 374.6395,-304 374.6395,-292 374.6395,-292 374.6395,-286 380.6395,-280 386.6395,-280 386.6395,-280 446.9175,-280 446.9175,-280 452.9175,-280 458.9175,-286 458.9175,-292 458.9175,-292 458.9175,-304 458.9175,-304 458.9175,-310 452.9175,-316 446.9175,-316"/>
<text text-anchor="middle" x="416.7785" y="-293.8" font-family="Verdana" font-size="14.00" fill="#000000">UserHome</text>
</a>
</g>
</g>
<!-- github.com/go&#45;i2p/go&#45;i2p/lib/util.UserHome&#45;&gt;(*github.com/go&#45;i2p/logger.Entry).Warn -->
<g id="edge19" class="edge">
<title>github.com/go&#45;i2p/go&#45;i2p/lib/util.UserHome&#45;&gt;(*github.com/go&#45;i2p/logger.Entry).Warn</title>
<g id="a_edge19"><a xlink:title="at home.go:16: calling [(*github.com/go&#45;i2p/logger.Entry).Warn]&#10;at home.go:21: calling [(*github.com/go&#45;i2p/logger.Entry).Warn]&#10;at home.go:30: calling [(*github.com/go&#45;i2p/logger.Entry).Warn]">
<path fill="none" stroke="#8b4513" d="M459.3649,-314.703C488.0188,-325.9415 525.5191,-340.6496 553.4499,-351.6045"/>
<polygon fill="#8b4513" stroke="#8b4513" points="552.3125,-354.9179 562.9001,-355.311 554.8685,-348.4012 552.3125,-354.9179"/>
</a>
</g>
</g>
<!-- github.com/go&#45;i2p/go&#45;i2p/lib/util.UserHome&#45;&gt;(*github.com/go&#45;i2p/logger.Logger).WithError -->
<g id="edge18" class="edge">
<title>github.com/go&#45;i2p/go&#45;i2p/lib/util.UserHome&#45;&gt;(*github.com/go&#45;i2p/logger.Logger).WithError</title>
<g id="a_edge18"><a xlink:title="at home.go:16: calling [(*github.com/go&#45;i2p/logger.Logger).WithError]&#10;at home.go:21: calling [(*github.com/go&#45;i2p/logger.Logger).WithError]&#10;at home.go:30: calling [(*github.com/go&#45;i2p/logger.Logger).WithError]">
<path fill="none" stroke="#8b4513" d="M435.8194,-279.7253C459.5963,-257.3385 501.9783,-218.8389 541.5934,-190 545.0386,-187.492 548.6935,-184.991 552.4022,-182.5592"/>
<polygon fill="#8b4513" stroke="#8b4513" points="554.5204,-185.36 561.0802,-177.0402 550.7639,-179.4534 554.5204,-185.36"/>
</a>
</g>
</g>
<!-- github.com/go&#45;i2p/go&#45;i2p/lib/util.CloseAll -->
<g id="node7" class="node">
<title>github.com/go&#45;i2p/go&#45;i2p/lib/util.CloseAll</title>
<g id="a_node7"><a xlink:title="github.com/go&#45;i2p/go&#45;i2p/lib/util.CloseAll | defined in closeables.go:51&#10;at closeables.go:59: calling [(*github.com/go&#45;i2p/logger.Logger).WithField]&#10;at closeables.go:72: calling [github.com/go&#45;i2p/go&#45;i2p/lib/util.CloseAll$1]&#10;at closeables.go:74: calling [(*github.com/sirupsen/logrus.Logger).Debug]&#10;at closeables.go:59: calling [(*github.com/go&#45;i2p/logger.Entry).Debug]">
<path fill="#add8e6" stroke="#000000" stroke-width="1.5" d="M77.6616,-195C77.6616,-195 28.1126,-195 28.1126,-195 22.1126,-195 16.1126,-189 16.1126,-183 16.1126,-183 16.1126,-171 16.1126,-171 16.1126,-165 22.1126,-159 28.1126,-159 28.1126,-159 77.6616,-159 77.6616,-159 83.6616,-159 89.6616,-165 89.6616,-171 89.6616,-171 89.6616,-183 89.6616,-183 89.6616,-189 83.6616,-195 77.6616,-195"/>
<text text-anchor="middle" x="52.8871" y="-172.8" font-family="Verdana" font-size="14.00" fill="#000000">CloseAll</text>
</a>
</g>
</g>
<!-- github.com/go&#45;i2p/go&#45;i2p/lib/util.CloseAll&#45;&gt;github.com/go&#45;i2p/go&#45;i2p/lib/util.CloseAll$1 -->
<g id="edge5" class="edge">
<title>github.com/go&#45;i2p/go&#45;i2p/lib/util.CloseAll&#45;&gt;github.com/go&#45;i2p/go&#45;i2p/lib/util.CloseAll$1</title>
<g id="a_edge5"><a xlink:title="at closeables.go:72: calling [github.com/go&#45;i2p/go&#45;i2p/lib/util.CloseAll$1]">
<path fill="none" stroke="#000000" d="M89.8791,-181.9907C113.1351,-185.1282 143.5356,-189.2295 169.4499,-192.7257"/>
<polygon fill="#000000" stroke="#000000" points="169.1272,-196.2138 179.5054,-194.0823 170.0632,-189.2766 169.1272,-196.2138"/>
</a>
</g>
</g>
<!-- github.com/go&#45;i2p/go&#45;i2p/lib/util.CloseAll&#45;&gt;(*github.com/go&#45;i2p/logger.Entry).Debug -->
<g id="edge20" class="edge">
<title>github.com/go&#45;i2p/go&#45;i2p/lib/util.CloseAll&#45;&gt;(*github.com/go&#45;i2p/logger.Entry).Debug</title>
<g id="a_edge20"><a xlink:title="at closeables.go:59: calling [(*github.com/go&#45;i2p/logger.Entry).Debug]">
<path fill="none" stroke="#8b4513" d="M75.95,-195.0531C107.4016,-217.812 166.3728,-254 223.3689,-254 223.3689,-254 223.3689,-254 320.4636,-254 390.133,-254 408.3526,-253.9636 476.5934,-268 502.1759,-273.2621 530.0124,-282.2542 552.0151,-290.1704"/>
<polygon fill="#8b4513" stroke="#8b4513" points="551.0912,-293.5594 561.6849,-293.7146 553.5002,-286.987 551.0912,-293.5594"/>
</a>
</g>
</g>
<!-- github.com/go&#45;i2p/go&#45;i2p/lib/util.CloseAll&#45;&gt;(*github.com/go&#45;i2p/logger.Logger).WithField -->
<g id="edge4" class="edge">
<title>github.com/go&#45;i2p/go&#45;i2p/lib/util.CloseAll&#45;&gt;(*github.com/go&#45;i2p/logger.Logger).WithField</title>
<g id="a_edge4"><a xlink:title="at closeables.go:59: calling [(*github.com/go&#45;i2p/logger.Logger).WithField]">
<path fill="none" stroke="#8b4513" d="M68.2653,-158.6799C87.8023,-136.7617 123.7083,-100.8004 162.7742,-83 212.3256,-60.4219 231.8105,-80.6577 283.9636,-65 318.2429,-54.7085 322.0193,-38.7386 356.9636,-31 408.8747,-19.504 425.2347,-17.2448 476.5934,-31 507.7523,-39.3451 539.2064,-58.2935 561.5025,-73.9174"/>
<polygon fill="#8b4513" stroke="#8b4513" points="559.7114,-76.9402 569.8753,-79.9311 563.7949,-71.2547 559.7114,-76.9402"/>
</a>
</g>
</g>
<!-- (*github.com/sirupsen/logrus.Logger).Debug -->
<g id="node16" class="node">
<title>(*github.com/sirupsen/logrus.Logger).Debug</title>
<g id="a_node16"><a xlink:title="(*github.com/sirupsen/logrus.Logger).Debug | defined in logger.go:221">
<path fill="#ffe4b5" stroke="#000000" stroke-width="1.5" d="M242.1909,-157C242.1909,-157 204.5469,-157 204.5469,-157 198.5469,-157 192.5469,-151 192.5469,-145 192.5469,-145 192.5469,-133 192.5469,-133 192.5469,-127 198.5469,-121 204.5469,-121 204.5469,-121 242.1909,-121 242.1909,-121 248.1909,-121 254.1909,-127 254.1909,-133 254.1909,-133 254.1909,-145 254.1909,-145 254.1909,-151 248.1909,-157 242.1909,-157"/>
<text text-anchor="middle" x="223.3689" y="-143.2" font-family="Verdana" font-size="14.00" fill="#000000">logrus</text>
<text text-anchor="middle" x="223.3689" y="-126.4" font-family="Verdana" font-size="14.00" fill="#000000">Debug</text>
</a>
</g>
</g>
<!-- github.com/go&#45;i2p/go&#45;i2p/lib/util.CloseAll&#45;&gt;(*github.com/sirupsen/logrus.Logger).Debug -->
<g id="edge14" class="edge">
<title>github.com/go&#45;i2p/go&#45;i2p/lib/util.CloseAll&#45;&gt;(*github.com/sirupsen/logrus.Logger).Debug</title>
<g id="a_edge14"><a xlink:title="at closeables.go:74: calling [(*github.com/sirupsen/logrus.Logger).Debug]">
<path fill="none" stroke="#8b4513" d="M89.8791,-168.7546C117.1786,-162.6696 154.3228,-154.3902 182.4988,-148.1099"/>
<polygon fill="#8b4513" stroke="#8b4513" points="183.4398,-151.4861 192.4388,-145.8942 181.9168,-144.6537 183.4398,-151.4861"/>
</a>
</g>
</g>
<!-- github.com/go&#45;i2p/go&#45;i2p/lib/util.init -->
<g id="node8" class="node">
<title>github.com/go&#45;i2p/go&#45;i2p/lib/util.init</title>
<g id="a_node8"><a xlink:title="github.com/go&#45;i2p/go&#45;i2p/lib/util.init | defined in .:0&#10;at log.go:5: calling [github.com/go&#45;i2p/logger.GetGoI2PLogger]">
<path fill="#add8e6" stroke="#000000" stroke-width=".5" d="M67.8871,-52C67.8871,-52 37.8871,-52 37.8871,-52 31.8871,-52 25.8871,-46 25.8871,-40 25.8871,-40 25.8871,-28 25.8871,-28 25.8871,-22 31.8871,-16 37.8871,-16 37.8871,-16 67.8871,-16 67.8871,-16 73.8871,-16 79.8871,-22 79.8871,-28 79.8871,-28 79.8871,-40 79.8871,-40 79.8871,-46 73.8871,-52 67.8871,-52"/>
<text text-anchor="middle" x="52.8871" y="-29.8" font-family="Verdana" font-size="14.00" fill="#000000">init</text>
</a>
</g>
</g>
<!-- github.com/go&#45;i2p/logger.GetGoI2PLogger -->
<g id="node9" class="node">
<title>github.com/go&#45;i2p/logger.GetGoI2PLogger</title>
<g id="a_node9"><a xlink:title="github.com/go&#45;i2p/logger.GetGoI2PLogger | defined in log.go:254">
<path fill="#ffe4b5" stroke="#000000" stroke-width="1.5" d="M272.0584,-52C272.0584,-52 174.6794,-52 174.6794,-52 168.6794,-52 162.6794,-46 162.6794,-40 162.6794,-40 162.6794,-28 162.6794,-28 162.6794,-22 168.6794,-16 174.6794,-16 174.6794,-16 272.0584,-16 272.0584,-16 278.0584,-16 284.0584,-22 284.0584,-28 284.0584,-28 284.0584,-40 284.0584,-40 284.0584,-46 278.0584,-52 272.0584,-52"/>
<text text-anchor="middle" x="223.3689" y="-38.2" font-family="Verdana" font-size="14.00" fill="#000000">logger</text>
<text text-anchor="middle" x="223.3689" y="-21.4" font-family="Verdana" font-size="14.00" fill="#000000">GetGoI2PLogger</text>
</a>
</g>
</g>
<!-- github.com/go&#45;i2p/go&#45;i2p/lib/util.init&#45;&gt;github.com/go&#45;i2p/logger.GetGoI2PLogger -->
<g id="edge9" class="edge">
<title>github.com/go&#45;i2p/go&#45;i2p/lib/util.init&#45;&gt;github.com/go&#45;i2p/logger.GetGoI2PLogger</title>
<g id="a_edge9"><a xlink:title="at log.go:5: calling [github.com/go&#45;i2p/logger.GetGoI2PLogger]">
<path fill="none" stroke="#8b4513" d="M79.9004,-34C99.4617,-34 126.8594,-34 152.4768,-34"/>
<polygon fill="#8b4513" stroke="#8b4513" points="152.5619,-37.5001 162.5619,-34 152.5618,-30.5001 152.5619,-37.5001"/>
</a>
</g>
</g>
<!-- github.com/go&#45;i2p/go&#45;i2p/lib/util.CheckFileExists -->
<g id="node10" class="node">
<title>github.com/go&#45;i2p/go&#45;i2p/lib/util.CheckFileExists</title>
<g id="a_node10"><a xlink:title="github.com/go&#45;i2p/go&#45;i2p/lib/util.CheckFileExists | defined in checkfile.go:10&#10;at checkfile.go:23: calling [(*github.com/go&#45;i2p/logger.Entry).Warn]&#10;at checkfile.go:14: calling [(*github.com/go&#45;i2p/logger.Logger).WithFields]&#10;at checkfile.go:19: calling [(*github.com/go&#45;i2p/logger.Logger).WithFields]&#10;at checkfile.go:17: calling [(*github.com/go&#45;i2p/logger.Entry).Debug]">
<path fill="#add8e6" stroke="#000000" stroke-width="1.5" d="M462.5459,-440C462.5459,-440 371.0111,-440 371.0111,-440 365.0111,-440 359.0111,-434 359.0111,-428 359.0111,-428 359.0111,-416 359.0111,-416 359.0111,-410 365.0111,-404 371.0111,-404 371.0111,-404 462.5459,-404 462.5459,-404 468.5459,-404 474.5459,-410 474.5459,-416 474.5459,-416 474.5459,-428 474.5459,-428 474.5459,-434 468.5459,-440 462.5459,-440"/>
<text text-anchor="middle" x="416.7785" y="-417.8" font-family="Verdana" font-size="14.00" fill="#000000">CheckFileExists</text>
</a>
</g>
</g>
<!-- github.com/go&#45;i2p/go&#45;i2p/lib/util.CheckFileExists&#45;&gt;(*github.com/go&#45;i2p/logger.Entry).Debug -->
<g id="edge22" class="edge">
<title>github.com/go&#45;i2p/go&#45;i2p/lib/util.CheckFileExists&#45;&gt;(*github.com/go&#45;i2p/logger.Entry).Debug</title>
<g id="a_edge22"><a xlink:title="at checkfile.go:17: calling [(*github.com/go&#45;i2p/logger.Entry).Debug]">
<path fill="none" stroke="#8b4513" d="M474.786,-419.22C488.6619,-416.2032 502.618,-410.9461 513.5934,-402 537.9752,-382.1264 520.9432,-360.7276 541.5934,-337 545.0393,-333.0406 549.1186,-329.4357 553.4464,-326.1997"/>
<polygon fill="#8b4513" stroke="#8b4513" points="555.6496,-328.9351 561.9744,-320.4353 551.7295,-323.1357 555.6496,-328.9351"/>
</a>
</g>
</g>
<!-- github.com/go&#45;i2p/go&#45;i2p/lib/util.CheckFileExists&#45;&gt;(*github.com/go&#45;i2p/logger.Entry).Warn -->
<g id="edge15" class="edge">
<title>github.com/go&#45;i2p/go&#45;i2p/lib/util.CheckFileExists&#45;&gt;(*github.com/go&#45;i2p/logger.Entry).Warn</title>
<g id="a_edge15"><a xlink:title="at checkfile.go:23: calling [(*github.com/go&#45;i2p/logger.Entry).Warn]">
<path fill="none" stroke="#8b4513" d="M474.5954,-433.691C487.6815,-434.2875 501.3275,-433.2339 513.5934,-429 534.7479,-421.698 554.5612,-406.1517 569.0679,-392.4541"/>
<polygon fill="#8b4513" stroke="#8b4513" points="571.8747,-394.6031 576.556,-385.0986 566.9694,-389.6093 571.8747,-394.6031"/>
</a>
</g>
</g>
<!-- github.com/go&#45;i2p/go&#45;i2p/lib/util.CheckFileExists&#45;&gt;(*github.com/go&#45;i2p/logger.Logger).WithFields -->
<g id="edge21" class="edge">
<title>github.com/go&#45;i2p/go&#45;i2p/lib/util.CheckFileExists&#45;&gt;(*github.com/go&#45;i2p/logger.Logger).WithFields</title>
<g id="a_edge21"><a xlink:title="at checkfile.go:14: calling [(*github.com/go&#45;i2p/logger.Logger).WithFields]&#10;at checkfile.go:19: calling [(*github.com/go&#45;i2p/logger.Logger).WithFields]">
<path fill="none" stroke="#8b4513" d="M459.152,-403.8884C465.5057,-399.9411 471.5926,-395.3207 476.5934,-390 524.1289,-339.4238 494.31,-298.812 541.5934,-248 542.778,-246.727 544.034,-245.4987 545.3463,-244.3148"/>
<polygon fill="#8b4513" stroke="#8b4513" points="547.6658,-246.9438 553.3752,-238.0189 543.3463,-241.4354 547.6658,-246.9438"/>
</a>
</g>
</g>
</g>
</svg>
