<?xml version="1.0" encoding="UTF-8" standalone="no"?>
<!DOCTYPE svg PUBLIC "-//W3C//DTD SVG 1.1//EN"
 "http://www.w3.org/Graphics/SVG/1.1/DTD/svg11.dtd">
<!-- Generated by graphviz version 2.40.1 (20161225.0304)
 -->
<!-- Title: gocallvis Pages: 1 -->
<svg width="304pt" height="410pt"
 viewBox="0.00 0.00 303.74 410.00" xmlns="http://www.w3.org/2000/svg" xmlns:xlink="http://www.w3.org/1999/xlink">
<g id="graph0" class="graph" transform="scale(1 1) rotate(0) translate(0 410)">
<title>gocallvis</title>
<polygon fill="#d3d3d3" stroke="transparent" points="0,0 0,-410 303.7392,-410 303.7392,0 0,0"/>
<g id="clust1" class="cluster">
<title>cluster_focus</title>
<polygon fill="#e6ecfa" stroke="#000000" stroke-width=".5" points="8,-8 8,-402 295.7392,-402 295.7392,-8 8,-8"/>
<text text-anchor="middle" x="151.8696" y="-381.8" font-family="Arial" font-size="18.00" fill="#000000">exportable</text>
</g>
<g id="clust2" class="cluster">
<title>cluster_github.com/go&#45;i2p/go&#45;i2p/lib/common/router_address</title>
<g id="a_clust2"><a xlink:href="/?f=github.com/go-i2p/go-i2p/lib/common/router_address" xlink:title="package: github.com/go&#45;i2p/go&#45;i2p/lib/common/router_address">
<polygon fill="#ffffe0" stroke="#000000" stroke-width=".8" points="135,-16 135,-364 287.7392,-364 287.7392,-16 135,-16"/>
<text text-anchor="middle" x="211.3696" y="-345.6" font-family="Tahoma bold" font-size="16.00" fill="#000000">router_address</text>
</a>
</g>
</g>
<g id="clust3" class="cluster">
<title>cluster_github.com/go&#45;i2p/go&#45;i2p/lib/common/router_address.RouterAddress</title>
<g id="a_clust3"><a xlink:href="/?f=github.com/go-i2p/go-i2p/lib/common/router_address" xlink:title="type: github.com/go&#45;i2p/go&#45;i2p/lib/common/router_address.RouterAddress">
<path fill="#eed8ae" stroke="#000000" stroke-width=".5" d="M161.7686,-68C161.7686,-68 260.9706,-68 260.9706,-68 266.9706,-68 272.9706,-74 272.9706,-80 272.9706,-80 272.9706,-317 272.9706,-317 272.9706,-323 266.9706,-329 260.9706,-329 260.9706,-329 161.7686,-329 161.7686,-329 155.7686,-329 149.7686,-323 149.7686,-317 149.7686,-317 149.7686,-80 149.7686,-80 149.7686,-74 155.7686,-68 161.7686,-68"/>
<text text-anchor="middle" x="211.3696" y="-76.5" font-family="Tahoma bold" font-size="15.00" fill="#222222">(RouterAddress)</text>
</a>
</g>
</g>
<!-- github.com/go&#45;i2p/go&#45;i2p/lib/common/fuzz/router_address.Fuzz -->
<g id="node1" class="node">
<title>github.com/go&#45;i2p/go&#45;i2p/lib/common/fuzz/router_address.Fuzz</title>
<g id="a_node1"><a xlink:title="github.com/go&#45;i2p/go&#45;i2p/lib/common/fuzz/router_address.Fuzz | defined in fuzz.go:5&#10;at fuzz.go:6: calling [github.com/go&#45;i2p/go&#45;i2p/lib/common/router_address.ReadRouterAddress]&#10;at fuzz.go:7: calling [(github.com/go&#45;i2p/go&#45;i2p/lib/common/router_address.RouterAddress).Cost]&#10;at fuzz.go:8: calling [(github.com/go&#45;i2p/go&#45;i2p/lib/common/router_address.RouterAddress).Expiration]&#10;at fuzz.go:9: calling [(github.com/go&#45;i2p/go&#45;i2p/lib/common/router_address.RouterAddress).Options]&#10;at fuzz.go:10: calling [(github.com/go&#45;i2p/go&#45;i2p/lib/common/router_address.RouterAddress).TransportStyle]">
<path fill="#add8e6" stroke="#000000" stroke-width="1.5" d="M58,-199C58,-199 28,-199 28,-199 22,-199 16,-193 16,-187 16,-187 16,-175 16,-175 16,-169 22,-163 28,-163 28,-163 58,-163 58,-163 64,-163 70,-169 70,-175 70,-175 70,-187 70,-187 70,-193 64,-199 58,-199"/>
<text text-anchor="middle" x="43" y="-176.8" font-family="Verdana" font-size="14.00" fill="#000000">Fuzz</text>
</a>
</g>
</g>
<!-- github.com/go&#45;i2p/go&#45;i2p/lib/common/router_address.ReadRouterAddress -->
<g id="node2" class="node">
<title>github.com/go&#45;i2p/go&#45;i2p/lib/common/router_address.ReadRouterAddress</title>
<g id="a_node2"><a xlink:title="github.com/go&#45;i2p/go&#45;i2p/lib/common/router_address.ReadRouterAddress | defined in router_address.go:317">
<path fill="#ffe4b5" stroke="#000000" stroke-width="1.5" d="M267.609,-60C267.609,-60 155.1302,-60 155.1302,-60 149.1302,-60 143.1302,-54 143.1302,-48 143.1302,-48 143.1302,-36 143.1302,-36 143.1302,-30 149.1302,-24 155.1302,-24 155.1302,-24 267.609,-24 267.609,-24 273.609,-24 279.609,-30 279.609,-36 279.609,-36 279.609,-48 279.609,-48 279.609,-54 273.609,-60 267.609,-60"/>
<text text-anchor="middle" x="211.3696" y="-37.8" font-family="Verdana" font-size="14.00" fill="#000000">ReadRouterAddress</text>
</a>
</g>
</g>
<!-- github.com/go&#45;i2p/go&#45;i2p/lib/common/fuzz/router_address.Fuzz&#45;&gt;github.com/go&#45;i2p/go&#45;i2p/lib/common/router_address.ReadRouterAddress -->
<g id="edge1" class="edge">
<title>github.com/go&#45;i2p/go&#45;i2p/lib/common/fuzz/router_address.Fuzz&#45;&gt;github.com/go&#45;i2p/go&#45;i2p/lib/common/router_address.ReadRouterAddress</title>
<g id="a_edge1"><a xlink:title="at fuzz.go:6: calling [github.com/go&#45;i2p/go&#45;i2p/lib/common/router_address.ReadRouterAddress]">
<path fill="none" stroke="#8b4513" d="M52.5485,-162.6228C66.067,-138.3067 93.0901,-95.432 134.6832,-65.0103"/>
<polygon fill="#8b4513" stroke="#8b4513" points="136.6949,-67.8744 142.9069,-59.2918 132.6986,-62.1273 136.6949,-67.8744"/>
</a>
</g>
</g>
<!-- (github.com/go&#45;i2p/go&#45;i2p/lib/common/router_address.RouterAddress).Cost -->
<g id="node3" class="node">
<title>(github.com/go&#45;i2p/go&#45;i2p/lib/common/router_address.RouterAddress).Cost</title>
<g id="a_node3"><a xlink:title="(github.com/go&#45;i2p/go&#45;i2p/lib/common/router_address.RouterAddress).Cost | defined in router_address.go:163">
<path fill="#ffe4b5" stroke="#000000" stroke-width="1.5" d="M226.3696,-138C226.3696,-138 196.3696,-138 196.3696,-138 190.3696,-138 184.3696,-132 184.3696,-126 184.3696,-126 184.3696,-114 184.3696,-114 184.3696,-108 190.3696,-102 196.3696,-102 196.3696,-102 226.3696,-102 226.3696,-102 232.3696,-102 238.3696,-108 238.3696,-114 238.3696,-114 238.3696,-126 238.3696,-126 238.3696,-132 232.3696,-138 226.3696,-138"/>
<text text-anchor="middle" x="211.3696" y="-115.8" font-family="Verdana" font-size="14.00" fill="#000000">Cost</text>
</a>
</g>
</g>
<!-- github.com/go&#45;i2p/go&#45;i2p/lib/common/fuzz/router_address.Fuzz&#45;&gt;(github.com/go&#45;i2p/go&#45;i2p/lib/common/router_address.RouterAddress).Cost -->
<g id="edge2" class="edge">
<title>github.com/go&#45;i2p/go&#45;i2p/lib/common/fuzz/router_address.Fuzz&#45;&gt;(github.com/go&#45;i2p/go&#45;i2p/lib/common/router_address.RouterAddress).Cost</title>
<g id="a_edge2"><a xlink:title="at fuzz.go:7: calling [(github.com/go&#45;i2p/go&#45;i2p/lib/common/router_address.RouterAddress).Cost]">
<path fill="none" stroke="#8b4513" d="M70.0515,-171.1993C98.3189,-160.9581 142.8584,-144.8215 174.37,-133.4049"/>
<polygon fill="#8b4513" stroke="#8b4513" points="175.8964,-136.5746 184.1061,-129.8775 173.5119,-129.9932 175.8964,-136.5746"/>
</a>
</g>
</g>
<!-- (github.com/go&#45;i2p/go&#45;i2p/lib/common/router_address.RouterAddress).Expiration -->
<g id="node4" class="node">
<title>(github.com/go&#45;i2p/go&#45;i2p/lib/common/router_address.RouterAddress).Expiration</title>
<g id="a_node4"><a xlink:title="(github.com/go&#45;i2p/go&#45;i2p/lib/common/router_address.RouterAddress).Expiration | defined in router_address.go:168">
<path fill="#ffe4b5" stroke="#000000" stroke-width="1.5" d="M240.9693,-199C240.9693,-199 181.7699,-199 181.7699,-199 175.7699,-199 169.7699,-193 169.7699,-187 169.7699,-187 169.7699,-175 169.7699,-175 169.7699,-169 175.7699,-163 181.7699,-163 181.7699,-163 240.9693,-163 240.9693,-163 246.9693,-163 252.9693,-169 252.9693,-175 252.9693,-175 252.9693,-187 252.9693,-187 252.9693,-193 246.9693,-199 240.9693,-199"/>
<text text-anchor="middle" x="211.3696" y="-176.8" font-family="Verdana" font-size="14.00" fill="#000000">Expiration</text>
</a>
</g>
</g>
<!-- github.com/go&#45;i2p/go&#45;i2p/lib/common/fuzz/router_address.Fuzz&#45;&gt;(github.com/go&#45;i2p/go&#45;i2p/lib/common/router_address.RouterAddress).Expiration -->
<g id="edge3" class="edge">
<title>github.com/go&#45;i2p/go&#45;i2p/lib/common/fuzz/router_address.Fuzz&#45;&gt;(github.com/go&#45;i2p/go&#45;i2p/lib/common/router_address.RouterAddress).Expiration</title>
<g id="a_edge3"><a xlink:title="at fuzz.go:8: calling [(github.com/go&#45;i2p/go&#45;i2p/lib/common/router_address.RouterAddress).Expiration]">
<path fill="none" stroke="#8b4513" d="M70.0515,-181C94.0828,-181 129.8746,-181 159.4241,-181"/>
<polygon fill="#8b4513" stroke="#8b4513" points="159.5863,-184.5001 169.5862,-181 159.5862,-177.5001 159.5863,-184.5001"/>
</a>
</g>
</g>
<!-- (github.com/go&#45;i2p/go&#45;i2p/lib/common/router_address.RouterAddress).Options -->
<g id="node5" class="node">
<title>(github.com/go&#45;i2p/go&#45;i2p/lib/common/router_address.RouterAddress).Options</title>
<g id="a_node5"><a xlink:title="(github.com/go&#45;i2p/go&#45;i2p/lib/common/router_address.RouterAddress).Options | defined in router_address.go:305">
<path fill="#ffe4b5" stroke="#000000" stroke-width="1.5" d="M233.7028,-260C233.7028,-260 189.0364,-260 189.0364,-260 183.0364,-260 177.0364,-254 177.0364,-248 177.0364,-248 177.0364,-236 177.0364,-236 177.0364,-230 183.0364,-224 189.0364,-224 189.0364,-224 233.7028,-224 233.7028,-224 239.7028,-224 245.7028,-230 245.7028,-236 245.7028,-236 245.7028,-248 245.7028,-248 245.7028,-254 239.7028,-260 233.7028,-260"/>
<text text-anchor="middle" x="211.3696" y="-237.8" font-family="Verdana" font-size="14.00" fill="#000000">Options</text>
</a>
</g>
</g>
<!-- github.com/go&#45;i2p/go&#45;i2p/lib/common/fuzz/router_address.Fuzz&#45;&gt;(github.com/go&#45;i2p/go&#45;i2p/lib/common/router_address.RouterAddress).Options -->
<g id="edge4" class="edge">
<title>github.com/go&#45;i2p/go&#45;i2p/lib/common/fuzz/router_address.Fuzz&#45;&gt;(github.com/go&#45;i2p/go&#45;i2p/lib/common/router_address.RouterAddress).Options</title>
<g id="a_edge4"><a xlink:title="at fuzz.go:9: calling [(github.com/go&#45;i2p/go&#45;i2p/lib/common/router_address.RouterAddress).Options]">
<path fill="none" stroke="#8b4513" d="M70.0515,-190.8007C96.3058,-200.3126 136.5971,-214.91 167.4499,-226.088"/>
<polygon fill="#8b4513" stroke="#8b4513" points="166.5115,-229.4705 177.1057,-229.5862 168.8959,-222.8892 166.5115,-229.4705"/>
</a>
</g>
</g>
<!-- (github.com/go&#45;i2p/go&#45;i2p/lib/common/router_address.RouterAddress).TransportStyle -->
<g id="node6" class="node">
<title>(github.com/go&#45;i2p/go&#45;i2p/lib/common/router_address.RouterAddress).TransportStyle</title>
<g id="a_node6"><a xlink:title="(github.com/go&#45;i2p/go&#45;i2p/lib/common/router_address.RouterAddress).TransportStyle | defined in router_address.go:173">
<path fill="#ffe4b5" stroke="#000000" stroke-width="1.5" d="M253.0718,-321C253.0718,-321 169.6674,-321 169.6674,-321 163.6674,-321 157.6674,-315 157.6674,-309 157.6674,-309 157.6674,-297 157.6674,-297 157.6674,-291 163.6674,-285 169.6674,-285 169.6674,-285 253.0718,-285 253.0718,-285 259.0718,-285 265.0718,-291 265.0718,-297 265.0718,-297 265.0718,-309 265.0718,-309 265.0718,-315 259.0718,-321 253.0718,-321"/>
<text text-anchor="middle" x="211.3696" y="-298.8" font-family="Verdana" font-size="14.00" fill="#000000">TransportStyle</text>
</a>
</g>
</g>
<!-- github.com/go&#45;i2p/go&#45;i2p/lib/common/fuzz/router_address.Fuzz&#45;&gt;(github.com/go&#45;i2p/go&#45;i2p/lib/common/router_address.RouterAddress).TransportStyle -->
<g id="edge5" class="edge">
<title>github.com/go&#45;i2p/go&#45;i2p/lib/common/fuzz/router_address.Fuzz&#45;&gt;(github.com/go&#45;i2p/go&#45;i2p/lib/common/router_address.RouterAddress).TransportStyle</title>
<g id="a_edge5"><a xlink:title="at fuzz.go:10: calling [(github.com/go&#45;i2p/go&#45;i2p/lib/common/router_address.RouterAddress).TransportStyle]">
<path fill="none" stroke="#8b4513" d="M57.185,-199.133C73.9077,-219.4785 103.4438,-252.332 135,-273 139.2117,-275.7585 143.7162,-278.3272 148.3523,-280.7058"/>
<polygon fill="#8b4513" stroke="#8b4513" points="146.8581,-283.8709 157.3876,-285.0458 149.889,-277.561 146.8581,-283.8709"/>
</a>
</g>
</g>
</g>
</svg>
