<?xml version="1.0" encoding="UTF-8" standalone="no"?>
<!DOCTYPE svg PUBLIC "-//W3C//DTD SVG 1.1//EN"
 "http://www.w3.org/Graphics/SVG/1.1/DTD/svg11.dtd">
<!-- Generated by graphviz version 2.40.1 (20161225.0304)
 -->
<!-- Title: gocallvis Pages: 1 -->
<svg width="486pt" height="1002pt"
 viewBox="0.00 0.00 485.76 1002.00" xmlns="http://www.w3.org/2000/svg" xmlns:xlink="http://www.w3.org/1999/xlink">
<g id="graph0" class="graph" transform="scale(1 1) rotate(0) translate(0 1002)">
<title>gocallvis</title>
<polygon fill="#d3d3d3" stroke="transparent" points="0,0 0,-1002 485.7576,-1002 485.7576,0 0,0"/>
<g id="clust1" class="cluster">
<title>cluster_focus</title>
<polygon fill="#e6ecfa" stroke="#000000" stroke-width=".5" points="8,-8 8,-994 477.7576,-994 477.7576,-8 8,-8"/>
<text text-anchor="middle" x="242.8788" y="-973.8" font-family="Arial" font-size="18.00" fill="#000000">testutil</text>
</g>
<g id="clust3" class="cluster">
<title>cluster_github.com/go&#45;i2p/crypto/ed25519.Ed25519PrivateKey</title>
<g id="a_clust3"><a xlink:title="type: github.com/go&#45;i2p/crypto/ed25519.Ed25519PrivateKey">
<path fill="#eed8ae" stroke="#000000" stroke-width=".5" d="M304.7442,-878C304.7442,-878 438.9588,-878 438.9588,-878 444.9588,-878 450.9588,-884 450.9588,-890 450.9588,-890 450.9588,-944 450.9588,-944 450.9588,-950 444.9588,-956 438.9588,-956 438.9588,-956 304.7442,-956 304.7442,-956 298.7442,-956 292.7442,-950 292.7442,-944 292.7442,-944 292.7442,-890 292.7442,-890 292.7442,-884 298.7442,-878 304.7442,-878"/>
<text text-anchor="middle" x="371.8515" y="-886.5" font-family="Arial" font-size="15.00" fill="#222222">(Ed25519PrivateKey)</text>
</a>
</g>
</g>
<g id="clust2" class="cluster">
<title>cluster_github.com/go&#45;i2p/common/key_certificate.KeyCertificate</title>
<g id="a_clust2"><a xlink:title="type: github.com/go&#45;i2p/common/key_certificate.KeyCertificate">
<path fill="#eed8ae" stroke="#000000" stroke-width=".5" d="M300.4686,-731C300.4686,-731 443.2344,-731 443.2344,-731 449.2344,-731 455.2344,-737 455.2344,-743 455.2344,-743 455.2344,-858 455.2344,-858 455.2344,-864 449.2344,-870 443.2344,-870 443.2344,-870 300.4686,-870 300.4686,-870 294.4686,-870 288.4686,-864 288.4686,-858 288.4686,-858 288.4686,-743 288.4686,-743 288.4686,-737 294.4686,-731 300.4686,-731"/>
<text text-anchor="middle" x="371.8515" y="-739.5" font-family="Arial" font-size="15.00" fill="#222222">(KeyCertificate)</text>
</a>
</g>
</g>
<!-- github.com/go&#45;i2p/go&#45;i2p/lib/testutil.CreateSignedTestRouterInfo -->
<g id="node1" class="node">
<title>github.com/go&#45;i2p/go&#45;i2p/lib/testutil.CreateSignedTestRouterInfo</title>
<g id="a_node1"><a xlink:title="github.com/go&#45;i2p/go&#45;i2p/lib/testutil.CreateSignedTestRouterInfo | defined in routerinfo.go:45&#10;at routerinfo.go:65: calling [github.com/go&#45;i2p/crypto/elg.ElgamalGenerate]&#10;at routerinfo.go:75: calling [github.com/go&#45;i2p/common/data.NewIntegerFromInt]&#10;at routerinfo.go:77: calling [github.com/go&#45;i2p/common/data.NewIntegerFromInt]&#10;at routerinfo.go:85: calling [github.com/go&#45;i2p/common/key_certificate.KeyCertificateFromCertificate]&#10;at routerinfo.go:89: calling [(github.com/go&#45;i2p/common/key_certificate.KeyCertificate).CryptoSize]&#10;at routerinfo.go:90: calling [(github.com/go&#45;i2p/common/key_certificate.KeyCertificate).SigningPublicKeySize]&#10;at routerinfo.go:93: calling [github.com/go&#45;i2p/crypto/rand.Read]&#10;at routerinfo.go:111: calling [github.com/go&#45;i2p/common/router_info.NewRouterInfo]&#10;at routerinfo.go:54: calling [github.com/go&#45;i2p/crypto/ed25519.GenerateEd25519Key]&#10;at routerinfo.go:55: calling [github.com/stretchr/testify/require.NoError]&#10;at routerinfo.go:59: calling [github.com/stretchr/testify/require.NoError]&#10;at routerinfo.go:66: calling [github.com/stretchr/testify/require.NoError]&#10;at routerinfo.go:76: calling [github.com/stretchr/testify/require.NoError]&#10;at routerinfo.go:78: calling [github.com/stretchr/testify/require.NoError]&#10;at routerinfo.go:83: calling [github.com/stretchr/testify/require.NoError]&#10;at routerinfo.go:86: calling [github.com/stretchr/testify/require.NoError]&#10;at routerinfo.go:94: calling [github.com/stretchr/testify/require.NoError]&#10;at routerinfo.go:98: calling [github.com/stretchr/testify/require.NoError]&#10;at routerinfo.go:102: calling [github.com/stretchr/testify/require.NoError]&#10;at routerinfo.go:119: calling [github.com/stretchr/testify/require.NoError]&#10;at routerinfo.go:82: calling [github.com/go&#45;i2p/common/certificate.NewCertificateWithType]&#10;at routerinfo.go:97: calling [github.com/go&#45;i2p/common/router_identity.NewRouterIdentity]&#10;at routerinfo.go:58: calling [(github.com/go&#45;i2p/crypto/ed25519.Ed25519PrivateKey).Public]&#10;at routerinfo.go:70: calling [github.com/stretchr/testify/require.LessOrEqual]&#10;at routerinfo.go:101: calling [github.com/go&#45;i2p/common/router_address.NewRouterAddress]&#10;at routerinfo.go:49: calling [github.com/go&#45;i2p/go&#45;i2p/lib/testutil.DefaultRouterAddressConfig]">
<path fill="#add8e6" stroke="#000000" stroke-width="1.5" d="M188.9181,-479C188.9181,-479 28.0273,-479 28.0273,-479 22.0273,-479 16.0273,-473 16.0273,-467 16.0273,-467 16.0273,-455 16.0273,-455 16.0273,-449 22.0273,-443 28.0273,-443 28.0273,-443 188.9181,-443 188.9181,-443 194.9181,-443 200.9181,-449 200.9181,-455 200.9181,-455 200.9181,-467 200.9181,-467 200.9181,-473 194.9181,-479 188.9181,-479"/>
<text text-anchor="middle" x="108.4727" y="-456.8" font-family="Verdana" font-size="14.00" fill="#000000">CreateSignedTestRouterInfo</text>
</a>
</g>
</g>
<!-- github.com/go&#45;i2p/go&#45;i2p/lib/testutil.DefaultRouterAddressConfig -->
<g id="node2" class="node">
<title>github.com/go&#45;i2p/go&#45;i2p/lib/testutil.DefaultRouterAddressConfig</title>
<g id="a_node2"><a xlink:title="github.com/go&#45;i2p/go&#45;i2p/lib/testutil.DefaultRouterAddressConfig | defined in routerinfo.go:33">
<path fill="#add8e6" stroke="#000000" stroke-width="1.5" d="M454.1904,-52C454.1904,-52 289.5126,-52 289.5126,-52 283.5126,-52 277.5126,-46 277.5126,-40 277.5126,-40 277.5126,-28 277.5126,-28 277.5126,-22 283.5126,-16 289.5126,-16 289.5126,-16 454.1904,-16 454.1904,-16 460.1904,-16 466.1904,-22 466.1904,-28 466.1904,-28 466.1904,-40 466.1904,-40 466.1904,-46 460.1904,-52 454.1904,-52"/>
<text text-anchor="middle" x="371.8515" y="-29.8" font-family="Verdana" font-size="14.00" fill="#000000">DefaultRouterAddressConfig</text>
</a>
</g>
</g>
<!-- github.com/go&#45;i2p/go&#45;i2p/lib/testutil.CreateSignedTestRouterInfo&#45;&gt;github.com/go&#45;i2p/go&#45;i2p/lib/testutil.DefaultRouterAddressConfig -->
<g id="edge15" class="edge">
<title>github.com/go&#45;i2p/go&#45;i2p/lib/testutil.CreateSignedTestRouterInfo&#45;&gt;github.com/go&#45;i2p/go&#45;i2p/lib/testutil.DefaultRouterAddressConfig</title>
<g id="a_edge15"><a xlink:title="at routerinfo.go:49: calling [github.com/go&#45;i2p/go&#45;i2p/lib/testutil.DefaultRouterAddressConfig]">
<path fill="none" stroke="#000000" d="M110.6314,-442.9728C119.0296,-380.8614 155.1824,-173.619 273.9454,-65 276.9673,-62.2362 280.2351,-59.7188 283.6803,-57.4259"/>
<polygon fill="#000000" stroke="#000000" points="285.7396,-60.2746 292.5706,-52.1759 282.1802,-54.247 285.7396,-60.2746"/>
</a>
</g>
</g>
<!-- github.com/go&#45;i2p/crypto/ed25519.GenerateEd25519Key -->
<g id="node3" class="node">
<title>github.com/go&#45;i2p/crypto/ed25519.GenerateEd25519Key</title>
<g id="a_node3"><a xlink:title="github.com/go&#45;i2p/crypto/ed25519.GenerateEd25519Key | defined in utils.go:18">
<path fill="#ffe4b5" stroke="#000000" stroke-width="1.5" d="M434.242,-113C434.242,-113 309.461,-113 309.461,-113 303.461,-113 297.461,-107 297.461,-101 297.461,-101 297.461,-89 297.461,-89 297.461,-83 303.461,-77 309.461,-77 309.461,-77 434.242,-77 434.242,-77 440.242,-77 446.242,-83 446.242,-89 446.242,-89 446.242,-101 446.242,-101 446.242,-107 440.242,-113 434.242,-113"/>
<text text-anchor="middle" x="371.8515" y="-99.2" font-family="Verdana" font-size="14.00" fill="#000000">ed25519</text>
<text text-anchor="middle" x="371.8515" y="-82.4" font-family="Verdana" font-size="14.00" fill="#000000">GenerateEd25519Key</text>
</a>
</g>
</g>
<!-- github.com/go&#45;i2p/go&#45;i2p/lib/testutil.CreateSignedTestRouterInfo&#45;&gt;github.com/go&#45;i2p/crypto/ed25519.GenerateEd25519Key -->
<g id="edge8" class="edge">
<title>github.com/go&#45;i2p/go&#45;i2p/lib/testutil.CreateSignedTestRouterInfo&#45;&gt;github.com/go&#45;i2p/crypto/ed25519.GenerateEd25519Key</title>
<g id="a_edge8"><a xlink:title="at routerinfo.go:54: calling [github.com/go&#45;i2p/crypto/ed25519.GenerateEd25519Key]">
<path fill="none" stroke="#8b4513" d="M112.2092,-442.651C124.5952,-386.5295 169.5948,-215.5695 273.9454,-126 278.3656,-122.206 283.2522,-118.8754 288.4142,-115.9519"/>
<polygon fill="#8b4513" stroke="#8b4513" points="290.0095,-119.0672 297.3277,-111.406 286.8292,-112.8313 290.0095,-119.0672"/>
</a>
</g>
</g>
<!-- github.com/stretchr/testify/require.NoError -->
<g id="node4" class="node">
<title>github.com/stretchr/testify/require.NoError</title>
<g id="a_node4"><a xlink:title="github.com/stretchr/testify/require.NoError | defined in require.go:1394">
<path fill="#ffe4b5" stroke="#000000" stroke-width="1.5" d="M394.9934,-174C394.9934,-174 348.7096,-174 348.7096,-174 342.7096,-174 336.7096,-168 336.7096,-162 336.7096,-162 336.7096,-150 336.7096,-150 336.7096,-144 342.7096,-138 348.7096,-138 348.7096,-138 394.9934,-138 394.9934,-138 400.9934,-138 406.9934,-144 406.9934,-150 406.9934,-150 406.9934,-162 406.9934,-162 406.9934,-168 400.9934,-174 394.9934,-174"/>
<text text-anchor="middle" x="371.8515" y="-160.2" font-family="Verdana" font-size="14.00" fill="#000000">require</text>
<text text-anchor="middle" x="371.8515" y="-143.4" font-family="Verdana" font-size="14.00" fill="#000000">NoError</text>
</a>
</g>
</g>
<!-- github.com/go&#45;i2p/go&#45;i2p/lib/testutil.CreateSignedTestRouterInfo&#45;&gt;github.com/stretchr/testify/require.NoError -->
<g id="edge9" class="edge">
<title>github.com/go&#45;i2p/go&#45;i2p/lib/testutil.CreateSignedTestRouterInfo&#45;&gt;github.com/stretchr/testify/require.NoError</title>
<g id="a_edge9"><a xlink:title="at routerinfo.go:55: calling [github.com/stretchr/testify/require.NoError]&#10;at routerinfo.go:59: calling [github.com/stretchr/testify/require.NoError]&#10;at routerinfo.go:66: calling [github.com/stretchr/testify/require.NoError]&#10;at routerinfo.go:76: calling [github.com/stretchr/testify/require.NoError]&#10;at routerinfo.go:78: calling [github.com/stretchr/testify/require.NoError]&#10;at routerinfo.go:83: calling [github.com/stretchr/testify/require.NoError]&#10;at routerinfo.go:86: calling [github.com/stretchr/testify/require.NoError]&#10;at routerinfo.go:94: calling [github.com/stretchr/testify/require.NoError]&#10;at routerinfo.go:98: calling [github.com/stretchr/testify/require.NoError]&#10;at routerinfo.go:102: calling [github.com/stretchr/testify/require.NoError]&#10;at routerinfo.go:119: calling [github.com/stretchr/testify/require.NoError]">
<path fill="none" stroke="#8b4513" d="M114.2853,-442.9046C130.9064,-394.0458 183.3537,-258.341 273.9454,-187 288.9332,-175.1971 308.4962,-167.845 326.1914,-163.2851"/>
<polygon fill="#8b4513" stroke="#8b4513" points="327.4053,-166.5958 336.3455,-160.9104 325.8112,-159.7797 327.4053,-166.5958"/>
</a>
</g>
</g>
<!-- github.com/go&#45;i2p/crypto/elg.ElgamalGenerate -->
<g id="node5" class="node">
<title>github.com/go&#45;i2p/crypto/elg.ElgamalGenerate</title>
<g id="a_node5"><a xlink:title="github.com/go&#45;i2p/crypto/elg.ElgamalGenerate | defined in elg.go:116">
<path fill="#ffe4b5" stroke="#000000" stroke-width="1.5" d="M420.5214,-235C420.5214,-235 323.1816,-235 323.1816,-235 317.1816,-235 311.1816,-229 311.1816,-223 311.1816,-223 311.1816,-211 311.1816,-211 311.1816,-205 317.1816,-199 323.1816,-199 323.1816,-199 420.5214,-199 420.5214,-199 426.5214,-199 432.5214,-205 432.5214,-211 432.5214,-211 432.5214,-223 432.5214,-223 432.5214,-229 426.5214,-235 420.5214,-235"/>
<text text-anchor="middle" x="371.8515" y="-221.2" font-family="Verdana" font-size="14.00" fill="#000000">elg</text>
<text text-anchor="middle" x="371.8515" y="-204.4" font-family="Verdana" font-size="14.00" fill="#000000">ElgamalGenerate</text>
</a>
</g>
</g>
<!-- github.com/go&#45;i2p/go&#45;i2p/lib/testutil.CreateSignedTestRouterInfo&#45;&gt;github.com/go&#45;i2p/crypto/elg.ElgamalGenerate -->
<g id="edge1" class="edge">
<title>github.com/go&#45;i2p/go&#45;i2p/lib/testutil.CreateSignedTestRouterInfo&#45;&gt;github.com/go&#45;i2p/crypto/elg.ElgamalGenerate</title>
<g id="a_edge1"><a xlink:title="at routerinfo.go:65: calling [github.com/go&#45;i2p/crypto/elg.ElgamalGenerate]">
<path fill="none" stroke="#8b4513" d="M117.5702,-442.8746C139.0407,-401.926 196.9089,-301.6684 273.9454,-248 282.3709,-242.1303 291.9608,-237.3326 301.7647,-233.4217"/>
<polygon fill="#8b4513" stroke="#8b4513" points="303.0305,-236.6853 311.1988,-229.9377 300.6055,-230.1188 303.0305,-236.6853"/>
</a>
</g>
</g>
<!-- github.com/stretchr/testify/require.LessOrEqual -->
<g id="node6" class="node">
<title>github.com/stretchr/testify/require.LessOrEqual</title>
<g id="a_node6"><a xlink:title="github.com/stretchr/testify/require.LessOrEqual | defined in require.go:1241">
<path fill="#ffe4b5" stroke="#000000" stroke-width="1.5" d="M408.4329,-296C408.4329,-296 335.2701,-296 335.2701,-296 329.2701,-296 323.2701,-290 323.2701,-284 323.2701,-284 323.2701,-272 323.2701,-272 323.2701,-266 329.2701,-260 335.2701,-260 335.2701,-260 408.4329,-260 408.4329,-260 414.4329,-260 420.4329,-266 420.4329,-272 420.4329,-272 420.4329,-284 420.4329,-284 420.4329,-290 414.4329,-296 408.4329,-296"/>
<text text-anchor="middle" x="371.8515" y="-282.2" font-family="Verdana" font-size="14.00" fill="#000000">require</text>
<text text-anchor="middle" x="371.8515" y="-265.4" font-family="Verdana" font-size="14.00" fill="#000000">LessOrEqual</text>
</a>
</g>
</g>
<!-- github.com/go&#45;i2p/go&#45;i2p/lib/testutil.CreateSignedTestRouterInfo&#45;&gt;github.com/stretchr/testify/require.LessOrEqual -->
<g id="edge13" class="edge">
<title>github.com/go&#45;i2p/go&#45;i2p/lib/testutil.CreateSignedTestRouterInfo&#45;&gt;github.com/stretchr/testify/require.LessOrEqual</title>
<g id="a_edge13"><a xlink:title="at routerinfo.go:70: calling [github.com/stretchr/testify/require.LessOrEqual]">
<path fill="none" stroke="#8b4513" d="M123.4318,-442.8062C150.3557,-411.1851 210.1416,-345.9407 273.9454,-309 286.1132,-301.9552 300.075,-296.309 313.5709,-291.8682"/>
<polygon fill="#8b4513" stroke="#8b4513" points="314.7756,-295.1589 323.2834,-288.8449 312.695,-288.4752 314.7756,-295.1589"/>
</a>
</g>
</g>
<!-- github.com/go&#45;i2p/common/data.NewIntegerFromInt -->
<g id="node7" class="node">
<title>github.com/go&#45;i2p/common/data.NewIntegerFromInt</title>
<g id="a_node7"><a xlink:title="github.com/go&#45;i2p/common/data.NewIntegerFromInt | defined in integer.go:131">
<path fill="#ffe4b5" stroke="#000000" stroke-width="1.5" d="M427.8053,-357C427.8053,-357 315.8977,-357 315.8977,-357 309.8977,-357 303.8977,-351 303.8977,-345 303.8977,-345 303.8977,-333 303.8977,-333 303.8977,-327 309.8977,-321 315.8977,-321 315.8977,-321 427.8053,-321 427.8053,-321 433.8053,-321 439.8053,-327 439.8053,-333 439.8053,-333 439.8053,-345 439.8053,-345 439.8053,-351 433.8053,-357 427.8053,-357"/>
<text text-anchor="middle" x="371.8515" y="-343.2" font-family="Verdana" font-size="14.00" fill="#000000">data</text>
<text text-anchor="middle" x="371.8515" y="-326.4" font-family="Verdana" font-size="14.00" fill="#000000">NewIntegerFromInt</text>
</a>
</g>
</g>
<!-- github.com/go&#45;i2p/go&#45;i2p/lib/testutil.CreateSignedTestRouterInfo&#45;&gt;github.com/go&#45;i2p/common/data.NewIntegerFromInt -->
<g id="edge2" class="edge">
<title>github.com/go&#45;i2p/go&#45;i2p/lib/testutil.CreateSignedTestRouterInfo&#45;&gt;github.com/go&#45;i2p/common/data.NewIntegerFromInt</title>
<g id="a_edge2"><a xlink:title="at routerinfo.go:75: calling [github.com/go&#45;i2p/common/data.NewIntegerFromInt]&#10;at routerinfo.go:77: calling [github.com/go&#45;i2p/common/data.NewIntegerFromInt]">
<path fill="none" stroke="#8b4513" d="M137.1909,-442.9334C169.5232,-423.1388 224.0689,-391.3655 273.9454,-370 281.9235,-366.5825 290.4076,-363.3437 298.9168,-360.3393"/>
<polygon fill="#8b4513" stroke="#8b4513" points="300.1851,-363.6045 308.509,-357.0499 297.9144,-356.9831 300.1851,-363.6045"/>
</a>
</g>
</g>
<!-- github.com/go&#45;i2p/common/certificate.NewCertificateWithType -->
<g id="node8" class="node">
<title>github.com/go&#45;i2p/common/certificate.NewCertificateWithType</title>
<g id="a_node8"><a xlink:title="github.com/go&#45;i2p/common/certificate.NewCertificateWithType | defined in certificate_struct.go:65">
<path fill="#ffe4b5" stroke="#000000" stroke-width="1.5" d="M443.1211,-418C443.1211,-418 300.5819,-418 300.5819,-418 294.5819,-418 288.5819,-412 288.5819,-406 288.5819,-406 288.5819,-394 288.5819,-394 288.5819,-388 294.5819,-382 300.5819,-382 300.5819,-382 443.1211,-382 443.1211,-382 449.1211,-382 455.1211,-388 455.1211,-394 455.1211,-394 455.1211,-406 455.1211,-406 455.1211,-412 449.1211,-418 443.1211,-418"/>
<text text-anchor="middle" x="371.8515" y="-404.2" font-family="Verdana" font-size="14.00" fill="#000000">certificate</text>
<text text-anchor="middle" x="371.8515" y="-387.4" font-family="Verdana" font-size="14.00" fill="#000000">NewCertificateWithType</text>
</a>
</g>
</g>
<!-- github.com/go&#45;i2p/go&#45;i2p/lib/testutil.CreateSignedTestRouterInfo&#45;&gt;github.com/go&#45;i2p/common/certificate.NewCertificateWithType -->
<g id="edge10" class="edge">
<title>github.com/go&#45;i2p/go&#45;i2p/lib/testutil.CreateSignedTestRouterInfo&#45;&gt;github.com/go&#45;i2p/common/certificate.NewCertificateWithType</title>
<g id="a_edge10"><a xlink:title="at routerinfo.go:82: calling [github.com/go&#45;i2p/common/certificate.NewCertificateWithType]">
<path fill="none" stroke="#8b4513" d="M186.426,-442.9456C217.0859,-435.8446 252.4363,-427.6572 283.9956,-420.3479"/>
<polygon fill="#8b4513" stroke="#8b4513" points="285.1458,-423.6742 294.0982,-418.0081 283.5663,-416.8548 285.1458,-423.6742"/>
</a>
</g>
</g>
<!-- github.com/go&#45;i2p/common/key_certificate.KeyCertificateFromCertificate -->
<g id="node9" class="node">
<title>github.com/go&#45;i2p/common/key_certificate.KeyCertificateFromCertificate</title>
<g id="a_node9"><a xlink:title="github.com/go&#45;i2p/common/key_certificate.KeyCertificateFromCertificate | defined in key_certificate_struct.go:212">
<path fill="#ffe4b5" stroke="#000000" stroke-width="1.5" d="M457.6638,-479C457.6638,-479 286.0392,-479 286.0392,-479 280.0392,-479 274.0392,-473 274.0392,-467 274.0392,-467 274.0392,-455 274.0392,-455 274.0392,-449 280.0392,-443 286.0392,-443 286.0392,-443 457.6638,-443 457.6638,-443 463.6638,-443 469.6638,-449 469.6638,-455 469.6638,-455 469.6638,-467 469.6638,-467 469.6638,-473 463.6638,-479 457.6638,-479"/>
<text text-anchor="middle" x="371.8515" y="-465.2" font-family="Verdana" font-size="14.00" fill="#000000">key_certificate</text>
<text text-anchor="middle" x="371.8515" y="-448.4" font-family="Verdana" font-size="14.00" fill="#000000">KeyCertificateFromCertificate</text>
</a>
</g>
</g>
<!-- github.com/go&#45;i2p/go&#45;i2p/lib/testutil.CreateSignedTestRouterInfo&#45;&gt;github.com/go&#45;i2p/common/key_certificate.KeyCertificateFromCertificate -->
<g id="edge3" class="edge">
<title>github.com/go&#45;i2p/go&#45;i2p/lib/testutil.CreateSignedTestRouterInfo&#45;&gt;github.com/go&#45;i2p/common/key_certificate.KeyCertificateFromCertificate</title>
<g id="a_edge3"><a xlink:title="at routerinfo.go:85: calling [github.com/go&#45;i2p/common/key_certificate.KeyCertificateFromCertificate]">
<path fill="none" stroke="#8b4513" d="M200.9599,-461C221.2131,-461 242.8275,-461 263.6341,-461"/>
<polygon fill="#8b4513" stroke="#8b4513" points="263.7739,-464.5001 273.7738,-461 263.7738,-457.5001 263.7739,-464.5001"/>
</a>
</g>
</g>
<!-- github.com/go&#45;i2p/crypto/rand.Read -->
<g id="node10" class="node">
<title>github.com/go&#45;i2p/crypto/rand.Read</title>
<g id="a_node10"><a xlink:title="github.com/go&#45;i2p/crypto/rand.Read | defined in secure_reader.go:196">
<path fill="#ffe4b5" stroke="#000000" stroke-width="1.5" d="M386.8515,-540C386.8515,-540 356.8515,-540 356.8515,-540 350.8515,-540 344.8515,-534 344.8515,-528 344.8515,-528 344.8515,-516 344.8515,-516 344.8515,-510 350.8515,-504 356.8515,-504 356.8515,-504 386.8515,-504 386.8515,-504 392.8515,-504 398.8515,-510 398.8515,-516 398.8515,-516 398.8515,-528 398.8515,-528 398.8515,-534 392.8515,-540 386.8515,-540"/>
<text text-anchor="middle" x="371.8515" y="-526.2" font-family="Verdana" font-size="14.00" fill="#000000">rand</text>
<text text-anchor="middle" x="371.8515" y="-509.4" font-family="Verdana" font-size="14.00" fill="#000000">Read</text>
</a>
</g>
</g>
<!-- github.com/go&#45;i2p/go&#45;i2p/lib/testutil.CreateSignedTestRouterInfo&#45;&gt;github.com/go&#45;i2p/crypto/rand.Read -->
<g id="edge6" class="edge">
<title>github.com/go&#45;i2p/go&#45;i2p/lib/testutil.CreateSignedTestRouterInfo&#45;&gt;github.com/go&#45;i2p/crypto/rand.Read</title>
<g id="a_edge6"><a xlink:title="at routerinfo.go:93: calling [github.com/go&#45;i2p/crypto/rand.Read]">
<path fill="none" stroke="#8b4513" d="M186.426,-479.0544C235.3701,-490.3902 296.2676,-504.4944 334.6139,-513.3756"/>
<polygon fill="#8b4513" stroke="#8b4513" points="334.271,-516.8887 344.8029,-515.7354 335.8505,-510.0692 334.271,-516.8887"/>
</a>
</g>
</g>
<!-- github.com/go&#45;i2p/common/router_identity.NewRouterIdentity -->
<g id="node11" class="node">
<title>github.com/go&#45;i2p/common/router_identity.NewRouterIdentity</title>
<g id="a_node11"><a xlink:title="github.com/go&#45;i2p/common/router_identity.NewRouterIdentity | defined in router_identity_struct.go:49">
<path fill="#ffe4b5" stroke="#000000" stroke-width="1.5" d="M425.9287,-601C425.9287,-601 317.7743,-601 317.7743,-601 311.7743,-601 305.7743,-595 305.7743,-589 305.7743,-589 305.7743,-577 305.7743,-577 305.7743,-571 311.7743,-565 317.7743,-565 317.7743,-565 425.9287,-565 425.9287,-565 431.9287,-565 437.9287,-571 437.9287,-577 437.9287,-577 437.9287,-589 437.9287,-589 437.9287,-595 431.9287,-601 425.9287,-601"/>
<text text-anchor="middle" x="371.8515" y="-587.2" font-family="Verdana" font-size="14.00" fill="#000000">router_identity</text>
<text text-anchor="middle" x="371.8515" y="-570.4" font-family="Verdana" font-size="14.00" fill="#000000">NewRouterIdentity</text>
</a>
</g>
</g>
<!-- github.com/go&#45;i2p/go&#45;i2p/lib/testutil.CreateSignedTestRouterInfo&#45;&gt;github.com/go&#45;i2p/common/router_identity.NewRouterIdentity -->
<g id="edge11" class="edge">
<title>github.com/go&#45;i2p/go&#45;i2p/lib/testutil.CreateSignedTestRouterInfo&#45;&gt;github.com/go&#45;i2p/common/router_identity.NewRouterIdentity</title>
<g id="a_edge11"><a xlink:title="at routerinfo.go:97: calling [github.com/go&#45;i2p/common/router_identity.NewRouterIdentity]">
<path fill="none" stroke="#8b4513" d="M136.5416,-479.0133C168.7388,-499.0977 223.5887,-531.5682 273.9454,-553 281.1339,-556.0594 288.7394,-558.9525 296.4071,-561.6462"/>
<polygon fill="#8b4513" stroke="#8b4513" points="295.5315,-565.0452 306.1259,-564.9491 297.7839,-558.4174 295.5315,-565.0452"/>
</a>
</g>
</g>
<!-- github.com/go&#45;i2p/common/router_address.NewRouterAddress -->
<g id="node12" class="node">
<title>github.com/go&#45;i2p/common/router_address.NewRouterAddress</title>
<g id="a_node12"><a xlink:title="github.com/go&#45;i2p/common/router_address.NewRouterAddress | defined in router_address.go:33">
<path fill="#ffe4b5" stroke="#000000" stroke-width="1.5" d="M427.2533,-662C427.2533,-662 316.4497,-662 316.4497,-662 310.4497,-662 304.4497,-656 304.4497,-650 304.4497,-650 304.4497,-638 304.4497,-638 304.4497,-632 310.4497,-626 316.4497,-626 316.4497,-626 427.2533,-626 427.2533,-626 433.2533,-626 439.2533,-632 439.2533,-638 439.2533,-638 439.2533,-650 439.2533,-650 439.2533,-656 433.2533,-662 427.2533,-662"/>
<text text-anchor="middle" x="371.8515" y="-648.2" font-family="Verdana" font-size="14.00" fill="#000000">router_address</text>
<text text-anchor="middle" x="371.8515" y="-631.4" font-family="Verdana" font-size="14.00" fill="#000000">NewRouterAddress</text>
</a>
</g>
</g>
<!-- github.com/go&#45;i2p/go&#45;i2p/lib/testutil.CreateSignedTestRouterInfo&#45;&gt;github.com/go&#45;i2p/common/router_address.NewRouterAddress -->
<g id="edge14" class="edge">
<title>github.com/go&#45;i2p/go&#45;i2p/lib/testutil.CreateSignedTestRouterInfo&#45;&gt;github.com/go&#45;i2p/common/router_address.NewRouterAddress</title>
<g id="a_edge14"><a xlink:title="at routerinfo.go:101: calling [github.com/go&#45;i2p/common/router_address.NewRouterAddress]">
<path fill="none" stroke="#8b4513" d="M123.1571,-479.1276C149.881,-510.9643 209.6679,-577.0439 273.9454,-614 280.6098,-617.8317 287.8163,-621.2249 295.1916,-624.2184"/>
<polygon fill="#8b4513" stroke="#8b4513" points="294.0048,-627.5116 304.5957,-627.7994 296.4958,-620.9698 294.0048,-627.5116"/>
</a>
</g>
</g>
<!-- github.com/go&#45;i2p/common/router_info.NewRouterInfo -->
<g id="node13" class="node">
<title>github.com/go&#45;i2p/common/router_info.NewRouterInfo</title>
<g id="a_node13"><a xlink:title="github.com/go&#45;i2p/common/router_info.NewRouterInfo | defined in router_info_struct.go:118">
<path fill="#ffe4b5" stroke="#000000" stroke-width="1.5" d="M415.703,-723C415.703,-723 328,-723 328,-723 322,-723 316,-717 316,-711 316,-711 316,-699 316,-699 316,-693 322,-687 328,-687 328,-687 415.703,-687 415.703,-687 421.703,-687 427.703,-693 427.703,-699 427.703,-699 427.703,-711 427.703,-711 427.703,-717 421.703,-723 415.703,-723"/>
<text text-anchor="middle" x="371.8515" y="-709.2" font-family="Verdana" font-size="14.00" fill="#000000">router_info</text>
<text text-anchor="middle" x="371.8515" y="-692.4" font-family="Verdana" font-size="14.00" fill="#000000">NewRouterInfo</text>
</a>
</g>
</g>
<!-- github.com/go&#45;i2p/go&#45;i2p/lib/testutil.CreateSignedTestRouterInfo&#45;&gt;github.com/go&#45;i2p/common/router_info.NewRouterInfo -->
<g id="edge7" class="edge">
<title>github.com/go&#45;i2p/go&#45;i2p/lib/testutil.CreateSignedTestRouterInfo&#45;&gt;github.com/go&#45;i2p/common/router_info.NewRouterInfo</title>
<g id="a_edge7"><a xlink:title="at routerinfo.go:111: calling [github.com/go&#45;i2p/common/router_info.NewRouterInfo]">
<path fill="none" stroke="#8b4513" d="M117.5117,-479.2623C138.8609,-520.5105 196.4941,-621.4468 273.9454,-675 283.6557,-681.7141 294.9162,-686.9636 306.2693,-691.0565"/>
<polygon fill="#8b4513" stroke="#8b4513" points="305.2021,-694.39 315.7957,-694.2293 307.414,-687.7487 305.2021,-694.39"/>
</a>
</g>
</g>
<!-- (github.com/go&#45;i2p/common/key_certificate.KeyCertificate).CryptoSize -->
<g id="node14" class="node">
<title>(github.com/go&#45;i2p/common/key_certificate.KeyCertificate).CryptoSize</title>
<g id="a_node14"><a xlink:title="(github.com/go&#45;i2p/common/key_certificate.KeyCertificate).CryptoSize | defined in key_certificate_struct.go:730">
<path fill="#ffe4b5" stroke="#000000" stroke-width="1.5" d="M413.5228,-801C413.5228,-801 330.1802,-801 330.1802,-801 324.1802,-801 318.1802,-795 318.1802,-789 318.1802,-789 318.1802,-777 318.1802,-777 318.1802,-771 324.1802,-765 330.1802,-765 330.1802,-765 413.5228,-765 413.5228,-765 419.5228,-765 425.5228,-771 425.5228,-777 425.5228,-777 425.5228,-789 425.5228,-789 425.5228,-795 419.5228,-801 413.5228,-801"/>
<text text-anchor="middle" x="371.8515" y="-787.2" font-family="Verdana" font-size="14.00" fill="#000000">key_certificate</text>
<text text-anchor="middle" x="371.8515" y="-770.4" font-family="Verdana" font-size="14.00" fill="#000000">CryptoSize</text>
</a>
</g>
</g>
<!-- github.com/go&#45;i2p/go&#45;i2p/lib/testutil.CreateSignedTestRouterInfo&#45;&gt;(github.com/go&#45;i2p/common/key_certificate.KeyCertificate).CryptoSize -->
<g id="edge4" class="edge">
<title>github.com/go&#45;i2p/go&#45;i2p/lib/testutil.CreateSignedTestRouterInfo&#45;&gt;(github.com/go&#45;i2p/common/key_certificate.KeyCertificate).CryptoSize</title>
<g id="a_edge4"><a xlink:title="at routerinfo.go:89: calling [(github.com/go&#45;i2p/common/key_certificate.KeyCertificate).CryptoSize]">
<path fill="none" stroke="#8b4513" d="M112.9043,-479.3146C126.6957,-532.1786 174.0467,-686.0154 273.9454,-761 283.95,-768.5095 296.0449,-773.5372 308.2703,-776.8845"/>
<polygon fill="#8b4513" stroke="#8b4513" points="307.5259,-780.3051 318.0654,-779.224 309.1521,-773.4966 307.5259,-780.3051"/>
</a>
</g>
</g>
<!-- (github.com/go&#45;i2p/common/key_certificate.KeyCertificate).SigningPublicKeySize -->
<g id="node15" class="node">
<title>(github.com/go&#45;i2p/common/key_certificate.KeyCertificate).SigningPublicKeySize</title>
<g id="a_node15"><a xlink:title="(github.com/go&#45;i2p/common/key_certificate.KeyCertificate).SigningPublicKeySize | defined in key_certificate_struct.go:387">
<path fill="#ffe4b5" stroke="#000000" stroke-width="1.5" d="M435.1175,-862C435.1175,-862 308.5855,-862 308.5855,-862 302.5855,-862 296.5855,-856 296.5855,-850 296.5855,-850 296.5855,-838 296.5855,-838 296.5855,-832 302.5855,-826 308.5855,-826 308.5855,-826 435.1175,-826 435.1175,-826 441.1175,-826 447.1175,-832 447.1175,-838 447.1175,-838 447.1175,-850 447.1175,-850 447.1175,-856 441.1175,-862 435.1175,-862"/>
<text text-anchor="middle" x="371.8515" y="-848.2" font-family="Verdana" font-size="14.00" fill="#000000">key_certificate</text>
<text text-anchor="middle" x="371.8515" y="-831.4" font-family="Verdana" font-size="14.00" fill="#000000">SigningPublicKeySize</text>
</a>
</g>
</g>
<!-- github.com/go&#45;i2p/go&#45;i2p/lib/testutil.CreateSignedTestRouterInfo&#45;&gt;(github.com/go&#45;i2p/common/key_certificate.KeyCertificate).SigningPublicKeySize -->
<g id="edge5" class="edge">
<title>github.com/go&#45;i2p/go&#45;i2p/lib/testutil.CreateSignedTestRouterInfo&#45;&gt;(github.com/go&#45;i2p/common/key_certificate.KeyCertificate).SigningPublicKeySize</title>
<g id="a_edge5"><a xlink:title="at routerinfo.go:90: calling [(github.com/go&#45;i2p/common/key_certificate.KeyCertificate).SigningPublicKeySize]">
<path fill="none" stroke="#8b4513" d="M111.6175,-479.1245C122.6212,-537.0252 164.8203,-719.2718 273.9454,-814 277.954,-817.4798 282.3595,-820.5559 287.0147,-823.2753"/>
<polygon fill="#8b4513" stroke="#8b4513" points="285.7501,-826.5628 296.2361,-828.0773 288.9832,-820.3542 285.7501,-826.5628"/>
</a>
</g>
</g>
<!-- (github.com/go&#45;i2p/crypto/ed25519.Ed25519PrivateKey).Public -->
<g id="node16" class="node">
<title>(github.com/go&#45;i2p/crypto/ed25519.Ed25519PrivateKey).Public</title>
<g id="a_node16"><a xlink:title="(github.com/go&#45;i2p/crypto/ed25519.Ed25519PrivateKey).Public | defined in ed25519_private_key.go:109">
<path fill="#ffe4b5" stroke="#000000" stroke-width="1.5" d="M396.0664,-948C396.0664,-948 347.6366,-948 347.6366,-948 341.6366,-948 335.6366,-942 335.6366,-936 335.6366,-936 335.6366,-924 335.6366,-924 335.6366,-918 341.6366,-912 347.6366,-912 347.6366,-912 396.0664,-912 396.0664,-912 402.0664,-912 408.0664,-918 408.0664,-924 408.0664,-924 408.0664,-936 408.0664,-936 408.0664,-942 402.0664,-948 396.0664,-948"/>
<text text-anchor="middle" x="371.8515" y="-934.2" font-family="Verdana" font-size="14.00" fill="#000000">ed25519</text>
<text text-anchor="middle" x="371.8515" y="-917.4" font-family="Verdana" font-size="14.00" fill="#000000">Public</text>
</a>
</g>
</g>
<!-- github.com/go&#45;i2p/go&#45;i2p/lib/testutil.CreateSignedTestRouterInfo&#45;&gt;(github.com/go&#45;i2p/crypto/ed25519.Ed25519PrivateKey).Public -->
<g id="edge12" class="edge">
<title>github.com/go&#45;i2p/go&#45;i2p/lib/testutil.CreateSignedTestRouterInfo&#45;&gt;(github.com/go&#45;i2p/crypto/ed25519.Ed25519PrivateKey).Public</title>
<g id="a_edge12"><a xlink:title="at routerinfo.go:58: calling [(github.com/go&#45;i2p/crypto/ed25519.Ed25519PrivateKey).Public]">
<path fill="none" stroke="#8b4513" d="M111.2101,-479.0289C121.4988,-541.3007 163.0838,-750.3842 273.9454,-876 288.0555,-891.9879 308.0839,-904.198 326.3532,-912.9285"/>
<polygon fill="#8b4513" stroke="#8b4513" points="325.1538,-916.2278 335.7059,-917.1784 328.0497,-909.8549 325.1538,-916.2278"/>
</a>
</g>
</g>
</g>
</svg>
