<?xml version="1.0" encoding="UTF-8" standalone="no"?>
<!DOCTYPE svg PUBLIC "-//W3C//DTD SVG 1.1//EN"
 "http://www.w3.org/Graphics/SVG/1.1/DTD/svg11.dtd">
<!-- Generated by graphviz version 2.40.1 (20161225.0304)
 -->
<!-- Title: gocallvis Pages: 1 -->
<svg width="486pt" height="1063pt"
 viewBox="0.00 0.00 485.76 1063.00" xmlns="http://www.w3.org/2000/svg" xmlns:xlink="http://www.w3.org/1999/xlink">
<g id="graph0" class="graph" transform="scale(1 1) rotate(0) translate(0 1063)">
<title>gocallvis</title>
<polygon fill="#d3d3d3" stroke="transparent" points="0,0 0,-1063 485.7576,-1063 485.7576,0 0,0"/>
<g id="clust1" class="cluster">
<title>cluster_focus</title>
<polygon fill="#e6ecfa" stroke="#000000" stroke-width=".5" points="8,-8 8,-1055 477.7576,-1055 477.7576,-8 8,-8"/>
<text text-anchor="middle" x="242.8788" y="-1034.8" font-family="Arial" font-size="18.00" fill="#000000">testutil</text>
</g>
<g id="clust3" class="cluster">
<title>cluster_github.com/go&#45;i2p/crypto/ed25519.Ed25519PrivateKey</title>
<g id="a_clust3"><a xlink:title="type: github.com/go&#45;i2p/crypto/ed25519.Ed25519PrivateKey">
<path fill="#eed8ae" stroke="#000000" stroke-width=".5" d="M304.7442,-939C304.7442,-939 438.9588,-939 438.9588,-939 444.9588,-939 450.9588,-945 450.9588,-951 450.9588,-951 450.9588,-1005 450.9588,-1005 450.9588,-1011 444.9588,-1017 438.9588,-1017 438.9588,-1017 304.7442,-1017 304.7442,-1017 298.7442,-1017 292.7442,-1011 292.7442,-1005 292.7442,-1005 292.7442,-951 292.7442,-951 292.7442,-945 298.7442,-939 304.7442,-939"/>
<text text-anchor="middle" x="371.8515" y="-947.5" font-family="Arial" font-size="15.00" fill="#222222">(Ed25519PrivateKey)</text>
</a>
</g>
</g>
<g id="clust2" class="cluster">
<title>cluster_github.com/go&#45;i2p/common/key_certificate.KeyCertificate</title>
<g id="a_clust2"><a xlink:title="type: github.com/go&#45;i2p/common/key_certificate.KeyCertificate">
<path fill="#eed8ae" stroke="#000000" stroke-width=".5" d="M300.4686,-792C300.4686,-792 443.2344,-792 443.2344,-792 449.2344,-792 455.2344,-798 455.2344,-804 455.2344,-804 455.2344,-919 455.2344,-919 455.2344,-925 449.2344,-931 443.2344,-931 443.2344,-931 300.4686,-931 300.4686,-931 294.4686,-931 288.4686,-925 288.4686,-919 288.4686,-919 288.4686,-804 288.4686,-804 288.4686,-798 294.4686,-792 300.4686,-792"/>
<text text-anchor="middle" x="371.8515" y="-800.5" font-family="Arial" font-size="15.00" fill="#222222">(KeyCertificate)</text>
</a>
</g>
</g>
<!-- github.com/go&#45;i2p/go&#45;i2p/lib/testutil.CreateSignedTestRouterInfo -->
<g id="node1" class="node">
<title>github.com/go&#45;i2p/go&#45;i2p/lib/testutil.CreateSignedTestRouterInfo</title>
<g id="a_node1"><a xlink:title="github.com/go&#45;i2p/go&#45;i2p/lib/testutil.CreateSignedTestRouterInfo | defined in routerinfo.go:46&#10;at routerinfo.go:72: calling [github.com/stretchr/testify/require.LessOrEqual]&#10;at routerinfo.go:95: calling [github.com/go&#45;i2p/crypto/rand.Read]&#10;at routerinfo.go:99: calling [github.com/go&#45;i2p/common/router_identity.NewRouterIdentity]&#10;at routerinfo.go:113: calling [github.com/go&#45;i2p/common/router_info.NewRouterInfo]&#10;at routerinfo.go:50: calling [github.com/go&#45;i2p/go&#45;i2p/lib/testutil.DefaultRouterAddressConfig]&#10;at routerinfo.go:59: calling [(github.com/go&#45;i2p/crypto/ed25519.Ed25519PrivateKey).Public]&#10;at routerinfo.go:67: calling [github.com/go&#45;i2p/crypto/elg.ElgamalGenerate]&#10;at routerinfo.go:92: calling [(github.com/go&#45;i2p/common/key_certificate.KeyCertificate).SigningPublicKeySize]&#10;at routerinfo.go:91: calling [(github.com/go&#45;i2p/common/key_certificate.KeyCertificate).CryptoSize]&#10;at routerinfo.go:55: calling [github.com/go&#45;i2p/crypto/ed25519.GenerateEd25519Key]&#10;at routerinfo.go:56: calling [github.com/stretchr/testify/require.NoError]&#10;at routerinfo.go:60: calling [github.com/stretchr/testify/require.NoError]&#10;at routerinfo.go:68: calling [github.com/stretchr/testify/require.NoError]&#10;at routerinfo.go:78: calling [github.com/stretchr/testify/require.NoError]&#10;at routerinfo.go:80: calling [github.com/stretchr/testify/require.NoError]&#10;at routerinfo.go:85: calling [github.com/stretchr/testify/require.NoError]&#10;at routerinfo.go:88: calling [github.com/stretchr/testify/require.NoError]&#10;at routerinfo.go:96: calling [github.com/stretchr/testify/require.NoError]&#10;at routerinfo.go:100: calling [github.com/stretchr/testify/require.NoError]&#10;at routerinfo.go:104: calling [github.com/stretchr/testify/require.NoError]&#10;at routerinfo.go:121: calling [github.com/stretchr/testify/require.NoError]&#10;at routerinfo.go:63: calling [github.com/stretchr/testify/require.True]&#10;at routerinfo.go:77: calling [github.com/go&#45;i2p/common/data.NewIntegerFromInt]&#10;at routerinfo.go:79: calling [github.com/go&#45;i2p/common/data.NewIntegerFromInt]&#10;at routerinfo.go:84: calling [github.com/go&#45;i2p/common/certificate.NewCertificateWithType]&#10;at routerinfo.go:87: calling [github.com/go&#45;i2p/common/key_certificate.KeyCertificateFromCertificate]&#10;at routerinfo.go:103: calling [github.com/go&#45;i2p/common/router_address.NewRouterAddress]">
<path fill="#add8e6" stroke="#000000" stroke-width="1.5" d="M188.9181,-509C188.9181,-509 28.0273,-509 28.0273,-509 22.0273,-509 16.0273,-503 16.0273,-497 16.0273,-497 16.0273,-485 16.0273,-485 16.0273,-479 22.0273,-473 28.0273,-473 28.0273,-473 188.9181,-473 188.9181,-473 194.9181,-473 200.9181,-479 200.9181,-485 200.9181,-485 200.9181,-497 200.9181,-497 200.9181,-503 194.9181,-509 188.9181,-509"/>
<text text-anchor="middle" x="108.4727" y="-486.8" font-family="Verdana" font-size="14.00" fill="#000000">CreateSignedTestRouterInfo</text>
</a>
</g>
</g>
<!-- github.com/go&#45;i2p/go&#45;i2p/lib/testutil.DefaultRouterAddressConfig -->
<g id="node2" class="node">
<title>github.com/go&#45;i2p/go&#45;i2p/lib/testutil.DefaultRouterAddressConfig</title>
<g id="a_node2"><a xlink:title="github.com/go&#45;i2p/go&#45;i2p/lib/testutil.DefaultRouterAddressConfig | defined in routerinfo.go:34">
<path fill="#add8e6" stroke="#000000" stroke-width="1.5" d="M454.1904,-52C454.1904,-52 289.5126,-52 289.5126,-52 283.5126,-52 277.5126,-46 277.5126,-40 277.5126,-40 277.5126,-28 277.5126,-28 277.5126,-22 283.5126,-16 289.5126,-16 289.5126,-16 454.1904,-16 454.1904,-16 460.1904,-16 466.1904,-22 466.1904,-28 466.1904,-28 466.1904,-40 466.1904,-40 466.1904,-46 460.1904,-52 454.1904,-52"/>
<text text-anchor="middle" x="371.8515" y="-29.8" font-family="Verdana" font-size="14.00" fill="#000000">DefaultRouterAddressConfig</text>
</a>
</g>
</g>
<!-- github.com/go&#45;i2p/go&#45;i2p/lib/testutil.CreateSignedTestRouterInfo&#45;&gt;github.com/go&#45;i2p/go&#45;i2p/lib/testutil.DefaultRouterAddressConfig -->
<g id="edge5" class="edge">
<title>github.com/go&#45;i2p/go&#45;i2p/lib/testutil.CreateSignedTestRouterInfo&#45;&gt;github.com/go&#45;i2p/go&#45;i2p/lib/testutil.DefaultRouterAddressConfig</title>
<g id="a_edge5"><a xlink:title="at routerinfo.go:50: calling [github.com/go&#45;i2p/go&#45;i2p/lib/testutil.DefaultRouterAddressConfig]">
<path fill="none" stroke="#000000" d="M109.9875,-472.9533C116.4354,-407.789 147.3888,-182.3172 273.9454,-65 276.9487,-62.216 280.2012,-59.682 283.634,-57.3756"/>
<polygon fill="#000000" stroke="#000000" points="285.6967,-60.221 292.4992,-52.0984 282.1161,-54.206 285.6967,-60.221"/>
</a>
</g>
</g>
<!-- github.com/go&#45;i2p/crypto/ed25519.GenerateEd25519Key -->
<g id="node3" class="node">
<title>github.com/go&#45;i2p/crypto/ed25519.GenerateEd25519Key</title>
<g id="a_node3"><a xlink:title="github.com/go&#45;i2p/crypto/ed25519.GenerateEd25519Key | defined in utils.go:18">
<path fill="#ffe4b5" stroke="#000000" stroke-width="1.5" d="M434.242,-113C434.242,-113 309.461,-113 309.461,-113 303.461,-113 297.461,-107 297.461,-101 297.461,-101 297.461,-89 297.461,-89 297.461,-83 303.461,-77 309.461,-77 309.461,-77 434.242,-77 434.242,-77 440.242,-77 446.242,-83 446.242,-89 446.242,-89 446.242,-101 446.242,-101 446.242,-107 440.242,-113 434.242,-113"/>
<text text-anchor="middle" x="371.8515" y="-99.2" font-family="Verdana" font-size="14.00" fill="#000000">ed25519</text>
<text text-anchor="middle" x="371.8515" y="-82.4" font-family="Verdana" font-size="14.00" fill="#000000">GenerateEd25519Key</text>
</a>
</g>
</g>
<!-- github.com/go&#45;i2p/go&#45;i2p/lib/testutil.CreateSignedTestRouterInfo&#45;&gt;github.com/go&#45;i2p/crypto/ed25519.GenerateEd25519Key -->
<g id="edge10" class="edge">
<title>github.com/go&#45;i2p/go&#45;i2p/lib/testutil.CreateSignedTestRouterInfo&#45;&gt;github.com/go&#45;i2p/crypto/ed25519.GenerateEd25519Key</title>
<g id="a_edge10"><a xlink:title="at routerinfo.go:55: calling [github.com/go&#45;i2p/crypto/ed25519.GenerateEd25519Key]">
<path fill="none" stroke="#8b4513" d="M111.3811,-472.7311C121.7755,-413.4895 162.5886,-224.8362 273.9454,-126 278.3875,-122.0574 283.3313,-118.6159 288.5711,-115.6119"/>
<polygon fill="#8b4513" stroke="#8b4513" points="290.336,-118.6402 297.6325,-110.9583 287.138,-112.4134 290.336,-118.6402"/>
</a>
</g>
</g>
<!-- github.com/stretchr/testify/require.NoError -->
<g id="node4" class="node">
<title>github.com/stretchr/testify/require.NoError</title>
<g id="a_node4"><a xlink:title="github.com/stretchr/testify/require.NoError | defined in require.go:1394">
<path fill="#ffe4b5" stroke="#000000" stroke-width="1.5" d="M394.9934,-174C394.9934,-174 348.7096,-174 348.7096,-174 342.7096,-174 336.7096,-168 336.7096,-162 336.7096,-162 336.7096,-150 336.7096,-150 336.7096,-144 342.7096,-138 348.7096,-138 348.7096,-138 394.9934,-138 394.9934,-138 400.9934,-138 406.9934,-144 406.9934,-150 406.9934,-150 406.9934,-162 406.9934,-162 406.9934,-168 400.9934,-174 394.9934,-174"/>
<text text-anchor="middle" x="371.8515" y="-160.2" font-family="Verdana" font-size="14.00" fill="#000000">require</text>
<text text-anchor="middle" x="371.8515" y="-143.4" font-family="Verdana" font-size="14.00" fill="#000000">NoError</text>
</a>
</g>
</g>
<!-- github.com/go&#45;i2p/go&#45;i2p/lib/testutil.CreateSignedTestRouterInfo&#45;&gt;github.com/stretchr/testify/require.NoError -->
<g id="edge11" class="edge">
<title>github.com/go&#45;i2p/go&#45;i2p/lib/testutil.CreateSignedTestRouterInfo&#45;&gt;github.com/stretchr/testify/require.NoError</title>
<g id="a_edge11"><a xlink:title="at routerinfo.go:56: calling [github.com/stretchr/testify/require.NoError]&#10;at routerinfo.go:60: calling [github.com/stretchr/testify/require.NoError]&#10;at routerinfo.go:68: calling [github.com/stretchr/testify/require.NoError]&#10;at routerinfo.go:78: calling [github.com/stretchr/testify/require.NoError]&#10;at routerinfo.go:80: calling [github.com/stretchr/testify/require.NoError]&#10;at routerinfo.go:85: calling [github.com/stretchr/testify/require.NoError]&#10;at routerinfo.go:88: calling [github.com/stretchr/testify/require.NoError]&#10;at routerinfo.go:96: calling [github.com/stretchr/testify/require.NoError]&#10;at routerinfo.go:100: calling [github.com/stretchr/testify/require.NoError]&#10;at routerinfo.go:104: calling [github.com/stretchr/testify/require.NoError]&#10;at routerinfo.go:121: calling [github.com/stretchr/testify/require.NoError]">
<path fill="none" stroke="#8b4513" d="M113.1499,-472.8567C127.6066,-420.4137 176.5815,-267.2736 273.9454,-187 288.8493,-174.7122 308.6735,-167.2727 326.5841,-162.7787"/>
<polygon fill="#8b4513" stroke="#8b4513" points="327.5947,-166.1385 336.5745,-160.5159 326.0483,-159.3115 327.5947,-166.1385"/>
</a>
</g>
</g>
<!-- github.com/stretchr/testify/require.True -->
<g id="node5" class="node">
<title>github.com/stretchr/testify/require.True</title>
<g id="a_node5"><a xlink:title="github.com/stretchr/testify/require.True | defined in require.go:2063">
<path fill="#ffe4b5" stroke="#000000" stroke-width="1.5" d="M391.4935,-235C391.4935,-235 352.2095,-235 352.2095,-235 346.2095,-235 340.2095,-229 340.2095,-223 340.2095,-223 340.2095,-211 340.2095,-211 340.2095,-205 346.2095,-199 352.2095,-199 352.2095,-199 391.4935,-199 391.4935,-199 397.4935,-199 403.4935,-205 403.4935,-211 403.4935,-211 403.4935,-223 403.4935,-223 403.4935,-229 397.4935,-235 391.4935,-235"/>
<text text-anchor="middle" x="371.8515" y="-221.2" font-family="Verdana" font-size="14.00" fill="#000000">require</text>
<text text-anchor="middle" x="371.8515" y="-204.4" font-family="Verdana" font-size="14.00" fill="#000000">True</text>
</a>
</g>
</g>
<!-- github.com/go&#45;i2p/go&#45;i2p/lib/testutil.CreateSignedTestRouterInfo&#45;&gt;github.com/stretchr/testify/require.True -->
<g id="edge12" class="edge">
<title>github.com/go&#45;i2p/go&#45;i2p/lib/testutil.CreateSignedTestRouterInfo&#45;&gt;github.com/stretchr/testify/require.True</title>
<g id="a_edge12"><a xlink:title="at routerinfo.go:63: calling [github.com/stretchr/testify/require.True]">
<path fill="none" stroke="#8b4513" d="M115.8422,-472.6894C134.9355,-427.5617 190.4178,-310.1645 273.9454,-248 290.2373,-235.8749 311.4143,-228.4026 329.9038,-223.843"/>
<polygon fill="#8b4513" stroke="#8b4513" points="330.8668,-227.2138 339.8512,-221.5986 329.326,-220.3855 330.8668,-227.2138"/>
</a>
</g>
</g>
<!-- github.com/go&#45;i2p/crypto/elg.ElgamalGenerate -->
<g id="node6" class="node">
<title>github.com/go&#45;i2p/crypto/elg.ElgamalGenerate</title>
<g id="a_node6"><a xlink:title="github.com/go&#45;i2p/crypto/elg.ElgamalGenerate | defined in elg.go:116">
<path fill="#ffe4b5" stroke="#000000" stroke-width="1.5" d="M420.5214,-296C420.5214,-296 323.1816,-296 323.1816,-296 317.1816,-296 311.1816,-290 311.1816,-284 311.1816,-284 311.1816,-272 311.1816,-272 311.1816,-266 317.1816,-260 323.1816,-260 323.1816,-260 420.5214,-260 420.5214,-260 426.5214,-260 432.5214,-266 432.5214,-272 432.5214,-272 432.5214,-284 432.5214,-284 432.5214,-290 426.5214,-296 420.5214,-296"/>
<text text-anchor="middle" x="371.8515" y="-282.2" font-family="Verdana" font-size="14.00" fill="#000000">elg</text>
<text text-anchor="middle" x="371.8515" y="-265.4" font-family="Verdana" font-size="14.00" fill="#000000">ElgamalGenerate</text>
</a>
</g>
</g>
<!-- github.com/go&#45;i2p/go&#45;i2p/lib/testutil.CreateSignedTestRouterInfo&#45;&gt;github.com/go&#45;i2p/crypto/elg.ElgamalGenerate -->
<g id="edge7" class="edge">
<title>github.com/go&#45;i2p/go&#45;i2p/lib/testutil.CreateSignedTestRouterInfo&#45;&gt;github.com/go&#45;i2p/crypto/elg.ElgamalGenerate</title>
<g id="a_edge7"><a xlink:title="at routerinfo.go:67: calling [github.com/go&#45;i2p/crypto/elg.ElgamalGenerate]">
<path fill="none" stroke="#8b4513" d="M120.0513,-472.856C144.2159,-436.4286 203.6476,-354.0373 273.9454,-309 282.39,-303.5899 291.8504,-299.0606 301.4726,-295.2862"/>
<polygon fill="#8b4513" stroke="#8b4513" points="302.9278,-298.4808 311.1171,-291.7588 300.5233,-291.9067 302.9278,-298.4808"/>
</a>
</g>
</g>
<!-- github.com/stretchr/testify/require.LessOrEqual -->
<g id="node7" class="node">
<title>github.com/stretchr/testify/require.LessOrEqual</title>
<g id="a_node7"><a xlink:title="github.com/stretchr/testify/require.LessOrEqual | defined in require.go:1241">
<path fill="#ffe4b5" stroke="#000000" stroke-width="1.5" d="M408.4329,-357C408.4329,-357 335.2701,-357 335.2701,-357 329.2701,-357 323.2701,-351 323.2701,-345 323.2701,-345 323.2701,-333 323.2701,-333 323.2701,-327 329.2701,-321 335.2701,-321 335.2701,-321 408.4329,-321 408.4329,-321 414.4329,-321 420.4329,-327 420.4329,-333 420.4329,-333 420.4329,-345 420.4329,-345 420.4329,-351 414.4329,-357 408.4329,-357"/>
<text text-anchor="middle" x="371.8515" y="-343.2" font-family="Verdana" font-size="14.00" fill="#000000">require</text>
<text text-anchor="middle" x="371.8515" y="-326.4" font-family="Verdana" font-size="14.00" fill="#000000">LessOrEqual</text>
</a>
</g>
</g>
<!-- github.com/go&#45;i2p/go&#45;i2p/lib/testutil.CreateSignedTestRouterInfo&#45;&gt;github.com/stretchr/testify/require.LessOrEqual -->
<g id="edge1" class="edge">
<title>github.com/go&#45;i2p/go&#45;i2p/lib/testutil.CreateSignedTestRouterInfo&#45;&gt;github.com/stretchr/testify/require.LessOrEqual</title>
<g id="a_edge1"><a xlink:title="at routerinfo.go:72: calling [github.com/stretchr/testify/require.LessOrEqual]">
<path fill="none" stroke="#8b4513" d="M128.4564,-472.995C158.2097,-447.013 216.8026,-398.9557 273.9454,-370 286.1119,-363.8349 299.7499,-358.5862 312.8935,-354.2566"/>
<polygon fill="#8b4513" stroke="#8b4513" points="314.3326,-357.4727 322.8155,-351.1251 312.2257,-350.7973 314.3326,-357.4727"/>
</a>
</g>
</g>
<!-- github.com/go&#45;i2p/common/data.NewIntegerFromInt -->
<g id="node8" class="node">
<title>github.com/go&#45;i2p/common/data.NewIntegerFromInt</title>
<g id="a_node8"><a xlink:title="github.com/go&#45;i2p/common/data.NewIntegerFromInt | defined in integer.go:127">
<path fill="#ffe4b5" stroke="#000000" stroke-width="1.5" d="M427.8053,-418C427.8053,-418 315.8977,-418 315.8977,-418 309.8977,-418 303.8977,-412 303.8977,-406 303.8977,-406 303.8977,-394 303.8977,-394 303.8977,-388 309.8977,-382 315.8977,-382 315.8977,-382 427.8053,-382 427.8053,-382 433.8053,-382 439.8053,-388 439.8053,-394 439.8053,-394 439.8053,-406 439.8053,-406 439.8053,-412 433.8053,-418 427.8053,-418"/>
<text text-anchor="middle" x="371.8515" y="-404.2" font-family="Verdana" font-size="14.00" fill="#000000">data</text>
<text text-anchor="middle" x="371.8515" y="-387.4" font-family="Verdana" font-size="14.00" fill="#000000">NewIntegerFromInt</text>
</a>
</g>
</g>
<!-- github.com/go&#45;i2p/go&#45;i2p/lib/testutil.CreateSignedTestRouterInfo&#45;&gt;github.com/go&#45;i2p/common/data.NewIntegerFromInt -->
<g id="edge13" class="edge">
<title>github.com/go&#45;i2p/go&#45;i2p/lib/testutil.CreateSignedTestRouterInfo&#45;&gt;github.com/go&#45;i2p/common/data.NewIntegerFromInt</title>
<g id="a_edge13"><a xlink:title="at routerinfo.go:77: calling [github.com/go&#45;i2p/common/data.NewIntegerFromInt]&#10;at routerinfo.go:79: calling [github.com/go&#45;i2p/common/data.NewIntegerFromInt]">
<path fill="none" stroke="#8b4513" d="M156.7993,-472.8821C189.6998,-460.6942 234.3025,-444.4569 273.9454,-431 283.605,-427.721 293.8373,-424.3592 303.9038,-421.1155"/>
<polygon fill="#8b4513" stroke="#8b4513" points="305.0245,-424.4318 313.4803,-418.0482 302.8892,-417.7654 305.0245,-424.4318"/>
</a>
</g>
</g>
<!-- github.com/go&#45;i2p/common/certificate.NewCertificateWithType -->
<g id="node9" class="node">
<title>github.com/go&#45;i2p/common/certificate.NewCertificateWithType</title>
<g id="a_node9"><a xlink:title="github.com/go&#45;i2p/common/certificate.NewCertificateWithType | defined in certificate_struct.go:67">
<path fill="#ffe4b5" stroke="#000000" stroke-width="1.5" d="M443.1211,-479C443.1211,-479 300.5819,-479 300.5819,-479 294.5819,-479 288.5819,-473 288.5819,-467 288.5819,-467 288.5819,-455 288.5819,-455 288.5819,-449 294.5819,-443 300.5819,-443 300.5819,-443 443.1211,-443 443.1211,-443 449.1211,-443 455.1211,-449 455.1211,-455 455.1211,-455 455.1211,-467 455.1211,-467 455.1211,-473 449.1211,-479 443.1211,-479"/>
<text text-anchor="middle" x="371.8515" y="-465.2" font-family="Verdana" font-size="14.00" fill="#000000">certificate</text>
<text text-anchor="middle" x="371.8515" y="-448.4" font-family="Verdana" font-size="14.00" fill="#000000">NewCertificateWithType</text>
</a>
</g>
</g>
<!-- github.com/go&#45;i2p/go&#45;i2p/lib/testutil.CreateSignedTestRouterInfo&#45;&gt;github.com/go&#45;i2p/common/certificate.NewCertificateWithType -->
<g id="edge14" class="edge">
<title>github.com/go&#45;i2p/go&#45;i2p/lib/testutil.CreateSignedTestRouterInfo&#45;&gt;github.com/go&#45;i2p/common/certificate.NewCertificateWithType</title>
<g id="a_edge14"><a xlink:title="at routerinfo.go:84: calling [github.com/go&#45;i2p/common/certificate.NewCertificateWithType]">
<path fill="none" stroke="#8b4513" d="M200.9599,-480.4653C225.9724,-477.6163 253.0611,-474.5307 278.1402,-471.6741"/>
<polygon fill="#8b4513" stroke="#8b4513" points="278.8415,-475.117 288.3811,-470.5076 278.0493,-468.1619 278.8415,-475.117"/>
</a>
</g>
</g>
<!-- github.com/go&#45;i2p/common/key_certificate.KeyCertificateFromCertificate -->
<g id="node10" class="node">
<title>github.com/go&#45;i2p/common/key_certificate.KeyCertificateFromCertificate</title>
<g id="a_node10"><a xlink:title="github.com/go&#45;i2p/common/key_certificate.KeyCertificateFromCertificate | defined in key_certificate_struct.go:202">
<path fill="#ffe4b5" stroke="#000000" stroke-width="1.5" d="M457.6638,-540C457.6638,-540 286.0392,-540 286.0392,-540 280.0392,-540 274.0392,-534 274.0392,-528 274.0392,-528 274.0392,-516 274.0392,-516 274.0392,-510 280.0392,-504 286.0392,-504 286.0392,-504 457.6638,-504 457.6638,-504 463.6638,-504 469.6638,-510 469.6638,-516 469.6638,-516 469.6638,-528 469.6638,-528 469.6638,-534 463.6638,-540 457.6638,-540"/>
<text text-anchor="middle" x="371.8515" y="-526.2" font-family="Verdana" font-size="14.00" fill="#000000">key_certificate</text>
<text text-anchor="middle" x="371.8515" y="-509.4" font-family="Verdana" font-size="14.00" fill="#000000">KeyCertificateFromCertificate</text>
</a>
</g>
</g>
<!-- github.com/go&#45;i2p/go&#45;i2p/lib/testutil.CreateSignedTestRouterInfo&#45;&gt;github.com/go&#45;i2p/common/key_certificate.KeyCertificateFromCertificate -->
<g id="edge15" class="edge">
<title>github.com/go&#45;i2p/go&#45;i2p/lib/testutil.CreateSignedTestRouterInfo&#45;&gt;github.com/go&#45;i2p/common/key_certificate.KeyCertificateFromCertificate</title>
<g id="a_edge15"><a xlink:title="at routerinfo.go:87: calling [github.com/go&#45;i2p/common/key_certificate.KeyCertificateFromCertificate]">
<path fill="none" stroke="#8b4513" d="M200.9599,-501.8859C221.2131,-504.2697 242.8275,-506.8137 263.6341,-509.2627"/>
<polygon fill="#8b4513" stroke="#8b4513" points="263.4332,-512.7631 273.7738,-510.4561 264.2516,-505.8111 263.4332,-512.7631"/>
</a>
</g>
</g>
<!-- github.com/go&#45;i2p/crypto/rand.Read -->
<g id="node11" class="node">
<title>github.com/go&#45;i2p/crypto/rand.Read</title>
<g id="a_node11"><a xlink:title="github.com/go&#45;i2p/crypto/rand.Read | defined in secure_reader.go:208">
<path fill="#ffe4b5" stroke="#000000" stroke-width="1.5" d="M386.8515,-601C386.8515,-601 356.8515,-601 356.8515,-601 350.8515,-601 344.8515,-595 344.8515,-589 344.8515,-589 344.8515,-577 344.8515,-577 344.8515,-571 350.8515,-565 356.8515,-565 356.8515,-565 386.8515,-565 386.8515,-565 392.8515,-565 398.8515,-571 398.8515,-577 398.8515,-577 398.8515,-589 398.8515,-589 398.8515,-595 392.8515,-601 386.8515,-601"/>
<text text-anchor="middle" x="371.8515" y="-587.2" font-family="Verdana" font-size="14.00" fill="#000000">rand</text>
<text text-anchor="middle" x="371.8515" y="-570.4" font-family="Verdana" font-size="14.00" fill="#000000">Read</text>
</a>
</g>
</g>
<!-- github.com/go&#45;i2p/go&#45;i2p/lib/testutil.CreateSignedTestRouterInfo&#45;&gt;github.com/go&#45;i2p/crypto/rand.Read -->
<g id="edge2" class="edge">
<title>github.com/go&#45;i2p/go&#45;i2p/lib/testutil.CreateSignedTestRouterInfo&#45;&gt;github.com/go&#45;i2p/crypto/rand.Read</title>
<g id="a_edge2"><a xlink:title="at routerinfo.go:95: calling [github.com/go&#45;i2p/crypto/rand.Read]">
<path fill="none" stroke="#8b4513" d="M154.5625,-509.1329C187.6081,-521.9217 233.2844,-539.1673 273.9454,-553 293.9683,-559.8117 316.5255,-566.7713 334.9372,-572.2702"/>
<polygon fill="#8b4513" stroke="#8b4513" points="334.1145,-575.6769 344.697,-575.1647 336.1049,-568.9658 334.1145,-575.6769"/>
</a>
</g>
</g>
<!-- github.com/go&#45;i2p/common/router_identity.NewRouterIdentity -->
<g id="node12" class="node">
<title>github.com/go&#45;i2p/common/router_identity.NewRouterIdentity</title>
<g id="a_node12"><a xlink:title="github.com/go&#45;i2p/common/router_identity.NewRouterIdentity | defined in router_identity_struct.go:51">
<path fill="#ffe4b5" stroke="#000000" stroke-width="1.5" d="M425.9287,-662C425.9287,-662 317.7743,-662 317.7743,-662 311.7743,-662 305.7743,-656 305.7743,-650 305.7743,-650 305.7743,-638 305.7743,-638 305.7743,-632 311.7743,-626 317.7743,-626 317.7743,-626 425.9287,-626 425.9287,-626 431.9287,-626 437.9287,-632 437.9287,-638 437.9287,-638 437.9287,-650 437.9287,-650 437.9287,-656 431.9287,-662 425.9287,-662"/>
<text text-anchor="middle" x="371.8515" y="-648.2" font-family="Verdana" font-size="14.00" fill="#000000">router_identity</text>
<text text-anchor="middle" x="371.8515" y="-631.4" font-family="Verdana" font-size="14.00" fill="#000000">NewRouterIdentity</text>
</a>
</g>
</g>
<!-- github.com/go&#45;i2p/go&#45;i2p/lib/testutil.CreateSignedTestRouterInfo&#45;&gt;github.com/go&#45;i2p/common/router_identity.NewRouterIdentity -->
<g id="edge3" class="edge">
<title>github.com/go&#45;i2p/go&#45;i2p/lib/testutil.CreateSignedTestRouterInfo&#45;&gt;github.com/go&#45;i2p/common/router_identity.NewRouterIdentity</title>
<g id="a_edge3"><a xlink:title="at routerinfo.go:99: calling [github.com/go&#45;i2p/common/router_identity.NewRouterIdentity]">
<path fill="none" stroke="#8b4513" d="M128.3632,-509.396C158.0005,-535.9239 216.4502,-584.9192 273.9454,-614 280.9168,-617.5261 288.3799,-620.7257 295.9603,-623.6069"/>
<polygon fill="#8b4513" stroke="#8b4513" points="295.0025,-626.9821 305.5968,-627.0867 297.38,-620.3983 295.0025,-626.9821"/>
</a>
</g>
</g>
<!-- github.com/go&#45;i2p/common/router_address.NewRouterAddress -->
<g id="node13" class="node">
<title>github.com/go&#45;i2p/common/router_address.NewRouterAddress</title>
<g id="a_node13"><a xlink:title="github.com/go&#45;i2p/common/router_address.NewRouterAddress | defined in router_address.go:35">
<path fill="#ffe4b5" stroke="#000000" stroke-width="1.5" d="M427.2533,-723C427.2533,-723 316.4497,-723 316.4497,-723 310.4497,-723 304.4497,-717 304.4497,-711 304.4497,-711 304.4497,-699 304.4497,-699 304.4497,-693 310.4497,-687 316.4497,-687 316.4497,-687 427.2533,-687 427.2533,-687 433.2533,-687 439.2533,-693 439.2533,-699 439.2533,-699 439.2533,-711 439.2533,-711 439.2533,-717 433.2533,-723 427.2533,-723"/>
<text text-anchor="middle" x="371.8515" y="-709.2" font-family="Verdana" font-size="14.00" fill="#000000">router_address</text>
<text text-anchor="middle" x="371.8515" y="-692.4" font-family="Verdana" font-size="14.00" fill="#000000">NewRouterAddress</text>
</a>
</g>
</g>
<!-- github.com/go&#45;i2p/go&#45;i2p/lib/testutil.CreateSignedTestRouterInfo&#45;&gt;github.com/go&#45;i2p/common/router_address.NewRouterAddress -->
<g id="edge16" class="edge">
<title>github.com/go&#45;i2p/go&#45;i2p/lib/testutil.CreateSignedTestRouterInfo&#45;&gt;github.com/go&#45;i2p/common/router_address.NewRouterAddress</title>
<g id="a_edge16"><a xlink:title="at routerinfo.go:103: calling [github.com/go&#45;i2p/common/router_address.NewRouterAddress]">
<path fill="none" stroke="#8b4513" d="M119.7821,-509.1213C143.6716,-545.9141 202.955,-629.7126 273.9454,-675 280.4791,-679.1681 287.6266,-682.7865 294.9895,-685.9217"/>
<polygon fill="#8b4513" stroke="#8b4513" points="293.8144,-689.2207 304.401,-689.6395 296.3862,-682.7102 293.8144,-689.2207"/>
</a>
</g>
</g>
<!-- github.com/go&#45;i2p/common/router_info.NewRouterInfo -->
<g id="node14" class="node">
<title>github.com/go&#45;i2p/common/router_info.NewRouterInfo</title>
<g id="a_node14"><a xlink:title="github.com/go&#45;i2p/common/router_info.NewRouterInfo | defined in router_info_struct.go:117">
<path fill="#ffe4b5" stroke="#000000" stroke-width="1.5" d="M415.703,-784C415.703,-784 328,-784 328,-784 322,-784 316,-778 316,-772 316,-772 316,-760 316,-760 316,-754 322,-748 328,-748 328,-748 415.703,-748 415.703,-748 421.703,-748 427.703,-754 427.703,-760 427.703,-760 427.703,-772 427.703,-772 427.703,-778 421.703,-784 415.703,-784"/>
<text text-anchor="middle" x="371.8515" y="-770.2" font-family="Verdana" font-size="14.00" fill="#000000">router_info</text>
<text text-anchor="middle" x="371.8515" y="-753.4" font-family="Verdana" font-size="14.00" fill="#000000">NewRouterInfo</text>
</a>
</g>
</g>
<!-- github.com/go&#45;i2p/go&#45;i2p/lib/testutil.CreateSignedTestRouterInfo&#45;&gt;github.com/go&#45;i2p/common/router_info.NewRouterInfo -->
<g id="edge4" class="edge">
<title>github.com/go&#45;i2p/go&#45;i2p/lib/testutil.CreateSignedTestRouterInfo&#45;&gt;github.com/go&#45;i2p/common/router_info.NewRouterInfo</title>
<g id="a_edge4"><a xlink:title="at routerinfo.go:113: calling [github.com/go&#45;i2p/common/router_info.NewRouterInfo]">
<path fill="none" stroke="#8b4513" d="M115.6243,-509.1759C134.4048,-554.5384 189.5695,-673.5642 273.9454,-736 283.5469,-743.1048 294.8524,-748.5468 306.3061,-752.7092"/>
<polygon fill="#8b4513" stroke="#8b4513" points="305.3343,-756.0745 315.9279,-755.9132 307.5458,-749.4331 305.3343,-756.0745"/>
</a>
</g>
</g>
<!-- (github.com/go&#45;i2p/common/key_certificate.KeyCertificate).CryptoSize -->
<g id="node15" class="node">
<title>(github.com/go&#45;i2p/common/key_certificate.KeyCertificate).CryptoSize</title>
<g id="a_node15"><a xlink:title="(github.com/go&#45;i2p/common/key_certificate.KeyCertificate).CryptoSize | defined in key_certificate_struct.go:694">
<path fill="#ffe4b5" stroke="#000000" stroke-width="1.5" d="M413.5228,-862C413.5228,-862 330.1802,-862 330.1802,-862 324.1802,-862 318.1802,-856 318.1802,-850 318.1802,-850 318.1802,-838 318.1802,-838 318.1802,-832 324.1802,-826 330.1802,-826 330.1802,-826 413.5228,-826 413.5228,-826 419.5228,-826 425.5228,-832 425.5228,-838 425.5228,-838 425.5228,-850 425.5228,-850 425.5228,-856 419.5228,-862 413.5228,-862"/>
<text text-anchor="middle" x="371.8515" y="-848.2" font-family="Verdana" font-size="14.00" fill="#000000">key_certificate</text>
<text text-anchor="middle" x="371.8515" y="-831.4" font-family="Verdana" font-size="14.00" fill="#000000">CryptoSize</text>
</a>
</g>
</g>
<!-- github.com/go&#45;i2p/go&#45;i2p/lib/testutil.CreateSignedTestRouterInfo&#45;&gt;(github.com/go&#45;i2p/common/key_certificate.KeyCertificate).CryptoSize -->
<g id="edge9" class="edge">
<title>github.com/go&#45;i2p/go&#45;i2p/lib/testutil.CreateSignedTestRouterInfo&#45;&gt;(github.com/go&#45;i2p/common/key_certificate.KeyCertificate).CryptoSize</title>
<g id="a_edge9"><a xlink:title="at routerinfo.go:91: calling [(github.com/go&#45;i2p/common/key_certificate.KeyCertificate).CryptoSize]">
<path fill="none" stroke="#8b4513" d="M111.8701,-509.1344C123.3946,-565.3338 166.4396,-737.8515 273.9454,-822 283.8501,-829.7528 295.9555,-834.8824 308.2324,-838.2519"/>
<polygon fill="#8b4513" stroke="#8b4513" points="307.5377,-841.6842 318.0762,-840.5933 309.1575,-834.8742 307.5377,-841.6842"/>
</a>
</g>
</g>
<!-- (github.com/go&#45;i2p/common/key_certificate.KeyCertificate).SigningPublicKeySize -->
<g id="node16" class="node">
<title>(github.com/go&#45;i2p/common/key_certificate.KeyCertificate).SigningPublicKeySize</title>
<g id="a_node16"><a xlink:title="(github.com/go&#45;i2p/common/key_certificate.KeyCertificate).SigningPublicKeySize | defined in key_certificate_struct.go:365">
<path fill="#ffe4b5" stroke="#000000" stroke-width="1.5" d="M435.1175,-923C435.1175,-923 308.5855,-923 308.5855,-923 302.5855,-923 296.5855,-917 296.5855,-911 296.5855,-911 296.5855,-899 296.5855,-899 296.5855,-893 302.5855,-887 308.5855,-887 308.5855,-887 435.1175,-887 435.1175,-887 441.1175,-887 447.1175,-893 447.1175,-899 447.1175,-899 447.1175,-911 447.1175,-911 447.1175,-917 441.1175,-923 435.1175,-923"/>
<text text-anchor="middle" x="371.8515" y="-909.2" font-family="Verdana" font-size="14.00" fill="#000000">key_certificate</text>
<text text-anchor="middle" x="371.8515" y="-892.4" font-family="Verdana" font-size="14.00" fill="#000000">SigningPublicKeySize</text>
</a>
</g>
</g>
<!-- github.com/go&#45;i2p/go&#45;i2p/lib/testutil.CreateSignedTestRouterInfo&#45;&gt;(github.com/go&#45;i2p/common/key_certificate.KeyCertificate).SigningPublicKeySize -->
<g id="edge8" class="edge">
<title>github.com/go&#45;i2p/go&#45;i2p/lib/testutil.CreateSignedTestRouterInfo&#45;&gt;(github.com/go&#45;i2p/common/key_certificate.KeyCertificate).SigningPublicKeySize</title>
<g id="a_edge8"><a xlink:title="at routerinfo.go:92: calling [(github.com/go&#45;i2p/common/key_certificate.KeyCertificate).SigningPublicKeySize]">
<path fill="none" stroke="#8b4513" d="M110.7364,-509.0688C119.3924,-570.3455 156.0734,-772.1459 273.9454,-875 277.9451,-878.4901 282.3437,-881.5741 286.9937,-884.2994"/>
<polygon fill="#8b4513" stroke="#8b4513" points="285.7229,-887.5842 296.2073,-889.1105 288.9631,-881.3792 285.7229,-887.5842"/>
</a>
</g>
</g>
<!-- (github.com/go&#45;i2p/crypto/ed25519.Ed25519PrivateKey).Public -->
<g id="node17" class="node">
<title>(github.com/go&#45;i2p/crypto/ed25519.Ed25519PrivateKey).Public</title>
<g id="a_node17"><a xlink:title="(github.com/go&#45;i2p/crypto/ed25519.Ed25519PrivateKey).Public | defined in ed25519_private_key.go:108">
<path fill="#ffe4b5" stroke="#000000" stroke-width="1.5" d="M396.0664,-1009C396.0664,-1009 347.6366,-1009 347.6366,-1009 341.6366,-1009 335.6366,-1003 335.6366,-997 335.6366,-997 335.6366,-985 335.6366,-985 335.6366,-979 341.6366,-973 347.6366,-973 347.6366,-973 396.0664,-973 396.0664,-973 402.0664,-973 408.0664,-979 408.0664,-985 408.0664,-985 408.0664,-997 408.0664,-997 408.0664,-1003 402.0664,-1009 396.0664,-1009"/>
<text text-anchor="middle" x="371.8515" y="-995.2" font-family="Verdana" font-size="14.00" fill="#000000">ed25519</text>
<text text-anchor="middle" x="371.8515" y="-978.4" font-family="Verdana" font-size="14.00" fill="#000000">Public</text>
</a>
</g>
</g>
<!-- github.com/go&#45;i2p/go&#45;i2p/lib/testutil.CreateSignedTestRouterInfo&#45;&gt;(github.com/go&#45;i2p/crypto/ed25519.Ed25519PrivateKey).Public -->
<g id="edge6" class="edge">
<title>github.com/go&#45;i2p/go&#45;i2p/lib/testutil.CreateSignedTestRouterInfo&#45;&gt;(github.com/go&#45;i2p/crypto/ed25519.Ed25519PrivateKey).Public</title>
<g id="a_edge6"><a xlink:title="at routerinfo.go:59: calling [(github.com/go&#45;i2p/crypto/ed25519.Ed25519PrivateKey).Public]">
<path fill="none" stroke="#8b4513" d="M110.5299,-509.0718C118.8397,-574.4731 155.3823,-802.058 273.9454,-937 288.0201,-953.0191 308.0435,-965.2335 326.3186,-973.9589"/>
<polygon fill="#8b4513" stroke="#8b4513" points="325.1227,-977.2597 335.6753,-978.2054 328.0157,-970.8854 325.1227,-977.2597"/>
</a>
</g>
</g>
</g>
</svg>
