<?xml version="1.0" encoding="UTF-8" standalone="no"?>
<!DOCTYPE svg PUBLIC "-//W3C//DTD SVG 1.1//EN"
 "http://www.w3.org/Graphics/SVG/1.1/DTD/svg11.dtd">
<!-- Generated by graphviz version 2.40.1 (20161225.0304)
 -->
<!-- Title: gocallvis Pages: 1 -->
<svg width="684pt" height="1053pt"
 viewBox="0.00 0.00 684.06 1053.00" xmlns="http://www.w3.org/2000/svg" xmlns:xlink="http://www.w3.org/1999/xlink">
<g id="graph0" class="graph" transform="scale(1 1) rotate(0) translate(0 1053)">
<title>gocallvis</title>
<polygon fill="#d3d3d3" stroke="transparent" points="0,0 0,-1053 684.0564,-1053 684.0564,0 0,0"/>
<g id="clust1" class="cluster">
<title>cluster_focus</title>
<polygon fill="#e6ecfa" stroke="#000000" stroke-width=".5" points="8,-8 8,-1045 676.0564,-1045 676.0564,-8 8,-8"/>
<text text-anchor="middle" x="342.0282" y="-1024.8" font-family="Arial" font-size="18.00" fill="#000000">keys</text>
</g>
<g id="clust12" class="cluster">
<title>cluster_github.com/samber/oops</title>
<g id="a_clust12"><a xlink:href="/?f=github.com/samber/oops" xlink:title="package: github.com/samber/oops">
<polygon fill="#ffffe0" stroke="#000000" stroke-width=".8" points="525.0528,-189 525.0528,-268 599.2478,-268 599.2478,-189 525.0528,-189"/>
<text text-anchor="middle" x="562.1503" y="-249.6" font-family="Tahoma bold" font-size="16.00" fill="#000000">oops</text>
</a>
</g>
</g>
<g id="clust10" class="cluster">
<title>cluster_github.com/go&#45;i2p/go&#45;i2p/lib/util/time/sntp</title>
<g id="a_clust10"><a xlink:href="/?f=github.com/go-i2p/go-i2p/lib/util/time/sntp" xlink:title="package: github.com/go&#45;i2p/go&#45;i2p/lib/util/time/sntp">
<polygon fill="#ffffe0" stroke="#000000" stroke-width=".8" points="472.9532,-16 472.9532,-181 651.3474,-181 651.3474,-16 472.9532,-16"/>
<text text-anchor="middle" x="562.1503" y="-162.6" font-family="Tahoma bold" font-size="16.00" fill="#000000">sntp</text>
</a>
</g>
</g>
<g id="clust11" class="cluster">
<title>cluster_*github.com/go&#45;i2p/go&#45;i2p/lib/util/time/sntp.RouterTimestamper</title>
<g id="a_clust11"><a xlink:href="/?f=github.com/go-i2p/go-i2p/lib/util/time/sntp" xlink:title="type: *github.com/go&#45;i2p/go&#45;i2p/lib/util/time/sntp.RouterTimestamper">
<path fill="#eed8ae" stroke="#000000" stroke-width=".5" d="M497.8887,-68C497.8887,-68 626.4119,-68 626.4119,-68 632.4119,-68 638.4119,-74 638.4119,-80 638.4119,-80 638.4119,-134 638.4119,-134 638.4119,-140 632.4119,-146 626.4119,-146 626.4119,-146 497.8887,-146 497.8887,-146 491.8887,-146 485.8887,-140 485.8887,-134 485.8887,-134 485.8887,-80 485.8887,-80 485.8887,-74 491.8887,-68 497.8887,-68"/>
<text text-anchor="middle" x="562.1503" y="-76.5" font-family="Tahoma bold" font-size="15.00" fill="#222222">(*RouterTimestamper)</text>
</a>
</g>
</g>
<g id="clust9" class="cluster">
<title>cluster_github.com/go&#45;i2p/go&#45;i2p/lib/common/router_info</title>
<g id="a_clust9"><a xlink:href="/?f=github.com/go-i2p/go-i2p/lib/common/router_info" xlink:title="package: github.com/go&#45;i2p/go&#45;i2p/lib/common/router_info">
<polygon fill="#ffffe0" stroke="#000000" stroke-width=".8" points="498.2246,-363 498.2246,-442 626.076,-442 626.076,-363 498.2246,-363"/>
<text text-anchor="middle" x="562.1503" y="-423.6" font-family="Tahoma bold" font-size="16.00" fill="#000000">router_info</text>
</a>
</g>
</g>
<g id="clust8" class="cluster">
<title>cluster_github.com/go&#45;i2p/go&#45;i2p/lib/common/router_identity</title>
<g id="a_clust8"><a xlink:href="/?f=github.com/go-i2p/go-i2p/lib/common/router_identity" xlink:title="package: github.com/go&#45;i2p/go&#45;i2p/lib/common/router_identity">
<polygon fill="#ffffe0" stroke="#000000" stroke-width=".8" points="488.1117,-276 488.1117,-355 636.1889,-355 636.1889,-276 488.1117,-276"/>
<text text-anchor="middle" x="562.1503" y="-336.6" font-family="Tahoma bold" font-size="16.00" fill="#000000">router_identity</text>
</a>
</g>
</g>
<g id="clust6" class="cluster">
<title>cluster_github.com/go&#45;i2p/go&#45;i2p/lib/common/key_certificate</title>
<g id="a_clust6"><a xlink:href="/?f=github.com/go-i2p/go-i2p/lib/common/key_certificate" xlink:title="package: github.com/go&#45;i2p/go&#45;i2p/lib/common/key_certificate">
<polygon fill="#ffffe0" stroke="#000000" stroke-width=".8" points="456.2442,-772 456.2442,-1007 668.0564,-1007 668.0564,-772 456.2442,-772"/>
<text text-anchor="middle" x="562.1503" y="-988.6" font-family="Tahoma bold" font-size="16.00" fill="#000000">key_certificate</text>
</a>
</g>
</g>
<g id="clust7" class="cluster">
<title>cluster_github.com/go&#45;i2p/go&#45;i2p/lib/common/key_certificate.KeyCertificate</title>
<g id="a_clust7"><a xlink:href="/?f=github.com/go-i2p/go-i2p/lib/common/key_certificate" xlink:title="type: github.com/go&#45;i2p/go&#45;i2p/lib/common/key_certificate.KeyCertificate">
<path fill="#eed8ae" stroke="#000000" stroke-width=".5" d="M515.2723,-780C515.2723,-780 609.0283,-780 609.0283,-780 615.0283,-780 621.0283,-786 621.0283,-792 621.0283,-792 621.0283,-907 621.0283,-907 621.0283,-913 615.0283,-919 609.0283,-919 609.0283,-919 515.2723,-919 515.2723,-919 509.2723,-919 503.2723,-913 503.2723,-907 503.2723,-907 503.2723,-792 503.2723,-792 503.2723,-786 509.2723,-780 515.2723,-780"/>
<text text-anchor="middle" x="562.1503" y="-788.5" font-family="Tahoma bold" font-size="15.00" fill="#222222">(KeyCertificate)</text>
</a>
</g>
</g>
<g id="clust5" class="cluster">
<title>cluster_github.com/go&#45;i2p/go&#45;i2p/lib/common/data</title>
<g id="a_clust5"><a xlink:href="/?f=github.com/go-i2p/go-i2p/lib/common/data" xlink:title="package: github.com/go&#45;i2p/go&#45;i2p/lib/common/data">
<polygon fill="#ffffe0" stroke="#000000" stroke-width=".8" points="486.1734,-685 486.1734,-764 638.1272,-764 638.1272,-685 486.1734,-685"/>
<text text-anchor="middle" x="562.1503" y="-745.6" font-family="Tahoma bold" font-size="16.00" fill="#000000">data</text>
</a>
</g>
</g>
<g id="clust4" class="cluster">
<title>cluster_github.com/go&#45;i2p/go&#45;i2p/lib/common/certificate</title>
<g id="a_clust4"><a xlink:href="/?f=github.com/go-i2p/go-i2p/lib/common/certificate" xlink:title="package: github.com/go&#45;i2p/go&#45;i2p/lib/common/certificate">
<polygon fill="#ffffe0" stroke="#000000" stroke-width=".8" points="471.0156,-598 471.0156,-677 653.285,-677 653.285,-598 471.0156,-598"/>
<text text-anchor="middle" x="562.1503" y="-658.6" font-family="Tahoma bold" font-size="16.00" fill="#000000">certificate</text>
</a>
</g>
</g>
<g id="clust3" class="cluster">
<title>cluster_*github.com/go&#45;i2p/go&#45;i2p/lib/keys.RouterInfoKeystore</title>
<g id="a_clust3"><a xlink:title="type: *github.com/go&#45;i2p/go&#45;i2p/lib/keys.RouterInfoKeystore">
<path fill="#b0c4de" stroke="#000000" stroke-width=".5" d="M255.383,-450C255.383,-450 594.6391,-450 594.6391,-450 600.6391,-450 606.6391,-456 606.6391,-462 606.6391,-462 606.6391,-577 606.6391,-577 606.6391,-583 600.6391,-589 594.6391,-589 594.6391,-589 255.383,-589 255.383,-589 249.383,-589 243.383,-583 243.383,-577 243.383,-577 243.383,-462 243.383,-462 243.383,-456 249.383,-450 255.383,-450"/>
<text text-anchor="middle" x="425.0111" y="-458.5" font-family="Arial" font-size="15.00" fill="#222222">(*RouterInfoKeystore)</text>
</a>
</g>
</g>
<g id="clust2" class="cluster">
<title>cluster_*github.com/go&#45;i2p/go&#45;i2p/lib/keys.KeyStoreImpl</title>
<g id="a_clust2"><a xlink:title="type: *github.com/go&#45;i2p/go&#45;i2p/lib/keys.KeyStoreImpl">
<path fill="#b0c4de" stroke="#000000" stroke-width=".5" d="M60.0344,-296C60.0344,-296 348.3578,-296 348.3578,-296 354.3578,-296 360.3578,-302 360.3578,-308 360.3578,-308 360.3578,-362 360.3578,-362 360.3578,-368 354.3578,-374 348.3578,-374 348.3578,-374 60.0344,-374 60.0344,-374 54.0344,-374 48.0344,-368 48.0344,-362 48.0344,-362 48.0344,-308 48.0344,-308 48.0344,-302 54.0344,-296 60.0344,-296"/>
<text text-anchor="middle" x="204.1961" y="-304.5" font-family="Arial" font-size="15.00" fill="#222222">(*KeyStoreImpl)</text>
</a>
</g>
</g>
<!-- github.com/go&#45;i2p/go&#45;i2p/lib/keys.loadExistingKey -->
<g id="node1" class="node">
<title>github.com/go&#45;i2p/go&#45;i2p/lib/keys.loadExistingKey</title>
<g id="a_node1"><a xlink:title="github.com/go&#45;i2p/go&#45;i2p/lib/keys.loadExistingKey | defined in routerinfo_keystore.go:81&#10;at routerinfo_keystore.go:84: calling [github.com/samber/oops.Errorf]">
<path fill="#add8e6" stroke="#000000" stroke-width=".5" d="M368.409,-133C368.409,-133 274.2182,-133 274.2182,-133 268.2182,-133 262.2182,-127 262.2182,-121 262.2182,-121 262.2182,-109 262.2182,-109 262.2182,-103 268.2182,-97 274.2182,-97 274.2182,-97 368.409,-97 368.409,-97 374.409,-97 380.409,-103 380.409,-109 380.409,-109 380.409,-121 380.409,-121 380.409,-127 374.409,-133 368.409,-133"/>
<text text-anchor="middle" x="321.3136" y="-110.8" font-family="Verdana" font-size="14.00" fill="#000000">loadExistingKey</text>
</a>
</g>
</g>
<!-- github.com/samber/oops.Errorf -->
<g id="node19" class="node">
<title>github.com/samber/oops.Errorf</title>
<g id="a_node19"><a xlink:title="github.com/samber/oops.Errorf | defined in oops.go:34">
<path fill="#ffe4b5" stroke="#000000" stroke-width="1.5" d="M579.3456,-233C579.3456,-233 544.955,-233 544.955,-233 538.955,-233 532.955,-227 532.955,-221 532.955,-221 532.955,-209 532.955,-209 532.955,-203 538.955,-197 544.955,-197 544.955,-197 579.3456,-197 579.3456,-197 585.3456,-197 591.3456,-203 591.3456,-209 591.3456,-209 591.3456,-221 591.3456,-221 591.3456,-227 585.3456,-233 579.3456,-233"/>
<text text-anchor="middle" x="562.1503" y="-210.8" font-family="Verdana" font-size="14.00" fill="#000000">Errorf</text>
</a>
</g>
</g>
<!-- github.com/go&#45;i2p/go&#45;i2p/lib/keys.loadExistingKey&#45;&gt;github.com/samber/oops.Errorf -->
<g id="edge15" class="edge">
<title>github.com/go&#45;i2p/go&#45;i2p/lib/keys.loadExistingKey&#45;&gt;github.com/samber/oops.Errorf</title>
<g id="a_edge15"><a xlink:title="at routerinfo_keystore.go:84: calling [github.com/samber/oops.Errorf]">
<path fill="none" stroke="#8b4513" d="M364.9273,-133.1092C410.1688,-151.8944 480.2341,-180.9868 523.5347,-198.9661"/>
<polygon fill="#8b4513" stroke="#8b4513" points="522.2999,-202.243 532.8776,-202.8454 524.9843,-195.7782 522.2999,-202.243"/>
</a>
</g>
</g>
<!-- github.com/go&#45;i2p/go&#45;i2p/lib/keys.NewRouterInfoKeystore -->
<g id="node2" class="node">
<title>github.com/go&#45;i2p/go&#45;i2p/lib/keys.NewRouterInfoKeystore</title>
<g id="a_node2"><a xlink:title="github.com/go&#45;i2p/go&#45;i2p/lib/keys.NewRouterInfoKeystore | defined in routerinfo_keystore.go:36&#10;at routerinfo_keystore.go:61: calling [github.com/go&#45;i2p/go&#45;i2p/lib/util/time/sntp.NewRouterTimestamper]&#10;at routerinfo_keystore.go:55: calling [github.com/go&#45;i2p/go&#45;i2p/lib/keys.loadExistingKey]&#10;at routerinfo_keystore.go:46: calling [github.com/go&#45;i2p/go&#45;i2p/lib/keys.generateNewKey]">
<path fill="#add8e6" stroke="#000000" stroke-width="1.5" d="M166.575,-133C166.575,-133 27.808,-133 27.808,-133 21.808,-133 15.808,-127 15.808,-121 15.808,-121 15.808,-109 15.808,-109 15.808,-103 21.808,-97 27.808,-97 27.808,-97 166.575,-97 166.575,-97 172.575,-97 178.575,-103 178.575,-109 178.575,-109 178.575,-121 178.575,-121 178.575,-127 172.575,-133 166.575,-133"/>
<text text-anchor="middle" x="97.1915" y="-110.8" font-family="Verdana" font-size="14.00" fill="#000000">NewRouterInfoKeystore</text>
</a>
</g>
</g>
<!-- github.com/go&#45;i2p/go&#45;i2p/lib/keys.NewRouterInfoKeystore&#45;&gt;github.com/go&#45;i2p/go&#45;i2p/lib/keys.loadExistingKey -->
<g id="edge8" class="edge">
<title>github.com/go&#45;i2p/go&#45;i2p/lib/keys.NewRouterInfoKeystore&#45;&gt;github.com/go&#45;i2p/go&#45;i2p/lib/keys.loadExistingKey</title>
<g id="a_edge8"><a xlink:title="at routerinfo_keystore.go:55: calling [github.com/go&#45;i2p/go&#45;i2p/lib/keys.loadExistingKey]">
<path fill="none" stroke="#000000" d="M178.4216,-115C202.5382,-115 228.7205,-115 252.0057,-115"/>
<polygon fill="#000000" stroke="#000000" points="252.1367,-118.5001 262.1367,-115 252.1367,-111.5001 252.1367,-118.5001"/>
</a>
</g>
</g>
<!-- github.com/go&#45;i2p/go&#45;i2p/lib/keys.generateNewKey -->
<g id="node3" class="node">
<title>github.com/go&#45;i2p/go&#45;i2p/lib/keys.generateNewKey</title>
<g id="a_node3"><a xlink:title="github.com/go&#45;i2p/go&#45;i2p/lib/keys.generateNewKey | defined in routerinfo_keystore.go:70">
<path fill="#add8e6" stroke="#000000" stroke-width=".5" d="M369.9723,-194C369.9723,-194 272.6549,-194 272.6549,-194 266.6549,-194 260.6549,-188 260.6549,-182 260.6549,-182 260.6549,-170 260.6549,-170 260.6549,-164 266.6549,-158 272.6549,-158 272.6549,-158 369.9723,-158 369.9723,-158 375.9723,-158 381.9723,-164 381.9723,-170 381.9723,-170 381.9723,-182 381.9723,-182 381.9723,-188 375.9723,-194 369.9723,-194"/>
<text text-anchor="middle" x="321.3136" y="-171.8" font-family="Verdana" font-size="14.00" fill="#000000">generateNewKey</text>
</a>
</g>
</g>
<!-- github.com/go&#45;i2p/go&#45;i2p/lib/keys.NewRouterInfoKeystore&#45;&gt;github.com/go&#45;i2p/go&#45;i2p/lib/keys.generateNewKey -->
<g id="edge9" class="edge">
<title>github.com/go&#45;i2p/go&#45;i2p/lib/keys.NewRouterInfoKeystore&#45;&gt;github.com/go&#45;i2p/go&#45;i2p/lib/keys.generateNewKey</title>
<g id="a_edge9"><a xlink:title="at routerinfo_keystore.go:46: calling [github.com/go&#45;i2p/go&#45;i2p/lib/keys.generateNewKey]">
<path fill="none" stroke="#000000" d="M163.5258,-133.0544C191.0064,-140.5339 222.9154,-149.2186 250.8184,-156.8131"/>
<polygon fill="#000000" stroke="#000000" points="249.9389,-160.201 260.5071,-159.4501 251.7773,-153.4467 249.9389,-160.201"/>
</a>
</g>
</g>
<!-- github.com/go&#45;i2p/go&#45;i2p/lib/util/time/sntp.NewRouterTimestamper -->
<g id="node17" class="node">
<title>github.com/go&#45;i2p/go&#45;i2p/lib/util/time/sntp.NewRouterTimestamper</title>
<g id="a_node17"><a xlink:title="github.com/go&#45;i2p/go&#45;i2p/lib/util/time/sntp.NewRouterTimestamper | defined in router_timestamper.go:55">
<path fill="#ffe4b5" stroke="#000000" stroke-width="1.5" d="M631.545,-60C631.545,-60 492.7556,-60 492.7556,-60 486.7556,-60 480.7556,-54 480.7556,-48 480.7556,-48 480.7556,-36 480.7556,-36 480.7556,-30 486.7556,-24 492.7556,-24 492.7556,-24 631.545,-24 631.545,-24 637.545,-24 643.545,-30 643.545,-36 643.545,-36 643.545,-48 643.545,-48 643.545,-54 637.545,-60 631.545,-60"/>
<text text-anchor="middle" x="562.1503" y="-37.8" font-family="Verdana" font-size="14.00" fill="#000000">NewRouterTimestamper</text>
</a>
</g>
</g>
<!-- github.com/go&#45;i2p/go&#45;i2p/lib/keys.NewRouterInfoKeystore&#45;&gt;github.com/go&#45;i2p/go&#45;i2p/lib/util/time/sntp.NewRouterTimestamper -->
<g id="edge5" class="edge">
<title>github.com/go&#45;i2p/go&#45;i2p/lib/keys.NewRouterInfoKeystore&#45;&gt;github.com/go&#45;i2p/go&#45;i2p/lib/util/time/sntp.NewRouterTimestamper</title>
<g id="a_edge5"><a xlink:title="at routerinfo_keystore.go:61: calling [github.com/go&#45;i2p/go&#45;i2p/lib/util/time/sntp.NewRouterTimestamper]">
<path fill="none" stroke="#8b4513" d="M178.582,-97.271C199.6359,-92.9673 222.3096,-88.5793 243.383,-85 319.6805,-72.041 406.7889,-60.5111 470.6433,-52.6608"/>
<polygon fill="#8b4513" stroke="#8b4513" points="471.1854,-56.1207 480.6866,-51.4328 470.3358,-49.1724 471.1854,-56.1207"/>
</a>
</g>
</g>
<!-- (*github.com/go&#45;i2p/go&#45;i2p/lib/keys.KeyStoreImpl).StoreKeys -->
<g id="node4" class="node">
<title>(*github.com/go&#45;i2p/go&#45;i2p/lib/keys.KeyStoreImpl).StoreKeys</title>
<g id="a_node4"><a xlink:title="(*github.com/go&#45;i2p/go&#45;i2p/lib/keys.KeyStoreImpl).StoreKeys | defined in types.go:56&#10;at types.go:65: calling [(*github.com/go&#45;i2p/go&#45;i2p/lib/keys.KeyStoreImpl).KeyID]">
<path fill="#add8e6" stroke="#000000" stroke-width="1.5" d="M126.5063,-366C126.5063,-366 67.8767,-366 67.8767,-366 61.8767,-366 55.8767,-360 55.8767,-354 55.8767,-354 55.8767,-342 55.8767,-342 55.8767,-336 61.8767,-330 67.8767,-330 67.8767,-330 126.5063,-330 126.5063,-330 132.5063,-330 138.5063,-336 138.5063,-342 138.5063,-342 138.5063,-354 138.5063,-354 138.5063,-360 132.5063,-366 126.5063,-366"/>
<text text-anchor="middle" x="97.1915" y="-343.8" font-family="Verdana" font-size="14.00" fill="#000000">StoreKeys</text>
</a>
</g>
</g>
<!-- (*github.com/go&#45;i2p/go&#45;i2p/lib/keys.KeyStoreImpl).KeyID -->
<g id="node5" class="node">
<title>(*github.com/go&#45;i2p/go&#45;i2p/lib/keys.KeyStoreImpl).KeyID</title>
<g id="a_node5"><a xlink:title="(*github.com/go&#45;i2p/go&#45;i2p/lib/keys.KeyStoreImpl).KeyID | defined in types.go:33">
<path fill="#add8e6" stroke="#000000" stroke-width="1.5" d="M340.4021,-366C340.4021,-366 302.2251,-366 302.2251,-366 296.2251,-366 290.2251,-360 290.2251,-354 290.2251,-354 290.2251,-342 290.2251,-342 290.2251,-336 296.2251,-330 302.2251,-330 302.2251,-330 340.4021,-330 340.4021,-330 346.4021,-330 352.4021,-336 352.4021,-342 352.4021,-342 352.4021,-354 352.4021,-354 352.4021,-360 346.4021,-366 340.4021,-366"/>
<text text-anchor="middle" x="321.3136" y="-343.8" font-family="Verdana" font-size="14.00" fill="#000000">KeyID</text>
</a>
</g>
</g>
<!-- (*github.com/go&#45;i2p/go&#45;i2p/lib/keys.KeyStoreImpl).StoreKeys&#45;&gt;(*github.com/go&#45;i2p/go&#45;i2p/lib/keys.KeyStoreImpl).KeyID -->
<g id="edge16" class="edge">
<title>(*github.com/go&#45;i2p/go&#45;i2p/lib/keys.KeyStoreImpl).StoreKeys&#45;&gt;(*github.com/go&#45;i2p/go&#45;i2p/lib/keys.KeyStoreImpl).KeyID</title>
<g id="a_edge16"><a xlink:title="at types.go:65: calling [(*github.com/go&#45;i2p/go&#45;i2p/lib/keys.KeyStoreImpl).KeyID]">
<path fill="none" stroke="#000000" d="M138.5601,-348C178.8185,-348 239.6508,-348 279.9182,-348"/>
<polygon fill="#000000" stroke="#000000" points="279.9394,-351.5001 289.9393,-348 279.9393,-344.5001 279.9394,-351.5001"/>
</a>
</g>
</g>
<!-- (*github.com/go&#45;i2p/go&#45;i2p/lib/keys.RouterInfoKeystore).ConstructRouterInfo -->
<g id="node6" class="node">
<title>(*github.com/go&#45;i2p/go&#45;i2p/lib/keys.RouterInfoKeystore).ConstructRouterInfo</title>
<g id="a_node6"><a xlink:title="(*github.com/go&#45;i2p/go&#45;i2p/lib/keys.RouterInfoKeystore).ConstructRouterInfo | defined in routerinfo_keystore.go:125&#10;at routerinfo_keystore.go:127: calling [(*github.com/go&#45;i2p/go&#45;i2p/lib/keys.RouterInfoKeystore).GetKeys]&#10;at routerinfo_keystore.go:151: calling [github.com/go&#45;i2p/go&#45;i2p/lib/common/key_certificate.KeyCertificateFromCertificate]&#10;at routerinfo_keystore.go:166: calling [github.com/go&#45;i2p/go&#45;i2p/lib/common/router_identity.NewRouterIdentity]&#10;at routerinfo_keystore.go:185: calling [github.com/go&#45;i2p/go&#45;i2p/lib/common/router_info.NewRouterInfo]&#10;at routerinfo_keystore.go:134: calling [github.com/go&#45;i2p/go&#45;i2p/lib/common/data.NewIntegerFromInt]&#10;at routerinfo_keystore.go:138: calling [github.com/go&#45;i2p/go&#45;i2p/lib/common/data.NewIntegerFromInt]&#10;at routerinfo_keystore.go:145: calling [github.com/go&#45;i2p/go&#45;i2p/lib/common/certificate.NewCertificateWithType]&#10;at routerinfo_keystore.go:129: calling [github.com/samber/oops.Errorf]&#10;at routerinfo_keystore.go:136: calling [github.com/samber/oops.Errorf]&#10;at routerinfo_keystore.go:140: calling [github.com/samber/oops.Errorf]&#10;at routerinfo_keystore.go:147: calling [github.com/samber/oops.Errorf]&#10;at routerinfo_keystore.go:153: calling [github.com/samber/oops.Errorf]&#10;at routerinfo_keystore.go:162: calling [github.com/samber/oops.Errorf]&#10;at routerinfo_keystore.go:173: calling [github.com/samber/oops.Errorf]&#10;at routerinfo_keystore.go:194: calling [github.com/samber/oops.Errorf]&#10;at routerinfo_keystore.go:156: calling [(github.com/go&#45;i2p/go&#45;i2p/lib/common/key_certificate.KeyCertificate).CryptoSize]&#10;at routerinfo_keystore.go:157: calling [(github.com/go&#45;i2p/go&#45;i2p/lib/common/key_certificate.KeyCertificate).SignatureSize]&#10;at routerinfo_keystore.go:177: calling [(*github.com/go&#45;i2p/go&#45;i2p/lib/util/time/sntp.RouterTimestamper).GetCurrentTime]">
<path fill="#add8e6" stroke="#000000" stroke-width="1.5" d="M379.1749,-581C379.1749,-581 263.4523,-581 263.4523,-581 257.4523,-581 251.4523,-575 251.4523,-569 251.4523,-569 251.4523,-557 251.4523,-557 251.4523,-551 257.4523,-545 263.4523,-545 263.4523,-545 379.1749,-545 379.1749,-545 385.1749,-545 391.1749,-551 391.1749,-557 391.1749,-557 391.1749,-569 391.1749,-569 391.1749,-575 385.1749,-581 379.1749,-581"/>
<text text-anchor="middle" x="321.3136" y="-558.8" font-family="Verdana" font-size="14.00" fill="#000000">ConstructRouterInfo</text>
</a>
</g>
</g>
<!-- (*github.com/go&#45;i2p/go&#45;i2p/lib/keys.RouterInfoKeystore).GetKeys -->
<g id="node7" class="node">
<title>(*github.com/go&#45;i2p/go&#45;i2p/lib/keys.RouterInfoKeystore).GetKeys</title>
<g id="a_node7"><a xlink:title="(*github.com/go&#45;i2p/go&#45;i2p/lib/keys.RouterInfoKeystore).GetKeys | defined in routerinfo_keystore.go:91">
<path fill="#add8e6" stroke="#000000" stroke-width="1.5" d="M586.6279,-581C586.6279,-581 537.6727,-581 537.6727,-581 531.6727,-581 525.6727,-575 525.6727,-569 525.6727,-569 525.6727,-557 525.6727,-557 525.6727,-551 531.6727,-545 537.6727,-545 537.6727,-545 586.6279,-545 586.6279,-545 592.6279,-545 598.6279,-551 598.6279,-557 598.6279,-557 598.6279,-569 598.6279,-569 598.6279,-575 592.6279,-581 586.6279,-581"/>
<text text-anchor="middle" x="562.1503" y="-558.8" font-family="Verdana" font-size="14.00" fill="#000000">GetKeys</text>
</a>
</g>
</g>
<!-- (*github.com/go&#45;i2p/go&#45;i2p/lib/keys.RouterInfoKeystore).ConstructRouterInfo&#45;&gt;(*github.com/go&#45;i2p/go&#45;i2p/lib/keys.RouterInfoKeystore).GetKeys -->
<g id="edge1" class="edge">
<title>(*github.com/go&#45;i2p/go&#45;i2p/lib/keys.RouterInfoKeystore).ConstructRouterInfo&#45;&gt;(*github.com/go&#45;i2p/go&#45;i2p/lib/keys.RouterInfoKeystore).GetKeys</title>
<g id="a_edge1"><a xlink:title="at routerinfo_keystore.go:127: calling [(*github.com/go&#45;i2p/go&#45;i2p/lib/keys.RouterInfoKeystore).GetKeys]">
<path fill="none" stroke="#000000" d="M391.2971,-563C431.2409,-563 480.2213,-563 515.4818,-563"/>
<polygon fill="#000000" stroke="#000000" points="515.5008,-566.5001 525.5008,-563 515.5007,-559.5001 515.5008,-566.5001"/>
</a>
</g>
</g>
<!-- github.com/go&#45;i2p/go&#45;i2p/lib/common/certificate.NewCertificateWithType -->
<g id="node10" class="node">
<title>github.com/go&#45;i2p/go&#45;i2p/lib/common/certificate.NewCertificateWithType</title>
<g id="a_node10"><a xlink:title="github.com/go&#45;i2p/go&#45;i2p/lib/common/certificate.NewCertificateWithType | defined in certificate.go:252">
<path fill="#ffe4b5" stroke="#000000" stroke-width="1.5" d="M633.4199,-642C633.4199,-642 490.8807,-642 490.8807,-642 484.8807,-642 478.8807,-636 478.8807,-630 478.8807,-630 478.8807,-618 478.8807,-618 478.8807,-612 484.8807,-606 490.8807,-606 490.8807,-606 633.4199,-606 633.4199,-606 639.4199,-606 645.4199,-612 645.4199,-618 645.4199,-618 645.4199,-630 645.4199,-630 645.4199,-636 639.4199,-642 633.4199,-642"/>
<text text-anchor="middle" x="562.1503" y="-619.8" font-family="Verdana" font-size="14.00" fill="#000000">NewCertificateWithType</text>
</a>
</g>
</g>
<!-- (*github.com/go&#45;i2p/go&#45;i2p/lib/keys.RouterInfoKeystore).ConstructRouterInfo&#45;&gt;github.com/go&#45;i2p/go&#45;i2p/lib/common/certificate.NewCertificateWithType -->
<g id="edge7" class="edge">
<title>(*github.com/go&#45;i2p/go&#45;i2p/lib/keys.RouterInfoKeystore).ConstructRouterInfo&#45;&gt;github.com/go&#45;i2p/go&#45;i2p/lib/common/certificate.NewCertificateWithType</title>
<g id="a_edge7"><a xlink:title="at routerinfo_keystore.go:145: calling [github.com/go&#45;i2p/go&#45;i2p/lib/common/certificate.NewCertificateWithType]">
<path fill="none" stroke="#8b4513" d="M391.2971,-580.7257C419.3719,-587.8366 451.9109,-596.0782 481.0125,-603.4491"/>
<polygon fill="#8b4513" stroke="#8b4513" points="480.1853,-606.8501 490.7386,-605.9126 481.9041,-600.0643 480.1853,-606.8501"/>
</a>
</g>
</g>
<!-- github.com/go&#45;i2p/go&#45;i2p/lib/common/data.NewIntegerFromInt -->
<g id="node11" class="node">
<title>github.com/go&#45;i2p/go&#45;i2p/lib/common/data.NewIntegerFromInt</title>
<g id="a_node11"><a xlink:title="github.com/go&#45;i2p/go&#45;i2p/lib/common/data.NewIntegerFromInt | defined in integer.go:68">
<path fill="#ffe4b5" stroke="#000000" stroke-width="1.5" d="M618.1041,-729C618.1041,-729 506.1965,-729 506.1965,-729 500.1965,-729 494.1965,-723 494.1965,-717 494.1965,-717 494.1965,-705 494.1965,-705 494.1965,-699 500.1965,-693 506.1965,-693 506.1965,-693 618.1041,-693 618.1041,-693 624.1041,-693 630.1041,-699 630.1041,-705 630.1041,-705 630.1041,-717 630.1041,-717 630.1041,-723 624.1041,-729 618.1041,-729"/>
<text text-anchor="middle" x="562.1503" y="-706.8" font-family="Verdana" font-size="14.00" fill="#000000">NewIntegerFromInt</text>
</a>
</g>
</g>
<!-- (*github.com/go&#45;i2p/go&#45;i2p/lib/keys.RouterInfoKeystore).ConstructRouterInfo&#45;&gt;github.com/go&#45;i2p/go&#45;i2p/lib/common/data.NewIntegerFromInt -->
<g id="edge6" class="edge">
<title>(*github.com/go&#45;i2p/go&#45;i2p/lib/keys.RouterInfoKeystore).ConstructRouterInfo&#45;&gt;github.com/go&#45;i2p/go&#45;i2p/lib/common/data.NewIntegerFromInt</title>
<g id="a_edge6"><a xlink:title="at routerinfo_keystore.go:134: calling [github.com/go&#45;i2p/go&#45;i2p/lib/common/data.NewIntegerFromInt]&#10;at routerinfo_keystore.go:138: calling [github.com/go&#45;i2p/go&#45;i2p/lib/common/data.NewIntegerFromInt]">
<path fill="none" stroke="#8b4513" d="M336.7834,-581.3919C360.0168,-607.8264 406.5267,-656.3096 456.2442,-683 464.9784,-687.6889 474.5465,-691.6292 484.2469,-694.9313"/>
<polygon fill="#8b4513" stroke="#8b4513" points="483.3747,-698.3267 493.9652,-698.0248 485.498,-691.6565 483.3747,-698.3267"/>
</a>
</g>
</g>
<!-- github.com/go&#45;i2p/go&#45;i2p/lib/common/key_certificate.KeyCertificateFromCertificate -->
<g id="node12" class="node">
<title>github.com/go&#45;i2p/go&#45;i2p/lib/common/key_certificate.KeyCertificateFromCertificate</title>
<g id="a_node12"><a xlink:title="github.com/go&#45;i2p/go&#45;i2p/lib/common/key_certificate.KeyCertificateFromCertificate | defined in key_certificate.go:395">
<path fill="#ffe4b5" stroke="#000000" stroke-width="1.5" d="M647.9626,-972C647.9626,-972 476.338,-972 476.338,-972 470.338,-972 464.338,-966 464.338,-960 464.338,-960 464.338,-948 464.338,-948 464.338,-942 470.338,-936 476.338,-936 476.338,-936 647.9626,-936 647.9626,-936 653.9626,-936 659.9626,-942 659.9626,-948 659.9626,-948 659.9626,-960 659.9626,-960 659.9626,-966 653.9626,-972 647.9626,-972"/>
<text text-anchor="middle" x="562.1503" y="-949.8" font-family="Verdana" font-size="14.00" fill="#000000">KeyCertificateFromCertificate</text>
</a>
</g>
</g>
<!-- (*github.com/go&#45;i2p/go&#45;i2p/lib/keys.RouterInfoKeystore).ConstructRouterInfo&#45;&gt;github.com/go&#45;i2p/go&#45;i2p/lib/common/key_certificate.KeyCertificateFromCertificate -->
<g id="edge2" class="edge">
<title>(*github.com/go&#45;i2p/go&#45;i2p/lib/keys.RouterInfoKeystore).ConstructRouterInfo&#45;&gt;github.com/go&#45;i2p/go&#45;i2p/lib/common/key_certificate.KeyCertificateFromCertificate</title>
<g id="a_edge2"><a xlink:title="at routerinfo_keystore.go:151: calling [github.com/go&#45;i2p/go&#45;i2p/lib/common/key_certificate.KeyCertificateFromCertificate]">
<path fill="none" stroke="#8b4513" d="M322.4636,-581.2135C327.197,-640.2585 350.3126,-828.1499 456.2442,-925 458.4206,-926.9898 460.7206,-928.845 463.1214,-930.5746"/>
<polygon fill="#8b4513" stroke="#8b4513" points="461.3213,-933.5776 471.6391,-935.9845 465.0743,-927.6686 461.3213,-933.5776"/>
</a>
</g>
</g>
<!-- (github.com/go&#45;i2p/go&#45;i2p/lib/common/key_certificate.KeyCertificate).CryptoSize -->
<g id="node13" class="node">
<title>(github.com/go&#45;i2p/go&#45;i2p/lib/common/key_certificate.KeyCertificate).CryptoSize</title>
<g id="a_node13"><a xlink:title="(github.com/go&#45;i2p/go&#45;i2p/lib/common/key_certificate.KeyCertificate).CryptoSize | defined in key_certificate.go:336">
<path fill="#ffe4b5" stroke="#000000" stroke-width="1.5" d="M593.6405,-911C593.6405,-911 530.6601,-911 530.6601,-911 524.6601,-911 518.6601,-905 518.6601,-899 518.6601,-899 518.6601,-887 518.6601,-887 518.6601,-881 524.6601,-875 530.6601,-875 530.6601,-875 593.6405,-875 593.6405,-875 599.6405,-875 605.6405,-881 605.6405,-887 605.6405,-887 605.6405,-899 605.6405,-899 605.6405,-905 599.6405,-911 593.6405,-911"/>
<text text-anchor="middle" x="562.1503" y="-888.8" font-family="Verdana" font-size="14.00" fill="#000000">CryptoSize</text>
</a>
</g>
</g>
<!-- (*github.com/go&#45;i2p/go&#45;i2p/lib/keys.RouterInfoKeystore).ConstructRouterInfo&#45;&gt;(github.com/go&#45;i2p/go&#45;i2p/lib/common/key_certificate.KeyCertificate).CryptoSize -->
<g id="edge11" class="edge">
<title>(*github.com/go&#45;i2p/go&#45;i2p/lib/keys.RouterInfoKeystore).ConstructRouterInfo&#45;&gt;(github.com/go&#45;i2p/go&#45;i2p/lib/common/key_certificate.KeyCertificate).CryptoSize</title>
<g id="a_edge11"><a xlink:title="at routerinfo_keystore.go:156: calling [(github.com/go&#45;i2p/go&#45;i2p/lib/common/key_certificate.KeyCertificate).CryptoSize]">
<path fill="none" stroke="#8b4513" d="M324.0872,-581.3603C332.9772,-633.6863 365.6743,-784.8234 456.2442,-863 470.7692,-875.5374 490.192,-882.8551 508.4362,-887.1189"/>
<polygon fill="#8b4513" stroke="#8b4513" points="507.9098,-890.5841 518.4121,-889.1872 509.3309,-883.7299 507.9098,-890.5841"/>
</a>
</g>
</g>
<!-- (github.com/go&#45;i2p/go&#45;i2p/lib/common/key_certificate.KeyCertificate).SignatureSize -->
<g id="node14" class="node">
<title>(github.com/go&#45;i2p/go&#45;i2p/lib/common/key_certificate.KeyCertificate).SignatureSize</title>
<g id="a_node14"><a xlink:title="(github.com/go&#45;i2p/go&#45;i2p/lib/common/key_certificate.KeyCertificate).SignatureSize | defined in key_certificate.go:308">
<path fill="#ffe4b5" stroke="#000000" stroke-width="1.5" d="M600.9066,-850C600.9066,-850 523.394,-850 523.394,-850 517.394,-850 511.394,-844 511.394,-838 511.394,-838 511.394,-826 511.394,-826 511.394,-820 517.394,-814 523.394,-814 523.394,-814 600.9066,-814 600.9066,-814 606.9066,-814 612.9066,-820 612.9066,-826 612.9066,-826 612.9066,-838 612.9066,-838 612.9066,-844 606.9066,-850 600.9066,-850"/>
<text text-anchor="middle" x="562.1503" y="-827.8" font-family="Verdana" font-size="14.00" fill="#000000">SignatureSize</text>
</a>
</g>
</g>
<!-- (*github.com/go&#45;i2p/go&#45;i2p/lib/keys.RouterInfoKeystore).ConstructRouterInfo&#45;&gt;(github.com/go&#45;i2p/go&#45;i2p/lib/common/key_certificate.KeyCertificate).SignatureSize -->
<g id="edge12" class="edge">
<title>(*github.com/go&#45;i2p/go&#45;i2p/lib/keys.RouterInfoKeystore).ConstructRouterInfo&#45;&gt;(github.com/go&#45;i2p/go&#45;i2p/lib/common/key_certificate.KeyCertificate).SignatureSize</title>
<g id="a_edge12"><a xlink:title="at routerinfo_keystore.go:157: calling [(github.com/go&#45;i2p/go&#45;i2p/lib/common/key_certificate.KeyCertificate).SignatureSize]">
<path fill="none" stroke="#8b4513" d="M329.4852,-581.0376C347.6673,-619.6179 394.7587,-711.3991 456.2442,-770 472.6871,-785.6715 493.803,-799.0432 512.8476,-809.3126"/>
<polygon fill="#8b4513" stroke="#8b4513" points="511.2307,-812.4167 521.7133,-813.9551 514.478,-806.2155 511.2307,-812.4167"/>
</a>
</g>
</g>
<!-- github.com/go&#45;i2p/go&#45;i2p/lib/common/router_identity.NewRouterIdentity -->
<g id="node15" class="node">
<title>github.com/go&#45;i2p/go&#45;i2p/lib/common/router_identity.NewRouterIdentity</title>
<g id="a_node15"><a xlink:title="github.com/go&#45;i2p/go&#45;i2p/lib/common/router_identity.NewRouterIdentity | defined in router_identity.go:55">
<path fill="#ffe4b5" stroke="#000000" stroke-width="1.5" d="M616.2275,-320C616.2275,-320 508.0731,-320 508.0731,-320 502.0731,-320 496.0731,-314 496.0731,-308 496.0731,-308 496.0731,-296 496.0731,-296 496.0731,-290 502.0731,-284 508.0731,-284 508.0731,-284 616.2275,-284 616.2275,-284 622.2275,-284 628.2275,-290 628.2275,-296 628.2275,-296 628.2275,-308 628.2275,-308 628.2275,-314 622.2275,-320 616.2275,-320"/>
<text text-anchor="middle" x="562.1503" y="-297.8" font-family="Verdana" font-size="14.00" fill="#000000">NewRouterIdentity</text>
</a>
</g>
</g>
<!-- (*github.com/go&#45;i2p/go&#45;i2p/lib/keys.RouterInfoKeystore).ConstructRouterInfo&#45;&gt;github.com/go&#45;i2p/go&#45;i2p/lib/common/router_identity.NewRouterIdentity -->
<g id="edge3" class="edge">
<title>(*github.com/go&#45;i2p/go&#45;i2p/lib/keys.RouterInfoKeystore).ConstructRouterInfo&#45;&gt;github.com/go&#45;i2p/go&#45;i2p/lib/common/router_identity.NewRouterIdentity</title>
<g id="a_edge3"><a xlink:title="at routerinfo_keystore.go:166: calling [github.com/go&#45;i2p/go&#45;i2p/lib/common/router_identity.NewRouterIdentity]">
<path fill="none" stroke="#8b4513" d="M376.1419,-544.8743C381.6893,-541.5261 386.8772,-537.5978 391.2442,-533 448.6705,-472.5392 401.0856,-419.5365 456.2442,-357 468.1587,-343.4919 484.1948,-332.8154 500.179,-324.6052"/>
<polygon fill="#8b4513" stroke="#8b4513" points="502.0861,-327.5701 509.5528,-320.0534 499.0284,-321.2732 502.0861,-327.5701"/>
</a>
</g>
</g>
<!-- github.com/go&#45;i2p/go&#45;i2p/lib/common/router_info.NewRouterInfo -->
<g id="node16" class="node">
<title>github.com/go&#45;i2p/go&#45;i2p/lib/common/router_info.NewRouterInfo</title>
<g id="a_node16"><a xlink:title="github.com/go&#45;i2p/go&#45;i2p/lib/common/router_info.NewRouterInfo | defined in router_info.go:370">
<path fill="#ffe4b5" stroke="#000000" stroke-width="1.5" d="M606.0018,-407C606.0018,-407 518.2988,-407 518.2988,-407 512.2988,-407 506.2988,-401 506.2988,-395 506.2988,-395 506.2988,-383 506.2988,-383 506.2988,-377 512.2988,-371 518.2988,-371 518.2988,-371 606.0018,-371 606.0018,-371 612.0018,-371 618.0018,-377 618.0018,-383 618.0018,-383 618.0018,-395 618.0018,-395 618.0018,-401 612.0018,-407 606.0018,-407"/>
<text text-anchor="middle" x="562.1503" y="-384.8" font-family="Verdana" font-size="14.00" fill="#000000">NewRouterInfo</text>
</a>
</g>
</g>
<!-- (*github.com/go&#45;i2p/go&#45;i2p/lib/keys.RouterInfoKeystore).ConstructRouterInfo&#45;&gt;github.com/go&#45;i2p/go&#45;i2p/lib/common/router_info.NewRouterInfo -->
<g id="edge4" class="edge">
<title>(*github.com/go&#45;i2p/go&#45;i2p/lib/keys.RouterInfoKeystore).ConstructRouterInfo&#45;&gt;github.com/go&#45;i2p/go&#45;i2p/lib/common/router_info.NewRouterInfo</title>
<g id="a_edge4"><a xlink:title="at routerinfo_keystore.go:185: calling [github.com/go&#45;i2p/go&#45;i2p/lib/common/router_info.NewRouterInfo]">
<path fill="none" stroke="#8b4513" d="M372.4368,-544.9314C379.0918,-541.4935 385.5609,-537.527 391.2442,-533 429.5572,-502.4824 419.0822,-475.9092 456.2442,-444 471.2309,-431.1317 489.7446,-420.2196 507.0792,-411.5916"/>
<polygon fill="#8b4513" stroke="#8b4513" points="509.0618,-414.5221 516.5584,-407.0353 506.0292,-408.213 509.0618,-414.5221"/>
</a>
</g>
</g>
<!-- (*github.com/go&#45;i2p/go&#45;i2p/lib/util/time/sntp.RouterTimestamper).GetCurrentTime -->
<g id="node18" class="node">
<title>(*github.com/go&#45;i2p/go&#45;i2p/lib/util/time/sntp.RouterTimestamper).GetCurrentTime</title>
<g id="a_node18"><a xlink:title="(*github.com/go&#45;i2p/go&#45;i2p/lib/util/time/sntp.RouterTimestamper).GetCurrentTime | defined in router_timestamper.go:397">
<path fill="#ffe4b5" stroke="#000000" stroke-width="1.5" d="M608.1745,-138C608.1745,-138 516.1261,-138 516.1261,-138 510.1261,-138 504.1261,-132 504.1261,-126 504.1261,-126 504.1261,-114 504.1261,-114 504.1261,-108 510.1261,-102 516.1261,-102 516.1261,-102 608.1745,-102 608.1745,-102 614.1745,-102 620.1745,-108 620.1745,-114 620.1745,-114 620.1745,-126 620.1745,-126 620.1745,-132 614.1745,-138 608.1745,-138"/>
<text text-anchor="middle" x="562.1503" y="-115.8" font-family="Verdana" font-size="14.00" fill="#000000">GetCurrentTime</text>
</a>
</g>
</g>
<!-- (*github.com/go&#45;i2p/go&#45;i2p/lib/keys.RouterInfoKeystore).ConstructRouterInfo&#45;&gt;(*github.com/go&#45;i2p/go&#45;i2p/lib/util/time/sntp.RouterTimestamper).GetCurrentTime -->
<g id="edge13" class="edge">
<title>(*github.com/go&#45;i2p/go&#45;i2p/lib/keys.RouterInfoKeystore).ConstructRouterInfo&#45;&gt;(*github.com/go&#45;i2p/go&#45;i2p/lib/util/time/sntp.RouterTimestamper).GetCurrentTime</title>
<g id="a_edge13"><a xlink:title="at routerinfo_keystore.go:177: calling [(*github.com/go&#45;i2p/go&#45;i2p/lib/util/time/sntp.RouterTimestamper).GetCurrentTime]">
<path fill="none" stroke="#8b4513" d="M378.0275,-544.975C383.022,-541.6272 387.5671,-537.6712 391.2442,-533 440.175,-470.8405 410.2383,-247.3544 456.2442,-183 468.4284,-165.9565 486.7885,-152.7334 504.8166,-142.9019"/>
<polygon fill="#8b4513" stroke="#8b4513" points="506.8997,-145.7654 514.1793,-138.0676 503.6881,-139.5456 506.8997,-145.7654"/>
</a>
</g>
</g>
<!-- (*github.com/go&#45;i2p/go&#45;i2p/lib/keys.RouterInfoKeystore).ConstructRouterInfo&#45;&gt;github.com/samber/oops.Errorf -->
<g id="edge10" class="edge">
<title>(*github.com/go&#45;i2p/go&#45;i2p/lib/keys.RouterInfoKeystore).ConstructRouterInfo&#45;&gt;github.com/samber/oops.Errorf</title>
<g id="a_edge10"><a xlink:title="at routerinfo_keystore.go:129: calling [github.com/samber/oops.Errorf]&#10;at routerinfo_keystore.go:136: calling [github.com/samber/oops.Errorf]&#10;at routerinfo_keystore.go:140: calling [github.com/samber/oops.Errorf]&#10;at routerinfo_keystore.go:147: calling [github.com/samber/oops.Errorf]&#10;at routerinfo_keystore.go:153: calling [github.com/samber/oops.Errorf]&#10;at routerinfo_keystore.go:162: calling [github.com/samber/oops.Errorf]&#10;at routerinfo_keystore.go:173: calling [github.com/samber/oops.Errorf]&#10;at routerinfo_keystore.go:194: calling [github.com/samber/oops.Errorf]">
<path fill="none" stroke="#8b4513" d="M377.3421,-544.9096C382.5336,-541.5689 387.3111,-537.6325 391.2442,-533 469.1721,-441.2132 381.7526,-364.5969 456.2442,-270 472.9923,-248.7316 500.2338,-234.8459 522.8938,-226.3474"/>
<polygon fill="#8b4513" stroke="#8b4513" points="524.3378,-229.5494 532.6038,-222.9219 522.009,-222.9482 524.3378,-229.5494"/>
</a>
</g>
</g>
<!-- (*github.com/go&#45;i2p/go&#45;i2p/lib/keys.RouterInfoKeystore).StoreKeys -->
<g id="node8" class="node">
<title>(*github.com/go&#45;i2p/go&#45;i2p/lib/keys.RouterInfoKeystore).StoreKeys</title>
<g id="a_node8"><a xlink:title="(*github.com/go&#45;i2p/go&#45;i2p/lib/keys.RouterInfoKeystore).StoreKeys | defined in routerinfo_keystore.go:99&#10;at routerinfo_keystore.go:107: calling [(*github.com/go&#45;i2p/go&#45;i2p/lib/keys.RouterInfoKeystore).KeyID]">
<path fill="#add8e6" stroke="#000000" stroke-width="1.5" d="M350.6284,-520C350.6284,-520 291.9988,-520 291.9988,-520 285.9988,-520 279.9988,-514 279.9988,-508 279.9988,-508 279.9988,-496 279.9988,-496 279.9988,-490 285.9988,-484 291.9988,-484 291.9988,-484 350.6284,-484 350.6284,-484 356.6284,-484 362.6284,-490 362.6284,-496 362.6284,-496 362.6284,-508 362.6284,-508 362.6284,-514 356.6284,-520 350.6284,-520"/>
<text text-anchor="middle" x="321.3136" y="-497.8" font-family="Verdana" font-size="14.00" fill="#000000">StoreKeys</text>
</a>
</g>
</g>
<!-- (*github.com/go&#45;i2p/go&#45;i2p/lib/keys.RouterInfoKeystore).KeyID -->
<g id="node9" class="node">
<title>(*github.com/go&#45;i2p/go&#45;i2p/lib/keys.RouterInfoKeystore).KeyID</title>
<g id="a_node9"><a xlink:title="(*github.com/go&#45;i2p/go&#45;i2p/lib/keys.RouterInfoKeystore).KeyID | defined in routerinfo_keystore.go:111">
<path fill="#add8e6" stroke="#000000" stroke-width="1.5" d="M581.2388,-520C581.2388,-520 543.0618,-520 543.0618,-520 537.0618,-520 531.0618,-514 531.0618,-508 531.0618,-508 531.0618,-496 531.0618,-496 531.0618,-490 537.0618,-484 543.0618,-484 543.0618,-484 581.2388,-484 581.2388,-484 587.2388,-484 593.2388,-490 593.2388,-496 593.2388,-496 593.2388,-508 593.2388,-508 593.2388,-514 587.2388,-520 581.2388,-520"/>
<text text-anchor="middle" x="562.1503" y="-497.8" font-family="Verdana" font-size="14.00" fill="#000000">KeyID</text>
</a>
</g>
</g>
<!-- (*github.com/go&#45;i2p/go&#45;i2p/lib/keys.RouterInfoKeystore).StoreKeys&#45;&gt;(*github.com/go&#45;i2p/go&#45;i2p/lib/keys.RouterInfoKeystore).KeyID -->
<g id="edge14" class="edge">
<title>(*github.com/go&#45;i2p/go&#45;i2p/lib/keys.RouterInfoKeystore).StoreKeys&#45;&gt;(*github.com/go&#45;i2p/go&#45;i2p/lib/keys.RouterInfoKeystore).KeyID</title>
<g id="a_edge14"><a xlink:title="at routerinfo_keystore.go:107: calling [(*github.com/go&#45;i2p/go&#45;i2p/lib/keys.RouterInfoKeystore).KeyID]">
<path fill="none" stroke="#000000" d="M362.7149,-502C406.9153,-502 476.5456,-502 520.7468,-502"/>
<polygon fill="#000000" stroke="#000000" points="520.861,-505.5001 530.861,-502 520.8609,-498.5001 520.861,-505.5001"/>
</a>
</g>
</g>
</g>
</svg>
