<?xml version="1.0" encoding="UTF-8" standalone="no"?>
<!DOCTYPE svg PUBLIC "-//W3C//DTD SVG 1.1//EN"
 "http://www.w3.org/Graphics/SVG/1.1/DTD/svg11.dtd">
<!-- Generated by graphviz version 2.40.1 (20161225.0304)
 -->
<!-- Title: gocallvis Pages: 1 -->
<svg width="699pt" height="783pt"
 viewBox="0.00 0.00 698.59 783.00" xmlns="http://www.w3.org/2000/svg" xmlns:xlink="http://www.w3.org/1999/xlink">
<g id="graph0" class="graph" transform="scale(1 1) rotate(0) translate(0 783)">
<title>gocallvis</title>
<polygon fill="#d3d3d3" stroke="transparent" points="0,0 0,-783 698.5894,-783 698.5894,0 0,0"/>
<g id="clust1" class="cluster">
<title>cluster_focus</title>
<polygon fill="#e6ecfa" stroke="#000000" stroke-width=".5" points="8,-8 8,-775 690.5894,-775 690.5894,-8 8,-8"/>
<text text-anchor="middle" x="349.2947" y="-754.8" font-family="Arial" font-size="18.00" fill="#000000">keys</text>
</g>
<g id="clust5" class="cluster">
<title>cluster_github.com/go&#45;i2p/go&#45;i2p/lib/common/key_certificate.KeyCertificate</title>
<g id="a_clust5"><a xlink:title="type: github.com/go&#45;i2p/go&#45;i2p/lib/common/key_certificate.KeyCertificate">
<path fill="#eed8ae" stroke="#000000" stroke-width=".5" d="M535.0977,-451C535.0977,-451 634.2689,-451 634.2689,-451 640.2689,-451 646.2689,-457 646.2689,-463 646.2689,-463 646.2689,-578 646.2689,-578 646.2689,-584 640.2689,-590 634.2689,-590 634.2689,-590 535.0977,-590 535.0977,-590 529.0977,-590 523.0977,-584 523.0977,-578 523.0977,-578 523.0977,-463 523.0977,-463 523.0977,-457 529.0977,-451 535.0977,-451"/>
<text text-anchor="middle" x="584.6833" y="-459.5" font-family="Arial" font-size="15.00" fill="#222222">(KeyCertificate)</text>
</a>
</g>
</g>
<g id="clust4" class="cluster">
<title>cluster_*github.com/go&#45;i2p/go&#45;i2p/lib/util/time/sntp.RouterTimestamper</title>
<g id="a_clust4"><a xlink:title="type: *github.com/go&#45;i2p/go&#45;i2p/lib/util/time/sntp.RouterTimestamper">
<path fill="#eed8ae" stroke="#000000" stroke-width=".5" d="M515.4217,-365C515.4217,-365 654.9449,-365 654.9449,-365 660.9449,-365 666.9449,-371 666.9449,-377 666.9449,-377 666.9449,-431 666.9449,-431 666.9449,-437 660.9449,-443 654.9449,-443 654.9449,-443 515.4217,-443 515.4217,-443 509.4217,-443 503.4217,-437 503.4217,-431 503.4217,-431 503.4217,-377 503.4217,-377 503.4217,-371 509.4217,-365 515.4217,-365"/>
<text text-anchor="middle" x="585.1833" y="-373.5" font-family="Arial" font-size="15.00" fill="#222222">(*RouterTimestamper)</text>
</a>
</g>
</g>
<g id="clust3" class="cluster">
<title>cluster_*github.com/go&#45;i2p/go&#45;i2p/lib/keys.RouterInfoKeystore</title>
<g id="a_clust3"><a xlink:title="type: *github.com/go&#45;i2p/go&#45;i2p/lib/keys.RouterInfoKeystore">
<path fill="#b0c4de" stroke="#000000" stroke-width=".5" d="M266.6495,-598C266.6495,-598 617.1721,-598 617.1721,-598 623.1721,-598 629.1721,-604 629.1721,-610 629.1721,-610 629.1721,-725 629.1721,-725 629.1721,-731 623.1721,-737 617.1721,-737 617.1721,-737 266.6495,-737 266.6495,-737 260.6495,-737 254.6495,-731 254.6495,-725 254.6495,-725 254.6495,-610 254.6495,-610 254.6495,-604 260.6495,-598 266.6495,-598"/>
<text text-anchor="middle" x="441.9108" y="-606.5" font-family="Arial" font-size="15.00" fill="#222222">(*RouterInfoKeystore)</text>
</a>
</g>
</g>
<g id="clust2" class="cluster">
<title>cluster_*github.com/go&#45;i2p/go&#45;i2p/lib/keys.KeyStoreImpl</title>
<g id="a_clust2"><a xlink:title="type: *github.com/go&#45;i2p/go&#45;i2p/lib/keys.KeyStoreImpl">
<path fill="#b0c4de" stroke="#000000" stroke-width=".5" d="M60.0344,-347C60.0344,-347 359.6243,-347 359.6243,-347 365.6243,-347 371.6243,-353 371.6243,-359 371.6243,-359 371.6243,-413 371.6243,-413 371.6243,-419 365.6243,-425 359.6243,-425 359.6243,-425 60.0344,-425 60.0344,-425 54.0344,-425 48.0344,-419 48.0344,-413 48.0344,-413 48.0344,-359 48.0344,-359 48.0344,-353 54.0344,-347 60.0344,-347"/>
<text text-anchor="middle" x="209.8294" y="-355.5" font-family="Arial" font-size="15.00" fill="#222222">(*KeyStoreImpl)</text>
</a>
</g>
</g>
<!-- github.com/go&#45;i2p/go&#45;i2p/lib/keys.NewRouterInfoKeystore -->
<g id="node1" class="node">
<title>github.com/go&#45;i2p/go&#45;i2p/lib/keys.NewRouterInfoKeystore</title>
<g id="a_node1"><a xlink:title="github.com/go&#45;i2p/go&#45;i2p/lib/keys.NewRouterInfoKeystore | defined in routerinfo_keystore.go:36&#10;at routerinfo_keystore.go:61: calling [github.com/go&#45;i2p/go&#45;i2p/lib/util/time/sntp.NewRouterTimestamper]&#10;at routerinfo_keystore.go:46: calling [github.com/go&#45;i2p/go&#45;i2p/lib/keys.generateNewKey]&#10;at routerinfo_keystore.go:55: calling [github.com/go&#45;i2p/go&#45;i2p/lib/keys.loadExistingKey]">
<path fill="#add8e6" stroke="#000000" stroke-width="1.5" d="M166.575,-113C166.575,-113 27.808,-113 27.808,-113 21.808,-113 15.808,-107 15.808,-101 15.808,-101 15.808,-89 15.808,-89 15.808,-83 21.808,-77 27.808,-77 27.808,-77 166.575,-77 166.575,-77 172.575,-77 178.575,-83 178.575,-89 178.575,-89 178.575,-101 178.575,-101 178.575,-107 172.575,-113 166.575,-113"/>
<text text-anchor="middle" x="97.1915" y="-90.8" font-family="Verdana" font-size="14.00" fill="#000000">NewRouterInfoKeystore</text>
</a>
</g>
</g>
<!-- github.com/go&#45;i2p/go&#45;i2p/lib/keys.generateNewKey -->
<g id="node2" class="node">
<title>github.com/go&#45;i2p/go&#45;i2p/lib/keys.generateNewKey</title>
<g id="a_node2"><a xlink:title="github.com/go&#45;i2p/go&#45;i2p/lib/keys.generateNewKey | defined in routerinfo_keystore.go:70">
<path fill="#add8e6" stroke="#000000" stroke-width=".5" d="M381.2388,-174C381.2388,-174 283.9214,-174 283.9214,-174 277.9214,-174 271.9214,-168 271.9214,-162 271.9214,-162 271.9214,-150 271.9214,-150 271.9214,-144 277.9214,-138 283.9214,-138 283.9214,-138 381.2388,-138 381.2388,-138 387.2388,-138 393.2388,-144 393.2388,-150 393.2388,-150 393.2388,-162 393.2388,-162 393.2388,-168 387.2388,-174 381.2388,-174"/>
<text text-anchor="middle" x="332.5801" y="-151.8" font-family="Verdana" font-size="14.00" fill="#000000">generateNewKey</text>
</a>
</g>
</g>
<!-- github.com/go&#45;i2p/go&#45;i2p/lib/keys.NewRouterInfoKeystore&#45;&gt;github.com/go&#45;i2p/go&#45;i2p/lib/keys.generateNewKey -->
<g id="edge14" class="edge">
<title>github.com/go&#45;i2p/go&#45;i2p/lib/keys.NewRouterInfoKeystore&#45;&gt;github.com/go&#45;i2p/go&#45;i2p/lib/keys.generateNewKey</title>
<g id="a_edge14"><a xlink:title="at routerinfo_keystore.go:46: calling [github.com/go&#45;i2p/go&#45;i2p/lib/keys.generateNewKey]">
<path fill="none" stroke="#000000" d="M166.8604,-113.0544C196.8229,-120.8191 231.7977,-129.8826 261.8743,-137.6769"/>
<polygon fill="#000000" stroke="#000000" points="261.3138,-141.1472 271.872,-140.2678 263.0698,-134.371 261.3138,-141.1472"/>
</a>
</g>
</g>
<!-- github.com/go&#45;i2p/go&#45;i2p/lib/util/time/sntp.NewRouterTimestamper -->
<g id="node3" class="node">
<title>github.com/go&#45;i2p/go&#45;i2p/lib/util/time/sntp.NewRouterTimestamper</title>
<g id="a_node3"><a xlink:title="github.com/go&#45;i2p/go&#45;i2p/lib/util/time/sntp.NewRouterTimestamper | defined in router_timestamper.go:55">
<path fill="#ffe4b5" stroke="#000000" stroke-width="1.5" d="M401.9748,-52C401.9748,-52 263.1854,-52 263.1854,-52 257.1854,-52 251.1854,-46 251.1854,-40 251.1854,-40 251.1854,-28 251.1854,-28 251.1854,-22 257.1854,-16 263.1854,-16 263.1854,-16 401.9748,-16 401.9748,-16 407.9748,-16 413.9748,-22 413.9748,-28 413.9748,-28 413.9748,-40 413.9748,-40 413.9748,-46 407.9748,-52 401.9748,-52"/>
<text text-anchor="middle" x="332.5801" y="-38.2" font-family="Verdana" font-size="14.00" fill="#000000">sntp</text>
<text text-anchor="middle" x="332.5801" y="-21.4" font-family="Verdana" font-size="14.00" fill="#000000">NewRouterTimestamper</text>
</a>
</g>
</g>
<!-- github.com/go&#45;i2p/go&#45;i2p/lib/keys.NewRouterInfoKeystore&#45;&gt;github.com/go&#45;i2p/go&#45;i2p/lib/util/time/sntp.NewRouterTimestamper -->
<g id="edge12" class="edge">
<title>github.com/go&#45;i2p/go&#45;i2p/lib/keys.NewRouterInfoKeystore&#45;&gt;github.com/go&#45;i2p/go&#45;i2p/lib/util/time/sntp.NewRouterTimestamper</title>
<g id="a_edge12"><a xlink:title="at routerinfo_keystore.go:61: calling [github.com/go&#45;i2p/go&#45;i2p/lib/util/time/sntp.NewRouterTimestamper]">
<path fill="none" stroke="#8b4513" d="M166.8604,-76.9456C194.0247,-69.9061 225.3088,-61.7989 253.3276,-54.538"/>
<polygon fill="#8b4513" stroke="#8b4513" points="254.2877,-57.9048 263.0899,-52.0081 252.5317,-51.1287 254.2877,-57.9048"/>
</a>
</g>
</g>
<!-- github.com/go&#45;i2p/go&#45;i2p/lib/keys.loadExistingKey -->
<g id="node4" class="node">
<title>github.com/go&#45;i2p/go&#45;i2p/lib/keys.loadExistingKey</title>
<g id="a_node4"><a xlink:title="github.com/go&#45;i2p/go&#45;i2p/lib/keys.loadExistingKey | defined in routerinfo_keystore.go:81&#10;at routerinfo_keystore.go:84: calling [github.com/samber/oops.Errorf]">
<path fill="#add8e6" stroke="#000000" stroke-width=".5" d="M379.6755,-113C379.6755,-113 285.4847,-113 285.4847,-113 279.4847,-113 273.4847,-107 273.4847,-101 273.4847,-101 273.4847,-89 273.4847,-89 273.4847,-83 279.4847,-77 285.4847,-77 285.4847,-77 379.6755,-77 379.6755,-77 385.6755,-77 391.6755,-83 391.6755,-89 391.6755,-89 391.6755,-101 391.6755,-101 391.6755,-107 385.6755,-113 379.6755,-113"/>
<text text-anchor="middle" x="332.5801" y="-90.8" font-family="Verdana" font-size="14.00" fill="#000000">loadExistingKey</text>
</a>
</g>
</g>
<!-- github.com/go&#45;i2p/go&#45;i2p/lib/keys.NewRouterInfoKeystore&#45;&gt;github.com/go&#45;i2p/go&#45;i2p/lib/keys.loadExistingKey -->
<g id="edge16" class="edge">
<title>github.com/go&#45;i2p/go&#45;i2p/lib/keys.NewRouterInfoKeystore&#45;&gt;github.com/go&#45;i2p/go&#45;i2p/lib/keys.loadExistingKey</title>
<g id="a_edge16"><a xlink:title="at routerinfo_keystore.go:55: calling [github.com/go&#45;i2p/go&#45;i2p/lib/keys.loadExistingKey]">
<path fill="none" stroke="#000000" d="M178.5285,-95C206.0973,-95 236.6175,-95 263.1708,-95"/>
<polygon fill="#000000" stroke="#000000" points="263.5193,-98.5001 273.5192,-95 263.5192,-91.5001 263.5193,-98.5001"/>
</a>
</g>
</g>
<!-- github.com/samber/oops.Errorf -->
<g id="node5" class="node">
<title>github.com/samber/oops.Errorf</title>
<g id="a_node5"><a xlink:title="github.com/samber/oops.Errorf | defined in oops.go:34">
<path fill="#ffe4b5" stroke="#000000" stroke-width="1.5" d="M601.8786,-52C601.8786,-52 567.488,-52 567.488,-52 561.488,-52 555.488,-46 555.488,-40 555.488,-40 555.488,-28 555.488,-28 555.488,-22 561.488,-16 567.488,-16 567.488,-16 601.8786,-16 601.8786,-16 607.8786,-16 613.8786,-22 613.8786,-28 613.8786,-28 613.8786,-40 613.8786,-40 613.8786,-46 607.8786,-52 601.8786,-52"/>
<text text-anchor="middle" x="584.6833" y="-38.2" font-family="Verdana" font-size="14.00" fill="#000000">oops</text>
<text text-anchor="middle" x="584.6833" y="-21.4" font-family="Verdana" font-size="14.00" fill="#000000">Errorf</text>
</a>
</g>
</g>
<!-- github.com/go&#45;i2p/go&#45;i2p/lib/keys.loadExistingKey&#45;&gt;github.com/samber/oops.Errorf -->
<g id="edge15" class="edge">
<title>github.com/go&#45;i2p/go&#45;i2p/lib/keys.loadExistingKey&#45;&gt;github.com/samber/oops.Errorf</title>
<g id="a_edge15"><a xlink:title="at routerinfo_keystore.go:84: calling [github.com/samber/oops.Errorf]">
<path fill="none" stroke="#8b4513" d="M391.6871,-80.6982C439.0475,-69.2387 504.1698,-53.4814 545.3431,-43.5189"/>
<polygon fill="#8b4513" stroke="#8b4513" points="546.3731,-46.8708 555.2695,-41.1171 544.7268,-40.0671 546.3731,-46.8708"/>
</a>
</g>
</g>
<!-- github.com/go&#45;i2p/go&#45;i2p/lib/common/data.NewIntegerFromInt -->
<g id="node6" class="node">
<title>github.com/go&#45;i2p/go&#45;i2p/lib/common/data.NewIntegerFromInt</title>
<g id="a_node6"><a xlink:title="github.com/go&#45;i2p/go&#45;i2p/lib/common/data.NewIntegerFromInt | defined in integer.go:68">
<path fill="#ffe4b5" stroke="#000000" stroke-width="1.5" d="M640.6371,-113C640.6371,-113 528.7295,-113 528.7295,-113 522.7295,-113 516.7295,-107 516.7295,-101 516.7295,-101 516.7295,-89 516.7295,-89 516.7295,-83 522.7295,-77 528.7295,-77 528.7295,-77 640.6371,-77 640.6371,-77 646.6371,-77 652.6371,-83 652.6371,-89 652.6371,-89 652.6371,-101 652.6371,-101 652.6371,-107 646.6371,-113 640.6371,-113"/>
<text text-anchor="middle" x="584.6833" y="-99.2" font-family="Verdana" font-size="14.00" fill="#000000">data</text>
<text text-anchor="middle" x="584.6833" y="-82.4" font-family="Verdana" font-size="14.00" fill="#000000">NewIntegerFromInt</text>
</a>
</g>
</g>
<!-- github.com/go&#45;i2p/go&#45;i2p/lib/common/certificate.NewCertificateWithType -->
<g id="node7" class="node">
<title>github.com/go&#45;i2p/go&#45;i2p/lib/common/certificate.NewCertificateWithType</title>
<g id="a_node7"><a xlink:title="github.com/go&#45;i2p/go&#45;i2p/lib/common/certificate.NewCertificateWithType | defined in certificate.go:252">
<path fill="#ffe4b5" stroke="#000000" stroke-width="1.5" d="M655.9529,-174C655.9529,-174 513.4137,-174 513.4137,-174 507.4137,-174 501.4137,-168 501.4137,-162 501.4137,-162 501.4137,-150 501.4137,-150 501.4137,-144 507.4137,-138 513.4137,-138 513.4137,-138 655.9529,-138 655.9529,-138 661.9529,-138 667.9529,-144 667.9529,-150 667.9529,-150 667.9529,-162 667.9529,-162 667.9529,-168 661.9529,-174 655.9529,-174"/>
<text text-anchor="middle" x="584.6833" y="-160.2" font-family="Verdana" font-size="14.00" fill="#000000">certificate</text>
<text text-anchor="middle" x="584.6833" y="-143.4" font-family="Verdana" font-size="14.00" fill="#000000">NewCertificateWithType</text>
</a>
</g>
</g>
<!-- github.com/go&#45;i2p/go&#45;i2p/lib/common/key_certificate.KeyCertificateFromCertificate -->
<g id="node8" class="node">
<title>github.com/go&#45;i2p/go&#45;i2p/lib/common/key_certificate.KeyCertificateFromCertificate</title>
<g id="a_node8"><a xlink:title="github.com/go&#45;i2p/go&#45;i2p/lib/common/key_certificate.KeyCertificateFromCertificate | defined in key_certificate.go:395">
<path fill="#ffe4b5" stroke="#000000" stroke-width="1.5" d="M670.4956,-235C670.4956,-235 498.871,-235 498.871,-235 492.871,-235 486.871,-229 486.871,-223 486.871,-223 486.871,-211 486.871,-211 486.871,-205 492.871,-199 498.871,-199 498.871,-199 670.4956,-199 670.4956,-199 676.4956,-199 682.4956,-205 682.4956,-211 682.4956,-211 682.4956,-223 682.4956,-223 682.4956,-229 676.4956,-235 670.4956,-235"/>
<text text-anchor="middle" x="584.6833" y="-221.2" font-family="Verdana" font-size="14.00" fill="#000000">key_certificate</text>
<text text-anchor="middle" x="584.6833" y="-204.4" font-family="Verdana" font-size="14.00" fill="#000000">KeyCertificateFromCertificate</text>
</a>
</g>
</g>
<!-- github.com/go&#45;i2p/go&#45;i2p/lib/common/router_identity.NewRouterIdentity -->
<g id="node9" class="node">
<title>github.com/go&#45;i2p/go&#45;i2p/lib/common/router_identity.NewRouterIdentity</title>
<g id="a_node9"><a xlink:title="github.com/go&#45;i2p/go&#45;i2p/lib/common/router_identity.NewRouterIdentity | defined in router_identity.go:55">
<path fill="#ffe4b5" stroke="#000000" stroke-width="1.5" d="M638.7605,-296C638.7605,-296 530.6061,-296 530.6061,-296 524.6061,-296 518.6061,-290 518.6061,-284 518.6061,-284 518.6061,-272 518.6061,-272 518.6061,-266 524.6061,-260 530.6061,-260 530.6061,-260 638.7605,-260 638.7605,-260 644.7605,-260 650.7605,-266 650.7605,-272 650.7605,-272 650.7605,-284 650.7605,-284 650.7605,-290 644.7605,-296 638.7605,-296"/>
<text text-anchor="middle" x="584.6833" y="-282.2" font-family="Verdana" font-size="14.00" fill="#000000">router_identity</text>
<text text-anchor="middle" x="584.6833" y="-265.4" font-family="Verdana" font-size="14.00" fill="#000000">NewRouterIdentity</text>
</a>
</g>
</g>
<!-- github.com/go&#45;i2p/go&#45;i2p/lib/common/router_info.NewRouterInfo -->
<g id="node10" class="node">
<title>github.com/go&#45;i2p/go&#45;i2p/lib/common/router_info.NewRouterInfo</title>
<g id="a_node10"><a xlink:title="github.com/go&#45;i2p/go&#45;i2p/lib/common/router_info.NewRouterInfo | defined in router_info.go:370">
<path fill="#ffe4b5" stroke="#000000" stroke-width="1.5" d="M628.5348,-357C628.5348,-357 540.8318,-357 540.8318,-357 534.8318,-357 528.8318,-351 528.8318,-345 528.8318,-345 528.8318,-333 528.8318,-333 528.8318,-327 534.8318,-321 540.8318,-321 540.8318,-321 628.5348,-321 628.5348,-321 634.5348,-321 640.5348,-327 640.5348,-333 640.5348,-333 640.5348,-345 640.5348,-345 640.5348,-351 634.5348,-357 628.5348,-357"/>
<text text-anchor="middle" x="584.6833" y="-343.2" font-family="Verdana" font-size="14.00" fill="#000000">router_info</text>
<text text-anchor="middle" x="584.6833" y="-326.4" font-family="Verdana" font-size="14.00" fill="#000000">NewRouterInfo</text>
</a>
</g>
</g>
<!-- (*github.com/go&#45;i2p/go&#45;i2p/lib/keys.KeyStoreImpl).StoreKeys -->
<g id="node11" class="node">
<title>(*github.com/go&#45;i2p/go&#45;i2p/lib/keys.KeyStoreImpl).StoreKeys</title>
<g id="a_node11"><a xlink:title="(*github.com/go&#45;i2p/go&#45;i2p/lib/keys.KeyStoreImpl).StoreKeys | defined in types.go:56&#10;at types.go:65: calling [(*github.com/go&#45;i2p/go&#45;i2p/lib/keys.KeyStoreImpl).KeyID]">
<path fill="#add8e6" stroke="#000000" stroke-width="1.5" d="M126.5063,-417C126.5063,-417 67.8767,-417 67.8767,-417 61.8767,-417 55.8767,-411 55.8767,-405 55.8767,-405 55.8767,-393 55.8767,-393 55.8767,-387 61.8767,-381 67.8767,-381 67.8767,-381 126.5063,-381 126.5063,-381 132.5063,-381 138.5063,-387 138.5063,-393 138.5063,-393 138.5063,-405 138.5063,-405 138.5063,-411 132.5063,-417 126.5063,-417"/>
<text text-anchor="middle" x="97.1915" y="-394.8" font-family="Verdana" font-size="14.00" fill="#000000">StoreKeys</text>
</a>
</g>
</g>
<!-- (*github.com/go&#45;i2p/go&#45;i2p/lib/keys.KeyStoreImpl).KeyID -->
<g id="node12" class="node">
<title>(*github.com/go&#45;i2p/go&#45;i2p/lib/keys.KeyStoreImpl).KeyID</title>
<g id="a_node12"><a xlink:title="(*github.com/go&#45;i2p/go&#45;i2p/lib/keys.KeyStoreImpl).KeyID | defined in types.go:33">
<path fill="#add8e6" stroke="#000000" stroke-width="1.5" d="M351.6686,-417C351.6686,-417 313.4916,-417 313.4916,-417 307.4916,-417 301.4916,-411 301.4916,-405 301.4916,-405 301.4916,-393 301.4916,-393 301.4916,-387 307.4916,-381 313.4916,-381 313.4916,-381 351.6686,-381 351.6686,-381 357.6686,-381 363.6686,-387 363.6686,-393 363.6686,-393 363.6686,-405 363.6686,-405 363.6686,-411 357.6686,-417 351.6686,-417"/>
<text text-anchor="middle" x="332.5801" y="-394.8" font-family="Verdana" font-size="14.00" fill="#000000">KeyID</text>
</a>
</g>
</g>
<!-- (*github.com/go&#45;i2p/go&#45;i2p/lib/keys.KeyStoreImpl).StoreKeys&#45;&gt;(*github.com/go&#45;i2p/go&#45;i2p/lib/keys.KeyStoreImpl).KeyID -->
<g id="edge11" class="edge">
<title>(*github.com/go&#45;i2p/go&#45;i2p/lib/keys.KeyStoreImpl).StoreKeys&#45;&gt;(*github.com/go&#45;i2p/go&#45;i2p/lib/keys.KeyStoreImpl).KeyID</title>
<g id="a_edge11"><a xlink:title="at types.go:65: calling [(*github.com/go&#45;i2p/go&#45;i2p/lib/keys.KeyStoreImpl).KeyID]">
<path fill="none" stroke="#000000" d="M138.4624,-399C181.461,-399 248.436,-399 291.4006,-399"/>
<polygon fill="#000000" stroke="#000000" points="291.5116,-402.5001 301.5116,-399 291.5115,-395.5001 291.5116,-402.5001"/>
</a>
</g>
</g>
<!-- (*github.com/go&#45;i2p/go&#45;i2p/lib/keys.RouterInfoKeystore).StoreKeys -->
<g id="node13" class="node">
<title>(*github.com/go&#45;i2p/go&#45;i2p/lib/keys.RouterInfoKeystore).StoreKeys</title>
<g id="a_node13"><a xlink:title="(*github.com/go&#45;i2p/go&#45;i2p/lib/keys.RouterInfoKeystore).StoreKeys | defined in routerinfo_keystore.go:99&#10;at routerinfo_keystore.go:107: calling [(*github.com/go&#45;i2p/go&#45;i2p/lib/keys.RouterInfoKeystore).KeyID]">
<path fill="#add8e6" stroke="#000000" stroke-width="1.5" d="M361.8949,-729C361.8949,-729 303.2653,-729 303.2653,-729 297.2653,-729 291.2653,-723 291.2653,-717 291.2653,-717 291.2653,-705 291.2653,-705 291.2653,-699 297.2653,-693 303.2653,-693 303.2653,-693 361.8949,-693 361.8949,-693 367.8949,-693 373.8949,-699 373.8949,-705 373.8949,-705 373.8949,-717 373.8949,-717 373.8949,-723 367.8949,-729 361.8949,-729"/>
<text text-anchor="middle" x="332.5801" y="-706.8" font-family="Verdana" font-size="14.00" fill="#000000">StoreKeys</text>
</a>
</g>
</g>
<!-- (*github.com/go&#45;i2p/go&#45;i2p/lib/keys.RouterInfoKeystore).KeyID -->
<g id="node14" class="node">
<title>(*github.com/go&#45;i2p/go&#45;i2p/lib/keys.RouterInfoKeystore).KeyID</title>
<g id="a_node14"><a xlink:title="(*github.com/go&#45;i2p/go&#45;i2p/lib/keys.RouterInfoKeystore).KeyID | defined in routerinfo_keystore.go:111">
<path fill="#add8e6" stroke="#000000" stroke-width="1.5" d="M603.7718,-729C603.7718,-729 565.5948,-729 565.5948,-729 559.5948,-729 553.5948,-723 553.5948,-717 553.5948,-717 553.5948,-705 553.5948,-705 553.5948,-699 559.5948,-693 565.5948,-693 565.5948,-693 603.7718,-693 603.7718,-693 609.7718,-693 615.7718,-699 615.7718,-705 615.7718,-705 615.7718,-717 615.7718,-717 615.7718,-723 609.7718,-729 603.7718,-729"/>
<text text-anchor="middle" x="584.6833" y="-706.8" font-family="Verdana" font-size="14.00" fill="#000000">KeyID</text>
</a>
</g>
</g>
<!-- (*github.com/go&#45;i2p/go&#45;i2p/lib/keys.RouterInfoKeystore).StoreKeys&#45;&gt;(*github.com/go&#45;i2p/go&#45;i2p/lib/keys.RouterInfoKeystore).KeyID -->
<g id="edge6" class="edge">
<title>(*github.com/go&#45;i2p/go&#45;i2p/lib/keys.RouterInfoKeystore).StoreKeys&#45;&gt;(*github.com/go&#45;i2p/go&#45;i2p/lib/keys.RouterInfoKeystore).KeyID</title>
<g id="a_edge6"><a xlink:title="at routerinfo_keystore.go:107: calling [(*github.com/go&#45;i2p/go&#45;i2p/lib/keys.RouterInfoKeystore).KeyID]">
<path fill="none" stroke="#000000" d="M373.9275,-711C420.6798,-711 496.3667,-711 543.1822,-711"/>
<polygon fill="#000000" stroke="#000000" points="543.2839,-714.5001 553.2838,-711 543.2838,-707.5001 543.2839,-714.5001"/>
</a>
</g>
</g>
<!-- (*github.com/go&#45;i2p/go&#45;i2p/lib/keys.RouterInfoKeystore).ConstructRouterInfo -->
<g id="node15" class="node">
<title>(*github.com/go&#45;i2p/go&#45;i2p/lib/keys.RouterInfoKeystore).ConstructRouterInfo</title>
<g id="a_node15"><a xlink:title="(*github.com/go&#45;i2p/go&#45;i2p/lib/keys.RouterInfoKeystore).ConstructRouterInfo | defined in routerinfo_keystore.go:125&#10;at routerinfo_keystore.go:166: calling [github.com/go&#45;i2p/go&#45;i2p/lib/common/router_identity.NewRouterIdentity]&#10;at routerinfo_keystore.go:177: calling [(*github.com/go&#45;i2p/go&#45;i2p/lib/util/time/sntp.RouterTimestamper).GetCurrentTime]&#10;at routerinfo_keystore.go:127: calling [(*github.com/go&#45;i2p/go&#45;i2p/lib/keys.RouterInfoKeystore).GetKeys]&#10;at routerinfo_keystore.go:129: calling [github.com/samber/oops.Errorf]&#10;at routerinfo_keystore.go:136: calling [github.com/samber/oops.Errorf]&#10;at routerinfo_keystore.go:140: calling [github.com/samber/oops.Errorf]&#10;at routerinfo_keystore.go:147: calling [github.com/samber/oops.Errorf]&#10;at routerinfo_keystore.go:153: calling [github.com/samber/oops.Errorf]&#10;at routerinfo_keystore.go:162: calling [github.com/samber/oops.Errorf]&#10;at routerinfo_keystore.go:173: calling [github.com/samber/oops.Errorf]&#10;at routerinfo_keystore.go:194: calling [github.com/samber/oops.Errorf]&#10;at routerinfo_keystore.go:134: calling [github.com/go&#45;i2p/go&#45;i2p/lib/common/data.NewIntegerFromInt]&#10;at routerinfo_keystore.go:138: calling [github.com/go&#45;i2p/go&#45;i2p/lib/common/data.NewIntegerFromInt]&#10;at routerinfo_keystore.go:151: calling [github.com/go&#45;i2p/go&#45;i2p/lib/common/key_certificate.KeyCertificateFromCertificate]&#10;at routerinfo_keystore.go:156: calling [(github.com/go&#45;i2p/go&#45;i2p/lib/common/key_certificate.KeyCertificate).CryptoSize]&#10;at routerinfo_keystore.go:157: calling [(github.com/go&#45;i2p/go&#45;i2p/lib/common/key_certificate.KeyCertificate).SignatureSize]&#10;at routerinfo_keystore.go:185: calling [github.com/go&#45;i2p/go&#45;i2p/lib/common/router_info.NewRouterInfo]&#10;at routerinfo_keystore.go:145: calling [github.com/go&#45;i2p/go&#45;i2p/lib/common/certificate.NewCertificateWithType]">
<path fill="#add8e6" stroke="#000000" stroke-width="1.5" d="M390.4414,-668C390.4414,-668 274.7188,-668 274.7188,-668 268.7188,-668 262.7188,-662 262.7188,-656 262.7188,-656 262.7188,-644 262.7188,-644 262.7188,-638 268.7188,-632 274.7188,-632 274.7188,-632 390.4414,-632 390.4414,-632 396.4414,-632 402.4414,-638 402.4414,-644 402.4414,-644 402.4414,-656 402.4414,-656 402.4414,-662 396.4414,-668 390.4414,-668"/>
<text text-anchor="middle" x="332.5801" y="-645.8" font-family="Verdana" font-size="14.00" fill="#000000">ConstructRouterInfo</text>
</a>
</g>
</g>
<!-- (*github.com/go&#45;i2p/go&#45;i2p/lib/keys.RouterInfoKeystore).ConstructRouterInfo&#45;&gt;github.com/samber/oops.Errorf -->
<g id="edge4" class="edge">
<title>(*github.com/go&#45;i2p/go&#45;i2p/lib/keys.RouterInfoKeystore).ConstructRouterInfo&#45;&gt;github.com/samber/oops.Errorf</title>
<g id="a_edge4"><a xlink:title="at routerinfo_keystore.go:129: calling [github.com/samber/oops.Errorf]&#10;at routerinfo_keystore.go:136: calling [github.com/samber/oops.Errorf]&#10;at routerinfo_keystore.go:140: calling [github.com/samber/oops.Errorf]&#10;at routerinfo_keystore.go:147: calling [github.com/samber/oops.Errorf]&#10;at routerinfo_keystore.go:153: calling [github.com/samber/oops.Errorf]&#10;at routerinfo_keystore.go:162: calling [github.com/samber/oops.Errorf]&#10;at routerinfo_keystore.go:173: calling [github.com/samber/oops.Errorf]&#10;at routerinfo_keystore.go:194: calling [github.com/samber/oops.Errorf]">
<path fill="none" stroke="#8b4513" d="M340.8224,-631.974C357.3427,-595.0726 394.565,-507.912 413.7772,-431 453.9757,-270.074 366.7231,-179.4557 486.7772,-65 502.6013,-49.9138 525.7299,-42.1675 545.5344,-38.1909"/>
<polygon fill="#8b4513" stroke="#8b4513" points="546.2873,-41.6123 555.5316,-36.4361 545.077,-34.7177 546.2873,-41.6123"/>
</a>
</g>
</g>
<!-- (*github.com/go&#45;i2p/go&#45;i2p/lib/keys.RouterInfoKeystore).ConstructRouterInfo&#45;&gt;github.com/go&#45;i2p/go&#45;i2p/lib/common/data.NewIntegerFromInt -->
<g id="edge5" class="edge">
<title>(*github.com/go&#45;i2p/go&#45;i2p/lib/keys.RouterInfoKeystore).ConstructRouterInfo&#45;&gt;github.com/go&#45;i2p/go&#45;i2p/lib/common/data.NewIntegerFromInt</title>
<g id="a_edge5"><a xlink:title="at routerinfo_keystore.go:134: calling [github.com/go&#45;i2p/go&#45;i2p/lib/common/data.NewIntegerFromInt]&#10;at routerinfo_keystore.go:138: calling [github.com/go&#45;i2p/go&#45;i2p/lib/common/data.NewIntegerFromInt]">
<path fill="none" stroke="#8b4513" d="M340.5424,-631.9008C356.5529,-594.8661 392.894,-507.4752 413.7772,-431 450.4946,-296.5389 386.6461,-222.9624 486.7772,-126 492.8071,-120.1609 499.9302,-115.4211 507.5407,-111.5736"/>
<polygon fill="#8b4513" stroke="#8b4513" points="508.9888,-114.7601 516.6622,-107.4546 506.1079,-108.3804 508.9888,-114.7601"/>
</a>
</g>
</g>
<!-- (*github.com/go&#45;i2p/go&#45;i2p/lib/keys.RouterInfoKeystore).ConstructRouterInfo&#45;&gt;github.com/go&#45;i2p/go&#45;i2p/lib/common/certificate.NewCertificateWithType -->
<g id="edge13" class="edge">
<title>(*github.com/go&#45;i2p/go&#45;i2p/lib/keys.RouterInfoKeystore).ConstructRouterInfo&#45;&gt;github.com/go&#45;i2p/go&#45;i2p/lib/common/certificate.NewCertificateWithType</title>
<g id="a_edge13"><a xlink:title="at routerinfo_keystore.go:145: calling [github.com/go&#45;i2p/go&#45;i2p/lib/common/certificate.NewCertificateWithType]">
<path fill="none" stroke="#8b4513" d="M339.7144,-631.9698C354.36,-594.704 388.5591,-506.371 413.7772,-431 449.6932,-323.6553 407.3775,-267.6754 486.7772,-187 489.4348,-184.2997 492.3258,-181.8341 495.3931,-179.5828"/>
<polygon fill="#8b4513" stroke="#8b4513" points="497.3754,-182.4692 503.8852,-174.1102 493.5835,-176.5852 497.3754,-182.4692"/>
</a>
</g>
</g>
<!-- (*github.com/go&#45;i2p/go&#45;i2p/lib/keys.RouterInfoKeystore).ConstructRouterInfo&#45;&gt;github.com/go&#45;i2p/go&#45;i2p/lib/common/key_certificate.KeyCertificateFromCertificate -->
<g id="edge7" class="edge">
<title>(*github.com/go&#45;i2p/go&#45;i2p/lib/keys.RouterInfoKeystore).ConstructRouterInfo&#45;&gt;github.com/go&#45;i2p/go&#45;i2p/lib/common/key_certificate.KeyCertificateFromCertificate</title>
<g id="a_edge7"><a xlink:title="at routerinfo_keystore.go:151: calling [github.com/go&#45;i2p/go&#45;i2p/lib/common/key_certificate.KeyCertificateFromCertificate]">
<path fill="none" stroke="#8b4513" d="M339.3248,-631.7781C368.0663,-554.2094 479.2026,-255.1359 486.7772,-248 489.7579,-245.1919 492.992,-242.6381 496.4098,-240.3157"/>
<polygon fill="#8b4513" stroke="#8b4513" points="498.4764,-243.1572 505.2447,-235.006 494.8705,-237.1573 498.4764,-243.1572"/>
</a>
</g>
</g>
<!-- (*github.com/go&#45;i2p/go&#45;i2p/lib/keys.RouterInfoKeystore).ConstructRouterInfo&#45;&gt;github.com/go&#45;i2p/go&#45;i2p/lib/common/router_identity.NewRouterIdentity -->
<g id="edge1" class="edge">
<title>(*github.com/go&#45;i2p/go&#45;i2p/lib/keys.RouterInfoKeystore).ConstructRouterInfo&#45;&gt;github.com/go&#45;i2p/go&#45;i2p/lib/common/router_identity.NewRouterIdentity</title>
<g id="a_edge1"><a xlink:title="at routerinfo_keystore.go:166: calling [github.com/go&#45;i2p/go&#45;i2p/lib/common/router_identity.NewRouterIdentity]">
<path fill="none" stroke="#8b4513" d="M338.5426,-631.9132C359.8653,-568.2129 433.877,-355.5958 486.7772,-309 493.3874,-303.1776 501.0927,-298.4479 509.2244,-294.6061"/>
<polygon fill="#8b4513" stroke="#8b4513" points="510.7213,-297.7728 518.5508,-290.6348 507.9789,-291.3324 510.7213,-297.7728"/>
</a>
</g>
</g>
<!-- (*github.com/go&#45;i2p/go&#45;i2p/lib/keys.RouterInfoKeystore).ConstructRouterInfo&#45;&gt;github.com/go&#45;i2p/go&#45;i2p/lib/common/router_info.NewRouterInfo -->
<g id="edge10" class="edge">
<title>(*github.com/go&#45;i2p/go&#45;i2p/lib/keys.RouterInfoKeystore).ConstructRouterInfo&#45;&gt;github.com/go&#45;i2p/go&#45;i2p/lib/common/router_info.NewRouterInfo</title>
<g id="a_edge10"><a xlink:title="at routerinfo_keystore.go:185: calling [github.com/go&#45;i2p/go&#45;i2p/lib/common/router_info.NewRouterInfo]">
<path fill="none" stroke="#8b4513" d="M336.7024,-631.6348C349.2815,-580.0653 392.2195,-433.0101 486.7772,-361 496.1976,-353.8259 507.5173,-348.9105 519.0637,-345.5601"/>
<polygon fill="#8b4513" stroke="#8b4513" points="519.9452,-348.9474 528.7793,-343.0986 518.226,-342.1618 519.9452,-348.9474"/>
</a>
</g>
</g>
<!-- (*github.com/go&#45;i2p/go&#45;i2p/lib/keys.RouterInfoKeystore).GetKeys -->
<g id="node16" class="node">
<title>(*github.com/go&#45;i2p/go&#45;i2p/lib/keys.RouterInfoKeystore).GetKeys</title>
<g id="a_node16"><a xlink:title="(*github.com/go&#45;i2p/go&#45;i2p/lib/keys.RouterInfoKeystore).GetKeys | defined in routerinfo_keystore.go:91">
<path fill="#add8e6" stroke="#000000" stroke-width="1.5" d="M609.1609,-668C609.1609,-668 560.2057,-668 560.2057,-668 554.2057,-668 548.2057,-662 548.2057,-656 548.2057,-656 548.2057,-644 548.2057,-644 548.2057,-638 554.2057,-632 560.2057,-632 560.2057,-632 609.1609,-632 609.1609,-632 615.1609,-632 621.1609,-638 621.1609,-644 621.1609,-644 621.1609,-656 621.1609,-656 621.1609,-662 615.1609,-668 609.1609,-668"/>
<text text-anchor="middle" x="584.6833" y="-645.8" font-family="Verdana" font-size="14.00" fill="#000000">GetKeys</text>
</a>
</g>
</g>
<!-- (*github.com/go&#45;i2p/go&#45;i2p/lib/keys.RouterInfoKeystore).ConstructRouterInfo&#45;&gt;(*github.com/go&#45;i2p/go&#45;i2p/lib/keys.RouterInfoKeystore).GetKeys -->
<g id="edge3" class="edge">
<title>(*github.com/go&#45;i2p/go&#45;i2p/lib/keys.RouterInfoKeystore).ConstructRouterInfo&#45;&gt;(*github.com/go&#45;i2p/go&#45;i2p/lib/keys.RouterInfoKeystore).GetKeys</title>
<g id="a_edge3"><a xlink:title="at routerinfo_keystore.go:127: calling [(*github.com/go&#45;i2p/go&#45;i2p/lib/keys.RouterInfoKeystore).GetKeys]">
<path fill="none" stroke="#000000" d="M402.4701,-650C445.626,-650 499.8217,-650 537.8465,-650"/>
<polygon fill="#000000" stroke="#000000" points="538.1201,-653.5001 548.1201,-650 538.12,-646.5001 538.1201,-653.5001"/>
</a>
</g>
</g>
<!-- (*github.com/go&#45;i2p/go&#45;i2p/lib/util/time/sntp.RouterTimestamper).GetCurrentTime -->
<g id="node17" class="node">
<title>(*github.com/go&#45;i2p/go&#45;i2p/lib/util/time/sntp.RouterTimestamper).GetCurrentTime</title>
<g id="a_node17"><a xlink:title="(*github.com/go&#45;i2p/go&#45;i2p/lib/util/time/sntp.RouterTimestamper).GetCurrentTime | defined in router_timestamper.go:397">
<path fill="#ffe4b5" stroke="#000000" stroke-width="1.5" d="M630.7075,-435C630.7075,-435 538.6591,-435 538.6591,-435 532.6591,-435 526.6591,-429 526.6591,-423 526.6591,-423 526.6591,-411 526.6591,-411 526.6591,-405 532.6591,-399 538.6591,-399 538.6591,-399 630.7075,-399 630.7075,-399 636.7075,-399 642.7075,-405 642.7075,-411 642.7075,-411 642.7075,-423 642.7075,-423 642.7075,-429 636.7075,-435 630.7075,-435"/>
<text text-anchor="middle" x="584.6833" y="-421.2" font-family="Verdana" font-size="14.00" fill="#000000">sntp</text>
<text text-anchor="middle" x="584.6833" y="-404.4" font-family="Verdana" font-size="14.00" fill="#000000">GetCurrentTime</text>
</a>
</g>
</g>
<!-- (*github.com/go&#45;i2p/go&#45;i2p/lib/keys.RouterInfoKeystore).ConstructRouterInfo&#45;&gt;(*github.com/go&#45;i2p/go&#45;i2p/lib/util/time/sntp.RouterTimestamper).GetCurrentTime -->
<g id="edge2" class="edge">
<title>(*github.com/go&#45;i2p/go&#45;i2p/lib/keys.RouterInfoKeystore).ConstructRouterInfo&#45;&gt;(*github.com/go&#45;i2p/go&#45;i2p/lib/util/time/sntp.RouterTimestamper).GetCurrentTime</title>
<g id="a_edge2"><a xlink:title="at routerinfo_keystore.go:177: calling [(*github.com/go&#45;i2p/go&#45;i2p/lib/util/time/sntp.RouterTimestamper).GetCurrentTime]">
<path fill="none" stroke="#8b4513" d="M341.0985,-631.8057C360.8147,-591.713 413.5611,-495.3295 486.7772,-445 495.8122,-438.7893 506.2153,-433.9444 516.7935,-430.1682"/>
<polygon fill="#8b4513" stroke="#8b4513" points="518.1029,-433.4226 526.5231,-426.9922 515.9306,-426.7682 518.1029,-433.4226"/>
</a>
</g>
</g>
<!-- (github.com/go&#45;i2p/go&#45;i2p/lib/common/key_certificate.KeyCertificate).CryptoSize -->
<g id="node18" class="node">
<title>(github.com/go&#45;i2p/go&#45;i2p/lib/common/key_certificate.KeyCertificate).CryptoSize</title>
<g id="a_node18"><a xlink:title="(github.com/go&#45;i2p/go&#45;i2p/lib/common/key_certificate.KeyCertificate).CryptoSize | defined in key_certificate.go:336">
<path fill="#ffe4b5" stroke="#000000" stroke-width="1.5" d="M626.3546,-521C626.3546,-521 543.012,-521 543.012,-521 537.012,-521 531.012,-515 531.012,-509 531.012,-509 531.012,-497 531.012,-497 531.012,-491 537.012,-485 543.012,-485 543.012,-485 626.3546,-485 626.3546,-485 632.3546,-485 638.3546,-491 638.3546,-497 638.3546,-497 638.3546,-509 638.3546,-509 638.3546,-515 632.3546,-521 626.3546,-521"/>
<text text-anchor="middle" x="584.6833" y="-507.2" font-family="Verdana" font-size="14.00" fill="#000000">key_certificate</text>
<text text-anchor="middle" x="584.6833" y="-490.4" font-family="Verdana" font-size="14.00" fill="#000000">CryptoSize</text>
</a>
</g>
</g>
<!-- (*github.com/go&#45;i2p/go&#45;i2p/lib/keys.RouterInfoKeystore).ConstructRouterInfo&#45;&gt;(github.com/go&#45;i2p/go&#45;i2p/lib/common/key_certificate.KeyCertificate).CryptoSize -->
<g id="edge8" class="edge">
<title>(*github.com/go&#45;i2p/go&#45;i2p/lib/keys.RouterInfoKeystore).ConstructRouterInfo&#45;&gt;(github.com/go&#45;i2p/go&#45;i2p/lib/common/key_certificate.KeyCertificate).CryptoSize</title>
<g id="a_edge8"><a xlink:title="at routerinfo_keystore.go:156: calling [(github.com/go&#45;i2p/go&#45;i2p/lib/common/key_certificate.KeyCertificate).CryptoSize]">
<path fill="none" stroke="#8b4513" d="M352.0391,-631.8627C379.9286,-606.7254 433.7711,-561.3133 486.7772,-534 497.5495,-528.4492 509.5032,-523.6606 521.2517,-519.6209"/>
<polygon fill="#8b4513" stroke="#8b4513" points="522.6344,-522.8507 531.0416,-516.4033 520.4487,-516.2006 522.6344,-522.8507"/>
</a>
</g>
</g>
<!-- (github.com/go&#45;i2p/go&#45;i2p/lib/common/key_certificate.KeyCertificate).SignatureSize -->
<g id="node19" class="node">
<title>(github.com/go&#45;i2p/go&#45;i2p/lib/common/key_certificate.KeyCertificate).SignatureSize</title>
<g id="a_node19"><a xlink:title="(github.com/go&#45;i2p/go&#45;i2p/lib/common/key_certificate.KeyCertificate).SignatureSize | defined in key_certificate.go:308">
<path fill="#ffe4b5" stroke="#000000" stroke-width="1.5" d="M626.3546,-582C626.3546,-582 543.012,-582 543.012,-582 537.012,-582 531.012,-576 531.012,-570 531.012,-570 531.012,-558 531.012,-558 531.012,-552 537.012,-546 543.012,-546 543.012,-546 626.3546,-546 626.3546,-546 632.3546,-546 638.3546,-552 638.3546,-558 638.3546,-558 638.3546,-570 638.3546,-570 638.3546,-576 632.3546,-582 626.3546,-582"/>
<text text-anchor="middle" x="584.6833" y="-568.2" font-family="Verdana" font-size="14.00" fill="#000000">key_certificate</text>
<text text-anchor="middle" x="584.6833" y="-551.4" font-family="Verdana" font-size="14.00" fill="#000000">SignatureSize</text>
</a>
</g>
</g>
<!-- (*github.com/go&#45;i2p/go&#45;i2p/lib/keys.RouterInfoKeystore).ConstructRouterInfo&#45;&gt;(github.com/go&#45;i2p/go&#45;i2p/lib/common/key_certificate.KeyCertificate).SignatureSize -->
<g id="edge9" class="edge">
<title>(*github.com/go&#45;i2p/go&#45;i2p/lib/keys.RouterInfoKeystore).ConstructRouterInfo&#45;&gt;(github.com/go&#45;i2p/go&#45;i2p/lib/common/key_certificate.KeyCertificate).SignatureSize</title>
<g id="a_edge9"><a xlink:title="at routerinfo_keystore.go:157: calling [(github.com/go&#45;i2p/go&#45;i2p/lib/common/key_certificate.KeyCertificate).SignatureSize]">
<path fill="none" stroke="#8b4513" d="M377.778,-631.8922C408.3304,-619.9262 449.7078,-604.2499 486.7772,-592 497.9243,-588.3163 509.8762,-584.6597 521.4653,-581.2639"/>
<polygon fill="#8b4513" stroke="#8b4513" points="522.4569,-584.6206 531.0892,-578.4779 520.5103,-577.8967 522.4569,-584.6206"/>
</a>
</g>
</g>
</g>
</svg>
