<?xml version="1.0" encoding="UTF-8" standalone="no"?>
<!DOCTYPE svg PUBLIC "-//W3C//DTD SVG 1.1//EN"
 "http://www.w3.org/Graphics/SVG/1.1/DTD/svg11.dtd">
<!-- Generated by graphviz version 2.40.1 (20161225.0304)
 -->
<!-- Title: gocallvis Pages: 1 -->
<svg width="289pt" height="288pt"
 viewBox="0.00 0.00 289.19 288.00" xmlns="http://www.w3.org/2000/svg" xmlns:xlink="http://www.w3.org/1999/xlink">
<g id="graph0" class="graph" transform="scale(1 1) rotate(0) translate(0 288)">
<title>gocallvis</title>
<polygon fill="#d3d3d3" stroke="transparent" points="0,0 0,-288 289.195,-288 289.195,0 0,0"/>
<g id="clust1" class="cluster">
<title>cluster_focus</title>
<polygon fill="#e6ecfa" stroke="#000000" stroke-width=".5" points="8,-8 8,-280 281.195,-280 281.195,-8 8,-8"/>
<text text-anchor="middle" x="144.5975" y="-259.8" font-family="Arial" font-size="18.00" fill="#000000">exportable</text>
</g>
<g id="clust2" class="cluster">
<title>cluster_github.com/go&#45;i2p/go&#45;i2p/lib/common/destination</title>
<g id="a_clust2"><a xlink:href="/?f=github.com/go-i2p/go-i2p/lib/common/destination" xlink:title="package: github.com/go&#45;i2p/go&#45;i2p/lib/common/destination">
<polygon fill="#ffffe0" stroke="#000000" stroke-width=".8" points="130.1136,-16 130.1136,-242 273.195,-242 273.195,-16 130.1136,-16"/>
<text text-anchor="middle" x="201.6543" y="-223.6" font-family="Tahoma bold" font-size="16.00" fill="#000000">destination</text>
</a>
</g>
</g>
<g id="clust3" class="cluster">
<title>cluster_github.com/go&#45;i2p/go&#45;i2p/lib/common/destination.Destination</title>
<g id="a_clust3"><a xlink:href="/?f=github.com/go-i2p/go-i2p/lib/common/destination" xlink:title="type: github.com/go&#45;i2p/go&#45;i2p/lib/common/destination.Destination">
<path fill="#eed8ae" stroke="#000000" stroke-width=".5" d="M150.1136,-68C150.1136,-68 253.195,-68 253.195,-68 259.195,-68 265.195,-74 265.195,-80 265.195,-80 265.195,-195 265.195,-195 265.195,-201 259.195,-207 253.195,-207 253.195,-207 150.1136,-207 150.1136,-207 144.1136,-207 138.1136,-201 138.1136,-195 138.1136,-195 138.1136,-80 138.1136,-80 138.1136,-74 144.1136,-68 150.1136,-68"/>
<text text-anchor="middle" x="201.6543" y="-76.5" font-family="Tahoma bold" font-size="15.00" fill="#222222">(Destination)</text>
</a>
</g>
</g>
<!-- github.com/go&#45;i2p/go&#45;i2p/lib/common/fuzz/destination.Fuzz -->
<g id="node1" class="node">
<title>github.com/go&#45;i2p/go&#45;i2p/lib/common/fuzz/destination.Fuzz</title>
<g id="a_node1"><a xlink:title="github.com/go&#45;i2p/go&#45;i2p/lib/common/fuzz/destination.Fuzz | defined in fuzz.go:5&#10;at fuzz.go:6: calling [github.com/go&#45;i2p/go&#45;i2p/lib/common/destination.ReadDestination]&#10;at fuzz.go:7: calling [(github.com/go&#45;i2p/go&#45;i2p/lib/common/destination.Destination).Base32Address]&#10;at fuzz.go:8: calling [(github.com/go&#45;i2p/go&#45;i2p/lib/common/destination.Destination).Base64]">
<path fill="#add8e6" stroke="#000000" stroke-width="1.5" d="M58,-138C58,-138 28,-138 28,-138 22,-138 16,-132 16,-126 16,-126 16,-114 16,-114 16,-108 22,-102 28,-102 28,-102 58,-102 58,-102 64,-102 70,-108 70,-114 70,-114 70,-126 70,-126 70,-132 64,-138 58,-138"/>
<text text-anchor="middle" x="43" y="-115.8" font-family="Verdana" font-size="14.00" fill="#000000">Fuzz</text>
</a>
</g>
</g>
<!-- github.com/go&#45;i2p/go&#45;i2p/lib/common/destination.ReadDestination -->
<g id="node2" class="node">
<title>github.com/go&#45;i2p/go&#45;i2p/lib/common/destination.ReadDestination</title>
<g id="a_node2"><a xlink:title="github.com/go&#45;i2p/go&#45;i2p/lib/common/destination.ReadDestination | defined in destination.go:72">
<path fill="#ffe4b5" stroke="#000000" stroke-width="1.5" d="M248.4633,-60C248.4633,-60 154.8453,-60 154.8453,-60 148.8453,-60 142.8453,-54 142.8453,-48 142.8453,-48 142.8453,-36 142.8453,-36 142.8453,-30 148.8453,-24 154.8453,-24 154.8453,-24 248.4633,-24 248.4633,-24 254.4633,-24 260.4633,-30 260.4633,-36 260.4633,-36 260.4633,-48 260.4633,-48 260.4633,-54 254.4633,-60 248.4633,-60"/>
<text text-anchor="middle" x="201.6543" y="-37.8" font-family="Verdana" font-size="14.00" fill="#000000">ReadDestination</text>
</a>
</g>
</g>
<!-- github.com/go&#45;i2p/go&#45;i2p/lib/common/fuzz/destination.Fuzz&#45;&gt;github.com/go&#45;i2p/go&#45;i2p/lib/common/destination.ReadDestination -->
<g id="edge1" class="edge">
<title>github.com/go&#45;i2p/go&#45;i2p/lib/common/fuzz/destination.Fuzz&#45;&gt;github.com/go&#45;i2p/go&#45;i2p/lib/common/destination.ReadDestination</title>
<g id="a_edge1"><a xlink:title="at fuzz.go:6: calling [github.com/go&#45;i2p/go&#45;i2p/lib/common/destination.ReadDestination]">
<path fill="none" stroke="#8b4513" d="M67.12,-101.9366C84.055,-89.9084 107.6112,-74.452 130.1136,-64 131.2737,-63.4612 132.4503,-62.9312 133.6406,-62.4103"/>
<polygon fill="#8b4513" stroke="#8b4513" points="135.0473,-65.6165 142.9817,-58.5953 132.4006,-59.1361 135.0473,-65.6165"/>
</a>
</g>
</g>
<!-- (github.com/go&#45;i2p/go&#45;i2p/lib/common/destination.Destination).Base32Address -->
<g id="node3" class="node">
<title>(github.com/go&#45;i2p/go&#45;i2p/lib/common/destination.Destination).Base32Address</title>
<g id="a_node3"><a xlink:title="(github.com/go&#45;i2p/go&#45;i2p/lib/common/destination.Destination).Base32Address | defined in destination.go:38">
<path fill="#ffe4b5" stroke="#000000" stroke-width="1.5" d="M245.2357,-138C245.2357,-138 158.0729,-138 158.0729,-138 152.0729,-138 146.0729,-132 146.0729,-126 146.0729,-126 146.0729,-114 146.0729,-114 146.0729,-108 152.0729,-102 158.0729,-102 158.0729,-102 245.2357,-102 245.2357,-102 251.2357,-102 257.2357,-108 257.2357,-114 257.2357,-114 257.2357,-126 257.2357,-126 257.2357,-132 251.2357,-138 245.2357,-138"/>
<text text-anchor="middle" x="201.6543" y="-115.8" font-family="Verdana" font-size="14.00" fill="#000000">Base32Address</text>
</a>
</g>
</g>
<!-- github.com/go&#45;i2p/go&#45;i2p/lib/common/fuzz/destination.Fuzz&#45;&gt;(github.com/go&#45;i2p/go&#45;i2p/lib/common/destination.Destination).Base32Address -->
<g id="edge2" class="edge">
<title>github.com/go&#45;i2p/go&#45;i2p/lib/common/fuzz/destination.Fuzz&#45;&gt;(github.com/go&#45;i2p/go&#45;i2p/lib/common/destination.Destination).Base32Address</title>
<g id="a_edge2"><a xlink:title="at fuzz.go:7: calling [(github.com/go&#45;i2p/go&#45;i2p/lib/common/destination.Destination).Base32Address]">
<path fill="none" stroke="#8b4513" d="M70.2736,-120C88.3329,-120 112.8362,-120 135.7903,-120"/>
<polygon fill="#8b4513" stroke="#8b4513" points="135.853,-123.5001 145.853,-120 135.8529,-116.5001 135.853,-123.5001"/>
</a>
</g>
</g>
<!-- (github.com/go&#45;i2p/go&#45;i2p/lib/common/destination.Destination).Base64 -->
<g id="node4" class="node">
<title>(github.com/go&#45;i2p/go&#45;i2p/lib/common/destination.Destination).Base64</title>
<g id="a_node4"><a xlink:title="(github.com/go&#45;i2p/go&#45;i2p/lib/common/destination.Destination).Base64 | defined in destination.go:55">
<path fill="#ffe4b5" stroke="#000000" stroke-width="1.5" d="M222.365,-199C222.365,-199 180.9436,-199 180.9436,-199 174.9436,-199 168.9436,-193 168.9436,-187 168.9436,-187 168.9436,-175 168.9436,-175 168.9436,-169 174.9436,-163 180.9436,-163 180.9436,-163 222.365,-163 222.365,-163 228.365,-163 234.365,-169 234.365,-175 234.365,-175 234.365,-187 234.365,-187 234.365,-193 228.365,-199 222.365,-199"/>
<text text-anchor="middle" x="201.6543" y="-176.8" font-family="Verdana" font-size="14.00" fill="#000000">Base64</text>
</a>
</g>
</g>
<!-- github.com/go&#45;i2p/go&#45;i2p/lib/common/fuzz/destination.Fuzz&#45;&gt;(github.com/go&#45;i2p/go&#45;i2p/lib/common/destination.Destination).Base64 -->
<g id="edge3" class="edge">
<title>github.com/go&#45;i2p/go&#45;i2p/lib/common/fuzz/destination.Fuzz&#45;&gt;(github.com/go&#45;i2p/go&#45;i2p/lib/common/destination.Destination).Base64</title>
<g id="a_edge3"><a xlink:title="at fuzz.go:8: calling [(github.com/go&#45;i2p/go&#45;i2p/lib/common/destination.Destination).Base64]">
<path fill="none" stroke="#8b4513" d="M70.2736,-130.4863C94.7627,-139.9019 131.1015,-153.8736 159.3582,-164.7378"/>
<polygon fill="#8b4513" stroke="#8b4513" points="158.3932,-168.1165 168.9832,-168.4385 160.9054,-161.5828 158.3932,-168.1165"/>
</a>
</g>
</g>
</g>
</svg>
