<?xml version="1.0" encoding="UTF-8" standalone="no"?>
<!DOCTYPE svg PUBLIC "-//W3C//DTD SVG 1.1//EN"
 "http://www.w3.org/Graphics/SVG/1.1/DTD/svg11.dtd">
<!-- Generated by graphviz version 2.40.1 (20161225.0304)
 -->
<!-- Title: gocallvis Pages: 1 -->
<svg width="281pt" height="245pt"
 viewBox="0.00 0.00 281.19 245.00" xmlns="http://www.w3.org/2000/svg" xmlns:xlink="http://www.w3.org/1999/xlink">
<g id="graph0" class="graph" transform="scale(1 1) rotate(0) translate(0 245)">
<title>gocallvis</title>
<polygon fill="#d3d3d3" stroke="transparent" points="0,0 0,-245 281.195,-245 281.195,0 0,0"/>
<g id="clust1" class="cluster">
<title>cluster_focus</title>
<polygon fill="#e6ecfa" stroke="#000000" stroke-width=".5" points="8,-8 8,-237 273.195,-237 273.195,-8 8,-8"/>
<text text-anchor="middle" x="140.5975" y="-216.8" font-family="Arial" font-size="18.00" fill="#000000">exportable</text>
</g>
<g id="clust2" class="cluster">
<title>cluster_github.com/go&#45;i2p/go&#45;i2p/lib/common/destination.Destination</title>
<g id="a_clust2"><a xlink:title="type: github.com/go&#45;i2p/go&#45;i2p/lib/common/destination.Destination">
<path fill="#eed8ae" stroke="#000000" stroke-width=".5" d="M150.1136,-60C150.1136,-60 253.195,-60 253.195,-60 259.195,-60 265.195,-66 265.195,-72 265.195,-72 265.195,-187 265.195,-187 265.195,-193 259.195,-199 253.195,-199 253.195,-199 150.1136,-199 150.1136,-199 144.1136,-199 138.1136,-193 138.1136,-187 138.1136,-187 138.1136,-72 138.1136,-72 138.1136,-66 144.1136,-60 150.1136,-60"/>
<text text-anchor="middle" x="201.6543" y="-68.5" font-family="Arial" font-size="15.00" fill="#222222">(Destination)</text>
</a>
</g>
</g>
<!-- github.com/go&#45;i2p/go&#45;i2p/lib/common/fuzz/destination.Fuzz -->
<g id="node1" class="node">
<title>github.com/go&#45;i2p/go&#45;i2p/lib/common/fuzz/destination.Fuzz</title>
<g id="a_node1"><a xlink:title="github.com/go&#45;i2p/go&#45;i2p/lib/common/fuzz/destination.Fuzz | defined in fuzz.go:5&#10;at fuzz.go:6: calling [github.com/go&#45;i2p/go&#45;i2p/lib/common/destination.ReadDestination]&#10;at fuzz.go:7: calling [(github.com/go&#45;i2p/go&#45;i2p/lib/common/destination.Destination).Base32Address]&#10;at fuzz.go:8: calling [(github.com/go&#45;i2p/go&#45;i2p/lib/common/destination.Destination).Base64]">
<path fill="#add8e6" stroke="#000000" stroke-width="1.5" d="M58,-130C58,-130 28,-130 28,-130 22,-130 16,-124 16,-118 16,-118 16,-106 16,-106 16,-100 22,-94 28,-94 28,-94 58,-94 58,-94 64,-94 70,-100 70,-106 70,-106 70,-118 70,-118 70,-124 64,-130 58,-130"/>
<text text-anchor="middle" x="43" y="-107.8" font-family="Verdana" font-size="14.00" fill="#000000">Fuzz</text>
</a>
</g>
</g>
<!-- github.com/go&#45;i2p/go&#45;i2p/lib/common/destination.ReadDestination -->
<g id="node2" class="node">
<title>github.com/go&#45;i2p/go&#45;i2p/lib/common/destination.ReadDestination</title>
<g id="a_node2"><a xlink:title="github.com/go&#45;i2p/go&#45;i2p/lib/common/destination.ReadDestination | defined in destination.go:72">
<path fill="#ffe4b5" stroke="#000000" stroke-width="1.5" d="M248.4633,-52C248.4633,-52 154.8453,-52 154.8453,-52 148.8453,-52 142.8453,-46 142.8453,-40 142.8453,-40 142.8453,-28 142.8453,-28 142.8453,-22 148.8453,-16 154.8453,-16 154.8453,-16 248.4633,-16 248.4633,-16 254.4633,-16 260.4633,-22 260.4633,-28 260.4633,-28 260.4633,-40 260.4633,-40 260.4633,-46 254.4633,-52 248.4633,-52"/>
<text text-anchor="middle" x="201.6543" y="-38.2" font-family="Verdana" font-size="14.00" fill="#000000">destination</text>
<text text-anchor="middle" x="201.6543" y="-21.4" font-family="Verdana" font-size="14.00" fill="#000000">ReadDestination</text>
</a>
</g>
</g>
<!-- github.com/go&#45;i2p/go&#45;i2p/lib/common/fuzz/destination.Fuzz&#45;&gt;github.com/go&#45;i2p/go&#45;i2p/lib/common/destination.ReadDestination -->
<g id="edge1" class="edge">
<title>github.com/go&#45;i2p/go&#45;i2p/lib/common/fuzz/destination.Fuzz&#45;&gt;github.com/go&#45;i2p/go&#45;i2p/lib/common/destination.ReadDestination</title>
<g id="a_edge1"><a xlink:title="at fuzz.go:6: calling [github.com/go&#45;i2p/go&#45;i2p/lib/common/destination.ReadDestination]">
<path fill="none" stroke="#8b4513" d="M70.1001,-94.0845C88.7169,-82.2726 114.281,-67.0087 138.1136,-56 138.2063,-55.9572 138.2992,-55.9144 138.3921,-55.8716"/>
<polygon fill="#8b4513" stroke="#8b4513" points="139.5119,-59.2012 147.2891,-52.0063 136.7226,-52.7809 139.5119,-59.2012"/>
</a>
</g>
</g>
<!-- (github.com/go&#45;i2p/go&#45;i2p/lib/common/destination.Destination).Base32Address -->
<g id="node3" class="node">
<title>(github.com/go&#45;i2p/go&#45;i2p/lib/common/destination.Destination).Base32Address</title>
<g id="a_node3"><a xlink:title="(github.com/go&#45;i2p/go&#45;i2p/lib/common/destination.Destination).Base32Address | defined in destination.go:38">
<path fill="#ffe4b5" stroke="#000000" stroke-width="1.5" d="M245.2357,-130C245.2357,-130 158.0729,-130 158.0729,-130 152.0729,-130 146.0729,-124 146.0729,-118 146.0729,-118 146.0729,-106 146.0729,-106 146.0729,-100 152.0729,-94 158.0729,-94 158.0729,-94 245.2357,-94 245.2357,-94 251.2357,-94 257.2357,-100 257.2357,-106 257.2357,-106 257.2357,-118 257.2357,-118 257.2357,-124 251.2357,-130 245.2357,-130"/>
<text text-anchor="middle" x="201.6543" y="-116.2" font-family="Verdana" font-size="14.00" fill="#000000">destination</text>
<text text-anchor="middle" x="201.6543" y="-99.4" font-family="Verdana" font-size="14.00" fill="#000000">Base32Address</text>
</a>
</g>
</g>
<!-- github.com/go&#45;i2p/go&#45;i2p/lib/common/fuzz/destination.Fuzz&#45;&gt;(github.com/go&#45;i2p/go&#45;i2p/lib/common/destination.Destination).Base32Address -->
<g id="edge2" class="edge">
<title>github.com/go&#45;i2p/go&#45;i2p/lib/common/fuzz/destination.Fuzz&#45;&gt;(github.com/go&#45;i2p/go&#45;i2p/lib/common/destination.Destination).Base32Address</title>
<g id="a_edge2"><a xlink:title="at fuzz.go:7: calling [(github.com/go&#45;i2p/go&#45;i2p/lib/common/destination.Destination).Base32Address]">
<path fill="none" stroke="#8b4513" d="M70.2736,-112C88.3329,-112 112.8362,-112 135.7903,-112"/>
<polygon fill="#8b4513" stroke="#8b4513" points="135.853,-115.5001 145.853,-112 135.8529,-108.5001 135.853,-115.5001"/>
</a>
</g>
</g>
<!-- (github.com/go&#45;i2p/go&#45;i2p/lib/common/destination.Destination).Base64 -->
<g id="node4" class="node">
<title>(github.com/go&#45;i2p/go&#45;i2p/lib/common/destination.Destination).Base64</title>
<g id="a_node4"><a xlink:title="(github.com/go&#45;i2p/go&#45;i2p/lib/common/destination.Destination).Base64 | defined in destination.go:55">
<path fill="#ffe4b5" stroke="#000000" stroke-width="1.5" d="M232.5916,-191C232.5916,-191 170.717,-191 170.717,-191 164.717,-191 158.717,-185 158.717,-179 158.717,-179 158.717,-167 158.717,-167 158.717,-161 164.717,-155 170.717,-155 170.717,-155 232.5916,-155 232.5916,-155 238.5916,-155 244.5916,-161 244.5916,-167 244.5916,-167 244.5916,-179 244.5916,-179 244.5916,-185 238.5916,-191 232.5916,-191"/>
<text text-anchor="middle" x="201.6543" y="-177.2" font-family="Verdana" font-size="14.00" fill="#000000">destination</text>
<text text-anchor="middle" x="201.6543" y="-160.4" font-family="Verdana" font-size="14.00" fill="#000000">Base64</text>
</a>
</g>
</g>
<!-- github.com/go&#45;i2p/go&#45;i2p/lib/common/fuzz/destination.Fuzz&#45;&gt;(github.com/go&#45;i2p/go&#45;i2p/lib/common/destination.Destination).Base64 -->
<g id="edge3" class="edge">
<title>github.com/go&#45;i2p/go&#45;i2p/lib/common/fuzz/destination.Fuzz&#45;&gt;(github.com/go&#45;i2p/go&#45;i2p/lib/common/destination.Destination).Base64</title>
<g id="a_edge3"><a xlink:title="at fuzz.go:8: calling [(github.com/go&#45;i2p/go&#45;i2p/lib/common/destination.Destination).Base64]">
<path fill="none" stroke="#8b4513" d="M70.2736,-122.4863C91.973,-130.8293 122.976,-142.7495 149.4161,-152.9153"/>
<polygon fill="#8b4513" stroke="#8b4513" points="148.3351,-156.2494 158.9251,-156.5713 150.8473,-149.7157 148.3351,-156.2494"/>
</a>
</g>
</g>
</g>
</svg>
