<?xml version="1.0" encoding="UTF-8" standalone="no"?>
<!DOCTYPE svg PUBLIC "-//W3C//DTD SVG 1.1//EN"
 "http://www.w3.org/Graphics/SVG/1.1/DTD/svg11.dtd">
<!-- Generated by graphviz version 2.40.1 (20161225.0304)
 -->
<!-- Title: gocallvis Pages: 1 -->
<svg width="311pt" height="270pt"
 viewBox="0.00 0.00 311.05 270.00" xmlns="http://www.w3.org/2000/svg" xmlns:xlink="http://www.w3.org/1999/xlink">
<g id="graph0" class="graph" transform="scale(1 1) rotate(0) translate(0 270)">
<title>gocallvis</title>
<polygon fill="#d3d3d3" stroke="transparent" points="0,0 0,-270 311.0548,-270 311.0548,0 0,0"/>
<g id="clust1" class="cluster">
<title>cluster_focus</title>
<polygon fill="#e6ecfa" stroke="#000000" stroke-width=".5" points="8,-8 8,-262 303.0548,-262 303.0548,-8 8,-8"/>
<text text-anchor="middle" x="155.5274" y="-241.8" font-family="Arial" font-size="18.00" fill="#000000">monotonic</text>
</g>
<g id="clust4" class="cluster">
<title>cluster_*github.com/go&#45;i2p/logger.Logger</title>
<g id="a_clust4"><a xlink:title="type: *github.com/go&#45;i2p/logger.Logger">
<path fill="#eed8ae" stroke="#000000" stroke-width=".5" d="M198.073,-146C198.073,-146 270.8472,-146 270.8472,-146 276.8472,-146 282.8472,-152 282.8472,-158 282.8472,-158 282.8472,-212 282.8472,-212 282.8472,-218 276.8472,-224 270.8472,-224 270.8472,-224 198.073,-224 198.073,-224 192.073,-224 186.073,-218 186.073,-212 186.073,-212 186.073,-158 186.073,-158 186.073,-152 192.073,-146 198.073,-146"/>
<text text-anchor="middle" x="234.4601" y="-154.5" font-family="Arial" font-size="15.00" fill="#222222">(*Logger)</text>
</a>
</g>
</g>
<g id="clust3" class="cluster">
<title>cluster_*github.com/go&#45;i2p/logger.Entry</title>
<g id="a_clust3"><a xlink:title="type: *github.com/go&#45;i2p/logger.Entry">
<path fill="#eed8ae" stroke="#000000" stroke-width=".5" d="M207.7995,-60C207.7995,-60 261.1207,-60 261.1207,-60 267.1207,-60 273.1207,-66 273.1207,-72 273.1207,-72 273.1207,-126 273.1207,-126 273.1207,-132 267.1207,-138 261.1207,-138 261.1207,-138 207.7995,-138 207.7995,-138 201.7995,-138 195.7995,-132 195.7995,-126 195.7995,-126 195.7995,-72 195.7995,-72 195.7995,-66 201.7995,-60 207.7995,-60"/>
<text text-anchor="middle" x="234.4601" y="-68.5" font-family="Arial" font-size="15.00" fill="#222222">(*Entry)</text>
</a>
</g>
</g>
<g id="clust2" class="cluster">
<title>cluster_*github.com/go&#45;i2p/go&#45;i2p/lib/util/time/monotonic.Clock</title>
<g id="a_clust2"><a xlink:title="type: *github.com/go&#45;i2p/go&#45;i2p/lib/util/time/monotonic.Clock">
<path fill="#b0c4de" stroke="#000000" stroke-width=".5" d="M28,-103C28,-103 96.8654,-103 96.8654,-103 102.8654,-103 108.8654,-109 108.8654,-115 108.8654,-115 108.8654,-169 108.8654,-169 108.8654,-175 102.8654,-181 96.8654,-181 96.8654,-181 28,-181 28,-181 22,-181 16,-175 16,-169 16,-169 16,-115 16,-115 16,-109 22,-103 28,-103"/>
<text text-anchor="middle" x="62.4327" y="-111.5" font-family="Arial" font-size="15.00" fill="#222222">(*Clock)</text>
</a>
</g>
</g>
<!-- github.com/go&#45;i2p/go&#45;i2p/lib/util/time/monotonic.init -->
<g id="node1" class="node">
<title>github.com/go&#45;i2p/go&#45;i2p/lib/util/time/monotonic.init</title>
<g id="a_node1"><a xlink:title="github.com/go&#45;i2p/go&#45;i2p/lib/util/time/monotonic.init | defined in .:0&#10;at log.go:5: calling [github.com/go&#45;i2p/logger.GetGoI2PLogger]">
<path fill="#add8e6" stroke="#000000" stroke-width=".5" d="M77.4327,-52C77.4327,-52 47.4327,-52 47.4327,-52 41.4327,-52 35.4327,-46 35.4327,-40 35.4327,-40 35.4327,-28 35.4327,-28 35.4327,-22 41.4327,-16 47.4327,-16 47.4327,-16 77.4327,-16 77.4327,-16 83.4327,-16 89.4327,-22 89.4327,-28 89.4327,-28 89.4327,-40 89.4327,-40 89.4327,-46 83.4327,-52 77.4327,-52"/>
<text text-anchor="middle" x="62.4327" y="-29.8" font-family="Verdana" font-size="14.00" fill="#000000">init</text>
</a>
</g>
</g>
<!-- github.com/go&#45;i2p/logger.GetGoI2PLogger -->
<g id="node2" class="node">
<title>github.com/go&#45;i2p/logger.GetGoI2PLogger</title>
<g id="a_node2"><a xlink:title="github.com/go&#45;i2p/logger.GetGoI2PLogger | defined in log.go:254">
<path fill="#ffe4b5" stroke="#000000" stroke-width="1.5" d="M283.1496,-52C283.1496,-52 185.7706,-52 185.7706,-52 179.7706,-52 173.7706,-46 173.7706,-40 173.7706,-40 173.7706,-28 173.7706,-28 173.7706,-22 179.7706,-16 185.7706,-16 185.7706,-16 283.1496,-16 283.1496,-16 289.1496,-16 295.1496,-22 295.1496,-28 295.1496,-28 295.1496,-40 295.1496,-40 295.1496,-46 289.1496,-52 283.1496,-52"/>
<text text-anchor="middle" x="234.4601" y="-38.2" font-family="Verdana" font-size="14.00" fill="#000000">logger</text>
<text text-anchor="middle" x="234.4601" y="-21.4" font-family="Verdana" font-size="14.00" fill="#000000">GetGoI2PLogger</text>
</a>
</g>
</g>
<!-- github.com/go&#45;i2p/go&#45;i2p/lib/util/time/monotonic.init&#45;&gt;github.com/go&#45;i2p/logger.GetGoI2PLogger -->
<g id="edge1" class="edge">
<title>github.com/go&#45;i2p/go&#45;i2p/lib/util/time/monotonic.init&#45;&gt;github.com/go&#45;i2p/logger.GetGoI2PLogger</title>
<g id="a_edge1"><a xlink:title="at log.go:5: calling [github.com/go&#45;i2p/logger.GetGoI2PLogger]">
<path fill="none" stroke="#8b4513" d="M89.691,-34C109.5968,-34 137.5447,-34 163.5821,-34"/>
<polygon fill="#8b4513" stroke="#8b4513" points="163.8267,-37.5001 173.8267,-34 163.8267,-30.5001 163.8267,-37.5001"/>
</a>
</g>
</g>
<!-- (*github.com/go&#45;i2p/go&#45;i2p/lib/util/time/monotonic.Clock).SetOffset -->
<g id="node3" class="node">
<title>(*github.com/go&#45;i2p/go&#45;i2p/lib/util/time/monotonic.Clock).SetOffset</title>
<g id="a_node3"><a xlink:title="(*github.com/go&#45;i2p/go&#45;i2p/lib/util/time/monotonic.Clock).SetOffset | defined in monotonic.go:35&#10;at monotonic.go:36: calling [(*github.com/go&#45;i2p/logger.Logger).WithField]&#10;at monotonic.go:36: calling [(*github.com/go&#45;i2p/logger.Entry).Debug]">
<path fill="#add8e6" stroke="#000000" stroke-width="1.5" d="M88.7982,-173C88.7982,-173 36.0672,-173 36.0672,-173 30.0672,-173 24.0672,-167 24.0672,-161 24.0672,-161 24.0672,-149 24.0672,-149 24.0672,-143 30.0672,-137 36.0672,-137 36.0672,-137 88.7982,-137 88.7982,-137 94.7982,-137 100.7982,-143 100.7982,-149 100.7982,-149 100.7982,-161 100.7982,-161 100.7982,-167 94.7982,-173 88.7982,-173"/>
<text text-anchor="middle" x="62.4327" y="-150.8" font-family="Verdana" font-size="14.00" fill="#000000">SetOffset</text>
</a>
</g>
</g>
<!-- (*github.com/go&#45;i2p/logger.Entry).Debug -->
<g id="node4" class="node">
<title>(*github.com/go&#45;i2p/logger.Entry).Debug</title>
<g id="a_node4"><a xlink:title="(*github.com/go&#45;i2p/logger.Entry).Debug | defined in log.go:92">
<path fill="#ffe4b5" stroke="#000000" stroke-width="1.5" d="M253.2821,-130C253.2821,-130 215.6381,-130 215.6381,-130 209.6381,-130 203.6381,-124 203.6381,-118 203.6381,-118 203.6381,-106 203.6381,-106 203.6381,-100 209.6381,-94 215.6381,-94 215.6381,-94 253.2821,-94 253.2821,-94 259.2821,-94 265.2821,-100 265.2821,-106 265.2821,-106 265.2821,-118 265.2821,-118 265.2821,-124 259.2821,-130 253.2821,-130"/>
<text text-anchor="middle" x="234.4601" y="-116.2" font-family="Verdana" font-size="14.00" fill="#000000">logger</text>
<text text-anchor="middle" x="234.4601" y="-99.4" font-family="Verdana" font-size="14.00" fill="#000000">Debug</text>
</a>
</g>
</g>
<!-- (*github.com/go&#45;i2p/go&#45;i2p/lib/util/time/monotonic.Clock).SetOffset&#45;&gt;(*github.com/go&#45;i2p/logger.Entry).Debug -->
<g id="edge3" class="edge">
<title>(*github.com/go&#45;i2p/go&#45;i2p/lib/util/time/monotonic.Clock).SetOffset&#45;&gt;(*github.com/go&#45;i2p/logger.Entry).Debug</title>
<g id="a_edge3"><a xlink:title="at monotonic.go:36: calling [(*github.com/go&#45;i2p/logger.Entry).Debug]">
<path fill="none" stroke="#8b4513" d="M101.039,-145.35C128.6539,-138.4473 165.7497,-129.1749 193.8161,-122.1594"/>
<polygon fill="#8b4513" stroke="#8b4513" points="194.8608,-125.506 203.7136,-119.6854 193.1633,-118.7149 194.8608,-125.506"/>
</a>
</g>
</g>
<!-- (*github.com/go&#45;i2p/logger.Logger).WithField -->
<g id="node5" class="node">
<title>(*github.com/go&#45;i2p/logger.Logger).WithField</title>
<g id="a_node5"><a xlink:title="(*github.com/go&#45;i2p/logger.Logger).WithField | defined in log.go:60">
<path fill="#ffe4b5" stroke="#000000" stroke-width="1.5" d="M262.7346,-216C262.7346,-216 206.1856,-216 206.1856,-216 200.1856,-216 194.1856,-210 194.1856,-204 194.1856,-204 194.1856,-192 194.1856,-192 194.1856,-186 200.1856,-180 206.1856,-180 206.1856,-180 262.7346,-180 262.7346,-180 268.7346,-180 274.7346,-186 274.7346,-192 274.7346,-192 274.7346,-204 274.7346,-204 274.7346,-210 268.7346,-216 262.7346,-216"/>
<text text-anchor="middle" x="234.4601" y="-202.2" font-family="Verdana" font-size="14.00" fill="#000000">logger</text>
<text text-anchor="middle" x="234.4601" y="-185.4" font-family="Verdana" font-size="14.00" fill="#000000">WithField</text>
</a>
</g>
</g>
<!-- (*github.com/go&#45;i2p/go&#45;i2p/lib/util/time/monotonic.Clock).SetOffset&#45;&gt;(*github.com/go&#45;i2p/logger.Logger).WithField -->
<g id="edge2" class="edge">
<title>(*github.com/go&#45;i2p/go&#45;i2p/lib/util/time/monotonic.Clock).SetOffset&#45;&gt;(*github.com/go&#45;i2p/logger.Logger).WithField</title>
<g id="a_edge2"><a xlink:title="at monotonic.go:36: calling [(*github.com/go&#45;i2p/logger.Logger).WithField]">
<path fill="none" stroke="#8b4513" d="M101.039,-164.65C125.5462,-170.7759 157.5205,-178.7682 184.024,-185.393"/>
<polygon fill="#8b4513" stroke="#8b4513" points="183.3366,-188.8288 193.8869,-187.8583 185.0341,-182.0377 183.3366,-188.8288"/>
</a>
</g>
</g>
</g>
</svg>
