<?xml version="1.0" encoding="UTF-8" standalone="no"?>
<!DOCTYPE svg PUBLIC "-//W3C//DTD SVG 1.1//EN"
 "http://www.w3.org/Graphics/SVG/1.1/DTD/svg11.dtd">
<!-- Generated by graphviz version 2.40.1 (20161225.0304)
 -->
<!-- Title: gocallvis Pages: 1 -->
<svg width="551pt" height="661pt"
 viewBox="0.00 0.00 551.35 661.00" xmlns="http://www.w3.org/2000/svg" xmlns:xlink="http://www.w3.org/1999/xlink">
<g id="graph0" class="graph" transform="scale(1 1) rotate(0) translate(0 661)">
<title>gocallvis</title>
<polygon fill="#d3d3d3" stroke="transparent" points="0,0 0,-661 551.348,-661 551.348,0 0,0"/>
<g id="clust1" class="cluster">
<title>cluster_focus</title>
<polygon fill="#e6ecfa" stroke="#000000" stroke-width=".5" points="8,-8 8,-653 543.348,-653 543.348,-8 8,-8"/>
<text text-anchor="middle" x="275.674" y="-632.8" font-family="Arial" font-size="18.00" fill="#000000">tui</text>
</g>
<g id="clust5" class="cluster">
<title>cluster_github.com/go&#45;i2p/i2ptui.Model</title>
<g id="a_clust5"><a xlink:title="type: github.com/go&#45;i2p/i2ptui.Model">
<path fill="#eed8ae" stroke="#000000" stroke-width=".5" d="M215.5786,-415C215.5786,-415 272.005,-415 272.005,-415 278.005,-415 284.005,-421 284.005,-427 284.005,-427 284.005,-603 284.005,-603 284.005,-609 278.005,-615 272.005,-615 272.005,-615 215.5786,-615 215.5786,-615 209.5786,-615 203.5786,-609 203.5786,-603 203.5786,-603 203.5786,-427 203.5786,-427 203.5786,-421 209.5786,-415 215.5786,-415"/>
<text text-anchor="middle" x="243.7918" y="-423.5" font-family="Arial" font-size="15.00" fill="#222222">(Model)</text>
</a>
</g>
</g>
<g id="clust4" class="cluster">
<title>cluster_github.com/go&#45;i2p/go&#45;i2p/lib/tui.WrapperModel</title>
<g id="a_clust4"><a xlink:title="type: github.com/go&#45;i2p/go&#45;i2p/lib/tui.WrapperModel">
<path fill="#b0c4de" stroke="#000000" stroke-width=".5" d="M28,-121C28,-121 322.1572,-121 322.1572,-121 328.1572,-121 334.1572,-127 334.1572,-133 334.1572,-133 334.1572,-309 334.1572,-309 334.1572,-315 328.1572,-321 322.1572,-321 322.1572,-321 28,-321 28,-321 22,-321 16,-315 16,-309 16,-309 16,-133 16,-133 16,-127 22,-121 28,-121"/>
<text text-anchor="middle" x="175.0786" y="-129.5" font-family="Arial" font-size="15.00" fill="#222222">(WrapperModel)</text>
</a>
</g>
</g>
<g id="clust3" class="cluster">
<title>cluster_github.com/charmbracelet/lipgloss.Style</title>
<g id="a_clust3"><a xlink:title="type: github.com/charmbracelet/lipgloss.Style">
<path fill="#eed8ae" stroke="#000000" stroke-width=".5" d="M403.1572,-121C403.1572,-121 523.348,-121 523.348,-121 529.348,-121 535.348,-127 535.348,-133 535.348,-133 535.348,-553 535.348,-553 535.348,-559 529.348,-565 523.348,-565 523.348,-565 403.1572,-565 403.1572,-565 397.1572,-565 391.1572,-559 391.1572,-553 391.1572,-553 391.1572,-133 391.1572,-133 391.1572,-127 397.1572,-121 403.1572,-121"/>
<text text-anchor="middle" x="463.2526" y="-129.5" font-family="Arial" font-size="15.00" fill="#222222">(Style)</text>
</a>
</g>
</g>
<g id="clust2" class="cluster">
<title>cluster_github.com/charmbracelet/bubbletea.KeyMsg</title>
<g id="a_clust2"><a xlink:title="type: github.com/charmbracelet/bubbletea.KeyMsg">
<path fill="#eed8ae" stroke="#000000" stroke-width=".5" d="M216.6796,-329C216.6796,-329 271.904,-329 271.904,-329 277.904,-329 283.904,-335 283.904,-341 283.904,-341 283.904,-395 283.904,-395 283.904,-401 277.904,-407 271.904,-407 271.904,-407 216.6796,-407 216.6796,-407 210.6796,-407 204.6796,-401 204.6796,-395 204.6796,-395 204.6796,-341 204.6796,-341 204.6796,-335 210.6796,-329 216.6796,-329"/>
<text text-anchor="middle" x="244.2918" y="-337.5" font-family="Arial" font-size="15.00" fill="#222222">(KeyMsg)</text>
</a>
</g>
</g>
<!-- github.com/go&#45;i2p/go&#45;i2p/lib/tui.New -->
<g id="node1" class="node">
<title>github.com/go&#45;i2p/go&#45;i2p/lib/tui.New</title>
<g id="a_node1"><a xlink:title="github.com/go&#45;i2p/go&#45;i2p/lib/tui.New | defined in tui.go:48&#10;at tui.go:50: calling [github.com/go&#45;i2p/i2ptui.New]">
<path fill="#add8e6" stroke="#000000" stroke-width="1.5" d="M71.2132,-113C71.2132,-113 41.2132,-113 41.2132,-113 35.2132,-113 29.2132,-107 29.2132,-101 29.2132,-101 29.2132,-89 29.2132,-89 29.2132,-83 35.2132,-77 41.2132,-77 41.2132,-77 71.2132,-77 71.2132,-77 77.2132,-77 83.2132,-83 83.2132,-89 83.2132,-89 83.2132,-101 83.2132,-101 83.2132,-107 77.2132,-113 71.2132,-113"/>
<text text-anchor="middle" x="56.2132" y="-90.8" font-family="Verdana" font-size="14.00" fill="#000000">New</text>
</a>
</g>
</g>
<!-- github.com/go&#45;i2p/i2ptui.New -->
<g id="node2" class="node">
<title>github.com/go&#45;i2p/i2ptui.New</title>
<g id="a_node2"><a xlink:title="github.com/go&#45;i2p/i2ptui.New | defined in model.go:101">
<path fill="#ffe4b5" stroke="#000000" stroke-width="1.5" d="M259.9645,-113C259.9645,-113 227.6191,-113 227.6191,-113 221.6191,-113 215.6191,-107 215.6191,-101 215.6191,-101 215.6191,-89 215.6191,-89 215.6191,-83 221.6191,-77 227.6191,-77 227.6191,-77 259.9645,-77 259.9645,-77 265.9645,-77 271.9645,-83 271.9645,-89 271.9645,-89 271.9645,-101 271.9645,-101 271.9645,-107 265.9645,-113 259.9645,-113"/>
<text text-anchor="middle" x="243.7918" y="-99.2" font-family="Verdana" font-size="14.00" fill="#000000">i2ptui</text>
<text text-anchor="middle" x="243.7918" y="-82.4" font-family="Verdana" font-size="14.00" fill="#000000">New</text>
</a>
</g>
</g>
<!-- github.com/go&#45;i2p/go&#45;i2p/lib/tui.New&#45;&gt;github.com/go&#45;i2p/i2ptui.New -->
<g id="edge1" class="edge">
<title>github.com/go&#45;i2p/go&#45;i2p/lib/tui.New&#45;&gt;github.com/go&#45;i2p/i2ptui.New</title>
<g id="a_edge1"><a xlink:title="at tui.go:50: calling [github.com/go&#45;i2p/i2ptui.New]">
<path fill="none" stroke="#8b4513" d="M83.4887,-95C115.5797,-95 169.0752,-95 205.3582,-95"/>
<polygon fill="#8b4513" stroke="#8b4513" points="205.5627,-98.5001 215.5627,-95 205.5626,-91.5001 205.5627,-98.5001"/>
</a>
</g>
</g>
<!-- github.com/go&#45;i2p/go&#45;i2p/lib/tui.init -->
<g id="node3" class="node">
<title>github.com/go&#45;i2p/go&#45;i2p/lib/tui.init</title>
<g id="a_node3"><a xlink:title="github.com/go&#45;i2p/go&#45;i2p/lib/tui.init | defined in .:0&#10;at tui.go:107: calling [(github.com/charmbracelet/lipgloss.Style).Padding]&#10;at tui.go:104: calling [github.com/charmbracelet/lipgloss.NewStyle]&#10;at tui.go:109: calling [github.com/charmbracelet/lipgloss.NewStyle]&#10;at tui.go:113: calling [github.com/charmbracelet/lipgloss.NewStyle]&#10;at tui.go:117: calling [github.com/charmbracelet/lipgloss.NewStyle]&#10;at tui.go:120: calling [github.com/charmbracelet/lipgloss.NewStyle]&#10;at tui.go:106: calling [(github.com/charmbracelet/lipgloss.Style).BorderForeground]&#10;at tui.go:111: calling [(github.com/charmbracelet/lipgloss.Style).Foreground]&#10;at tui.go:115: calling [(github.com/charmbracelet/lipgloss.Style).Foreground]&#10;at tui.go:118: calling [(github.com/charmbracelet/lipgloss.Style).Foreground]&#10;at tui.go:105: calling [(github.com/charmbracelet/lipgloss.Style).Border]&#10;at tui.go:110: calling [(github.com/charmbracelet/lipgloss.Style).Bold]&#10;at tui.go:114: calling [(github.com/charmbracelet/lipgloss.Style).Bold]&#10;at tui.go:121: calling [(github.com/charmbracelet/lipgloss.Style).Bold]&#10;at tui.go:105: calling [github.com/charmbracelet/lipgloss.RoundedBorder]">
<path fill="#add8e6" stroke="#000000" stroke-width=".5" d="M258.7918,-52C258.7918,-52 228.7918,-52 228.7918,-52 222.7918,-52 216.7918,-46 216.7918,-40 216.7918,-40 216.7918,-28 216.7918,-28 216.7918,-22 222.7918,-16 228.7918,-16 228.7918,-16 258.7918,-16 258.7918,-16 264.7918,-16 270.7918,-22 270.7918,-28 270.7918,-28 270.7918,-40 270.7918,-40 270.7918,-46 264.7918,-52 258.7918,-52"/>
<text text-anchor="middle" x="243.7918" y="-29.8" font-family="Verdana" font-size="14.00" fill="#000000">init</text>
</a>
</g>
</g>
<!-- github.com/charmbracelet/lipgloss.NewStyle -->
<g id="node4" class="node">
<title>github.com/charmbracelet/lipgloss.NewStyle</title>
<g id="a_node4"><a xlink:title="github.com/charmbracelet/lipgloss.NewStyle | defined in style.go:103">
<path fill="#ffe4b5" stroke="#000000" stroke-width="1.5" d="M490.9591,-52C490.9591,-52 435.5461,-52 435.5461,-52 429.5461,-52 423.5461,-46 423.5461,-40 423.5461,-40 423.5461,-28 423.5461,-28 423.5461,-22 429.5461,-16 435.5461,-16 435.5461,-16 490.9591,-16 490.9591,-16 496.9591,-16 502.9591,-22 502.9591,-28 502.9591,-28 502.9591,-40 502.9591,-40 502.9591,-46 496.9591,-52 490.9591,-52"/>
<text text-anchor="middle" x="463.2526" y="-38.2" font-family="Verdana" font-size="14.00" fill="#000000">lipgloss</text>
<text text-anchor="middle" x="463.2526" y="-21.4" font-family="Verdana" font-size="14.00" fill="#000000">NewStyle</text>
</a>
</g>
</g>
<!-- github.com/go&#45;i2p/go&#45;i2p/lib/tui.init&#45;&gt;github.com/charmbracelet/lipgloss.NewStyle -->
<g id="edge4" class="edge">
<title>github.com/go&#45;i2p/go&#45;i2p/lib/tui.init&#45;&gt;github.com/charmbracelet/lipgloss.NewStyle</title>
<g id="a_edge4"><a xlink:title="at tui.go:104: calling [github.com/charmbracelet/lipgloss.NewStyle]&#10;at tui.go:109: calling [github.com/charmbracelet/lipgloss.NewStyle]&#10;at tui.go:113: calling [github.com/charmbracelet/lipgloss.NewStyle]&#10;at tui.go:117: calling [github.com/charmbracelet/lipgloss.NewStyle]&#10;at tui.go:120: calling [github.com/charmbracelet/lipgloss.NewStyle]">
<path fill="none" stroke="#8b4513" d="M271.1429,-34C306.5658,-34 368.98,-34 413.0391,-34"/>
<polygon fill="#8b4513" stroke="#8b4513" points="413.2583,-37.5001 423.2583,-34 413.2582,-30.5001 413.2583,-37.5001"/>
</a>
</g>
</g>
<!-- github.com/charmbracelet/lipgloss.RoundedBorder -->
<g id="node5" class="node">
<title>github.com/charmbracelet/lipgloss.RoundedBorder</title>
<g id="a_node5"><a xlink:title="github.com/charmbracelet/lipgloss.RoundedBorder | defined in borders.go:228">
<path fill="#ffe4b5" stroke="#000000" stroke-width="1.5" d="M508.177,-113C508.177,-113 418.3282,-113 418.3282,-113 412.3282,-113 406.3282,-107 406.3282,-101 406.3282,-101 406.3282,-89 406.3282,-89 406.3282,-83 412.3282,-77 418.3282,-77 418.3282,-77 508.177,-77 508.177,-77 514.177,-77 520.177,-83 520.177,-89 520.177,-89 520.177,-101 520.177,-101 520.177,-107 514.177,-113 508.177,-113"/>
<text text-anchor="middle" x="463.2526" y="-99.2" font-family="Verdana" font-size="14.00" fill="#000000">lipgloss</text>
<text text-anchor="middle" x="463.2526" y="-82.4" font-family="Verdana" font-size="14.00" fill="#000000">RoundedBorder</text>
</a>
</g>
</g>
<!-- github.com/go&#45;i2p/go&#45;i2p/lib/tui.init&#45;&gt;github.com/charmbracelet/lipgloss.RoundedBorder -->
<g id="edge16" class="edge">
<title>github.com/go&#45;i2p/go&#45;i2p/lib/tui.init&#45;&gt;github.com/charmbracelet/lipgloss.RoundedBorder</title>
<g id="a_edge16"><a xlink:title="at tui.go:105: calling [github.com/charmbracelet/lipgloss.RoundedBorder]">
<path fill="none" stroke="#8b4513" d="M271.1429,-41.6024C302.3766,-50.2839 354.5949,-64.7981 396.7121,-76.5048"/>
<polygon fill="#8b4513" stroke="#8b4513" points="395.7837,-79.8794 406.3557,-79.1853 397.6583,-73.135 395.7837,-79.8794"/>
</a>
</g>
</g>
<!-- (github.com/charmbracelet/lipgloss.Style).Foreground -->
<g id="node8" class="node">
<title>(github.com/charmbracelet/lipgloss.Style).Foreground</title>
<g id="a_node8"><a xlink:title="(github.com/charmbracelet/lipgloss.Style).Foreground | defined in set.go:215">
<path fill="#ffe4b5" stroke="#000000" stroke-width="1.5" d="M496.0716,-435C496.0716,-435 430.4336,-435 430.4336,-435 424.4336,-435 418.4336,-429 418.4336,-423 418.4336,-423 418.4336,-411 418.4336,-411 418.4336,-405 424.4336,-399 430.4336,-399 430.4336,-399 496.0716,-399 496.0716,-399 502.0716,-399 508.0716,-405 508.0716,-411 508.0716,-411 508.0716,-423 508.0716,-423 508.0716,-429 502.0716,-435 496.0716,-435"/>
<text text-anchor="middle" x="463.2526" y="-421.2" font-family="Verdana" font-size="14.00" fill="#000000">lipgloss</text>
<text text-anchor="middle" x="463.2526" y="-404.4" font-family="Verdana" font-size="14.00" fill="#000000">Foreground</text>
</a>
</g>
</g>
<!-- github.com/go&#45;i2p/go&#45;i2p/lib/tui.init&#45;&gt;(github.com/charmbracelet/lipgloss.Style).Foreground -->
<g id="edge6" class="edge">
<title>github.com/go&#45;i2p/go&#45;i2p/lib/tui.init&#45;&gt;(github.com/charmbracelet/lipgloss.Style).Foreground</title>
<g id="a_edge6"><a xlink:title="at tui.go:111: calling [(github.com/charmbracelet/lipgloss.Style).Foreground]&#10;at tui.go:115: calling [(github.com/charmbracelet/lipgloss.Style).Foreground]&#10;at tui.go:118: calling [(github.com/charmbracelet/lipgloss.Style).Foreground]">
<path fill="none" stroke="#8b4513" d="M271.2076,-36.1239C291.6076,-39.2083 318.5217,-46.7267 334.1572,-65 381.4013,-120.2144 345.6995,-330.3057 391.1572,-387 395.9381,-392.9627 402.1096,-397.7541 408.8274,-401.6009"/>
<polygon fill="#8b4513" stroke="#8b4513" points="407.7346,-404.9662 418.2473,-406.2824 410.8499,-398.6976 407.7346,-404.9662"/>
</a>
</g>
</g>
<!-- (github.com/charmbracelet/lipgloss.Style).Border -->
<g id="node10" class="node">
<title>(github.com/charmbracelet/lipgloss.Style).Border</title>
<g id="a_node10"><a xlink:title="(github.com/charmbracelet/lipgloss.Style).Border | defined in set.go:413">
<path fill="#ffe4b5" stroke="#000000" stroke-width="1.5" d="M484.815,-252C484.815,-252 441.6902,-252 441.6902,-252 435.6902,-252 429.6902,-246 429.6902,-240 429.6902,-240 429.6902,-228 429.6902,-228 429.6902,-222 435.6902,-216 441.6902,-216 441.6902,-216 484.815,-216 484.815,-216 490.815,-216 496.815,-222 496.815,-228 496.815,-228 496.815,-240 496.815,-240 496.815,-246 490.815,-252 484.815,-252"/>
<text text-anchor="middle" x="463.2526" y="-238.2" font-family="Verdana" font-size="14.00" fill="#000000">lipgloss</text>
<text text-anchor="middle" x="463.2526" y="-221.4" font-family="Verdana" font-size="14.00" fill="#000000">Border</text>
</a>
</g>
</g>
<!-- github.com/go&#45;i2p/go&#45;i2p/lib/tui.init&#45;&gt;(github.com/charmbracelet/lipgloss.Style).Border -->
<g id="edge10" class="edge">
<title>github.com/go&#45;i2p/go&#45;i2p/lib/tui.init&#45;&gt;(github.com/charmbracelet/lipgloss.Style).Border</title>
<g id="a_edge10"><a xlink:title="at tui.go:105: calling [(github.com/charmbracelet/lipgloss.Style).Border]">
<path fill="none" stroke="#8b4513" d="M270.9822,-37.2767C290.727,-40.9622 316.9013,-48.7282 334.1572,-65 382.7358,-110.8082 344.0655,-156.6646 391.1572,-204 399.1365,-212.0206 409.575,-218 420.0213,-222.4167"/>
<polygon fill="#8b4513" stroke="#8b4513" points="418.956,-225.7562 429.5468,-226.0473 421.4491,-219.2152 418.956,-225.7562"/>
</a>
</g>
</g>
<!-- (github.com/charmbracelet/lipgloss.Style).BorderForeground -->
<g id="node11" class="node">
<title>(github.com/charmbracelet/lipgloss.Style).BorderForeground</title>
<g id="a_node11"><a xlink:title="(github.com/charmbracelet/lipgloss.Style).BorderForeground | defined in set.go:490">
<path fill="#ffe4b5" stroke="#000000" stroke-width="1.5" d="M515.4435,-313C515.4435,-313 411.0617,-313 411.0617,-313 405.0617,-313 399.0617,-307 399.0617,-301 399.0617,-301 399.0617,-289 399.0617,-289 399.0617,-283 405.0617,-277 411.0617,-277 411.0617,-277 515.4435,-277 515.4435,-277 521.4435,-277 527.4435,-283 527.4435,-289 527.4435,-289 527.4435,-301 527.4435,-301 527.4435,-307 521.4435,-313 515.4435,-313"/>
<text text-anchor="middle" x="463.2526" y="-299.2" font-family="Verdana" font-size="14.00" fill="#000000">lipgloss</text>
<text text-anchor="middle" x="463.2526" y="-282.4" font-family="Verdana" font-size="14.00" fill="#000000">BorderForeground</text>
</a>
</g>
</g>
<!-- github.com/go&#45;i2p/go&#45;i2p/lib/tui.init&#45;&gt;(github.com/charmbracelet/lipgloss.Style).BorderForeground -->
<g id="edge5" class="edge">
<title>github.com/go&#45;i2p/go&#45;i2p/lib/tui.init&#45;&gt;(github.com/charmbracelet/lipgloss.Style).BorderForeground</title>
<g id="a_edge5"><a xlink:title="at tui.go:106: calling [(github.com/charmbracelet/lipgloss.Style).BorderForeground]">
<path fill="none" stroke="#8b4513" d="M271.1088,-36.6585C291.1832,-40.029 317.7208,-47.6715 334.1572,-65 365.961,-98.5301 360.4398,-230.4718 391.1572,-265 393.1002,-267.184 395.2273,-269.213 397.4939,-271.0975"/>
<polygon fill="#8b4513" stroke="#8b4513" points="395.506,-273.9789 405.6718,-276.9636 399.5861,-268.2909 395.506,-273.9789"/>
</a>
</g>
</g>
<!-- (github.com/charmbracelet/lipgloss.Style).Padding -->
<g id="node12" class="node">
<title>(github.com/charmbracelet/lipgloss.Style).Padding</title>
<g id="a_node12"><a xlink:title="(github.com/charmbracelet/lipgloss.Style).Padding | defined in set.go:283">
<path fill="#ffe4b5" stroke="#000000" stroke-width="1.5" d="M486.1405,-374C486.1405,-374 440.3647,-374 440.3647,-374 434.3647,-374 428.3647,-368 428.3647,-362 428.3647,-362 428.3647,-350 428.3647,-350 428.3647,-344 434.3647,-338 440.3647,-338 440.3647,-338 486.1405,-338 486.1405,-338 492.1405,-338 498.1405,-344 498.1405,-350 498.1405,-350 498.1405,-362 498.1405,-362 498.1405,-368 492.1405,-374 486.1405,-374"/>
<text text-anchor="middle" x="463.2526" y="-360.2" font-family="Verdana" font-size="14.00" fill="#000000">lipgloss</text>
<text text-anchor="middle" x="463.2526" y="-343.4" font-family="Verdana" font-size="14.00" fill="#000000">Padding</text>
</a>
</g>
</g>
<!-- github.com/go&#45;i2p/go&#45;i2p/lib/tui.init&#45;&gt;(github.com/charmbracelet/lipgloss.Style).Padding -->
<g id="edge2" class="edge">
<title>github.com/go&#45;i2p/go&#45;i2p/lib/tui.init&#45;&gt;(github.com/charmbracelet/lipgloss.Style).Padding</title>
<g id="a_edge2"><a xlink:title="at tui.go:107: calling [(github.com/charmbracelet/lipgloss.Style).Padding]">
<path fill="none" stroke="#8b4513" d="M271.0042,-36.3015C291.2949,-39.4814 318.1611,-47.0416 334.1572,-65 373.6441,-109.3309 353.1055,-280.4313 391.1572,-326 398.3423,-334.6045 408.4074,-340.7803 418.7424,-345.1987"/>
<polygon fill="#8b4513" stroke="#8b4513" points="417.643,-348.5247 428.2348,-348.7816 420.115,-341.9757 417.643,-348.5247"/>
</a>
</g>
</g>
<!-- (github.com/charmbracelet/lipgloss.Style).Bold -->
<g id="node13" class="node">
<title>(github.com/charmbracelet/lipgloss.Style).Bold</title>
<g id="a_node13"><a xlink:title="(github.com/charmbracelet/lipgloss.Style).Bold | defined in set.go:162">
<path fill="#ffe4b5" stroke="#000000" stroke-width="1.5" d="M484.815,-191C484.815,-191 441.6902,-191 441.6902,-191 435.6902,-191 429.6902,-185 429.6902,-179 429.6902,-179 429.6902,-167 429.6902,-167 429.6902,-161 435.6902,-155 441.6902,-155 441.6902,-155 484.815,-155 484.815,-155 490.815,-155 496.815,-161 496.815,-167 496.815,-167 496.815,-179 496.815,-179 496.815,-185 490.815,-191 484.815,-191"/>
<text text-anchor="middle" x="463.2526" y="-177.2" font-family="Verdana" font-size="14.00" fill="#000000">lipgloss</text>
<text text-anchor="middle" x="463.2526" y="-160.4" font-family="Verdana" font-size="14.00" fill="#000000">Bold</text>
</a>
</g>
</g>
<!-- github.com/go&#45;i2p/go&#45;i2p/lib/tui.init&#45;&gt;(github.com/charmbracelet/lipgloss.Style).Bold -->
<g id="edge11" class="edge">
<title>github.com/go&#45;i2p/go&#45;i2p/lib/tui.init&#45;&gt;(github.com/charmbracelet/lipgloss.Style).Bold</title>
<g id="a_edge11"><a xlink:title="at tui.go:110: calling [(github.com/charmbracelet/lipgloss.Style).Bold]&#10;at tui.go:114: calling [(github.com/charmbracelet/lipgloss.Style).Bold]&#10;at tui.go:121: calling [(github.com/charmbracelet/lipgloss.Style).Bold]">
<path fill="none" stroke="#8b4513" d="M270.9128,-38.4891C290.1194,-42.7473 315.6534,-50.699 334.1572,-65 370.4394,-93.0414 354.3995,-123.5849 391.1572,-151 399.4968,-157.2199 409.6095,-161.6984 419.5899,-164.9171"/>
<polygon fill="#8b4513" stroke="#8b4513" points="418.8788,-168.3539 429.4555,-167.7338 420.8006,-161.6228 418.8788,-168.3539"/>
</a>
</g>
</g>
<!-- (github.com/charmbracelet/bubbletea.KeyMsg).String -->
<g id="node6" class="node">
<title>(github.com/charmbracelet/bubbletea.KeyMsg).String</title>
<g id="a_node6"><a xlink:title="(github.com/charmbracelet/bubbletea.KeyMsg).String | defined in key.go:49">
<path fill="#ffe4b5" stroke="#000000" stroke-width="1.5" d="M261.0166,-399C261.0166,-399 226.567,-399 226.567,-399 220.567,-399 214.567,-393 214.567,-387 214.567,-387 214.567,-375 214.567,-375 214.567,-369 220.567,-363 226.567,-363 226.567,-363 261.0166,-363 261.0166,-363 267.0166,-363 273.0166,-369 273.0166,-375 273.0166,-375 273.0166,-387 273.0166,-387 273.0166,-393 267.0166,-399 261.0166,-399"/>
<text text-anchor="middle" x="243.7918" y="-385.2" font-family="Verdana" font-size="14.00" fill="#000000">tea</text>
<text text-anchor="middle" x="243.7918" y="-368.4" font-family="Verdana" font-size="14.00" fill="#000000">String</text>
</a>
</g>
</g>
<!-- (github.com/charmbracelet/lipgloss.Style).Copy -->
<g id="node7" class="node">
<title>(github.com/charmbracelet/lipgloss.Style).Copy</title>
<g id="a_node7"><a xlink:title="(github.com/charmbracelet/lipgloss.Style).Copy | defined in style.go:195">
<path fill="#ffe4b5" stroke="#000000" stroke-width="1.5" d="M484.815,-496C484.815,-496 441.6902,-496 441.6902,-496 435.6902,-496 429.6902,-490 429.6902,-484 429.6902,-484 429.6902,-472 429.6902,-472 429.6902,-466 435.6902,-460 441.6902,-460 441.6902,-460 484.815,-460 484.815,-460 490.815,-460 496.815,-466 496.815,-472 496.815,-472 496.815,-484 496.815,-484 496.815,-490 490.815,-496 484.815,-496"/>
<text text-anchor="middle" x="463.2526" y="-482.2" font-family="Verdana" font-size="14.00" fill="#000000">lipgloss</text>
<text text-anchor="middle" x="463.2526" y="-465.4" font-family="Verdana" font-size="14.00" fill="#000000">Copy</text>
</a>
</g>
</g>
<!-- (github.com/charmbracelet/lipgloss.Style).Render -->
<g id="node9" class="node">
<title>(github.com/charmbracelet/lipgloss.Style).Render</title>
<g id="a_node9"><a xlink:title="(github.com/charmbracelet/lipgloss.Style).Render | defined in style.go:234">
<path fill="#ffe4b5" stroke="#000000" stroke-width="1.5" d="M484.815,-557C484.815,-557 441.6902,-557 441.6902,-557 435.6902,-557 429.6902,-551 429.6902,-545 429.6902,-545 429.6902,-533 429.6902,-533 429.6902,-527 435.6902,-521 441.6902,-521 441.6902,-521 484.815,-521 484.815,-521 490.815,-521 496.815,-527 496.815,-533 496.815,-533 496.815,-545 496.815,-545 496.815,-551 490.815,-557 484.815,-557"/>
<text text-anchor="middle" x="463.2526" y="-543.2" font-family="Verdana" font-size="14.00" fill="#000000">lipgloss</text>
<text text-anchor="middle" x="463.2526" y="-526.4" font-family="Verdana" font-size="14.00" fill="#000000">Render</text>
</a>
</g>
</g>
<!-- (github.com/go&#45;i2p/go&#45;i2p/lib/tui.WrapperModel).Update -->
<g id="node14" class="node">
<title>(github.com/go&#45;i2p/go&#45;i2p/lib/tui.WrapperModel).Update</title>
<g id="a_node14"><a xlink:title="(github.com/go&#45;i2p/go&#45;i2p/lib/tui.WrapperModel).Update | defined in tui.go:63&#10;at tui.go:74: calling [(github.com/charmbracelet/bubbletea.KeyMsg).String]&#10;at tui.go:80: calling [(github.com/charmbracelet/bubbletea.KeyMsg).String]&#10;at tui.go:74: calling [(github.com/charmbracelet/bubbletea.KeyMsg).String]&#10;at tui.go:74: calling [(github.com/charmbracelet/bubbletea.KeyMsg).String]&#10;at tui.go:86: calling [(github.com/go&#45;i2p/i2ptui.Model).Update]">
<path fill="#add8e6" stroke="#000000" stroke-width="1.5" d="M76.641,-252C76.641,-252 35.7854,-252 35.7854,-252 29.7854,-252 23.7854,-246 23.7854,-240 23.7854,-240 23.7854,-228 23.7854,-228 23.7854,-222 29.7854,-216 35.7854,-216 35.7854,-216 76.641,-216 76.641,-216 82.641,-216 88.641,-222 88.641,-228 88.641,-228 88.641,-240 88.641,-240 88.641,-246 82.641,-252 76.641,-252"/>
<text text-anchor="middle" x="56.2132" y="-229.8" font-family="Verdana" font-size="14.00" fill="#000000">Update</text>
</a>
</g>
</g>
<!-- (github.com/go&#45;i2p/go&#45;i2p/lib/tui.WrapperModel).Update&#45;&gt;(github.com/charmbracelet/bubbletea.KeyMsg).String -->
<g id="edge7" class="edge">
<title>(github.com/go&#45;i2p/go&#45;i2p/lib/tui.WrapperModel).Update&#45;&gt;(github.com/charmbracelet/bubbletea.KeyMsg).String</title>
<g id="a_edge7"><a xlink:title="at tui.go:74: calling [(github.com/charmbracelet/bubbletea.KeyMsg).String]&#10;at tui.go:80: calling [(github.com/charmbracelet/bubbletea.KeyMsg).String]&#10;at tui.go:74: calling [(github.com/charmbracelet/bubbletea.KeyMsg).String]&#10;at tui.go:74: calling [(github.com/charmbracelet/bubbletea.KeyMsg).String]">
<path fill="none" stroke="#8b4513" d="M75.2757,-252.3555C95.8237,-271.7759 129.8419,-302.8852 161.4264,-327 175.4946,-337.7411 191.6528,-348.625 205.9106,-357.78"/>
<polygon fill="#8b4513" stroke="#8b4513" points="204.1891,-360.8328 214.5068,-363.2401 207.9422,-354.924 204.1891,-360.8328"/>
</a>
</g>
</g>
<!-- (github.com/go&#45;i2p/i2ptui.Model).Update -->
<g id="node19" class="node">
<title>(github.com/go&#45;i2p/i2ptui.Model).Update</title>
<g id="a_node19"><a xlink:title="(github.com/go&#45;i2p/i2ptui.Model).Update | defined in model.go:151">
<path fill="#ffe4b5" stroke="#000000" stroke-width="1.5" d="M264.2196,-546C264.2196,-546 223.364,-546 223.364,-546 217.364,-546 211.364,-540 211.364,-534 211.364,-534 211.364,-522 211.364,-522 211.364,-516 217.364,-510 223.364,-510 223.364,-510 264.2196,-510 264.2196,-510 270.2196,-510 276.2196,-516 276.2196,-522 276.2196,-522 276.2196,-534 276.2196,-534 276.2196,-540 270.2196,-546 264.2196,-546"/>
<text text-anchor="middle" x="243.7918" y="-532.2" font-family="Verdana" font-size="14.00" fill="#000000">i2ptui</text>
<text text-anchor="middle" x="243.7918" y="-515.4" font-family="Verdana" font-size="14.00" fill="#000000">Update</text>
</a>
</g>
</g>
<!-- (github.com/go&#45;i2p/go&#45;i2p/lib/tui.WrapperModel).Update&#45;&gt;(github.com/go&#45;i2p/i2ptui.Model).Update -->
<g id="edge12" class="edge">
<title>(github.com/go&#45;i2p/go&#45;i2p/lib/tui.WrapperModel).Update&#45;&gt;(github.com/go&#45;i2p/i2ptui.Model).Update</title>
<g id="a_edge12"><a xlink:title="at tui.go:86: calling [(github.com/go&#45;i2p/i2ptui.Model).Update]">
<path fill="none" stroke="#8b4513" d="M78.3221,-252.3387C82.0747,-256.2208 85.6493,-260.5118 88.4264,-265 145.5271,-357.2817 86.4642,-419.533 161.4264,-498 172.1032,-509.176 187.2722,-516.2061 201.6886,-520.6209"/>
<polygon fill="#8b4513" stroke="#8b4513" points="200.9169,-524.038 211.4845,-523.2783 202.7496,-517.2822 200.9169,-524.038"/>
</a>
</g>
</g>
<!-- (github.com/go&#45;i2p/go&#45;i2p/lib/tui.WrapperModel).renderReachabilityStatus -->
<g id="node15" class="node">
<title>(github.com/go&#45;i2p/go&#45;i2p/lib/tui.WrapperModel).renderReachabilityStatus</title>
<g id="a_node15"><a xlink:title="(github.com/go&#45;i2p/go&#45;i2p/lib/tui.WrapperModel).renderReachabilityStatus | defined in tui.go:134&#10;at tui.go:140: calling [(github.com/charmbracelet/lipgloss.Style).Copy]&#10;at tui.go:140: calling [(github.com/charmbracelet/lipgloss.Style).Render]&#10;at tui.go:140: calling [(github.com/charmbracelet/lipgloss.Style).Foreground]">
<path fill="#add8e6" stroke="#000000" stroke-width=".5" d="M314.0228,-252C314.0228,-252 173.5608,-252 173.5608,-252 167.5608,-252 161.5608,-246 161.5608,-240 161.5608,-240 161.5608,-228 161.5608,-228 161.5608,-222 167.5608,-216 173.5608,-216 173.5608,-216 314.0228,-216 314.0228,-216 320.0228,-216 326.0228,-222 326.0228,-228 326.0228,-228 326.0228,-240 326.0228,-240 326.0228,-246 320.0228,-252 314.0228,-252"/>
<text text-anchor="middle" x="243.7918" y="-229.8" font-family="Verdana" font-size="14.00" fill="#000000">renderReachabilityStatus</text>
</a>
</g>
</g>
<!-- (github.com/go&#45;i2p/go&#45;i2p/lib/tui.WrapperModel).renderReachabilityStatus&#45;&gt;(github.com/charmbracelet/lipgloss.Style).Copy -->
<g id="edge8" class="edge">
<title>(github.com/go&#45;i2p/go&#45;i2p/lib/tui.WrapperModel).renderReachabilityStatus&#45;&gt;(github.com/charmbracelet/lipgloss.Style).Copy</title>
<g id="a_edge8"><a xlink:title="at tui.go:140: calling [(github.com/charmbracelet/lipgloss.Style).Copy]">
<path fill="none" stroke="#8b4513" d="M317.042,-252.0481C323.3363,-255.6146 329.1866,-259.8856 334.1572,-265 363.8429,-295.5447 362.4616,-416.5233 391.1572,-448 398.8492,-456.4375 409.2829,-462.5703 419.8219,-467.0016"/>
<polygon fill="#8b4513" stroke="#8b4513" points="418.8622,-470.3796 429.4545,-470.6102 421.3179,-463.8245 418.8622,-470.3796"/>
</a>
</g>
</g>
<!-- (github.com/go&#45;i2p/go&#45;i2p/lib/tui.WrapperModel).renderReachabilityStatus&#45;&gt;(github.com/charmbracelet/lipgloss.Style).Foreground -->
<g id="edge13" class="edge">
<title>(github.com/go&#45;i2p/go&#45;i2p/lib/tui.WrapperModel).renderReachabilityStatus&#45;&gt;(github.com/charmbracelet/lipgloss.Style).Foreground</title>
<g id="a_edge13"><a xlink:title="at tui.go:140: calling [(github.com/charmbracelet/lipgloss.Style).Foreground]">
<path fill="none" stroke="#8b4513" d="M314.9971,-252.0618C321.9296,-255.6322 328.4826,-259.9002 334.1572,-265 378.6709,-305.0044 347.9431,-345.5951 391.1572,-387 396.4065,-392.0295 402.6201,-396.2684 409.1637,-399.827"/>
<polygon fill="#8b4513" stroke="#8b4513" points="407.7115,-403.013 418.2317,-404.2685 410.7906,-396.7265 407.7115,-403.013"/>
</a>
</g>
</g>
<!-- (github.com/go&#45;i2p/go&#45;i2p/lib/tui.WrapperModel).renderReachabilityStatus&#45;&gt;(github.com/charmbracelet/lipgloss.Style).Render -->
<g id="edge9" class="edge">
<title>(github.com/go&#45;i2p/go&#45;i2p/lib/tui.WrapperModel).renderReachabilityStatus&#45;&gt;(github.com/charmbracelet/lipgloss.Style).Render</title>
<g id="a_edge9"><a xlink:title="at tui.go:140: calling [(github.com/charmbracelet/lipgloss.Style).Render]">
<path fill="none" stroke="#8b4513" d="M318.2977,-252.1939C324.1805,-255.7308 329.5975,-259.955 334.1572,-265 371.4931,-306.3101 355.1589,-466.5192 391.1572,-509 398.6817,-517.8795 409.2676,-524.1773 420.0153,-528.6264"/>
<polygon fill="#8b4513" stroke="#8b4513" points="418.8354,-531.9216 429.429,-532.0787 421.2456,-525.3496 418.8354,-531.9216"/>
</a>
</g>
</g>
<!-- (github.com/go&#45;i2p/go&#45;i2p/lib/tui.WrapperModel).View -->
<g id="node16" class="node">
<title>(github.com/go&#45;i2p/go&#45;i2p/lib/tui.WrapperModel).View</title>
<g id="a_node16"><a xlink:title="(github.com/go&#45;i2p/go&#45;i2p/lib/tui.WrapperModel).View | defined in tui.go:94&#10;at tui.go:95: calling [(github.com/go&#45;i2p/i2ptui.Model).View]&#10;at tui.go:96: calling [(github.com/go&#45;i2p/go&#45;i2p/lib/tui.WrapperModel).renderReachabilityStatus]&#10;at tui.go:98: calling [(github.com/go&#45;i2p/go&#45;i2p/lib/tui.WrapperModel).renderPasswordPanel]">
<path fill="#add8e6" stroke="#000000" stroke-width="1.5" d="M71.5325,-191C71.5325,-191 40.8939,-191 40.8939,-191 34.8939,-191 28.8939,-185 28.8939,-179 28.8939,-179 28.8939,-167 28.8939,-167 28.8939,-161 34.8939,-155 40.8939,-155 40.8939,-155 71.5325,-155 71.5325,-155 77.5325,-155 83.5325,-161 83.5325,-167 83.5325,-167 83.5325,-179 83.5325,-179 83.5325,-185 77.5325,-191 71.5325,-191"/>
<text text-anchor="middle" x="56.2132" y="-168.8" font-family="Verdana" font-size="14.00" fill="#000000">View</text>
</a>
</g>
</g>
<!-- (github.com/go&#45;i2p/go&#45;i2p/lib/tui.WrapperModel).View&#45;&gt;(github.com/go&#45;i2p/go&#45;i2p/lib/tui.WrapperModel).renderReachabilityStatus -->
<g id="edge17" class="edge">
<title>(github.com/go&#45;i2p/go&#45;i2p/lib/tui.WrapperModel).View&#45;&gt;(github.com/go&#45;i2p/go&#45;i2p/lib/tui.WrapperModel).renderReachabilityStatus</title>
<g id="a_edge17"><a xlink:title="at tui.go:96: calling [(github.com/go&#45;i2p/go&#45;i2p/lib/tui.WrapperModel).renderReachabilityStatus]">
<path fill="none" stroke="#000000" d="M83.6573,-183.9797C104.7456,-192.2192 134.6942,-203.4961 161.4264,-212 162.4842,-212.3365 163.5508,-212.6722 164.6246,-213.0068"/>
<polygon fill="#000000" stroke="#000000" points="163.8625,-216.4329 174.4478,-215.9827 165.8921,-209.7336 163.8625,-216.4329"/>
</a>
</g>
</g>
<!-- (github.com/go&#45;i2p/go&#45;i2p/lib/tui.WrapperModel).renderPasswordPanel -->
<g id="node17" class="node">
<title>(github.com/go&#45;i2p/go&#45;i2p/lib/tui.WrapperModel).renderPasswordPanel</title>
<g id="a_node17"><a xlink:title="(github.com/go&#45;i2p/go&#45;i2p/lib/tui.WrapperModel).renderPasswordPanel | defined in tui.go:144&#10;at tui.go:146: calling [(github.com/charmbracelet/lipgloss.Style).Render]&#10;at tui.go:148: calling [(github.com/charmbracelet/lipgloss.Style).Render]&#10;at tui.go:148: calling [(github.com/charmbracelet/lipgloss.Style).Render]&#10;at tui.go:149: calling [(github.com/charmbracelet/lipgloss.Style).Render]&#10;at tui.go:149: calling [(github.com/charmbracelet/lipgloss.Style).Render]&#10;at tui.go:156: calling [(github.com/charmbracelet/lipgloss.Style).Render]">
<path fill="#add8e6" stroke="#000000" stroke-width=".5" d="M303.799,-313C303.799,-313 183.7846,-313 183.7846,-313 177.7846,-313 171.7846,-307 171.7846,-301 171.7846,-301 171.7846,-289 171.7846,-289 171.7846,-283 177.7846,-277 183.7846,-277 183.7846,-277 303.799,-277 303.799,-277 309.799,-277 315.799,-283 315.799,-289 315.799,-289 315.799,-301 315.799,-301 315.799,-307 309.799,-313 303.799,-313"/>
<text text-anchor="middle" x="243.7918" y="-290.8" font-family="Verdana" font-size="14.00" fill="#000000">renderPasswordPanel</text>
</a>
</g>
</g>
<!-- (github.com/go&#45;i2p/go&#45;i2p/lib/tui.WrapperModel).View&#45;&gt;(github.com/go&#45;i2p/go&#45;i2p/lib/tui.WrapperModel).renderPasswordPanel -->
<g id="edge18" class="edge">
<title>(github.com/go&#45;i2p/go&#45;i2p/lib/tui.WrapperModel).View&#45;&gt;(github.com/go&#45;i2p/go&#45;i2p/lib/tui.WrapperModel).renderPasswordPanel</title>
<g id="a_edge18"><a xlink:title="at tui.go:98: calling [(github.com/go&#45;i2p/go&#45;i2p/lib/tui.WrapperModel).renderPasswordPanel]">
<path fill="none" stroke="#000000" d="M75.2306,-191.1544C100.2085,-214.7242 143.0453,-254.1338 161.4264,-265 166.1754,-267.8074 171.2309,-270.4213 176.411,-272.8401"/>
<polygon fill="#000000" stroke="#000000" points="175.2675,-276.1607 185.8303,-276.9831 178.0858,-269.7531 175.2675,-276.1607"/>
</a>
</g>
</g>
<!-- (github.com/go&#45;i2p/i2ptui.Model).View -->
<g id="node20" class="node">
<title>(github.com/go&#45;i2p/i2ptui.Model).View</title>
<g id="a_node20"><a xlink:title="(github.com/go&#45;i2p/i2ptui.Model).View | defined in model.go:278">
<path fill="#ffe4b5" stroke="#000000" stroke-width="1.5" d="M259.9645,-485C259.9645,-485 227.6191,-485 227.6191,-485 221.6191,-485 215.6191,-479 215.6191,-473 215.6191,-473 215.6191,-461 215.6191,-461 215.6191,-455 221.6191,-449 227.6191,-449 227.6191,-449 259.9645,-449 259.9645,-449 265.9645,-449 271.9645,-455 271.9645,-461 271.9645,-461 271.9645,-473 271.9645,-473 271.9645,-479 265.9645,-485 259.9645,-485"/>
<text text-anchor="middle" x="243.7918" y="-471.2" font-family="Verdana" font-size="14.00" fill="#000000">i2ptui</text>
<text text-anchor="middle" x="243.7918" y="-454.4" font-family="Verdana" font-size="14.00" fill="#000000">View</text>
</a>
</g>
</g>
<!-- (github.com/go&#45;i2p/go&#45;i2p/lib/tui.WrapperModel).View&#45;&gt;(github.com/go&#45;i2p/i2ptui.Model).View -->
<g id="edge14" class="edge">
<title>(github.com/go&#45;i2p/go&#45;i2p/lib/tui.WrapperModel).View&#45;&gt;(github.com/go&#45;i2p/i2ptui.Model).View</title>
<g id="a_edge14"><a xlink:title="at tui.go:95: calling [(github.com/go&#45;i2p/i2ptui.Model).View]">
<path fill="none" stroke="#8b4513" d="M77.8726,-191.0716C81.7554,-195.0367 85.4931,-199.4268 88.4264,-204 141.5477,-286.8198 100.8476,-335.4681 161.4264,-413 173.3069,-428.2052 190.7188,-440.4984 206.4766,-449.4922"/>
<polygon fill="#8b4513" stroke="#8b4513" points="205.0519,-452.7014 215.5091,-454.4034 208.3957,-446.5517 205.0519,-452.7014"/>
</a>
</g>
</g>
<!-- (github.com/go&#45;i2p/go&#45;i2p/lib/tui.WrapperModel).renderPasswordPanel&#45;&gt;(github.com/charmbracelet/lipgloss.Style).Render -->
<g id="edge3" class="edge">
<title>(github.com/go&#45;i2p/go&#45;i2p/lib/tui.WrapperModel).renderPasswordPanel&#45;&gt;(github.com/charmbracelet/lipgloss.Style).Render</title>
<g id="a_edge3"><a xlink:title="at tui.go:146: calling [(github.com/charmbracelet/lipgloss.Style).Render]&#10;at tui.go:148: calling [(github.com/charmbracelet/lipgloss.Style).Render]&#10;at tui.go:148: calling [(github.com/charmbracelet/lipgloss.Style).Render]&#10;at tui.go:149: calling [(github.com/charmbracelet/lipgloss.Style).Render]&#10;at tui.go:149: calling [(github.com/charmbracelet/lipgloss.Style).Render]&#10;at tui.go:156: calling [(github.com/charmbracelet/lipgloss.Style).Render]">
<path fill="none" stroke="#8b4513" d="M315.8877,-308.9746C322.7411,-312.6323 329.031,-317.2284 334.1572,-323 379.7735,-374.3592 332.6387,-412.9736 362.1572,-475 370.692,-492.9339 375.1024,-497.3075 391.1572,-509 399.8771,-515.3506 410.1414,-520.6517 420.1478,-524.9421"/>
<polygon fill="#8b4513" stroke="#8b4513" points="419.0198,-528.261 429.6035,-528.7473 421.6331,-521.767 419.0198,-528.261"/>
</a>
</g>
</g>
<!-- (github.com/go&#45;i2p/go&#45;i2p/lib/tui.WrapperModel).Init -->
<g id="node18" class="node">
<title>(github.com/go&#45;i2p/go&#45;i2p/lib/tui.WrapperModel).Init</title>
<g id="a_node18"><a xlink:title="(github.com/go&#45;i2p/go&#45;i2p/lib/tui.WrapperModel).Init | defined in tui.go:58&#10;at tui.go:59: calling [(github.com/go&#45;i2p/i2ptui.Model).Init]">
<path fill="#add8e6" stroke="#000000" stroke-width="1.5" d="M71.2132,-313C71.2132,-313 41.2132,-313 41.2132,-313 35.2132,-313 29.2132,-307 29.2132,-301 29.2132,-301 29.2132,-289 29.2132,-289 29.2132,-283 35.2132,-277 41.2132,-277 41.2132,-277 71.2132,-277 71.2132,-277 77.2132,-277 83.2132,-283 83.2132,-289 83.2132,-289 83.2132,-301 83.2132,-301 83.2132,-307 77.2132,-313 71.2132,-313"/>
<text text-anchor="middle" x="56.2132" y="-290.8" font-family="Verdana" font-size="14.00" fill="#000000">Init</text>
</a>
</g>
</g>
<!-- (github.com/go&#45;i2p/i2ptui.Model).Init -->
<g id="node21" class="node">
<title>(github.com/go&#45;i2p/i2ptui.Model).Init</title>
<g id="a_node21"><a xlink:title="(github.com/go&#45;i2p/i2ptui.Model).Init | defined in model.go:134">
<path fill="#ffe4b5" stroke="#000000" stroke-width="1.5" d="M259.9645,-607C259.9645,-607 227.6191,-607 227.6191,-607 221.6191,-607 215.6191,-601 215.6191,-595 215.6191,-595 215.6191,-583 215.6191,-583 215.6191,-577 221.6191,-571 227.6191,-571 227.6191,-571 259.9645,-571 259.9645,-571 265.9645,-571 271.9645,-577 271.9645,-583 271.9645,-583 271.9645,-595 271.9645,-595 271.9645,-601 265.9645,-607 259.9645,-607"/>
<text text-anchor="middle" x="243.7918" y="-593.2" font-family="Verdana" font-size="14.00" fill="#000000">i2ptui</text>
<text text-anchor="middle" x="243.7918" y="-576.4" font-family="Verdana" font-size="14.00" fill="#000000">Init</text>
</a>
</g>
</g>
<!-- (github.com/go&#45;i2p/go&#45;i2p/lib/tui.WrapperModel).Init&#45;&gt;(github.com/go&#45;i2p/i2ptui.Model).Init -->
<g id="edge15" class="edge">
<title>(github.com/go&#45;i2p/go&#45;i2p/lib/tui.WrapperModel).Init&#45;&gt;(github.com/go&#45;i2p/i2ptui.Model).Init</title>
<g id="a_edge15"><a xlink:title="at tui.go:59: calling [(github.com/go&#45;i2p/i2ptui.Model).Init]">
<path fill="none" stroke="#8b4513" d="M58.3391,-313.1778C64.8074,-360.4037 88.489,-488.2148 161.4264,-559 173.431,-570.6504 190.3121,-577.8269 205.6687,-582.2236"/>
<polygon fill="#8b4513" stroke="#8b4513" points="204.9181,-585.6442 215.4734,-584.7305 206.6521,-578.8624 204.9181,-585.6442"/>
</a>
</g>
</g>
</g>
</svg>
